# Blender 5.1.2
# www.blender.org
mtllib cooper.mtl
o cube.009
v -0.577647 0.076528 -0.525161
v -0.547216 0.069615 -0.388459
v -0.578978 -0.059374 -0.531737
v -0.548547 -0.066287 -0.395035
v -0.410346 0.069749 -0.418920
v -0.440776 0.076661 -0.555623
v -0.411677 -0.066154 -0.425496
v -0.442107 -0.059241 -0.562199
v -0.410346 0.069749 -0.418920
v -0.547216 0.069615 -0.388459
v -0.440776 0.076661 -0.555623
v -0.577647 0.076528 -0.525161
v -0.442107 -0.059241 -0.562199
v -0.578978 -0.059374 -0.531737
v -0.411677 -0.066154 -0.425496
v -0.548547 -0.066287 -0.395035
v -0.440776 0.076661 -0.555623
v -0.577647 0.076528 -0.525161
v -0.442107 -0.059241 -0.562199
v -0.578978 -0.059374 -0.531737
v -0.547216 0.069615 -0.388459
v -0.410346 0.069749 -0.418920
v -0.548547 -0.066287 -0.395035
v -0.411677 -0.066154 -0.425496
vn -0.9761 -0.0010 0.2172
vn 0.9761 0.0010 -0.2172
vn 0.0098 0.9988 0.0483
vn -0.0098 -0.9988 -0.0483
vn -0.2170 0.0493 -0.9749
vn 0.2170 -0.0493 0.9749
vt 0.000000 0.000000
vt 0.000000 1.000000
vt 1.000000 0.000000
vt 1.000000 1.000000
s 0
usemtl Material_0.002
f 1/1/1 3/2/1 2/3/1
f 3/2/1 4/4/1 2/3/1
f 5/1/2 7/2/2 6/3/2
f 7/2/2 8/4/2 6/3/2
f 9/1/3 11/2/3 10/3/3
f 11/2/3 12/4/3 10/3/3
f 13/1/4 15/2/4 14/3/4
f 15/2/4 16/4/4 14/3/4
f 17/1/5 19/2/5 18/3/5
f 19/2/5 20/4/5 18/3/5
f 21/1/6 23/2/6 22/3/6
f 23/2/6 24/4/6 22/3/6
o cube.010
v -0.577626 0.210406 -0.520695
v -0.547195 0.203494 -0.383992
v -0.578957 0.074504 -0.527271
v -0.548526 0.067592 -0.390568
v -0.410325 0.203627 -0.414453
v -0.440756 0.210540 -0.551156
v -0.411656 0.067725 -0.421029
v -0.442087 0.074638 -0.557732
v -0.410325 0.203627 -0.414453
v -0.547195 0.203494 -0.383992
v -0.440756 0.210540 -0.551156
v -0.577626 0.210406 -0.520695
v -0.442087 0.074638 -0.557732
v -0.578957 0.074504 -0.527271
v -0.411656 0.067725 -0.421029
v -0.548526 0.067592 -0.390568
v -0.440756 0.210540 -0.551156
v -0.577626 0.210406 -0.520695
v -0.442087 0.074638 -0.557732
v -0.578957 0.074504 -0.527271
v -0.547195 0.203494 -0.383992
v -0.410325 0.203627 -0.414453
v -0.548526 0.067592 -0.390568
v -0.411656 0.067725 -0.421029
vn -0.9761 -0.0010 0.2172
vn 0.9761 0.0010 -0.2172
vn 0.0098 0.9988 0.0483
vn -0.0098 -0.9988 -0.0483
vn -0.2170 0.0493 -0.9749
vn 0.2170 -0.0493 0.9749
vt 0.000000 0.000000
vt 0.000000 1.000000
vt 1.000000 0.000000
vt 1.000000 1.000000
s 0
usemtl Material_0.002
f 25/5/7 27/6/7 26/7/7
f 27/6/7 28/8/7 26/7/7
f 29/5/8 31/6/8 30/7/8
f 31/6/8 32/8/8 30/7/8
f 33/5/9 35/6/9 34/7/9
f 35/6/9 36/8/9 34/7/9
f 37/5/10 39/6/10 38/7/10
f 39/6/10 40/8/10 38/7/10
f 41/5/11 43/6/11 42/7/11
f 43/6/11 44/8/11 42/7/11
f 45/5/12 47/6/12 46/7/12
f 47/6/12 48/8/12 46/7/12
