# Blender 5.1.2
# www.blender.org
mtllib diamond_sword.mtl
o espada_diamante_4k_xd
v 0.121097 0.321553 -0.658955
v 0.113442 0.313896 -0.657537
v 0.106027 0.321671 -0.655586
v 0.113693 0.329326 -0.656956
v 0.098633 0.329442 -0.653539
v 0.106289 0.337099 -0.654957
v 0.120846 0.306123 -0.659536
v 0.113190 0.298466 -0.658118
v 0.105775 0.306241 -0.656168
v 0.098382 0.314012 -0.654120
v 0.090978 0.321786 -0.652121
v 0.157615 0.251826 -0.670111
v 0.149960 0.244170 -0.668694
v 0.142556 0.251943 -0.666695
v 0.150211 0.259600 -0.668112
v 0.135151 0.259716 -0.664696
v 0.142807 0.267373 -0.666113
v 0.120595 0.290693 -0.660117
v 0.112939 0.283036 -0.658699
v 0.105524 0.290811 -0.656749
v 0.098131 0.298583 -0.654701
v 0.090726 0.306356 -0.652702
v 0.134900 0.244286 -0.665277
v 0.127496 0.252060 -0.663278
v 0.120092 0.259833 -0.661279
v 0.127747 0.267489 -0.662697
v 0.120343 0.275263 -0.660698
v 0.112688 0.267606 -0.659280
v 0.105272 0.275382 -0.657330
v 0.097879 0.283153 -0.655282
v 0.090475 0.290926 -0.653284
v 0.119840 0.244403 -0.661860
v 0.112425 0.252178 -0.659910
v 0.105021 0.259952 -0.657911
v 0.112688 0.267606 -0.659280
v 0.105021 0.259952 -0.657911
v 0.097628 0.267723 -0.655864
v 0.090224 0.275496 -0.653865
v 0.127244 0.236630 -0.663859
v 0.119589 0.228973 -0.662441
v 0.112174 0.236748 -0.660491
v 0.119840 0.244403 -0.661860
v 0.119840 0.244403 -0.661860
v 0.104769 0.244522 -0.658492
v 0.112425 0.252178 -0.659910
v 0.119840 0.244403 -0.661860
v 0.104769 0.244522 -0.658492
v 0.097365 0.252295 -0.656493
v 0.089972 0.260066 -0.654446
v 0.097628 0.267723 -0.655864
v 0.126993 0.221200 -0.664440
v 0.119337 0.213543 -0.663022
v 0.111922 0.221319 -0.661072
v 0.104518 0.229092 -0.659073
v 0.097114 0.236865 -0.657074
v 0.089721 0.244637 -0.655027
v 0.097365 0.252295 -0.656493
v 0.089721 0.244637 -0.655027
v 0.082317 0.252410 -0.653028
v 0.074912 0.260183 -0.651029
v 0.082568 0.267840 -0.652447
v 0.126741 0.205770 -0.665021
v 0.119086 0.198114 -0.663604
v 0.111671 0.205889 -0.661653
v 0.104267 0.213662 -0.659654
v 0.096862 0.221435 -0.657655
v 0.089469 0.229207 -0.655608
v 0.082065 0.236980 -0.653609
v 0.074661 0.244753 -0.651610
v 0.067257 0.252527 -0.649611
v 0.059853 0.260300 -0.647612
v 0.067508 0.267956 -0.649030
v 0.126490 0.190340 -0.665603
v 0.118834 0.182684 -0.664185
v 0.111419 0.190459 -0.662234
v 0.104015 0.198232 -0.660235
v 0.096611 0.206005 -0.658237
v 0.089218 0.213777 -0.656189
v 0.081814 0.221550 -0.654190
v 0.059601 0.244870 -0.648194
v 0.052197 0.252643 -0.646195
v 0.126239 0.174910 -0.666184
v 0.118583 0.167254 -0.664766
v 0.111168 0.175029 -0.662816
v 0.103764 0.182802 -0.660817
v 0.096360 0.190576 -0.658818
v 0.088967 0.198347 -0.656770
v 0.081562 0.206120 -0.654772
v 0.125987 0.159481 -0.666765
v 0.118332 0.151824 -0.665347
v 0.110917 0.159599 -0.663397
v 0.103513 0.167372 -0.661398
v 0.096108 0.175146 -0.659399
v 0.088715 0.182917 -0.657351
v 0.081311 0.190690 -0.655353
v 0.125736 0.144051 -0.667346
v 0.118080 0.136394 -0.665928
v 0.110665 0.144169 -0.663978
v 0.103261 0.151943 -0.661979
v 0.095857 0.159716 -0.659980
v 0.088464 0.167487 -0.657933
v 0.081059 0.175261 -0.655934
v 0.125484 0.128621 -0.667927
v 0.117829 0.120964 -0.666509
v 0.110414 0.128739 -0.664559
v 0.103010 0.136513 -0.662560
v 0.095605 0.144286 -0.660561
v 0.088212 0.152057 -0.658514
v 0.080808 0.159831 -0.656515
v 0.125233 0.113191 -0.668508
v 0.117578 0.105534 -0.667091
v 0.110162 0.113310 -0.665140
v 0.102758 0.121083 -0.663141
v 0.095354 0.128856 -0.661142
v 0.087961 0.136627 -0.659095
v 0.080557 0.144401 -0.657096
v 0.109922 0.097878 -0.665673
v 0.102507 0.105653 -0.663722
v 0.095103 0.113426 -0.661723
v 0.087709 0.121198 -0.659676
v 0.080305 0.128971 -0.657677
v 0.102266 0.090221 -0.664255
v 0.094862 0.097994 -0.662256
v 0.087458 0.105768 -0.660257
v 0.080054 0.113541 -0.658258
v 0.123307 0.321149 -0.649203
v 0.115903 0.328922 -0.647204
v 0.108247 0.321266 -0.645786
v 0.115651 0.313493 -0.647785
v 0.108498 0.336696 -0.645205
v 0.100843 0.329039 -0.643787
v 0.123055 0.305719 -0.649784
v 0.107995 0.305836 -0.646367
v 0.115400 0.298063 -0.648366
v 0.100591 0.313609 -0.644369
v 0.093187 0.321383 -0.642370
v 0.159825 0.251423 -0.660360
v 0.152421 0.259196 -0.658361
v 0.144765 0.251540 -0.656943
v 0.152169 0.243766 -0.658942
v 0.145016 0.266970 -0.656362
v 0.137361 0.259313 -0.654944
v 0.122804 0.290289 -0.650365
v 0.107744 0.290406 -0.646948
v 0.115148 0.282633 -0.648947
v 0.100340 0.298179 -0.644950
v 0.092936 0.305953 -0.642951
v 0.129705 0.251656 -0.653526
v 0.137109 0.243883 -0.655525
v 0.129956 0.267086 -0.652945
v 0.122301 0.259430 -0.651528
v 0.122552 0.274860 -0.650946
v 0.107493 0.274976 -0.647530
v 0.114897 0.267203 -0.649529
v 0.100089 0.282749 -0.645531
v 0.092684 0.290523 -0.643532
v 0.114645 0.251773 -0.650110
v 0.122049 0.244000 -0.652109
v 0.114897 0.267203 -0.649529
v 0.107241 0.259546 -0.648111
v 0.099837 0.267320 -0.646112
v 0.107241 0.259546 -0.648111
v 0.092433 0.275093 -0.644113
v 0.129454 0.236226 -0.654108
v 0.122049 0.244000 -0.652109
v 0.114394 0.236343 -0.650691
v 0.121798 0.228570 -0.652690
v 0.122049 0.244000 -0.652109
v 0.114645 0.251773 -0.650110
v 0.106990 0.244116 -0.648692
v 0.122049 0.244000 -0.652109
v 0.099586 0.251890 -0.646693
v 0.106990 0.244116 -0.648692
v 0.099837 0.267320 -0.646112
v 0.092181 0.259663 -0.644694
v 0.129202 0.220797 -0.654689
v 0.114142 0.220913 -0.651272
v 0.121547 0.213140 -0.653271
v 0.106738 0.228687 -0.649273
v 0.099334 0.236460 -0.647274
v 0.099586 0.251890 -0.646693
v 0.091930 0.244233 -0.645275
v 0.084526 0.252007 -0.643276
v 0.091930 0.244233 -0.645275
v 0.084777 0.267436 -0.642695
v 0.077122 0.259780 -0.641277
v 0.128951 0.205367 -0.655270
v 0.113891 0.205484 -0.651853
v 0.121295 0.197710 -0.653852
v 0.106487 0.213257 -0.649854
v 0.099083 0.221030 -0.647855
v 0.091679 0.228803 -0.645857
v 0.084275 0.236577 -0.643858
v 0.069466 0.252123 -0.639860
v 0.076870 0.244350 -0.641859
v 0.069717 0.267553 -0.639278
v 0.062062 0.259897 -0.637861
v 0.128699 0.189937 -0.655851
v 0.113640 0.190054 -0.652434
v 0.121044 0.182280 -0.654433
v 0.106235 0.197827 -0.650435
v 0.098831 0.205600 -0.648436
v 0.091427 0.213374 -0.646438
v 0.084023 0.221147 -0.644439
v 0.054407 0.252240 -0.636443
v 0.061811 0.244467 -0.638442
v 0.128448 0.174507 -0.656432
v 0.113388 0.174624 -0.653015
v 0.120793 0.166850 -0.655014
v 0.105984 0.182397 -0.651016
v 0.098580 0.190170 -0.649018
v 0.091176 0.197944 -0.647019
v 0.083772 0.205717 -0.645020
v 0.128197 0.159077 -0.657013
v 0.113137 0.159194 -0.653597
v 0.120541 0.151421 -0.655596
v 0.105733 0.166967 -0.651598
v 0.098329 0.174740 -0.649599
v 0.090924 0.182514 -0.647600
v 0.083520 0.190287 -0.645601
v 0.127945 0.143647 -0.657595
v 0.112885 0.143764 -0.654178
v 0.120289 0.135991 -0.656177
v 0.105481 0.151537 -0.652179
v 0.098077 0.159311 -0.650180
v 0.090673 0.167084 -0.648181
v 0.083269 0.174857 -0.646182
v 0.127694 0.128217 -0.658176
v 0.112634 0.128334 -0.654759
v 0.120038 0.120561 -0.656758
v 0.105230 0.136108 -0.652760
v 0.097826 0.143881 -0.650761
v 0.090422 0.151654 -0.648762
v 0.083018 0.159427 -0.646763
v 0.127442 0.112788 -0.658757
v 0.112382 0.112904 -0.655340
v 0.119787 0.105131 -0.657339
v 0.104978 0.120678 -0.653341
v 0.097574 0.128451 -0.651342
v 0.090170 0.136224 -0.649343
v 0.082766 0.143997 -0.647344
v 0.104727 0.105248 -0.653922
v 0.112131 0.097474 -0.655921
v 0.097323 0.113021 -0.651923
v 0.089919 0.120794 -0.649924
v 0.082515 0.128568 -0.647926
v 0.097071 0.097591 -0.652504
v 0.104476 0.089818 -0.654503
v 0.089667 0.105364 -0.650506
v 0.082263 0.113138 -0.648507
v 0.123055 0.305719 -0.649784
v 0.120846 0.306123 -0.659536
v 0.113442 0.313896 -0.657537
v 0.113442 0.313896 -0.657537
v 0.115651 0.313493 -0.647785
v 0.123055 0.305719 -0.649784
v 0.115651 0.313493 -0.647785
v 0.113442 0.313896 -0.657537
v 0.121097 0.321553 -0.658955
v 0.121097 0.321553 -0.658955
v 0.123307 0.321149 -0.649203
v 0.115651 0.313493 -0.647785
v 0.123307 0.321149 -0.649203
v 0.121097 0.321553 -0.658955
v 0.113693 0.329326 -0.656956
v 0.113693 0.329326 -0.656956
v 0.115903 0.328922 -0.647204
v 0.123307 0.321149 -0.649203
v 0.108498 0.336696 -0.645205
v 0.106289 0.337099 -0.654957
v 0.098633 0.329442 -0.653539
v 0.098633 0.329442 -0.653539
v 0.100843 0.329039 -0.643787
v 0.108498 0.336696 -0.645205
v 0.115903 0.328922 -0.647204
v 0.113693 0.329326 -0.656956
v 0.106289 0.337099 -0.654957
v 0.106289 0.337099 -0.654957
v 0.108498 0.336696 -0.645205
v 0.115903 0.328922 -0.647204
v 0.159825 0.251423 -0.660360
v 0.157615 0.251826 -0.670111
v 0.150211 0.259600 -0.668112
v 0.150211 0.259600 -0.668112
v 0.152421 0.259196 -0.658361
v 0.159825 0.251423 -0.660360
v 0.152421 0.259196 -0.658361
v 0.150211 0.259600 -0.668112
v 0.142807 0.267373 -0.666113
v 0.142807 0.267373 -0.666113
v 0.145016 0.266970 -0.656362
v 0.152421 0.259196 -0.658361
v 0.122804 0.290289 -0.650365
v 0.120595 0.290693 -0.660117
v 0.113190 0.298466 -0.658118
v 0.113190 0.298466 -0.658118
v 0.115400 0.298063 -0.648366
v 0.122804 0.290289 -0.650365
v 0.115400 0.298063 -0.648366
v 0.113190 0.298466 -0.658118
v 0.120846 0.306123 -0.659536
v 0.120846 0.306123 -0.659536
v 0.123055 0.305719 -0.649784
v 0.115400 0.298063 -0.648366
v 0.093187 0.321383 -0.642370
v 0.090978 0.321786 -0.652121
v 0.098382 0.314012 -0.654120
v 0.098382 0.314012 -0.654120
v 0.100591 0.313609 -0.644369
v 0.093187 0.321383 -0.642370
v 0.100843 0.329039 -0.643787
v 0.098633 0.329442 -0.653539
v 0.090978 0.321786 -0.652121
v 0.090978 0.321786 -0.652121
v 0.093187 0.321383 -0.642370
v 0.100843 0.329039 -0.643787
v 0.152169 0.243766 -0.658942
v 0.149960 0.244170 -0.668694
v 0.157615 0.251826 -0.670111
v 0.157615 0.251826 -0.670111
v 0.159825 0.251423 -0.660360
v 0.152169 0.243766 -0.658942
v 0.144765 0.251540 -0.656943
v 0.142556 0.251943 -0.666695
v 0.149960 0.244170 -0.668694
v 0.149960 0.244170 -0.668694
v 0.152169 0.243766 -0.658942
v 0.144765 0.251540 -0.656943
v 0.145016 0.266970 -0.656362
v 0.142807 0.267373 -0.666113
v 0.135151 0.259716 -0.664696
v 0.135151 0.259716 -0.664696
v 0.137361 0.259313 -0.654944
v 0.145016 0.266970 -0.656362
v 0.137361 0.259313 -0.654944
v 0.135151 0.259716 -0.664696
v 0.127747 0.267489 -0.662697
v 0.127747 0.267489 -0.662697
v 0.129956 0.267086 -0.652945
v 0.137361 0.259313 -0.654944
v 0.122552 0.274860 -0.650946
v 0.120343 0.275263 -0.660698
v 0.112939 0.283036 -0.658699
v 0.112939 0.283036 -0.658699
v 0.115148 0.282633 -0.648947
v 0.122552 0.274860 -0.650946
v 0.115148 0.282633 -0.648947
v 0.112939 0.283036 -0.658699
v 0.120595 0.290693 -0.660117
v 0.120595 0.290693 -0.660117
v 0.122804 0.290289 -0.650365
v 0.115148 0.282633 -0.648947
v 0.092936 0.305953 -0.642951
v 0.090726 0.306356 -0.652702
v 0.098131 0.298583 -0.654701
v 0.098131 0.298583 -0.654701
v 0.100340 0.298179 -0.644950
v 0.092936 0.305953 -0.642951
v 0.100591 0.313609 -0.644369
v 0.098382 0.314012 -0.654120
v 0.090726 0.306356 -0.652702
v 0.090726 0.306356 -0.652702
v 0.092936 0.305953 -0.642951
v 0.100591 0.313609 -0.644369
v 0.137109 0.243883 -0.655525
v 0.134900 0.244286 -0.665277
v 0.142556 0.251943 -0.666695
v 0.142556 0.251943 -0.666695
v 0.144765 0.251540 -0.656943
v 0.137109 0.243883 -0.655525
v 0.129705 0.251656 -0.653526
v 0.127496 0.252060 -0.663278
v 0.134900 0.244286 -0.665277
v 0.134900 0.244286 -0.665277
v 0.137109 0.243883 -0.655525
v 0.129705 0.251656 -0.653526
v 0.129956 0.267086 -0.652945
v 0.127747 0.267489 -0.662697
v 0.120092 0.259833 -0.661279
v 0.120092 0.259833 -0.661279
v 0.122301 0.259430 -0.651528
v 0.129956 0.267086 -0.652945
v 0.122301 0.259430 -0.651528
v 0.120092 0.259833 -0.661279
v 0.112688 0.267606 -0.659280
v 0.112688 0.267606 -0.659280
v 0.114897 0.267203 -0.649529
v 0.122301 0.259430 -0.651528
v 0.114897 0.267203 -0.649529
v 0.112688 0.267606 -0.659280
v 0.120343 0.275263 -0.660698
v 0.120343 0.275263 -0.660698
v 0.122552 0.274860 -0.650946
v 0.114897 0.267203 -0.649529
v 0.092684 0.290523 -0.643532
v 0.090475 0.290926 -0.653284
v 0.097879 0.283153 -0.655282
v 0.097879 0.283153 -0.655282
v 0.100089 0.282749 -0.645531
v 0.092684 0.290523 -0.643532
v 0.100340 0.298179 -0.644950
v 0.098131 0.298583 -0.654701
v 0.090475 0.290926 -0.653284
v 0.090475 0.290926 -0.653284
v 0.092684 0.290523 -0.643532
v 0.100340 0.298179 -0.644950
v 0.129454 0.236226 -0.654108
v 0.127244 0.236630 -0.663859
v 0.119840 0.244403 -0.661860
v 0.119840 0.244403 -0.661860
v 0.122049 0.244000 -0.652109
v 0.129454 0.236226 -0.654108
v 0.122049 0.244000 -0.652109
v 0.119840 0.244403 -0.661860
v 0.127496 0.252060 -0.663278
v 0.127496 0.252060 -0.663278
v 0.129705 0.251656 -0.653526
v 0.122049 0.244000 -0.652109
v 0.092433 0.275093 -0.644113
v 0.090224 0.275496 -0.653865
v 0.097628 0.267723 -0.655864
v 0.097628 0.267723 -0.655864
v 0.099837 0.267320 -0.646112
v 0.092433 0.275093 -0.644113
v 0.100089 0.282749 -0.645531
v 0.097879 0.283153 -0.655282
v 0.090224 0.275496 -0.653865
v 0.090224 0.275496 -0.653865
v 0.092433 0.275093 -0.644113
v 0.100089 0.282749 -0.645531
v 0.129202 0.220797 -0.654689
v 0.126993 0.221200 -0.664440
v 0.119589 0.228973 -0.662441
v 0.119589 0.228973 -0.662441
v 0.121798 0.228570 -0.652690
v 0.129202 0.220797 -0.654689
v 0.121798 0.228570 -0.652690
v 0.119589 0.228973 -0.662441
v 0.127244 0.236630 -0.663859
v 0.127244 0.236630 -0.663859
v 0.129454 0.236226 -0.654108
v 0.121798 0.228570 -0.652690
v 0.099837 0.267320 -0.646112
v 0.097628 0.267723 -0.655864
v 0.089972 0.260066 -0.654446
v 0.089972 0.260066 -0.654446
v 0.092181 0.259663 -0.644694
v 0.099837 0.267320 -0.646112
v 0.092181 0.259663 -0.644694
v 0.089972 0.260066 -0.654446
v 0.082568 0.267840 -0.652447
v 0.082568 0.267840 -0.652447
v 0.084777 0.267436 -0.642695
v 0.092181 0.259663 -0.644694
v 0.128951 0.205367 -0.655270
v 0.126741 0.205770 -0.665021
v 0.119337 0.213543 -0.663022
v 0.119337 0.213543 -0.663022
v 0.121547 0.213140 -0.653271
v 0.128951 0.205367 -0.655270
v 0.121547 0.213140 -0.653271
v 0.119337 0.213543 -0.663022
v 0.126993 0.221200 -0.664440
v 0.126993 0.221200 -0.664440
v 0.129202 0.220797 -0.654689
v 0.121547 0.213140 -0.653271
v 0.084526 0.252007 -0.643276
v 0.082317 0.252410 -0.653028
v 0.089721 0.244637 -0.655027
v 0.089721 0.244637 -0.655027
v 0.091930 0.244233 -0.645275
v 0.084526 0.252007 -0.643276
v 0.084777 0.267436 -0.642695
v 0.082568 0.267840 -0.652447
v 0.074912 0.260183 -0.651029
v 0.074912 0.260183 -0.651029
v 0.077122 0.259780 -0.641277
v 0.084777 0.267436 -0.642695
v 0.077122 0.259780 -0.641277
v 0.074912 0.260183 -0.651029
v 0.067508 0.267956 -0.649030
v 0.067508 0.267956 -0.649030
v 0.069717 0.267553 -0.639278
v 0.077122 0.259780 -0.641277
v 0.128699 0.189937 -0.655851
v 0.126490 0.190340 -0.665603
v 0.119086 0.198114 -0.663604
v 0.119086 0.198114 -0.663604
v 0.121295 0.197710 -0.653852
v 0.128699 0.189937 -0.655851
v 0.121295 0.197710 -0.653852
v 0.119086 0.198114 -0.663604
v 0.126741 0.205770 -0.665021
v 0.126741 0.205770 -0.665021
v 0.128951 0.205367 -0.655270
v 0.121295 0.197710 -0.653852
v 0.084275 0.236577 -0.643858
v 0.082065 0.236980 -0.653609
v 0.089469 0.229207 -0.655608
v 0.089469 0.229207 -0.655608
v 0.091679 0.228803 -0.645857
v 0.084275 0.236577 -0.643858
v 0.091930 0.244233 -0.645275
v 0.089721 0.244637 -0.655027
v 0.082065 0.236980 -0.653609
v 0.082065 0.236980 -0.653609
v 0.084275 0.236577 -0.643858
v 0.091930 0.244233 -0.645275
v 0.076870 0.244350 -0.641859
v 0.074661 0.244753 -0.651610
v 0.082317 0.252410 -0.653028
v 0.082317 0.252410 -0.653028
v 0.084526 0.252007 -0.643276
v 0.076870 0.244350 -0.641859
v 0.069466 0.252123 -0.639860
v 0.067257 0.252527 -0.649611
v 0.074661 0.244753 -0.651610
v 0.074661 0.244753 -0.651610
v 0.076870 0.244350 -0.641859
v 0.069466 0.252123 -0.639860
v 0.069717 0.267553 -0.639278
v 0.067508 0.267956 -0.649030
v 0.059853 0.260300 -0.647612
v 0.059853 0.260300 -0.647612
v 0.062062 0.259897 -0.637861
v 0.069717 0.267553 -0.639278
v 0.128448 0.174507 -0.656432
v 0.126239 0.174910 -0.666184
v 0.118834 0.182684 -0.664185
v 0.118834 0.182684 -0.664185
v 0.121044 0.182280 -0.654433
v 0.128448 0.174507 -0.656432
v 0.121044 0.182280 -0.654433
v 0.118834 0.182684 -0.664185
v 0.126490 0.190340 -0.665603
v 0.126490 0.190340 -0.665603
v 0.128699 0.189937 -0.655851
v 0.121044 0.182280 -0.654433
v 0.084023 0.221147 -0.644439
v 0.081814 0.221550 -0.654190
v 0.089218 0.213777 -0.656189
v 0.089218 0.213777 -0.656189
v 0.091427 0.213374 -0.646438
v 0.084023 0.221147 -0.644439
v 0.091679 0.228803 -0.645857
v 0.089469 0.229207 -0.655608
v 0.081814 0.221550 -0.654190
v 0.081814 0.221550 -0.654190
v 0.084023 0.221147 -0.644439
v 0.091679 0.228803 -0.645857
v 0.061811 0.244467 -0.638442
v 0.059601 0.244870 -0.648194
v 0.067257 0.252527 -0.649611
v 0.067257 0.252527 -0.649611
v 0.069466 0.252123 -0.639860
v 0.061811 0.244467 -0.638442
v 0.054407 0.252240 -0.636443
v 0.052197 0.252643 -0.646195
v 0.059601 0.244870 -0.648194
v 0.059601 0.244870 -0.648194
v 0.061811 0.244467 -0.638442
v 0.054407 0.252240 -0.636443
v 0.062062 0.259897 -0.637861
v 0.059853 0.260300 -0.647612
v 0.052197 0.252643 -0.646195
v 0.052197 0.252643 -0.646195
v 0.054407 0.252240 -0.636443
v 0.062062 0.259897 -0.637861
v 0.128197 0.159077 -0.657013
v 0.125987 0.159481 -0.666765
v 0.118583 0.167254 -0.664766
v 0.118583 0.167254 -0.664766
v 0.120793 0.166850 -0.655014
v 0.128197 0.159077 -0.657013
v 0.120793 0.166850 -0.655014
v 0.118583 0.167254 -0.664766
v 0.126239 0.174910 -0.666184
v 0.126239 0.174910 -0.666184
v 0.128448 0.174507 -0.656432
v 0.120793 0.166850 -0.655014
v 0.083772 0.205717 -0.645020
v 0.081562 0.206120 -0.654772
v 0.088967 0.198347 -0.656770
v 0.088967 0.198347 -0.656770
v 0.091176 0.197944 -0.647019
v 0.083772 0.205717 -0.645020
v 0.091427 0.213374 -0.646438
v 0.089218 0.213777 -0.656189
v 0.081562 0.206120 -0.654772
v 0.081562 0.206120 -0.654772
v 0.083772 0.205717 -0.645020
v 0.091427 0.213374 -0.646438
v 0.127945 0.143647 -0.657595
v 0.125736 0.144051 -0.667346
v 0.118332 0.151824 -0.665347
v 0.118332 0.151824 -0.665347
v 0.120541 0.151421 -0.655596
v 0.127945 0.143647 -0.657595
v 0.120541 0.151421 -0.655596
v 0.118332 0.151824 -0.665347
v 0.125987 0.159481 -0.666765
v 0.125987 0.159481 -0.666765
v 0.128197 0.159077 -0.657013
v 0.120541 0.151421 -0.655596
v 0.083520 0.190287 -0.645601
v 0.081311 0.190690 -0.655353
v 0.088715 0.182917 -0.657351
v 0.088715 0.182917 -0.657351
v 0.090924 0.182514 -0.647600
v 0.083520 0.190287 -0.645601
v 0.091176 0.197944 -0.647019
v 0.088967 0.198347 -0.656770
v 0.081311 0.190690 -0.655353
v 0.081311 0.190690 -0.655353
v 0.083520 0.190287 -0.645601
v 0.091176 0.197944 -0.647019
v 0.127694 0.128217 -0.658176
v 0.125484 0.128621 -0.667927
v 0.118080 0.136394 -0.665928
v 0.118080 0.136394 -0.665928
v 0.120289 0.135991 -0.656177
v 0.127694 0.128217 -0.658176
v 0.120289 0.135991 -0.656177
v 0.118080 0.136394 -0.665928
v 0.125736 0.144051 -0.667346
v 0.125736 0.144051 -0.667346
v 0.127945 0.143647 -0.657595
v 0.120289 0.135991 -0.656177
v 0.083269 0.174857 -0.646182
v 0.081059 0.175261 -0.655934
v 0.088464 0.167487 -0.657933
v 0.088464 0.167487 -0.657933
v 0.090673 0.167084 -0.648181
v 0.083269 0.174857 -0.646182
v 0.090924 0.182514 -0.647600
v 0.088715 0.182917 -0.657351
v 0.081059 0.175261 -0.655934
v 0.081059 0.175261 -0.655934
v 0.083269 0.174857 -0.646182
v 0.090924 0.182514 -0.647600
v 0.127442 0.112788 -0.658757
v 0.125233 0.113191 -0.668508
v 0.117829 0.120964 -0.666509
v 0.117829 0.120964 -0.666509
v 0.120038 0.120561 -0.656758
v 0.127442 0.112788 -0.658757
v 0.120038 0.120561 -0.656758
v 0.117829 0.120964 -0.666509
v 0.125484 0.128621 -0.667927
v 0.125484 0.128621 -0.667927
v 0.127694 0.128217 -0.658176
v 0.120038 0.120561 -0.656758
v 0.083018 0.159427 -0.646763
v 0.080808 0.159831 -0.656515
v 0.088212 0.152057 -0.658514
v 0.088212 0.152057 -0.658514
v 0.090422 0.151654 -0.648762
v 0.083018 0.159427 -0.646763
v 0.090673 0.167084 -0.648181
v 0.088464 0.167487 -0.657933
v 0.080808 0.159831 -0.656515
v 0.080808 0.159831 -0.656515
v 0.083018 0.159427 -0.646763
v 0.090673 0.167084 -0.648181
v 0.119787 0.105131 -0.657339
v 0.117578 0.105534 -0.667091
v 0.125233 0.113191 -0.668508
v 0.125233 0.113191 -0.668508
v 0.127442 0.112788 -0.658757
v 0.119787 0.105131 -0.657339
v 0.082766 0.143997 -0.647344
v 0.080557 0.144401 -0.657096
v 0.087961 0.136627 -0.659095
v 0.087961 0.136627 -0.659095
v 0.090170 0.136224 -0.649343
v 0.082766 0.143997 -0.647344
v 0.090422 0.151654 -0.648762
v 0.088212 0.152057 -0.658514
v 0.080557 0.144401 -0.657096
v 0.080557 0.144401 -0.657096
v 0.082766 0.143997 -0.647344
v 0.090422 0.151654 -0.648762
v 0.112131 0.097474 -0.655921
v 0.109922 0.097878 -0.665673
v 0.117578 0.105534 -0.667091
v 0.117578 0.105534 -0.667091
v 0.119787 0.105131 -0.657339
v 0.112131 0.097474 -0.655921
v 0.082515 0.128568 -0.647926
v 0.080305 0.128971 -0.657677
v 0.087709 0.121198 -0.659676
v 0.087709 0.121198 -0.659676
v 0.089919 0.120794 -0.649924
v 0.082515 0.128568 -0.647926
v 0.090170 0.136224 -0.649343
v 0.087961 0.136627 -0.659095
v 0.080305 0.128971 -0.657677
v 0.080305 0.128971 -0.657677
v 0.082515 0.128568 -0.647926
v 0.090170 0.136224 -0.649343
v 0.104476 0.089818 -0.654503
v 0.102266 0.090221 -0.664255
v 0.109922 0.097878 -0.665673
v 0.109922 0.097878 -0.665673
v 0.112131 0.097474 -0.655921
v 0.104476 0.089818 -0.654503
v 0.097071 0.097591 -0.652504
v 0.094862 0.097994 -0.662256
v 0.102266 0.090221 -0.664255
v 0.102266 0.090221 -0.664255
v 0.104476 0.089818 -0.654503
v 0.097071 0.097591 -0.652504
v 0.089667 0.105364 -0.650506
v 0.087458 0.105768 -0.660257
v 0.094862 0.097994 -0.662256
v 0.094862 0.097994 -0.662256
v 0.097071 0.097591 -0.652504
v 0.089667 0.105364 -0.650506
v 0.082263 0.113138 -0.648507
v 0.080054 0.113541 -0.658258
v 0.087458 0.105768 -0.660257
v 0.087458 0.105768 -0.660257
v 0.089667 0.105364 -0.650506
v 0.082263 0.113138 -0.648507
v 0.089919 0.120794 -0.649924
v 0.087709 0.121198 -0.659676
v 0.080054 0.113541 -0.658258
v 0.080054 0.113541 -0.658258
v 0.082263 0.113138 -0.648507
v 0.089919 0.120794 -0.649924
vn -0.2176 0.0403 -0.9752
vn -0.2193 0.0403 -0.9748
vn -0.2208 0.0403 -0.9745
vn -0.2197 0.0435 -0.9746
vn -0.2220 0.0435 -0.9741
vn -0.2223 0.0403 -0.9741
vn -0.2239 0.0403 -0.9738
vn -0.2192 0.0403 -0.9748
vn -0.2224 0.0403 -0.9741
vn -0.2192 0.0403 -0.9749
vn -0.2186 0.0424 -0.9749
vn -0.2197 0.0392 -0.9748
vn -0.2225 0.0403 -0.9741
vn -0.2177 0.0371 -0.9753
vn -0.2192 0.0402 -0.9748
vn -0.2207 0.0428 -0.9744
vn -0.2176 0.0435 -0.9751
vn -0.2207 0.0467 -0.9742
vn -0.2220 0.0391 -0.9743
vn -0.2228 0.0425 -0.9739
vn -0.2239 0.0436 -0.9736
vn -0.2239 0.0415 -0.9737
vn -0.2240 0.0371 -0.9739
vn -0.2222 0.0403 -0.9742
vn -0.2194 0.0403 -0.9748
vn -0.2196 0.0371 -0.9749
vn -0.2208 0.0371 -0.9746
vn -0.2218 0.0371 -0.9744
vn 0.2208 -0.0403 0.9745
vn 0.7011 0.7012 -0.1298
vn 0.6781 -0.7118 -0.1830
vn 0.6781 -0.7118 -0.1831
vn -0.6780 0.7119 0.1830
vn -0.6781 0.7119 0.1831
vn 0.7011 0.7012 -0.1299
vn -0.7011 -0.7012 0.1298
vn -0.6780 0.7119 0.1831
vn 0.6780 -0.7119 -0.1831
vn 0.6781 -0.7119 -0.1831
vn 0.6781 -0.7119 -0.1830
vn -0.6781 0.7118 0.1831
vn 0.6780 -0.7119 -0.1830
vn -0.6781 0.7119 0.1830
vt 0.211730 -0.991221
vt 0.211730 -0.924023
vt 0.278928 -0.924023
vt 0.278928 -0.991221
vt 0.346126 -0.924023
vt 0.346126 -0.991221
vt 0.144532 -0.924023
vt 0.144532 -0.856825
vt 0.211730 -0.856825
vt 0.278928 -0.856825
vt 0.346126 -0.856825
vt 0.004972 -0.392391
vt 0.081058 -0.392391
vt 0.081058 -0.468477
vt 0.004972 -0.468477
vt 0.081058 -0.544563
vt 0.004972 -0.544563
vt 0.077333 -0.856825
vt 0.077333 -0.789627
vt 0.144532 -0.789627
vt 0.211730 -0.789627
vt 0.278928 -0.789627
vt 0.157144 -0.468477
vt 0.157144 -0.544563
vt 0.157144 -0.620649
vt 0.081058 -0.620649
vt 0.010135 -0.789627
vt 0.010135 -0.722429
vt 0.077333 -0.722429
vt 0.144532 -0.722429
vt 0.211730 -0.722429
vt 0.233230 -0.544563
vt 0.233230 -0.620649
vt 0.233230 -0.696735
vt 0.157144 -0.696735
vt 0.010135 -0.655231
vt 0.077333 -0.655231
vt 0.144532 -0.655231
vt 0.636444 -0.994242
vt 0.636444 -0.915868
vt 0.714818 -0.915868
vt 0.714818 -0.994242
vt 0.793192 -0.915868
vt 0.793192 -0.994242
vt 0.309316 -0.620649
vt 0.309316 -0.696735
vt 0.309316 -0.772821
vt 0.233230 -0.772821
vt 0.558070 -0.915868
vt 0.558070 -0.837494
vt 0.636444 -0.837494
vt 0.714818 -0.837494
vt 0.793192 -0.837494
vt 0.871565 -0.837494
vt 0.871565 -0.915868
vt 0.385403 -0.696735
vt 0.385403 -0.772821
vt 0.385403 -0.848907
vt 0.309316 -0.848907
vt 0.479697 -0.837494
vt 0.479697 -0.759121
vt 0.558070 -0.759121
vt 0.636444 -0.759121
vt 0.714818 -0.759121
vt 0.793192 -0.759121
vt 0.871565 -0.759121
vt 0.461488 -0.772821
vt 0.461488 -0.848907
vt 0.461488 -0.924993
vt 0.385403 -0.924993
vt 0.401323 -0.759121
vt 0.401323 -0.680747
vt 0.479697 -0.680747
vt 0.558070 -0.680747
vt 0.636444 -0.680747
vt 0.714818 -0.680747
vt 0.793192 -0.680747
vt 0.537575 -0.848907
vt 0.537575 -0.924993
vt 0.322949 -0.680747
vt 0.322949 -0.602373
vt 0.401323 -0.602373
vt 0.479697 -0.602373
vt 0.558070 -0.602373
vt 0.636444 -0.602373
vt 0.714818 -0.602373
vt 0.244576 -0.602373
vt 0.244576 -0.524000
vt 0.322949 -0.524000
vt 0.401323 -0.524000
vt 0.479697 -0.524000
vt 0.558070 -0.524000
vt 0.636444 -0.524000
vt 0.166202 -0.524000
vt 0.166202 -0.445626
vt 0.244576 -0.445626
vt 0.322949 -0.445626
vt 0.401323 -0.445626
vt 0.479697 -0.445626
vt 0.558070 -0.445626
vt 0.087828 -0.445626
vt 0.087828 -0.367252
vt 0.166202 -0.367252
vt 0.244576 -0.367252
vt 0.322949 -0.367252
vt 0.401323 -0.367252
vt 0.479697 -0.367252
vt 0.009454 -0.367252
vt 0.009454 -0.288879
vt 0.087828 -0.288879
vt 0.166202 -0.288879
vt 0.244576 -0.288879
vt 0.322949 -0.288879
vt 0.401323 -0.288879
vt 0.009454 -0.210505
vt 0.087828 -0.210505
vt 0.166202 -0.210505
vt 0.244576 -0.210505
vt 0.322949 -0.210505
vt 0.009454 -0.132131
vt 0.087828 -0.132131
vt 0.166202 -0.132131
vt 0.244576 -0.132131
vt 0.696694 -0.320343
vt 0.696694 -0.380161
vt 0.647147 -0.380161
vt 0.647147 -0.320343
vt 0.597599 -0.380161
vt 0.597599 -0.320343
vt 0.548052 -0.380161
vt 0.548052 -0.320343
vt 0.993713 -0.313035
vt 0.993713 -0.258655
vt 0.941151 -0.258655
vt 0.941151 -0.313035
vt 0.498504 -0.380161
vt 0.498504 -0.320343
vt 0.693883 -0.189593
vt 0.693883 -0.130424
vt 0.753681 -0.130423
vt 0.753682 -0.189593
vt 0.813480 -0.130422
vt 0.813481 -0.189593
vt 0.795790 -0.320343
vt 0.795790 -0.380161
vt 0.746242 -0.380161
vt 0.746242 -0.320343
vt 0.888591 -0.313035
vt 0.888591 -0.258655
vt 0.836030 -0.258655
vt 0.836030 -0.313035
vt 0.634086 -0.189592
vt 0.634087 -0.130424
vt 0.574289 -0.189591
vt 0.574290 -0.130423
vt 0.873278 -0.130421
vt 0.873279 -0.189592
vt 0.933077 -0.130420
vt 0.933078 -0.189590
vt 0.894885 -0.320343
vt 0.894885 -0.380161
vt 0.845337 -0.380161
vt 0.845337 -0.320343
vt 0.783469 -0.313035
vt 0.783469 -0.258655
vt 0.730908 -0.258655
vt 0.730908 -0.313035
vt 0.514493 -0.189589
vt 0.514494 -0.130422
vt 0.454698 -0.189588
vt 0.454699 -0.130421
vt 0.992876 -0.130419
vt 0.992877 -0.189589
vt 0.993980 -0.320343
vt 0.993980 -0.380161
vt 0.944432 -0.380161
vt 0.944432 -0.320343
vt 0.678347 -0.313035
vt 0.678347 -0.258655
vt 0.625786 -0.258655
vt 0.625786 -0.313035
vt 0.626447 -0.394603
vt 0.626419 -0.455798
vt 0.564399 -0.455765
vt 0.564428 -0.394569
vt 0.394902 -0.189586
vt 0.394903 -0.130419
vt 0.573224 -0.313035
vt 0.573224 -0.258655
vt 0.520663 -0.258655
vt 0.520663 -0.313035
vt 0.750486 -0.394671
vt 0.750457 -0.455865
vt 0.688439 -0.455832
vt 0.688467 -0.394637
vt 0.468103 -0.258655
vt 0.468103 -0.313035
vt 0.394465 -0.254191
vt 0.394465 -0.195186
vt 0.454305 -0.195186
vt 0.454305 -0.254191
vt 0.874519 -0.394739
vt 0.874493 -0.455930
vt 0.812476 -0.455898
vt 0.812504 -0.394705
vt 0.933021 -0.254190
vt 0.933021 -0.195185
vt 0.992859 -0.195185
vt 0.992860 -0.254190
vt 0.514145 -0.195186
vt 0.514145 -0.254191
vt 0.573985 -0.195186
vt 0.573985 -0.254191
vt 0.998539 -0.394796
vt 0.998521 -0.455979
vt 0.936509 -0.455958
vt 0.936531 -0.394770
vt 0.627890 -0.459059
vt 0.627677 -0.515427
vt 0.689180 -0.515660
vt 0.689393 -0.459292
vt 0.566387 -0.458826
vt 0.566174 -0.515194
vt 0.873182 -0.254190
vt 0.873182 -0.195186
vt 0.813344 -0.254190
vt 0.813343 -0.195186
vt 0.633825 -0.195186
vt 0.633825 -0.254191
vt 0.333660 -0.011929
vt 0.333656 -0.066970
vt 0.273586 -0.066965
vt 0.273597 -0.011916
vt 0.213510 -0.066951
vt 0.213527 -0.011898
vt 0.750896 -0.459524
vt 0.750683 -0.515893
vt 0.812189 -0.516125
vt 0.812400 -0.459755
vt 0.753504 -0.254191
vt 0.753504 -0.195186
vt 0.693665 -0.254191
vt 0.693665 -0.195186
vt 0.453761 -0.011930
vt 0.453773 -0.066955
vt 0.393719 -0.066967
vt 0.393716 -0.011933
vt 0.873905 -0.459985
vt 0.873695 -0.516356
vt 0.935203 -0.516585
vt 0.935411 -0.460213
vt 0.573820 -0.011893
vt 0.573852 -0.066900
vt 0.513817 -0.066933
vt 0.513796 -0.011917
vt 0.212286 -0.069625
vt 0.212086 -0.124485
vt 0.271953 -0.124704
vt 0.272152 -0.069842
vt 0.996713 -0.516813
vt 0.996919 -0.460438
vt 0.693838 -0.011807
vt 0.693893 -0.066795
vt 0.633878 -0.066854
vt 0.633834 -0.011856
vt 0.332019 -0.070055
vt 0.331823 -0.124921
vt 0.391697 -0.125134
vt 0.391889 -0.070265
vt 0.813811 -0.011669
vt 0.813892 -0.066637
vt 0.753898 -0.066723
vt 0.753830 -0.011745
vt 0.451762 -0.070470
vt 0.451575 -0.125343
vt 0.511456 -0.125547
vt 0.511639 -0.070671
vt 0.873781 -0.011581
vt 0.873874 -0.066536
vt 0.571521 -0.070865
vt 0.571344 -0.125746
vt 0.631236 -0.125938
vt 0.631407 -0.071052
vt 0.933735 -0.011477
vt 0.933842 -0.066421
vt 0.691299 -0.071233
vt 0.691135 -0.126125
vt 0.751041 -0.126304
vt 0.751198 -0.071405
vt 0.993678 -0.011359
vt 0.993797 -0.066292
vt 0.930941 -0.071866
vt 0.930811 -0.126789
vt 0.990755 -0.126930
vt 0.990874 -0.071998
vt 0.871019 -0.071723
vt 0.870879 -0.126637
vt 0.811104 -0.071569
vt 0.810955 -0.126475
s 1
usemtl Material.004
f 1/1/1 2/2/2 3/3/3
f 3/3/3 4/4/4 1/1/1
f 4/4/4 3/3/3 5/5/5
f 5/5/5 6/6/3 4/4/4
f 7/7/1 8/8/2 9/9/3
f 9/9/3 2/2/2 7/7/1
f 2/2/2 9/9/3 10/10/6
f 10/10/6 3/3/3 2/2/2
f 3/3/3 10/10/6 11/11/7
f 11/11/7 5/5/5 3/3/3
f 12/12/3 13/13/3 14/14/3
f 14/14/3 15/15/3 12/12/3
f 15/15/3 14/14/3 16/16/3
f 16/16/3 17/17/3 15/15/3
f 18/18/1 19/19/8 20/20/3
f 20/20/3 8/8/2 18/18/1
f 8/8/2 20/20/3 21/21/9
f 21/21/9 9/9/3 8/8/2
f 9/9/3 21/21/9 22/22/7
f 22/22/7 10/10/6 9/9/3
f 14/14/3 23/23/3 24/24/10
f 24/24/10 16/16/3 14/14/3
f 16/16/3 24/24/10 25/25/11
f 25/25/11 26/26/3 16/16/3
f 27/27/1 28/28/12 29/29/3
f 29/29/3 19/19/8 27/27/1
f 19/19/8 29/29/3 30/30/13
f 30/30/13 20/20/3 19/19/8
f 20/20/3 30/30/13 31/31/7
f 31/31/7 21/21/9 20/20/3
f 24/24/10 32/32/14 33/33/15
f 33/33/15 25/25/11 24/24/10
f 25/25/11 33/33/15 34/34/16
f 34/34/16 35/35/17 25/25/11
f 28/28/12 36/36/18 37/37/19
f 37/37/19 29/29/3 28/28/12
f 29/29/3 37/37/19 38/38/7
f 38/38/7 30/30/13 29/29/3
f 39/39/1 40/40/1 41/41/2
f 41/41/2 42/42/17 39/39/1
f 43/42/17 41/41/2 44/43/3
f 44/43/3 45/44/14 46/42/14
f 33/33/15 47/45/3 48/46/6
f 48/46/6 34/34/16 33/33/15
f 34/34/16 48/46/6 49/47/20
f 49/47/20 50/48/21 34/34/16
f 51/49/1 52/50/1 53/51/2
f 53/51/2 40/40/1 51/49/1
f 40/40/1 53/51/2 54/52/3
f 54/52/3 41/41/2 40/40/1
f 41/41/2 54/52/3 55/53/9
f 55/53/9 44/43/3 41/41/2
f 44/43/3 55/53/9 56/54/22
f 56/54/22 57/55/23 44/43/3
f 48/46/6 58/56/23 59/57/13
f 59/57/13 49/47/20 48/46/6
f 49/47/20 59/57/13 60/58/3
f 60/58/3 61/59/3 49/47/20
f 62/60/1 63/61/1 64/62/2
f 64/62/2 52/50/1 62/60/1
f 52/50/1 64/62/2 65/63/3
f 65/63/3 53/51/2 52/50/1
f 53/51/2 65/63/3 66/64/24
f 66/64/24 54/52/3 53/51/2
f 54/52/3 66/64/24 67/65/7
f 67/65/7 55/53/9 54/52/3
f 55/53/9 67/65/7 68/66/7
f 68/66/7 56/54/22 55/53/9
f 59/57/13 69/67/3 70/68/3
f 70/68/3 60/58/3 59/57/13
f 60/58/3 70/68/3 71/69/3
f 71/69/3 72/70/3 60/58/3
f 73/71/1 74/72/1 75/73/2
f 75/73/2 63/61/1 73/71/1
f 63/61/1 75/73/2 76/74/3
f 76/74/3 64/62/2 63/61/1
f 64/62/2 76/74/3 77/75/9
f 77/75/9 65/63/3 64/62/2
f 65/63/3 77/75/9 78/76/7
f 78/76/7 66/64/24 65/63/3
f 66/64/24 78/76/7 79/77/7
f 79/77/7 67/65/7 66/64/24
f 70/68/3 80/78/3 81/79/3
f 81/79/3 71/69/3 70/68/3
f 82/80/1 83/81/1 84/82/2
f 84/82/2 74/72/1 82/80/1
f 74/72/1 84/82/2 85/83/3
f 85/83/3 75/73/2 74/72/1
f 75/73/2 85/83/3 86/84/6
f 86/84/6 76/74/3 75/73/2
f 76/74/3 86/84/6 87/85/7
f 87/85/7 77/75/9 76/74/3
f 77/75/9 87/85/7 88/86/7
f 88/86/7 78/76/7 77/75/9
f 89/87/1 90/88/1 91/89/2
f 91/89/2 83/81/1 89/87/1
f 83/81/1 91/89/2 92/90/3
f 92/90/3 84/82/2 83/81/1
f 84/82/2 92/90/3 93/91/6
f 93/91/6 85/83/3 84/82/2
f 85/83/3 93/91/6 94/92/7
f 94/92/7 86/84/6 85/83/3
f 86/84/6 94/92/7 95/93/7
f 95/93/7 87/85/7 86/84/6
f 96/94/1 97/95/1 98/96/25
f 98/96/25 90/88/1 96/94/1
f 90/88/1 98/96/25 99/97/3
f 99/97/3 91/89/2 90/88/1
f 91/89/2 99/97/3 100/98/6
f 100/98/6 92/90/3 91/89/2
f 92/90/3 100/98/6 101/99/7
f 101/99/7 93/91/6 92/90/3
f 93/91/6 101/99/7 102/100/7
f 102/100/7 94/92/7 93/91/6
f 103/101/1 104/102/1 105/103/2
f 105/103/2 97/95/1 103/101/1
f 97/95/1 105/103/2 106/104/3
f 106/104/3 98/96/25 97/95/1
f 98/96/25 106/104/3 107/105/6
f 107/105/6 99/97/3 98/96/25
f 99/97/3 107/105/6 108/106/7
f 108/106/7 100/98/6 99/97/3
f 100/98/6 108/106/7 109/107/7
f 109/107/7 101/99/7 100/98/6
f 110/108/1 111/109/14 112/110/2
f 112/110/2 104/102/1 110/108/1
f 104/102/1 112/110/2 113/111/3
f 113/111/3 105/103/2 104/102/1
f 105/103/2 113/111/3 114/112/6
f 114/112/6 106/104/3 105/103/2
f 106/104/3 114/112/6 115/113/7
f 115/113/7 107/105/6 106/104/3
f 107/105/6 115/113/7 116/114/7
f 116/114/7 108/106/7 107/105/6
f 111/109/14 117/115/26 118/116/27
f 118/116/27 112/110/2 111/109/14
f 112/110/2 118/116/27 119/117/6
f 119/117/6 113/111/3 112/110/2
f 113/111/3 119/117/6 120/118/7
f 120/118/7 114/112/6 113/111/3
f 114/112/6 120/118/7 121/119/7
f 121/119/7 115/113/7 114/112/6
f 117/115/26 122/120/3 123/121/28
f 123/121/28 118/116/27 117/115/26
f 118/116/27 123/121/28 124/122/23
f 124/122/23 119/117/6 118/116/27
f 119/117/6 124/122/23 125/123/7
f 125/123/7 120/118/7 119/117/6
f 126/1/29 127/4/29 128/3/29
f 128/3/29 129/2/29 126/1/29
f 127/4/29 130/6/29 131/5/29
f 131/5/29 128/3/29 127/4/29
f 132/7/29 129/2/29 133/9/29
f 133/9/29 134/8/29 132/7/29
f 129/2/29 128/3/29 135/10/29
f 135/10/29 133/9/29 129/2/29
f 128/3/29 131/5/29 136/11/29
f 136/11/29 135/10/29 128/3/29
f 137/12/29 138/15/29 139/14/29
f 139/14/29 140/13/29 137/12/29
f 138/15/29 141/17/29 142/16/29
f 142/16/29 139/14/29 138/15/29
f 143/18/29 134/8/29 144/20/29
f 144/20/29 145/19/29 143/18/29
f 134/8/29 133/9/29 146/21/29
f 146/21/29 144/20/29 134/8/29
f 133/9/29 135/10/29 147/22/29
f 147/22/29 146/21/29 133/9/29
f 139/14/29 142/16/29 148/24/29
f 148/24/29 149/23/29 139/14/29
f 142/16/29 150/26/29 151/25/29
f 151/25/29 148/24/29 142/16/29
f 152/27/29 145/19/29 153/29/29
f 153/29/29 154/28/29 152/27/29
f 145/19/29 144/20/29 155/30/29
f 155/30/29 153/29/29 145/19/29
f 144/20/29 146/21/29 156/31/29
f 156/31/29 155/30/29 144/20/29
f 148/24/29 151/25/29 157/33/29
f 157/33/29 158/32/29 148/24/29
f 151/25/29 159/35/29 160/34/29
f 160/34/29 157/33/29 151/25/29
f 154/28/29 153/29/29 161/37/29
f 161/37/29 162/36/29 154/28/29
f 153/29/29 155/30/29 163/38/29
f 163/38/29 161/37/29 153/29/29
f 164/39/29 165/42/29 166/41/29
f 166/41/29 167/40/29 164/39/29
f 168/42/29 169/44/29 170/43/29
f 170/43/29 166/41/29 171/42/29
f 157/33/29 160/34/29 172/46/29
f 172/46/29 173/45/29 157/33/29
f 160/34/29 174/48/29 175/47/29
f 175/47/29 172/46/29 160/34/29
f 176/49/29 167/40/29 177/51/29
f 177/51/29 178/50/29 176/49/29
f 167/40/29 166/41/29 179/52/29
f 179/52/29 177/51/29 167/40/29
f 166/41/29 170/43/29 180/53/29
f 180/53/29 179/52/29 166/41/29
f 170/43/29 181/55/29 182/54/29
f 182/54/29 180/53/29 170/43/29
f 172/46/29 175/47/29 183/57/29
f 183/57/29 184/56/29 172/46/29
f 175/47/29 185/59/29 186/58/29
f 186/58/29 183/57/29 175/47/29
f 187/60/29 178/50/29 188/62/29
f 188/62/29 189/61/29 187/60/29
f 178/50/29 177/51/29 190/63/29
f 190/63/29 188/62/29 178/50/29
f 177/51/29 179/52/29 191/64/29
f 191/64/29 190/63/29 177/51/29
f 179/52/29 180/53/29 192/65/29
f 192/65/29 191/64/29 179/52/29
f 180/53/29 182/54/29 193/66/29
f 193/66/29 192/65/29 180/53/29
f 183/57/29 186/58/29 194/68/29
f 194/68/29 195/67/29 183/57/29
f 186/58/29 196/70/29 197/69/29
f 197/69/29 194/68/29 186/58/29
f 198/71/29 189/61/29 199/73/29
f 199/73/29 200/72/29 198/71/29
f 189/61/29 188/62/29 201/74/29
f 201/74/29 199/73/29 189/61/29
f 188/62/29 190/63/29 202/75/29
f 202/75/29 201/74/29 188/62/29
f 190/63/29 191/64/29 203/76/29
f 203/76/29 202/75/29 190/63/29
f 191/64/29 192/65/29 204/77/29
f 204/77/29 203/76/29 191/64/29
f 194/68/29 197/69/29 205/79/29
f 205/79/29 206/78/29 194/68/29
f 207/80/29 200/72/29 208/82/29
f 208/82/29 209/81/29 207/80/29
f 200/72/29 199/73/29 210/83/29
f 210/83/29 208/82/29 200/72/29
f 199/73/29 201/74/29 211/84/29
f 211/84/29 210/83/29 199/73/29
f 201/74/29 202/75/29 212/85/29
f 212/85/29 211/84/29 201/74/29
f 202/75/29 203/76/29 213/86/29
f 213/86/29 212/85/29 202/75/29
f 214/87/29 209/81/29 215/89/29
f 215/89/29 216/88/29 214/87/29
f 209/81/29 208/82/29 217/90/29
f 217/90/29 215/89/29 209/81/29
f 208/82/29 210/83/29 218/91/29
f 218/91/29 217/90/29 208/82/29
f 210/83/29 211/84/29 219/92/29
f 219/92/29 218/91/29 210/83/29
f 211/84/29 212/85/29 220/93/29
f 220/93/29 219/92/29 211/84/29
f 221/94/29 216/88/29 222/96/29
f 222/96/29 223/95/29 221/94/29
f 216/88/29 215/89/29 224/97/29
f 224/97/29 222/96/29 216/88/29
f 215/89/29 217/90/29 225/98/29
f 225/98/29 224/97/29 215/89/29
f 217/90/29 218/91/29 226/99/29
f 226/99/29 225/98/29 217/90/29
f 218/91/29 219/92/29 227/100/29
f 227/100/29 226/99/29 218/91/29
f 228/101/29 223/95/29 229/103/29
f 229/103/29 230/102/29 228/101/29
f 223/95/29 222/96/29 231/104/29
f 231/104/29 229/103/29 223/95/29
f 222/96/29 224/97/29 232/105/29
f 232/105/29 231/104/29 222/96/29
f 224/97/29 225/98/29 233/106/29
f 233/106/29 232/105/29 224/97/29
f 225/98/29 226/99/29 234/107/29
f 234/107/29 233/106/29 225/98/29
f 235/108/29 230/102/29 236/110/29
f 236/110/29 237/109/29 235/108/29
f 230/102/29 229/103/29 238/111/29
f 238/111/29 236/110/29 230/102/29
f 229/103/29 231/104/29 239/112/29
f 239/112/29 238/111/29 229/103/29
f 231/104/29 232/105/29 240/113/29
f 240/113/29 239/112/29 231/104/29
f 232/105/29 233/106/29 241/114/29
f 241/114/29 240/113/29 232/105/29
f 237/109/29 236/110/29 242/116/29
f 242/116/29 243/115/29 237/109/29
f 236/110/29 238/111/29 244/117/29
f 244/117/29 242/116/29 236/110/29
f 238/111/29 239/112/29 245/118/29
f 245/118/29 244/117/29 238/111/29
f 239/112/29 240/113/29 246/119/29
f 246/119/29 245/118/29 239/112/29
f 243/115/29 242/116/29 247/121/29
f 247/121/29 248/120/29 243/115/29
f 242/116/29 244/117/29 249/122/29
f 249/122/29 247/121/29 242/116/29
f 244/117/29 245/118/29 250/123/29
f 250/123/29 249/122/29 244/117/29
f 251/124/30 252/125/30 253/126/30
f 254/126/30 255/127/30 256/124/30
f 257/127/31 258/126/31 259/128/31
f 260/128/32 261/129/32 262/127/32
f 263/129/30 264/128/30 265/130/30
f 266/130/30 267/131/30 268/129/30
f 269/132/33 270/133/33 271/134/33
f 272/134/34 273/135/34 274/132/34
f 275/131/30 276/130/30 277/136/30
f 278/136/30 279/137/30 280/131/30
f 281/138/30 282/139/30 283/140/30
f 284/140/35 285/141/35 286/138/35
f 287/141/35 288/140/35 289/142/35
f 290/142/30 291/143/30 292/141/30
f 293/144/30 294/145/30 295/146/30
f 296/146/30 297/147/30 298/144/30
f 299/147/32 300/146/32 301/125/32
f 302/125/32 303/124/32 304/147/32
f 305/148/36 306/149/36 307/150/36
f 308/150/36 309/151/36 310/148/36
f 311/135/37 312/134/37 313/149/37
f 314/149/37 315/148/37 316/135/37
f 317/152/38 318/153/38 319/139/38
f 320/139/39 321/138/39 322/152/39
f 323/154/36 324/155/36 325/153/36
f 326/153/36 327/152/36 328/154/36
f 329/143/37 330/142/37 331/156/37
f 332/156/37 333/157/37 334/143/37
f 335/157/30 336/156/30 337/158/30
f 338/158/30 339/159/30 340/157/30
f 341/160/30 342/161/30 343/162/30
f 344/162/30 345/163/30 346/160/30
f 347/163/38 348/162/38 349/145/38
f 350/145/40 351/144/40 352/163/40
f 353/164/36 354/165/36 355/166/36
f 356/166/36 357/167/36 358/164/36
f 359/151/33 360/150/33 361/165/33
f 362/165/33 363/164/33 364/151/33
f 365/168/40 366/169/40 367/155/40
f 368/155/31 369/154/31 370/168/31
f 371/170/36 372/171/36 373/169/36
f 374/169/36 375/168/36 376/170/36
f 377/159/33 378/158/33 379/172/33
f 380/172/41 381/173/41 382/159/41
f 383/174/35 384/175/35 385/176/35
f 386/176/30 387/177/30 388/174/30
f 389/177/38 390/176/38 391/161/38
f 392/161/40 393/160/40 394/177/40
f 395/178/36 396/179/36 397/180/36
f 398/180/36 399/181/36 400/178/36
f 401/167/41 402/166/41 403/179/41
f 404/179/34 405/178/34 406/167/34
f 407/182/30 408/183/30 409/184/30
f 410/184/30 411/185/30 412/182/30
f 413/186/40 414/187/40 415/171/40
f 416/171/42 417/170/42 418/186/42
f 419/188/36 420/189/36 421/190/36
f 422/190/36 423/191/36 424/188/36
f 425/181/41 426/180/41 427/189/41
f 428/189/33 429/188/33 430/181/33
f 431/192/30 432/193/30 433/194/30
f 434/194/35 435/195/35 436/192/35
f 437/195/38 438/194/38 439/183/38
f 440/183/32 441/182/32 442/195/32
f 443/191/41 444/190/41 445/196/41
f 446/196/43 447/197/43 448/191/43
f 449/198/30 450/199/30 451/200/30
f 452/200/30 453/201/30 454/198/30
f 455/202/30 456/203/30 457/204/30
f 458/204/35 459/205/35 460/202/35
f 461/205/38 462/204/38 463/193/38
f 464/193/32 465/192/32 466/205/32
f 467/206/36 468/207/36 469/208/36
f 470/208/36 471/209/36 472/206/36
f 473/201/37 474/200/37 475/210/37
f 476/210/37 477/211/37 478/201/37
f 479/211/30 480/210/30 481/212/30
f 482/212/30 483/213/30 484/211/30
f 485/214/30 486/215/30 487/216/30
f 488/216/30 489/217/30 490/214/30
f 491/217/38 492/216/38 493/203/38
f 494/203/31 495/202/31 496/217/31
f 497/218/36 498/219/36 499/220/36
f 500/220/36 501/221/36 502/218/36
f 503/222/37 504/223/37 505/219/37
f 506/219/37 507/218/37 508/222/37
f 509/224/38 510/225/38 511/207/38
f 512/207/31 513/206/31 514/224/31
f 515/226/36 516/227/36 517/225/36
f 518/225/36 519/224/36 520/226/36
f 521/213/37 522/212/37 523/228/37
f 524/228/41 525/229/41 526/213/41
f 527/230/30 528/231/30 529/232/30
f 530/232/30 531/233/30 532/230/30
f 533/233/42 534/232/42 535/234/42
f 536/234/40 537/235/40 538/233/40
f 539/236/36 540/237/36 541/238/36
f 542/238/36 543/239/36 544/236/36
f 545/221/34 546/220/34 547/237/34
f 548/237/37 549/236/37 550/221/37
f 551/240/32 552/241/32 553/227/32
f 554/227/32 555/226/32 556/240/32
f 557/242/36 558/243/36 559/241/36
f 560/241/36 561/240/36 562/242/36
f 563/229/41 564/228/41 565/243/41
f 566/243/34 567/242/34 568/229/34
f 569/244/30 570/245/30 571/246/30
f 572/246/30 573/247/30 574/244/30
f 575/247/38 576/246/38 577/231/38
f 578/231/32 579/230/32 580/247/32
f 581/248/36 582/249/36 583/250/36
f 584/250/36 585/251/36 586/248/36
f 587/239/43 588/238/43 589/249/43
f 590/249/43 591/248/43 592/239/43
f 593/252/30 594/253/30 595/254/30
f 596/254/30 597/255/30 598/252/30
f 599/255/32 600/254/32 601/245/32
f 602/245/32 603/244/32 604/255/32
f 605/256/36 606/257/36 607/258/36
f 608/258/36 609/259/36 610/256/36
f 611/251/33 612/250/33 613/260/33
f 614/260/37 615/261/37 616/251/37
f 617/262/30 618/263/30 619/264/30
f 620/264/30 621/265/30 622/262/30
f 623/265/40 624/264/40 625/253/40
f 626/253/38 627/252/38 628/265/38
f 629/266/36 630/267/36 631/268/36
f 632/268/36 633/269/36 634/266/36
f 635/259/33 636/258/33 637/267/33
f 638/267/41 639/266/41 640/259/41
f 641/270/30 642/271/30 643/272/30
f 644/272/30 645/273/30 646/270/30
f 647/273/38 648/272/38 649/263/38
f 650/263/38 651/262/38 652/273/38
f 653/274/36 654/275/36 655/276/36
f 656/276/36 657/277/36 658/274/36
f 659/269/37 660/268/37 661/275/37
f 662/275/37 663/274/37 664/269/37
f 665/278/39 666/279/39 667/271/39
f 668/271/38 669/270/38 670/278/38
f 671/280/36 672/281/36 673/282/36
f 674/282/36 675/283/36 676/280/36
f 677/277/33 678/276/33 679/281/33
f 680/281/37 681/280/37 682/277/37
f 683/284/42 684/285/42 685/279/42
f 686/279/38 687/278/38 688/284/38
f 689/286/36 690/287/36 691/288/36
f 692/288/36 693/289/36 694/286/36
f 695/283/33 696/282/33 697/287/33
f 698/287/37 699/286/37 700/283/37
f 701/290/31 702/291/31 703/285/31
f 704/285/31 705/284/31 706/290/31
f 707/292/36 708/293/36 709/294/36
f 710/294/36 711/295/36 712/292/36
f 713/296/36 714/297/36 715/293/36
f 716/293/36 717/292/36 718/296/36
f 719/298/36 720/299/36 721/297/36
f 722/297/36 723/296/36 724/298/36
f 725/289/37 726/288/37 727/299/37
f 728/299/37 729/298/37 730/289/37
