# Blender 5.1.2
# www.blender.org
mtllib diamond.mtl
o Bloque_diamante_1
v -0.683422 0.070031 -0.360526
v -0.684774 -0.068051 -0.367207
v -0.714607 0.076845 -0.495041
v -0.715960 -0.061237 -0.501722
v -0.548741 0.070222 -0.391740
v -0.550094 -0.067860 -0.398422
v -0.579927 0.077037 -0.526255
v -0.581279 -0.061046 -0.532936
vn 0.0098 0.9988 0.0483
vn -0.2256 0.0493 -0.9730
vn 0.9742 0.0014 -0.2258
vn -0.0098 -0.9988 -0.0483
vn -0.9742 -0.0014 0.2258
vn 0.2256 -0.0493 0.9730
vt 0.901651 0.097890
vt 0.901652 0.901193
vt 0.098349 0.901193
vt 0.098349 0.097890
vt 0.905219 0.095741
vt 0.905219 0.905194
vt 0.095766 0.905195
vt 0.095766 0.095741
vt 0.905149 0.094334
vt 0.905149 0.906602
vt 0.092881 0.906602
vt 0.092881 0.094334
vt 0.097555 0.902570
vt 0.097555 0.097681
vt 0.902445 0.097681
vt 0.902445 0.902570
vt 0.908893 0.091575
vt 0.908893 0.909360
vt 0.091107 0.909360
vt 0.091107 0.091575
vt 0.906608 0.093367
vt 0.906608 0.907569
vt 0.092407 0.907569
vt 0.092407 0.093367
s 1
usemtl Material.010
f 1/1/1 5/2/1 7/3/1 3/4/1
f 4/5/2 3/6/2 7/7/2 8/8/2
f 8/9/3 7/10/3 5/11/3 6/12/3
f 6/13/4 2/14/4 4/15/4 8/16/4
f 2/17/5 1/18/5 3/19/5 4/20/5
f 6/21/6 5/22/6 1/23/6 2/24/6
o Bloque_diamante_2
v -0.817487 0.069868 -0.330026
v -0.818839 -0.068214 -0.336707
v -0.848672 0.076682 -0.464541
v -0.850025 -0.061400 -0.471222
v -0.682806 0.070059 -0.361240
v -0.684158 -0.068023 -0.367922
v -0.713992 0.076874 -0.495755
v -0.715344 -0.061209 -0.502436
vn 0.0098 0.9988 0.0483
vn -0.2256 0.0493 -0.9730
vn 0.9742 0.0014 -0.2258
vn -0.0098 -0.9988 -0.0483
vn -0.9742 -0.0014 0.2258
vn 0.2256 -0.0493 0.9730
vt 0.901651 0.097890
vt 0.901652 0.901193
vt 0.098349 0.901193
vt 0.098349 0.097890
vt 0.905219 0.095741
vt 0.905219 0.905194
vt 0.095766 0.905195
vt 0.095766 0.095741
vt 0.905149 0.094334
vt 0.905149 0.906602
vt 0.092881 0.906602
vt 0.092881 0.094334
vt 0.097555 0.902570
vt 0.097555 0.097681
vt 0.902445 0.097681
vt 0.902445 0.902570
vt 0.908893 0.091575
vt 0.908893 0.909360
vt 0.091107 0.909360
vt 0.091107 0.091575
vt 0.906608 0.093367
vt 0.906608 0.907569
vt 0.092407 0.907569
vt 0.092407 0.093367
s 1
usemtl Material.010
f 9/25/7 13/26/7 15/27/7 11/28/7
f 12/29/8 11/30/8 15/31/8 16/32/8
f 16/33/9 15/34/9 13/35/9 14/36/9
f 14/37/10 10/38/10 12/39/10 16/40/10
f 10/41/11 9/42/11 11/43/11 12/44/11
f 14/45/12 13/46/12 9/47/12 10/48/12
o Bloque_diamante_3
v -0.681826 0.205074 -0.355356
v -0.683178 0.066992 -0.362038
v -0.713012 0.211889 -0.489871
v -0.714364 0.073806 -0.496553
v -0.547145 0.205266 -0.386571
v -0.548498 0.067183 -0.393252
v -0.578331 0.212080 -0.521086
v -0.579683 0.073998 -0.527767
vn 0.0098 0.9988 0.0483
vn -0.2256 0.0493 -0.9730
vn 0.9742 0.0014 -0.2258
vn -0.0098 -0.9988 -0.0483
vn -0.9742 -0.0014 0.2258
vn 0.2256 -0.0493 0.9730
vt 0.901651 0.097890
vt 0.901652 0.901193
vt 0.098349 0.901193
vt 0.098349 0.097890
vt 0.905219 0.095741
vt 0.905219 0.905194
vt 0.095766 0.905195
vt 0.095766 0.095741
vt 0.905149 0.094334
vt 0.905149 0.906602
vt 0.092881 0.906602
vt 0.092881 0.094334
vt 0.097555 0.902570
vt 0.097555 0.097681
vt 0.902445 0.097681
vt 0.902445 0.902570
vt 0.908893 0.091575
vt 0.908893 0.909360
vt 0.091107 0.909360
vt 0.091107 0.091575
vt 0.906608 0.093367
vt 0.906608 0.907569
vt 0.092407 0.907569
vt 0.092407 0.093367
s 1
usemtl Material.010
f 17/49/13 21/50/13 23/51/13 19/52/13
f 20/53/14 19/54/14 23/55/14 24/56/14
f 24/57/15 23/58/15 21/59/15 22/60/15
f 22/61/16 18/62/16 20/63/16 24/64/16
f 18/65/17 17/66/17 19/67/17 20/68/17
f 22/69/18 21/70/18 17/71/18 18/72/18
o Bloque_diamante_4
v -0.816160 0.205360 -0.323470
v -0.817512 0.067277 -0.330151
v -0.847345 0.212174 -0.457985
v -0.848698 0.074091 -0.464666
v -0.681479 0.205551 -0.354684
v -0.682832 0.067468 -0.361365
v -0.712665 0.212365 -0.489199
v -0.714017 0.074283 -0.495880
vn 0.0098 0.9988 0.0483
vn -0.2256 0.0493 -0.9730
vn 0.9742 0.0014 -0.2258
vn -0.0098 -0.9988 -0.0483
vn -0.9742 -0.0014 0.2258
vn 0.2256 -0.0493 0.9730
vt 0.901651 0.097890
vt 0.901652 0.901193
vt 0.098349 0.901193
vt 0.098349 0.097890
vt 0.905219 0.095741
vt 0.905219 0.905194
vt 0.095766 0.905195
vt 0.095766 0.095741
vt 0.905149 0.094334
vt 0.905149 0.906602
vt 0.092881 0.906602
vt 0.092881 0.094334
vt 0.097555 0.902570
vt 0.097555 0.097681
vt 0.902445 0.097681
vt 0.902445 0.902570
vt 0.908893 0.091575
vt 0.908893 0.909360
vt 0.091107 0.909360
vt 0.091107 0.091575
vt 0.906608 0.093367
vt 0.906608 0.907569
vt 0.092407 0.907569
vt 0.092407 0.093367
s 1
usemtl Material.010
f 25/73/19 29/74/19 31/75/19 27/76/19
f 28/77/20 27/78/20 31/79/20 32/80/20
f 32/81/21 31/82/21 29/83/21 30/84/21
f 30/85/22 26/86/22 28/87/22 32/88/22
f 26/89/23 25/90/23 27/91/23 28/92/23
f 30/93/24 29/94/24 25/95/24 26/96/24
