# Blender 5.1.2
# www.blender.org
mtllib diamond_ingot.mtl
o Cube_0.001
v 0.060716 -0.074443 0.079474
v 0.059503 -0.074362 0.083444
v 0.059621 -0.069200 0.083374
v 0.059739 -0.064038 0.083303
v 0.059857 -0.058877 0.083233
v 0.061070 -0.058959 0.079263
v 0.060952 -0.064120 0.079334
v 0.117398 -0.044521 0.096175
v 0.116185 -0.044439 0.100144
v 0.116067 -0.049600 0.100215
v 0.115949 -0.054762 0.100285
v 0.117162 -0.054843 0.096315
v 0.107339 -0.039169 0.092991
v 0.107457 -0.034008 0.092921
v 0.106244 -0.033926 0.096891
v 0.106126 -0.039087 0.096961
v 0.101037 -0.038992 0.095404
v 0.121779 -0.075585 0.098153
v 0.121897 -0.070423 0.098083
v 0.120684 -0.070341 0.102052
v 0.120566 -0.075503 0.102123
v 0.122014 -0.065261 0.098013
v 0.120802 -0.065180 0.101982
v 0.122014 -0.065261 0.098013
v 0.122132 -0.060100 0.097942
v 0.120920 -0.060018 0.101912
v 0.120802 -0.065180 0.101982
v 0.122132 -0.060100 0.097942
v 0.122250 -0.054939 0.097872
v 0.121038 -0.054857 0.101842
v 0.120920 -0.060018 0.101912
v 0.121897 -0.070423 0.098083
v 0.121779 -0.075585 0.098153
v 0.116690 -0.075489 0.096597
v 0.116808 -0.070328 0.096526
v 0.116808 -0.070328 0.096526
v 0.116926 -0.065166 0.096456
v 0.122014 -0.065261 0.098013
v 0.121897 -0.070423 0.098083
v 0.116926 -0.065166 0.096456
v 0.117044 -0.060005 0.096386
v 0.122132 -0.060100 0.097942
v 0.122014 -0.065261 0.098013
v 0.117044 -0.060005 0.096386
v 0.117162 -0.054843 0.096315
v 0.122250 -0.054939 0.097872
v 0.122132 -0.060100 0.097942
v 0.076808 -0.038598 0.083652
v 0.076926 -0.033437 0.083582
v 0.082014 -0.033532 0.085138
v 0.081896 -0.038693 0.085208
v 0.081896 -0.038693 0.085208
v 0.082014 -0.033532 0.085138
v 0.087103 -0.033627 0.086695
v 0.086985 -0.038789 0.086765
v 0.092191 -0.033722 0.088251
v 0.092073 -0.038884 0.088322
v 0.097280 -0.033817 0.089808
v 0.097162 -0.038979 0.089878
v 0.102368 -0.033913 0.091365
v 0.102250 -0.039074 0.091435
v 0.102250 -0.039074 0.091435
v 0.102368 -0.033913 0.091365
v 0.071601 -0.043665 0.082166
v 0.071719 -0.038503 0.082095
v 0.076690 -0.043760 0.083722
v 0.076690 -0.043760 0.083722
v 0.076808 -0.038598 0.083652
v 0.081896 -0.038693 0.085208
v 0.081778 -0.043855 0.085279
v 0.081778 -0.043855 0.085279
v 0.081896 -0.038693 0.085208
v 0.086985 -0.038789 0.086765
v 0.086867 -0.043950 0.086835
v 0.086867 -0.043950 0.086835
v 0.086985 -0.038789 0.086765
v 0.092073 -0.038884 0.088322
v 0.091955 -0.044045 0.088392
v 0.097162 -0.038979 0.089878
v 0.097044 -0.044140 0.089948
v 0.102250 -0.039074 0.091435
v 0.102132 -0.044235 0.091505
v 0.102132 -0.044235 0.091505
v 0.107339 -0.039169 0.092991
v 0.107221 -0.044330 0.093062
v 0.107221 -0.044330 0.093062
v 0.112427 -0.039264 0.094548
v 0.112309 -0.044426 0.094618
v 0.071483 -0.048826 0.082236
v 0.076571 -0.048921 0.083792
v 0.076571 -0.048921 0.083792
v 0.076690 -0.043760 0.083722
v 0.081778 -0.043855 0.085279
v 0.081660 -0.049016 0.085349
v 0.086867 -0.043950 0.086835
v 0.086749 -0.049111 0.086906
v 0.086749 -0.049111 0.086906
v 0.086867 -0.043950 0.086835
v 0.091955 -0.044045 0.088392
v 0.091837 -0.049206 0.088462
v 0.091837 -0.049206 0.088462
v 0.096926 -0.049302 0.090019
v 0.102014 -0.049397 0.091575
v 0.102014 -0.049397 0.091575
v 0.102132 -0.044235 0.091505
v 0.107221 -0.044330 0.093062
v 0.107103 -0.049492 0.093132
v 0.107103 -0.049492 0.093132
v 0.112309 -0.044426 0.094618
v 0.112191 -0.049587 0.094689
v 0.112191 -0.049587 0.094689
v 0.112309 -0.044426 0.094618
v 0.117280 -0.049682 0.096245
v 0.066276 -0.053893 0.080750
v 0.066394 -0.048731 0.080679
v 0.071365 -0.053988 0.082306
v 0.071365 -0.053988 0.082306
v 0.071483 -0.048826 0.082236
v 0.076571 -0.048921 0.083792
v 0.076453 -0.054083 0.083863
v 0.076453 -0.054083 0.083863
v 0.081542 -0.054178 0.085419
v 0.081542 -0.054178 0.085419
v 0.081660 -0.049016 0.085349
v 0.086749 -0.049111 0.086906
v 0.086631 -0.054273 0.086976
v 0.091837 -0.049206 0.088462
v 0.091719 -0.054368 0.088532
v 0.096926 -0.049302 0.090019
v 0.096808 -0.054463 0.090089
v 0.096808 -0.054463 0.090089
v 0.096926 -0.049302 0.090019
v 0.102014 -0.049397 0.091575
v 0.101896 -0.054558 0.091646
v 0.101896 -0.054558 0.091646
v 0.102014 -0.049397 0.091575
v 0.107103 -0.049492 0.093132
v 0.106985 -0.054653 0.093202
v 0.112191 -0.049587 0.094689
v 0.112073 -0.054748 0.094759
v 0.112073 -0.054748 0.094759
v 0.112191 -0.049587 0.094689
v 0.117280 -0.049682 0.096245
v 0.066158 -0.059054 0.080820
v 0.071247 -0.059149 0.082377
v 0.071247 -0.059149 0.082377
v 0.071365 -0.053988 0.082306
v 0.076453 -0.054083 0.083863
v 0.076335 -0.059244 0.083933
v 0.076335 -0.059244 0.083933
v 0.076453 -0.054083 0.083863
v 0.081542 -0.054178 0.085419
v 0.081424 -0.059339 0.085490
v 0.081424 -0.059339 0.085490
v 0.081542 -0.054178 0.085419
v 0.086631 -0.054273 0.086976
v 0.086513 -0.059434 0.087046
v 0.091719 -0.054368 0.088532
v 0.091601 -0.059530 0.088603
v 0.096808 -0.054463 0.090089
v 0.096690 -0.059625 0.090159
v 0.101896 -0.054558 0.091646
v 0.101778 -0.059720 0.091716
v 0.101778 -0.059720 0.091716
v 0.106985 -0.054653 0.093202
v 0.106867 -0.059815 0.093273
v 0.106867 -0.059815 0.093273
v 0.111955 -0.059910 0.094829
v 0.117162 -0.054843 0.096315
v 0.117044 -0.060005 0.096386
v 0.066040 -0.064215 0.080890
v 0.066040 -0.064215 0.080890
v 0.066158 -0.059054 0.080820
v 0.071247 -0.059149 0.082377
v 0.071129 -0.064310 0.082447
v 0.071129 -0.064310 0.082447
v 0.076217 -0.064406 0.084003
v 0.076217 -0.064406 0.084003
v 0.081306 -0.064501 0.085560
v 0.081306 -0.064501 0.085560
v 0.086395 -0.064596 0.087117
v 0.091483 -0.064691 0.088673
v 0.096572 -0.064786 0.090230
v 0.101660 -0.064881 0.091786
v 0.101660 -0.064881 0.091786
v 0.101778 -0.059720 0.091716
v 0.106867 -0.059815 0.093273
v 0.106749 -0.064976 0.093343
v 0.106749 -0.064976 0.093343
v 0.111837 -0.065071 0.094899
v 0.111837 -0.065071 0.094899
v 0.111955 -0.059910 0.094829
v 0.117044 -0.060005 0.096386
v 0.116926 -0.065166 0.096456
v 0.060834 -0.069282 0.079404
v 0.065922 -0.069377 0.080961
v 0.065922 -0.069377 0.080961
v 0.066040 -0.064215 0.080890
v 0.071129 -0.064310 0.082447
v 0.071011 -0.069472 0.082517
v 0.076217 -0.064406 0.084003
v 0.076099 -0.069567 0.084074
v 0.076099 -0.069567 0.084074
v 0.081188 -0.069662 0.085630
v 0.081188 -0.069662 0.085630
v 0.086277 -0.069757 0.087187
v 0.091365 -0.069852 0.088743
v 0.096454 -0.069947 0.090300
v 0.101542 -0.070043 0.091857
v 0.101542 -0.070043 0.091857
v 0.101660 -0.064881 0.091786
v 0.106749 -0.064976 0.093343
v 0.106631 -0.070138 0.093413
v 0.106631 -0.070138 0.093413
v 0.106749 -0.064976 0.093343
v 0.111837 -0.065071 0.094899
v 0.111720 -0.070233 0.094970
v 0.111720 -0.070233 0.094970
v 0.116808 -0.070328 0.096526
v 0.065804 -0.074538 0.081031
v 0.065804 -0.074538 0.081031
v 0.065922 -0.069377 0.080961
v 0.071011 -0.069472 0.082517
v 0.070893 -0.074634 0.082587
v 0.070893 -0.074634 0.082587
v 0.071011 -0.069472 0.082517
v 0.076099 -0.069567 0.084074
v 0.075981 -0.074729 0.084144
v 0.081188 -0.069662 0.085630
v 0.081070 -0.074824 0.085701
v 0.081070 -0.074824 0.085701
v 0.081188 -0.069662 0.085630
v 0.086277 -0.069757 0.087187
v 0.086159 -0.074919 0.087257
v 0.091365 -0.069852 0.088743
v 0.091247 -0.075014 0.088814
v 0.096454 -0.069947 0.090300
v 0.096336 -0.075109 0.090370
v 0.101542 -0.070043 0.091857
v 0.101425 -0.075204 0.091927
v 0.101425 -0.075204 0.091927
v 0.101542 -0.070043 0.091857
v 0.106631 -0.070138 0.093413
v 0.106513 -0.075299 0.093483
v 0.111720 -0.070233 0.094970
v 0.111602 -0.075394 0.095040
v 0.111602 -0.075394 0.095040
v 0.116690 -0.075489 0.096597
v 0.065686 -0.079700 0.081101
v 0.070893 -0.074634 0.082587
v 0.070775 -0.079795 0.082658
v 0.070775 -0.079795 0.082658
v 0.075864 -0.079890 0.084214
v 0.075864 -0.079890 0.084214
v 0.075981 -0.074729 0.084144
v 0.081070 -0.074824 0.085701
v 0.080952 -0.079985 0.085771
v 0.080952 -0.079985 0.085771
v 0.081070 -0.074824 0.085701
v 0.086159 -0.074919 0.087257
v 0.086041 -0.080080 0.087327
v 0.091247 -0.075014 0.088814
v 0.091129 -0.080175 0.088884
v 0.096336 -0.075109 0.090370
v 0.096218 -0.080270 0.090441
v 0.101425 -0.075204 0.091927
v 0.101307 -0.080365 0.091997
v 0.101307 -0.080365 0.091997
v 0.101425 -0.075204 0.091927
v 0.106513 -0.075299 0.093483
v 0.106395 -0.080460 0.093554
v 0.106395 -0.080460 0.093554
v 0.106513 -0.075299 0.093483
v 0.111602 -0.075394 0.095040
v 0.111484 -0.080556 0.095110
v 0.111484 -0.080556 0.095110
v 0.111602 -0.075394 0.095040
v 0.116690 -0.075489 0.096597
v 0.116572 -0.080651 0.096667
v 0.065569 -0.084861 0.081171
v 0.070657 -0.084956 0.082728
v 0.070657 -0.084956 0.082728
v 0.070775 -0.079795 0.082658
v 0.075864 -0.079890 0.084214
v 0.075746 -0.085051 0.084285
v 0.075746 -0.085051 0.084285
v 0.080834 -0.085147 0.085841
v 0.080834 -0.085147 0.085841
v 0.085923 -0.085242 0.087398
v 0.091011 -0.085337 0.088954
v 0.096100 -0.085432 0.090511
v 0.101189 -0.085527 0.092067
v 0.101189 -0.085527 0.092067
v 0.106277 -0.085622 0.093624
v 0.106277 -0.085622 0.093624
v 0.106395 -0.080460 0.093554
v 0.111484 -0.080556 0.095110
v 0.111366 -0.085717 0.095181
v 0.111366 -0.085717 0.095181
v 0.111484 -0.080556 0.095110
v 0.116572 -0.080651 0.096667
v 0.116454 -0.085812 0.096737
v 0.070539 -0.090118 0.082798
v 0.070657 -0.084956 0.082728
v 0.075746 -0.085051 0.084285
v 0.075628 -0.090213 0.084355
v 0.075628 -0.090213 0.084355
v 0.075746 -0.085051 0.084285
v 0.080834 -0.085147 0.085841
v 0.080716 -0.090308 0.085911
v 0.080716 -0.090308 0.085911
v 0.085805 -0.090403 0.087468
v 0.090893 -0.090498 0.089025
v 0.095982 -0.090593 0.090581
v 0.101071 -0.090688 0.092138
v 0.101071 -0.090688 0.092138
v 0.101189 -0.085527 0.092067
v 0.106277 -0.085622 0.093624
v 0.106159 -0.090783 0.093694
v 0.106159 -0.090783 0.093694
v 0.106277 -0.085622 0.093624
v 0.111366 -0.085717 0.095181
v 0.111248 -0.090878 0.095251
v 0.075510 -0.095374 0.084425
v 0.075628 -0.090213 0.084355
v 0.080716 -0.090308 0.085911
v 0.080598 -0.095469 0.085982
v 0.085805 -0.090403 0.087468
v 0.085687 -0.095564 0.087538
v 0.090893 -0.090498 0.089025
v 0.090775 -0.095660 0.089095
v 0.095982 -0.090593 0.090581
v 0.095864 -0.095755 0.090651
v 0.101071 -0.090688 0.092138
v 0.100953 -0.095850 0.092208
v 0.100953 -0.095850 0.092208
v 0.101071 -0.090688 0.092138
v 0.106159 -0.090783 0.093694
v 0.106041 -0.095945 0.093765
v 0.082132 -0.028371 0.085068
v 0.087220 -0.028466 0.086624
v 0.087103 -0.033627 0.086695
v 0.092309 -0.028561 0.088181
v 0.092191 -0.033722 0.088251
v 0.097398 -0.028656 0.089738
v 0.097280 -0.033817 0.089808
v 0.102486 -0.028751 0.091294
v 0.082132 -0.028371 0.085068
v 0.080919 -0.028289 0.089038
v 0.086008 -0.028384 0.090594
v 0.087220 -0.028466 0.086624
v 0.091096 -0.028479 0.092151
v 0.092309 -0.028561 0.088181
v 0.096185 -0.028574 0.093707
v 0.097398 -0.028656 0.089738
v 0.101273 -0.028669 0.095264
v 0.102486 -0.028751 0.091294
v 0.075510 -0.095374 0.084425
v 0.080598 -0.095469 0.085982
v 0.079386 -0.095388 0.089951
v 0.074297 -0.095292 0.088395
v 0.085687 -0.095564 0.087538
v 0.084474 -0.095483 0.091508
v 0.090775 -0.095660 0.089095
v 0.089563 -0.095578 0.093065
v 0.095864 -0.095755 0.090651
v 0.094651 -0.095673 0.094621
v 0.100953 -0.095850 0.092208
v 0.099740 -0.095768 0.096178
v 0.106041 -0.095945 0.093765
v 0.104828 -0.095863 0.097734
v 0.080801 -0.033450 0.089108
v 0.075712 -0.033355 0.087551
v 0.075594 -0.038517 0.087622
v 0.070506 -0.038421 0.086065
v 0.070388 -0.043583 0.086135
v 0.070270 -0.048744 0.086206
v 0.065181 -0.048649 0.084649
v 0.065064 -0.053811 0.084719
v 0.064946 -0.058972 0.084790
v 0.064592 -0.074457 0.085000
v 0.064474 -0.079618 0.085071
v 0.064356 -0.084779 0.085141
v 0.069444 -0.084875 0.086698
v 0.070539 -0.090118 0.082798
v 0.069326 -0.090036 0.086768
v 0.069444 -0.084875 0.086698
v 0.070657 -0.084956 0.082728
v 0.074415 -0.090131 0.088324
v 0.075628 -0.090213 0.084355
v 0.075510 -0.095374 0.084425
v 0.074297 -0.095292 0.088395
v 0.074415 -0.090131 0.088324
v 0.110035 -0.090797 0.099221
v 0.104946 -0.090701 0.097664
v 0.106159 -0.090783 0.093694
v 0.111248 -0.090878 0.095251
v 0.106041 -0.095945 0.093765
v 0.104946 -0.090701 0.097664
v 0.104828 -0.095863 0.097734
v 0.111366 -0.085717 0.095181
v 0.110153 -0.085635 0.099150
v 0.115241 -0.085730 0.100707
v 0.111366 -0.085717 0.095181
v 0.116454 -0.085812 0.096737
v 0.116572 -0.080651 0.096667
v 0.115359 -0.080569 0.100636
v 0.116690 -0.075489 0.096597
v 0.115477 -0.075408 0.100566
v 0.121779 -0.075585 0.098153
v 0.120566 -0.075503 0.102123
v 0.115477 -0.075408 0.100566
v 0.121038 -0.054857 0.101842
v 0.111097 -0.044344 0.098588
v 0.111215 -0.039182 0.098518
v 0.101155 -0.033831 0.095334
v 0.115484 -0.075408 0.100545
v 0.115602 -0.070247 0.100475
v 0.120692 -0.070342 0.102027
v 0.120574 -0.075503 0.102097
v 0.115602 -0.070247 0.100475
v 0.115720 -0.065085 0.100404
v 0.120810 -0.065180 0.101957
v 0.120692 -0.070342 0.102027
v 0.115720 -0.065085 0.100404
v 0.115837 -0.059924 0.100334
v 0.120927 -0.060019 0.101886
v 0.120810 -0.065180 0.101957
v 0.115837 -0.059924 0.100334
v 0.115955 -0.054762 0.100264
v 0.121045 -0.054857 0.101816
v 0.120927 -0.060019 0.101886
v 0.075590 -0.038516 0.087636
v 0.075708 -0.033355 0.087566
v 0.080798 -0.033450 0.089118
v 0.080680 -0.038611 0.089188
v 0.080680 -0.038611 0.089188
v 0.080798 -0.033450 0.089118
v 0.085888 -0.033545 0.090670
v 0.085770 -0.038707 0.090740
v 0.090978 -0.033641 0.092222
v 0.090860 -0.038802 0.092292
v 0.096068 -0.033736 0.093774
v 0.095950 -0.038897 0.093844
v 0.101158 -0.033831 0.095326
v 0.101040 -0.038992 0.095397
v 0.101040 -0.038992 0.095397
v 0.101158 -0.033831 0.095326
v 0.106248 -0.033926 0.096878
v 0.106130 -0.039087 0.096949
v 0.070382 -0.043583 0.086154
v 0.070500 -0.038421 0.086084
v 0.075472 -0.043678 0.087706
v 0.075472 -0.043678 0.087706
v 0.075590 -0.038516 0.087636
v 0.080680 -0.038611 0.089188
v 0.080562 -0.043773 0.089258
v 0.080562 -0.043773 0.089258
v 0.080680 -0.038611 0.089188
v 0.085770 -0.038707 0.090740
v 0.085652 -0.043868 0.090810
v 0.085652 -0.043868 0.090810
v 0.085770 -0.038707 0.090740
v 0.090860 -0.038802 0.092292
v 0.090742 -0.043963 0.092362
v 0.095950 -0.038897 0.093844
v 0.095832 -0.044059 0.093915
v 0.101040 -0.038992 0.095397
v 0.100922 -0.044154 0.095467
v 0.100922 -0.044154 0.095467
v 0.106130 -0.039087 0.096949
v 0.106012 -0.044249 0.097019
v 0.106012 -0.044249 0.097019
v 0.111220 -0.039183 0.098501
v 0.111102 -0.044344 0.098571
v 0.070264 -0.048744 0.086224
v 0.075354 -0.048839 0.087776
v 0.075354 -0.048839 0.087776
v 0.075472 -0.043678 0.087706
v 0.080562 -0.043773 0.089258
v 0.080444 -0.048934 0.089329
v 0.085652 -0.043868 0.090810
v 0.085534 -0.049029 0.090881
v 0.085534 -0.049029 0.090881
v 0.085652 -0.043868 0.090810
v 0.090742 -0.043963 0.092362
v 0.090624 -0.049125 0.092433
v 0.090624 -0.049125 0.092433
v 0.095714 -0.049220 0.093985
v 0.100804 -0.049315 0.095537
v 0.100804 -0.049315 0.095537
v 0.100922 -0.044154 0.095467
v 0.106012 -0.044249 0.097019
v 0.105894 -0.049410 0.097089
v 0.105894 -0.049410 0.097089
v 0.111102 -0.044344 0.098571
v 0.110984 -0.049505 0.098641
v 0.110984 -0.049505 0.098641
v 0.111102 -0.044344 0.098571
v 0.116191 -0.044439 0.100123
v 0.116073 -0.049601 0.100194
v 0.065056 -0.053810 0.084742
v 0.065174 -0.048649 0.084672
v 0.070146 -0.053905 0.086295
v 0.070146 -0.053905 0.086295
v 0.070264 -0.048744 0.086224
v 0.075354 -0.048839 0.087776
v 0.075237 -0.054001 0.087847
v 0.075237 -0.054001 0.087847
v 0.080326 -0.054096 0.089399
v 0.080326 -0.054096 0.089399
v 0.080444 -0.048934 0.089329
v 0.085534 -0.049029 0.090881
v 0.085416 -0.054191 0.090951
v 0.090624 -0.049125 0.092433
v 0.090506 -0.054286 0.092503
v 0.095714 -0.049220 0.093985
v 0.095596 -0.054381 0.094055
v 0.095596 -0.054381 0.094055
v 0.095714 -0.049220 0.093985
v 0.100804 -0.049315 0.095537
v 0.100686 -0.054477 0.095607
v 0.100686 -0.054477 0.095607
v 0.100804 -0.049315 0.095537
v 0.105894 -0.049410 0.097089
v 0.105776 -0.054572 0.097160
v 0.110984 -0.049505 0.098641
v 0.110866 -0.054667 0.098712
v 0.110866 -0.054667 0.098712
v 0.110984 -0.049505 0.098641
v 0.116073 -0.049601 0.100194
v 0.115955 -0.054762 0.100264
v 0.064939 -0.058972 0.084813
v 0.070029 -0.059067 0.086365
v 0.070029 -0.059067 0.086365
v 0.070146 -0.053905 0.086295
v 0.075237 -0.054001 0.087847
v 0.075119 -0.059162 0.087917
v 0.075119 -0.059162 0.087917
v 0.075237 -0.054001 0.087847
v 0.080326 -0.054096 0.089399
v 0.080208 -0.059257 0.089469
v 0.080208 -0.059257 0.089469
v 0.080326 -0.054096 0.089399
v 0.085416 -0.054191 0.090951
v 0.085298 -0.059353 0.091021
v 0.090506 -0.054286 0.092503
v 0.090388 -0.059448 0.092573
v 0.095596 -0.054381 0.094055
v 0.095478 -0.059543 0.094126
v 0.100686 -0.054477 0.095607
v 0.100568 -0.059638 0.095678
v 0.100568 -0.059638 0.095678
v 0.105776 -0.054572 0.097160
v 0.105658 -0.059733 0.097230
v 0.105658 -0.059733 0.097230
v 0.110748 -0.059829 0.098782
v 0.115955 -0.054762 0.100264
v 0.115837 -0.059924 0.100334
v 0.059731 -0.064038 0.083331
v 0.059849 -0.058877 0.083261
v 0.064821 -0.064133 0.084883
v 0.064821 -0.064133 0.084883
v 0.064939 -0.058972 0.084813
v 0.070029 -0.059067 0.086365
v 0.069911 -0.064228 0.086435
v 0.069911 -0.064228 0.086435
v 0.075001 -0.064323 0.087987
v 0.075001 -0.064323 0.087987
v 0.080090 -0.064419 0.089539
v 0.080090 -0.064419 0.089539
v 0.085180 -0.064514 0.091092
v 0.090270 -0.064609 0.092644
v 0.095360 -0.064704 0.094196
v 0.100450 -0.064799 0.095748
v 0.100450 -0.064799 0.095748
v 0.100568 -0.059638 0.095678
v 0.105658 -0.059733 0.097230
v 0.105540 -0.064895 0.097300
v 0.105540 -0.064895 0.097300
v 0.110630 -0.064990 0.098852
v 0.110630 -0.064990 0.098852
v 0.110748 -0.059829 0.098782
v 0.115837 -0.059924 0.100334
v 0.115720 -0.065085 0.100404
v 0.059613 -0.069199 0.083401
v 0.064703 -0.069295 0.084953
v 0.064703 -0.069295 0.084953
v 0.064821 -0.064133 0.084883
v 0.069911 -0.064228 0.086435
v 0.069793 -0.069390 0.086505
v 0.075001 -0.064323 0.087987
v 0.074883 -0.069485 0.088058
v 0.074883 -0.069485 0.088058
v 0.079972 -0.069580 0.089610
v 0.079972 -0.069580 0.089610
v 0.085062 -0.069675 0.091162
v 0.090152 -0.069771 0.092714
v 0.095242 -0.069866 0.094266
v 0.100332 -0.069961 0.095818
v 0.100332 -0.069961 0.095818
v 0.100450 -0.064799 0.095748
v 0.105540 -0.064895 0.097300
v 0.105422 -0.070056 0.097370
v 0.105422 -0.070056 0.097370
v 0.105540 -0.064895 0.097300
v 0.110630 -0.064990 0.098852
v 0.110512 -0.070151 0.098923
v 0.110512 -0.070151 0.098923
v 0.115602 -0.070247 0.100475
v 0.059495 -0.074361 0.083471
v 0.064585 -0.074456 0.085024
v 0.064585 -0.074456 0.085024
v 0.064703 -0.069295 0.084953
v 0.069793 -0.069390 0.086505
v 0.069675 -0.074551 0.086576
v 0.069675 -0.074551 0.086576
v 0.069793 -0.069390 0.086505
v 0.074883 -0.069485 0.088058
v 0.074765 -0.074647 0.088128
v 0.079972 -0.069580 0.089610
v 0.079854 -0.074742 0.089680
v 0.079854 -0.074742 0.089680
v 0.079972 -0.069580 0.089610
v 0.085062 -0.069675 0.091162
v 0.084944 -0.074837 0.091232
v 0.090152 -0.069771 0.092714
v 0.090034 -0.074932 0.092784
v 0.095242 -0.069866 0.094266
v 0.095124 -0.075027 0.094336
v 0.100332 -0.069961 0.095818
v 0.100214 -0.075123 0.095889
v 0.100214 -0.075123 0.095889
v 0.100332 -0.069961 0.095818
v 0.105422 -0.070056 0.097370
v 0.105304 -0.075218 0.097441
v 0.110512 -0.070151 0.098923
v 0.110394 -0.075313 0.098993
v 0.110394 -0.075313 0.098993
v 0.115484 -0.075408 0.100545
v 0.064467 -0.079617 0.085094
v 0.069675 -0.074551 0.086576
v 0.069557 -0.079713 0.086646
v 0.069557 -0.079713 0.086646
v 0.074647 -0.079808 0.088198
v 0.074647 -0.079808 0.088198
v 0.074765 -0.074647 0.088128
v 0.079854 -0.074742 0.089680
v 0.079736 -0.079903 0.089750
v 0.079736 -0.079903 0.089750
v 0.079854 -0.074742 0.089680
v 0.084944 -0.074837 0.091232
v 0.084826 -0.079998 0.091302
v 0.090034 -0.074932 0.092784
v 0.089916 -0.080093 0.092855
v 0.095124 -0.075027 0.094336
v 0.095006 -0.080189 0.094407
v 0.100214 -0.075123 0.095889
v 0.100096 -0.080284 0.095959
v 0.100096 -0.080284 0.095959
v 0.100214 -0.075123 0.095889
v 0.105304 -0.075218 0.097441
v 0.105186 -0.080379 0.097511
v 0.105186 -0.080379 0.097511
v 0.105304 -0.075218 0.097441
v 0.110394 -0.075313 0.098993
v 0.110276 -0.080474 0.099063
v 0.110276 -0.080474 0.099063
v 0.110394 -0.075313 0.098993
v 0.115484 -0.075408 0.100545
v 0.115366 -0.080569 0.100615
v 0.064349 -0.084779 0.085164
v 0.069439 -0.084874 0.086716
v 0.069439 -0.084874 0.086716
v 0.069557 -0.079713 0.086646
v 0.074647 -0.079808 0.088198
v 0.074529 -0.084969 0.088269
v 0.074529 -0.084969 0.088269
v 0.079618 -0.085065 0.089821
v 0.079618 -0.085065 0.089821
v 0.084708 -0.085160 0.091373
v 0.089798 -0.085255 0.092925
v 0.094888 -0.085350 0.094477
v 0.099978 -0.085445 0.096029
v 0.099978 -0.085445 0.096029
v 0.105068 -0.085540 0.097581
v 0.105068 -0.085540 0.097581
v 0.105186 -0.080379 0.097511
v 0.110276 -0.080474 0.099063
v 0.110158 -0.085636 0.099134
v 0.110158 -0.085636 0.099134
v 0.110276 -0.080474 0.099063
v 0.115366 -0.080569 0.100615
v 0.115248 -0.085731 0.100686
v 0.069321 -0.090035 0.086787
v 0.069439 -0.084874 0.086716
v 0.074529 -0.084969 0.088269
v 0.074411 -0.090131 0.088339
v 0.074411 -0.090131 0.088339
v 0.074529 -0.084969 0.088269
v 0.079618 -0.085065 0.089821
v 0.079500 -0.090226 0.089891
v 0.079500 -0.090226 0.089891
v 0.084591 -0.090321 0.091443
v 0.089680 -0.090416 0.092995
v 0.094770 -0.090511 0.094547
v 0.099860 -0.090607 0.096100
v 0.099860 -0.090607 0.096100
v 0.099978 -0.085445 0.096029
v 0.105068 -0.085540 0.097581
v 0.104950 -0.090702 0.097652
v 0.104950 -0.090702 0.097652
v 0.105068 -0.085540 0.097581
v 0.110158 -0.085636 0.099134
v 0.110040 -0.090797 0.099204
v 0.074293 -0.095292 0.088409
v 0.074411 -0.090131 0.088339
v 0.079500 -0.090226 0.089891
v 0.079383 -0.095387 0.089961
v 0.084591 -0.090321 0.091443
v 0.084473 -0.095483 0.091513
v 0.089680 -0.090416 0.092995
v 0.089562 -0.095578 0.093065
v 0.094770 -0.090511 0.094547
v 0.094652 -0.095673 0.094618
v 0.099860 -0.090607 0.096100
v 0.099742 -0.095768 0.096170
v 0.099742 -0.095768 0.096170
v 0.099860 -0.090607 0.096100
v 0.104950 -0.090702 0.097652
v 0.104832 -0.095863 0.097722
v 0.080916 -0.028289 0.089047
v 0.086006 -0.028384 0.090600
v 0.085888 -0.033545 0.090670
v 0.091096 -0.028479 0.092152
v 0.090978 -0.033641 0.092222
v 0.096186 -0.028574 0.093704
v 0.096068 -0.033736 0.093774
v 0.101276 -0.028669 0.095256
v 0.075628 -0.090213 0.084355
v 0.112309 -0.044426 0.094618
v 0.112309 -0.044426 0.094618
v 0.112427 -0.039264 0.094548
v 0.112427 -0.039264 0.094548
v 0.111248 -0.090878 0.095251
v 0.101273 -0.028669 0.095264
v 0.101155 -0.033831 0.095334
v 0.060716 -0.074443 0.079474
v 0.060716 -0.074443 0.079474
v 0.061070 -0.058959 0.079263
v 0.061070 -0.058959 0.079263
v 0.060952 -0.064120 0.079334
v 0.106126 -0.039087 0.096961
v 0.106126 -0.039087 0.096961
v 0.106244 -0.033926 0.096891
v 0.107457 -0.034008 0.092921
v 0.107457 -0.034008 0.092921
v 0.107339 -0.039169 0.092991
v 0.107339 -0.039169 0.092991
v 0.107339 -0.039169 0.092991
v 0.106159 -0.090783 0.093694
v 0.059857 -0.058877 0.083233
v 0.059503 -0.074362 0.083444
v 0.122250 -0.054939 0.097872
v 0.082014 -0.033532 0.085138
v 0.082014 -0.033532 0.085138
v 0.082132 -0.028371 0.085068
v 0.066158 -0.059054 0.080820
v 0.066158 -0.059054 0.080820
v 0.066394 -0.048731 0.080679
v 0.066394 -0.048731 0.080679
v 0.066276 -0.053893 0.080750
v 0.065804 -0.074538 0.081031
v 0.065804 -0.074538 0.081031
v 0.065686 -0.079700 0.081101
v 0.065569 -0.084861 0.081171
v 0.065569 -0.084861 0.081171
v 0.117162 -0.054843 0.096315
v 0.117162 -0.054843 0.096315
v 0.117398 -0.044521 0.096175
v 0.117398 -0.044521 0.096175
v 0.116690 -0.075489 0.096597
v 0.116454 -0.085812 0.096737
v 0.065181 -0.048649 0.084649
v 0.064946 -0.058972 0.084790
v 0.064592 -0.074457 0.085000
v 0.064356 -0.084779 0.085141
v 0.116185 -0.044439 0.100144
v 0.115949 -0.054762 0.100285
v 0.115241 -0.085730 0.100707
v 0.076808 -0.038598 0.083652
v 0.076808 -0.038598 0.083652
v 0.076926 -0.033437 0.083582
v 0.076926 -0.033437 0.083582
v 0.102368 -0.033913 0.091365
v 0.102368 -0.033913 0.091365
v 0.102486 -0.028751 0.091294
v 0.071483 -0.048826 0.082236
v 0.071483 -0.048826 0.082236
v 0.071601 -0.043665 0.082166
v 0.071719 -0.038503 0.082095
v 0.071719 -0.038503 0.082095
v 0.070657 -0.084956 0.082728
v 0.070539 -0.090118 0.082798
v 0.080919 -0.028289 0.089038
v 0.080801 -0.033450 0.089108
v 0.075712 -0.033355 0.087551
v 0.075594 -0.038517 0.087622
v 0.070506 -0.038421 0.086065
v 0.070270 -0.048744 0.086206
v 0.069326 -0.090036 0.086768
v 0.110035 -0.090797 0.099221
v 0.110153 -0.085635 0.099150
v 0.111097 -0.044344 0.098588
v 0.111215 -0.039182 0.098518
vn -0.9561 0.0179 -0.2925
vn 0.9561 -0.0179 0.2925
vn -0.0228 -0.9996 0.0136
vn 0.2921 -0.0197 -0.9562
vn 0.0228 0.9996 -0.0136
vn -0.9561 0.0179 -0.2926
vn 0.2913 -0.0197 -0.9564
vt 0.094780 0.428230
vt 0.061440 0.447790
vt 0.061440 0.444180
vt 0.061440 0.440570
vt 0.061440 0.436960
vt 0.094780 0.427090
vt 0.094780 0.427470
vt 0.061480 0.426380
vt 0.095940 0.426200
vt 0.095930 0.427090
vt 0.055560 0.428760
vt 0.061440 0.433230
vt 0.068660 0.422520
vt 0.068660 0.418910
vt 0.093950 0.424140
vt 0.093950 0.425140
vt 0.092960 0.425140
vt 0.099840 0.501310
vt 0.099840 0.511140
vt 0.048930 0.511140
vt 0.048930 0.501310
vt 0.099840 0.520970
vt 0.048930 0.520980
vt 0.091050 0.524880
vt 0.091050 0.531540
vt 0.056570 0.531540
vt 0.056570 0.524880
vt 0.099840 0.530810
vt 0.099840 0.540640
vt 0.048940 0.540650
vt 0.048940 0.530810
vt 0.048150 0.628230
vt 0.048150 0.683600
vt 0.103520 0.683600
vt 0.103530 0.628230
vt 0.096340 0.477820
vt 0.096340 0.436830
vt 0.055340 0.436830
vt 0.055340 0.477820
vt 0.100850 0.538120
vt 0.100850 0.486030
vt 0.048750 0.486020
vt 0.048750 0.538120
vt 0.100870 0.474900
vt 0.100870 0.428740
vt 0.054720 0.428740
vt 0.054720 0.474890
vt 0.092960 0.424140
vt 0.091970 0.424140
vt 0.091970 0.425140
vt 0.499960 0.114870
vt 0.499960 0.112040
vt 0.497130 0.112040
vt 0.497130 0.114870
vt 0.494300 0.112040
vt 0.494300 0.114870
vt 0.491460 0.112040
vt 0.491460 0.114870
vt 0.488630 0.112040
vt 0.488630 0.114870
vt 0.072270 0.422520
vt 0.072270 0.418910
vt 0.093950 0.426130
vt 0.092960 0.426130
vt 0.729700 0.232860
vt 0.729700 0.155940
vt 0.652780 0.155930
vt 0.652770 0.232860
vt 0.616260 0.195130
vt 0.616260 0.186990
vt 0.608130 0.186990
vt 0.608130 0.195130
vt 0.435280 0.207850
vt 0.435280 0.192080
vt 0.419500 0.192080
vt 0.419500 0.207850
vt 0.403730 0.192080
vt 0.403730 0.207850
vt 0.387960 0.192080
vt 0.387960 0.207850
vt 0.488630 0.117700
vt 0.485800 0.114870
vt 0.485800 0.117700
vt 0.068660 0.426130
vt 0.065050 0.422520
vt 0.065050 0.426130
vt 0.093950 0.427120
vt 0.092960 0.427120
vt 0.668140 0.276440
vt 0.668140 0.269480
vt 0.661170 0.269480
vt 0.661170 0.276440
vt 0.654200 0.269480
vt 0.654200 0.276440
vt 0.473970 0.116660
vt 0.473970 0.110150
vt 0.467470 0.110150
vt 0.467470 0.116660
vt 0.419500 0.223620
vt 0.403730 0.223620
vt 0.387960 0.223620
vt 0.508740 0.354770
vt 0.508740 0.347980
vt 0.501950 0.347980
vt 0.501950 0.354770
vt 0.485800 0.120540
vt 0.482960 0.117700
vt 0.482960 0.120540
vt 0.065090 0.429990
vt 0.065090 0.426380
vt 0.061480 0.429990
vt 0.094940 0.428110
vt 0.094940 0.427120
vt 0.093950 0.428110
vt 0.806620 0.386710
vt 0.806620 0.309780
vt 0.729690 0.309780
vt 0.729690 0.386700
vt 0.668140 0.283410
vt 0.661170 0.283410
vt 0.535910 0.361570
vt 0.535910 0.354770
vt 0.529120 0.354770
vt 0.529120 0.361570
vt 0.522330 0.354770
vt 0.522330 0.361560
vt 0.515530 0.354770
vt 0.515530 0.361560
vt 0.460960 0.123160
vt 0.460960 0.116660
vt 0.454460 0.116660
vt 0.454460 0.123160
vt 0.345080 0.386690
vt 0.345080 0.309770
vt 0.268160 0.309770
vt 0.268150 0.386690
vt 0.191230 0.309760
vt 0.191230 0.386690
vt 0.065050 0.433230
vt 0.065050 0.429620
vt 0.061440 0.429620
vt 0.094400 0.427090
vt 0.093950 0.429100
vt 0.783270 0.457340
vt 0.783270 0.415340
vt 0.741270 0.415330
vt 0.741270 0.457340
vt 0.698690 0.484490
vt 0.698690 0.479300
vt 0.693500 0.479300
vt 0.693500 0.484490
vt 0.556780 0.479510
vt 0.556780 0.444350
vt 0.521630 0.444350
vt 0.521630 0.479510
vt 0.486470 0.444350
vt 0.486470 0.479500
vt 0.451310 0.444350
vt 0.451310 0.479500
vt 0.416160 0.444340
vt 0.416160 0.479500
vt 0.454460 0.129660
vt 0.447960 0.123160
vt 0.447960 0.129660
vt 0.268150 0.463610
vt 0.191230 0.463610
vt 0.114310 0.386690
vt 0.114310 0.463610
vt 0.094400 0.427470
vt 0.883530 0.540560
vt 0.883540 0.463630
vt 0.806610 0.463630
vt 0.806610 0.540550
vt 0.783270 0.499340
vt 0.741270 0.499340
vt 0.698690 0.489680
vt 0.693500 0.489680
vt 0.556780 0.514660
vt 0.521630 0.514660
vt 0.486470 0.514660
vt 0.451310 0.514660
vt 0.416150 0.514660
vt 0.321410 0.517430
vt 0.321410 0.487760
vt 0.291740 0.487760
vt 0.291740 0.517430
vt 0.268150 0.540540
vt 0.191230 0.540530
vt 0.482960 0.129030
vt 0.482960 0.126200
vt 0.480130 0.126200
vt 0.480130 0.129030
vt 0.094780 0.427850
vt 0.094400 0.427850
vt 0.839250 0.599960
vt 0.839250 0.561400
vt 0.800690 0.561400
vt 0.800680 0.599960
vt 0.762120 0.561390
vt 0.762120 0.599960
vt 0.698690 0.494870
vt 0.693500 0.494870
vt 0.556780 0.549820
vt 0.521620 0.549820
vt 0.486470 0.549820
vt 0.451310 0.549820
vt 0.416150 0.549820
vt 0.672730 0.494870
vt 0.672730 0.489680
vt 0.667540 0.489680
vt 0.667540 0.494870
vt 0.249430 0.599050
vt 0.249430 0.558950
vt 0.209330 0.558950
vt 0.209330 0.599050
vt 0.482960 0.131870
vt 0.480130 0.131870
vt 0.094400 0.428230
vt 0.883530 0.694400
vt 0.883530 0.617480
vt 0.806610 0.617480
vt 0.806610 0.694400
vt 0.791540 0.661060
vt 0.791540 0.642730
vt 0.773210 0.642730
vt 0.773210 0.661060
vt 0.754870 0.642730
vt 0.754870 0.661060
vt 0.571060 0.676050
vt 0.571060 0.632480
vt 0.527490 0.632480
vt 0.527490 0.676050
vt 0.483930 0.632480
vt 0.483930 0.676040
vt 0.440360 0.632480
vt 0.440360 0.676040
vt 0.396800 0.632480
vt 0.396790 0.676040
vt 0.345070 0.694380
vt 0.345070 0.617460
vt 0.268150 0.617460
vt 0.268140 0.694380
vt 0.191220 0.617460
vt 0.191220 0.694380
vt 0.482960 0.134700
vt 0.480130 0.134700
vt 0.094400 0.428610
vt 0.094020 0.428230
vt 0.094020 0.428610
vt 0.791540 0.679390
vt 0.773210 0.679390
vt 0.667580 0.772980
vt 0.667580 0.820270
vt 0.714860 0.820270
vt 0.714860 0.772990
vt 0.524710 0.792330
vt 0.524710 0.760770
vt 0.493150 0.760770
vt 0.493150 0.792330
vt 0.461590 0.760770
vt 0.461590 0.792330
vt 0.430030 0.760770
vt 0.430030 0.792330
vt 0.398470 0.760770
vt 0.398470 0.792330
vt 0.328810 0.771660
vt 0.328810 0.727190
vt 0.284340 0.727190
vt 0.284340 0.771660
vt 0.259020 0.763850
vt 0.259020 0.701830
vt 0.197010 0.701830
vt 0.197000 0.763850
vt 0.176860 0.756940
vt 0.176860 0.708740
vt 0.128660 0.708740
vt 0.128660 0.756940
vt 0.094400 0.428990
vt 0.094020 0.428990
vt 0.794210 0.836090
vt 0.794210 0.783470
vt 0.741590 0.783470
vt 0.741590 0.836090
vt 0.667580 0.725700
vt 0.714860 0.725710
vt 0.524710 0.823890
vt 0.493150 0.823890
vt 0.461590 0.823890
vt 0.430030 0.823890
vt 0.398470 0.823890
vt 0.328810 0.816130
vt 0.284340 0.816130
vt 0.257110 0.837200
vt 0.257110 0.782330
vt 0.202250 0.782330
vt 0.202250 0.837200
vt 0.191220 0.848230
vt 0.191220 0.771300
vt 0.114300 0.771300
vt 0.114290 0.848220
vt 0.795790 0.914360
vt 0.795800 0.859050
vt 0.740480 0.859050
vt 0.740480 0.914360
vt 0.718400 0.918600
vt 0.718400 0.861050
vt 0.660860 0.861050
vt 0.660850 0.918600
vt 0.524710 0.855450
vt 0.493150 0.855450
vt 0.461590 0.855450
vt 0.430030 0.855450
vt 0.398470 0.855450
vt 0.345060 0.925150
vt 0.345060 0.848230
vt 0.268140 0.848230
vt 0.268140 0.925150
vt 0.256510 0.913530
vt 0.256510 0.859850
vt 0.202840 0.859850
vt 0.202840 0.913530
vt 0.666110 0.989370
vt 0.666110 0.937880
vt 0.614610 0.937880
vt 0.614610 0.989370
vt 0.563120 0.937870
vt 0.563110 0.989370
vt 0.511620 0.937870
vt 0.511620 0.989370
vt 0.460120 0.937870
vt 0.460120 0.989370
vt 0.408620 0.937870
vt 0.408620 0.989370
vt 0.329640 0.986660
vt 0.329640 0.940570
vt 0.283560 0.940570
vt 0.283550 0.986660
vt 0.091970 0.423150
vt 0.083100 0.415300
vt 0.083100 0.418910
vt 0.079490 0.415300
vt 0.079490 0.418910
vt 0.075880 0.415300
vt 0.075880 0.418910
vt 0.072270 0.415300
vt 0.059940 0.437040
vt 0.059940 0.443310
vt 0.059790 0.443310
vt 0.059790 0.437040
vt 0.059630 0.443310
vt 0.059630 0.437040
vt 0.059480 0.443310
vt 0.059480 0.437040
vt 0.059330 0.443310
vt 0.059330 0.437040
vt 0.093580 0.486160
vt 0.093580 0.501200
vt 0.051190 0.501200
vt 0.051190 0.486170
vt 0.093580 0.516230
vt 0.051190 0.516240
vt 0.093580 0.531260
vt 0.051190 0.531270
vt 0.093580 0.546300
vt 0.051190 0.546300
vt 0.093580 0.561330
vt 0.051190 0.561340
vt 0.093580 0.576360
vt 0.051190 0.576370
vt 0.068660 0.429740
vt 0.065050 0.429740
vt 0.065050 0.433350
vt 0.065050 0.436960
vt 0.065050 0.447790
vt 0.065050 0.451400
vt 0.065050 0.455010
vt 0.068660 0.455010
vt 0.404650 0.972690
vt 0.404180 0.972540
vt 0.404180 0.972240
vt 0.396220 0.966860
vt 0.404480 0.972540
vt 0.403980 0.972690
vt 0.364200 0.950650
vt 0.359830 0.950650
vt 0.396690 0.997230
vt 0.496180 0.939760
vt 0.501030 0.939760
vt 0.495680 0.939400
vt 0.501260 0.939400
vt 0.512630 0.974460
vt 0.487950 0.937060
vt 0.517030 0.974460
vt 0.501260 0.944980
vt 0.496180 0.944610
vt 0.422460 0.946190
vt 0.502470 0.946190
vt 0.510470 0.946190
vt 0.510470 0.954190
vt 0.422460 0.954190
vt 0.508980 0.960700
vt 0.503220 0.961510
vt 0.517350 0.963310
vt 0.511850 0.985210
vt 0.517140 0.985210
vt 0.101720 0.428760
vt 0.094950 0.426200
vt 0.094940 0.425140
s 0
usemtl Material.021
f 1/1/1 2/2/1 3/3/1
f 4/4/1 5/5/1 6/6/1
f 1/1/1 3/3/1 4/4/1
f 4/4/1 6/6/1 7/7/1
f 7/7/1 1/1/1 4/4/1
f 8/8/2 9/9/2 10/10/2
f 10/10/2 11/11/2 12/12/2
f 8/8/2 10/10/2 12/12/2
f 13/13/2 14/14/2 15/15/2
f 16/16/3 17/17/3 758/13/3
f 15/15/2 753/16/2 13/13/2
f 18/18/2 19/19/2 20/20/2
f 18/18/2 20/20/2 21/21/2
f 19/19/2 22/22/2 23/23/2
f 19/19/2 23/23/2 20/20/2
f 24/24/2 25/25/2 26/26/2
f 24/24/2 26/26/2 27/27/2
f 28/28/2 29/29/2 30/30/2
f 28/28/2 30/30/2 31/31/2
f 32/32/4 33/33/4 34/34/4
f 32/32/4 34/34/4 35/35/4
f 36/36/4 37/37/4 38/38/4
f 36/36/4 38/38/4 39/39/4
f 40/40/4 41/41/4 42/42/4
f 40/40/4 42/42/4 43/43/4
f 44/44/4 45/45/4 46/46/4
f 44/44/4 46/46/4 47/47/4
f 48/17/4 49/48/4 50/49/4
f 48/17/4 50/49/4 51/50/4
f 52/51/4 53/52/4 54/53/4
f 52/51/4 54/53/4 55/54/4
f 55/54/4 54/53/4 56/55/4
f 55/54/4 56/55/4 57/56/4
f 57/56/4 56/55/4 58/57/4
f 57/56/4 58/57/4 59/58/4
f 59/58/4 58/57/4 60/59/4
f 59/58/4 60/59/4 61/60/4
s 1
f 62/61/4 63/62/4 756/14/4
s 0
f 62/61/4 756/14/4 759/13/4
f 64/63/4 65/16/4 48/17/4
f 64/63/4 48/17/4 66/64/4
f 67/65/4 68/66/4 69/67/4
f 67/65/4 69/67/4 70/68/4
f 71/69/4 72/70/4 73/71/4
f 71/69/4 73/71/4 74/72/4
f 75/73/4 76/74/4 77/75/4
f 75/73/4 77/75/4 78/76/4
f 78/76/4 77/75/4 79/77/4
f 78/76/4 79/77/4 80/78/4
f 80/78/4 79/77/4 81/79/4
f 80/78/4 81/79/4 82/80/4
f 83/81/4 61/60/4 84/82/4
f 83/81/4 84/82/4 85/83/4
f 86/84/4 759/13/4 87/85/4
f 86/84/4 87/85/4 88/86/4
f 89/87/4 64/63/4 66/64/4
f 89/87/4 66/64/4 90/88/4
f 91/89/4 92/90/4 93/91/4
f 91/89/4 93/91/4 94/92/4
f 94/92/4 93/91/4 95/93/4
f 94/92/4 95/93/4 96/94/4
f 97/95/4 98/96/4 99/97/4
f 97/95/4 99/97/4 100/98/4
f 101/99/4 78/76/4 80/78/4
f 101/99/4 80/78/4 102/100/4
f 102/100/4 80/78/4 82/80/4
f 102/100/4 82/80/4 103/101/4
f 104/102/4 105/103/4 106/104/4
f 104/102/4 106/104/4 107/105/4
f 108/106/4 85/83/4 109/107/4
f 108/106/4 109/107/4 110/108/4
f 111/109/4 112/110/4 780/8/4
f 111/109/4 780/8/4 113/111/4
f 114/112/4 115/113/4 89/87/4
f 114/112/4 89/87/4 116/114/4
f 117/115/4 118/116/4 119/117/4
f 117/115/4 119/117/4 120/118/4
f 121/119/4 91/89/4 94/92/4
f 121/119/4 94/92/4 122/120/4
f 123/121/4 124/122/4 125/123/4
f 123/121/4 125/123/4 126/124/4
f 126/124/4 125/123/4 127/125/4
f 126/124/4 127/125/4 128/126/4
f 128/126/4 127/125/4 129/127/4
f 128/126/4 129/127/4 130/128/4
f 131/129/4 132/130/4 133/131/4
f 131/129/4 133/131/4 134/132/4
f 135/133/4 136/134/4 137/135/4
f 135/133/4 137/135/4 138/136/4
f 138/136/4 137/135/4 139/137/4
f 138/136/4 139/137/4 140/138/4
f 141/139/4 142/140/4 143/141/4
f 141/139/4 143/141/4 778/12/4
f 144/142/4 114/112/4 116/114/4
f 144/142/4 116/114/4 145/143/4
f 146/144/4 147/145/4 148/146/4
f 146/144/4 148/146/4 149/147/4
f 150/148/4 151/149/4 152/150/4
f 150/148/4 152/150/4 153/151/4
f 154/152/4 155/153/4 156/154/4
f 154/152/4 156/154/4 157/155/4
f 157/155/4 156/154/4 158/156/4
f 157/155/4 158/156/4 159/157/4
f 159/157/4 158/156/4 160/158/4
f 159/157/4 160/158/4 161/159/4
f 161/159/4 160/158/4 162/160/4
f 161/159/4 162/160/4 163/161/4
f 164/162/4 134/132/4 165/163/4
f 164/162/4 165/163/4 166/164/4
f 167/165/4 138/136/4 140/138/4
f 167/165/4 140/138/4 168/166/4
f 168/166/4 140/138/4 169/167/4
f 168/166/4 169/167/4 170/168/4
f 752/7/4 750/6/4 144/142/4
f 752/7/4 144/142/4 171/169/4
f 172/170/4 173/171/4 174/172/4
f 172/170/4 174/172/4 175/173/4
f 176/174/4 146/144/4 149/147/4
f 176/174/4 149/147/4 177/175/4
f 178/176/4 150/148/4 153/151/4
f 178/176/4 153/151/4 179/177/4
f 180/178/4 154/152/4 157/155/4
f 180/178/4 157/155/4 181/179/4
f 181/179/4 157/155/4 159/157/4
f 181/179/4 159/157/4 182/180/4
f 182/180/4 159/157/4 161/159/4
f 182/180/4 161/159/4 183/181/4
f 183/181/4 161/159/4 163/161/4
f 183/181/4 163/161/4 184/182/4
f 185/183/4 186/184/4 187/185/4
f 185/183/4 187/185/4 188/186/4
f 189/187/4 167/165/4 168/166/4
f 189/187/4 168/166/4 190/188/4
f 191/189/4 192/190/4 193/191/4
f 191/189/4 193/191/4 194/192/4
f 195/193/4 752/7/4 171/169/4
f 195/193/4 171/169/4 196/194/4
f 197/195/4 198/196/4 199/197/4
f 197/195/4 199/197/4 200/198/4
f 200/198/4 199/197/4 201/199/4
f 200/198/4 201/199/4 202/200/4
f 203/201/4 178/176/4 179/177/4
f 203/201/4 179/177/4 204/202/4
f 205/203/4 180/178/4 181/179/4
f 205/203/4 181/179/4 206/204/4
f 206/204/4 181/179/4 182/180/4
f 206/204/4 182/180/4 207/205/4
f 207/205/4 182/180/4 183/181/4
f 207/205/4 183/181/4 208/206/4
f 208/206/4 183/181/4 184/182/4
f 208/206/4 184/182/4 209/207/4
f 210/208/4 211/209/4 212/210/4
f 210/208/4 212/210/4 213/211/4
f 214/212/4 215/213/4 216/214/4
f 214/212/4 216/214/4 217/215/4
f 218/216/4 191/189/4 194/192/4
f 218/216/4 194/192/4 219/217/4
f 748/1/4 195/193/4 196/194/4
f 748/1/4 196/194/4 220/218/4
f 221/219/4 222/220/4 223/221/4
f 221/219/4 223/221/4 224/222/4
f 225/223/4 226/224/4 227/225/4
f 225/223/4 227/225/4 228/226/4
f 228/226/4 227/225/4 229/227/4
f 228/226/4 229/227/4 230/228/4
f 231/229/4 232/230/4 233/231/4
f 231/229/4 233/231/4 234/232/4
f 234/232/4 233/231/4 235/233/4
f 234/232/4 235/233/4 236/234/4
f 236/234/4 235/233/4 237/235/4
f 236/234/4 237/235/4 238/236/4
f 238/236/4 237/235/4 239/237/4
f 238/236/4 239/237/4 240/238/4
f 241/239/4 242/240/4 243/241/4
f 241/239/4 243/241/4 244/242/4
f 244/242/4 243/241/4 245/243/4
f 244/242/4 245/243/4 246/244/4
f 247/245/4 218/216/4 219/217/4
f 247/245/4 219/217/4 248/246/4
f 249/247/4 220/218/4 250/248/4
f 249/247/4 250/248/4 251/249/4
f 252/250/4 225/223/4 228/226/4
f 252/250/4 228/226/4 253/251/4
f 254/252/4 255/253/4 256/254/4
f 254/252/4 256/254/4 257/255/4
f 258/256/4 259/257/4 260/258/4
f 258/256/4 260/258/4 261/259/4
f 261/259/4 260/258/4 262/260/4
f 261/259/4 262/260/4 263/261/4
f 263/261/4 262/260/4 264/262/4
f 263/261/4 264/262/4 265/263/4
f 265/263/4 264/262/4 266/264/4
f 265/263/4 266/264/4 267/265/4
f 268/266/4 269/267/4 270/268/4
f 268/266/4 270/268/4 271/269/4
f 272/270/4 273/271/4 274/272/4
f 272/270/4 274/272/4 275/273/4
f 276/274/4 277/275/4 278/276/4
f 276/274/4 278/276/4 279/277/4
f 280/278/4 249/247/4 251/249/4
f 280/278/4 251/249/4 281/279/4
f 282/280/4 283/281/4 284/282/4
f 282/280/4 284/282/4 285/283/4
f 286/284/4 254/252/4 257/255/4
f 286/284/4 257/255/4 287/285/4
f 288/286/4 258/256/4 261/259/4
f 288/286/4 261/259/4 289/287/4
f 289/287/4 261/259/4 263/261/4
f 289/287/4 263/261/4 290/288/4
f 290/288/4 263/261/4 265/263/4
f 290/288/4 265/263/4 291/289/4
f 291/289/4 265/263/4 267/265/4
f 291/289/4 267/265/4 292/290/4
f 293/291/4 268/266/4 271/269/4
f 293/291/4 271/269/4 294/292/4
f 295/293/4 296/294/4 297/295/4
f 295/293/4 297/295/4 298/296/4
f 299/297/4 300/298/4 301/299/4
f 299/297/4 301/299/4 302/300/4
f 303/301/4 304/302/4 305/303/4
s 1
f 303/301/4 305/303/4 306/304/4
s 0
f 307/305/4 308/306/4 309/307/4
f 307/305/4 309/307/4 310/308/4
f 311/309/4 288/286/4 289/287/4
f 311/309/4 289/287/4 312/310/4
f 312/310/4 289/287/4 290/288/4
f 312/310/4 290/288/4 313/311/4
f 313/311/4 290/288/4 291/289/4
f 313/311/4 291/289/4 314/312/4
f 314/312/4 291/289/4 292/290/4
f 314/312/4 292/290/4 315/313/4
f 316/314/4 317/315/4 318/316/4
f 316/314/4 318/316/4 319/317/4
f 320/318/4 321/319/4 322/320/4
f 320/318/4 322/320/4 323/321/4
f 324/322/4 325/323/4 326/324/4
f 324/322/4 326/324/4 327/325/4
f 327/325/4 326/324/4 328/326/4
f 327/325/4 328/326/4 329/327/4
f 329/327/4 328/326/4 330/328/4
f 329/327/4 330/328/4 331/329/4
f 331/329/4 330/328/4 332/330/4
f 331/329/4 332/330/4 333/331/4
f 333/331/4 332/330/4 334/332/4
f 333/331/4 334/332/4 335/333/4
f 336/334/4 337/335/4 338/336/4
f 336/334/4 338/336/4 339/337/4
f 50/49/4 340/338/4 341/339/4
f 50/49/4 341/339/4 342/340/4
f 342/340/4 341/339/4 343/341/4
f 342/340/4 343/341/4 344/342/4
f 344/342/4 343/341/4 345/343/4
f 344/342/4 345/343/4 346/344/4
f 346/344/4 345/343/4 347/345/4
f 346/344/4 347/345/4 63/62/4
f 348/346/5 349/347/5 350/348/5
f 348/346/5 350/348/5 351/349/5
f 351/349/5 350/348/5 352/350/5
f 351/349/5 352/350/5 353/351/5
f 353/351/5 352/350/5 354/352/5
f 353/351/5 354/352/5 355/353/5
f 355/353/5 354/352/5 356/354/5
f 355/353/5 356/354/5 357/355/5
f 358/356/3 359/357/3 360/358/3
f 358/356/3 360/358/3 361/359/3
f 359/357/3 362/360/3 363/361/3
f 359/357/3 363/361/3 360/358/3
f 362/360/3 364/362/3 365/363/3
f 362/360/3 365/363/3 363/361/3
f 364/362/3 366/364/3 367/365/3
f 364/362/3 367/365/3 365/363/3
f 366/364/3 368/366/3 369/367/3
f 366/364/3 369/367/3 367/365/3
f 368/366/3 370/368/3 371/369/3
f 368/366/3 371/369/3 369/367/3
f 372/344/1 805/347/1 767/338/1
f 372/344/1 767/338/1 765/49/1
f 806/344/5 766/49/5 793/48/5
f 806/344/5 793/48/5 373/62/5
f 791/17/6 374/61/6 807/62/6
f 791/17/1 807/62/1 794/48/1
f 808/61/5 792/17/5 801/16/5
f 808/61/5 801/16/5 375/13/5
f 800/63/1 376/84/1 809/13/1
f 800/63/1 809/13/1 802/16/1
f 798/87/1 377/370/1 376/84/1
f 798/87/1 376/84/1 800/63/1
f 810/370/5 799/87/5 770/113/5
f 810/370/5 770/113/5 378/371/5
f 772/112/1 379/372/1 784/371/1
f 772/112/1 784/371/1 771/113/1
f 380/373/5 768/142/5 751/6/5
f 380/373/5 751/6/5 762/5/5
f 381/374/3 763/2/3 749/1/3
f 381/374/3 749/1/3 773/218/3
f 775/247/1 382/375/1 786/374/1
f 775/247/1 786/374/1 774/218/1
f 776/278/1 383/376/1 382/375/1
f 776/278/1 382/375/1 775/247/1
f 384/377/3 787/376/3 777/278/3
f 384/377/3 777/278/3 803/279/3
f 385/378/1 386/379/1 387/380/1
f 385/378/1 387/380/1 388/381/1
f 389/382/3 811/379/3 804/378/3
f 389/382/3 804/378/3 390/383/3
f 391/384/1 392/385/1 393/386/1
f 391/384/1 393/386/1 740/383/1
f 394/387/3 395/388/3 396/389/3
f 394/387/3 396/389/3 397/390/3
f 398/391/2 761/389/2 399/392/2
f 398/391/2 399/392/2 400/393/2
f 745/390/2 401/394/2 402/395/2
f 745/390/2 402/395/2 812/387/2
f 403/396/3 813/395/3 404/397/3
f 403/396/3 404/397/3 405/398/3
f 783/398/2 406/399/2 407/400/2
f 783/398/2 407/400/2 790/396/2
f 406/399/2 408/401/2 409/402/2
f 406/399/2 409/402/2 407/400/2
f 782/401/3 410/403/3 411/404/3
f 782/401/3 411/404/3 412/405/3
f 413/406/5 764/46/5 779/45/5
f 413/406/5 779/45/5 789/11/5
f 788/9/5 781/8/5 741/110/5
f 788/9/5 741/110/5 414/407/5
f 742/110/2 743/85/2 415/408/2
f 742/110/2 415/408/2 814/407/2
f 815/408/5 744/85/5 760/13/5
f 815/408/5 760/13/5 754/16/5
f 755/15/5 757/14/5 795/62/5
f 755/15/5 795/62/5 416/48/5
f 747/48/2 796/62/2 797/345/2
f 747/48/2 797/345/2 746/354/2
f 769/142/1 785/373/1 379/372/1
f 769/142/1 379/372/1 772/112/1
f 417/34/7 418/35/7 419/32/7
f 417/34/7 419/32/7 420/33/7
f 421/36/7 422/37/7 423/38/7
f 421/36/7 423/38/7 424/39/7
f 425/40/7 426/41/7 427/42/7
f 425/40/7 427/42/7 428/43/7
s 1
f 429/44/7 430/45/7 431/46/7
s 0
f 429/44/7 431/46/7 432/47/7
f 433/17/7 434/48/7 435/49/7
f 433/17/7 435/49/7 436/50/7
f 437/51/7 438/52/7 439/53/7
f 437/51/7 439/53/7 440/54/7
f 440/54/7 439/53/7 441/55/7
f 440/54/7 441/55/7 442/56/7
f 442/56/7 441/55/7 443/57/7
f 442/56/7 443/57/7 444/58/7
f 444/58/7 443/57/7 445/59/7
f 444/58/7 445/59/7 446/60/7
f 447/61/7 448/62/7 449/14/7
f 447/61/7 449/14/7 450/13/7
s 1
f 451/63/7 452/16/7 433/17/7
s 0
f 451/63/7 433/17/7 453/64/7
f 454/65/7 455/66/7 456/67/7
f 454/65/7 456/67/7 457/68/7
f 458/69/7 459/70/7 460/71/7
f 458/69/7 460/71/7 461/72/7
f 462/73/7 463/74/7 464/75/7
f 462/73/7 464/75/7 465/76/7
f 465/76/7 464/75/7 466/77/7
f 465/76/7 466/77/7 467/78/7
f 467/78/7 466/77/7 468/79/7
f 467/78/7 468/79/7 469/80/7
f 470/81/7 446/60/7 471/82/7
f 470/81/7 471/82/7 472/83/7
s 1
f 473/84/7 450/13/7 474/85/7
f 473/84/7 474/85/7 475/86/7
f 476/87/7 451/63/7 453/64/7
s 0
f 476/87/7 453/64/7 477/88/7
f 478/89/7 479/90/7 480/91/7
f 478/89/7 480/91/7 481/92/7
f 481/92/7 480/91/7 482/93/7
f 481/92/7 482/93/7 483/94/7
f 484/95/7 485/96/7 486/97/7
f 484/95/7 486/97/7 487/98/7
f 488/99/7 465/76/7 467/78/7
f 488/99/7 467/78/7 489/100/7
f 489/100/7 467/78/7 469/80/7
f 489/100/7 469/80/7 490/101/7
f 491/102/7 492/103/7 493/104/7
f 491/102/7 493/104/7 494/105/7
s 1
f 495/106/7 472/83/7 496/107/7
f 495/106/7 496/107/7 497/108/7
f 498/109/7 499/110/7 500/8/7
s 0
f 498/109/7 500/8/7 501/111/7
f 502/112/7 503/113/7 476/87/7
f 502/112/7 476/87/7 504/114/7
f 505/115/7 506/116/7 507/117/7
f 505/115/7 507/117/7 508/118/7
f 509/119/7 478/89/7 481/92/7
f 509/119/7 481/92/7 510/120/7
f 511/121/7 512/122/7 513/123/7
f 511/121/7 513/123/7 514/124/7
f 514/124/7 513/123/7 515/125/7
f 514/124/7 515/125/7 516/126/7
f 516/126/7 515/125/7 517/127/7
f 516/126/7 517/127/7 518/128/7
f 519/129/7 520/130/7 521/131/7
f 519/129/7 521/131/7 522/132/7
f 523/133/7 524/134/7 525/135/7
f 523/133/7 525/135/7 526/136/7
f 526/136/7 525/135/7 527/137/7
f 526/136/7 527/137/7 528/138/7
f 529/139/7 530/140/7 531/141/7
s 1
f 529/139/7 531/141/7 532/12/7
s 0
f 533/142/7 502/112/7 504/114/7
f 533/142/7 504/114/7 534/143/7
f 535/144/7 536/145/7 537/146/7
f 535/144/7 537/146/7 538/147/7
f 539/148/7 540/149/7 541/150/7
f 539/148/7 541/150/7 542/151/7
f 543/152/7 544/153/7 545/154/7
f 543/152/7 545/154/7 546/155/7
f 546/155/7 545/154/7 547/156/7
f 546/155/7 547/156/7 548/157/7
f 548/157/7 547/156/7 549/158/7
f 548/157/7 549/158/7 550/159/7
f 550/159/7 549/158/7 551/160/7
f 550/159/7 551/160/7 552/161/7
f 553/162/7 522/132/7 554/163/7
f 553/162/7 554/163/7 555/164/7
f 556/165/7 526/136/7 528/138/7
f 556/165/7 528/138/7 557/166/7
s 1
f 557/166/7 528/138/7 558/167/7
f 557/166/7 558/167/7 559/168/7
s 0
f 560/7/7 561/6/7 533/142/7
f 560/7/7 533/142/7 562/169/7
s 1
f 563/170/7 564/171/7 565/172/7
f 563/170/7 565/172/7 566/173/7
s 0
f 567/174/7 535/144/7 538/147/7
f 567/174/7 538/147/7 568/175/7
f 569/176/7 539/148/7 542/151/7
f 569/176/7 542/151/7 570/177/7
f 571/178/7 543/152/7 546/155/7
f 571/178/7 546/155/7 572/179/7
f 572/179/7 546/155/7 548/157/7
f 572/179/7 548/157/7 573/180/7
f 573/180/7 548/157/7 550/159/7
f 573/180/7 550/159/7 574/181/7
f 574/181/7 550/159/7 552/161/7
f 574/181/7 552/161/7 575/182/7
f 576/183/7 577/184/7 578/185/7
f 576/183/7 578/185/7 579/186/7
f 580/187/7 556/165/7 557/166/7
f 580/187/7 557/166/7 581/188/7
f 582/189/7 583/190/7 584/191/7
f 582/189/7 584/191/7 585/192/7
f 586/193/7 560/7/7 562/169/7
f 586/193/7 562/169/7 587/194/7
s 1
f 588/195/7 589/196/7 590/197/7
s 0
f 588/195/7 590/197/7 591/198/7
f 591/198/7 590/197/7 592/199/7
f 591/198/7 592/199/7 593/200/7
f 594/201/7 569/176/7 570/177/7
f 594/201/7 570/177/7 595/202/7
f 596/203/7 571/178/7 572/179/7
f 596/203/7 572/179/7 597/204/7
f 597/204/7 572/179/7 573/180/7
f 597/204/7 573/180/7 598/205/7
f 598/205/7 573/180/7 574/181/7
f 598/205/7 574/181/7 599/206/7
f 599/206/7 574/181/7 575/182/7
f 599/206/7 575/182/7 600/207/7
f 601/208/7 602/209/7 603/210/7
f 601/208/7 603/210/7 604/211/7
f 605/212/7 606/213/7 607/214/7
f 605/212/7 607/214/7 608/215/7
f 609/216/7 582/189/7 585/192/7
f 609/216/7 585/192/7 610/217/7
f 611/1/7 586/193/7 587/194/7
s 1
f 611/1/7 587/194/7 612/218/7
s 0
f 613/219/7 614/220/7 615/221/7
f 613/219/7 615/221/7 616/222/7
s 1
f 617/223/7 618/224/7 619/225/7
f 617/223/7 619/225/7 620/226/7
s 0
f 620/226/7 619/225/7 621/227/7
f 620/226/7 621/227/7 622/228/7
f 623/229/7 624/230/7 625/231/7
f 623/229/7 625/231/7 626/232/7
f 626/232/7 625/231/7 627/233/7
f 626/232/7 627/233/7 628/234/7
f 628/234/7 627/233/7 629/235/7
f 628/234/7 629/235/7 630/236/7
f 630/236/7 629/235/7 631/237/7
f 630/236/7 631/237/7 632/238/7
f 633/239/7 634/240/7 635/241/7
f 633/239/7 635/241/7 636/242/7
f 636/242/7 635/241/7 637/243/7
f 636/242/7 637/243/7 638/244/7
f 639/245/7 609/216/7 610/217/7
f 639/245/7 610/217/7 640/246/7
f 641/247/7 612/218/7 642/248/7
f 641/247/7 642/248/7 643/249/7
s 1
f 644/250/7 617/223/7 620/226/7
s 0
f 644/250/7 620/226/7 645/251/7
f 646/252/7 647/253/7 648/254/7
f 646/252/7 648/254/7 649/255/7
f 650/256/7 651/257/7 652/258/7
f 650/256/7 652/258/7 653/259/7
f 653/259/7 652/258/7 654/260/7
f 653/259/7 654/260/7 655/261/7
f 655/261/7 654/260/7 656/262/7
f 655/261/7 656/262/7 657/263/7
f 657/263/7 656/262/7 658/264/7
f 657/263/7 658/264/7 659/265/7
f 660/266/7 661/267/7 662/268/7
f 660/266/7 662/268/7 663/269/7
f 664/270/7 665/271/7 666/272/7
f 664/270/7 666/272/7 667/273/7
f 668/274/7 669/275/7 670/276/7
f 668/274/7 670/276/7 671/277/7
f 672/278/7 641/247/7 643/249/7
s 1
f 672/278/7 643/249/7 673/279/7
f 674/280/7 675/281/7 676/282/7
s 0
f 674/280/7 676/282/7 677/283/7
f 678/284/7 646/252/7 649/255/7
f 678/284/7 649/255/7 679/285/7
f 680/286/7 650/256/7 653/259/7
f 680/286/7 653/259/7 681/287/7
f 681/287/7 653/259/7 655/261/7
f 681/287/7 655/261/7 682/288/7
f 682/288/7 655/261/7 657/263/7
f 682/288/7 657/263/7 683/289/7
f 683/289/7 657/263/7 659/265/7
f 683/289/7 659/265/7 684/290/7
f 685/291/7 660/266/7 663/269/7
f 685/291/7 663/269/7 686/292/7
f 687/293/7 688/294/7 689/295/7
f 687/293/7 689/295/7 690/296/7
f 691/297/7 692/298/7 693/299/7
s 1
f 691/297/7 693/299/7 694/300/7
f 695/301/7 696/302/7 697/303/7
f 695/301/7 697/303/7 698/304/7
s 0
f 699/305/7 700/306/7 701/307/7
f 699/305/7 701/307/7 702/308/7
f 703/309/7 680/286/7 681/287/7
f 703/309/7 681/287/7 704/310/7
f 704/310/7 681/287/7 682/288/7
f 704/310/7 682/288/7 705/311/7
f 705/311/7 682/288/7 683/289/7
f 705/311/7 683/289/7 706/312/7
f 706/312/7 683/289/7 684/290/7
f 706/312/7 684/290/7 707/313/7
f 708/314/7 709/315/7 710/316/7
f 708/314/7 710/316/7 711/317/7
s 1
f 712/318/7 713/319/7 714/320/7
f 712/318/7 714/320/7 715/321/7
s 0
f 716/322/7 717/323/7 718/324/7
f 716/322/7 718/324/7 719/325/7
f 719/325/7 718/324/7 720/326/7
f 719/325/7 720/326/7 721/327/7
f 721/327/7 720/326/7 722/328/7
f 721/327/7 722/328/7 723/329/7
f 723/329/7 722/328/7 724/330/7
f 723/329/7 724/330/7 725/331/7
f 725/331/7 724/330/7 726/332/7
f 725/331/7 726/332/7 727/333/7
f 728/334/7 729/335/7 730/336/7
f 728/334/7 730/336/7 731/337/7
f 435/49/7 732/338/7 733/339/7
f 435/49/7 733/339/7 734/340/7
f 734/340/7 733/339/7 735/341/7
f 734/340/7 735/341/7 736/342/7
f 736/342/7 735/341/7 737/343/7
f 736/342/7 737/343/7 738/344/7
s 1
f 738/344/7 737/343/7 739/345/7
s 0
f 738/344/7 739/345/7 448/62/7
