# Blender 5.1.2
# www.blender.org
mtllib door.mtl
o PUERTA_MADERA
v 0.153056 0.085927 0.737160
v 0.153187 0.098571 0.737770
v 0.151712 0.086242 0.730918
v 0.151843 0.098887 0.731529
v 0.140670 0.085927 0.739813
v 0.140801 0.098572 0.740423
v 0.139332 0.086243 0.733570
v 0.139464 0.098887 0.734181
v 0.177589 0.073299 0.731266
v 0.177720 0.085944 0.731877
v 0.176251 0.073614 0.725024
v 0.176383 0.086259 0.725634
v 0.165209 0.073300 0.733918
v 0.165366 0.085935 0.734523
v 0.163872 0.073615 0.727676
v 0.164003 0.086260 0.728286
v 0.165523 0.098571 0.735127
v 0.164104 0.086241 0.728263
v 0.164236 0.098886 0.728874
v 0.151725 0.086242 0.730915
v 0.151856 0.098887 0.731526
v 0.177720 0.085925 0.731876
v 0.177851 0.098570 0.732486
v 0.176382 0.086240 0.725633
v 0.176514 0.098885 0.726243
v 0.164003 0.086241 0.728285
v 0.164135 0.098886 0.728895
v 0.142633 0.088383 0.688509
v 0.142765 0.101028 0.689120
v 0.143964 0.088068 0.694754
v 0.144095 0.100712 0.695364
v 0.130247 0.088384 0.691163
v 0.130379 0.101028 0.691773
v 0.131585 0.088069 0.697406
v 0.131716 0.100713 0.698016
v 0.167166 0.075755 0.682616
v 0.167297 0.088400 0.683226
v 0.168503 0.075440 0.688859
v 0.168635 0.088085 0.689469
v 0.154787 0.075756 0.685268
v 0.154943 0.088392 0.685872
v 0.156124 0.075441 0.691511
v 0.156256 0.088086 0.692121
v 0.155100 0.101027 0.686477
v 0.156356 0.088067 0.692099
v 0.156488 0.100712 0.692709
v 0.143977 0.088068 0.694751
v 0.144109 0.100712 0.695361
v 0.167297 0.088381 0.683225
v 0.167429 0.101026 0.683836
v 0.168635 0.088066 0.689468
v 0.168766 0.100711 0.690078
v 0.156255 0.088067 0.692120
v 0.156387 0.100712 0.692730
v 0.112947 -0.125684 0.728822
v 0.105125 -0.123840 0.692312
v 0.300416 -0.123852 0.650473
v 0.308238 -0.125695 0.686983
v 0.115373 0.073795 0.738374
v 0.107200 0.075639 0.701939
v 0.310663 0.073784 0.696535
v 0.302490 0.075627 0.660100
v 0.117096 0.273274 0.748076
v 0.109274 0.275118 0.711565
v 0.304565 0.275106 0.669727
v 0.312386 0.273263 0.706237
v 0.267740 0.237746 0.675730
v 0.267733 0.237102 0.675699
v 0.275504 0.235902 0.712252
v 0.267351 0.200330 0.673924
v 0.275115 0.198487 0.710447
v 0.218690 0.237748 0.686238
v 0.226512 0.235905 0.722748
v 0.218301 0.200333 0.684432
v 0.226123 0.198489 0.720943
v 0.266645 0.137979 0.670927
v 0.274467 0.136136 0.707437
v 0.267034 0.175395 0.672733
v 0.274913 0.173538 0.709230
v 0.225475 0.136139 0.717934
v 0.217653 0.137982 0.681423
v 0.218042 0.175398 0.683229
v 0.225864 0.173555 0.719739
v 0.193894 0.200334 0.689661
v 0.201716 0.198491 0.726172
v 0.194283 0.237750 0.691467
v 0.202105 0.235907 0.727977
v 0.152723 0.198494 0.736668
v 0.144902 0.200337 0.700157
v 0.201457 0.173556 0.724968
v 0.193632 0.175180 0.688447
v 0.201067 0.136127 0.723162
v 0.193246 0.137984 0.686652
v 0.152075 0.136129 0.733658
v 0.144253 0.137987 0.697148
v 0.152464 0.173559 0.735464
v 0.144642 0.175402 0.698954
v 0.153113 0.235909 0.738473
v 0.145291 0.237753 0.701963
v 0.267236 0.200330 0.673949
v 0.267625 0.237746 0.675754
v 0.201068 0.136154 0.723163
v 0.152075 0.136157 0.733659
v 0.274799 0.173566 0.709256
v 0.303787 0.200328 0.666118
v 0.303528 0.175393 0.664915
v 0.108497 0.200339 0.707957
v 0.135798 0.200338 0.702108
v 0.108237 0.175405 0.706753
v 0.303139 0.137977 0.663109
v 0.107848 0.137989 0.704948
v 0.194672 0.275113 0.693270
v 0.219079 0.275111 0.688041
v 0.145679 0.275115 0.703766
v 0.268128 0.275108 0.677533
v 0.265997 0.075629 0.667918
v 0.217004 0.075632 0.678414
v 0.192597 0.075634 0.683643
v 0.190523 -0.123845 0.674016
v 0.214930 -0.123847 0.668787
v 0.263922 -0.123850 0.658291
v 0.116450 0.198496 0.744439
v 0.116235 0.173561 0.743226
v 0.115911 0.136146 0.741406
v 0.311525 0.173549 0.701387
v 0.311740 0.198484 0.702600
v 0.284288 0.198486 0.708481
v 0.311202 0.136134 0.699567
v 0.226901 0.273268 0.724551
v 0.275893 0.273265 0.714055
v 0.202493 0.273269 0.729780
v 0.153501 0.273272 0.740276
v 0.222752 -0.125690 0.705297
v 0.224826 0.073789 0.714924
v 0.198345 -0.125689 0.710526
v 0.200419 0.073790 0.720153
v 0.268071 0.275108 0.677545
v 0.271744 -0.125693 0.694801
v 0.273819 0.073786 0.704428
v 0.116773 0.235912 0.746259
v 0.134897 0.235911 0.742376
v 0.108886 0.237755 0.709762
v 0.122527 0.237754 0.706840
v 0.274856 0.173538 0.709243
v 0.267091 0.175395 0.672721
vn 0.9776 -0.0000 -0.2105
vn -0.9778 0.0001 0.2095
vn 0.2092 -0.0493 0.9766
vn -0.0104 -0.9988 -0.0482
vn 0.0104 0.9988 0.0482
vn 0.9778 -0.0001 -0.2095
vn -0.9774 0.0010 0.2115
vn 0.0102 0.9987 0.0490
vn 0.9799 -0.0016 -0.1997
vn -0.9780 0.0001 0.2084
vn -0.0099 -0.9988 -0.0476
vn -0.9765 0.0008 0.2154
vn -0.0106 -0.9988 -0.0474
vn 0.9780 -0.0001 -0.2084
vn -0.2092 0.0493 -0.9766
vn -0.9782 0.0012 0.2076
vn 0.0099 0.9988 0.0476
vn 0.9756 -0.0006 -0.2194
vn -0.9776 -0.0000 0.2105
vn -0.0102 -0.9987 -0.0490
vn -0.9791 0.0014 0.2036
vn -0.0109 -0.9987 -0.0488
vn -0.9768 0.0007 0.2142
vn -0.9764 -0.0003 0.2158
vn 0.9768 -0.0007 -0.2142
vn 0.9764 0.0003 -0.2158
vn -0.9764 -0.0012 0.2162
vn 0.9764 0.0012 -0.2162
vn -0.0102 -0.9988 -0.0480
vn 0.0103 0.9988 0.0478
vn -0.9775 -0.0000 0.2110
vn -0.0119 -0.9989 -0.0449
vn -0.9780 -0.0007 0.2087
vn -0.9771 -0.0010 0.2128
vn -0.9774 -0.0009 0.2112
vn -0.9768 -0.0011 0.2143
vn 0.9768 0.0011 -0.2143
vn 0.9772 0.0010 -0.2124
vn 0.9774 0.0009 -0.2112
vn -0.9776 -0.0009 0.2103
vt 0.519917 0.835329
vt 0.523087 0.835329
vt 0.523087 0.841745
vt 0.519917 0.841745
vt 0.742849 0.822517
vt 0.746020 0.822517
vt 0.746020 0.828934
vt 0.742849 0.828934
vt 0.687225 0.050609
vt 0.687225 0.057029
vt 0.680946 0.057029
vt 0.680946 0.050609
vt 0.755112 0.569547
vt 0.758282 0.569543
vt 0.758282 0.575963
vt 0.755112 0.575963
vt 0.786281 0.158248
vt 0.789452 0.158248
vt 0.789452 0.164668
vt 0.786281 0.164664
vt 0.891678 0.057026
vt 0.888507 0.057026
vt 0.888507 0.050609
vt 0.891678 0.050609
vt 0.947302 0.822514
vt 0.950472 0.822514
vt 0.950472 0.828925
vt 0.947302 0.828930
vt 0.526196 0.727694
vt 0.526196 0.734110
vt 0.519917 0.734110
vt 0.519922 0.727707
vt 0.947302 0.714879
vt 0.950472 0.714879
vt 0.950472 0.721295
vt 0.947302 0.721295
vt 0.947302 0.930153
vt 0.950472 0.930166
vt 0.950472 0.936569
vt 0.947302 0.936569
vt 0.857338 0.461910
vt 0.860508 0.461905
vt 0.860508 0.468321
vt 0.857338 0.468321
vt 0.857338 0.354266
vt 0.860508 0.354266
vt 0.860508 0.360682
vt 0.857338 0.360682
vt 0.687221 0.063409
vt 0.680946 0.063422
vt 0.402320 0.727701
vt 0.405490 0.727740
vt 0.405490 0.734120
vt 0.402320 0.734117
vt 0.755112 0.354270
vt 0.758282 0.354266
vt 0.758282 0.360660
vt 0.755112 0.360686
vt 0.848246 0.721295
vt 0.845076 0.721295
vt 0.845076 0.714879
vt 0.848246 0.714879
vt 0.272522 0.809936
vt 0.269352 0.809931
vt 0.269352 0.803520
vt 0.272522 0.803520
vt 0.687225 0.069812
vt 0.680946 0.069812
vt 0.640685 0.936565
vt 0.637514 0.936565
vt 0.637514 0.930162
vt 0.640685 0.930149
vt 0.519917 0.942964
vt 0.523087 0.942990
vt 0.523087 0.949380
vt 0.519917 0.949380
vt 0.746020 0.930153
vt 0.746020 0.936569
vt 0.742849 0.936569
vt 0.742849 0.930153
vt 0.637514 0.828930
vt 0.637514 0.822514
vt 0.640685 0.822514
vt 0.640685 0.828930
vt 0.680946 0.171031
vt 0.687225 0.171031
vt 0.687225 0.177451
vt 0.680946 0.177451
vt 0.049528 0.784543
vt 0.049528 0.778127
vt 0.052698 0.778127
vt 0.052698 0.784547
vt 0.786281 0.057029
vt 0.786281 0.050613
vt 0.789452 0.050609
vt 0.789452 0.057029
vt 0.888507 0.164664
vt 0.888507 0.158248
vt 0.891678 0.158248
vt 0.891678 0.164664
vt 0.170296 0.803520
vt 0.170296 0.809936
vt 0.167125 0.809931
vt 0.167125 0.803520
vt 0.643793 0.721295
vt 0.637519 0.721282
vt 0.637514 0.714879
vt 0.643793 0.714879
vt 0.167125 0.917571
vt 0.167125 0.911155
vt 0.170296 0.911155
vt 0.170296 0.917571
vt 0.405490 0.942974
vt 0.405490 0.949391
vt 0.402320 0.949391
vt 0.402320 0.942988
vt 0.269352 0.917566
vt 0.269352 0.911155
vt 0.272522 0.911155
vt 0.272522 0.917571
vt 0.405490 0.835339
vt 0.405490 0.841755
vt 0.402320 0.841755
vt 0.402320 0.835339
vt 0.687225 0.183844
vt 0.680951 0.183831
vt 0.755112 0.468324
vt 0.755112 0.461908
vt 0.758282 0.461905
vt 0.758282 0.468285
vt 0.746020 0.714882
vt 0.746020 0.721299
vt 0.742849 0.721272
vt 0.742849 0.714879
vt 0.860508 0.569540
vt 0.860508 0.575956
vt 0.857338 0.575956
vt 0.857338 0.569540
vt 0.049528 0.892182
vt 0.049528 0.885766
vt 0.052698 0.885766
vt 0.052698 0.892177
vt 0.687225 0.190234
vt 0.680946 0.190234
vt 0.848246 0.822517
vt 0.848246 0.828934
vt 0.845076 0.828920
vt 0.845076 0.822517
vt 0.848246 0.930153
vt 0.848246 0.936569
vt 0.845076 0.936569
vt 0.845076 0.930179
vt 0.303264 0.455485
vt 0.284723 0.455485
vt 0.284723 0.411224
vt 0.303264 0.411224
vt 0.068069 0.354266
vt 0.068069 0.455485
vt 0.049528 0.455485
vt 0.049528 0.354266
vt 0.148584 0.050609
vt 0.148584 0.151828
vt 0.105268 0.151828
vt 0.105268 0.050609
vt 0.464293 0.050609
vt 0.464293 0.151828
vt 0.445752 0.151828
vt 0.445752 0.050609
vt 0.346696 0.151828
vt 0.346696 0.253047
vt 0.303380 0.253047
vt 0.303558 0.151828
vt 0.185667 0.354266
vt 0.185667 0.373135
vt 0.167125 0.373135
vt 0.167125 0.354266
vt 0.068069 0.487123
vt 0.049528 0.487123
vt 0.464293 0.183466
vt 0.445752 0.183466
vt 0.346696 0.050609
vt 0.337469 0.069568
vt 0.328230 0.069568
vt 0.328230 0.050609
vt 0.538458 0.506271
vt 0.519917 0.506271
vt 0.519917 0.480878
vt 0.538458 0.480908
vt 0.284723 0.683316
vt 0.303264 0.683323
vt 0.303264 0.702301
vt 0.284723 0.702190
vt 0.563349 0.050609
vt 0.581890 0.050609
vt 0.581890 0.076002
vt 0.563349 0.076002
vt 0.519917 0.607490
vt 0.538459 0.607490
vt 0.538459 0.626475
vt 0.519917 0.626475
vt 0.637514 0.474470
vt 0.656056 0.474470
vt 0.656056 0.493456
vt 0.637514 0.493456
vt 0.581890 0.202614
vt 0.563349 0.202614
vt 0.563349 0.177221
vt 0.581890 0.177221
vt 0.420861 0.506271
vt 0.402320 0.506271
vt 0.402320 0.480878
vt 0.420861 0.480878
vt 0.167125 0.683323
vt 0.185667 0.683316
vt 0.185667 0.702301
vt 0.167125 0.702301
vt 0.637514 0.594675
vt 0.656056 0.594675
vt 0.656056 0.613660
vt 0.637514 0.613660
vt 0.519917 0.354266
vt 0.538459 0.354296
vt 0.538459 0.379659
vt 0.519917 0.379659
vt 0.068038 0.202451
vt 0.092888 0.202451
vt 0.092888 0.215104
vt 0.068009 0.215104
vt 0.068009 0.202451
vt 0.049528 0.253047
vt 0.068009 0.233762
vt 0.068009 0.234089
vt 0.068009 0.253047
vt 0.420861 0.379659
vt 0.402320 0.379659
vt 0.402320 0.354266
vt 0.420861 0.354266
vt 0.049528 0.657923
vt 0.068069 0.657923
vt 0.068069 0.676908
vt 0.049528 0.676908
vt 0.247640 0.050609
vt 0.261498 0.088553
vt 0.247640 0.088553
vt 0.328230 0.120198
vt 0.346696 0.120191
vt 0.284723 0.556704
vt 0.303264 0.556704
vt 0.303264 0.582097
vt 0.284723 0.582097
vt 0.656056 0.373252
vt 0.637514 0.373252
vt 0.637514 0.354266
vt 0.656056 0.354266
vt 0.420861 0.626482
vt 0.402320 0.626482
vt 0.402320 0.607490
vt 0.420861 0.607497
vt 0.185667 0.582097
vt 0.167125 0.582097
vt 0.167125 0.556734
vt 0.185667 0.556704
vt 0.049528 0.215104
vt 0.049528 0.202451
vt 0.049528 0.183466
vt 0.068038 0.183466
vt 0.134736 0.215104
vt 0.148584 0.215104
vt 0.148584 0.234089
vt 0.141665 0.234089
vt 0.130118 0.215104
vt 0.130118 0.234089
vt 0.130118 0.202451
vt 0.148584 0.202451
vt 0.049528 0.151828
vt 0.130118 0.183466
vt 0.148584 0.183466
vt 0.092888 0.183466
vt 0.068038 0.151828
vt 0.092888 0.151828
vt 0.105268 0.202340
vt 0.105268 0.215104
vt 0.105268 0.253047
vt 0.105268 0.234089
vt 0.130118 0.253047
vt 0.092888 0.253047
vt 0.092888 0.234089
vt 0.148584 0.253047
vt 0.068038 0.253047
vt 0.105268 0.183466
vt 0.092888 0.050609
vt 0.068038 0.050609
vt 0.049528 0.050609
vt 0.049528 0.518760
vt 0.068069 0.518760
vt 0.068069 0.537746
vt 0.049528 0.537746
vt 0.049528 0.506108
vt 0.068069 0.506108
vt 0.445752 0.202451
vt 0.464293 0.202451
vt 0.464293 0.215104
vt 0.445752 0.215104
vt 0.247640 0.101206
vt 0.266121 0.101213
vt 0.266150 0.120191
vt 0.247640 0.120191
vt 0.266150 0.088553
vt 0.266150 0.069568
vt 0.266328 0.151828
vt 0.247640 0.151828
vt 0.328230 0.101206
vt 0.346696 0.101206
vt 0.328230 0.088553
vt 0.346696 0.088553
vt 0.346696 0.069568
vt 0.291000 0.050609
vt 0.291000 0.069568
vt 0.266150 0.050609
vt 0.303380 0.050609
vt 0.303380 0.069568
vt 0.291178 0.151828
vt 0.291000 0.253047
vt 0.266150 0.253047
vt 0.291000 0.120191
vt 0.303380 0.120198
vt 0.464293 0.253047
vt 0.445752 0.253047
vt 0.167125 0.436571
vt 0.185667 0.436571
vt 0.185667 0.455485
vt 0.167125 0.455485
vt 0.167125 0.436600
vt 0.167125 0.411178
vt 0.185667 0.411178
vt 0.167125 0.398528
vt 0.185667 0.398528
vt 0.284723 0.398574
vt 0.303264 0.398574
vt 0.284723 0.373181
vt 0.303264 0.373181
vt 0.284723 0.354266
vt 0.303264 0.354266
vt 0.247640 0.253047
vt 0.068069 0.556704
vt 0.049528 0.556704
vt 0.291000 0.088553
vt 0.291000 0.101206
vt 0.266150 0.101213
vt 0.303380 0.088553
vt 0.303380 0.101206
s 1
usemtl Material.008
f 1/1/1 3/2/1 4/3/1 2/4/1
f 7/5/2 5/6/2 6/7/2 8/8/2
f 5/9/3 1/10/3 2/11/3 6/12/3
f 3/13/4 1/14/4 5/15/4 7/16/4
f 8/17/5 6/18/5 2/19/5 4/20/5
f 9/21/6 11/22/6 12/23/6 10/24/6
f 15/25/7 13/26/7 14/27/7 16/28/7
f 13/29/3 9/30/3 10/31/3 14/32/3
f 11/33/4 9/34/4 13/35/4 15/36/4
f 16/37/8 14/38/8 10/39/8 12/40/8
f 14/41/9 18/42/9 19/43/9 17/44/9
f 20/45/10 1/46/10 2/47/10 21/48/10
f 1/10/3 14/49/3 17/50/3 2/11/3
f 18/51/11 14/52/11 1/53/11 20/54/11
f 21/55/5 2/56/5 17/57/5 19/58/5
f 22/59/6 24/60/6 25/61/6 23/62/6
f 26/63/12 14/64/12 17/65/12 27/66/12
f 14/49/3 22/67/3 23/68/3 17/50/3
f 24/69/13 22/70/13 14/71/13 26/72/13
f 27/73/5 17/74/5 23/75/5 25/76/5
f 28/77/14 29/78/14 31/79/14 30/80/14
f 34/81/2 35/82/2 33/83/2 32/84/2
f 32/85/15 33/86/15 29/87/15 28/88/15
f 30/89/4 34/90/4 32/91/4 28/92/4
f 35/93/5 31/94/5 29/95/5 33/96/5
f 36/97/6 37/98/6 39/99/6 38/100/6
f 42/101/16 43/102/16 41/103/16 40/104/16
f 40/105/15 41/106/15 37/107/15 36/108/15
f 38/109/4 42/110/4 40/111/4 36/112/4
f 43/113/17 39/114/17 37/115/17 41/116/17
f 41/117/18 44/118/18 46/119/18 45/120/18
f 47/121/19 48/122/19 29/123/19 28/124/19
f 28/88/15 29/87/15 44/125/15 41/126/15
f 45/127/20 47/128/20 28/129/20 41/130/20
f 48/131/5 46/132/5 44/133/5 29/134/5
f 49/135/6 50/136/6 52/137/6 51/138/6
f 53/139/21 54/140/21 44/141/21 41/142/21
f 41/126/15 44/125/15 50/143/15 49/144/15
f 51/145/22 53/146/22 41/147/22 49/148/22
f 54/149/5 52/150/5 50/151/5 44/152/5
f 55/153/4 56/154/4 119/155/4 135/156/4
f 55/157/23 59/158/24 60/159/24 56/160/23
f 56/161/15 60/162/15 118/163/15 119/164/15
f 57/165/25 62/166/26 61/167/26 58/168/25
f 59/169/3 55/170/3 135/171/3 136/172/3
f 63/173/5 132/174/5 114/175/5 64/176/5
f 59/158/24 124/177/27 111/178/27 60/159/24
f 62/166/26 110/179/28 128/180/28 61/167/26
f 63/181/3 141/182/3 98/183/3 132/184/3
f 83/185/29 82/186/29 78/187/29 104/188/29
f 93/189/2 102/190/2 90/191/2 91/192/2
f 102/193/30 93/194/30 95/195/30 103/196/30
f 100/197/31 71/198/31 69/199/31 101/200/31
f 80/201/6 81/202/6 82/203/6 83/204/6
f 98/205/4 99/206/4 86/207/4 87/208/4
f 77/209/5 76/210/5 81/211/5 80/212/5
f 103/213/6 95/214/6 97/215/6 96/216/6
f 88/217/6 89/218/6 99/219/6 98/220/6
f 71/221/5 100/222/5 74/223/5 75/224/5
f 78/225/15 82/226/15 74/227/15 70/228/15 145/229/15
f 65/230/15 68/231/15 67/232/15 115/233/15
f 96/234/32 97/235/32 91/236/32 90/237/32
f 75/238/6 74/239/6 72/240/6 73/241/6
f 66/242/3 127/243/3 126/244/3
f 59/169/3 94/245/3 124/246/3
f 85/247/5 84/248/5 89/249/5 88/250/5
f 84/251/2 85/252/2 87/253/2 86/254/2
f 76/255/33 77/256/33 104/257/33 78/258/33
f 73/259/4 72/260/4 101/261/4 69/262/4
f 105/263/15 70/228/15 68/231/15 65/230/15
f 106/264/15 110/265/15 76/266/15 78/225/15 145/229/15
f 108/267/15 107/268/15 142/269/15 143/270/15
f 89/271/15 108/267/15 143/270/15 99/272/15
f 97/273/15 109/274/15 107/268/15 108/267/15
f 76/266/15 110/265/15 62/275/15
f 95/276/15 111/277/15 109/274/15 97/273/15
f 81/278/15 76/266/15 116/279/15 117/280/15
f 74/227/15 82/226/15 91/281/15 84/282/15
f 84/282/15 91/281/15 97/273/15 89/271/15
f 112/283/15 86/284/15 99/272/15 114/285/15
f 113/286/15 72/287/15 86/284/15 112/283/15
f 114/285/15 99/272/15 64/288/15
f 115/233/15 67/232/15 72/287/15 113/286/15 137/289/15
f 116/279/15 76/266/15 62/275/15
f 117/280/15 118/163/15 93/290/15 81/278/15
f 93/290/15 118/163/15 95/276/15
f 119/164/15 118/163/15 117/280/15 120/291/15
f 120/291/15 117/280/15 116/279/15 121/292/15
f 121/292/15 116/279/15 62/275/15 57/293/15
f 107/294/34 122/295/34 140/296/35 142/297/35
f 109/298/36 123/299/36 122/295/34 107/294/34
f 111/178/27 124/177/27 123/299/36 109/298/36
f 125/300/37 106/301/37 105/302/38 126/303/38
f 125/304/3 79/305/3 77/306/3 128/307/3
f 126/244/3 127/243/3 79/305/3 125/304/3
f 71/308/3 127/243/3 66/242/3 69/309/3
f 128/307/3 77/306/3 139/310/3 61/311/3
f 124/246/3 94/245/3 96/312/3 123/313/3
f 123/313/3 96/312/3 88/314/3 122/315/3
f 122/315/3 88/314/3 141/182/3 140/316/3
f 129/317/3 73/318/3 69/309/3 130/319/3
f 130/319/3 69/309/3 66/242/3
f 131/320/3 87/321/3 73/318/3 129/317/3
f 132/184/3 98/183/3 87/321/3 131/320/3
f 134/322/3 133/323/3 138/324/3 139/310/3
f 134/322/3 80/325/3 92/326/3 136/172/3
f 136/172/3 92/326/3 94/245/3
f 136/172/3 135/171/3 133/323/3 134/322/3
f 128/180/28 110/179/28 106/301/37 125/300/37
f 126/303/38 105/302/38 65/327/39 66/328/39
f 137/329/5 130/330/5 66/331/5 65/332/5 115/333/5
f 113/334/5 129/335/5 130/330/5 137/329/5
f 112/336/5 131/337/5 129/335/5 113/334/5
f 114/175/5 132/174/5 131/337/5 112/336/5
f 135/156/4 119/155/4 120/338/4 133/339/4
f 133/339/4 120/338/4 121/340/4 138/341/4
f 138/341/4 121/340/4 57/342/4 58/343/4
f 139/310/3 138/324/3 58/344/3 61/311/3
f 139/310/3 77/306/3 80/325/3 134/322/3
f 140/316/3 141/182/3 63/181/3
f 98/183/3 141/182/3 88/314/3
f 142/297/35 140/296/35 63/345/40 64/346/40
f 99/272/15 143/270/15 64/288/15
f 143/270/15 142/269/15 64/288/15
f 75/347/3 83/348/3 144/349/3 71/308/3
f 85/350/3 90/351/3 83/348/3 75/347/3
f 88/314/3 96/312/3 90/351/3 85/350/3
f 71/308/3 144/349/3 79/305/3 127/243/3
f 83/348/3 90/351/3 92/326/3 80/325/3
f 73/318/3 87/321/3 85/350/3 75/347/3
f 145/229/15 70/228/15 105/263/15 106/264/15
f 89/271/15 97/273/15 108/267/15
f 86/284/15 72/287/15 74/227/15 84/282/15
f 95/276/15 60/162/15 111/277/15
f 95/276/15 118/163/15 60/162/15
f 94/245/3 59/169/3 136/172/3
f 91/281/15 82/226/15 81/278/15 93/290/15
l 83 91
