# Blender 5.1.2
# www.blender.org
mtllib double_chest.mtl
o cofre_doble
v -0.143612 -0.064696 -0.508258
v -0.142471 0.051824 -0.502620
v -0.163694 0.056658 -0.598229
v -0.164835 -0.059862 -0.603867
v 0.107299 -0.059605 -0.664262
v 0.108440 0.056915 -0.658624
v 0.129663 0.052081 -0.563015
v 0.128522 -0.064439 -0.568653
v 0.043026 0.051999 -0.543788
v -0.055833 0.051905 -0.521848
v 0.020662 -0.059687 -0.645034
v -0.078197 -0.059780 -0.623095
v -0.077056 0.056739 -0.617456
v 0.021803 0.056833 -0.639396
v -0.056975 -0.064614 -0.527486
v 0.041885 -0.064521 -0.549426
vn 0.9762 0.0009 -0.2167
vn 0.2164 -0.0493 0.9751
vn -0.2164 0.0493 -0.9751
vn -0.9762 -0.0009 0.2167
vn -0.0098 -0.9988 -0.0483
vn 0.0098 0.9988 0.0483
vt 0.740969 0.336575
vt 0.740969 0.638124
vt 0.513190 0.638124
vt 0.513190 0.336575
vt 0.433808 0.336621
vt 0.498861 0.336621
vt 0.498861 0.641369
vt 0.433808 0.641369
vt 0.197287 0.334929
vt 0.271853 0.334929
vt 0.271853 0.639265
vt 0.197287 0.639265
vt 0.980510 0.333407
vt 0.980510 0.639704
vt 0.746921 0.639704
vt 0.746921 0.333407
vt 0.275534 0.331907
vt 0.275534 0.022835
vt 0.349057 0.022835
vt 0.349057 0.331907
vt 0.432953 0.331907
vt 0.432953 0.022835
vt 0.506476 0.022835
vt 0.506476 0.331907
vt 0.274031 0.849955
vt 0.506006 0.849955
vt 0.506006 0.944903
vt 0.274031 0.944903
vt 0.281340 0.336621
vt 0.347860 0.336621
vt 0.347860 0.641369
vt 0.281340 0.641369
vt 0.037636 0.334929
vt 0.112202 0.334929
vt 0.112202 0.639265
vt 0.037636 0.639265
vt 0.490446 0.336621
vt 0.490446 0.641369
vt 0.291222 0.641369
vt 0.291222 0.336621
vt 0.274031 0.741611
vt 0.506006 0.741611
vt 0.274031 0.646663
vt 0.506006 0.646663
s 1
usemtl Chest-Double
f 5/1/1 6/2/1 7/3/1 8/4/1
f 16/5/2 8/6/2 7/7/2 9/8/2
f 12/9/3 4/10/3 3/11/3 13/12/3
f 1/13/4 2/14/4 3/15/4 4/16/4
f 5/17/5 8/18/5 16/19/5 11/20/5
f 12/21/5 15/22/5 1/23/5 4/24/5
f 14/25/6 9/26/6 7/27/6 6/28/6
f 1/29/2 15/30/2 10/31/2 2/32/2
f 5/33/3 11/34/3 14/35/3 6/36/3
f 12/9/3 13/12/3 14/35/3 11/34/3
f 16/37/2 9/38/2 10/39/2 15/40/2
f 9/26/6 14/25/6 13/41/6 10/42/6
f 15/22/5 12/21/5 11/20/5 16/19/5
f 3/43/6 2/44/6 10/42/6 13/41/6
