# Blender 5.1.2
# www.blender.org
mtllib fence.mtl
o New_World__46_-63_-45_to_46_319_-45
v 0.303193 -0.063793 -0.656853
v 0.311077 -0.063793 -0.628998
v 0.303193 0.052005 -0.656853
v 0.311077 0.052005 -0.628998
v 0.331048 -0.063793 -0.664737
v 0.338932 -0.063793 -0.636882
v 0.331048 0.052005 -0.664737
v 0.338932 0.052005 -0.636882
vn -0.9622 -0.0000 0.2723
vn -0.0000 -1.0000 -0.0000
vn -0.2723 -0.0000 -0.9622
vn 0.9622 -0.0000 -0.2723
vn -0.0000 1.0000 -0.0000
vn 0.2723 -0.0000 0.9622
vt 0.077148 0.999023
vt 0.077148 0.983398
vt 0.081055 0.983398
vt 0.081055 0.999023
vt 0.077148 0.989258
vt 0.077148 0.993164
vt 0.081055 0.993164
vt 0.081055 0.989258
s 1
usemtl Fence
f 3/1/1 1/2/1 2/3/1 4/4/1
f 2/5/2 1/6/2 5/7/2 6/8/2
f 7/1/3 5/2/3 1/3/3 3/4/3
f 7/4/4 8/1/4 6/2/4 5/3/4
f 7/7/5 3/6/5 4/5/5 8/8/5
f 8/4/6 4/1/6 2/2/6 6/3/6
o New_World__46_-63_-45_to_46_319_-45.001
v 0.303193 0.049547 -0.656853
v 0.311077 0.049547 -0.628998
v 0.303193 0.165345 -0.656853
v 0.311077 0.165345 -0.628998
v 0.331048 0.049547 -0.664737
v 0.338932 0.049547 -0.636882
v 0.331048 0.165345 -0.664737
v 0.338932 0.165345 -0.636882
vn -0.9622 -0.0000 0.2723
vn -0.0000 -1.0000 -0.0000
vn -0.2723 -0.0000 -0.9622
vn 0.9622 -0.0000 -0.2723
vn -0.0000 1.0000 -0.0000
vn 0.2723 -0.0000 0.9622
vt 0.077148 0.999023
vt 0.077148 0.983398
vt 0.081055 0.983398
vt 0.081055 0.999023
vt 0.077148 0.989258
vt 0.077148 0.993164
vt 0.081055 0.993164
vt 0.081055 0.989258
s 1
usemtl Fence
f 11/9/7 9/10/7 10/11/7 12/12/7
f 10/13/8 9/14/8 13/15/8 14/16/8
f 15/9/9 13/10/9 9/11/9 11/12/9
f 15/12/10 16/9/10 14/10/10 13/11/10
f 15/15/11 11/14/11 12/13/11 16/16/11
f 16/12/12 12/9/12 10/10/12 14/11/12
o New_World__46_-63_-45_to_46_319_-45.002
v 0.303193 0.163282 -0.656853
v 0.311077 0.163282 -0.628998
v 0.303193 0.279080 -0.656853
v 0.311077 0.279080 -0.628998
v 0.331048 0.163282 -0.664737
v 0.338932 0.163282 -0.636882
v 0.331048 0.279080 -0.664737
v 0.338932 0.279080 -0.636882
vn -0.9622 -0.0000 0.2723
vn -0.0000 -1.0000 -0.0000
vn -0.2723 -0.0000 -0.9622
vn 0.9622 -0.0000 -0.2723
vn -0.0000 1.0000 -0.0000
vn 0.2723 -0.0000 0.9622
vt 0.077148 0.999023
vt 0.077148 0.983398
vt 0.081055 0.983398
vt 0.081055 0.999023
vt 0.077148 0.989258
vt 0.077148 0.993164
vt 0.081055 0.993164
vt 0.081055 0.989258
s 1
usemtl Fence
f 19/17/13 17/18/13 18/19/13 20/20/13
f 18/21/14 17/22/14 21/23/14 22/24/14
f 23/17/15 21/18/15 17/19/15 19/20/15
f 23/20/16 24/17/16 22/18/16 21/19/16
f 23/23/17 19/22/17 20/21/17 24/24/17
f 24/20/18 20/17/18 18/18/18 22/19/18
o New_World__46_-63_-45_to_46_319_-45.003
v 0.303193 0.277319 -0.656853
v 0.311077 0.277319 -0.628998
v 0.303193 0.393117 -0.656853
v 0.311077 0.393117 -0.628998
v 0.331048 0.277319 -0.664737
v 0.338932 0.277319 -0.636882
v 0.331048 0.393117 -0.664737
v 0.338932 0.393117 -0.636882
vn -0.9622 -0.0000 0.2723
vn -0.0000 -1.0000 -0.0000
vn -0.2723 -0.0000 -0.9622
vn 0.9622 -0.0000 -0.2723
vn -0.0000 1.0000 -0.0000
vn 0.2723 -0.0000 0.9622
vt 0.077148 0.999023
vt 0.077148 0.983398
vt 0.081055 0.983398
vt 0.081055 0.999023
vt 0.077148 0.989258
vt 0.077148 0.993164
vt 0.081055 0.993164
vt 0.081055 0.989258
s 1
usemtl Fence
f 27/25/19 25/26/19 26/27/19 28/28/19
f 26/29/20 25/30/20 29/31/20 30/32/20
f 31/25/21 29/26/21 25/27/21 27/28/21
f 31/28/22 32/25/22 30/26/22 29/27/22
f 31/31/23 27/30/23 28/29/23 32/32/23
f 32/28/24 28/25/24 26/26/24 30/27/24
o New_World__46_-63_-45_to_46_319_-45.004
v 0.303193 0.391213 -0.656853
v 0.311077 0.391213 -0.628998
v 0.303193 0.507011 -0.656853
v 0.311077 0.507011 -0.628998
v 0.331048 0.391213 -0.664737
v 0.338932 0.391213 -0.636882
v 0.331048 0.507011 -0.664737
v 0.338932 0.507011 -0.636882
vn -0.9622 -0.0000 0.2723
vn -0.0000 -1.0000 -0.0000
vn -0.2723 -0.0000 -0.9622
vn 0.9622 -0.0000 -0.2723
vn -0.0000 1.0000 -0.0000
vn 0.2723 -0.0000 0.9622
vt 0.077148 0.999023
vt 0.077148 0.983398
vt 0.081055 0.983398
vt 0.081055 0.999023
vt 0.077148 0.989258
vt 0.077148 0.993164
vt 0.081055 0.993164
vt 0.081055 0.989258
s 1
usemtl Fence
f 35/33/25 33/34/25 34/35/25 36/36/25
f 34/37/26 33/38/26 37/39/26 38/40/26
f 39/33/27 37/34/27 33/35/27 35/36/27
f 39/36/28 40/33/28 38/34/28 37/35/28
f 39/39/29 35/38/29 36/37/29 40/40/29
f 40/36/30 36/33/30 34/34/30 38/35/30
o New_World__46_-63_-45_to_46_319_-45.005
v 0.303193 0.505856 -0.656853
v 0.311077 0.505856 -0.628998
v 0.303193 0.621654 -0.656853
v 0.311077 0.621654 -0.628998
v 0.331048 0.505856 -0.664737
v 0.338932 0.505856 -0.636882
v 0.331048 0.621654 -0.664737
v 0.338932 0.621654 -0.636882
vn -0.9622 -0.0000 0.2723
vn -0.0000 -1.0000 -0.0000
vn -0.2723 -0.0000 -0.9622
vn 0.9622 -0.0000 -0.2723
vn -0.0000 1.0000 -0.0000
vn 0.2723 -0.0000 0.9622
vt 0.077148 0.999023
vt 0.077148 0.983398
vt 0.081055 0.983398
vt 0.081055 0.999023
vt 0.077148 0.989258
vt 0.077148 0.993164
vt 0.081055 0.993164
vt 0.081055 0.989258
s 1
usemtl Fence
f 43/41/31 41/42/31 42/43/31 44/44/31
f 42/45/32 41/46/32 45/47/32 46/48/32
f 47/41/33 45/42/33 41/43/33 43/44/33
f 47/44/34 48/41/34 46/42/34 45/43/34
f 47/47/35 43/46/35 44/45/35 48/48/35
f 48/44/36 44/41/36 42/42/36 46/43/36
o New_World__46_-63_-45_to_46_319_-45.006
v 0.303193 0.620403 -0.656853
v 0.311077 0.620403 -0.628998
v 0.303193 0.736201 -0.656853
v 0.311077 0.736201 -0.628998
v 0.331048 0.620403 -0.664737
v 0.338932 0.620403 -0.636882
v 0.331048 0.736201 -0.664737
v 0.338932 0.736201 -0.636882
vn -0.9622 -0.0000 0.2723
vn -0.0000 -1.0000 -0.0000
vn -0.2723 -0.0000 -0.9622
vn 0.9622 -0.0000 -0.2723
vn -0.0000 1.0000 -0.0000
vn 0.2723 -0.0000 0.9622
vt 0.077148 0.999023
vt 0.077148 0.983398
vt 0.081055 0.983398
vt 0.081055 0.999023
vt 0.077148 0.989258
vt 0.077148 0.993164
vt 0.081055 0.993164
vt 0.081055 0.989258
s 1
usemtl Fence
f 51/49/37 49/50/37 50/51/37 52/52/37
f 50/53/38 49/54/38 53/55/38 54/56/38
f 55/49/39 53/50/39 49/51/39 51/52/39
f 55/52/40 56/49/40 54/50/40 53/51/40
f 55/55/41 51/54/41 52/53/41 56/56/41
f 56/52/42 52/49/42 50/50/42 54/51/42
