# Blender 5.1.2
# www.blender.org
mtllib glass_block.mtl
o cube.014
v 0.257410 0.034805 -0.242077
v 0.232891 0.034805 -0.349940
v 0.257410 -0.075810 -0.242077
v 0.232891 -0.075810 -0.349940
v 0.125028 0.034805 -0.325421
v 0.149547 0.034805 -0.217558
v 0.125028 -0.075810 -0.325421
v 0.149547 -0.075810 -0.217558
v 0.125028 0.034805 -0.325421
v 0.232891 0.034805 -0.349940
v 0.149547 0.034805 -0.217558
v 0.257410 0.034805 -0.242077
v 0.149547 -0.075810 -0.217558
v 0.257410 -0.075810 -0.242077
v 0.125028 -0.075810 -0.325421
v 0.232891 -0.075810 -0.349940
v 0.149547 0.034805 -0.217558
v 0.257410 0.034805 -0.242077
v 0.149547 -0.075810 -0.217558
v 0.257410 -0.075810 -0.242077
v 0.232891 0.034805 -0.349940
v 0.125028 0.034805 -0.325421
v 0.232891 -0.075810 -0.349940
v 0.125028 -0.075810 -0.325421
vn 0.9751 -0.0000 -0.2217
vn -0.9751 -0.0000 0.2217
vn -0.0000 1.0000 -0.0000
vn -0.0000 -1.0000 -0.0000
vn 0.2217 -0.0000 0.9751
vn -0.2217 -0.0000 -0.9751
vt 0.000000 1.000000
vt 0.000000 0.000000
vt 1.000000 1.000000
vt 1.000000 0.000000
s 0
usemtl Material_0.004
f 1/1/1 3/2/1 2/3/1
f 3/2/1 4/4/1 2/3/1
f 5/1/2 7/2/2 6/3/2
f 7/2/2 8/4/2 6/3/2
f 9/1/3 11/2/3 10/3/3
f 11/2/3 12/4/3 10/3/3
f 13/1/4 15/2/4 14/3/4
f 15/2/4 16/4/4 14/3/4
f 17/1/5 19/2/5 18/3/5
f 19/2/5 20/4/5 18/3/5
f 21/1/6 23/2/6 22/3/6
f 23/2/6 24/4/6 22/3/6
o cube.015
v 0.361576 0.035121 -0.264814
v 0.337056 0.035121 -0.372677
v 0.361576 -0.075494 -0.264814
v 0.337056 -0.075494 -0.372677
v 0.229193 0.035121 -0.348158
v 0.253713 0.035121 -0.240295
v 0.229193 -0.075494 -0.348158
v 0.253713 -0.075494 -0.240295
v 0.229193 0.035121 -0.348158
v 0.337056 0.035121 -0.372677
v 0.253713 0.035121 -0.240295
v 0.361576 0.035121 -0.264814
v 0.253713 -0.075494 -0.240295
v 0.361576 -0.075494 -0.264814
v 0.229193 -0.075494 -0.348158
v 0.337056 -0.075494 -0.372677
v 0.253713 0.035121 -0.240295
v 0.361576 0.035121 -0.264814
v 0.253713 -0.075494 -0.240295
v 0.361576 -0.075494 -0.264814
v 0.337056 0.035121 -0.372677
v 0.229193 0.035121 -0.348158
v 0.337056 -0.075494 -0.372677
v 0.229193 -0.075494 -0.348158
vn 0.9751 -0.0000 -0.2217
vn -0.9751 -0.0000 0.2217
vn -0.0000 1.0000 -0.0000
vn -0.0000 -1.0000 -0.0000
vn 0.2217 -0.0000 0.9751
vn -0.2217 -0.0000 -0.9751
vt 0.000000 1.000000
vt 0.000000 0.000000
vt 1.000000 1.000000
vt 1.000000 0.000000
s 0
usemtl Material_0.004
f 25/5/7 27/6/7 26/7/7
f 27/6/7 28/8/7 26/7/7
f 29/5/8 31/6/8 30/7/8
f 31/6/8 32/8/8 30/7/8
f 33/5/9 35/6/9 34/7/9
f 35/6/9 36/8/9 34/7/9
f 37/5/10 39/6/10 38/7/10
f 39/6/10 40/8/10 38/7/10
f 41/5/11 43/6/11 42/7/11
f 43/6/11 44/8/11 42/7/11
f 45/5/12 47/6/12 46/7/12
f 47/6/12 48/8/12 46/7/12
o cube.016
v 0.465829 0.034941 -0.286366
v 0.441310 0.034941 -0.394229
v 0.465829 -0.075674 -0.286366
v 0.441310 -0.075674 -0.394229
v 0.333447 0.034941 -0.369710
v 0.357966 0.034941 -0.261847
v 0.333447 -0.075674 -0.369710
v 0.357966 -0.075674 -0.261847
v 0.333447 0.034941 -0.369710
v 0.441310 0.034941 -0.394229
v 0.357966 0.034941 -0.261847
v 0.465829 0.034941 -0.286366
v 0.357966 -0.075674 -0.261847
v 0.465829 -0.075674 -0.286366
v 0.333447 -0.075674 -0.369710
v 0.441310 -0.075674 -0.394229
v 0.357966 0.034941 -0.261847
v 0.465829 0.034941 -0.286366
v 0.357966 -0.075674 -0.261847
v 0.465829 -0.075674 -0.286366
v 0.441310 0.034941 -0.394229
v 0.333447 0.034941 -0.369710
v 0.441310 -0.075674 -0.394229
v 0.333447 -0.075674 -0.369710
vn 0.9751 -0.0000 -0.2217
vn -0.9751 -0.0000 0.2217
vn -0.0000 1.0000 -0.0000
vn -0.0000 -1.0000 -0.0000
vn 0.2217 -0.0000 0.9751
vn -0.2217 -0.0000 -0.9751
vt 0.000000 1.000000
vt 0.000000 0.000000
vt 1.000000 1.000000
vt 1.000000 0.000000
s 0
usemtl Material_0.004
f 49/9/13 51/10/13 50/11/13
f 51/10/13 52/12/13 50/11/13
f 53/9/14 55/10/14 54/11/14
f 55/10/14 56/12/14 54/11/14
f 57/9/15 59/10/15 58/11/15
f 59/10/15 60/12/15 58/11/15
f 61/9/16 63/10/16 62/11/16
f 63/10/16 64/12/16 62/11/16
f 65/9/17 67/10/17 66/11/17
f 67/10/17 68/12/17 66/11/17
f 69/9/18 71/10/18 70/11/18
f 71/10/18 72/12/18 70/11/18
o cube.017
v 0.257410 0.138083 -0.242077
v 0.232891 0.138083 -0.349940
v 0.257410 0.027468 -0.242077
v 0.232891 0.027468 -0.349940
v 0.125028 0.138083 -0.325421
v 0.149547 0.138083 -0.217558
v 0.125028 0.027468 -0.325421
v 0.149547 0.027468 -0.217558
v 0.125028 0.138083 -0.325421
v 0.232891 0.138083 -0.349940
v 0.149547 0.138083 -0.217558
v 0.257410 0.138083 -0.242077
v 0.149547 0.027468 -0.217558
v 0.257410 0.027468 -0.242077
v 0.125028 0.027468 -0.325421
v 0.232891 0.027468 -0.349940
v 0.149547 0.138083 -0.217558
v 0.257410 0.138083 -0.242077
v 0.149547 0.027468 -0.217558
v 0.257410 0.027468 -0.242077
v 0.232891 0.138083 -0.349940
v 0.125028 0.138083 -0.325421
v 0.232891 0.027468 -0.349940
v 0.125028 0.027468 -0.325421
vn 0.9751 -0.0000 -0.2217
vn -0.9751 -0.0000 0.2217
vn -0.0000 1.0000 -0.0000
vn -0.0000 -1.0000 -0.0000
vn 0.2217 -0.0000 0.9751
vn -0.2217 -0.0000 -0.9751
vt 0.000000 1.000000
vt 0.000000 0.000000
vt 1.000000 1.000000
vt 1.000000 0.000000
s 0
usemtl Material_0.004
f 73/13/19 75/14/19 74/15/19
f 75/14/19 76/16/19 74/15/19
f 77/13/20 79/14/20 78/15/20
f 79/14/20 80/16/20 78/15/20
f 81/13/21 83/14/21 82/15/21
f 83/14/21 84/16/21 82/15/21
f 85/13/22 87/14/22 86/15/22
f 87/14/22 88/16/22 86/15/22
f 89/13/23 91/14/23 90/15/23
f 91/14/23 92/16/23 90/15/23
f 93/13/24 95/14/24 94/15/24
f 95/14/24 96/16/24 94/15/24
o cube.018
v 0.361576 0.138399 -0.264814
v 0.337056 0.138399 -0.372677
v 0.361576 0.027784 -0.264814
v 0.337056 0.027784 -0.372677
v 0.229193 0.138399 -0.348158
v 0.253713 0.138399 -0.240295
v 0.229193 0.027784 -0.348158
v 0.253713 0.027784 -0.240295
v 0.229193 0.138399 -0.348158
v 0.337056 0.138399 -0.372677
v 0.253713 0.138399 -0.240295
v 0.361576 0.138399 -0.264814
v 0.253713 0.027784 -0.240295
v 0.361576 0.027784 -0.264814
v 0.229193 0.027784 -0.348158
v 0.337056 0.027784 -0.372677
v 0.253713 0.138399 -0.240295
v 0.361576 0.138399 -0.264814
v 0.253713 0.027784 -0.240295
v 0.361576 0.027784 -0.264814
v 0.337056 0.138399 -0.372677
v 0.229193 0.138399 -0.348158
v 0.337056 0.027784 -0.372677
v 0.229193 0.027784 -0.348158
vn 0.9751 -0.0000 -0.2217
vn -0.9751 -0.0000 0.2217
vn -0.0000 1.0000 -0.0000
vn -0.0000 -1.0000 -0.0000
vn 0.2217 -0.0000 0.9751
vn -0.2217 -0.0000 -0.9751
vt 0.000000 1.000000
vt 0.000000 0.000000
vt 1.000000 1.000000
vt 1.000000 0.000000
s 0
usemtl Material_0.004
f 97/17/25 99/18/25 98/19/25
f 99/18/25 100/20/25 98/19/25
f 101/17/26 103/18/26 102/19/26
f 103/18/26 104/20/26 102/19/26
f 105/17/27 107/18/27 106/19/27
f 107/18/27 108/20/27 106/19/27
f 109/17/28 111/18/28 110/19/28
f 111/18/28 112/20/28 110/19/28
f 113/17/29 115/18/29 114/19/29
f 115/18/29 116/20/29 114/19/29
f 117/17/30 119/18/30 118/19/30
f 119/18/30 120/20/30 118/19/30
o cube.019
v 0.465829 0.138218 -0.286366
v 0.441310 0.138218 -0.394229
v 0.465829 0.027604 -0.286366
v 0.441310 0.027604 -0.394229
v 0.333447 0.138218 -0.369710
v 0.357966 0.138218 -0.261847
v 0.333447 0.027604 -0.369710
v 0.357966 0.027604 -0.261847
v 0.333447 0.138218 -0.369710
v 0.441310 0.138218 -0.394229
v 0.357966 0.138218 -0.261847
v 0.465829 0.138218 -0.286366
v 0.357966 0.027604 -0.261847
v 0.465829 0.027604 -0.286366
v 0.333447 0.027604 -0.369710
v 0.441310 0.027604 -0.394229
v 0.357966 0.138218 -0.261847
v 0.465829 0.138218 -0.286366
v 0.357966 0.027604 -0.261847
v 0.465829 0.027604 -0.286366
v 0.441310 0.138218 -0.394229
v 0.333447 0.138218 -0.369710
v 0.441310 0.027604 -0.394229
v 0.333447 0.027604 -0.369710
vn 0.9751 -0.0000 -0.2217
vn -0.9751 -0.0000 0.2217
vn -0.0000 1.0000 -0.0000
vn -0.0000 -1.0000 -0.0000
vn 0.2217 -0.0000 0.9751
vn -0.2217 -0.0000 -0.9751
vt 0.000000 1.000000
vt 0.000000 0.000000
vt 1.000000 1.000000
vt 1.000000 0.000000
s 0
usemtl Material_0.004
f 121/21/31 123/22/31 122/23/31
f 123/22/31 124/24/31 122/23/31
f 125/21/32 127/22/32 126/23/32
f 127/22/32 128/24/32 126/23/32
f 129/21/33 131/22/33 130/23/33
f 131/22/33 132/24/33 130/23/33
f 133/21/34 135/22/34 134/23/34
f 135/22/34 136/24/34 134/23/34
f 137/21/35 139/22/35 138/23/35
f 139/22/35 140/24/35 138/23/35
f 141/21/36 143/22/36 142/23/36
f 143/22/36 144/24/36 142/23/36
o cube.020
v 0.257410 0.242279 -0.242077
v 0.232891 0.242279 -0.349940
v 0.257410 0.131665 -0.242077
v 0.232891 0.131665 -0.349940
v 0.125028 0.242279 -0.325421
v 0.149547 0.242279 -0.217558
v 0.125028 0.131665 -0.325421
v 0.149547 0.131665 -0.217558
v 0.125028 0.242279 -0.325421
v 0.232891 0.242279 -0.349940
v 0.149547 0.242279 -0.217558
v 0.257410 0.242279 -0.242077
v 0.149547 0.131665 -0.217558
v 0.257410 0.131665 -0.242077
v 0.125028 0.131665 -0.325421
v 0.232891 0.131665 -0.349940
v 0.149547 0.242279 -0.217558
v 0.257410 0.242279 -0.242077
v 0.149547 0.131665 -0.217558
v 0.257410 0.131665 -0.242077
v 0.232891 0.242279 -0.349940
v 0.125028 0.242279 -0.325421
v 0.232891 0.131665 -0.349940
v 0.125028 0.131665 -0.325421
vn 0.9751 -0.0000 -0.2217
vn -0.9751 -0.0000 0.2217
vn -0.0000 1.0000 -0.0000
vn -0.0000 -1.0000 -0.0000
vn 0.2217 -0.0000 0.9751
vn -0.2217 -0.0000 -0.9751
vt 0.000000 1.000000
vt 0.000000 0.000000
vt 1.000000 1.000000
vt 1.000000 0.000000
s 0
usemtl Material_0.004
f 145/25/37 147/26/37 146/27/37
f 147/26/37 148/28/37 146/27/37
f 149/25/38 151/26/38 150/27/38
f 151/26/38 152/28/38 150/27/38
f 153/25/39 155/26/39 154/27/39
f 155/26/39 156/28/39 154/27/39
f 157/25/40 159/26/40 158/27/40
f 159/26/40 160/28/40 158/27/40
f 161/25/41 163/26/41 162/27/41
f 163/26/41 164/28/41 162/27/41
f 165/25/42 167/26/42 166/27/42
f 167/26/42 168/28/42 166/27/42
o cube.021
v 0.361576 0.242595 -0.264814
v 0.337056 0.242595 -0.372677
v 0.361576 0.131981 -0.264814
v 0.337056 0.131981 -0.372677
v 0.229193 0.242595 -0.348158
v 0.253713 0.242595 -0.240295
v 0.229193 0.131981 -0.348158
v 0.253713 0.131981 -0.240295
v 0.229193 0.242595 -0.348158
v 0.337056 0.242595 -0.372677
v 0.253713 0.242595 -0.240295
v 0.361576 0.242595 -0.264814
v 0.253713 0.131981 -0.240295
v 0.361576 0.131981 -0.264814
v 0.229193 0.131981 -0.348158
v 0.337056 0.131981 -0.372677
v 0.253713 0.242595 -0.240295
v 0.361576 0.242595 -0.264814
v 0.253713 0.131981 -0.240295
v 0.361576 0.131981 -0.264814
v 0.337056 0.242595 -0.372677
v 0.229193 0.242595 -0.348158
v 0.337056 0.131981 -0.372677
v 0.229193 0.131981 -0.348158
vn 0.9751 -0.0000 -0.2217
vn -0.9751 -0.0000 0.2217
vn -0.0000 1.0000 -0.0000
vn -0.0000 -1.0000 -0.0000
vn 0.2217 -0.0000 0.9751
vn -0.2217 -0.0000 -0.9751
vt 0.000000 1.000000
vt 0.000000 0.000000
vt 1.000000 1.000000
vt 1.000000 0.000000
s 0
usemtl Material_0.004
f 169/29/43 171/30/43 170/31/43
f 171/30/43 172/32/43 170/31/43
f 173/29/44 175/30/44 174/31/44
f 175/30/44 176/32/44 174/31/44
f 177/29/45 179/30/45 178/31/45
f 179/30/45 180/32/45 178/31/45
f 181/29/46 183/30/46 182/31/46
f 183/30/46 184/32/46 182/31/46
f 185/29/47 187/30/47 186/31/47
f 187/30/47 188/32/47 186/31/47
f 189/29/48 191/30/48 190/31/48
f 191/30/48 192/32/48 190/31/48
o cube.022
v 0.465829 0.242415 -0.286366
v 0.441310 0.242415 -0.394229
v 0.465829 0.131800 -0.286366
v 0.441310 0.131800 -0.394229
v 0.333447 0.242415 -0.369710
v 0.357966 0.242415 -0.261847
v 0.333447 0.131800 -0.369710
v 0.357966 0.131800 -0.261847
v 0.333447 0.242415 -0.369710
v 0.441310 0.242415 -0.394229
v 0.357966 0.242415 -0.261847
v 0.465829 0.242415 -0.286366
v 0.357966 0.131800 -0.261847
v 0.465829 0.131800 -0.286366
v 0.333447 0.131800 -0.369710
v 0.441310 0.131800 -0.394229
v 0.357966 0.242415 -0.261847
v 0.465829 0.242415 -0.286366
v 0.357966 0.131800 -0.261847
v 0.465829 0.131800 -0.286366
v 0.441310 0.242415 -0.394229
v 0.333447 0.242415 -0.369710
v 0.441310 0.131800 -0.394229
v 0.333447 0.131800 -0.369710
vn 0.9751 -0.0000 -0.2217
vn -0.9751 -0.0000 0.2217
vn -0.0000 1.0000 -0.0000
vn -0.0000 -1.0000 -0.0000
vn 0.2217 -0.0000 0.9751
vn -0.2217 -0.0000 -0.9751
vt 0.000000 1.000000
vt 0.000000 0.000000
vt 1.000000 1.000000
vt 1.000000 0.000000
s 0
usemtl Material_0.004
f 193/33/49 195/34/49 194/35/49
f 195/34/49 196/36/49 194/35/49
f 197/33/50 199/34/50 198/35/50
f 199/34/50 200/36/50 198/35/50
f 201/33/51 203/34/51 202/35/51
f 203/34/51 204/36/51 202/35/51
f 205/33/52 207/34/52 206/35/52
f 207/34/52 208/36/52 206/35/52
f 209/33/53 211/34/53 210/35/53
f 211/34/53 212/36/53 210/35/53
f 213/33/54 215/34/54 214/35/54
f 215/34/54 216/36/54 214/35/54
o cube.023
v 0.257410 0.348645 -0.242077
v 0.232891 0.348645 -0.349940
v 0.257410 0.238030 -0.242077
v 0.232891 0.238030 -0.349940
v 0.125028 0.348645 -0.325421
v 0.149547 0.348645 -0.217558
v 0.125028 0.238030 -0.325421
v 0.149547 0.238030 -0.217558
v 0.125028 0.348645 -0.325421
v 0.232891 0.348645 -0.349940
v 0.149547 0.348645 -0.217558
v 0.257410 0.348645 -0.242077
v 0.149547 0.238030 -0.217558
v 0.257410 0.238030 -0.242077
v 0.125028 0.238030 -0.325421
v 0.232891 0.238030 -0.349940
v 0.149547 0.348645 -0.217558
v 0.257410 0.348645 -0.242077
v 0.149547 0.238030 -0.217558
v 0.257410 0.238030 -0.242077
v 0.232891 0.348645 -0.349940
v 0.125028 0.348645 -0.325421
v 0.232891 0.238030 -0.349940
v 0.125028 0.238030 -0.325421
vn 0.9751 -0.0000 -0.2217
vn -0.9751 -0.0000 0.2217
vn -0.0000 1.0000 -0.0000
vn -0.0000 -1.0000 -0.0000
vn 0.2217 -0.0000 0.9751
vn -0.2217 -0.0000 -0.9751
vt 0.000000 1.000000
vt 0.000000 0.000000
vt 1.000000 1.000000
vt 1.000000 0.000000
s 0
usemtl Material_0.004
f 217/37/55 219/38/55 218/39/55
f 219/38/55 220/40/55 218/39/55
f 221/37/56 223/38/56 222/39/56
f 223/38/56 224/40/56 222/39/56
f 225/37/57 227/38/57 226/39/57
f 227/38/57 228/40/57 226/39/57
f 229/37/58 231/38/58 230/39/58
f 231/38/58 232/40/58 230/39/58
f 233/37/59 235/38/59 234/39/59
f 235/38/59 236/40/59 234/39/59
f 237/37/60 239/38/60 238/39/60
f 239/38/60 240/40/60 238/39/60
o cube.024
v 0.361576 0.348961 -0.264814
v 0.337056 0.348961 -0.372677
v 0.361576 0.238346 -0.264814
v 0.337056 0.238346 -0.372677
v 0.229193 0.348961 -0.348158
v 0.253713 0.348961 -0.240295
v 0.229193 0.238346 -0.348158
v 0.253713 0.238346 -0.240295
v 0.229193 0.348961 -0.348158
v 0.337056 0.348961 -0.372677
v 0.253713 0.348961 -0.240295
v 0.361576 0.348961 -0.264814
v 0.253713 0.238346 -0.240295
v 0.361576 0.238346 -0.264814
v 0.229193 0.238346 -0.348158
v 0.337056 0.238346 -0.372677
v 0.253713 0.348961 -0.240295
v 0.361576 0.348961 -0.264814
v 0.253713 0.238346 -0.240295
v 0.361576 0.238346 -0.264814
v 0.337056 0.348961 -0.372677
v 0.229193 0.348961 -0.348158
v 0.337056 0.238346 -0.372677
v 0.229193 0.238346 -0.348158
vn 0.9751 -0.0000 -0.2217
vn -0.9751 -0.0000 0.2217
vn -0.0000 1.0000 -0.0000
vn -0.0000 -1.0000 -0.0000
vn 0.2217 -0.0000 0.9751
vn -0.2217 -0.0000 -0.9751
vt 0.000000 1.000000
vt 0.000000 0.000000
vt 1.000000 1.000000
vt 1.000000 0.000000
s 0
usemtl Material_0.004
f 241/41/61 243/42/61 242/43/61
f 243/42/61 244/44/61 242/43/61
f 245/41/62 247/42/62 246/43/62
f 247/42/62 248/44/62 246/43/62
f 249/41/63 251/42/63 250/43/63
f 251/42/63 252/44/63 250/43/63
f 253/41/64 255/42/64 254/43/64
f 255/42/64 256/44/64 254/43/64
f 257/41/65 259/42/65 258/43/65
f 259/42/65 260/44/65 258/43/65
f 261/41/66 263/42/66 262/43/66
f 263/42/66 264/44/66 262/43/66
o cube.025
v 0.465829 0.348781 -0.286366
v 0.441310 0.348781 -0.394229
v 0.465829 0.238166 -0.286366
v 0.441310 0.238166 -0.394229
v 0.333447 0.348781 -0.369710
v 0.357966 0.348781 -0.261847
v 0.333447 0.238166 -0.369710
v 0.357966 0.238166 -0.261847
v 0.333447 0.348781 -0.369710
v 0.441310 0.348781 -0.394229
v 0.357966 0.348781 -0.261847
v 0.465829 0.348781 -0.286366
v 0.357966 0.238166 -0.261847
v 0.465829 0.238166 -0.286366
v 0.333447 0.238166 -0.369710
v 0.441310 0.238166 -0.394229
v 0.357966 0.348781 -0.261847
v 0.465829 0.348781 -0.286366
v 0.357966 0.238166 -0.261847
v 0.465829 0.238166 -0.286366
v 0.441310 0.348781 -0.394229
v 0.333447 0.348781 -0.369710
v 0.441310 0.238166 -0.394229
v 0.333447 0.238166 -0.369710
vn 0.9751 -0.0000 -0.2217
vn -0.9751 -0.0000 0.2217
vn -0.0000 1.0000 -0.0000
vn -0.0000 -1.0000 -0.0000
vn 0.2217 -0.0000 0.9751
vn -0.2217 -0.0000 -0.9751
vt 0.000000 1.000000
vt 0.000000 0.000000
vt 1.000000 1.000000
vt 1.000000 0.000000
s 0
usemtl Material_0.004
f 265/45/67 267/46/67 266/47/67
f 267/46/67 268/48/67 266/47/67
f 269/45/68 271/46/68 270/47/68
f 271/46/68 272/48/68 270/47/68
f 273/45/69 275/46/69 274/47/69
f 275/46/69 276/48/69 274/47/69
f 277/45/70 279/46/70 278/47/70
f 279/46/70 280/48/70 278/47/70
f 281/45/71 283/46/71 282/47/71
f 283/46/71 284/48/71 282/47/71
f 285/45/72 287/46/72 286/47/72
f 287/46/72 288/48/72 286/47/72
