# Blender 5.1.2
# www.blender.org
mtllib glass.mtl
o cube.011
v -0.334158 0.212162 -0.705625
v -0.305428 0.205552 -0.574829
v -0.335469 0.078248 -0.712104
v -0.306739 0.071638 -0.581309
v -0.174472 0.205661 -0.603589
v -0.203202 0.212271 -0.734384
v -0.175783 0.071747 -0.610069
v -0.204513 0.078357 -0.740864
v -0.174472 0.205661 -0.603589
v -0.305428 0.205552 -0.574829
v -0.203202 0.212271 -0.734384
v -0.334158 0.212162 -0.705625
v -0.204513 0.078357 -0.740864
v -0.335469 0.078248 -0.712104
v -0.175783 0.071747 -0.610069
v -0.306739 0.071638 -0.581309
v -0.203202 0.212271 -0.734384
v -0.334158 0.212162 -0.705625
v -0.204513 0.078357 -0.740864
v -0.335469 0.078248 -0.712104
v -0.305428 0.205552 -0.574829
v -0.174472 0.205661 -0.603589
v -0.306739 0.071638 -0.581309
v -0.175783 0.071747 -0.610069
v -0.466490 0.212170 -0.679004
v -0.437760 0.205560 -0.548208
v -0.467801 0.078256 -0.685483
v -0.439071 0.071646 -0.554688
v -0.306804 0.205669 -0.576968
v -0.335534 0.212279 -0.707763
v -0.308116 0.071755 -0.583448
v -0.336846 0.078365 -0.714243
v -0.306804 0.205669 -0.576968
v -0.437760 0.205560 -0.548208
v -0.335534 0.212279 -0.707763
v -0.466490 0.212170 -0.679004
v -0.336846 0.078365 -0.714243
v -0.467801 0.078256 -0.685483
v -0.308116 0.071755 -0.583448
v -0.439071 0.071646 -0.554688
v -0.335534 0.212279 -0.707763
v -0.466490 0.212170 -0.679004
v -0.336846 0.078365 -0.714243
v -0.467801 0.078256 -0.685483
v -0.437760 0.205560 -0.548208
v -0.306804 0.205669 -0.576968
v -0.439071 0.071646 -0.554688
v -0.308116 0.071755 -0.583448
vn -0.9767 -0.0008 0.2145
vn 0.9767 0.0008 -0.2145
vn 0.0098 0.9988 0.0483
vn -0.0098 -0.9988 -0.0483
vn -0.2143 0.0493 -0.9755
vn 0.2143 -0.0493 0.9755
vt 0.000000 1.000000
vt 0.000000 0.000000
vt 1.000000 1.000000
vt 1.000000 0.000000
s 0
usemtl Material_0.003
f 1/1/1 3/2/1 2/3/1
f 3/2/1 4/4/1 2/3/1
f 5/1/2 7/2/2 6/3/2
f 7/2/2 8/4/2 6/3/2
f 9/1/3 11/2/3 10/3/3
f 11/2/3 12/4/3 10/3/3
f 13/1/4 15/2/4 14/3/4
f 15/2/4 16/4/4 14/3/4
f 17/1/5 19/2/5 18/3/5
f 19/2/5 20/4/5 18/3/5
f 21/1/6 23/2/6 22/3/6
f 23/2/6 24/4/6 22/3/6
f 25/1/1 27/2/1 26/3/1
f 27/2/1 28/4/1 26/3/1
f 29/1/2 31/2/2 30/3/2
f 31/2/2 32/4/2 30/3/2
f 33/1/3 35/2/3 34/3/3
f 35/2/3 36/4/3 34/3/3
f 37/1/4 39/2/4 38/3/4
f 39/2/4 40/4/4 38/3/4
f 41/1/5 43/2/5 42/3/5
f 43/2/5 44/4/5 42/3/5
f 45/1/6 47/2/6 46/3/6
f 47/2/6 48/4/6 46/3/6
o cube.012
v -0.335422 0.083055 -0.711872
v -0.306692 0.076445 -0.581076
v -0.336734 -0.050858 -0.718352
v -0.308004 -0.057468 -0.587556
v -0.175736 0.076554 -0.609836
v -0.204466 0.083164 -0.740632
v -0.177048 -0.057359 -0.616316
v -0.205778 -0.050749 -0.747111
v -0.175736 0.076554 -0.609836
v -0.306692 0.076445 -0.581076
v -0.204466 0.083164 -0.740632
v -0.335422 0.083055 -0.711872
v -0.205778 -0.050749 -0.747111
v -0.336734 -0.050858 -0.718352
v -0.177048 -0.057359 -0.616316
v -0.308004 -0.057468 -0.587556
v -0.204466 0.083164 -0.740632
v -0.335422 0.083055 -0.711872
v -0.205778 -0.050749 -0.747111
v -0.336734 -0.050858 -0.718352
v -0.306692 0.076445 -0.581076
v -0.175736 0.076554 -0.609836
v -0.308004 -0.057468 -0.587556
v -0.177048 -0.057359 -0.616316
v -0.467754 0.083063 -0.685251
v -0.439024 0.076453 -0.554455
v -0.469066 -0.050850 -0.691731
v -0.440336 -0.057461 -0.560935
v -0.308068 0.076562 -0.583215
v -0.336798 0.083172 -0.714011
v -0.309380 -0.057351 -0.589695
v -0.338110 -0.050741 -0.720490
v -0.308068 0.076562 -0.583215
v -0.439024 0.076453 -0.554455
v -0.336798 0.083172 -0.714011
v -0.467754 0.083063 -0.685251
v -0.338110 -0.050741 -0.720490
v -0.469066 -0.050850 -0.691731
v -0.309380 -0.057351 -0.589695
v -0.440336 -0.057461 -0.560935
v -0.336798 0.083172 -0.714011
v -0.467754 0.083063 -0.685251
v -0.338110 -0.050741 -0.720490
v -0.469066 -0.050850 -0.691731
v -0.439024 0.076453 -0.554455
v -0.308068 0.076562 -0.583215
v -0.440336 -0.057461 -0.560935
v -0.309380 -0.057351 -0.589695
vn -0.9767 -0.0008 0.2145
vn 0.9767 0.0008 -0.2145
vn 0.0098 0.9988 0.0483
vn -0.0098 -0.9988 -0.0483
vn -0.2143 0.0493 -0.9755
vn 0.2143 -0.0493 0.9755
vt 0.000000 1.000000
vt 0.000000 0.000000
vt 1.000000 1.000000
vt 1.000000 0.000000
s 0
usemtl Material_0.003
f 49/5/7 51/6/7 50/7/7
f 51/6/7 52/8/7 50/7/7
f 53/5/8 55/6/8 54/7/8
f 55/6/8 56/8/8 54/7/8
f 57/5/9 59/6/9 58/7/9
f 59/6/9 60/8/9 58/7/9
f 61/5/10 63/6/10 62/7/10
f 63/6/10 64/8/10 62/7/10
f 65/5/11 67/6/11 66/7/11
f 67/6/11 68/8/11 66/7/11
f 69/5/12 71/6/12 70/7/12
f 71/6/12 72/8/12 70/7/12
f 73/5/7 75/6/7 74/7/7
f 75/6/7 76/8/7 74/7/7
f 77/5/8 79/6/8 78/7/8
f 79/6/8 80/8/8 78/7/8
f 81/5/9 83/6/9 82/7/9
f 83/6/9 84/8/9 82/7/9
f 85/5/10 87/6/10 86/7/10
f 87/6/10 88/8/10 86/7/10
f 89/5/11 91/6/11 90/7/11
f 91/6/11 92/8/11 90/7/11
f 93/5/12 95/6/12 94/7/12
f 95/6/12 96/8/12 94/7/12
o cube.013
v -0.332860 0.344701 -0.699212
v -0.304130 0.338091 -0.568416
v -0.334171 0.210788 -0.705691
v -0.305441 0.204178 -0.574896
v -0.173174 0.338200 -0.597176
v -0.201904 0.344810 -0.727971
v -0.174485 0.204287 -0.603655
v -0.203215 0.210897 -0.734451
v -0.173174 0.338200 -0.597176
v -0.304130 0.338091 -0.568416
v -0.201904 0.344810 -0.727971
v -0.332860 0.344701 -0.699212
v -0.203215 0.210897 -0.734451
v -0.334171 0.210788 -0.705691
v -0.174485 0.204287 -0.603655
v -0.305441 0.204178 -0.574896
v -0.201904 0.344810 -0.727971
v -0.332860 0.344701 -0.699212
v -0.203215 0.210897 -0.734451
v -0.334171 0.210788 -0.705691
v -0.304130 0.338091 -0.568416
v -0.173174 0.338200 -0.597176
v -0.305441 0.204178 -0.574896
v -0.174485 0.204287 -0.603655
v -0.465192 0.344709 -0.672591
v -0.436462 0.338099 -0.541795
v -0.466503 0.210796 -0.679070
v -0.437773 0.204185 -0.548275
v -0.305506 0.338208 -0.570555
v -0.334236 0.344818 -0.701350
v -0.306818 0.204295 -0.577034
v -0.335547 0.210905 -0.707830
v -0.305506 0.338208 -0.570555
v -0.436462 0.338099 -0.541795
v -0.334236 0.344818 -0.701350
v -0.465192 0.344709 -0.672591
v -0.335547 0.210905 -0.707830
v -0.466503 0.210796 -0.679070
v -0.306818 0.204295 -0.577034
v -0.437773 0.204185 -0.548275
v -0.334236 0.344818 -0.701350
v -0.465192 0.344709 -0.672591
v -0.335547 0.210905 -0.707830
v -0.466503 0.210796 -0.679070
v -0.436462 0.338099 -0.541795
v -0.305506 0.338208 -0.570555
v -0.437773 0.204185 -0.548275
v -0.306818 0.204295 -0.577034
vn -0.9767 -0.0008 0.2145
vn 0.9767 0.0008 -0.2145
vn 0.0098 0.9988 0.0483
vn -0.0098 -0.9988 -0.0483
vn -0.2143 0.0493 -0.9755
vn 0.2143 -0.0493 0.9755
vt 0.000000 1.000000
vt 0.000000 0.000000
vt 1.000000 1.000000
vt 1.000000 0.000000
s 0
usemtl Material_0.003
f 97/9/13 99/10/13 98/11/13
f 99/10/13 100/12/13 98/11/13
f 101/9/14 103/10/14 102/11/14
f 103/10/14 104/12/14 102/11/14
f 105/9/15 107/10/15 106/11/15
f 107/10/15 108/12/15 106/11/15
f 109/9/16 111/10/16 110/11/16
f 111/10/16 112/12/16 110/11/16
f 113/9/17 115/10/17 114/11/17
f 115/10/17 116/12/17 114/11/17
f 117/9/18 119/10/18 118/11/18
f 119/10/18 120/12/18 118/11/18
f 121/9/13 123/10/13 122/11/13
f 123/10/13 124/12/13 122/11/13
f 125/9/14 127/10/14 126/11/14
f 127/10/14 128/12/14 126/11/14
f 129/9/15 131/10/15 130/11/15
f 131/10/15 132/12/15 130/11/15
f 133/9/16 135/10/16 134/11/16
f 135/10/16 136/12/16 134/11/16
f 137/9/17 139/10/17 138/11/17
f 139/10/17 140/12/17 138/11/17
f 141/9/18 143/10/18 142/11/18
f 143/10/18 144/12/18 142/11/18
