# Blender 5.1.2
# www.blender.org
mtllib glass_block.mtl
o cube.014
v 0.109693 0.162484 -0.551185
v 0.085174 0.162484 -0.659048
v 0.109693 0.051869 -0.551185
v 0.085174 0.051869 -0.659048
v -0.022689 0.162484 -0.634528
v 0.001830 0.162484 -0.526665
v -0.022689 0.051869 -0.634528
v 0.001830 0.051869 -0.526665
v -0.022689 0.162484 -0.634528
v 0.085174 0.162484 -0.659048
v 0.001830 0.162484 -0.526665
v 0.109693 0.162484 -0.551185
v 0.001830 0.051869 -0.526665
v 0.109693 0.051869 -0.551185
v -0.022689 0.051869 -0.634528
v 0.085174 0.051869 -0.659048
v 0.001830 0.162484 -0.526665
v 0.109693 0.162484 -0.551185
v 0.001830 0.051869 -0.526665
v 0.109693 0.051869 -0.551185
v 0.085174 0.162484 -0.659048
v -0.022689 0.162484 -0.634528
v 0.085174 0.051869 -0.659048
v -0.022689 0.051869 -0.634528
vn 0.9751 -0.0000 -0.2217
vn -0.9751 -0.0000 0.2217
vn -0.0000 1.0000 -0.0000
vn -0.0000 -1.0000 -0.0000
vn 0.2217 -0.0000 0.9751
vn -0.2217 -0.0000 -0.9751
vt 0.000000 1.000000
vt 0.000000 0.000000
vt 1.000000 1.000000
vt 1.000000 0.000000
s 0
usemtl Material_0.004
f 1/1/1 3/2/1 2/3/1
f 3/2/1 4/4/1 2/3/1
f 5/1/2 7/2/2 6/3/2
f 7/2/2 8/4/2 6/3/2
f 9/1/3 11/2/3 10/3/3
f 11/2/3 12/4/3 10/3/3
f 13/1/4 15/2/4 14/3/4
f 15/2/4 16/4/4 14/3/4
f 17/1/5 19/2/5 18/3/5
f 19/2/5 20/4/5 18/3/5
f 21/1/6 23/2/6 22/3/6
f 23/2/6 24/4/6 22/3/6
