# Blender 5.1.2
# www.blender.org
mtllib gold.mtl
o Untitled
v 0.479275 0.036263 0.235281
v 0.483845 0.036880 0.230887
v 0.478417 0.067902 0.238831
v 0.482987 0.068519 0.234437
v 0.483881 0.029544 0.239128
v 0.488451 0.030161 0.234733
v 0.479139 0.035255 0.244232
v 0.483709 0.035872 0.239838
v 0.488279 0.036489 0.235443
v 0.492849 0.037106 0.231049
v 0.478968 0.041583 0.244942
v 0.483538 0.042200 0.240548
v 0.488108 0.042817 0.236153
v 0.492678 0.043434 0.231759
v 0.478453 0.060566 0.247072
v 0.483023 0.061183 0.242678
v 0.487593 0.061800 0.238284
v 0.492163 0.062417 0.233889
v 0.478281 0.066894 0.247782
v 0.482851 0.067511 0.243388
v 0.487421 0.068128 0.238994
v 0.491991 0.068745 0.234599
v 0.482679 0.073839 0.244098
v 0.487249 0.074456 0.239704
v 0.488487 0.022825 0.242974
v 0.493057 0.023442 0.238580
v 0.483745 0.028536 0.248078
v 0.488315 0.029153 0.243684
v 0.492885 0.029770 0.239290
v 0.497455 0.030387 0.234896
v 0.483573 0.034864 0.248788
v 0.488143 0.035481 0.244394
v 0.492713 0.036098 0.240000
v 0.497283 0.036715 0.235606
v 0.493092 0.016106 0.246821
v 0.497662 0.016723 0.242426
v 0.488351 0.021817 0.251925
v 0.492921 0.022434 0.247531
v 0.497491 0.023051 0.243136
v 0.502061 0.023668 0.238742
v 0.488179 0.028145 0.252635
v 0.492749 0.028762 0.248241
v 0.497319 0.029379 0.243846
v 0.501889 0.029996 0.239452
v 0.491583 0.065721 0.261452
v 0.496153 0.066338 0.257058
v 0.500723 0.066955 0.252663
v 0.505293 0.067572 0.248269
v 0.491411 0.072049 0.262162
v 0.495981 0.072666 0.257768
v 0.500551 0.073283 0.253373
v 0.505122 0.073900 0.248979
v 0.495810 0.078994 0.258478
v 0.500380 0.079611 0.254083
v 0.504713 0.070876 0.275831
v 0.509283 0.071493 0.271437
v 0.513853 0.072110 0.267043
v 0.518424 0.072727 0.262649
v 0.504542 0.077204 0.276542
v 0.509112 0.077821 0.272147
v 0.513682 0.078438 0.267753
v 0.518252 0.079055 0.263359
v 0.508940 0.084149 0.272857
v 0.513510 0.084766 0.268463
v 0.517844 0.076031 0.290211
v 0.522414 0.076648 0.285817
v 0.526984 0.077265 0.281423
v 0.531554 0.077882 0.277029
v 0.517672 0.082358 0.290921
v 0.522242 0.082976 0.286527
v 0.526812 0.083593 0.282133
v 0.531382 0.084210 0.277739
v 0.522070 0.089303 0.287237
v 0.526641 0.089920 0.282843
v 0.510828 0.014542 0.265047
v 0.515398 0.015159 0.260653
v 0.506087 0.020253 0.270151
v 0.510657 0.020870 0.265757
v 0.515227 0.021487 0.261363
v 0.519797 0.022104 0.256968
v 0.505915 0.026581 0.270861
v 0.510485 0.027198 0.266467
v 0.515055 0.027815 0.262073
v 0.519625 0.028432 0.257678
v 0.523959 0.019697 0.279426
v 0.528529 0.020314 0.275032
v 0.519217 0.025408 0.284531
v 0.523787 0.026025 0.280137
v 0.528357 0.026642 0.275742
v 0.532927 0.027259 0.271348
v 0.519045 0.031736 0.285241
v 0.523615 0.032353 0.280847
v 0.528185 0.032970 0.276452
v 0.532755 0.033587 0.272058
v 0.526712 0.075249 0.299324
v 0.531282 0.075866 0.294930
v 0.535852 0.076483 0.290536
v 0.540422 0.077100 0.286142
v 0.526540 0.081576 0.300034
v 0.531110 0.082194 0.295640
v 0.535680 0.082811 0.291246
v 0.540250 0.083428 0.286852
v 0.530938 0.088521 0.296350
v 0.535509 0.089138 0.291956
v 0.537089 0.024852 0.293806
v 0.541659 0.025469 0.289412
v 0.532347 0.030563 0.298910
v 0.536917 0.031180 0.294516
v 0.541487 0.031797 0.290122
v 0.546057 0.032414 0.285728
v 0.532176 0.036890 0.299621
v 0.536746 0.037507 0.295226
v 0.541316 0.038125 0.290832
v 0.545886 0.038742 0.286438
v 0.531317 0.068530 0.303171
v 0.535887 0.069147 0.298777
v 0.540457 0.069764 0.294382
v 0.545028 0.070381 0.289988
v 0.531146 0.074858 0.303881
v 0.535716 0.075475 0.299487
v 0.540286 0.076092 0.295092
v 0.544856 0.076709 0.290698
v 0.535544 0.081802 0.300197
v 0.540114 0.082420 0.295802
v 0.535923 0.061811 0.307017
v 0.540493 0.062428 0.302623
v 0.545063 0.063045 0.298229
v 0.549633 0.063662 0.293835
v 0.535751 0.068139 0.307727
v 0.540321 0.068756 0.303333
v 0.544891 0.069373 0.298939
v 0.549462 0.069990 0.294545
v 0.540150 0.075084 0.304043
v 0.544720 0.075701 0.299649
v 0.545785 0.030398 0.303629
v 0.550355 0.031015 0.299235
v 0.541044 0.036108 0.308734
v 0.545614 0.036725 0.304339
v 0.550184 0.037342 0.299945
v 0.554754 0.037960 0.295551
v 0.540529 0.055092 0.310864
v 0.545099 0.055709 0.306470
v 0.549669 0.056326 0.302075
v 0.554239 0.056943 0.297681
v 0.540357 0.061420 0.311574
v 0.544927 0.062037 0.307180
v 0.549497 0.062654 0.302785
v 0.554067 0.063271 0.298391
v 0.544755 0.068365 0.307890
v 0.549325 0.068982 0.303495
v 0.550048 0.036334 0.308896
v 0.554618 0.036951 0.304502
v 0.549361 0.061646 0.311736
v 0.553931 0.062263 0.307342
v 0.479139 0.035255 0.244232
v 0.478968 0.041583 0.244942
v 0.478453 0.060566 0.247072
v 0.478281 0.066894 0.247782
v 0.483745 0.028536 0.248078
v 0.483573 0.034864 0.248788
v 0.483402 0.041192 0.249498
v 0.483058 0.053847 0.250919
v 0.482887 0.060175 0.251629
v 0.482715 0.066503 0.252339
v 0.488351 0.021817 0.251925
v 0.488179 0.028145 0.252635
v 0.488007 0.034473 0.253345
v 0.487664 0.047128 0.254765
v 0.487492 0.053456 0.255475
v 0.487321 0.059784 0.256185
v 0.492785 0.021426 0.256481
v 0.492613 0.027754 0.257191
v 0.492270 0.040410 0.258612
v 0.492098 0.046737 0.259322
v 0.491926 0.053065 0.260032
v 0.491583 0.065721 0.261452
v 0.491411 0.072049 0.262162
v 0.497219 0.021035 0.261038
v 0.497047 0.027363 0.261748
v 0.496704 0.040019 0.263168
v 0.496017 0.065330 0.266008
v 0.495845 0.071658 0.266718
v 0.501481 0.026972 0.266305
v 0.501138 0.039628 0.267725
v 0.500966 0.045955 0.268435
v 0.500794 0.052283 0.269145
v 0.506087 0.020253 0.270151
v 0.505915 0.026581 0.270861
v 0.505572 0.039237 0.272281
v 0.505400 0.045564 0.272991
v 0.504713 0.070876 0.275831
v 0.504542 0.077204 0.276542
v 0.510349 0.026190 0.275418
v 0.510177 0.032518 0.276128
v 0.510006 0.038846 0.276838
v 0.509834 0.045173 0.277548
v 0.514268 0.044782 0.282104
v 0.514096 0.051110 0.282814
v 0.513925 0.057438 0.283524
v 0.519217 0.025408 0.284531
v 0.519045 0.031736 0.285241
v 0.518874 0.038063 0.285951
v 0.518702 0.044391 0.286661
v 0.518530 0.050719 0.287371
v 0.517844 0.076031 0.290211
v 0.517672 0.082358 0.290921
v 0.523479 0.031345 0.289797
v 0.523308 0.037672 0.290507
v 0.523136 0.044000 0.291217
v 0.522964 0.050328 0.291928
v 0.527742 0.037281 0.295064
v 0.527570 0.043609 0.295774
v 0.527398 0.049937 0.296484
v 0.527227 0.056265 0.297194
v 0.527055 0.062593 0.297904
v 0.526712 0.075249 0.299324
v 0.526540 0.081576 0.300034
v 0.532347 0.030563 0.298910
v 0.532176 0.036890 0.299621
v 0.532004 0.043218 0.300331
v 0.531832 0.049546 0.301041
v 0.531661 0.055874 0.301751
v 0.531317 0.068530 0.303171
v 0.531146 0.074858 0.303881
v 0.536438 0.042827 0.304887
v 0.536095 0.055483 0.306307
v 0.535923 0.061811 0.307017
v 0.535751 0.068139 0.307727
v 0.541044 0.036108 0.308734
v 0.540529 0.055092 0.310864
v 0.540357 0.061420 0.311574
v 0.479275 0.036263 0.235281
v 0.478417 0.067902 0.238831
v 0.483881 0.029544 0.239128
v 0.483709 0.035872 0.239838
v 0.483538 0.042200 0.240548
v 0.483023 0.061183 0.242678
v 0.482851 0.067511 0.243388
v 0.482679 0.073839 0.244098
v 0.488487 0.022825 0.242974
v 0.488315 0.029153 0.243684
v 0.488143 0.035481 0.244394
v 0.487285 0.067120 0.247944
v 0.493092 0.016106 0.246821
v 0.492921 0.022434 0.247531
v 0.492749 0.028762 0.248241
v 0.497355 0.022043 0.252087
v 0.496153 0.066338 0.257058
v 0.495981 0.072666 0.257768
v 0.495810 0.078994 0.258478
v 0.501960 0.015324 0.255934
v 0.501789 0.021652 0.256644
v 0.500415 0.072275 0.262324
v 0.510828 0.014542 0.265047
v 0.510657 0.020870 0.265757
v 0.510485 0.027198 0.266467
v 0.509283 0.071493 0.271437
v 0.509112 0.077821 0.272147
v 0.508940 0.084149 0.272857
v 0.514919 0.026807 0.271023
v 0.523959 0.019697 0.279426
v 0.523787 0.026025 0.280137
v 0.523615 0.032353 0.280847
v 0.522414 0.076648 0.285817
v 0.522242 0.082976 0.286527
v 0.522070 0.089303 0.287237
v 0.528049 0.031962 0.285403
v 0.531282 0.075866 0.294930
v 0.531110 0.082194 0.295640
v 0.530938 0.088521 0.296350
v 0.537089 0.024852 0.293806
v 0.536917 0.031180 0.294516
v 0.536746 0.037507 0.295226
v 0.535887 0.069147 0.298777
v 0.535716 0.075475 0.299487
v 0.535544 0.081802 0.300197
v 0.540493 0.062428 0.302623
v 0.540321 0.068756 0.303333
v 0.540150 0.075084 0.304043
v 0.545785 0.030398 0.303629
v 0.545614 0.036725 0.304339
v 0.545099 0.055709 0.306470
v 0.544927 0.062037 0.307180
v 0.544755 0.068365 0.307890
v 0.550048 0.036334 0.308896
v 0.549361 0.061646 0.311736
v 0.483845 0.036880 0.230887
v 0.482987 0.068519 0.234437
v 0.488451 0.030161 0.234733
v 0.488279 0.036489 0.235443
v 0.488108 0.042817 0.236153
v 0.487593 0.061800 0.238284
v 0.487421 0.068128 0.238994
v 0.487249 0.074456 0.239704
v 0.493057 0.023442 0.238580
v 0.492885 0.029770 0.239290
v 0.492713 0.036098 0.240000
v 0.491855 0.067737 0.243550
v 0.497662 0.016723 0.242426
v 0.497491 0.023051 0.243136
v 0.497319 0.029379 0.243846
v 0.501925 0.022660 0.247693
v 0.500723 0.066955 0.252663
v 0.500551 0.073283 0.253373
v 0.500380 0.079611 0.254083
v 0.506530 0.015941 0.251539
v 0.506359 0.022269 0.252250
v 0.504985 0.072892 0.257930
v 0.515398 0.015159 0.260653
v 0.515227 0.021487 0.261363
v 0.515055 0.027815 0.262073
v 0.513853 0.072110 0.267043
v 0.513682 0.078438 0.267753
v 0.513510 0.084766 0.268463
v 0.519489 0.027424 0.266629
v 0.528529 0.020314 0.275032
v 0.528357 0.026642 0.275742
v 0.528185 0.032970 0.276452
v 0.526984 0.077265 0.281423
v 0.526812 0.083593 0.282133
v 0.526641 0.089920 0.282843
v 0.532619 0.032579 0.281009
v 0.535852 0.076483 0.290536
v 0.535680 0.082811 0.291246
v 0.535509 0.089138 0.291956
v 0.541659 0.025469 0.289412
v 0.541487 0.031797 0.290122
v 0.541316 0.038125 0.290832
v 0.540457 0.069764 0.294382
v 0.540286 0.076092 0.295092
v 0.540114 0.082420 0.295802
v 0.545063 0.063045 0.298229
v 0.544891 0.069373 0.298939
v 0.544720 0.075701 0.299649
v 0.550355 0.031015 0.299235
v 0.550184 0.037342 0.299945
v 0.549669 0.056326 0.302075
v 0.549497 0.062654 0.302785
v 0.549325 0.068982 0.303495
v 0.554618 0.036951 0.304502
v 0.553931 0.062263 0.307342
v 0.492849 0.037106 0.231049
v 0.492678 0.043434 0.231759
v 0.492163 0.062417 0.233889
v 0.491991 0.068745 0.234599
v 0.497455 0.030387 0.234896
v 0.497283 0.036715 0.235606
v 0.497112 0.043043 0.236316
v 0.496768 0.055698 0.237736
v 0.496597 0.062026 0.238446
v 0.496425 0.068354 0.239156
v 0.502061 0.023668 0.238742
v 0.501889 0.029996 0.239452
v 0.501717 0.036324 0.240162
v 0.501374 0.048980 0.241582
v 0.501202 0.055307 0.242292
v 0.501031 0.061635 0.243003
v 0.506495 0.023277 0.243299
v 0.506323 0.029605 0.244009
v 0.505980 0.042261 0.245429
v 0.505808 0.048589 0.246139
v 0.505637 0.054916 0.246849
v 0.505293 0.067572 0.248269
v 0.505122 0.073900 0.248979
v 0.510929 0.022886 0.247855
v 0.510757 0.029214 0.248565
v 0.510414 0.041870 0.249985
v 0.509727 0.067181 0.252826
v 0.509556 0.073509 0.253536
v 0.515191 0.028823 0.253122
v 0.514848 0.041479 0.254542
v 0.514676 0.047807 0.255252
v 0.514504 0.054134 0.255962
v 0.519797 0.022104 0.256968
v 0.519625 0.028432 0.257678
v 0.519282 0.041088 0.259099
v 0.519110 0.047416 0.259809
v 0.518424 0.072727 0.262649
v 0.518252 0.079055 0.263359
v 0.524059 0.028041 0.262235
v 0.523887 0.034369 0.262945
v 0.523716 0.040697 0.263655
v 0.523544 0.047025 0.264365
v 0.527978 0.046634 0.268922
v 0.527807 0.052961 0.269632
v 0.527635 0.059289 0.270342
v 0.532927 0.027259 0.271348
v 0.532755 0.033587 0.272058
v 0.532584 0.039915 0.272768
v 0.532412 0.046242 0.273478
v 0.532241 0.052570 0.274188
v 0.531554 0.077882 0.277029
v 0.531382 0.084210 0.277739
v 0.537189 0.033196 0.276615
v 0.537018 0.039524 0.277325
v 0.536846 0.045851 0.278035
v 0.536674 0.052179 0.278745
v 0.541452 0.039133 0.281881
v 0.541280 0.045460 0.282591
v 0.541108 0.051788 0.283301
v 0.540937 0.058116 0.284012
v 0.540765 0.064444 0.284722
v 0.540422 0.077100 0.286142
v 0.540250 0.083428 0.286852
v 0.546057 0.032414 0.285728
v 0.545886 0.038742 0.286438
v 0.545714 0.045069 0.287148
v 0.545543 0.051397 0.287858
v 0.545371 0.057725 0.288568
v 0.545028 0.070381 0.289988
v 0.544856 0.076709 0.290698
v 0.550148 0.044678 0.291705
v 0.549805 0.057334 0.293125
v 0.549633 0.063662 0.293835
v 0.549462 0.069990 0.294545
v 0.554754 0.037960 0.295551
v 0.554239 0.056943 0.297681
v 0.554067 0.063271 0.298391
v 0.493092 0.016106 0.246821
v 0.501960 0.015324 0.255934
v 0.510828 0.014542 0.265047
v 0.497662 0.016723 0.242426
v 0.506530 0.015941 0.251539
v 0.515398 0.015159 0.260653
v 0.488351 0.021817 0.251925
v 0.492785 0.021426 0.256481
v 0.497219 0.021035 0.261038
v 0.506087 0.020253 0.270151
v 0.488487 0.022825 0.242974
v 0.492921 0.022434 0.247531
v 0.497355 0.022043 0.252087
v 0.501789 0.021652 0.256644
v 0.510657 0.020870 0.265757
v 0.523959 0.019697 0.279426
v 0.493057 0.023442 0.238580
v 0.497491 0.023051 0.243136
v 0.501925 0.022660 0.247693
v 0.506359 0.022269 0.252250
v 0.515227 0.021487 0.261363
v 0.528529 0.020314 0.275032
v 0.502061 0.023668 0.238742
v 0.506495 0.023277 0.243299
v 0.510929 0.022886 0.247855
v 0.519797 0.022104 0.256968
v 0.483745 0.028536 0.248078
v 0.488179 0.028145 0.252635
v 0.505915 0.026581 0.270861
v 0.510349 0.026190 0.275418
v 0.519217 0.025408 0.284531
v 0.483881 0.029544 0.239128
v 0.488315 0.029153 0.243684
v 0.492749 0.028762 0.248241
v 0.510485 0.027198 0.266467
v 0.514919 0.026807 0.271023
v 0.523787 0.026025 0.280137
v 0.537089 0.024852 0.293806
v 0.488451 0.030161 0.234733
v 0.492885 0.029770 0.239290
v 0.497319 0.029379 0.243846
v 0.515055 0.027815 0.262073
v 0.519489 0.027424 0.266629
v 0.528357 0.026642 0.275742
v 0.541659 0.025469 0.289412
v 0.497455 0.030387 0.234896
v 0.501889 0.029996 0.239452
v 0.519625 0.028432 0.257678
v 0.524059 0.028041 0.262235
v 0.532927 0.027259 0.271348
v 0.479139 0.035255 0.244232
v 0.483573 0.034864 0.248788
v 0.519045 0.031736 0.285241
v 0.523479 0.031345 0.289797
v 0.532347 0.030563 0.298910
v 0.479275 0.036263 0.235281
v 0.483709 0.035872 0.239838
v 0.488143 0.035481 0.244394
v 0.523615 0.032353 0.280847
v 0.528049 0.031962 0.285403
v 0.536917 0.031180 0.294516
v 0.545785 0.030398 0.303629
v 0.483845 0.036880 0.230887
v 0.488279 0.036489 0.235443
v 0.492713 0.036098 0.240000
v 0.528185 0.032970 0.276452
v 0.532619 0.032579 0.281009
v 0.541487 0.031797 0.290122
v 0.550355 0.031015 0.299235
v 0.492849 0.037106 0.231049
v 0.497283 0.036715 0.235606
v 0.532755 0.033587 0.272058
v 0.537189 0.033196 0.276615
v 0.546057 0.032414 0.285728
v 0.532176 0.036890 0.299621
v 0.541044 0.036108 0.308734
v 0.536746 0.037507 0.295226
v 0.545614 0.036725 0.304339
v 0.550048 0.036334 0.308896
v 0.541316 0.038125 0.290832
v 0.550184 0.037342 0.299945
v 0.554618 0.036951 0.304502
v 0.545886 0.038742 0.286438
v 0.554754 0.037960 0.295551
v 0.478281 0.066894 0.247782
v 0.482715 0.066503 0.252339
v 0.491583 0.065721 0.261452
v 0.535923 0.061811 0.307017
v 0.540357 0.061420 0.311574
v 0.478417 0.067902 0.238831
v 0.482851 0.067511 0.243388
v 0.487285 0.067120 0.247944
v 0.496153 0.066338 0.257058
v 0.540493 0.062428 0.302623
v 0.544927 0.062037 0.307180
v 0.549361 0.061646 0.311736
v 0.482987 0.068519 0.234437
v 0.487421 0.068128 0.238994
v 0.491855 0.067737 0.243550
v 0.500723 0.066955 0.252663
v 0.545063 0.063045 0.298229
v 0.549497 0.062654 0.302785
v 0.553931 0.062263 0.307342
v 0.491991 0.068745 0.234599
v 0.496425 0.068354 0.239156
v 0.505293 0.067572 0.248269
v 0.549633 0.063662 0.293835
v 0.554067 0.063271 0.298391
v 0.491411 0.072049 0.262162
v 0.495845 0.071658 0.266718
v 0.504713 0.070876 0.275831
v 0.531317 0.068530 0.303171
v 0.535751 0.068139 0.307727
v 0.482679 0.073839 0.244098
v 0.495981 0.072666 0.257768
v 0.500415 0.072275 0.262324
v 0.509283 0.071493 0.271437
v 0.535887 0.069147 0.298777
v 0.540321 0.068756 0.303333
v 0.544755 0.068365 0.307890
v 0.487249 0.074456 0.239704
v 0.500551 0.073283 0.253373
v 0.504985 0.072892 0.257930
v 0.513853 0.072110 0.267043
v 0.540457 0.069764 0.294382
v 0.544891 0.069373 0.298939
v 0.549325 0.068982 0.303495
v 0.505122 0.073900 0.248979
v 0.509556 0.073509 0.253536
v 0.518424 0.072727 0.262649
v 0.545028 0.070381 0.289988
v 0.549462 0.069990 0.294545
v 0.504542 0.077204 0.276542
v 0.517844 0.076031 0.290211
v 0.526712 0.075249 0.299324
v 0.531146 0.074858 0.303881
v 0.495810 0.078994 0.258478
v 0.509112 0.077821 0.272147
v 0.522414 0.076648 0.285817
v 0.531282 0.075866 0.294930
v 0.535716 0.075475 0.299487
v 0.540150 0.075084 0.304043
v 0.500380 0.079611 0.254083
v 0.513682 0.078438 0.267753
v 0.526984 0.077265 0.281423
v 0.535852 0.076483 0.290536
v 0.540286 0.076092 0.295092
v 0.544720 0.075701 0.299649
v 0.518252 0.079055 0.263359
v 0.531554 0.077882 0.277029
v 0.540422 0.077100 0.286142
v 0.544856 0.076709 0.290698
v 0.517672 0.082358 0.290921
v 0.526540 0.081576 0.300034
v 0.508940 0.084149 0.272857
v 0.522242 0.082976 0.286527
v 0.531110 0.082194 0.295640
v 0.535544 0.081802 0.300197
v 0.513510 0.084766 0.268463
v 0.526812 0.083593 0.282133
v 0.535680 0.082811 0.291246
v 0.540114 0.082420 0.295802
v 0.531382 0.084210 0.277739
v 0.540250 0.083428 0.286852
v 0.522070 0.089303 0.287237
v 0.530938 0.088521 0.296350
v 0.526641 0.089920 0.282843
v 0.535509 0.089138 0.291956
vn -0.6961 0.0614 -0.7153
vn 0.6961 -0.0614 0.7153
vn -0.7175 -0.0969 0.6898
vn 0.7175 0.0969 -0.6898
vn 0.0269 -0.9934 -0.1115
vn -0.0269 0.9934 0.1115
vt 0.974609 0.500000
vt 0.978516 0.500000
vt 0.982422 0.500000
vt 0.990234 0.500000
vt 0.986328 0.500000
vt 0.970703 0.500000
vt 0.994141 0.500000
s 1
usemtl palette.001
f 3/1/1 2/1/1 1/1/1
f 4/1/1 2/1/1 3/1/1
f 8/1/1 6/1/1 5/1/1
f 9/1/1 6/1/1 8/1/1
f 11/2/1 8/2/1 7/2/1
f 12/2/1 8/2/1 11/2/1
f 13/2/1 10/2/1 9/2/1
f 14/2/1 10/2/1 13/2/1
f 15/3/1 12/3/1 11/3/1
f 16/3/1 12/3/1 15/3/1
f 17/3/1 14/3/1 13/3/1
f 18/3/1 14/3/1 17/3/1
f 19/4/1 16/4/1 15/4/1
f 20/4/1 16/4/1 19/4/1
f 21/4/1 18/4/1 17/4/1
f 22/4/1 18/4/1 21/4/1
f 23/1/1 21/1/1 20/1/1
f 24/1/1 21/1/1 23/1/1
f 28/1/1 26/1/1 25/1/1
f 29/1/1 26/1/1 28/1/1
f 31/2/1 28/2/1 27/2/1
f 32/2/1 28/2/1 31/2/1
f 33/2/1 30/2/1 29/2/1
f 34/2/1 30/2/1 33/2/1
f 38/1/1 36/1/1 35/1/1
f 39/1/1 36/1/1 38/1/1
f 41/2/1 38/2/1 37/2/1
f 42/2/1 38/2/1 41/2/1
f 43/2/1 40/2/1 39/2/1
f 44/2/1 40/2/1 43/2/1
f 49/3/1 46/3/1 45/3/1
f 50/3/1 46/3/1 49/3/1
f 51/3/1 48/3/1 47/3/1
f 52/3/1 48/3/1 51/3/1
f 53/1/1 51/1/1 50/1/1
f 54/1/1 51/1/1 53/1/1
f 59/5/1 56/5/1 55/5/1
f 60/5/1 56/5/1 59/5/1
f 61/5/1 58/5/1 57/5/1
f 62/5/1 58/5/1 61/5/1
f 63/1/1 61/1/1 60/1/1
f 64/1/1 61/1/1 63/1/1
f 69/3/1 66/3/1 65/3/1
f 70/3/1 66/3/1 69/3/1
f 71/3/1 68/3/1 67/3/1
f 72/3/1 68/3/1 71/3/1
f 73/1/1 71/1/1 70/1/1
f 74/1/1 71/1/1 73/1/1
f 75/6/2 76/6/2 78/6/2
f 78/6/2 76/6/2 79/6/2
f 77/2/2 78/2/2 81/2/2
f 81/2/2 78/2/2 82/2/2
f 79/2/2 80/2/2 83/2/2
f 83/2/2 80/2/2 84/2/2
f 85/6/2 86/6/2 88/6/2
f 88/6/2 86/6/2 89/6/2
f 87/2/2 88/2/2 91/2/2
f 91/2/2 88/2/2 92/2/2
f 89/2/2 90/2/2 93/2/2
f 93/2/2 90/2/2 94/2/2
f 95/3/2 96/3/2 99/3/2
f 99/3/2 96/3/2 100/3/2
f 97/3/2 98/3/2 101/3/2
f 101/3/2 98/3/2 102/3/2
f 100/1/2 101/1/2 103/1/2
f 103/1/2 101/1/2 104/1/2
f 105/6/2 106/6/2 108/6/2
f 108/6/2 106/6/2 109/6/2
f 107/3/2 108/3/2 111/3/2
f 111/3/2 108/3/2 112/3/2
f 109/3/2 110/3/2 113/3/2
f 113/3/2 110/3/2 114/3/2
f 115/5/2 116/5/2 119/5/2
f 119/5/2 116/5/2 120/5/2
f 117/5/2 118/5/2 121/5/2
f 121/5/2 118/5/2 122/5/2
f 120/1/2 121/1/2 123/1/2
f 123/1/2 121/1/2 124/1/2
f 125/5/2 126/5/2 129/5/2
f 129/5/2 126/5/2 130/5/2
f 127/5/2 128/5/2 131/5/2
f 131/5/2 128/5/2 132/5/2
f 130/1/2 131/1/2 133/1/2
f 133/1/2 131/1/2 134/1/2
f 135/6/2 136/6/2 138/6/2
f 138/6/2 136/6/2 139/6/2
f 137/3/2 138/3/2 141/3/2
f 141/3/2 138/3/2 142/3/2
f 139/3/2 140/3/2 143/3/2
f 143/3/2 140/3/2 144/3/2
f 141/5/2 142/5/2 145/5/2
f 145/5/2 142/5/2 146/5/2
f 143/5/2 144/5/2 147/5/2
f 147/5/2 144/5/2 148/5/2
f 146/6/2 147/6/2 149/6/2
f 149/6/2 147/6/2 150/6/2
f 151/6/2 152/6/2 153/6/2
f 153/6/2 152/6/2 154/6/2
f 160/2/3 156/2/3 155/2/3
f 161/3/3 157/3/3 156/3/3
f 161/2/3 156/2/3 160/2/3
f 162/3/3 157/3/3 161/3/3
f 163/4/3 158/4/3 157/4/3
f 163/3/3 157/3/3 162/3/3
f 164/4/3 158/4/3 163/4/3
f 166/2/3 160/2/3 159/2/3
f 167/5/3 162/5/3 161/5/3
f 167/5/3 161/5/3 160/5/3
f 167/2/3 160/2/3 166/2/3
f 168/5/3 162/5/3 167/5/3
f 169/4/3 163/4/3 162/4/3
f 169/5/3 162/5/3 168/5/3
f 170/5/3 164/5/3 163/5/3
f 170/4/3 163/4/3 169/4/3
f 171/2/3 166/2/3 165/2/3
f 172/3/3 168/3/3 167/3/3
f 172/2/3 166/2/3 171/2/3
f 172/3/3 167/3/3 166/3/3
f 173/3/3 168/3/3 172/3/3
f 174/4/3 169/4/3 168/4/3
f 174/3/3 168/3/3 173/3/3
f 175/5/3 170/5/3 169/5/3
f 175/4/3 169/4/3 174/4/3
f 176/5/3 164/5/3 170/5/3
f 176/5/3 170/5/3 175/5/3
f 178/3/3 172/3/3 171/3/3
f 179/5/3 173/5/3 172/5/3
f 179/3/3 172/3/3 178/3/3
f 180/4/3 174/4/3 173/4/3
f 180/5/3 173/5/3 179/5/3
f 181/5/3 175/5/3 174/5/3
f 181/5/3 176/5/3 175/5/3
f 181/3/3 177/3/3 176/3/3
f 182/3/3 177/3/3 181/3/3
f 183/2/3 180/2/3 179/2/3
f 183/2/3 179/2/3 178/2/3
f 184/4/3 174/4/3 180/4/3
f 184/2/3 180/2/3 183/2/3
f 185/5/3 182/5/3 181/5/3
f 185/4/3 174/4/3 184/4/3
f 185/5/3 181/5/3 174/5/3
f 186/5/3 182/5/3 185/5/3
f 187/2/3 183/2/3 178/2/3
f 188/7/3 184/7/3 183/7/3
f 188/2/3 183/2/3 187/2/3
f 189/5/3 185/5/3 184/5/3
f 189/7/3 184/7/3 188/7/3
f 190/4/3 186/4/3 185/4/3
f 190/5/3 185/5/3 189/5/3
f 191/5/3 182/5/3 186/5/3
f 193/7/3 189/7/3 188/7/3
f 194/7/3 189/7/3 193/7/3
f 195/2/3 190/2/3 189/2/3
f 195/7/3 189/7/3 194/7/3
f 196/4/3 186/4/3 190/4/3
f 196/2/3 190/2/3 195/2/3
f 197/7/3 195/7/3 194/7/3
f 197/4/3 186/4/3 196/4/3
f 197/7/3 196/7/3 195/7/3
f 198/5/3 191/5/3 186/5/3
f 198/4/3 186/4/3 197/4/3
f 198/5/3 192/5/3 191/5/3
f 199/5/3 192/5/3 198/5/3
f 200/2/3 194/2/3 193/2/3
f 201/7/3 197/7/3 194/7/3
f 201/2/3 194/2/3 200/2/3
f 202/7/3 197/7/3 201/7/3
f 203/5/3 198/5/3 197/5/3
f 203/7/3 197/7/3 202/7/3
f 204/4/3 199/4/3 198/4/3
f 204/5/3 198/5/3 203/5/3
f 205/5/3 192/5/3 199/5/3
f 207/2/3 202/2/3 201/2/3
f 208/7/3 203/7/3 202/7/3
f 208/2/3 202/2/3 207/2/3
f 209/2/3 204/2/3 203/2/3
f 209/7/3 203/7/3 208/7/3
f 210/4/3 199/4/3 204/4/3
f 210/2/3 204/2/3 209/2/3
f 211/7/3 209/7/3 208/7/3
f 211/3/3 208/3/3 207/3/3
f 211/7/3 210/7/3 209/7/3
f 212/7/3 210/7/3 211/7/3
f 213/4/3 199/4/3 210/4/3
f 213/7/3 210/7/3 212/7/3
f 214/5/3 205/5/3 199/5/3
f 214/4/3 199/4/3 213/4/3
f 215/5/3 205/5/3 214/5/3
f 216/3/3 206/3/3 205/3/3
f 216/5/3 205/5/3 215/5/3
f 217/3/3 206/3/3 216/3/3
f 218/3/3 211/3/3 207/3/3
f 219/2/3 212/2/3 211/2/3
f 219/3/3 211/3/3 218/3/3
f 220/7/3 213/7/3 212/7/3
f 220/2/3 212/2/3 219/2/3
f 221/5/3 214/5/3 213/5/3
f 221/7/3 213/7/3 220/7/3
f 222/4/3 215/4/3 214/4/3
f 222/5/3 214/5/3 221/5/3
f 223/5/3 216/5/3 215/5/3
f 224/5/3 216/5/3 223/5/3
f 225/7/3 221/7/3 220/7/3
f 225/3/3 220/3/3 219/3/3
f 225/7/3 222/7/3 221/7/3
f 226/4/3 215/4/3 222/4/3
f 226/7/3 222/7/3 225/7/3
f 227/5/3 223/5/3 215/5/3
f 227/4/3 215/4/3 226/4/3
f 228/5/3 223/5/3 227/5/3
f 229/3/3 226/3/3 225/3/3
f 229/3/3 225/3/3 219/3/3
f 230/5/3 227/5/3 226/5/3
f 230/3/3 226/3/3 229/3/3
f 231/5/3 227/5/3 230/5/3
f 235/1/3 233/1/3 232/1/3
f 236/1/3 233/1/3 235/1/3
f 237/1/3 233/1/3 236/1/3
f 238/1/3 233/1/3 237/1/3
f 241/1/3 235/1/3 234/1/3
f 242/1/3 235/1/3 241/1/3
f 243/1/3 239/1/3 238/1/3
f 245/1/3 241/1/3 240/1/3
f 246/1/3 241/1/3 245/1/3
f 247/1/3 245/1/3 244/1/3
f 248/1/3 239/1/3 243/1/3
f 249/1/3 239/1/3 248/1/3
f 251/1/3 247/1/3 244/1/3
f 252/1/3 247/1/3 251/1/3
f 253/1/3 250/1/3 249/1/3
f 254/6/3 252/6/3 251/6/3
f 255/6/3 252/6/3 254/6/3
f 257/1/3 250/1/3 253/1/3
f 258/1/3 250/1/3 257/1/3
f 260/6/3 256/6/3 255/6/3
f 261/6/3 260/6/3 255/6/3
f 262/6/3 260/6/3 261/6/3
f 264/1/3 259/1/3 258/1/3
f 265/1/3 259/1/3 264/1/3
f 267/6/3 263/6/3 262/6/3
f 269/1/3 266/1/3 265/1/3
f 270/1/3 266/1/3 269/1/3
f 271/6/3 267/6/3 262/6/3
f 272/6/3 267/6/3 271/6/3
f 275/1/3 269/1/3 268/1/3
f 276/1/3 269/1/3 275/1/3
f 278/1/3 275/1/3 274/1/3
f 279/1/3 275/1/3 278/1/3
f 280/6/3 273/6/3 272/6/3
f 281/6/3 273/6/3 280/6/3
f 283/6/3 278/6/3 277/6/3
f 284/6/3 278/6/3 283/6/3
f 285/6/3 282/6/3 281/6/3
f 285/6/3 283/6/3 282/6/3
f 286/6/3 283/6/3 285/6/3
f 287/1/4 288/1/4 290/1/4
f 290/1/4 288/1/4 291/1/4
f 291/1/4 288/1/4 292/1/4
f 292/1/4 288/1/4 293/1/4
f 289/1/4 290/1/4 296/1/4
f 296/1/4 290/1/4 297/1/4
f 293/1/4 294/1/4 298/1/4
f 295/1/4 296/1/4 300/1/4
f 300/1/4 296/1/4 301/1/4
f 299/1/4 300/1/4 302/1/4
f 298/1/4 294/1/4 303/1/4
f 303/1/4 294/1/4 304/1/4
f 299/1/4 302/1/4 306/1/4
f 306/1/4 302/1/4 307/1/4
f 304/1/4 305/1/4 308/1/4
f 306/6/4 307/6/4 309/6/4
f 309/6/4 307/6/4 310/6/4
f 308/1/4 305/1/4 312/1/4
f 312/1/4 305/1/4 313/1/4
f 310/6/4 311/6/4 315/6/4
f 310/6/4 315/6/4 316/6/4
f 316/6/4 315/6/4 317/6/4
f 313/1/4 314/1/4 319/1/4
f 319/1/4 314/1/4 320/1/4
f 317/6/4 318/6/4 322/6/4
f 320/1/4 321/1/4 324/1/4
f 324/1/4 321/1/4 325/1/4
f 317/6/4 322/6/4 326/6/4
f 326/6/4 322/6/4 327/6/4
f 323/1/4 324/1/4 330/1/4
f 330/1/4 324/1/4 331/1/4
f 329/1/4 330/1/4 333/1/4
f 333/1/4 330/1/4 334/1/4
f 327/6/4 328/6/4 335/6/4
f 335/6/4 328/6/4 336/6/4
f 332/6/4 333/6/4 338/6/4
f 338/6/4 333/6/4 339/6/4
f 336/6/4 337/6/4 340/6/4
f 337/6/4 338/6/4 340/6/4
f 340/6/4 338/6/4 341/6/4
f 342/2/4 343/2/4 347/2/4
f 343/3/4 344/3/4 348/3/4
f 347/2/4 343/2/4 348/2/4
f 348/3/4 344/3/4 349/3/4
f 344/4/4 345/4/4 350/4/4
f 349/3/4 344/3/4 350/3/4
f 350/4/4 345/4/4 351/4/4
f 346/2/4 347/2/4 353/2/4
f 348/5/4 349/5/4 354/5/4
f 347/5/4 348/5/4 354/5/4
f 353/2/4 347/2/4 354/2/4
f 354/5/4 349/5/4 355/5/4
f 349/4/4 350/4/4 356/4/4
f 355/5/4 349/5/4 356/5/4
f 350/5/4 351/5/4 357/5/4
f 356/4/4 350/4/4 357/4/4
f 352/2/4 353/2/4 358/2/4
f 354/3/4 355/3/4 359/3/4
f 358/2/4 353/2/4 359/2/4
f 353/3/4 354/3/4 359/3/4
f 359/3/4 355/3/4 360/3/4
f 355/4/4 356/4/4 361/4/4
f 360/3/4 355/3/4 361/3/4
f 356/5/4 357/5/4 362/5/4
f 361/4/4 356/4/4 362/4/4
f 357/5/4 351/5/4 363/5/4
f 362/5/4 357/5/4 363/5/4
f 358/3/4 359/3/4 365/3/4
f 359/5/4 360/5/4 366/5/4
f 365/3/4 359/3/4 366/3/4
f 360/4/4 361/4/4 367/4/4
f 366/5/4 360/5/4 367/5/4
f 361/5/4 362/5/4 368/5/4
f 362/5/4 363/5/4 368/5/4
f 363/3/4 364/3/4 368/3/4
f 368/3/4 364/3/4 369/3/4
f 366/2/4 367/2/4 370/2/4
f 365/2/4 366/2/4 370/2/4
f 367/4/4 361/4/4 371/4/4
f 370/2/4 367/2/4 371/2/4
f 368/5/4 369/5/4 372/5/4
f 371/4/4 361/4/4 372/4/4
f 361/5/4 368/5/4 372/5/4
f 372/5/4 369/5/4 373/5/4
f 365/2/4 370/2/4 374/2/4
f 370/7/4 371/7/4 375/7/4
f 374/2/4 370/2/4 375/2/4
f 371/5/4 372/5/4 376/5/4
f 375/7/4 371/7/4 376/7/4
f 372/4/4 373/4/4 377/4/4
f 376/5/4 372/5/4 377/5/4
f 373/5/4 369/5/4 378/5/4
f 375/7/4 376/7/4 380/7/4
f 380/7/4 376/7/4 381/7/4
f 376/2/4 377/2/4 382/2/4
f 381/7/4 376/7/4 382/7/4
f 377/4/4 373/4/4 383/4/4
f 382/2/4 377/2/4 383/2/4
f 381/7/4 382/7/4 384/7/4
f 383/4/4 373/4/4 384/4/4
f 382/7/4 383/7/4 384/7/4
f 373/5/4 378/5/4 385/5/4
f 384/4/4 373/4/4 385/4/4
f 378/5/4 379/5/4 385/5/4
f 385/5/4 379/5/4 386/5/4
f 380/2/4 381/2/4 387/2/4
f 381/7/4 384/7/4 388/7/4
f 387/2/4 381/2/4 388/2/4
f 388/7/4 384/7/4 389/7/4
f 384/5/4 385/5/4 390/5/4
f 389/7/4 384/7/4 390/7/4
f 385/4/4 386/4/4 391/4/4
f 390/5/4 385/5/4 391/5/4
f 386/5/4 379/5/4 392/5/4
f 388/2/4 389/2/4 394/2/4
f 389/7/4 390/7/4 395/7/4
f 394/2/4 389/2/4 395/2/4
f 390/2/4 391/2/4 396/2/4
f 395/7/4 390/7/4 396/7/4
f 391/4/4 386/4/4 397/4/4
f 396/2/4 391/2/4 397/2/4
f 395/7/4 396/7/4 398/7/4
f 394/3/4 395/3/4 398/3/4
f 396/7/4 397/7/4 398/7/4
f 398/7/4 397/7/4 399/7/4
f 397/4/4 386/4/4 400/4/4
f 399/7/4 397/7/4 400/7/4
f 386/5/4 392/5/4 401/5/4
f 400/4/4 386/4/4 401/4/4
f 401/5/4 392/5/4 402/5/4
f 392/3/4 393/3/4 403/3/4
f 402/5/4 392/5/4 403/5/4
f 403/3/4 393/3/4 404/3/4
f 394/3/4 398/3/4 405/3/4
f 398/2/4 399/2/4 406/2/4
f 405/3/4 398/3/4 406/3/4
f 399/7/4 400/7/4 407/7/4
f 406/2/4 399/2/4 407/2/4
f 400/5/4 401/5/4 408/5/4
f 407/7/4 400/7/4 408/7/4
f 401/4/4 402/4/4 409/4/4
f 408/5/4 401/5/4 409/5/4
f 402/5/4 403/5/4 410/5/4
f 410/5/4 403/5/4 411/5/4
f 407/7/4 408/7/4 412/7/4
f 406/3/4 407/3/4 412/3/4
f 408/7/4 409/7/4 412/7/4
f 409/4/4 402/4/4 413/4/4
f 412/7/4 409/7/4 413/7/4
f 402/5/4 410/5/4 414/5/4
f 413/4/4 402/4/4 414/4/4
f 414/5/4 410/5/4 415/5/4
f 412/3/4 413/3/4 416/3/4
f 406/3/4 412/3/4 416/3/4
f 413/5/4 414/5/4 417/5/4
f 416/3/4 413/3/4 417/3/4
f 417/5/4 414/5/4 418/5/4
f 422/1/5 420/1/5 419/1/5
f 423/6/5 421/6/5 420/6/5
f 423/1/5 420/1/5 422/1/5
f 424/6/5 421/6/5 423/6/5
f 430/2/5 426/2/5 425/2/5
f 431/3/5 427/3/5 426/3/5
f 431/2/5 426/2/5 430/2/5
f 432/2/5 428/2/5 427/2/5
f 432/3/5 427/3/5 431/3/5
f 433/2/5 428/2/5 432/2/5
f 435/1/5 430/1/5 429/1/5
f 436/1/5 430/1/5 435/1/5
f 439/6/5 434/6/5 433/6/5
f 440/6/5 434/6/5 439/6/5
f 441/2/5 437/2/5 436/2/5
f 442/3/5 438/3/5 437/3/5
f 442/2/5 437/2/5 441/2/5
f 443/2/5 439/2/5 438/2/5
f 443/3/5 438/3/5 442/3/5
f 444/2/5 439/2/5 443/2/5
f 451/2/5 446/2/5 445/2/5
f 452/2/5 446/2/5 451/2/5
f 453/7/5 448/7/5 447/7/5
f 454/2/5 449/2/5 448/2/5
f 454/7/5 448/7/5 453/7/5
f 455/2/5 449/2/5 454/2/5
f 457/1/5 451/1/5 450/1/5
f 458/1/5 451/1/5 457/1/5
f 462/6/5 456/6/5 455/6/5
f 463/6/5 456/6/5 462/6/5
f 464/2/5 459/2/5 458/2/5
f 465/2/5 459/2/5 464/2/5
f 466/7/5 461/7/5 460/7/5
f 467/2/5 462/2/5 461/2/5
f 467/7/5 461/7/5 466/7/5
f 468/2/5 462/2/5 467/2/5
f 475/2/5 470/2/5 469/2/5
f 476/2/5 470/2/5 475/2/5
f 477/2/5 472/2/5 471/2/5
f 478/3/5 473/3/5 472/3/5
f 478/2/5 472/2/5 477/2/5
f 479/3/5 473/3/5 478/3/5
f 481/1/5 475/1/5 474/1/5
f 482/1/5 475/1/5 481/1/5
f 486/6/5 480/6/5 479/6/5
f 487/6/5 480/6/5 486/6/5
f 488/2/5 483/2/5 482/2/5
f 489/2/5 483/2/5 488/2/5
f 490/2/5 485/2/5 484/2/5
f 491/3/5 486/3/5 485/3/5
f 491/2/5 485/2/5 490/2/5
f 492/3/5 486/3/5 491/3/5
f 495/3/5 494/3/5 493/3/5
f 496/3/5 494/3/5 495/3/5
f 499/6/5 497/6/5 496/6/5
f 500/6/5 497/6/5 499/6/5
f 501/3/5 499/3/5 498/3/5
f 502/3/5 499/3/5 501/3/5
f 503/4/6 504/4/6 509/4/6
f 504/5/6 505/5/6 510/5/6
f 509/4/6 504/4/6 510/4/6
f 510/5/6 505/5/6 511/5/6
f 506/5/6 507/5/6 512/5/6
f 512/5/6 507/5/6 513/5/6
f 508/1/6 509/1/6 515/1/6
f 515/1/6 509/1/6 516/1/6
f 513/6/6 514/6/6 520/6/6
f 520/6/6 514/6/6 521/6/6
f 516/4/6 517/4/6 522/4/6
f 517/5/6 518/5/6 523/5/6
f 522/4/6 517/4/6 523/4/6
f 523/5/6 518/5/6 524/5/6
f 519/5/6 520/5/6 525/5/6
f 525/5/6 520/5/6 526/5/6
f 527/3/6 528/3/6 533/3/6
f 528/5/6 529/5/6 534/5/6
f 533/3/6 528/3/6 534/3/6
f 534/5/6 529/5/6 535/5/6
f 530/5/6 531/5/6 536/5/6
f 536/5/6 531/5/6 537/5/6
f 532/1/6 533/1/6 539/1/6
f 539/1/6 533/1/6 540/1/6
f 537/6/6 538/6/6 544/6/6
f 544/6/6 538/6/6 545/6/6
f 540/3/6 541/3/6 546/3/6
f 541/5/6 542/5/6 547/5/6
f 546/3/6 541/3/6 547/3/6
f 547/5/6 542/5/6 548/5/6
f 543/5/6 544/5/6 549/5/6
f 549/5/6 544/5/6 550/5/6
f 551/5/6 552/5/6 556/5/6
f 556/5/6 552/5/6 557/5/6
f 553/5/6 554/5/6 558/5/6
f 558/5/6 554/5/6 559/5/6
f 555/1/6 556/1/6 561/1/6
f 561/1/6 556/1/6 562/1/6
f 559/1/6 560/1/6 565/1/6
f 565/1/6 560/1/6 566/1/6
f 562/5/6 563/5/6 567/5/6
f 567/5/6 563/5/6 568/5/6
f 564/5/6 565/5/6 569/5/6
f 569/5/6 565/5/6 570/5/6
f 571/3/6 572/3/6 574/3/6
f 574/3/6 572/3/6 575/3/6
f 573/1/6 574/1/6 577/1/6
f 577/1/6 574/1/6 578/1/6
f 575/1/6 576/1/6 579/1/6
f 579/1/6 576/1/6 580/1/6
f 578/3/6 579/3/6 581/3/6
f 581/3/6 579/3/6 582/3/6
f 583/1/6 584/1/6 585/1/6
f 585/1/6 584/1/6 586/1/6
