# Blender 5.1.2
# www.blender.org
mtllib mirror_wood.mtl
o 44b2d7bd-80b9-2c96-864d-6f621e64138c
v -0.159912 0.256017 -0.598020
v -0.161171 0.127516 -0.604238
v -0.156745 0.255224 -0.582273
v -0.161171 0.127516 -0.604238
v -0.158003 0.126723 -0.588491
v -0.156745 0.255224 -0.582273
v -0.140978 0.255223 -0.585445
v -0.142237 0.126722 -0.591663
v -0.144146 0.256016 -0.601192
v -0.142237 0.126722 -0.591663
v -0.145405 0.127515 -0.607410
v -0.144146 0.256016 -0.601192
v -0.140978 0.255223 -0.585445
v -0.144146 0.256016 -0.601192
v -0.156745 0.255224 -0.582273
v -0.144146 0.256016 -0.601192
v -0.159912 0.256017 -0.598020
v -0.156745 0.255224 -0.582273
v -0.145405 0.127515 -0.607410
v -0.142237 0.126722 -0.591663
v -0.161171 0.127516 -0.604238
v -0.142237 0.126722 -0.591663
v -0.158003 0.126723 -0.588491
v -0.161171 0.127516 -0.604238
v -0.144146 0.256016 -0.601192
v -0.145405 0.127515 -0.607410
v -0.159912 0.256017 -0.598020
v -0.145405 0.127515 -0.607410
v -0.161171 0.127516 -0.604238
v -0.159912 0.256017 -0.598020
v -0.156745 0.255224 -0.582273
v -0.158003 0.126723 -0.588491
v -0.140978 0.255223 -0.585445
v -0.158003 0.126723 -0.588491
v -0.142237 0.126722 -0.591663
v -0.140978 0.255223 -0.585445
vn -0.9804 0.0001 0.1972
vn 0.9804 -0.0001 -0.1972
vn 0.0098 0.9988 0.0483
vn -0.0098 -0.9988 -0.0483
vn -0.1970 0.0493 -0.9792
vn 0.1970 -0.0493 0.9792
vt 0.000000 0.000000
vt 0.000000 1.000000
vt 0.125000 0.000000
vt 0.125000 1.000000
vt 0.000000 0.125000
vt 0.125000 0.125000
s 0
usemtl spruce_log.png
f 1/1/1 2/2/1 3/3/1
f 4/2/1 5/4/1 6/3/1
f 7/1/2 8/2/2 9/3/2
f 10/2/2 11/4/2 12/3/2
f 13/1/3 14/5/3 15/3/3
f 16/5/3 17/6/3 18/3/3
f 19/1/4 20/5/4 21/3/4
f 22/5/4 23/6/4 24/3/4
f 25/1/5 26/2/5 27/3/5
f 28/2/5 29/4/5 30/3/5
f 31/1/6 32/2/6 33/3/6
f 34/2/6 35/4/6 36/3/6
o b3c9c013-b492-8638-321d-9c2cd108b21f
v -0.161171 0.127516 -0.604238
v -0.161328 0.111454 -0.605015
v -0.158003 0.126723 -0.588491
v -0.161328 0.111454 -0.605015
v -0.158160 0.110661 -0.589268
v -0.158003 0.126723 -0.588491
v -0.031873 0.126716 -0.613864
v -0.032030 0.110653 -0.614642
v -0.035041 0.127509 -0.629611
v -0.032030 0.110653 -0.614642
v -0.035198 0.111446 -0.630389
v -0.035041 0.127509 -0.629611
v -0.031873 0.126716 -0.613864
v -0.035041 0.127509 -0.629611
v -0.158003 0.126723 -0.588491
v -0.035041 0.127509 -0.629611
v -0.161171 0.127516 -0.604238
v -0.158003 0.126723 -0.588491
v -0.035198 0.111446 -0.630389
v -0.032030 0.110653 -0.614642
v -0.161328 0.111454 -0.605015
v -0.032030 0.110653 -0.614642
v -0.158160 0.110661 -0.589268
v -0.161328 0.111454 -0.605015
v -0.035041 0.127509 -0.629611
v -0.035198 0.111446 -0.630389
v -0.161171 0.127516 -0.604238
v -0.035198 0.111446 -0.630389
v -0.161328 0.111454 -0.605015
v -0.161171 0.127516 -0.604238
v -0.158003 0.126723 -0.588491
v -0.158160 0.110661 -0.589268
v -0.031873 0.126716 -0.613864
v -0.158160 0.110661 -0.589268
v -0.032030 0.110653 -0.614642
v -0.031873 0.126716 -0.613864
vn -0.9804 0.0001 0.1972
vn 0.9804 -0.0001 -0.1972
vn 0.0098 0.9988 0.0483
vn -0.0098 -0.9988 -0.0483
vn -0.1970 0.0493 -0.9792
vn 0.1970 -0.0493 0.9792
vt 0.000000 0.000000
vt 0.000000 0.125000
vt 0.125000 0.000000
vt 0.125000 0.125000
vt 1.000000 0.000000
vt 1.000000 0.125000
s 0
usemtl spruce_log.png
f 37/7/7 38/8/7 39/9/7
f 40/8/7 41/10/7 42/9/7
f 43/7/8 44/8/8 45/9/8
f 46/8/8 47/10/8 48/9/8
f 49/7/9 50/8/9 51/11/9
f 52/8/9 53/12/9 54/11/9
f 55/7/10 56/8/10 57/11/10
f 58/8/10 59/12/10 60/11/10
f 61/7/11 62/8/11 63/11/11
f 64/8/11 65/12/11 66/11/11
f 67/7/12 68/8/12 69/11/12
f 70/8/12 71/12/12 72/11/12
o e023711e-f6bd-4e21-43a6-8e3cab3d2bc1
v -0.159755 0.272079 -0.597243
v -0.159912 0.256017 -0.598020
v -0.156587 0.271286 -0.581496
v -0.159912 0.256017 -0.598020
v -0.156745 0.255224 -0.582273
v -0.156587 0.271286 -0.581496
v -0.030457 0.271279 -0.606869
v -0.030615 0.255216 -0.607647
v -0.033625 0.272072 -0.622616
v -0.030615 0.255216 -0.607647
v -0.033782 0.256009 -0.623394
v -0.033625 0.272072 -0.622616
v -0.030457 0.271279 -0.606869
v -0.033625 0.272072 -0.622616
v -0.156587 0.271286 -0.581496
v -0.033625 0.272072 -0.622616
v -0.159755 0.272079 -0.597243
v -0.156587 0.271286 -0.581496
v -0.033782 0.256009 -0.623394
v -0.030615 0.255216 -0.607647
v -0.159912 0.256017 -0.598020
v -0.030615 0.255216 -0.607647
v -0.156745 0.255224 -0.582273
v -0.159912 0.256017 -0.598020
v -0.033625 0.272072 -0.622616
v -0.033782 0.256009 -0.623394
v -0.159755 0.272079 -0.597243
v -0.033782 0.256009 -0.623394
v -0.159912 0.256017 -0.598020
v -0.159755 0.272079 -0.597243
v -0.156587 0.271286 -0.581496
v -0.156745 0.255224 -0.582273
v -0.030457 0.271279 -0.606869
v -0.156745 0.255224 -0.582273
v -0.030615 0.255216 -0.607647
v -0.030457 0.271279 -0.606869
vn -0.9804 0.0001 0.1972
vn 0.9804 -0.0001 -0.1972
vn 0.0098 0.9988 0.0483
vn -0.0098 -0.9988 -0.0483
vn -0.1970 0.0493 -0.9792
vn 0.1970 -0.0493 0.9792
vt 0.000000 0.000000
vt 0.000000 0.125000
vt 0.125000 0.000000
vt 0.125000 0.125000
vt 1.000000 0.000000
vt 1.000000 0.125000
s 0
usemtl spruce_log.png
f 73/13/13 74/14/13 75/15/13
f 76/14/13 77/16/13 78/15/13
f 79/13/14 80/14/14 81/15/14
f 82/14/14 83/16/14 84/15/14
f 85/13/15 86/14/15 87/17/15
f 88/14/15 89/18/15 90/17/15
f 91/13/16 92/14/16 93/17/16
f 94/14/16 95/18/16 96/17/16
f 97/13/17 98/14/17 99/17/17
f 100/14/17 101/18/17 102/17/17
f 103/13/18 104/14/18 105/17/18
f 106/14/18 107/18/18 108/17/18
o ESPEJO_atras
v -0.144146 0.256016 -0.601192
v -0.145405 0.127515 -0.607410
v -0.142562 0.255619 -0.593318
v -0.145405 0.127515 -0.607410
v -0.143821 0.127119 -0.599536
v -0.142562 0.255619 -0.593318
v -0.047965 0.255614 -0.612348
v -0.049223 0.127113 -0.618566
v -0.049549 0.256010 -0.620222
v -0.049223 0.127113 -0.618566
v -0.050807 0.127510 -0.626440
v -0.049549 0.256010 -0.620222
v -0.047965 0.255614 -0.612348
v -0.049549 0.256010 -0.620222
v -0.142562 0.255619 -0.593318
v -0.049549 0.256010 -0.620222
v -0.144146 0.256016 -0.601192
v -0.142562 0.255619 -0.593318
v -0.050807 0.127510 -0.626440
v -0.049223 0.127113 -0.618566
v -0.145405 0.127515 -0.607410
v -0.049223 0.127113 -0.618566
v -0.143821 0.127119 -0.599536
v -0.145405 0.127515 -0.607410
v -0.049549 0.256010 -0.620222
v -0.050807 0.127510 -0.626440
v -0.144146 0.256016 -0.601192
v -0.050807 0.127510 -0.626440
v -0.145405 0.127515 -0.607410
v -0.144146 0.256016 -0.601192
vn -0.9804 0.0001 0.1972
vn 0.9804 -0.0001 -0.1972
vn 0.0098 0.9988 0.0483
vn -0.0098 -0.9988 -0.0483
vn -0.1970 0.0493 -0.9792
vt 0.000000 0.000000
vt 0.000000 1.000000
vt 0.062500 0.000000
vt 0.062500 1.000000
vt 0.000000 0.062500
vt 0.750000 0.000000
vt 0.750000 0.062500
vt 0.125000 0.000000
vt 0.125000 1.000000
vt 0.875000 0.000000
vt 0.875000 1.000000
s 0
usemtl spruce_log.png
f 109/19/19 110/20/19 111/21/19
f 112/20/19 113/22/19 114/21/19
f 115/19/20 116/20/20 117/21/20
f 118/20/20 119/22/20 120/21/20
f 121/19/21 122/23/21 123/24/21
f 124/23/21 125/25/21 126/24/21
f 127/19/22 128/23/22 129/24/22
f 130/23/22 131/25/22 132/24/22
f 133/26/23 134/27/23 135/28/23
f 136/27/23 137/29/23 138/28/23
o fa103590-38de-7cdb-5912-d86682ed9a9b
v -0.049549 0.256010 -0.620222
v -0.050807 0.127510 -0.626440
v -0.046381 0.255217 -0.604475
v -0.050807 0.127510 -0.626440
v -0.047639 0.126717 -0.610693
v -0.046381 0.255217 -0.604475
v -0.030615 0.255216 -0.607647
v -0.031873 0.126716 -0.613864
v -0.033782 0.256009 -0.623394
v -0.031873 0.126716 -0.613864
v -0.035041 0.127509 -0.629611
v -0.033782 0.256009 -0.623394
v -0.030615 0.255216 -0.607647
v -0.033782 0.256009 -0.623394
v -0.046381 0.255217 -0.604475
v -0.033782 0.256009 -0.623394
v -0.049549 0.256010 -0.620222
v -0.046381 0.255217 -0.604475
v -0.035041 0.127509 -0.629611
v -0.031873 0.126716 -0.613864
v -0.050807 0.127510 -0.626440
v -0.031873 0.126716 -0.613864
v -0.047639 0.126717 -0.610693
v -0.050807 0.127510 -0.626440
v -0.033782 0.256009 -0.623394
v -0.035041 0.127509 -0.629611
v -0.049549 0.256010 -0.620222
v -0.035041 0.127509 -0.629611
v -0.050807 0.127510 -0.626440
v -0.049549 0.256010 -0.620222
v -0.046381 0.255217 -0.604475
v -0.047639 0.126717 -0.610693
v -0.030615 0.255216 -0.607647
v -0.047639 0.126717 -0.610693
v -0.031873 0.126716 -0.613864
v -0.030615 0.255216 -0.607647
vn -0.9804 0.0001 0.1972
vn 0.9804 -0.0001 -0.1972
vn 0.0098 0.9988 0.0483
vn -0.0098 -0.9988 -0.0483
vn -0.1970 0.0493 -0.9792
vn 0.1970 -0.0493 0.9792
vt 0.000000 0.000000
vt 0.000000 1.000000
vt 0.125000 0.000000
vt 0.125000 1.000000
vt 0.000000 0.125000
vt 0.125000 0.125000
s 0
usemtl spruce_log.png
f 139/30/24 140/31/24 141/32/24
f 142/31/24 143/33/24 144/32/24
f 145/30/25 146/31/25 147/32/25
f 148/31/25 149/33/25 150/32/25
f 151/30/26 152/34/26 153/32/26
f 154/34/26 155/35/26 156/32/26
f 157/30/27 158/34/27 159/32/27
f 160/34/27 161/35/27 162/32/27
f 163/30/28 164/31/28 165/32/28
f 166/31/28 167/33/28 168/32/28
f 169/30/29 170/31/29 171/32/29
f 172/31/29 173/33/29 174/32/29
