# Blender 5.1.2
# www.blender.org
mtllib mirror.mtl
o ESPEJO_REFLECTANTE
v -0.142200 0.253235 -0.586563
v -0.143458 0.125325 -0.600351
v -0.140616 0.252375 -0.578727
v -0.143458 0.125325 -0.600351
v -0.141874 0.124465 -0.592514
v -0.140616 0.252375 -0.578727
v -0.046018 0.253491 -0.597724
v -0.047277 0.125582 -0.611512
v -0.047602 0.254352 -0.605561
v -0.047277 0.125582 -0.611512
v -0.048861 0.126442 -0.619348
v -0.047602 0.254352 -0.605561
v -0.046018 0.253491 -0.597724
v -0.047602 0.254352 -0.605561
v -0.140616 0.252375 -0.578727
v -0.047602 0.254352 -0.605561
v -0.142200 0.253235 -0.586563
v -0.140616 0.252375 -0.578727
v -0.048861 0.126442 -0.619348
v -0.047277 0.125582 -0.611512
v -0.143458 0.125325 -0.600351
v -0.047277 0.125582 -0.611512
v -0.141874 0.124465 -0.592514
v -0.143458 0.125325 -0.600351
v -0.047602 0.254352 -0.605561
v -0.048861 0.126442 -0.619348
v -0.142200 0.253235 -0.586563
v -0.048861 0.126442 -0.619348
v -0.143458 0.125325 -0.600351
v -0.142200 0.253235 -0.586563
v -0.140616 0.252375 -0.578727
v -0.141874 0.124465 -0.592514
v -0.046018 0.253491 -0.597724
v -0.141874 0.124465 -0.592514
v -0.047277 0.125582 -0.611512
v -0.046018 0.253491 -0.597724
vn -0.9804 -0.0116 0.1969
vn 0.9804 0.0116 -0.1969
vn 0.0098 0.9942 0.1072
vn -0.0098 -0.9942 -0.1072
vn -0.1970 0.1070 -0.9746
vn 0.1970 -0.1070 0.9746
vt 0.000000 0.000000
vt 0.000000 1.000000
vt 0.062500 0.000000
vt 0.062500 1.000000
vt 0.000000 0.062500
vt 0.750000 0.000000
vt 0.750000 0.062500
vt 0.125000 0.000000
vt 0.125000 1.000000
vt 0.875000 0.000000
vt 0.875000 1.000000
s 0
usemtl spruce_log.png.001
f 1/1/1 2/2/1 3/3/1
f 4/2/1 5/4/1 6/3/1
f 7/1/2 8/2/2 9/3/2
f 10/2/2 11/4/2 12/3/2
f 13/1/3 14/5/3 15/6/3
f 16/5/3 17/7/3 18/6/3
f 19/1/4 20/5/4 21/6/4
f 22/5/4 23/7/4 24/6/4
f 25/8/5 26/9/5 27/10/5
f 28/9/5 29/11/5 30/10/5
usemtl texture.001
f 31/8/6 32/9/6 33/10/6
f 34/9/6 35/11/6 36/10/6
