# Blender 5.1.2
# www.blender.org
mtllib picaxe.mtl
o Pico_Diamante
v -0.360927 0.137151 -1.622147
v -0.350648 0.130301 -1.618615
v -0.358356 0.121144 -1.613944
v -0.368634 0.127995 -1.617476
v -0.350675 0.136156 -1.607179
v -0.358383 0.127000 -1.602509
v -0.368661 0.133850 -1.606041
v -0.394334 0.173710 -1.640946
v -0.384056 0.166859 -1.637414
v -0.394361 0.179565 -1.629510
v -0.402042 0.164553 -1.636275
v -0.399471 0.148546 -1.628073
v -0.402069 0.170409 -1.624840
v -0.391790 0.163558 -1.621308
v -0.399498 0.154402 -1.616637
v -0.409749 0.155397 -1.631605
v -0.407178 0.139390 -1.623402
v -0.409776 0.161253 -1.620169
v -0.417457 0.146241 -1.626934
v -0.417484 0.152096 -1.615499
v -0.407205 0.145246 -1.611967
v -0.414913 0.136089 -1.607296
v -0.425164 0.137084 -1.622264
v -0.432872 0.127928 -1.617593
v -0.425191 0.142940 -1.610828
v -0.432899 0.133783 -1.606158
v -0.420022 0.105070 -1.605859
v -0.430301 0.111921 -1.609391
v -0.422620 0.126933 -1.602626
v -0.420049 0.110926 -1.594423
v -0.430327 0.117776 -1.597955
v -0.402036 0.107376 -1.606997
v -0.412314 0.114227 -1.610529
v -0.394355 0.122388 -1.600232
v -0.402063 0.113232 -1.595562
v -0.412341 0.120082 -1.599094
v -0.396899 0.132539 -1.619870
v -0.394328 0.116533 -1.611668
v -0.386648 0.131545 -1.604903
v -0.378913 0.134845 -1.621008
v -0.386621 0.125689 -1.616338
v -0.378940 0.140701 -1.609573
v -0.371206 0.144002 -1.625679
v -0.371233 0.149857 -1.614243
v -0.389219 0.147551 -1.613105
v -0.376348 0.176016 -1.642084
v -0.384083 0.172715 -1.625978
v -0.340403 0.186483 -1.632925
v -0.322390 0.182933 -1.645499
v -0.330097 0.173777 -1.640828
v -0.322417 0.188789 -1.634063
v -0.312138 0.181938 -1.630531
v -0.312111 0.176083 -1.641967
v -0.301859 0.175088 -1.626999
v -0.309567 0.165931 -1.622329
v -0.301832 0.169232 -1.638435
v -0.299261 0.153225 -1.630232
v -0.291554 0.162382 -1.634903
v -0.281275 0.155531 -1.631371
v -0.288982 0.146375 -1.626700
v -0.291580 0.168237 -1.623467
v -0.281302 0.161387 -1.619935
v -0.270996 0.148681 -1.627838
v -0.278704 0.139524 -1.623168
v -0.271023 0.154536 -1.616403
v -0.278731 0.145380 -1.611733
v -0.268425 0.132674 -1.619636
v -0.276132 0.123517 -1.614965
v -0.268452 0.138529 -1.608200
v -0.276159 0.129373 -1.603530
v -0.294118 0.121211 -1.613827
v -0.286438 0.136223 -1.607062
v -0.294145 0.127067 -1.602392
v -0.304424 0.133917 -1.605924
v -0.306968 0.144069 -1.625562
v -0.304397 0.128062 -1.617359
v -0.296717 0.143074 -1.610594
v -0.314703 0.140768 -1.609456
v -0.317247 0.150919 -1.629094
v -0.314676 0.134912 -1.620891
v -0.306995 0.149924 -1.614126
v -0.324955 0.141763 -1.624423
v -0.317274 0.156775 -1.617658
v -0.324982 0.147619 -1.612988
v -0.414886 0.130234 -1.618732
v -0.404607 0.123383 -1.615200
v -0.422593 0.121077 -1.614061
v -0.404634 0.129239 -1.603764
v -0.286411 0.130368 -1.618498
v -0.296690 0.137218 -1.622030
v -0.289009 0.152230 -1.615265
v -0.366070 0.169165 -1.638552
v -0.368668 0.191028 -1.635319
v -0.366097 0.175021 -1.627116
v -0.376375 0.181871 -1.630648
v -0.340376 0.180627 -1.644361
v -0.360933 0.194328 -1.651425
v -0.350655 0.187478 -1.647893
v -0.358362 0.178322 -1.643222
v -0.368641 0.185172 -1.646754
v -0.360960 0.200184 -1.639989
v -0.350682 0.193334 -1.636457
v -0.358389 0.184177 -1.631787
v -0.348083 0.171471 -1.639690
v -0.355818 0.168170 -1.623584
v -0.381484 0.150852 -1.629211
v -0.391763 0.157703 -1.632743
v -0.319818 0.166926 -1.637296
v -0.337805 0.164620 -1.636158
v -0.330124 0.179632 -1.629393
v -0.319845 0.172782 -1.625861
v -0.389192 0.141696 -1.624540
v -0.396926 0.138395 -1.608435
v -0.381511 0.156708 -1.617775
v -0.299288 0.159081 -1.618797
v -0.309540 0.160076 -1.633764
v -0.327553 0.163625 -1.621191
v -0.327526 0.157770 -1.632626
v -0.335233 0.148613 -1.627956
v -0.345512 0.155464 -1.631488
v -0.348110 0.177327 -1.628255
v -0.337832 0.170476 -1.624723
v -0.345539 0.161320 -1.620052
v -0.373804 0.165864 -1.622446
v -0.355791 0.162315 -1.635020
v -0.363498 0.153158 -1.630349
v -0.373777 0.160009 -1.633881
v -0.363525 0.159014 -1.618914
v -0.353247 0.152163 -1.615382
v -0.342941 0.139457 -1.623285
v -0.342968 0.145313 -1.611850
v -0.340397 0.129306 -1.603647
v -0.342935 0.082280 -1.594007
v -0.342961 0.088135 -1.582572
v -0.332683 0.081285 -1.579039
v -0.340390 0.072128 -1.574369
v -0.327540 0.049271 -1.562634
v -0.360954 0.143007 -1.610711
v -0.348077 0.114294 -1.610412
v -0.366063 0.111988 -1.609274
v -0.348104 0.120149 -1.598977
v -0.355811 0.110993 -1.594306
v -0.366090 0.117843 -1.597838
v -0.355785 0.105137 -1.605742
v -0.345506 0.098287 -1.602210
v -0.353213 0.089130 -1.597539
v -0.363492 0.095981 -1.601071
v -0.345533 0.104142 -1.590774
v -0.363519 0.101836 -1.589636
v -0.350642 0.073123 -1.589337
v -0.360921 0.079974 -1.592869
v -0.353240 0.094986 -1.586104
v -0.360948 0.085830 -1.581433
v -0.358349 0.063967 -1.584666
v -0.350669 0.078979 -1.577901
v -0.348098 0.062972 -1.569699
v -0.358376 0.069823 -1.573231
v -0.348071 0.057116 -1.581134
v -0.337792 0.050266 -1.577602
v -0.345499 0.041109 -1.572931
v -0.355778 0.047960 -1.576464
v -0.337819 0.056121 -1.566167
v -0.355805 0.053816 -1.565028
v -0.342928 0.025103 -1.564729
v -0.353207 0.031953 -1.568261
v -0.345526 0.046965 -1.561496
v -0.335248 0.040115 -1.557964
v -0.353234 0.037809 -1.556826
v -0.353220 0.146308 -1.626817
v -0.335260 0.154469 -1.616520
v -0.332662 0.132607 -1.619753
v -0.332689 0.138462 -1.608317
v -0.340370 0.123450 -1.615083
v -0.330091 0.116600 -1.611550
v -0.330118 0.122455 -1.600115
v -0.337798 0.107443 -1.606880
v -0.327520 0.100593 -1.603348
v -0.337825 0.113299 -1.595445
v -0.327547 0.106448 -1.591913
v -0.335254 0.097292 -1.587242
v -0.335227 0.091436 -1.598677
v -0.324948 0.084586 -1.595145
v -0.332656 0.075429 -1.590475
v -0.324975 0.090441 -1.583710
v -0.322377 0.068579 -1.586943
v -0.330085 0.059422 -1.582272
v -0.340363 0.066273 -1.585804
v -0.322404 0.074434 -1.575507
v -0.319806 0.052572 -1.578740
v -0.327513 0.043415 -1.574070
v -0.330111 0.065278 -1.570837
v -0.319833 0.058427 -1.567305
v -0.317235 0.036565 -1.570538
v -0.317261 0.042420 -1.559102
v -0.324969 0.033264 -1.554432
v -0.335221 0.034259 -1.569399
v -0.324942 0.027408 -1.565867
v -0.332676 0.024108 -1.549761
v -0.314663 0.020558 -1.562335
v -0.314690 0.026413 -1.550900
v -0.340357 0.009096 -1.556526
v -0.350636 0.015946 -1.560058
v -0.342955 0.030958 -1.553293
v -0.340384 0.014951 -1.545091
v -0.350663 0.021802 -1.548623
v -0.332649 0.018252 -1.561197
v -0.322371 0.011401 -1.557665
v -0.330078 0.002245 -1.552994
v -0.322398 0.017257 -1.546229
v -0.330105 0.008101 -1.541559
vn 0.0021 -0.4558 -0.8901
vn -0.0021 0.4558 0.8901
vn -0.5999 -0.7127 0.3635
vn -0.8001 0.5332 -0.2749
vn 0.5999 0.7127 -0.3635
vn 0.8001 -0.5332 0.2749
vt 0.222222 0.192308
vt 0.277778 0.192308
vt 0.277778 0.230769
vt 0.222222 0.230769
vt 0.500000 0.692308
vt 0.500000 0.730769
vt 0.444444 0.730769
vt 0.444444 0.692308
vt 0.944444 0.115385
vt 0.888889 0.115385
vt 0.888889 0.076923
vt 0.944444 0.076923
vt 0.888889 0.346154
vt 0.888889 0.384615
vt 0.833333 0.384615
vt 0.833333 0.346154
vt 0.000000 0.153846
vt 0.055556 0.153846
vt 0.055556 0.192308
vt 0.000000 0.192308
vt 0.722222 0.653846
vt 0.722222 0.692308
vt 0.666667 0.692308
vt 0.666667 0.653846
vt 1.000000 0.269231
vt 0.944444 0.269231
vt 0.944444 0.230769
vt 1.000000 0.230769
vt 0.722222 0.192308
vt 0.777778 0.192308
vt 0.777778 0.230769
vt 0.722222 0.230769
vt 0.055556 0.230769
vt 0.000000 0.230769
vt 0.722222 0.730769
vt 0.666667 0.730769
vt 0.777778 0.269231
vt 0.722222 0.269231
vt 0.055556 0.269231
vt 0.000000 0.269231
vt 0.722222 0.769231
vt 0.666667 0.769231
vt 0.777778 0.307692
vt 0.722222 0.307692
vt 0.055556 0.307692
vt 0.000000 0.307692
vt 0.722222 0.807692
vt 0.666667 0.807692
vt 0.777778 0.346154
vt 0.722222 0.346154
vt 0.055556 0.346154
vt 0.000000 0.346154
vt 0.722222 0.846154
vt 0.666667 0.846154
vt 1.000000 0.192308
vt 0.944444 0.192308
vt 0.944444 0.153846
vt 1.000000 0.153846
vt 0.777778 0.384615
vt 0.722222 0.384615
vt 0.111111 0.346154
vt 0.111111 0.384615
vt 0.055556 0.384615
vt 0.666667 0.884615
vt 0.611111 0.884615
vt 0.611111 0.846154
vt 0.888889 0.615385
vt 0.833333 0.615385
vt 0.833333 0.576923
vt 0.888889 0.576923
vt 0.888889 0.461538
vt 0.833333 0.461538
vt 0.833333 0.423077
vt 0.888889 0.423077
vt 0.111111 0.307692
vt 0.166667 0.307692
vt 0.166667 0.346154
vt 0.611111 0.807692
vt 0.555555 0.846154
vt 0.555555 0.807692
vt 0.833333 0.038462
vt 0.777778 0.038462
vt 0.777778 0.000000
vt 0.833333 0.000000
vt 0.888889 0.038462
vt 0.944444 0.038462
vt 0.111111 0.269231
vt 0.166667 0.269231
vt 0.611111 0.769231
vt 0.555555 0.769231
vt 0.833333 0.076923
vt 0.777778 0.076923
vt 0.111111 0.230769
vt 0.166667 0.230769
vt 0.611111 0.730769
vt 0.555555 0.730769
vt 0.833333 0.115385
vt 0.777778 0.115385
vt 0.111111 0.192308
vt 0.166667 0.192308
vt 0.611111 0.692308
vt 0.555555 0.692308
vt 0.833333 0.153846
vt 0.777778 0.153846
vt 0.055556 0.115385
vt 0.111111 0.115385
vt 0.111111 0.153846
vt 0.666666 0.615385
vt 0.611111 0.653846
vt 0.611111 0.615385
vt 0.166667 0.038462
vt 0.222222 0.038462
vt 0.222222 0.076923
vt 0.166667 0.076923
vt 0.555555 0.538462
vt 0.555555 0.576923
vt 0.500000 0.576923
vt 0.500000 0.538462
vt 0.833333 0.192308
vt 0.222222 0.000000
vt 0.277778 0.000000
vt 0.277778 0.038462
vt 0.500000 0.500000
vt 0.444444 0.538462
vt 0.444444 0.500000
vt 0.722222 0.000000
vt 0.722222 0.038462
vt 1.000000 0.038462
vt 1.000000 0.076923
vt 0.333333 0.000000
vt 0.333333 0.038462
vt 0.388889 0.538462
vt 0.388889 0.500000
vt 0.722222 0.076923
vt 0.388889 0.000000
vt 0.388889 0.038462
vt 0.333333 0.538462
vt 0.333333 0.500000
vt 0.722222 0.115385
vt 0.444444 0.000000
vt 0.444444 0.038462
vt 0.277778 0.538462
vt 0.277778 0.500000
vt 0.722222 0.153846
vt 0.500000 0.000000
vt 0.500000 0.038462
vt 0.222222 0.538462
vt 0.222222 0.500000
vt 0.888889 0.538462
vt 0.888889 0.500000
vt 0.944444 0.500000
vt 0.944444 0.538462
vt 0.555555 0.038462
vt 0.555555 0.076923
vt 0.500000 0.076923
vt 0.222222 0.576923
vt 0.166667 0.576923
vt 0.166667 0.538462
vt 0.777778 0.576923
vt 0.777778 0.538462
vt 0.833333 0.538462
vt 0.777778 0.461538
vt 0.833333 0.500000
vt 0.777778 0.500000
vt 0.888889 0.269231
vt 0.833333 0.269231
vt 0.833333 0.230769
vt 0.888889 0.230769
vt 0.444444 0.076923
vt 0.500000 0.115385
vt 0.444444 0.115385
vt 0.277778 0.576923
vt 0.277778 0.615385
vt 0.222222 0.615385
vt 0.777778 0.423077
vt 0.722222 0.538462
vt 0.722222 0.500000
vt 0.388889 0.076923
vt 0.388889 0.115385
vt 0.333333 0.576923
vt 0.333333 0.615385
vt 0.722222 0.461538
vt 0.333333 0.076923
vt 0.333333 0.115385
vt 0.388889 0.576923
vt 0.388889 0.615385
vt 0.722222 0.423077
vt 0.277778 0.076923
vt 0.277778 0.115385
vt 0.444444 0.576923
vt 0.444444 0.615385
vt 0.055556 0.076923
vt 0.111111 0.076923
vt 0.666666 0.576923
vt 0.611111 0.576923
vt 0.833333 0.307692
vt 0.111111 0.038462
vt 0.611111 0.538462
vt 0.055555 0.038462
vt 0.666666 0.538461
vt 0.166667 0.115385
vt 0.555555 0.615385
vt 0.222222 0.115385
vt 0.500000 0.615385
vt 0.166667 0.153846
vt 0.555555 0.653846
vt 0.222222 0.153846
vt 0.500000 0.653846
vt 0.277778 0.153846
vt 0.444444 0.653846
vt 0.333333 0.192308
vt 0.333333 0.230769
vt 0.388889 0.730769
vt 0.388889 0.692308
vt 0.388889 0.230769
vt 0.388889 0.269231
vt 0.333333 0.269231
vt 0.388889 0.769231
vt 0.333333 0.769231
vt 0.333333 0.730769
vt 0.444444 0.269231
vt 0.444444 0.307692
vt 0.388889 0.307692
vt 0.333333 0.807692
vt 0.277778 0.807692
vt 0.277778 0.769231
vt 0.500000 0.307692
vt 0.500000 0.346154
vt 0.444444 0.346154
vt 0.277778 0.846154
vt 0.222222 0.846154
vt 0.222222 0.807692
vt 0.555555 0.346154
vt 0.555555 0.384615
vt 0.500000 0.384615
vt 0.222222 0.884615
vt 0.166667 0.884615
vt 0.166667 0.846154
vt 0.611111 0.384615
vt 0.611111 0.423077
vt 0.555555 0.423077
vt 0.166667 0.923077
vt 0.111111 0.923077
vt 0.111111 0.884615
vt 0.277778 0.269231
vt 0.444444 0.769231
vt 0.333333 0.307692
vt 0.388889 0.807692
vt 0.944444 0.000000
vt 1.000000 0.000000
vt 0.388889 0.346154
vt 0.333333 0.846154
vt 0.888889 0.153846
vt 0.888889 0.192308
vt 0.944444 0.615385
vt 0.944444 0.653846
vt 0.888889 0.653846
vt 0.444444 0.384615
vt 0.277778 0.884615
vt 0.944444 0.346154
vt 0.944444 0.384615
vt 0.500000 0.423077
vt 0.222222 0.923077
vt 0.833333 0.653846
vt 0.777778 0.653846
vt 0.777778 0.615385
vt 0.611111 0.461538
vt 0.555555 0.461538
vt 0.166667 0.961538
vt 0.111111 0.961538
vt 0.722222 0.576923
vt 0.944444 0.423077
vt 0.333333 0.153846
vt 0.388889 0.653846
vt 0.888889 0.307692
vt 0.944444 0.307692
vt 0.388889 0.192308
vt 0.333333 0.692308
vt 0.944444 0.576923
vt 0.444444 0.230769
vt 0.277778 0.730769
vt 0.722222 0.615385
vt 0.500000 0.269231
vt 0.222222 0.769231
vt 0.555555 0.307692
vt 0.166667 0.807692
vt 0.944444 0.461538
vt 0.611111 0.346154
vt 0.111111 0.846154
vt 0.888889 0.000000
vt 0.666667 0.384615
vt 0.666667 0.423077
vt 0.055556 0.923077
vt 0.055556 0.884615
vt 0.666667 0.461538
vt 0.055556 0.961538
vt 0.000000 0.961538
vt 0.000000 0.923077
vt 0.666667 0.500000
vt 0.611111 0.500000
vt 0.111111 1.000000
vt 0.055556 1.000000
vt 1.000000 0.115385
vt 0.000000 1.000000
s 1
usemtl Material.009
f 1/1/1 2/2/1 3/3/1 4/4/1
f 138/5/2 7/6/2 6/7/2 5/8/2
f 3/9/3 6/10/3 7/11/3 4/12/3
f 138/13/4 1/14/4 4/15/4 7/16/4
f 8/17/1 9/18/1 107/19/1 11/20/1
f 10/21/2 13/22/2 14/23/2 47/24/2
f 8/25/5 10/26/5 47/27/5 9/28/5
f 10/29/4 8/30/4 11/31/4 13/32/4
f 11/20/1 107/19/1 12/33/1 16/34/1
f 13/22/2 18/35/2 15/36/2 14/23/2
f 13/32/4 11/31/4 16/37/4 18/38/4
f 16/34/1 12/33/1 17/39/1 19/40/1
f 18/35/2 20/41/2 21/42/2 15/36/2
f 18/38/4 16/37/4 19/43/4 20/44/4
f 19/40/1 17/39/1 85/45/1 23/46/1
f 20/41/2 25/47/2 22/48/2 21/42/2
f 20/44/4 19/43/4 23/49/4 25/50/4
f 23/46/1 85/45/1 87/51/1 24/52/1
f 25/47/2 26/53/2 29/54/2 22/48/2
f 87/55/3 29/56/3 26/57/3 24/58/3
f 25/50/4 23/49/4 24/59/4 26/60/4
f 87/51/1 33/61/1 27/62/1 28/63/1
f 29/54/2 31/64/2 30/65/2 36/66/2
f 33/67/6 36/68/6 30/69/6 27/70/6
f 27/71/3 30/72/3 31/73/3 28/74/3
f 29/14/4 87/74/4 28/73/4 31/15/4
f 86/75/1 38/76/1 32/77/1 33/61/1
f 88/78/2 36/66/2 35/79/2 34/80/2
f 38/81/6 34/82/6 35/83/6 32/84/6
f 32/12/3 35/11/3 36/85/3 33/86/3
f 37/87/1 41/88/1 38/76/1 86/75/1
f 113/89/2 88/78/2 34/80/2 39/90/2
f 41/91/6 39/92/6 34/82/6 38/81/6
f 112/93/1 40/94/1 41/88/1 37/87/1
f 45/95/2 113/89/2 39/90/2 42/96/2
f 40/97/6 42/98/6 39/92/6 41/91/6
f 106/99/1 43/100/1 40/94/1 112/93/1
f 114/101/2 45/95/2 42/96/2 44/102/2
f 43/103/6 44/104/6 42/98/6 40/97/6
f 46/105/1 92/106/1 127/107/1 9/18/1
f 95/108/2 47/24/2 124/109/2 94/110/2
f 95/49/4 46/16/4 9/15/4 47/59/4
f 96/111/1 50/112/1 109/113/1 104/114/1
f 48/115/2 121/116/2 122/117/2 110/118/2
f 96/119/5 48/30/5 110/104/5 50/103/5
f 49/120/1 53/121/1 108/122/1 50/112/1
f 51/123/2 110/118/2 111/124/2 52/125/2
f 49/126/5 51/83/5 52/82/5 53/127/5
f 51/128/4 49/129/4 50/12/4 110/86/4
f 53/121/1 56/130/1 116/131/1 108/122/1
f 52/125/2 111/124/2 55/132/2 54/133/2
f 53/127/5 52/82/5 54/92/5 56/134/5
f 56/130/1 58/135/1 57/136/1 116/131/1
f 54/133/2 55/132/2 115/137/2 61/138/2
f 56/134/5 54/92/5 61/98/5 58/139/5
f 58/135/1 59/140/1 60/141/1 57/136/1
f 61/138/2 115/137/2 91/142/2 62/143/2
f 58/139/5 61/98/5 62/104/5 59/144/5
f 59/140/1 63/145/1 64/146/1 60/141/1
f 62/143/2 91/142/2 66/147/2 65/148/2
f 59/144/5 62/104/5 65/30/5 63/29/5
f 63/149/6 65/150/6 66/151/6 64/152/6
f 64/146/1 67/153/1 68/154/1 89/155/1
f 66/147/2 72/156/2 70/157/2 69/158/2
f 64/69/5 66/159/5 69/160/5 67/161/5
f 67/162/6 69/72/6 70/163/6 68/164/6
f 68/165/3 70/166/3 72/167/3 89/168/3
f 90/169/1 89/155/1 71/170/1 76/171/1
f 77/172/2 74/173/2 73/174/2 72/156/2
f 89/162/6 72/175/6 73/73/6 71/72/6
f 71/160/3 73/176/3 74/177/3 76/164/3
f 75/178/1 90/169/1 76/171/1 80/179/1
f 81/180/2 78/181/2 74/173/2 77/172/2
f 76/164/3 74/177/3 78/182/3 80/162/3
f 79/183/1 75/178/1 80/179/1 82/184/1
f 83/185/2 84/186/2 78/181/2 81/180/2
f 80/162/3 78/182/3 84/187/3 82/175/3
f 118/188/1 79/183/1 82/184/1 119/189/1
f 117/190/2 170/191/2 84/186/2 83/185/2
f 82/175/3 84/187/3 170/60/3 119/59/3
f 85/45/1 86/75/1 33/61/1 87/51/1
f 22/48/2 29/54/2 36/66/2 88/78/2
f 60/141/1 64/146/1 89/155/1 90/169/1
f 91/142/2 77/172/2 72/156/2 66/147/2
f 57/136/1 60/141/1 90/169/1 75/178/1
f 115/137/2 81/180/2 77/172/2 91/142/2
f 17/39/1 37/87/1 86/75/1 85/45/1
f 21/42/2 22/48/2 88/78/2 113/89/2
f 100/192/1 99/193/1 92/106/1 46/105/1
f 93/194/2 95/108/2 94/110/2 103/195/2
f 93/43/4 100/196/4 46/16/4 95/49/4
f 98/197/1 96/111/1 104/114/1 99/193/1
f 102/198/2 103/195/2 121/116/2 48/115/2
f 98/167/5 102/31/5 48/30/5 96/119/5
f 97/199/1 98/197/1 99/193/1 100/192/1
f 101/200/2 93/194/2 103/195/2 102/198/2
f 97/166/5 101/37/5 102/31/5 98/167/5
f 101/37/4 97/166/4 100/196/4 93/43/4
f 99/193/1 104/114/1 125/201/1 92/106/1
f 103/195/2 94/110/2 105/202/2 121/116/2
f 9/18/1 127/107/1 106/99/1 107/19/1
f 47/24/2 14/23/2 114/101/2 124/109/2
f 50/112/1 108/122/1 118/188/1 109/113/1
f 110/118/2 122/117/2 117/190/2 111/124/2
f 12/33/1 112/93/1 37/87/1 17/39/1
f 15/36/2 21/42/2 113/89/2 45/95/2
f 107/19/1 106/99/1 112/93/1 12/33/1
f 14/23/2 15/36/2 45/95/2 114/101/2
f 116/131/1 57/136/1 75/178/1 79/183/1
f 55/132/2 83/185/2 81/180/2 115/137/2
f 108/122/1 116/131/1 79/183/1 118/188/1
f 111/124/2 117/190/2 83/185/2 55/132/2
f 109/113/1 118/188/1 119/189/1 120/203/1
f 122/117/2 123/204/2 170/191/2 117/190/2
f 104/114/1 109/113/1 120/203/1 125/201/1
f 121/116/2 105/202/2 123/204/2 122/117/2
f 127/107/1 126/205/1 43/100/1 106/99/1
f 124/109/2 114/101/2 44/102/2 128/206/2
f 92/106/1 125/201/1 126/205/1 127/107/1
f 94/110/2 124/109/2 128/206/2 105/202/2
f 125/201/1 120/203/1 169/207/1 126/205/1
f 105/202/2 128/206/2 129/208/2 123/204/2
f 169/207/1 130/209/1 2/2/1 1/1/1
f 129/208/2 138/5/2 5/8/2 131/210/2
f 2/2/1 173/211/1 139/212/1 3/3/1
f 5/8/2 6/7/2 141/213/2 132/214/2
f 139/212/1 176/215/1 145/216/1 144/217/1
f 141/213/2 142/218/2 148/219/2 178/220/2
f 145/216/1 181/221/1 133/222/1 146/223/1
f 148/219/2 152/224/2 134/225/2 180/226/2
f 133/222/1 183/227/1 187/228/1 150/229/1
f 134/225/2 155/230/2 136/231/2 135/232/2
f 187/228/1 186/233/1 159/234/1 158/235/1
f 136/231/2 156/236/2 162/237/2 191/238/2
f 159/234/1 190/239/1 196/240/1 160/241/1
f 162/237/2 166/242/2 167/243/2 137/244/2
f 126/205/1 169/207/1 1/1/1 43/100/1
f 128/206/2 44/102/2 138/5/2 129/208/2
f 1/10/3 138/97/3 44/91/3 43/11/3
f 3/3/1 139/212/1 144/217/1 140/245/1
f 6/7/2 143/246/2 142/218/2 141/213/2
f 144/70/3 142/69/3 143/161/3 140/149/3
f 6/73/4 3/175/4 140/59/4 143/15/4
f 144/217/1 145/216/1 146/223/1 147/247/1
f 142/218/2 149/248/2 152/224/2 148/219/2
f 146/163/3 152/161/3 149/160/3 147/164/3
f 142/249/4 144/250/4 147/128/4 149/86/4
f 146/223/1 133/222/1 150/229/1 151/251/1
f 152/224/2 153/252/2 155/230/2 134/225/2
f 150/253/3 155/254/3 153/119/3 151/103/3
f 152/67/4 146/255/4 151/256/4 153/257/4
f 150/229/1 187/228/1 158/235/1 154/258/1
f 155/230/2 157/259/2 156/236/2 136/231/2
f 158/26/3 156/165/3 157/168/3 154/27/3
f 155/13/4 150/260/4 154/261/4 157/14/4
f 158/235/1 159/234/1 160/241/1 161/262/1
f 156/236/2 163/263/2 166/242/2 162/237/2
f 160/119/3 166/254/3 163/168/3 161/167/3
f 156/68/4 158/264/4 161/265/4 163/266/4
f 160/241/1 196/240/1 164/267/1 165/268/1
f 166/242/2 168/269/2 203/270/2 167/243/2
f 164/163/3 203/150/3 168/149/3 165/161/3
f 166/160/4 160/159/4 165/271/4 168/176/4
f 120/203/1 119/189/1 130/209/1 169/207/1
f 123/204/2 129/208/2 131/210/2 170/191/2
f 119/272/6 170/74/6 131/14/6 130/261/6
f 130/209/1 171/273/1 173/211/1 2/2/1
f 131/210/2 5/8/2 132/214/2 172/274/2
f 130/260/5 131/13/5 172/275/5 171/276/5
f 171/57/6 172/56/6 132/254/6 173/253/6
f 173/211/1 174/277/1 176/215/1 139/212/1
f 132/214/2 141/213/2 178/220/2 175/278/2
f 173/276/5 132/275/5 175/165/5 174/26/5
f 174/279/6 175/70/6 178/149/6 176/152/6
f 176/215/1 177/280/1 181/221/1 145/216/1
f 178/220/2 148/219/2 180/226/2 179/281/2
f 176/68/5 178/67/5 179/257/5 177/264/5
f 177/282/6 179/271/6 180/159/6 181/266/6
f 181/221/1 182/283/1 183/227/1 133/222/1
f 180/226/2 134/225/2 135/232/2 184/284/2
f 181/159/5 180/69/5 184/68/5 182/266/5
f 182/163/6 184/72/6 135/71/6 183/150/6
f 183/227/1 185/285/1 186/233/1 187/228/1
f 135/232/2 136/231/2 191/238/2 188/286/2
f 183/265/5 135/21/5 188/282/5 185/266/5
f 185/287/6 188/71/6 191/74/6 186/272/6
f 186/233/1 189/288/1 190/239/1 159/234/1
f 191/238/2 162/237/2 137/244/2 192/289/2
f 186/151/5 191/150/5 192/71/5 189/287/5
f 189/86/6 192/85/6 137/290/6 190/249/6
f 190/239/1 193/291/1 197/292/1 196/240/1
f 137/244/2 167/243/2 195/293/2 194/294/2
f 190/27/5 137/168/5 194/254/5 193/56/5
f 193/28/6 194/27/6 195/56/6 197/55/6
f 196/240/1 197/292/1 206/295/1 164/267/1
f 167/243/2 203/270/2 198/296/2 195/293/2
f 197/292/1 199/187/1 207/182/1 206/295/1
f 195/293/2 198/296/2 209/297/2 200/298/2
f 197/255/5 195/67/5 200/70/5 199/279/5
f 199/84/6 200/290/6 209/85/6 207/81/6
f 164/267/1 206/295/1 201/299/1 202/300/1
f 203/270/2 205/301/2 204/302/2 198/296/2
f 201/275/3 204/196/3 205/166/3 202/165/3
f 203/129/4 164/303/4 202/9/4 205/12/4
f 206/295/1 207/182/1 208/177/1 201/299/1
f 198/296/2 204/302/2 210/304/2 209/297/2
f 207/81/6 209/85/6 210/11/6 208/91/6
f 208/13/3 210/16/3 204/196/3 201/275/3
