# Blender 5.1.2
# www.blender.org
mtllib pig.mtl
o Pig
v -0.780026 0.068202 -1.462111
v -0.724973 0.070833 -1.512286
v -0.830270 0.071085 -1.517089
v -0.775217 0.073715 -1.567264
v -0.780026 0.142634 -1.458209
v -0.724973 0.145265 -1.508384
v -0.830270 0.145516 -1.513186
v -0.775217 0.148147 -1.563361
v -0.824591 0.051427 -1.498048
v -0.755774 0.054715 -1.560767
v -0.925079 0.057192 -1.608003
v -0.856262 0.060480 -1.670722
v -0.824591 0.125859 -1.494146
v -0.755774 0.129147 -1.556864
v -0.925079 0.131624 -1.604101
v -0.856262 0.134912 -1.666820
v -0.766263 0.078164 -1.474167
v -0.738736 0.079479 -1.499254
v -0.766263 0.106076 -1.472703
v -0.738736 0.107391 -1.497791
v -0.759982 0.077804 -1.467295
v -0.732456 0.079119 -1.492382
v -0.759982 0.105715 -1.465831
v -0.732456 0.107031 -1.490919
v -0.855993 -0.002595 -1.535336
v -0.828467 -0.001280 -1.560423
v -0.855993 0.053229 -1.532409
v -0.828467 0.054544 -1.557496
v -0.830871 -0.004036 -1.507847
v -0.803345 -0.002721 -1.532934
v -0.830871 0.051788 -1.504920
v -0.803345 0.053103 -1.530008
v -0.814703 -0.000622 -1.572967
v -0.787177 0.000693 -1.598055
v -0.814703 0.055202 -1.570040
v -0.787177 0.056517 -1.595128
v -0.789581 -0.002063 -1.545478
v -0.762055 -0.000748 -1.570566
v -0.789581 0.053760 -1.542551
v -0.762055 0.055076 -1.567639
v -0.931359 0.001728 -1.617802
v -0.903833 0.003044 -1.642890
v -0.931359 0.057552 -1.614875
v -0.903833 0.058868 -1.639963
v -0.906237 0.000287 -1.590313
v -0.878711 0.001603 -1.615401
v -0.906237 0.056111 -1.587387
v -0.878711 0.057426 -1.612474
v -0.890069 0.003701 -1.655434
v -0.862543 0.005017 -1.680521
v -0.890069 0.059525 -1.652507
v -0.862543 0.060841 -1.677594
v -0.864947 0.002260 -1.627945
v -0.837421 0.003576 -1.653032
v -0.864947 0.058084 -1.625018
v -0.837421 0.059399 -1.650105
vn -0.0000 -0.9986 -0.0524
vn -0.0000 0.9986 0.0524
vn 0.6741 -0.0387 0.7376
vn 0.7386 0.0353 -0.6732
vn -0.6741 0.0387 -0.7376
vn -0.7386 -0.0353 0.6732
vt 0.250000 0.875000
vt 0.250000 1.000000
vt 0.375000 1.000000
vt 0.375000 0.875000
vt 0.125000 0.875000
vt 0.125000 1.000000
vt 0.125000 0.750000
vt 0.250000 0.750000
vt 0.375000 0.750000
vt 0.500000 0.750000
vt 0.500000 0.875000
vt 0.000000 0.750000
vt 0.000000 0.875000
vt 0.562500 0.750000
vt 0.562500 0.500000
vt 0.725000 0.500000
vt 0.725000 0.750000
vt 1.000000 0.750000
vt 0.850000 0.750000
vt 0.850000 0.500000
vt 1.000000 0.500000
vt 0.725000 0.875000
vt 0.562500 0.875000
vt 0.876033 0.750000
vt 0.726033 0.750000
vt 0.726044 0.875000
vt 0.876033 0.875000
vt 0.437491 0.750000
vt 0.437500 0.500000
vt 0.265943 0.687500
vt 0.328000 0.687500
vt 0.328000 0.734000
vt 0.265943 0.733957
vt 0.328000 0.750000
vt 0.387500 0.750000
vt 0.387500 0.734000
vt 0.343000 0.687500
vt 0.343000 0.734000
vt 0.265943 0.750000
vt 0.250000 0.733957
vt 0.250000 0.687500
vt 0.250000 0.600000
vt 0.187500 0.687500
vt 0.187500 0.600000
vt 0.062500 0.600000
vt 0.125000 0.600000
vt 0.125000 0.687500
vt 0.062500 0.687500
vt 0.125000 0.750008
vt 0.187500 0.750008
vt 0.187500 0.687508
vt 0.125000 0.687508
vt 0.062500 0.750000
vt 0.000000 0.687500
vt 0.000000 0.600000
s 1
usemtl 02_-_Default
f 1/1/1 3/2/1 4/3/1 2/4/1
f 5/5/2 6/1/2 8/2/2 7/6/2
f 1/7/3 2/8/3 6/1/3 5/5/3
f 2/8/4 4/9/4 8/4/4 6/1/4
f 4/9/5 3/10/5 7/11/5 8/4/5
f 3/12/6 1/7/6 5/5/6 7/13/6
f 9/14/1 11/15/1 12/16/1 10/17/1
f 13/18/2 14/19/2 16/20/2 15/21/2
f 9/14/3 10/17/3 14/22/3 13/23/3
f 10/17/4 12/16/4 16/20/4 14/19/4
f 12/24/5 11/25/5 15/26/5 16/27/5
f 11/15/6 9/14/6 13/28/6 15/29/6
f 21/30/3 22/31/3 24/32/3 23/33/3
f 17/34/1 18/35/1 22/36/1 21/32/1
f 18/37/4 20/38/4 24/32/4 22/31/4
f 20/34/2 19/39/2 23/33/2 24/32/2
f 19/40/6 17/41/6 21/30/6 23/33/6
f 25/42/5 27/41/5 28/43/5 26/44/5
f 29/45/3 30/46/3 32/47/3 31/48/3
f 25/49/1 26/50/1 30/51/1 29/52/1
f 26/44/4 28/43/4 32/47/4 30/46/4
f 28/49/2 27/53/2 31/48/2 32/47/2
f 27/54/6 25/55/6 29/45/6 31/48/6
f 33/42/5 35/41/5 36/43/5 34/44/5
f 37/45/3 38/46/3 40/47/3 39/48/3
f 33/49/1 34/50/1 38/51/1 37/52/1
f 34/44/4 36/43/4 40/47/4 38/46/4
f 36/49/2 35/53/2 39/48/2 40/47/2
f 35/54/6 33/55/6 37/45/6 39/48/6
f 41/42/5 43/41/5 44/43/5 42/44/5
f 45/45/3 46/46/3 48/47/3 47/48/3
f 41/49/1 42/50/1 46/51/1 45/52/1
f 42/44/4 44/43/4 48/47/4 46/46/4
f 44/49/2 43/53/2 47/48/2 48/47/2
f 43/54/6 41/55/6 45/45/6 47/48/6
f 49/42/5 51/41/5 52/43/5 50/44/5
f 53/45/3 54/46/3 56/47/3 55/48/3
f 49/49/1 50/50/1 54/51/1 53/52/1
f 50/44/4 52/43/4 56/47/4 54/46/4
f 52/49/2 51/53/2 55/48/2 56/47/2
f 51/54/6 49/55/6 53/45/6 55/48/6
