# Blender 5.1.2
# www.blender.org
mtllib sky.mtl
o Plane
v -0.841747 -1.306816 1.654778
v 1.158253 -1.303839 1.605123
v -0.841747 0.701101 1.582628
v 1.158253 0.704426 1.527161
v -0.841747 0.516575 1.622351
v -0.841747 0.332850 1.648695
v -0.841747 0.148955 1.677892
v -0.841747 -0.035621 1.718442
v -0.841747 -0.220923 1.771114
v -0.841747 -0.406675 1.831282
v -0.841747 -0.591977 1.883942
v -0.841747 -0.774575 1.891504
v -0.841747 -0.953669 1.840622
v -0.841747 -1.130193 1.746876
v 1.158253 -1.117815 1.540423
v 1.158253 -0.933938 1.511521
v 1.158253 -0.751492 1.506501
v 1.158253 -0.569486 1.508814
v 1.158253 -0.386650 1.497276
v 1.158253 -0.201557 1.448107
v 1.158253 -0.015426 1.381621
v 1.158253 0.168660 1.349235
v 1.158253 0.349337 1.373719
v 1.158253 0.527124 1.446400
v -0.708972 -1.307412 1.664715
v -0.566115 -1.306251 1.645357
v -0.423258 -1.303944 1.606873
v -0.280401 -1.301208 1.561239
v -0.137544 -1.298741 1.520082
v 0.005313 -1.297218 1.494689
v 0.148170 -1.297297 1.495999
v 0.291028 -1.298501 1.516096
v 0.433885 -1.299497 1.532698
v 0.576742 -1.300194 1.544318
v 0.719599 -1.300661 1.552109
v 0.862456 -1.301120 1.559772
v 1.005313 -1.301947 1.573556
v 1.005313 0.704091 1.532763
v 0.862456 0.702889 1.552808
v 0.719599 0.701618 1.574008
v 0.576742 0.700814 1.587417
v 0.433885 0.700783 1.587930
v 0.291028 0.701602 1.574277
v 0.148171 0.703109 1.549141
v 0.005313 0.703688 1.539477
v -0.137544 0.702848 1.553491
v -0.280401 0.701355 1.578384
v -0.423258 0.699895 1.602746
v -0.566115 0.699067 1.616556
v -0.708972 0.699389 1.611183
v 1.005313 -1.116041 1.510828
v 0.862456 -1.115482 1.501503
v 0.719599 -1.115434 1.500696
v 0.576742 -1.115497 1.501748
v 0.433885 -1.115408 1.500262
v 0.291028 -1.115039 1.494110
v 0.148171 -1.114405 1.483543
v 0.005313 -1.115075 1.494715
v -0.137544 -1.117637 1.537444
v -0.280401 -1.121288 1.598350
v -0.423258 -1.125208 1.663731
v -0.566115 -1.128555 1.719558
v -0.708972 -1.130469 1.751481
v 1.005313 -0.932267 1.483649
v 0.862456 -0.931888 1.477323
v 0.719599 -0.932167 1.481983
v 0.576742 -0.932730 1.491375
v 0.433885 -0.933296 1.500818
v 0.291028 -0.933680 1.507213
v 0.148171 -0.933797 1.509166
v 0.005313 -0.935196 1.532508
v -0.137544 -0.938488 1.587418
v -0.280401 -0.942838 1.659974
v -0.423258 -0.947396 1.735987
v -0.566115 -0.951294 1.801001
v -0.708972 -0.953649 1.840291
v 1.005313 -0.749907 1.480066
v 0.862456 -0.749601 1.474963
v 0.719599 -0.750064 1.482686
v 0.576742 -0.750984 1.498021
v 0.433885 -0.752091 1.516481
v 0.291028 -0.753159 1.534307
v 0.148171 -0.754015 1.548581
v 0.005313 -0.755935 1.580609
v -0.137544 -0.759446 1.639168
v -0.280401 -0.763806 1.711879
v -0.423258 -0.768260 1.786178
v -0.566115 -0.772045 1.849311
v -0.708972 -0.774385 1.888338
v 1.005313 -0.567993 1.483901
v 0.862456 -0.567693 1.478909
v 0.719599 -0.568215 1.487608
v 0.576742 -0.569322 1.506076
v 0.433885 -0.570777 1.530346
v 0.291028 -0.572339 1.556402
v 0.148171 -0.573770 1.580268
v 0.005313 -0.575926 1.616231
v -0.137544 -0.579180 1.670496
v -0.280401 -0.582965 1.733632
v -0.423258 -0.586711 1.796111
v -0.566115 -0.589841 1.848313
v -0.708972 -0.591772 1.880521
v 1.005313 -0.385300 1.474755
v 0.862456 -0.385038 1.470401
v 0.719599 -0.385592 1.479640
v 0.576742 -0.386783 1.499495
v 0.433885 -0.388401 1.526485
v 0.291028 -0.390208 1.556622
v 0.148171 -0.391938 1.585472
v 0.005313 -0.394083 1.621260
v -0.137544 -0.396876 1.667848
v -0.280401 -0.399919 1.718598
v -0.423258 -0.402813 1.766872
v -0.566115 -0.405161 1.806034
v -0.708972 -0.406565 1.829448
v 1.005313 -0.200475 1.430060
v 0.862456 -0.200438 1.429442
v 0.719599 -0.201172 1.441684
v 0.576742 -0.202487 1.463611
v 0.433885 -0.204168 1.491649
v 0.291028 -0.205977 1.521819
v 0.148171 -0.207654 1.549797
v 0.005313 -0.209676 1.583528
v -0.137544 -0.212269 1.626773
v -0.280401 -0.215056 1.673262
v -0.423258 -0.217669 1.716839
v -0.566115 -0.219745 1.751461
v -0.708972 -0.220928 1.771202
v 1.005313 -0.014749 1.370331
v 0.862456 -0.015147 1.376956
v 0.719599 -0.016233 1.395078
v 0.576742 -0.017731 1.420065
v 0.433885 -0.019383 1.447608
v 0.291028 -0.020949 1.473728
v 0.148171 -0.022215 1.494855
v 0.005313 -0.023992 1.524490
v -0.137544 -0.026621 1.568344
v -0.280401 -0.029595 1.617949
v -0.423258 -0.032428 1.665198
v -0.566115 -0.034655 1.702344
v -0.708972 -0.035834 1.722004
v 1.005313 0.168904 1.345168
v 0.862456 0.168043 1.359529
v 0.719599 0.166621 1.383246
v 0.576742 0.165031 1.409762
v 0.433885 0.163582 1.433938
v 0.291028 0.162496 1.452050
v 0.148171 0.161905 1.461897
v 0.005313 0.160566 1.484238
v -0.137544 0.157996 1.527094
v -0.280401 0.154878 1.579112
v -0.423258 0.151849 1.629632
v -0.566115 0.149507 1.668686
v -0.708972 0.148409 1.686998
v 1.005313 0.349219 1.375688
v 0.862456 0.348012 1.395819
v 0.719599 0.346411 1.422521
v 0.576742 0.344910 1.447557
v 0.433885 0.343849 1.465255
v 0.291028 0.343414 1.472505
v 0.148171 0.343631 1.468885
v 0.005313 0.342907 1.480965
v -0.137544 0.340671 1.518262
v -0.280401 0.337732 1.567268
v -0.423258 0.334841 1.615501
v -0.566115 0.332682 1.651505
v -0.708972 0.331882 1.664853
v 1.005313 0.526793 1.451912
v 0.862456 0.525457 1.474209
v 0.719599 0.523905 1.500093
v 0.576742 0.522686 1.520416
v 0.433885 0.522142 1.529498
v 0.291028 0.522403 1.525131
v 0.148171 0.523389 1.508702
v 0.005313 0.523363 1.509134
v -0.137544 0.521750 1.536024
v -0.280401 0.519396 1.575286
v -0.423258 0.517068 1.614117
v -0.566115 0.515456 1.641002
v -0.708972 0.515174 1.645710
vn 0.0339 -0.4145 0.9094
vn -0.1822 0.3187 0.9302
vn -0.1810 0.1483 0.9722
vn -0.1745 0.0232 0.9844
vn -0.1657 -0.0167 0.9860
vn -0.1525 0.0558 0.9867
vn -0.1256 0.2440 0.9616
vn -0.0886 0.3201 0.9432
vn -0.0491 0.1544 0.9868
vn -0.0068 -0.1506 0.9886
vn 0.0231 -0.3864 0.9221
vn -0.1450 0.1217 0.9819
vn 0.0626 0.0806 0.9948
vn 0.2145 0.0318 0.9762
vn 0.2917 -0.0174 0.9563
vn 0.2956 -0.0677 0.9529
vn 0.2191 -0.1230 0.9679
vn 0.0435 -0.1853 0.9817
vn -0.0688 -0.2489 0.9661
vn 0.0098 -0.3109 0.9504
vn 0.0891 -0.3579 0.9295
vn 0.1482 -0.3856 0.9107
vn 0.1704 -0.3964 0.9021
vn 0.1384 -0.3954 0.9080
vn -0.0930 0.1378 0.9861
vn 0.1088 0.1060 0.9884
vn 0.2520 0.0825 0.9642
vn 0.3247 0.0670 0.9434
vn 0.3319 0.0533 0.9418
vn 0.2695 0.0319 0.9625
vn 0.1197 -0.0101 0.9928
vn 0.0218 -0.0754 0.9969
vn 0.0883 -0.1413 0.9860
vn 0.1441 -0.1865 0.9718
vn 0.1759 -0.2063 0.9626
vn 0.1723 -0.2025 0.9640
vn 0.1192 -0.1810 0.9762
vn -0.0461 0.2005 0.9786
vn 0.1281 0.1817 0.9750
vn 0.2509 0.1787 0.9514
vn 0.3146 0.1877 0.9305
vn 0.3245 0.2006 0.9244
vn 0.2807 0.2069 0.9372
vn 0.1736 0.1918 0.9660
vn 0.1057 0.1462 0.9836
vn 0.1514 0.0949 0.9839
vn 0.1771 0.0644 0.9821
vn 0.1765 0.0595 0.9825
vn 0.1438 0.0789 0.9865
vn 0.0723 0.1150 0.9907
vn -0.0130 0.2652 0.9641
vn 0.1300 0.2545 0.9583
vn 0.2319 0.2554 0.9386
vn 0.2875 0.2655 0.9203
vn 0.3010 0.2794 0.9118
vn 0.2742 0.2900 0.9169
vn 0.2037 0.2874 0.9359
vn 0.1607 0.2645 0.9509
vn 0.1851 0.2376 0.9536
vn 0.1834 0.2267 0.9565
vn 0.1553 0.2340 0.9597
vn 0.1005 0.2572 0.9611
vn 0.0198 0.2894 0.9570
vn 0.0061 0.3038 0.9527
vn 0.1405 0.2880 0.9473
vn 0.2373 0.2639 0.9349
vn 0.2930 0.2386 0.9258
vn 0.3106 0.2165 0.9256
vn 0.2905 0.1998 0.9358
vn 0.2295 0.1901 0.9546
vn 0.1896 0.1844 0.9644
vn 0.2009 0.1819 0.9626
vn 0.1838 0.1852 0.9654
vn 0.1403 0.1944 0.9708
vn 0.0724 0.2086 0.9753
vn -0.0167 0.2258 0.9740
vn 0.0187 0.2696 0.9628
vn 0.1828 0.2406 0.9533
vn 0.2963 0.1819 0.9376
vn 0.3569 0.1119 0.9274
vn 0.3690 0.0449 0.9284
vn 0.3330 -0.0062 0.9429
vn 0.2439 -0.0273 0.9694
vn 0.1816 -0.0147 0.9833
vn 0.1929 0.0098 0.9812
vn 0.1762 0.0282 0.9839
vn 0.1325 0.0395 0.9904
vn 0.0624 0.0450 0.9970
vn -0.0326 0.0482 0.9983
vn 0.0247 0.0421 0.9988
vn 0.2415 0.0234 0.9701
vn 0.3747 -0.0228 0.9269
vn 0.4323 -0.0785 0.8983
vn 0.4287 -0.1314 0.8938
vn 0.3654 -0.1701 0.9152
vn 0.2302 -0.1787 0.9566
vn 0.1320 -0.1460 0.9804
vn 0.1520 -0.0977 0.9835
vn 0.1482 -0.0596 0.9872
vn 0.1177 -0.0354 0.9924
vn 0.0574 -0.0243 0.9981
vn -0.0353 -0.0214 0.9991
vn 0.0129 -0.2661 0.9639
vn 0.2597 -0.2506 0.9326
vn 0.4024 -0.2426 0.8827
vn 0.4576 -0.2438 0.8551
vn 0.4450 -0.2490 0.8602
vn 0.3625 -0.2502 0.8978
vn 0.1876 -0.2326 0.9543
vn 0.0564 -0.1812 0.9818
vn 0.0845 -0.1170 0.9895
vn 0.0974 -0.0611 0.9934
vn 0.0863 -0.0201 0.9961
vn 0.0433 0.0045 0.9991
vn -0.0399 0.0163 0.9991
vn -0.0147 -0.4590 0.8883
vn 0.2252 -0.4222 0.8781
vn 0.3700 -0.3691 0.8526
vn 0.4281 -0.3179 0.8460
vn 0.4136 -0.2712 0.8691
vn 0.3192 -0.2250 0.9206
vn 0.1194 -0.1720 0.9778
vn -0.0302 -0.1063 0.9939
vn 0.0009 -0.0376 0.9993
vn 0.0278 0.0269 0.9993
vn 0.0362 0.0792 0.9962
vn 0.0133 0.1161 0.9931
vn -0.0537 0.1383 0.9889
vn -0.0503 -0.4508 0.8912
vn 0.1656 -0.4076 0.8980
vn 0.3019 -0.3290 0.8948
vn 0.3567 -0.2368 0.9037
vn 0.3357 -0.1405 0.9314
vn 0.2323 -0.0465 0.9715
vn 0.0344 0.0340 0.9988
vn -0.1057 0.0931 0.9900
vn -0.0778 0.1460 0.9862
vn -0.0444 0.1991 0.9790
vn -0.0225 0.2462 0.9690
vn -0.0279 0.2835 0.9586
vn -0.0752 0.3088 0.9482
vn -0.1860 0.1940 0.9632
vn -0.0023 0.1583 0.9874
vn 0.1395 0.0963 0.9855
vn 0.2156 0.0221 0.9762
vn 0.2195 -0.0552 0.9741
vn 0.1416 -0.1298 0.9814
vn -0.0321 -0.1928 0.9807
vn -0.1418 -0.2397 0.9604
vn -0.0614 -0.2874 0.9559
vn 0.0323 -0.3315 0.9429
vn 0.1117 -0.3659 0.9239
vn 0.1535 -0.3899 0.9080
vn 0.1375 -0.4061 0.9034
vt 0.923530 0.909091
vt 1.000000 0.909091
vt 1.000000 1.000000
vt 0.923530 1.000000
vt 0.923530 0.000000
vt 1.000000 0.000000
vt 1.000000 0.090909
vt 0.923530 0.090909
vt 1.000000 0.181818
vt 0.923530 0.181818
vt 1.000000 0.272727
vt 0.923530 0.272727
vt 1.000000 0.363636
vt 0.923530 0.363636
vt 1.000000 0.454545
vt 0.923530 0.454545
vt 1.000000 0.545455
vt 0.923530 0.545455
vt 1.000000 0.636364
vt 0.923530 0.636364
vt 1.000000 0.727273
vt 0.923530 0.727273
vt 1.000000 0.818182
vt 0.923530 0.818182
vt 0.000000 0.818182
vt 0.066387 0.818182
vt 0.066387 0.909091
vt 0.000000 0.909091
vt 0.137816 0.818182
vt 0.137816 0.909091
vt 0.209244 0.818182
vt 0.209244 0.909091
vt 0.280673 0.818182
vt 0.280673 0.909091
vt 0.352102 0.818182
vt 0.352102 0.909091
vt 0.423530 0.818182
vt 0.423530 0.909091
vt 0.494959 0.818182
vt 0.494959 0.909091
vt 0.566387 0.818182
vt 0.566387 0.909091
vt 0.637816 0.818182
vt 0.637816 0.909091
vt 0.709244 0.818182
vt 0.709244 0.909091
vt 0.780673 0.818182
vt 0.780673 0.909091
vt 0.852102 0.818182
vt 0.852102 0.909091
vt 0.000000 0.727273
vt 0.066387 0.727273
vt 0.137816 0.727273
vt 0.209244 0.727273
vt 0.280673 0.727273
vt 0.352102 0.727273
vt 0.423530 0.727273
vt 0.494959 0.727273
vt 0.566387 0.727273
vt 0.637816 0.727273
vt 0.709244 0.727273
vt 0.780673 0.727273
vt 0.852102 0.727273
vt 0.000000 0.636364
vt 0.066387 0.636364
vt 0.137816 0.636364
vt 0.209244 0.636364
vt 0.280673 0.636364
vt 0.352102 0.636364
vt 0.423530 0.636364
vt 0.494959 0.636364
vt 0.566387 0.636364
vt 0.637816 0.636364
vt 0.709244 0.636364
vt 0.780673 0.636364
vt 0.852102 0.636364
vt 0.000000 0.545455
vt 0.066387 0.545455
vt 0.137816 0.545455
vt 0.209244 0.545455
vt 0.280673 0.545455
vt 0.352102 0.545455
vt 0.423530 0.545455
vt 0.494959 0.545455
vt 0.566387 0.545455
vt 0.637816 0.545455
vt 0.709244 0.545455
vt 0.780673 0.545455
vt 0.852102 0.545455
vt 0.000000 0.454545
vt 0.066387 0.454545
vt 0.137816 0.454545
vt 0.209244 0.454546
vt 0.280673 0.454545
vt 0.352102 0.454545
vt 0.423530 0.454545
vt 0.494959 0.454546
vt 0.566387 0.454545
vt 0.637816 0.454545
vt 0.709244 0.454546
vt 0.780673 0.454546
vt 0.852102 0.454545
vt 0.000000 0.363636
vt 0.066387 0.363636
vt 0.137816 0.363636
vt 0.209244 0.363636
vt 0.280673 0.363636
vt 0.352102 0.363636
vt 0.423530 0.363636
vt 0.494959 0.363636
vt 0.566387 0.363636
vt 0.637816 0.363636
vt 0.709244 0.363636
vt 0.780673 0.363636
vt 0.852102 0.363636
vt 0.000000 0.272727
vt 0.066387 0.272727
vt 0.137816 0.272727
vt 0.209244 0.272727
vt 0.280673 0.272727
vt 0.352102 0.272727
vt 0.423530 0.272727
vt 0.494959 0.272727
vt 0.566387 0.272727
vt 0.637816 0.272727
vt 0.709244 0.272727
vt 0.780673 0.272727
vt 0.852102 0.272727
vt 0.000000 0.181818
vt 0.066387 0.181818
vt 0.137816 0.181818
vt 0.209244 0.181818
vt 0.280673 0.181818
vt 0.352102 0.181818
vt 0.423530 0.181818
vt 0.494959 0.181818
vt 0.566387 0.181818
vt 0.637816 0.181818
vt 0.709244 0.181818
vt 0.780673 0.181818
vt 0.852102 0.181818
vt 0.000000 0.090909
vt 0.066387 0.090909
vt 0.137816 0.090909
vt 0.209244 0.090909
vt 0.280673 0.090909
vt 0.352102 0.090909
vt 0.423530 0.090909
vt 0.494959 0.090909
vt 0.566387 0.090909
vt 0.637816 0.090909
vt 0.709244 0.090909
vt 0.780673 0.090909
vt 0.852102 0.090909
vt 0.000000 0.000000
vt 0.066387 0.000000
vt 0.137816 0.000000
vt 0.209244 0.000000
vt 0.280673 0.000000
vt 0.352102 0.000000
vt 0.423530 0.000000
vt 0.494959 0.000000
vt 0.566387 0.000000
vt 0.637816 0.000000
vt 0.709244 0.000000
vt 0.780673 0.000000
vt 0.852101 0.000000
vt 0.066387 1.000000
vt 0.000000 1.000000
vt 0.137816 1.000000
vt 0.209244 1.000000
vt 0.280673 1.000000
vt 0.352102 1.000000
vt 0.423530 1.000000
vt 0.494959 1.000000
vt 0.566387 1.000000
vt 0.637816 1.000000
vt 0.709244 1.000000
vt 0.780673 1.000000
vt 0.852102 1.000000
s 0
f 168/1/1 24/2/1 4/3/1 38/4/1
f 37/5/2 2/6/2 15/7/2 51/8/2
f 51/8/3 15/7/3 16/9/3 64/10/3
f 64/10/4 16/9/4 17/11/4 77/12/4
f 77/12/5 17/11/5 18/13/5 90/14/5
f 90/14/6 18/13/6 19/15/6 103/16/6
f 103/16/7 19/15/7 20/17/7 116/18/7
f 116/18/8 20/17/8 21/19/8 129/20/8
f 129/20/9 21/19/9 22/21/9 142/22/9
f 142/22/10 22/21/10 23/23/10 155/24/10
f 155/24/11 23/23/11 24/2/11 168/1/11
f 6/25/12 167/26/12 180/27/12 5/28/12
f 167/26/13 166/29/13 179/30/13 180/27/13
f 166/29/14 165/31/14 178/32/14 179/30/14
f 165/31/15 164/33/15 177/34/15 178/32/15
f 164/33/16 163/35/16 176/36/16 177/34/16
f 163/35/17 162/37/17 175/38/17 176/36/17
f 162/37/18 161/39/18 174/40/18 175/38/18
f 161/39/19 160/41/19 173/42/19 174/40/19
f 160/41/20 159/43/20 172/44/20 173/42/20
f 159/43/21 158/45/21 171/46/21 172/44/21
f 158/45/22 157/47/22 170/48/22 171/46/22
f 157/47/23 156/49/23 169/50/23 170/48/23
f 156/49/24 155/24/24 168/1/24 169/50/24
f 7/51/25 154/52/25 167/26/25 6/25/25
f 154/52/26 153/53/26 166/29/26 167/26/26
f 153/53/27 152/54/27 165/31/27 166/29/27
f 152/54/28 151/55/28 164/33/28 165/31/28
f 151/55/29 150/56/29 163/35/29 164/33/29
f 150/56/30 149/57/30 162/37/30 163/35/30
f 149/57/31 148/58/31 161/39/31 162/37/31
f 148/58/32 147/59/32 160/41/32 161/39/32
f 147/59/33 146/60/33 159/43/33 160/41/33
f 146/60/34 145/61/34 158/45/34 159/43/34
f 145/61/35 144/62/35 157/47/35 158/45/35
f 144/62/36 143/63/36 156/49/36 157/47/36
f 143/63/37 142/22/37 155/24/37 156/49/37
f 8/64/38 141/65/38 154/52/38 7/51/38
f 141/65/39 140/66/39 153/53/39 154/52/39
f 140/66/40 139/67/40 152/54/40 153/53/40
f 139/67/41 138/68/41 151/55/41 152/54/41
f 138/68/42 137/69/42 150/56/42 151/55/42
f 137/69/43 136/70/43 149/57/43 150/56/43
f 136/70/44 135/71/44 148/58/44 149/57/44
f 135/71/45 134/72/45 147/59/45 148/58/45
f 134/72/46 133/73/46 146/60/46 147/59/46
f 133/73/47 132/74/47 145/61/47 146/60/47
f 132/74/48 131/75/48 144/62/48 145/61/48
f 131/75/49 130/76/49 143/63/49 144/62/49
f 130/76/50 129/20/50 142/22/50 143/63/50
f 9/77/51 128/78/51 141/65/51 8/64/51
f 128/78/52 127/79/52 140/66/52 141/65/52
f 127/79/53 126/80/53 139/67/53 140/66/53
f 126/80/54 125/81/54 138/68/54 139/67/54
f 125/81/55 124/82/55 137/69/55 138/68/55
f 124/82/56 123/83/56 136/70/56 137/69/56
f 123/83/57 122/84/57 135/71/57 136/70/57
f 122/84/58 121/85/58 134/72/58 135/71/58
f 121/85/59 120/86/59 133/73/59 134/72/59
f 120/86/60 119/87/60 132/74/60 133/73/60
f 119/87/61 118/88/61 131/75/61 132/74/61
f 118/88/62 117/89/62 130/76/62 131/75/62
f 117/89/63 116/18/63 129/20/63 130/76/63
f 10/90/64 115/91/64 128/78/64 9/77/64
f 115/91/65 114/92/65 127/79/65 128/78/65
f 114/92/66 113/93/66 126/80/66 127/79/66
f 113/93/67 112/94/67 125/81/67 126/80/67
f 112/94/68 111/95/68 124/82/68 125/81/68
f 111/95/69 110/96/69 123/83/69 124/82/69
f 110/96/70 109/97/70 122/84/70 123/83/70
f 109/97/71 108/98/71 121/85/71 122/84/71
f 108/98/72 107/99/72 120/86/72 121/85/72
f 107/99/73 106/100/73 119/87/73 120/86/73
f 106/100/74 105/101/74 118/88/74 119/87/74
f 105/101/75 104/102/75 117/89/75 118/88/75
f 104/102/76 103/16/76 116/18/76 117/89/76
f 11/103/77 102/104/77 115/91/77 10/90/77
f 102/104/78 101/105/78 114/92/78 115/91/78
f 101/105/79 100/106/79 113/93/79 114/92/79
f 100/106/80 99/107/80 112/94/80 113/93/80
f 99/107/81 98/108/81 111/95/81 112/94/81
f 98/108/82 97/109/82 110/96/82 111/95/82
f 97/109/83 96/110/83 109/97/83 110/96/83
f 96/110/84 95/111/84 108/98/84 109/97/84
f 95/111/85 94/112/85 107/99/85 108/98/85
f 94/112/86 93/113/86 106/100/86 107/99/86
f 93/113/87 92/114/87 105/101/87 106/100/87
f 92/114/88 91/115/88 104/102/88 105/101/88
f 91/115/89 90/14/89 103/16/89 104/102/89
f 12/116/90 89/117/90 102/104/90 11/103/90
f 89/117/91 88/118/91 101/105/91 102/104/91
f 88/118/92 87/119/92 100/106/92 101/105/92
f 87/119/93 86/120/93 99/107/93 100/106/93
f 86/120/94 85/121/94 98/108/94 99/107/94
f 85/121/95 84/122/95 97/109/95 98/108/95
f 84/122/96 83/123/96 96/110/96 97/109/96
f 83/123/97 82/124/97 95/111/97 96/110/97
f 82/124/98 81/125/98 94/112/98 95/111/98
f 81/125/99 80/126/99 93/113/99 94/112/99
f 80/126/100 79/127/100 92/114/100 93/113/100
f 79/127/101 78/128/101 91/115/101 92/114/101
f 78/128/102 77/12/102 90/14/102 91/115/102
f 13/129/103 76/130/103 89/117/103 12/116/103
f 76/130/104 75/131/104 88/118/104 89/117/104
f 75/131/105 74/132/105 87/119/105 88/118/105
f 74/132/106 73/133/106 86/120/106 87/119/106
f 73/133/107 72/134/107 85/121/107 86/120/107
f 72/134/108 71/135/108 84/122/108 85/121/108
f 71/135/109 70/136/109 83/123/109 84/122/109
f 70/136/110 69/137/110 82/124/110 83/123/110
f 69/137/111 68/138/111 81/125/111 82/124/111
f 68/138/112 67/139/112 80/126/112 81/125/112
f 67/139/113 66/140/113 79/127/113 80/126/113
f 66/140/114 65/141/114 78/128/114 79/127/114
f 65/141/115 64/10/115 77/12/115 78/128/115
f 14/142/116 63/143/116 76/130/116 13/129/116
f 63/143/117 62/144/117 75/131/117 76/130/117
f 62/144/118 61/145/118 74/132/118 75/131/118
f 61/145/119 60/146/119 73/133/119 74/132/119
f 60/146/120 59/147/120 72/134/120 73/133/120
f 59/147/121 58/148/121 71/135/121 72/134/121
f 58/148/122 57/149/122 70/136/122 71/135/122
f 57/149/123 56/150/123 69/137/123 70/136/123
f 56/150/124 55/151/124 68/138/124 69/137/124
f 55/151/125 54/152/125 67/139/125 68/138/125
f 54/152/126 53/153/126 66/140/126 67/139/126
f 53/153/127 52/154/127 65/141/127 66/140/127
f 52/154/128 51/8/128 64/10/128 65/141/128
f 1/155/129 25/156/129 63/143/129 14/142/129
f 25/156/130 26/157/130 62/144/130 63/143/130
f 26/157/131 27/158/131 61/145/131 62/144/131
f 27/158/132 28/159/132 60/146/132 61/145/132
f 28/159/133 29/160/133 59/147/133 60/146/133
f 29/160/134 30/161/134 58/148/134 59/147/134
f 30/161/135 31/162/135 57/149/135 58/148/135
f 31/162/136 32/163/136 56/150/136 57/149/136
f 32/163/137 33/164/137 55/151/137 56/150/137
f 33/164/138 34/165/138 54/152/138 55/151/138
f 34/165/139 35/166/139 53/153/139 54/152/139
f 35/166/140 36/167/140 52/154/140 53/153/140
f 36/167/141 37/5/141 51/8/141 52/154/141
f 5/28/142 180/27/142 50/168/142 3/169/142
f 180/27/143 179/30/143 49/170/143 50/168/143
f 179/30/144 178/32/144 48/171/144 49/170/144
f 178/32/145 177/34/145 47/172/145 48/171/145
f 177/34/146 176/36/146 46/173/146 47/172/146
f 176/36/147 175/38/147 45/174/147 46/173/147
f 175/38/148 174/40/148 44/175/148 45/174/148
f 174/40/149 173/42/149 43/176/149 44/175/149
f 173/42/150 172/44/150 42/177/150 43/176/150
f 172/44/151 171/46/151 41/178/151 42/177/151
f 171/46/152 170/48/152 40/179/152 41/178/152
f 170/48/153 169/50/153 39/180/153 40/179/153
f 169/50/154 168/1/154 38/4/154 39/180/154
