# Blender 5.1.2
# www.blender.org
mtllib supports.mtl
o sjetador_de_armas
v 0.065631 0.229906 -0.652894
v 0.077790 0.229918 -0.655592
v 0.065811 0.248276 -0.652005
v 0.077969 0.248288 -0.654703
v 0.066526 0.248113 -0.648784
v 0.066346 0.229744 -0.649673
v 0.078505 0.229755 -0.652371
v 0.078684 0.248125 -0.651482
v 0.078544 0.232498 -0.642060
v 0.070667 0.232490 -0.640312
v 0.066374 0.232573 -0.649536
v 0.066498 0.245284 -0.648921
v 0.066436 0.238928 -0.649229
v 0.078657 0.245296 -0.651619
v 0.078532 0.232584 -0.652234
v 0.078594 0.238940 -0.651927
v 0.078661 0.244399 -0.641484
v 0.070784 0.244392 -0.639736
v 0.078643 0.242566 -0.641573
v 0.070766 0.242559 -0.639825
v 0.070685 0.234323 -0.640223
v 0.078562 0.234331 -0.641972
v 0.078559 0.232095 -0.647175
v 0.078536 0.229752 -0.647288
v 0.068468 0.229743 -0.645053
v 0.068491 0.232086 -0.644940
v 0.068643 0.247626 -0.644188
v 0.078711 0.247636 -0.646423
v 0.078689 0.245293 -0.646536
v 0.068620 0.245284 -0.644301
v 0.130678 0.229968 -0.667330
v 0.142837 0.229979 -0.670028
v 0.130858 0.248338 -0.666441
v 0.143016 0.248349 -0.669139
v 0.131573 0.248175 -0.663220
v 0.131393 0.229805 -0.664109
v 0.143552 0.229816 -0.666807
v 0.143731 0.248186 -0.665918
v 0.143591 0.232559 -0.656496
v 0.135714 0.232552 -0.654748
v 0.131421 0.232634 -0.663972
v 0.131545 0.245346 -0.663357
v 0.131483 0.238990 -0.663664
v 0.143704 0.245357 -0.666055
v 0.143579 0.232646 -0.666670
v 0.143642 0.239001 -0.666363
v 0.143708 0.244461 -0.655920
v 0.135831 0.244453 -0.654172
v 0.143690 0.242628 -0.656009
v 0.135813 0.242620 -0.654261
v 0.135732 0.234385 -0.654659
v 0.143609 0.234392 -0.656407
v 0.143606 0.232157 -0.661610
v 0.143583 0.229814 -0.661724
v 0.133515 0.229804 -0.659489
v 0.133538 0.232147 -0.659376
v 0.133690 0.247688 -0.658624
v 0.143759 0.247697 -0.660858
v 0.143736 0.245355 -0.660972
v 0.133667 0.245345 -0.658737
vn -0.1056 -0.8711 -0.4796
vn -0.2164 0.0493 -0.9751
vn 0.2164 -0.0493 0.9751
vn 0.0098 0.9988 0.0483
vn -0.0098 -0.9988 -0.0483
vn 0.9762 0.0009 -0.2167
vn 0.1202 0.8297 0.5451
vn -0.9762 -0.0009 0.2167
vn 0.9999 -0.0100 0.0037
vn 0.1034 -0.8807 0.4623
vn -0.9045 -0.0118 0.4263
vn -0.0881 0.9152 -0.3931
vn -0.9087 -0.0113 0.4173
vn 0.0204 0.9952 0.0960
vn 0.0008 -1.0000 -0.0005
vn 0.9999 -0.0095 -0.0063
vt 0.000000 0.845985
vt 1.000000 0.845985
vt 0.000000 0.000000
vt 0.000000 1.000000
vt 1.000000 1.000000
vt 1.000000 0.000000
vt 1.000000 0.154015
vt 0.000000 0.154015
vt 1.000000 0.500000
vt 0.000000 0.500000
s 1
usemtl Crochet
f 30/1/1 29/2/1 19/2/1 20/1/1
f 1/3/2 3/4/2 4/5/2 2/6/2
f 10/3/3 9/6/3 22/7/3 21/8/3
f 4/5/4 3/4/4 5/4/4 8/5/4
f 1/3/5 2/6/5 7/6/5 6/3/5
f 2/6/6 4/5/6 8/5/6 14/2/6 16/9/6 15/7/6 7/6/6
f 28/5/7 27/4/7 18/4/7 17/5/7
f 14/2/3 12/1/3 13/10/3 16/9/3
f 16/9/3 13/10/3 11/8/3 15/7/3
f 3/4/8 1/3/8 6/3/8 11/8/8 13/10/8 12/1/8 5/4/8
f 20/1/3 19/2/3 17/5/3 18/4/3
f 24/6/9 23/7/9 22/7/9 9/6/9
f 25/3/10 24/6/10 9/6/10 10/3/10
f 27/4/11 30/1/11 20/1/11 18/4/11
f 23/7/12 26/8/12 21/8/12 22/7/12
f 29/2/9 28/5/9 17/5/9 19/2/9
f 26/8/11 25/3/11 10/3/11 21/8/11
f 11/8/13 6/3/13 25/3/13 26/8/13
f 15/7/14 11/8/14 26/8/14 23/7/14
f 6/3/15 7/6/15 24/6/15 25/3/15
f 7/6/16 15/7/16 23/7/16 24/6/16
f 14/2/16 8/5/16 28/5/16 29/2/16
f 5/4/13 12/1/13 30/1/13 27/4/13
f 8/5/14 5/4/14 27/4/14 28/5/14
f 12/1/15 14/2/15 29/2/15 30/1/15
f 60/1/1 59/2/1 49/2/1 50/1/1
f 31/3/2 33/4/2 34/5/2 32/6/2
f 40/3/3 39/6/3 52/7/3 51/8/3
f 34/5/4 33/4/4 35/4/4 38/5/4
f 31/3/5 32/6/5 37/6/5 36/3/5
f 32/6/6 34/5/6 38/5/6 44/2/6 46/9/6 45/7/6 37/6/6
f 58/5/7 57/4/7 48/4/7 47/5/7
f 44/2/3 42/1/3 43/10/3 46/9/3
f 46/9/3 43/10/3 41/8/3 45/7/3
f 33/4/8 31/3/8 36/3/8 41/8/8 43/10/8 42/1/8 35/4/8
f 50/1/3 49/2/3 47/5/3 48/4/3
f 54/6/9 53/7/9 52/7/9 39/6/9
f 55/3/10 54/6/10 39/6/10 40/3/10
f 57/4/11 60/1/11 50/1/11 48/4/11
f 53/7/12 56/8/12 51/8/12 52/7/12
f 59/2/9 58/5/9 47/5/9 49/2/9
f 56/8/11 55/3/11 40/3/11 51/8/11
f 41/8/13 36/3/13 55/3/13 56/8/13
f 45/7/14 41/8/14 56/8/14 53/7/14
f 36/3/15 37/6/15 54/6/15 55/3/15
f 37/6/16 45/7/16 53/7/16 54/6/16
f 44/2/16 38/5/16 58/5/16 59/2/16
f 35/4/13 42/1/13 60/1/13 57/4/13
f 38/5/14 35/4/14 57/4/14 58/5/14
f 42/1/15 44/2/15 59/2/15 60/1/15
o sujetador_de_armas_2
v 0.492884 0.253484 -0.138312
v 0.492684 0.233055 -0.139300
v 0.505047 0.250714 -0.083520
v 0.504847 0.230284 -0.084509
v 0.500951 0.250710 -0.082611
v 0.488788 0.253480 -0.137403
v 0.488588 0.233051 -0.138391
v 0.500750 0.230281 -0.083600
v 0.478455 0.236148 -0.125839
v 0.478585 0.249384 -0.125199
v 0.490661 0.253054 -0.128964
v 0.499077 0.251137 -0.091050
v 0.494869 0.252095 -0.110007
v 0.498877 0.230707 -0.092038
v 0.490461 0.232624 -0.129952
v 0.494669 0.231666 -0.110995
v 0.486335 0.234353 -0.090340
v 0.486465 0.247590 -0.089699
v 0.485121 0.234630 -0.095807
v 0.485251 0.247866 -0.095167
v 0.479798 0.249108 -0.119731
v 0.479669 0.235872 -0.120372
v 0.484163 0.234411 -0.129227
v 0.482612 0.234764 -0.136215
v 0.482777 0.251682 -0.135396
v 0.484328 0.251329 -0.128408
v 0.494618 0.248985 -0.082055
v 0.494452 0.232067 -0.082874
v 0.492901 0.232420 -0.089862
v 0.493066 0.249339 -0.089044
vn 0.6126 0.0322 -0.7897
vn 0.9762 0.0009 -0.2167
vn -0.9762 -0.0009 0.2167
vn 0.2164 -0.0493 0.9751
vn -0.2164 0.0493 -0.9751
vn -0.0098 -0.9988 -0.0483
vn -0.6811 -0.0287 0.7317
vn 0.0098 0.9988 0.0483
vn -0.2833 -0.9589 0.0144
vn -0.9267 0.0272 -0.3749
vn -0.2646 0.9584 0.1072
vn 0.8892 -0.0308 0.4564
vn -0.2528 0.9618 0.1047
vn 0.1006 -0.0491 0.9937
vn -0.3293 0.0489 -0.9430
vn -0.2716 -0.9623 0.0116
vt 0.000000 0.845985
vt 1.000000 0.845985
vt 0.000000 0.000000
vt 0.000000 1.000000
vt 1.000000 1.000000
vt 1.000000 0.000000
vt 1.000000 0.154015
vt 0.000000 0.154015
vt 1.000000 0.500000
vt 0.000000 0.500000
s 1
usemtl Crochet
f 90/11/17 89/12/17 79/12/17 80/11/17
f 61/13/18 63/14/18 64/15/18 62/16/18
f 70/13/19 69/16/19 82/17/19 81/18/19
f 64/15/20 63/14/20 65/14/20 68/15/20
f 61/13/21 62/16/21 67/16/21 66/13/21
f 62/16/22 64/15/22 68/15/22 74/12/22 76/19/22 75/17/22 67/16/22
f 88/15/23 87/14/23 78/14/23 77/15/23
f 74/12/19 72/11/19 73/20/19 76/19/19
f 76/19/19 73/20/19 71/18/19 75/17/19
f 63/14/24 61/13/24 66/13/24 71/18/24 73/20/24 72/11/24 65/14/24
f 80/11/19 79/12/19 77/15/19 78/14/19
f 84/16/25 83/17/25 82/17/25 69/16/25
f 85/13/26 84/16/26 69/16/26 70/13/26
f 87/14/27 90/11/27 80/11/27 78/14/27
f 83/17/28 86/18/28 81/18/28 82/17/28
f 89/12/25 88/15/25 77/15/25 79/12/25
f 86/18/27 85/13/27 70/13/27 81/18/27
f 71/18/29 66/13/29 85/13/29 86/18/29
f 75/17/30 71/18/30 86/18/30 83/17/30
f 66/13/31 67/16/31 84/16/31 85/13/31
f 67/16/32 75/17/32 83/17/32 84/16/32
f 74/12/32 68/15/32 88/15/32 89/12/32
f 65/14/29 72/11/29 90/11/29 87/14/29
f 68/15/30 65/14/30 87/14/30 88/15/30
f 72/11/31 74/12/31 89/12/31 90/11/31
