# Blender 5.1.2
# www.blender.org
mtllib sword.mtl
o espada_de_diamante
v 0.490739 0.320499 -0.107328
v 0.500415 0.162878 -0.117563
v 0.501328 0.156480 -0.111904
v 0.490523 0.162808 -0.116047
v 0.491436 0.156410 -0.110388
v 0.491469 0.180670 -0.109046
v 0.500465 0.199268 -0.115551
v 0.500448 0.187138 -0.116222
v 0.489643 0.193466 -0.120365
v 0.500481 0.211398 -0.114881
v 0.501394 0.205001 -0.109221
v 0.501411 0.217131 -0.108550
v 0.490606 0.223458 -0.112694
v 0.490589 0.211328 -0.113364
v 0.499585 0.229926 -0.119869
v 0.490623 0.235588 -0.112023
v 0.500514 0.235659 -0.113539
v 0.489710 0.241986 -0.117682
v 0.499618 0.254186 -0.118528
v 0.500531 0.247789 -0.112868
v 0.489726 0.254116 -0.117012
v 0.491569 0.253451 -0.105022
v 0.498689 0.248454 -0.124858
v 0.498672 0.236324 -0.125529
v 0.498655 0.224194 -0.126199
v 0.500498 0.223528 -0.114210
v 0.499568 0.217796 -0.120540
v 0.489693 0.229856 -0.118353
v 0.499552 0.205666 -0.121211
v 0.489676 0.217726 -0.119024
v 0.498622 0.199934 -0.127541
v 0.499535 0.193536 -0.121881
v 0.490556 0.187068 -0.114706
v 0.499518 0.181406 -0.122552
v 0.489627 0.181336 -0.121036
v 0.490539 0.174938 -0.115377
v 0.499502 0.169276 -0.123223
v 0.501344 0.168610 -0.111233
v 0.492365 0.162142 -0.104058
v 0.500431 0.175008 -0.116893
v 0.501377 0.192870 -0.109892
v 0.490573 0.199198 -0.114035
v 0.502324 0.210733 -0.102891
v 0.492432 0.210663 -0.101375
v 0.491535 0.229191 -0.106363
v 0.490639 0.247718 -0.111352
v 0.499485 0.157146 -0.123894
v 0.499469 0.145016 -0.124564
v 0.488664 0.151343 -0.128708
v 0.489593 0.157075 -0.122378
v 0.497643 0.157811 -0.135883
v 0.498572 0.163543 -0.129553
v 0.498556 0.151413 -0.130224
v 0.487751 0.157741 -0.134367
v 0.497660 0.169941 -0.135213
v 0.498589 0.175674 -0.128882
v 0.487768 0.169871 -0.133697
v 0.488697 0.175603 -0.127366
v 0.489610 0.169205 -0.121707
v 0.488680 0.163473 -0.128037
v 0.497676 0.182071 -0.134542
v 0.487784 0.182001 -0.133026
v 0.497693 0.194201 -0.133871
v 0.498606 0.187804 -0.128212
v 0.487801 0.194131 -0.132355
v 0.488714 0.187733 -0.126696
v 0.497709 0.206332 -0.133200
v 0.487817 0.206261 -0.131684
v 0.488747 0.211994 -0.125354
v 0.489660 0.205596 -0.119695
v 0.488730 0.199863 -0.126025
v 0.497726 0.218462 -0.132530
v 0.498639 0.212064 -0.126870
v 0.487834 0.218391 -0.131014
v 0.488764 0.224124 -0.124683
v 0.497743 0.230592 -0.131859
v 0.487851 0.230521 -0.130343
v 0.488780 0.236254 -0.124013
v 0.497759 0.242722 -0.131188
v 0.499602 0.242056 -0.119199
v 0.487867 0.242652 -0.129672
v 0.488797 0.248384 -0.123342
v 0.500398 0.150748 -0.118234
v 0.501311 0.144350 -0.112575
v 0.500381 0.138618 -0.118905
v 0.489577 0.144945 -0.123048
v 0.490506 0.150678 -0.116718
v 0.490490 0.138547 -0.117389
v 0.491419 0.144280 -0.111059
v 0.502257 0.162212 -0.105574
v 0.503170 0.155815 -0.099914
v 0.502240 0.150082 -0.106245
v 0.493278 0.155744 -0.098398
v 0.492349 0.150012 -0.104728
v 0.502274 0.174343 -0.104903
v 0.503187 0.167945 -0.099244
v 0.491452 0.168540 -0.109717
v 0.492382 0.174272 -0.103387
v 0.493295 0.167875 -0.097727
v 0.501361 0.180740 -0.110563
v 0.503203 0.180075 -0.098573
v 0.492398 0.186402 -0.102716
v 0.493311 0.180005 -0.097057
v 0.502307 0.198603 -0.103562
v 0.503220 0.192205 -0.097902
v 0.502290 0.186473 -0.104232
v 0.491486 0.192800 -0.108376
v 0.492415 0.198533 -0.102045
v 0.493328 0.192135 -0.096386
v 0.503236 0.204335 -0.097231
v 0.491502 0.204930 -0.107705
v 0.493345 0.204265 -0.095715
v 0.503253 0.216465 -0.096561
v 0.491519 0.217060 -0.107034
v 0.492448 0.222793 -0.100704
v 0.493361 0.216395 -0.095045
v 0.501427 0.229261 -0.107880
v 0.503270 0.228595 -0.095890
v 0.502340 0.222863 -0.102220
v 0.493378 0.228525 -0.094374
v 0.501444 0.241391 -0.107209
v 0.503286 0.240725 -0.095219
v 0.502357 0.234993 -0.101549
v 0.491552 0.241321 -0.105693
v 0.492481 0.247053 -0.099363
v 0.493394 0.240655 -0.093703
v 0.492465 0.234923 -0.100033
v 0.503303 0.252856 -0.094548
v 0.492498 0.259183 -0.098692
v 0.493411 0.252785 -0.093032
v 0.503320 0.264986 -0.093878
v 0.492515 0.271313 -0.098021
v 0.486971 0.261179 -0.134661
v 0.497792 0.266982 -0.129847
v 0.488830 0.272644 -0.122000
v 0.488813 0.260514 -0.122671
v 0.501477 0.265651 -0.105867
v 0.489743 0.266246 -0.116341
v 0.490656 0.259849 -0.110682
v 0.502373 0.247123 -0.100879
v 0.502390 0.259253 -0.100208
v 0.501461 0.253521 -0.106538
v 0.491585 0.265581 -0.104351
v 0.500548 0.259919 -0.112198
v 0.498705 0.260584 -0.124187
v 0.495934 0.255517 -0.142507
v 0.496863 0.261250 -0.136177
v 0.497776 0.254852 -0.130517
v 0.496846 0.249120 -0.136848
v 0.486042 0.255447 -0.140991
v 0.487884 0.254782 -0.129001
v 0.486954 0.249049 -0.135332
v 0.504232 0.258588 -0.088218
v 0.504216 0.246458 -0.088889
v 0.494340 0.258518 -0.086702
v 0.494324 0.246387 -0.087373
v 0.505145 0.252190 -0.082559
v 0.506075 0.257922 -0.076229
v 0.506058 0.245792 -0.076899
v 0.495253 0.252120 -0.081043
v 0.496183 0.257852 -0.074712
v 0.496166 0.245722 -0.075383
v 0.507917 0.257257 -0.064239
v 0.506988 0.251525 -0.070569
v 0.497112 0.263584 -0.068382
v 0.498025 0.257187 -0.062723
v 0.497096 0.251454 -0.069053
v 0.506091 0.270052 -0.075558
v 0.507004 0.263655 -0.069898
v 0.495270 0.264250 -0.080372
v 0.496199 0.269982 -0.074042
v 0.494091 0.256183 -0.154497
v 0.495004 0.249785 -0.148837
v 0.485112 0.249715 -0.147321
v 0.493178 0.262581 -0.160156
v 0.494108 0.268313 -0.153826
v 0.483286 0.262510 -0.158640
v 0.484199 0.256113 -0.152981
v 0.495037 0.274045 -0.147496
v 0.495950 0.267648 -0.141836
v 0.495021 0.261915 -0.148167
v 0.484216 0.268243 -0.152310
v 0.485145 0.273975 -0.145980
v 0.485129 0.261845 -0.146651
v 0.496880 0.273380 -0.135506
v 0.486058 0.267577 -0.140320
v 0.486988 0.273310 -0.133990
v 0.487901 0.266912 -0.128331
v 0.497809 0.279112 -0.129176
v 0.487917 0.279042 -0.127660
v 0.504249 0.270718 -0.087547
v 0.505162 0.264320 -0.081888
v 0.503336 0.277116 -0.093207
v 0.493444 0.277045 -0.091691
v 0.494357 0.270648 -0.086031
v 0.493428 0.264915 -0.092362
v 0.502407 0.271383 -0.099537
v 0.491602 0.277711 -0.103681
v 0.498722 0.272714 -0.123517
v 0.500564 0.272049 -0.111527
v 0.499635 0.266317 -0.117857
v 0.490672 0.271979 -0.110011
v 0.498739 0.284844 -0.122846
v 0.499668 0.290577 -0.116516
v 0.500581 0.284179 -0.110856
v 0.499651 0.278447 -0.117186
v 0.488847 0.284774 -0.121330
v 0.489776 0.290507 -0.115000
v 0.498755 0.296975 -0.122175
v 0.488863 0.296904 -0.120659
v 0.502423 0.283514 -0.098866
v 0.492531 0.283443 -0.097350
v 0.502440 0.295644 -0.098196
v 0.501510 0.289911 -0.104526
v 0.492548 0.295573 -0.096680
v 0.501494 0.277781 -0.105197
v 0.489760 0.278376 -0.115670
v 0.490689 0.284109 -0.109340
v 0.490706 0.296239 -0.108669
v 0.491618 0.289841 -0.103010
v 0.499685 0.302707 -0.115845
v 0.501527 0.302041 -0.103855
v 0.500598 0.296309 -0.110185
v 0.490722 0.308369 -0.107999
v 0.491635 0.301971 -0.102339
v 0.499701 0.314837 -0.115174
v 0.500614 0.308439 -0.109515
v 0.489809 0.314767 -0.113658
v 0.489793 0.302637 -0.114329
v 0.497859 0.315502 -0.127164
v 0.498772 0.309105 -0.121504
v 0.487967 0.315432 -0.125648
v 0.488897 0.321165 -0.119318
v 0.488880 0.309034 -0.119988
v 0.498788 0.321235 -0.120834
v 0.500631 0.320569 -0.108844
v 0.489826 0.326897 -0.112987
v 0.499718 0.326967 -0.114503
v 0.500647 0.332699 -0.108173
v 0.501560 0.326302 -0.102514
v 0.490755 0.332629 -0.106657
v 0.501544 0.314172 -0.103184
v 0.503386 0.313506 -0.091195
v 0.502456 0.307774 -0.097525
v 0.493494 0.313436 -0.089679
v 0.492565 0.307703 -0.096009
v 0.502473 0.319904 -0.096854
v 0.491668 0.326231 -0.100998
v 0.492581 0.319834 -0.095338
v 0.491652 0.314101 -0.101668
vn 0.9884 0.0070 -0.1515
vn -0.9884 -0.0070 0.1515
vn -0.1082 -0.6673 -0.7369
vn -0.1063 0.7448 -0.6588
vn 0.1063 -0.7448 0.6588
vn 0.1082 0.6673 0.7369
vt 0.124554 0.094257
vt 0.144752 0.057227
vt 0.181781 0.077425
vt 0.161583 0.114455
vt 0.639601 0.077425
vt 0.619403 0.114455
vt 0.582374 0.094257
vt 0.602572 0.057227
vt 0.343365 0.838215
vt 0.363563 0.801185
vt 0.400593 0.821383
vt 0.380395 0.858413
vt 0.858413 0.821383
vt 0.838215 0.858413
vt 0.801185 0.838215
vt 0.821383 0.801185
vt 0.326533 0.780987
vt 0.346731 0.743958
vt 0.383761 0.764156
vt 0.841581 0.764156
vt 0.784353 0.780987
vt 0.804551 0.743958
vt 0.309702 0.723760
vt 0.329900 0.686730
vt 0.366929 0.706928
vt 0.824749 0.706928
vt 0.767522 0.723760
vt 0.787720 0.686730
vt 0.292870 0.666532
vt 0.313068 0.629503
vt 0.350098 0.649701
vt 0.807918 0.649701
vt 0.750690 0.666532
vt 0.770888 0.629503
vt 0.276039 0.609305
vt 0.296236 0.572275
vt 0.333266 0.592473
vt 0.791086 0.592473
vt 0.733859 0.609305
vt 0.754057 0.572275
vt 0.259207 0.552077
vt 0.279405 0.515048
vt 0.316434 0.535246
vt 0.774255 0.535245
vt 0.717027 0.552077
vt 0.737225 0.515048
vt 0.242375 0.494850
vt 0.262573 0.457820
vt 0.299603 0.478018
vt 0.757423 0.478018
vt 0.700195 0.494850
vt 0.720393 0.457820
vt 0.225544 0.437622
vt 0.245742 0.400593
vt 0.282771 0.420790
vt 0.740591 0.420790
vt 0.683364 0.437622
vt 0.703562 0.400593
vt 0.208712 0.380395
vt 0.228910 0.343365
vt 0.265940 0.363563
vt 0.723760 0.363563
vt 0.666532 0.380395
vt 0.686730 0.343365
vt 0.188514 0.417424
vt 0.760789 0.383761
vt 0.205346 0.474652
vt 0.777621 0.440988
vt 0.222177 0.531879
vt 0.794452 0.498216
vt 0.239009 0.589107
vt 0.811284 0.555443
vt 0.255841 0.646334
vt 0.828116 0.612671
vt 0.272672 0.703562
vt 0.844947 0.669898
vt 0.289504 0.760789
vt 0.861779 0.727126
vt 0.306335 0.818017
vt 0.878611 0.784353
vt 0.420790 0.784353
vt 0.764156 0.818017
vt 0.403959 0.727126
vt 0.747324 0.760789
vt 0.387127 0.669899
vt 0.730492 0.703562
vt 0.370296 0.612671
vt 0.713661 0.646334
vt 0.353464 0.555443
vt 0.696829 0.589107
vt 0.336632 0.498216
vt 0.679997 0.531879
vt 0.319801 0.440988
vt 0.663166 0.474652
vt 0.302969 0.383761
vt 0.646334 0.417424
vt 0.323167 0.875244
vt 0.360197 0.895442
vt 0.895442 0.841581
vt 0.875244 0.878610
vt 0.957820 0.084360
vt 0.915640 0.084360
vt 0.915640 0.042180
vt 0.957820 0.042180
vt 0.286138 0.855046
vt 0.915640 0.804551
vt 1.000000 0.253080
vt 0.957820 0.253080
vt 0.957820 0.210900
vt 1.000000 0.210900
vt 0.957820 0.126540
vt 0.915640 0.126540
vt 0.269306 0.797819
vt 0.898808 0.747324
vt 0.506159 1.000000
vt 0.463979 1.000000
vt 0.463979 0.957820
vt 0.506159 0.957820
vt 0.253080 0.957820
vt 0.210900 0.957820
vt 0.210900 0.915640
vt 0.253080 0.915640
vt 0.252474 0.740591
vt 0.881977 0.690096
vt 0.885778 0.957820
vt 0.843598 0.957820
vt 0.843598 0.915640
vt 0.885778 0.915640
vt 0.759239 0.957820
vt 0.759239 1.000000
vt 0.717059 1.000000
vt 0.717059 0.957820
vt 0.235643 0.683364
vt 0.865145 0.632869
vt 0.379619 0.957820
vt 0.337439 0.957820
vt 0.337439 0.915640
vt 0.379619 0.915640
vt 0.632699 0.957820
vt 0.632699 1.000000
vt 0.590519 1.000000
vt 0.590519 0.957820
vt 0.218811 0.626136
vt 0.848314 0.575641
vt 0.801418 0.957820
vt 0.759239 0.915640
vt 0.801418 0.915640
vt 0.253080 1.000000
vt 0.210900 1.000000
vt 0.201979 0.568909
vt 0.831482 0.518414
vt 1.000000 0.548339
vt 0.957820 0.548339
vt 0.957820 0.506159
vt 1.000000 0.506159
vt 0.421799 0.915640
vt 0.421799 0.957820
vt 0.185148 0.511681
vt 0.814650 0.461186
vt 0.674879 0.957820
vt 0.632699 0.915640
vt 0.674879 0.915640
vt 0.295260 0.957820
vt 0.295259 0.915640
vt 0.168316 0.454454
vt 0.797819 0.403959
vt 0.717059 0.915640
vt 0.548339 0.915640
vt 0.590519 0.915640
vt 0.548339 0.957820
vt 0.417424 0.878611
vt 0.397226 0.915640
vt 0.855046 0.915640
vt 0.818017 0.895442
vt 0.957820 0.168720
vt 0.915640 0.168720
vt 0.915640 0.000000
vt 0.957820 0.000000
vt 0.437622 0.841581
vt 0.780987 0.875244
vt 0.915640 0.210900
vt 0.457820 0.804551
vt 0.743958 0.855046
vt 0.674879 1.000000
vt 0.915640 0.253080
vt 0.440988 0.747324
vt 0.727126 0.797819
vt 1.000000 0.674879
vt 0.957820 0.674879
vt 0.957820 0.632699
vt 1.000000 0.632699
vt 1.000000 0.759239
vt 0.957820 0.759239
vt 0.957820 0.717059
vt 1.000000 0.717059
vt 0.424157 0.690096
vt 0.710294 0.740591
vt 0.548339 1.000000
vt 0.407325 0.632869
vt 0.693463 0.683364
vt 0.957820 0.590519
vt 1.000000 0.590519
vt 0.168720 0.957820
vt 0.168720 0.915640
vt 0.390494 0.575641
vt 0.676631 0.626136
vt 0.337439 1.000000
vt 0.379619 1.000000
vt 0.957820 0.463979
vt 1.000000 0.463979
vt 0.373662 0.518414
vt 0.659800 0.568909
vt 0.506159 0.915640
vt 0.356830 0.461186
vt 0.642968 0.511681
vt 1.000000 0.337439
vt 0.957820 0.337439
vt 0.957820 0.295260
vt 1.000000 0.295260
vt 0.339999 0.403959
vt 0.626136 0.454454
vt 0.421799 1.000000
vt 0.343365 0.309702
vt 0.363563 0.272672
vt 0.400593 0.292870
vt 0.380395 0.329900
vt 0.572275 0.377028
vt 0.552077 0.414058
vt 0.515048 0.393860
vt 0.535246 0.356830
vt 0.057228 0.393860
vt 0.077425 0.356830
vt 0.114455 0.377028
vt 0.094257 0.414058
vt 0.858413 0.292870
vt 0.838215 0.329900
vt 0.801185 0.309702
vt 0.821383 0.272672
vt 0.286137 0.326533
vt 0.306335 0.289504
vt 0.323167 0.346731
vt 0.629503 0.360197
vt 0.609305 0.397226
vt 0.592473 0.339999
vt 0.249108 0.306335
vt 0.269306 0.269306
vt 0.649700 0.323167
vt 0.612671 0.302969
vt 0.134653 0.339999
vt 0.171683 0.360197
vt 0.151485 0.397226
vt 0.780987 0.346731
vt 0.743958 0.326533
vt 0.764155 0.289504
vt 0.154851 0.302969
vt 0.191880 0.323167
vt 0.706928 0.306335
vt 0.727126 0.269306
vt 0.212078 0.286138
vt 0.669898 0.286138
vt 0.957820 0.295259
vt 0.131287 0.434256
vt 0.818017 0.366929
vt 0.463979 0.915640
vt 0.168720 1.000000
vt 0.360197 0.366929
vt 0.589107 0.434256
vt 0.126540 0.957820
vt 0.126540 0.915640
vt 0.084360 1.000000
vt 0.084360 0.957820
vt 0.126540 1.000000
vt 0.437622 0.313068
vt 0.417424 0.350098
vt 0.531879 0.451087
vt 0.494850 0.430889
vt 0.915640 0.632699
vt 0.915640 0.590519
vt 0.420790 0.255841
vt 0.457820 0.276039
vt 0.457820 0.410692
vt 0.478018 0.373662
vt 0.000000 0.957820
vt 0.042180 0.957820
vt 0.042180 1.000000
vt 0.000000 1.000000
vt 0.915640 0.674879
vt 0.383761 0.235643
vt 0.498216 0.336632
vt 0.000000 0.915640
vt 0.042180 0.915640
vt 0.037030 0.430889
vt 0.074059 0.451087
vt 0.895442 0.313068
vt 0.875244 0.350098
vt 0.915640 0.927958
vt 0.957820 0.927958
vt 0.957820 0.970138
vt 0.915640 0.970138
vt 0.915640 0.801419
vt 0.957820 0.801419
vt 0.957820 0.843598
vt 0.915640 0.843598
vt 0.000000 0.410692
vt 0.020198 0.373662
vt 0.915640 0.276038
vt 0.878610 0.255841
vt 1.000000 0.084360
vt 1.000000 0.042180
vt 0.915640 0.759239
vt 0.040396 0.336632
vt 0.841581 0.235643
vt 1.000000 0.000000
vt 0.295259 1.000000
vt 0.295259 0.957820
vt 0.097623 0.319801
vt 0.784353 0.252474
vt 0.915640 0.885778
vt 0.957820 0.885778
vt 0.117821 0.282771
vt 0.747324 0.232276
vt 0.326533 0.252474
vt 0.555443 0.319801
vt 0.289504 0.232276
vt 0.575641 0.282771
vt 0.084360 0.915640
vt 0.232276 0.249108
vt 0.632869 0.265940
vt 1.000000 0.168720
vt 0.175049 0.265940
vt 0.690096 0.249108
vt 1.000000 0.126540
vt 0.138019 0.245742
vt 0.158217 0.208712
vt 0.195247 0.228910
vt 0.710294 0.212078
vt 0.653067 0.228910
vt 0.673265 0.191880
vt 1.000000 0.421799
vt 0.957820 0.421799
vt 0.957820 0.379619
vt 1.000000 0.379619
vt 0.121188 0.188514
vt 0.141386 0.151485
vt 0.178415 0.171683
vt 0.693463 0.154851
vt 0.636235 0.171682
vt 0.656433 0.134653
vt 0.215445 0.191880
vt 0.252474 0.212078
vt 0.595839 0.245742
vt 0.616037 0.208712
vt 0.198613 0.134653
vt 0.235643 0.154851
vt 0.579008 0.188514
vt 0.599206 0.151485
vt 0.104356 0.131287
vt 0.676631 0.097623
vt 0.915640 0.717059
vt 0.067326 0.111089
vt 0.087524 0.074059
vt 0.696829 0.060594
vt 0.659799 0.040396
vt 0.915640 0.506159
vt 0.915640 0.463979
vt 0.107722 0.037030
vt 0.622770 0.020198
vt 0.915640 0.421799
vt 0.127920 0.000000
vt 0.164950 0.020198
vt 0.565542 0.037030
vt 0.585740 0.000000
vt 0.915640 0.379619
vt 0.915640 0.295259
vt 0.218811 0.097623
vt 0.562176 0.131287
vt 0.915640 0.548339
vt 0.201979 0.040396
vt 0.239009 0.060594
vt 0.525146 0.111089
vt 0.545344 0.074059
vt 0.915640 0.337439
s 1
usemtl DS
f 226/1/1 236/2/1 242/3/1 227/4/1
f 228/5/2 224/6/2 250/7/2 1/8/2
f 47/9/1 2/10/1 3/11/1 83/12/1
f 50/13/2 87/14/2 5/15/2 4/16/2
f 37/17/1 40/18/1 38/19/1 2/10/1
f 59/20/2 4/16/2 97/21/2 36/22/2
f 34/23/1 8/24/1 100/25/1 40/18/1
f 35/26/2 36/22/2 6/27/2 33/28/2
f 32/29/1 7/30/1 41/31/1 8/24/1
f 9/32/2 33/28/2 107/33/2 42/34/2
f 29/35/1 10/36/1 11/37/1 7/30/1
f 70/38/2 42/34/2 111/39/2 14/40/2
f 27/41/1 26/42/1 12/43/1 10/36/1
f 30/44/2 14/40/2 114/45/2 13/46/2
f 15/47/1 17/48/1 117/49/1 26/42/1
f 28/50/2 13/46/2 45/51/2 16/52/2
f 80/53/1 20/54/1 121/55/1 17/48/1
f 18/56/2 16/52/2 124/57/2 46/58/2
f 19/59/1 144/60/1 142/61/1 20/54/1
f 21/62/2 46/58/2 22/63/2 139/64/2
f 23/65/1 19/59/1 20/54/1 80/53/1
f 82/66/2 18/56/2 46/58/2 21/62/2
f 24/67/1 80/53/1 17/48/1 15/47/1
f 78/68/2 28/50/2 16/52/2 18/56/2
f 25/69/1 15/47/1 26/42/1 27/41/1
f 75/70/2 30/44/2 13/46/2 28/50/2
f 73/71/1 27/41/1 10/36/1 29/35/1
f 69/72/2 70/38/2 14/40/2 30/44/2
f 31/73/1 29/35/1 7/30/1 32/29/1
f 71/74/2 9/32/2 42/34/2 70/38/2
f 64/75/1 32/29/1 8/24/1 34/23/1
f 66/76/2 35/26/2 33/28/2 9/32/2
f 56/77/1 34/23/1 40/18/1 37/17/1
f 58/78/2 59/20/2 36/22/2 35/26/2
f 52/79/1 37/17/1 2/10/1 47/9/1
f 60/80/2 50/13/2 4/16/2 59/20/2
f 2/10/1 38/19/1 90/81/1 3/11/1
f 4/16/2 5/15/2 39/82/2 97/21/2
f 40/18/1 100/25/1 95/83/1 38/19/1
f 36/22/2 97/21/2 98/84/2 6/27/2
f 8/24/1 41/31/1 106/85/1 100/25/1
f 33/28/2 6/27/2 102/86/2 107/33/2
f 7/30/1 11/37/1 104/87/1 41/31/1
f 42/34/2 107/33/2 108/88/2 111/39/2
f 10/36/1 12/43/1 43/89/1 11/37/1
f 14/40/2 111/39/2 44/90/2 114/45/2
f 26/42/1 117/49/1 119/91/1 12/43/1
f 13/46/2 114/45/2 115/92/2 45/51/2
f 17/48/1 121/55/1 123/93/1 117/49/1
f 16/52/2 45/51/2 127/94/2 124/57/2
f 20/54/1 142/61/1 140/95/1 121/55/1
f 46/58/2 124/57/2 125/96/2 22/63/2
f 53/97/1 47/9/1 83/12/1 48/98/1
f 49/99/2 86/100/2 87/14/2 50/13/2
f 49/101/3 53/102/3 48/103/3 86/104/3
f 51/105/1 52/79/1 47/9/1 53/97/1
f 54/106/2 49/99/2 50/13/2 60/80/2
f 51/107/4 54/108/4 60/109/4 52/110/4
f 54/111/3 51/112/3 53/102/3 49/101/3
f 55/113/1 56/77/1 37/17/1 52/79/1
f 57/114/2 60/80/2 59/20/2 58/78/2
f 55/115/4 57/116/4 58/117/4 56/118/4
f 57/119/3 55/120/3 52/121/3 60/122/3
f 61/123/1 64/75/1 34/23/1 56/77/1
f 62/124/2 58/78/2 35/26/2 66/76/2
f 61/125/4 62/126/4 66/127/4 64/128/4
f 62/129/3 61/130/3 56/131/3 58/132/3
f 63/133/1 31/73/1 32/29/1 64/75/1
f 65/134/2 66/76/2 9/32/2 71/74/2
f 63/135/4 65/136/4 71/137/4 31/138/4
f 65/139/3 63/140/3 64/141/3 66/142/3
f 67/143/1 73/71/1 29/35/1 31/73/1
f 68/144/2 71/74/2 70/38/2 69/72/2
f 67/145/4 68/129/4 69/146/4 73/147/4
f 68/119/3 67/148/3 31/149/3 71/120/3
f 72/150/1 25/69/1 27/41/1 73/71/1
f 74/151/2 69/72/2 30/44/2 75/70/2
f 72/152/4 74/153/4 75/154/4 25/155/4
f 74/138/3 72/156/3 73/157/3 69/135/3
f 76/158/1 24/67/1 15/47/1 25/69/1
f 77/159/2 75/70/2 28/50/2 78/68/2
f 76/160/4 77/139/4 78/161/4 24/162/4
f 77/137/3 76/136/3 25/163/3 75/164/3
f 79/165/1 23/65/1 80/53/1 24/67/1
f 81/166/2 78/68/2 18/56/2 82/66/2
f 79/132/4 81/160/4 82/162/4 23/167/4
f 81/168/3 79/169/3 24/142/3 78/170/3
f 48/98/1 83/12/1 84/171/1 85/172/1
f 86/100/2 88/173/2 89/174/2 87/14/2
f 84/175/5 89/176/5 88/112/5 85/111/5
f 86/104/3 48/103/3 85/177/3 88/178/3
f 83/12/1 3/11/1 92/179/1 84/171/1
f 87/14/2 89/174/2 94/180/2 5/15/2
f 92/109/5 94/181/5 89/176/5 84/175/5
f 3/11/1 90/81/1 91/182/1 92/179/1
f 5/15/2 94/180/2 93/183/2 39/82/2
f 90/184/6 39/160/6 93/132/6 91/131/6
f 91/108/5 93/185/5 94/181/5 92/109/5
f 38/19/1 95/83/1 96/186/1 90/81/1
f 97/21/2 39/82/2 99/187/2 98/84/2
f 95/188/6 98/189/6 99/190/6 96/191/6
f 96/192/5 99/193/5 39/194/5 90/195/5
f 100/25/1 106/85/1 101/196/1 95/83/1
f 6/27/2 98/84/2 103/197/2 102/86/2
f 106/115/6 102/118/6 103/170/6 101/198/6
f 101/195/5 103/194/5 98/189/5 95/188/5
f 41/31/1 104/87/1 105/199/1 106/85/1
f 107/33/2 102/86/2 109/200/2 108/88/2
f 104/190/6 108/201/6 109/202/6 105/191/6
f 105/120/5 109/203/5 102/204/5 106/121/5
f 11/37/1 43/89/1 110/205/1 104/87/1
f 111/39/2 108/88/2 112/206/2 44/90/2
f 43/207/6 44/136/6 112/135/6 110/208/6
f 110/155/5 112/154/5 108/209/5 104/210/5
f 12/43/1 119/91/1 113/211/1 43/89/1
f 114/45/2 44/90/2 116/212/2 115/92/2
f 119/201/6 115/153/6 116/152/6 113/202/6
f 113/168/5 116/170/5 44/118/5 43/213/5
f 117/49/1 123/93/1 118/214/1 119/91/1
f 45/51/2 115/92/2 120/215/2 127/94/2
f 123/198/6 127/170/6 120/142/6 118/141/6
f 118/216/5 120/217/5 115/218/5 119/219/5
f 121/55/1 140/95/1 122/220/1 123/93/1
f 124/57/2 127/94/2 126/221/2 125/96/2
f 140/157/6 125/117/6 126/116/6 122/222/6
f 122/129/5 126/132/5 127/167/5 123/146/5
f 153/223/1 192/224/1 158/225/1 157/226/1
f 155/227/2 160/228/2 161/229/2 170/230/2
f 181/231/1 180/232/1 147/233/1 146/234/1
f 184/235/2 150/236/2 133/237/2 186/238/2
f 141/239/1 131/240/1 153/223/1 128/241/1
f 129/242/2 130/243/2 155/227/2 196/244/2
f 137/245/1 197/246/1 131/240/1 141/239/1
f 143/247/2 129/242/2 196/244/2 132/248/2
f 147/233/1 134/249/1 145/250/1 148/251/1
f 133/237/2 151/252/2 136/253/2 188/254/2
f 134/249/1 199/255/1 201/256/1 145/250/1
f 188/254/2 136/253/2 138/257/2 135/258/2
f 201/256/1 200/259/1 137/245/1 144/60/1
f 138/257/2 139/64/2 143/247/2 202/260/2
f 142/61/1 141/239/1 128/241/1 140/95/1
f 22/63/2 125/96/2 130/243/2 129/242/2
f 128/107/5 130/219/5 125/261/5 140/108/5
f 144/60/1 137/245/1 141/239/1 142/61/1
f 139/64/2 22/63/2 129/242/2 143/247/2
f 145/250/1 201/256/1 144/60/1 19/59/1
f 136/253/2 21/62/2 139/64/2 138/257/2
f 148/251/1 145/250/1 19/59/1 23/65/1
f 151/252/2 82/66/2 21/62/2 136/253/2
f 151/139/3 148/142/3 23/169/3 82/161/3
f 146/234/1 147/233/1 148/251/1 149/262/1
f 150/236/2 152/263/2 151/252/2 133/237/2
f 148/118/5 151/117/5 152/264/5 149/213/5
f 150/203/3 146/120/3 149/149/3 152/265/3
f 128/241/1 153/223/1 157/226/1 154/266/1
f 130/243/2 156/267/2 160/228/2 155/227/2
f 157/203/5 160/268/5 156/269/5 154/204/5
f 130/270/3 128/271/3 154/268/3 156/272/3
f 157/226/1 158/225/1 164/273/1 159/274/1
f 160/228/2 162/275/2 167/276/2 161/229/2
f 164/190/5 167/277/5 162/278/5 159/201/5
f 160/268/3 157/203/3 159/265/3 162/272/3
f 158/225/1 169/279/1 163/280/1 164/273/1
f 161/229/2 167/276/2 166/281/2 165/282/2
f 169/283/6 165/284/6 166/285/6 163/286/6
f 163/189/5 166/287/5 167/277/5 164/190/5
f 192/224/1 168/288/1 169/279/1 158/225/1
f 170/230/2 161/229/2 165/282/2 171/289/2
f 192/126/4 170/145/4 171/147/4 168/127/4
f 168/290/6 171/291/6 165/284/6 169/283/6
f 172/292/1 181/231/1 146/234/1 173/293/1
f 178/294/2 174/295/2 150/236/2 184/235/2
f 146/296/5 150/297/5 174/298/5 173/299/5
f 178/300/3 172/301/3 173/302/3 174/303/3
f 175/304/1 176/305/1 181/231/1 172/292/1
f 177/306/2 178/294/2 184/235/2 182/307/2
f 175/308/4 177/101/4 182/104/4 176/309/4
f 177/310/3 175/193/3 172/301/3 178/300/3
f 176/305/1 179/311/1 180/232/1 181/231/1
f 182/307/2 184/235/2 186/238/2 183/312/2
f 176/309/4 182/104/4 183/178/4 179/313/4
f 179/207/6 183/314/6 186/315/6 180/136/6
f 180/232/1 185/316/1 134/249/1 147/233/1
f 186/238/2 133/237/2 188/254/2 187/317/2
f 180/297/4 186/296/4 187/318/4 185/319/4
f 185/316/1 189/320/1 199/255/1 134/249/1
f 187/317/2 188/254/2 135/258/2 190/321/2
f 185/319/4 187/318/4 190/303/4 189/302/4
f 189/117/6 190/157/6 135/156/6 199/264/6
f 131/240/1 191/322/1 192/224/1 153/223/1
f 196/244/2 155/227/2 170/230/2 195/323/2
f 191/284/6 195/271/6 170/270/6 192/285/6
f 197/246/1 193/324/1 191/322/1 131/240/1
f 132/248/2 196/244/2 195/323/2 194/325/2
f 197/314/4 132/148/4 194/119/4 193/315/4
f 193/291/6 194/326/6 195/271/6 191/284/6
f 200/259/1 216/327/1 197/246/1 137/245/1
f 202/260/2 143/247/2 132/248/2 198/328/2
f 216/109/6 198/175/6 132/329/6 197/110/6
f 199/255/1 206/330/1 200/259/1 201/256/1
f 135/258/2 138/257/2 202/260/2 217/331/2
f 199/332/4 135/329/4 217/175/4 206/111/4
f 203/333/1 204/334/1 205/335/1 206/330/1
f 207/336/2 217/331/2 218/337/2 208/338/2
f 203/339/4 207/340/4 208/341/4 204/342/4
f 207/326/3 203/269/3 206/268/3 217/271/3
f 209/343/1 221/344/1 223/345/1 204/334/1
f 210/346/2 208/338/2 219/347/2 229/348/2
f 209/157/4 210/222/4 229/208/4 221/135/4
f 210/217/3 209/216/3 204/342/3 208/341/3
f 205/335/1 214/349/1 211/350/1 216/327/1
f 218/337/2 198/328/2 212/351/2 220/352/2
f 214/140/6 220/139/6 212/160/6 211/184/6
f 211/332/5 212/111/5 198/101/5 216/308/5
f 223/345/1 222/353/1 213/354/1 214/349/1
f 219/347/2 220/352/2 215/355/2 225/356/2
f 222/210/6 225/209/6 215/340/6 213/339/6
f 213/315/5 215/119/5 220/122/5 214/164/5
f 206/330/1 205/335/1 216/327/1 200/259/1
f 217/331/2 202/260/2 198/328/2 218/337/2
f 204/334/1 223/345/1 214/349/1 205/335/1
f 208/338/2 218/337/2 220/352/2 219/347/2
f 221/344/1 227/4/1 222/353/1 223/345/1
f 229/348/2 219/347/2 225/356/2 224/6/2
f 231/357/1 226/1/1 227/4/1 221/344/1
f 234/358/2 229/348/2 224/6/2 228/5/2
f 234/194/3 231/359/3 221/287/3 229/189/3
f 230/360/1 235/361/1 226/1/1 231/357/1
f 232/362/2 234/358/2 228/5/2 233/363/2
f 230/154/4 232/364/4 233/365/4 235/209/4
f 232/193/3 230/310/3 231/359/3 234/194/3
f 235/361/1 238/366/1 236/2/1 226/1/1
f 233/363/2 228/5/2 1/8/2 237/367/2
f 235/209/4 233/365/4 237/368/4 238/340/4
f 238/366/1 239/369/1 240/370/1 236/2/1
f 237/367/2 1/8/2 248/371/2 241/372/2
f 238/340/4 237/368/4 241/373/4 239/341/4
f 239/185/6 241/108/6 248/218/6 240/374/6
f 227/4/1 242/3/1 244/375/1 222/353/1
f 224/6/2 225/356/2 246/376/2 250/7/2
f 244/153/5 246/377/5 225/364/5 222/154/5
f 242/3/1 247/378/1 243/379/1 244/375/1
f 250/7/2 246/376/2 245/380/2 249/381/2
f 247/382/6 249/217/6 245/341/6 243/373/6
f 243/201/5 245/278/5 246/377/5 244/153/5
f 236/2/1 240/370/1 247/378/1 242/3/1
f 1/8/2 250/7/2 249/381/2 248/371/2
f 240/374/6 248/218/6 249/217/6 247/382/6
o espada_de_diamante_2
v 0.302552 0.090551 0.032649
v 0.315627 -0.073949 0.066219
v 0.322544 -0.079916 0.066680
v 0.317120 -0.071547 0.074917
v 0.324036 -0.077514 0.075378
v 0.321795 -0.052576 0.068875
v 0.312265 -0.036542 0.056465
v 0.313386 -0.049011 0.059716
v 0.307962 -0.040642 0.067953
v 0.311145 -0.024073 0.053213
v 0.318061 -0.030040 0.053674
v 0.316940 -0.017571 0.050423
v 0.311517 -0.009202 0.058660
v 0.312637 -0.021671 0.061911
v 0.303108 -0.005637 0.049501
v 0.310396 0.003267 0.055409
v 0.308903 0.000865 0.046711
v 0.303480 0.009234 0.054948
v 0.300866 0.019301 0.042998
v 0.307783 0.013334 0.043459
v 0.302359 0.021703 0.051696
v 0.315071 0.022238 0.049367
v 0.295071 0.012799 0.045789
v 0.296192 0.000330 0.049040
v 0.297312 -0.012139 0.052291
v 0.310024 -0.011604 0.049962
v 0.304228 -0.018106 0.052752
v 0.304600 -0.003235 0.058199
v 0.305349 -0.030575 0.056004
v 0.305721 -0.015704 0.061450
v 0.299553 -0.037077 0.058794
v 0.306470 -0.043044 0.059255
v 0.314879 -0.046609 0.068414
v 0.307590 -0.055513 0.062506
v 0.309083 -0.053111 0.071204
v 0.315999 -0.059078 0.071665
v 0.308711 -0.067982 0.065758
v 0.321423 -0.067447 0.063429
v 0.329832 -0.071012 0.072587
v 0.314507 -0.061480 0.062968
v 0.319182 -0.042509 0.056926
v 0.313758 -0.034140 0.065163
v 0.323857 -0.023538 0.050884
v 0.325349 -0.021136 0.059582
v 0.317312 -0.002700 0.055870
v 0.309275 0.015736 0.052157
v 0.309832 -0.080451 0.069009
v 0.310952 -0.092920 0.072261
v 0.305529 -0.084551 0.080497
v 0.311324 -0.078049 0.077707
v 0.297120 -0.080986 0.071339
v 0.302915 -0.074484 0.068548
v 0.304036 -0.086953 0.071800
v 0.298612 -0.078584 0.080036
v 0.295999 -0.068517 0.068087
v 0.301795 -0.062015 0.065297
v 0.297492 -0.066115 0.076785
v 0.303287 -0.059613 0.073995
v 0.310204 -0.065580 0.074456
v 0.304408 -0.072082 0.077246
v 0.294878 -0.056048 0.064836
v 0.296371 -0.053646 0.073534
v 0.293758 -0.043579 0.061584
v 0.300674 -0.049546 0.062045
v 0.295251 -0.041177 0.070282
v 0.302167 -0.047144 0.070743
v 0.292637 -0.031110 0.058333
v 0.294130 -0.028708 0.067031
v 0.299926 -0.022206 0.064241
v 0.306842 -0.028173 0.064702
v 0.301046 -0.034675 0.067492
v 0.291517 -0.018641 0.055082
v 0.298433 -0.024608 0.055543
v 0.293009 -0.016239 0.063780
v 0.298805 -0.009737 0.060989
v 0.290396 -0.006172 0.051830
v 0.291889 -0.003770 0.060528
v 0.297684 0.002732 0.057738
v 0.289275 0.006297 0.048579
v 0.301987 0.006832 0.046250
v 0.290768 0.008699 0.057277
v 0.296564 0.015201 0.054487
v 0.316748 -0.086418 0.069470
v 0.323664 -0.092385 0.069931
v 0.317869 -0.098887 0.072722
v 0.312445 -0.090518 0.080959
v 0.318241 -0.084016 0.078168
v 0.319361 -0.096485 0.081420
v 0.325157 -0.089983 0.078629
v 0.328339 -0.073414 0.063890
v 0.335256 -0.079381 0.064351
v 0.329460 -0.085883 0.067141
v 0.336748 -0.076979 0.073049
v 0.330953 -0.083481 0.075839
v 0.327219 -0.060945 0.060638
v 0.334135 -0.066912 0.061099
v 0.322916 -0.065045 0.072126
v 0.328711 -0.058543 0.069336
v 0.335628 -0.064510 0.069797
v 0.320302 -0.054978 0.060177
v 0.333014 -0.054443 0.057848
v 0.327591 -0.046074 0.066085
v 0.334507 -0.052041 0.066546
v 0.324977 -0.036007 0.054135
v 0.331894 -0.041974 0.054596
v 0.326098 -0.048476 0.057387
v 0.320674 -0.040107 0.065624
v 0.326470 -0.033605 0.062833
v 0.333386 -0.039572 0.063294
v 0.330773 -0.029505 0.051345
v 0.319554 -0.027638 0.062372
v 0.332266 -0.027103 0.060043
v 0.329652 -0.017036 0.048094
v 0.318433 -0.015169 0.059121
v 0.324229 -0.008667 0.056331
v 0.331145 -0.014634 0.056792
v 0.315820 -0.005102 0.047172
v 0.328532 -0.004567 0.044842
v 0.322736 -0.011069 0.047633
v 0.330024 -0.002165 0.053540
v 0.314699 0.007367 0.043920
v 0.327411 0.007902 0.041591
v 0.321615 0.001400 0.044381
v 0.316192 0.009769 0.052618
v 0.321987 0.016271 0.049828
v 0.328904 0.010304 0.050289
v 0.323108 0.003802 0.053079
v 0.326290 0.020371 0.038340
v 0.320867 0.028741 0.046576
v 0.327783 0.022774 0.047038
v 0.325170 0.032840 0.035088
v 0.319746 0.041210 0.043325
v 0.282731 0.027135 0.053564
v 0.287034 0.031235 0.042076
v 0.294322 0.040139 0.047984
v 0.295443 0.027670 0.051235
v 0.312458 0.032305 0.037418
v 0.301239 0.034172 0.048445
v 0.308155 0.028205 0.048906
v 0.320495 0.013869 0.041130
v 0.319374 0.026338 0.037879
v 0.313578 0.019836 0.040669
v 0.313950 0.034708 0.046115
v 0.306662 0.025803 0.040208
v 0.293950 0.025268 0.042537
v 0.275443 0.018231 0.047657
v 0.281238 0.024733 0.044867
v 0.288155 0.018766 0.045328
v 0.282359 0.012264 0.048118
v 0.276935 0.020633 0.056355
v 0.289647 0.021168 0.054025
v 0.283852 0.014666 0.056816
v 0.332086 0.026873 0.035549
v 0.333207 0.014404 0.038801
v 0.333579 0.029276 0.044247
v 0.334699 0.016807 0.047499
v 0.339002 0.020906 0.036010
v 0.344798 0.027409 0.033220
v 0.345919 0.014939 0.036471
v 0.340495 0.023309 0.044708
v 0.346291 0.029811 0.041918
v 0.347411 0.017342 0.045169
v 0.357510 0.027944 0.030891
v 0.351714 0.021442 0.033681
v 0.352086 0.036313 0.039127
v 0.359002 0.030346 0.039589
v 0.353207 0.023844 0.042379
v 0.343677 0.039878 0.029969
v 0.350593 0.033911 0.030430
v 0.339374 0.035778 0.041457
v 0.345170 0.042280 0.038666
v 0.262731 0.017696 0.049986
v 0.269647 0.011729 0.050447
v 0.271140 0.014131 0.059145
v 0.255814 0.023663 0.049525
v 0.261610 0.030165 0.046735
v 0.257307 0.026065 0.058223
v 0.264223 0.020098 0.058684
v 0.267406 0.036667 0.043945
v 0.274322 0.030700 0.044406
v 0.268526 0.024198 0.047196
v 0.263103 0.032567 0.055433
v 0.268898 0.039069 0.052642
v 0.270019 0.026600 0.055894
v 0.280118 0.037202 0.041615
v 0.275815 0.033102 0.053103
v 0.281610 0.039604 0.050313
v 0.288527 0.033637 0.050774
v 0.285913 0.043704 0.038825
v 0.287406 0.046106 0.047523
v 0.330965 0.039343 0.032298
v 0.337882 0.033376 0.032759
v 0.324049 0.045309 0.031837
v 0.325542 0.047712 0.040535
v 0.332458 0.041745 0.040996
v 0.326662 0.035243 0.043786
v 0.318253 0.038807 0.034627
v 0.312830 0.047177 0.042864
v 0.292830 0.037737 0.039286
v 0.305541 0.038272 0.036957
v 0.299746 0.031770 0.039747
v 0.307034 0.040675 0.045654
v 0.291709 0.050206 0.036034
v 0.297505 0.056708 0.033244
v 0.304421 0.050741 0.033705
v 0.298625 0.044239 0.036496
v 0.293202 0.052608 0.044732
v 0.298997 0.059111 0.041942
v 0.290588 0.062675 0.032783
v 0.292081 0.065078 0.041481
v 0.317133 0.051276 0.031376
v 0.318625 0.053679 0.040074
v 0.316012 0.063746 0.028124
v 0.310216 0.057243 0.030915
v 0.317505 0.066148 0.036822
v 0.311337 0.044774 0.034166
v 0.300118 0.046641 0.045193
v 0.305914 0.053144 0.042403
v 0.304793 0.065613 0.039152
v 0.311709 0.059646 0.039613
v 0.296384 0.069177 0.029993
v 0.309096 0.069713 0.027663
v 0.303300 0.063210 0.030454
v 0.303672 0.078082 0.035900
v 0.310588 0.072115 0.036361
v 0.295263 0.081646 0.026741
v 0.302180 0.075679 0.027202
v 0.296756 0.084049 0.035439
v 0.297877 0.071580 0.038691
v 0.282551 0.081111 0.029071
v 0.289468 0.075144 0.029532
v 0.284044 0.083514 0.037769
v 0.289840 0.090016 0.034978
v 0.290960 0.077547 0.038230
v 0.288347 0.087613 0.026280
v 0.301059 0.088149 0.023951
v 0.295635 0.096518 0.032188
v 0.294143 0.094116 0.023490
v 0.299938 0.100618 0.020700
v 0.306855 0.094651 0.021161
v 0.301431 0.103020 0.029398
v 0.307975 0.082182 0.024412
v 0.320687 0.082717 0.022083
v 0.314891 0.076215 0.024873
v 0.322180 0.085119 0.030781
v 0.316384 0.078617 0.033571
v 0.313771 0.088684 0.021622
v 0.308347 0.097053 0.029859
v 0.315263 0.091086 0.030320
v 0.309468 0.084584 0.033110
vn -0.1632 -0.2626 -0.9510
vn 0.1632 0.2626 0.9510
vn -0.6337 -0.7109 0.3051
vn -0.7562 0.6524 -0.0504
vn 0.7562 -0.6524 0.0504
vn 0.6337 0.7109 -0.3051
vt 0.124554 0.094257
vt 0.144752 0.057227
vt 0.181781 0.077425
vt 0.161583 0.114455
vt 0.639601 0.077425
vt 0.619403 0.114455
vt 0.582374 0.094257
vt 0.602572 0.057227
vt 0.343365 0.838215
vt 0.363563 0.801185
vt 0.400593 0.821383
vt 0.380395 0.858413
vt 0.858413 0.821383
vt 0.838215 0.858413
vt 0.801185 0.838215
vt 0.821383 0.801185
vt 0.326533 0.780987
vt 0.346731 0.743958
vt 0.383761 0.764156
vt 0.841581 0.764156
vt 0.784353 0.780987
vt 0.804551 0.743958
vt 0.309702 0.723760
vt 0.329900 0.686730
vt 0.366929 0.706928
vt 0.824749 0.706928
vt 0.767522 0.723760
vt 0.787720 0.686730
vt 0.292870 0.666532
vt 0.313068 0.629503
vt 0.350098 0.649701
vt 0.807918 0.649701
vt 0.750690 0.666532
vt 0.770888 0.629503
vt 0.276039 0.609305
vt 0.296236 0.572275
vt 0.333266 0.592473
vt 0.791086 0.592473
vt 0.733859 0.609305
vt 0.754057 0.572275
vt 0.259207 0.552077
vt 0.279405 0.515048
vt 0.316434 0.535246
vt 0.774255 0.535245
vt 0.717027 0.552077
vt 0.737225 0.515048
vt 0.242375 0.494850
vt 0.262573 0.457820
vt 0.299603 0.478018
vt 0.757423 0.478018
vt 0.700195 0.494850
vt 0.720393 0.457820
vt 0.225544 0.437622
vt 0.245742 0.400593
vt 0.282771 0.420790
vt 0.740591 0.420790
vt 0.683364 0.437622
vt 0.703562 0.400593
vt 0.208712 0.380395
vt 0.228910 0.343365
vt 0.265940 0.363563
vt 0.723760 0.363563
vt 0.666532 0.380395
vt 0.686730 0.343365
vt 0.188514 0.417424
vt 0.760789 0.383761
vt 0.205346 0.474652
vt 0.777621 0.440988
vt 0.222177 0.531879
vt 0.794452 0.498216
vt 0.239009 0.589107
vt 0.811284 0.555443
vt 0.255841 0.646334
vt 0.828116 0.612671
vt 0.272672 0.703562
vt 0.844947 0.669898
vt 0.289504 0.760789
vt 0.861779 0.727126
vt 0.306335 0.818017
vt 0.878611 0.784353
vt 0.420790 0.784353
vt 0.764156 0.818017
vt 0.403959 0.727126
vt 0.747324 0.760789
vt 0.387127 0.669899
vt 0.730492 0.703562
vt 0.370296 0.612671
vt 0.713661 0.646334
vt 0.353464 0.555443
vt 0.696829 0.589107
vt 0.336632 0.498216
vt 0.679997 0.531879
vt 0.319801 0.440988
vt 0.663166 0.474652
vt 0.302969 0.383761
vt 0.646334 0.417424
vt 0.323167 0.875244
vt 0.360197 0.895442
vt 0.895442 0.841581
vt 0.875244 0.878610
vt 0.957820 0.084360
vt 0.915640 0.084360
vt 0.915640 0.042180
vt 0.957820 0.042180
vt 0.286138 0.855046
vt 0.915640 0.804551
vt 1.000000 0.253080
vt 0.957820 0.253080
vt 0.957820 0.210900
vt 1.000000 0.210900
vt 0.957820 0.126540
vt 0.915640 0.126540
vt 0.269306 0.797819
vt 0.898808 0.747324
vt 0.506159 1.000000
vt 0.463979 1.000000
vt 0.463979 0.957820
vt 0.506159 0.957820
vt 0.253080 0.957820
vt 0.210900 0.957820
vt 0.210900 0.915640
vt 0.253080 0.915640
vt 0.252474 0.740591
vt 0.881977 0.690096
vt 0.885778 0.957820
vt 0.843598 0.957820
vt 0.843598 0.915640
vt 0.885778 0.915640
vt 0.759239 0.957820
vt 0.759239 1.000000
vt 0.717059 1.000000
vt 0.717059 0.957820
vt 0.235643 0.683364
vt 0.865145 0.632869
vt 0.379619 0.957820
vt 0.337439 0.957820
vt 0.337439 0.915640
vt 0.379619 0.915640
vt 0.632699 0.957820
vt 0.632699 1.000000
vt 0.590519 1.000000
vt 0.590519 0.957820
vt 0.218811 0.626136
vt 0.848314 0.575641
vt 0.801418 0.957820
vt 0.759239 0.915640
vt 0.801418 0.915640
vt 0.253080 1.000000
vt 0.210900 1.000000
vt 0.201979 0.568909
vt 0.831482 0.518414
vt 1.000000 0.548339
vt 0.957820 0.548339
vt 0.957820 0.506159
vt 1.000000 0.506159
vt 0.421799 0.915640
vt 0.421799 0.957820
vt 0.185148 0.511681
vt 0.814650 0.461186
vt 0.674879 0.957820
vt 0.632699 0.915640
vt 0.674879 0.915640
vt 0.295260 0.957820
vt 0.295259 0.915640
vt 0.168316 0.454454
vt 0.797819 0.403959
vt 0.717059 0.915640
vt 0.548339 0.915640
vt 0.590519 0.915640
vt 0.548339 0.957820
vt 0.417424 0.878611
vt 0.397226 0.915640
vt 0.855046 0.915640
vt 0.818017 0.895442
vt 0.957820 0.168720
vt 0.915640 0.168720
vt 0.915640 0.000000
vt 0.957820 0.000000
vt 0.437622 0.841581
vt 0.780987 0.875244
vt 0.915640 0.210900
vt 0.457820 0.804551
vt 0.743958 0.855046
vt 0.674879 1.000000
vt 0.915640 0.253080
vt 0.440988 0.747324
vt 0.727126 0.797819
vt 1.000000 0.674879
vt 0.957820 0.674879
vt 0.957820 0.632699
vt 1.000000 0.632699
vt 1.000000 0.759239
vt 0.957820 0.759239
vt 0.957820 0.717059
vt 1.000000 0.717059
vt 0.424157 0.690096
vt 0.710294 0.740591
vt 0.548339 1.000000
vt 0.407325 0.632869
vt 0.693463 0.683364
vt 0.957820 0.590519
vt 1.000000 0.590519
vt 0.168720 0.957820
vt 0.168720 0.915640
vt 0.390494 0.575641
vt 0.676631 0.626136
vt 0.337439 1.000000
vt 0.379619 1.000000
vt 0.957820 0.463979
vt 1.000000 0.463979
vt 0.373662 0.518414
vt 0.659800 0.568909
vt 0.506159 0.915640
vt 0.356830 0.461186
vt 0.642968 0.511681
vt 1.000000 0.337439
vt 0.957820 0.337439
vt 0.957820 0.295260
vt 1.000000 0.295260
vt 0.339999 0.403959
vt 0.626136 0.454454
vt 0.421799 1.000000
vt 0.343365 0.309702
vt 0.363563 0.272672
vt 0.400593 0.292870
vt 0.380395 0.329900
vt 0.572275 0.377028
vt 0.552077 0.414058
vt 0.515048 0.393860
vt 0.535246 0.356830
vt 0.057228 0.393860
vt 0.077425 0.356830
vt 0.114455 0.377028
vt 0.094257 0.414058
vt 0.858413 0.292870
vt 0.838215 0.329900
vt 0.801185 0.309702
vt 0.821383 0.272672
vt 0.286137 0.326533
vt 0.306335 0.289504
vt 0.323167 0.346731
vt 0.629503 0.360197
vt 0.609305 0.397226
vt 0.592473 0.339999
vt 0.249108 0.306335
vt 0.269306 0.269306
vt 0.649700 0.323167
vt 0.612671 0.302969
vt 0.134653 0.339999
vt 0.171683 0.360197
vt 0.151485 0.397226
vt 0.780987 0.346731
vt 0.743958 0.326533
vt 0.764155 0.289504
vt 0.154851 0.302969
vt 0.191880 0.323167
vt 0.706928 0.306335
vt 0.727126 0.269306
vt 0.212078 0.286138
vt 0.669898 0.286138
vt 0.957820 0.295259
vt 0.131287 0.434256
vt 0.818017 0.366929
vt 0.463979 0.915640
vt 0.168720 1.000000
vt 0.360197 0.366929
vt 0.589107 0.434256
vt 0.126540 0.957820
vt 0.126540 0.915640
vt 0.084360 1.000000
vt 0.084360 0.957820
vt 0.126540 1.000000
vt 0.437622 0.313068
vt 0.417424 0.350098
vt 0.531879 0.451087
vt 0.494850 0.430889
vt 0.915640 0.632699
vt 0.915640 0.590519
vt 0.420790 0.255841
vt 0.457820 0.276039
vt 0.457820 0.410692
vt 0.478018 0.373662
vt 0.000000 0.957820
vt 0.042180 0.957820
vt 0.042180 1.000000
vt 0.000000 1.000000
vt 0.915640 0.674879
vt 0.383761 0.235643
vt 0.498216 0.336632
vt 0.000000 0.915640
vt 0.042180 0.915640
vt 0.037030 0.430889
vt 0.074059 0.451087
vt 0.895442 0.313068
vt 0.875244 0.350098
vt 0.915640 0.927958
vt 0.957820 0.927958
vt 0.957820 0.970138
vt 0.915640 0.970138
vt 0.915640 0.801419
vt 0.957820 0.801419
vt 0.957820 0.843598
vt 0.915640 0.843598
vt 0.000000 0.410692
vt 0.020198 0.373662
vt 0.915640 0.276038
vt 0.878610 0.255841
vt 1.000000 0.084360
vt 1.000000 0.042180
vt 0.915640 0.759239
vt 0.040396 0.336632
vt 0.841581 0.235643
vt 1.000000 0.000000
vt 0.295259 1.000000
vt 0.295259 0.957820
vt 0.097623 0.319801
vt 0.784353 0.252474
vt 0.915640 0.885778
vt 0.957820 0.885778
vt 0.117821 0.282771
vt 0.747324 0.232276
vt 0.326533 0.252474
vt 0.555443 0.319801
vt 0.289504 0.232276
vt 0.575641 0.282771
vt 0.084360 0.915640
vt 0.232276 0.249108
vt 0.632869 0.265940
vt 1.000000 0.168720
vt 0.175049 0.265940
vt 0.690096 0.249108
vt 1.000000 0.126540
vt 0.138019 0.245742
vt 0.158217 0.208712
vt 0.195247 0.228910
vt 0.710294 0.212078
vt 0.653067 0.228910
vt 0.673265 0.191880
vt 1.000000 0.421799
vt 0.957820 0.421799
vt 0.957820 0.379619
vt 1.000000 0.379619
vt 0.121188 0.188514
vt 0.141386 0.151485
vt 0.178415 0.171683
vt 0.693463 0.154851
vt 0.636235 0.171682
vt 0.656433 0.134653
vt 0.215445 0.191880
vt 0.252474 0.212078
vt 0.595839 0.245742
vt 0.616037 0.208712
vt 0.198613 0.134653
vt 0.235643 0.154851
vt 0.579008 0.188514
vt 0.599206 0.151485
vt 0.104356 0.131287
vt 0.676631 0.097623
vt 0.915640 0.717059
vt 0.067326 0.111089
vt 0.087524 0.074059
vt 0.696829 0.060594
vt 0.659799 0.040396
vt 0.915640 0.506159
vt 0.915640 0.463979
vt 0.107722 0.037030
vt 0.622770 0.020198
vt 0.915640 0.421799
vt 0.127920 0.000000
vt 0.164950 0.020198
vt 0.565542 0.037030
vt 0.585740 0.000000
vt 0.915640 0.379619
vt 0.915640 0.295259
vt 0.218811 0.097623
vt 0.562176 0.131287
vt 0.915640 0.548339
vt 0.201979 0.040396
vt 0.239009 0.060594
vt 0.525146 0.111089
vt 0.545344 0.074059
vt 0.915640 0.337439
s 1
usemtl DS.001
f 476/383/7 486/384/7 492/385/7 477/386/7
f 478/387/8 474/388/8 500/389/8 251/390/8
f 297/391/7 252/392/7 253/393/7 333/394/7
f 300/395/8 337/396/8 255/397/8 254/398/8
f 287/399/7 290/400/7 288/401/7 252/392/7
f 309/402/8 254/398/8 347/403/8 286/404/8
f 284/405/7 258/406/7 350/407/7 290/400/7
f 285/408/8 286/404/8 256/409/8 283/410/8
f 282/411/7 257/412/7 291/413/7 258/406/7
f 259/414/8 283/410/8 357/415/8 292/416/8
f 279/417/7 260/418/7 261/419/7 257/412/7
f 320/420/8 292/416/8 361/421/8 264/422/8
f 277/423/7 276/424/7 262/425/7 260/418/7
f 280/426/8 264/422/8 364/427/8 263/428/8
f 265/429/7 267/430/7 367/431/7 276/424/7
f 278/432/8 263/428/8 295/433/8 266/434/8
f 330/435/7 270/436/7 371/437/7 267/430/7
f 268/438/8 266/434/8 374/439/8 296/440/8
f 269/441/7 394/442/7 392/443/7 270/436/7
f 271/444/8 296/440/8 272/445/8 389/446/8
f 273/447/7 269/441/7 270/436/7 330/435/7
f 332/448/8 268/438/8 296/440/8 271/444/8
f 274/449/7 330/435/7 267/430/7 265/429/7
f 328/450/8 278/432/8 266/434/8 268/438/8
f 275/451/7 265/429/7 276/424/7 277/423/7
f 325/452/8 280/426/8 263/428/8 278/432/8
f 323/453/7 277/423/7 260/418/7 279/417/7
f 319/454/8 320/420/8 264/422/8 280/426/8
f 281/455/7 279/417/7 257/412/7 282/411/7
f 321/456/8 259/414/8 292/416/8 320/420/8
f 314/457/7 282/411/7 258/406/7 284/405/7
f 316/458/8 285/408/8 283/410/8 259/414/8
f 306/459/7 284/405/7 290/400/7 287/399/7
f 308/460/8 309/402/8 286/404/8 285/408/8
f 302/461/7 287/399/7 252/392/7 297/391/7
f 310/462/8 300/395/8 254/398/8 309/402/8
f 252/392/7 288/401/7 340/463/7 253/393/7
f 254/398/8 255/397/8 289/464/8 347/403/8
f 290/400/7 350/407/7 345/465/7 288/401/7
f 286/404/8 347/403/8 348/466/8 256/409/8
f 258/406/7 291/413/7 356/467/7 350/407/7
f 283/410/8 256/409/8 352/468/8 357/415/8
f 257/412/7 261/419/7 354/469/7 291/413/7
f 292/416/8 357/415/8 358/470/8 361/421/8
f 260/418/7 262/425/7 293/471/7 261/419/7
f 264/422/8 361/421/8 294/472/8 364/427/8
f 276/424/7 367/431/7 369/473/7 262/425/7
f 263/428/8 364/427/8 365/474/8 295/433/8
f 267/430/7 371/437/7 373/475/7 367/431/7
f 266/434/8 295/433/8 377/476/8 374/439/8
f 270/436/7 392/443/7 390/477/7 371/437/7
f 296/440/8 374/439/8 375/478/8 272/445/8
f 303/479/7 297/391/7 333/394/7 298/480/7
f 299/481/8 336/482/8 337/396/8 300/395/8
f 299/483/9 303/484/9 298/485/9 336/486/9
f 301/487/7 302/461/7 297/391/7 303/479/7
f 304/488/8 299/481/8 300/395/8 310/462/8
f 301/489/10 304/490/10 310/491/10 302/492/10
f 304/493/9 301/494/9 303/484/9 299/483/9
f 305/495/7 306/459/7 287/399/7 302/461/7
f 307/496/8 310/462/8 309/402/8 308/460/8
f 305/497/10 307/498/10 308/499/10 306/500/10
f 307/501/9 305/502/9 302/503/9 310/504/9
f 311/505/7 314/457/7 284/405/7 306/459/7
f 312/506/8 308/460/8 285/408/8 316/458/8
f 311/507/10 312/508/10 316/509/10 314/510/10
f 312/511/9 311/512/9 306/513/9 308/514/9
f 313/515/7 281/455/7 282/411/7 314/457/7
f 315/516/8 316/458/8 259/414/8 321/456/8
f 313/517/10 315/518/10 321/519/10 281/520/10
f 315/521/9 313/522/9 314/523/9 316/524/9
f 317/525/7 323/453/7 279/417/7 281/455/7
f 318/526/8 321/456/8 320/420/8 319/454/8
f 317/527/10 318/511/10 319/528/10 323/529/10
f 318/501/9 317/530/9 281/531/9 321/502/9
f 322/532/7 275/451/7 277/423/7 323/453/7
f 324/533/8 319/454/8 280/426/8 325/452/8
f 322/534/10 324/535/10 325/536/10 275/537/10
f 324/520/9 322/538/9 323/539/9 319/517/9
f 326/540/7 274/449/7 265/429/7 275/451/7
f 327/541/8 325/452/8 278/432/8 328/450/8
f 326/542/10 327/521/10 328/543/10 274/544/10
f 327/519/9 326/518/9 275/545/9 325/546/9
f 329/547/7 273/447/7 330/435/7 274/449/7
f 331/548/8 328/450/8 268/438/8 332/448/8
f 329/514/10 331/542/10 332/544/10 273/549/10
f 331/550/9 329/551/9 274/524/9 328/552/9
f 298/480/7 333/394/7 334/553/7 335/554/7
f 336/482/8 338/555/8 339/556/8 337/396/8
f 334/557/11 339/558/11 338/494/11 335/493/11
f 336/486/9 298/485/9 335/559/9 338/560/9
f 333/394/7 253/393/7 342/561/7 334/553/7
f 337/396/8 339/556/8 344/562/8 255/397/8
f 342/491/11 344/563/11 339/558/11 334/557/11
f 253/393/7 340/463/7 341/564/7 342/561/7
f 255/397/8 344/562/8 343/565/8 289/464/8
f 340/566/12 289/542/12 343/514/12 341/513/12
f 341/490/11 343/567/11 344/563/11 342/491/11
f 288/401/7 345/465/7 346/568/7 340/463/7
f 347/403/8 289/464/8 349/569/8 348/466/8
f 345/570/12 348/571/12 349/572/12 346/573/12
f 346/574/11 349/575/11 289/576/11 340/577/11
f 350/407/7 356/467/7 351/578/7 345/465/7
f 256/409/8 348/466/8 353/579/8 352/468/8
f 356/497/12 352/500/12 353/552/12 351/580/12
f 351/577/11 353/576/11 348/571/11 345/570/11
f 291/413/7 354/469/7 355/581/7 356/467/7
f 357/415/8 352/468/8 359/582/8 358/470/8
f 354/572/12 358/583/12 359/584/12 355/573/12
f 355/502/11 359/585/11 352/586/11 356/503/11
f 261/419/7 293/471/7 360/587/7 354/469/7
f 361/421/8 358/470/8 362/588/8 294/472/8
f 293/589/12 294/518/12 362/517/12 360/590/12
f 360/537/11 362/536/11 358/591/11 354/592/11
f 262/425/7 369/473/7 363/593/7 293/471/7
f 364/427/8 294/472/8 366/594/8 365/474/8
f 369/583/12 365/535/12 366/534/12 363/584/12
f 363/550/11 366/552/11 294/500/11 293/595/11
f 367/431/7 373/475/7 368/596/7 369/473/7
f 295/433/8 365/474/8 370/597/8 377/476/8
f 373/580/12 377/552/12 370/524/12 368/523/12
f 368/598/11 370/599/11 365/600/11 369/601/11
f 371/437/7 390/477/7 372/602/7 373/475/7
f 374/439/8 377/476/8 376/603/8 375/478/8
f 390/539/12 375/499/12 376/498/12 372/604/12
f 372/511/11 376/514/11 377/549/11 373/528/11
f 403/605/7 442/606/7 408/607/7 407/608/7
f 405/609/8 410/610/8 411/611/8 420/612/8
f 431/613/7 430/614/7 397/615/7 396/616/7
f 434/617/8 400/618/8 383/619/8 436/620/8
f 391/621/7 381/622/7 403/605/7 378/623/7
f 379/624/8 380/625/8 405/609/8 446/626/8
f 387/627/7 447/628/7 381/622/7 391/621/7
f 393/629/8 379/624/8 446/626/8 382/630/8
f 397/615/7 384/631/7 395/632/7 398/633/7
f 383/619/8 401/634/8 386/635/8 438/636/8
f 384/631/7 449/637/7 451/638/7 395/632/7
f 438/636/8 386/635/8 388/639/8 385/640/8
f 451/638/7 450/641/7 387/627/7 394/442/7
f 388/639/8 389/446/8 393/629/8 452/642/8
f 392/443/7 391/621/7 378/623/7 390/477/7
f 272/445/8 375/478/8 380/625/8 379/624/8
f 378/489/11 380/601/11 375/643/11 390/490/11
f 394/442/7 387/627/7 391/621/7 392/443/7
f 389/446/8 272/445/8 379/624/8 393/629/8
f 395/632/7 451/638/7 394/442/7 269/441/7
f 386/635/8 271/444/8 389/446/8 388/639/8
f 398/633/7 395/632/7 269/441/7 273/447/7
f 401/634/8 332/448/8 271/444/8 386/635/8
f 401/521/9 398/524/9 273/551/9 332/543/9
f 396/616/7 397/615/7 398/633/7 399/644/7
f 400/618/8 402/645/8 401/634/8 383/619/8
f 398/500/11 401/499/11 402/646/11 399/595/11
f 400/585/9 396/502/9 399/531/9 402/647/9
f 378/623/7 403/605/7 407/608/7 404/648/7
f 380/625/8 406/649/8 410/610/8 405/609/8
f 407/585/11 410/650/11 406/651/11 404/586/11
f 380/652/9 378/653/9 404/650/9 406/654/9
f 407/608/7 408/607/7 414/655/7 409/656/7
f 410/610/8 412/657/8 417/658/8 411/611/8
f 414/572/11 417/659/11 412/660/11 409/583/11
f 410/650/9 407/585/9 409/647/9 412/654/9
f 408/607/7 419/661/7 413/662/7 414/655/7
f 411/611/8 417/658/8 416/663/8 415/664/8
f 419/665/12 415/666/12 416/667/12 413/668/12
f 413/571/11 416/669/11 417/659/11 414/572/11
f 442/606/7 418/670/7 419/661/7 408/607/7
f 420/612/8 411/611/8 415/664/8 421/671/8
f 442/508/10 420/527/10 421/529/10 418/509/10
f 418/672/12 421/673/12 415/666/12 419/665/12
f 422/674/7 431/613/7 396/616/7 423/675/7
f 428/676/8 424/677/8 400/618/8 434/617/8
f 396/678/11 400/679/11 424/680/11 423/681/11
f 428/682/9 422/683/9 423/684/9 424/685/9
f 425/686/7 426/687/7 431/613/7 422/674/7
f 427/688/8 428/676/8 434/617/8 432/689/8
f 425/690/10 427/483/10 432/486/10 426/691/10
f 427/692/9 425/575/9 422/683/9 428/682/9
f 426/687/7 429/693/7 430/614/7 431/613/7
f 432/689/8 434/617/8 436/620/8 433/694/8
f 426/691/10 432/486/10 433/560/10 429/695/10
f 429/589/12 433/696/12 436/697/12 430/518/12
f 430/614/7 435/698/7 384/631/7 397/615/7
f 436/620/8 383/619/8 438/636/8 437/699/8
f 430/679/10 436/678/10 437/700/10 435/701/10
f 435/698/7 439/702/7 449/637/7 384/631/7
f 437/699/8 438/636/8 385/640/8 440/703/8
f 435/701/10 437/700/10 440/685/10 439/684/10
f 439/499/12 440/539/12 385/538/12 449/646/12
f 381/622/7 441/704/7 442/606/7 403/605/7
f 446/626/8 405/609/8 420/612/8 445/705/8
f 441/666/12 445/653/12 420/652/12 442/667/12
f 447/628/7 443/706/7 441/704/7 381/622/7
f 382/630/8 446/626/8 445/705/8 444/707/8
f 447/696/10 382/530/10 444/501/10 443/697/10
f 443/673/12 444/708/12 445/653/12 441/666/12
f 450/641/7 466/709/7 447/628/7 387/627/7
f 452/642/8 393/629/8 382/630/8 448/710/8
f 466/491/12 448/557/12 382/711/12 447/492/12
f 449/637/7 456/712/7 450/641/7 451/638/7
f 385/640/8 388/639/8 452/642/8 467/713/8
f 449/714/10 385/711/10 467/557/10 456/493/10
f 453/715/7 454/716/7 455/717/7 456/712/7
f 457/718/8 467/713/8 468/719/8 458/720/8
f 453/721/10 457/722/10 458/723/10 454/724/10
f 457/708/9 453/651/9 456/650/9 467/653/9
f 459/725/7 471/726/7 473/727/7 454/716/7
f 460/728/8 458/720/8 469/729/8 479/730/8
f 459/539/10 460/604/10 479/590/10 471/517/10
f 460/599/9 459/598/9 454/724/9 458/723/9
f 455/717/7 464/731/7 461/732/7 466/709/7
f 468/719/8 448/710/8 462/733/8 470/734/8
f 464/522/12 470/521/12 462/542/12 461/566/12
f 461/714/11 462/493/11 448/483/11 466/690/11
f 473/727/7 472/735/7 463/736/7 464/731/7
f 469/729/8 470/734/8 465/737/8 475/738/8
f 472/592/12 475/591/12 465/722/12 463/721/12
f 463/697/11 465/501/11 470/504/11 464/546/11
f 456/712/7 455/717/7 466/709/7 450/641/7
f 467/713/8 452/642/8 448/710/8 468/719/8
f 454/716/7 473/727/7 464/731/7 455/717/7
f 458/720/8 468/719/8 470/734/8 469/729/8
f 471/726/7 477/386/7 472/735/7 473/727/7
f 479/730/8 469/729/8 475/738/8 474/388/8
f 481/739/7 476/383/7 477/386/7 471/726/7
f 484/740/8 479/730/8 474/388/8 478/387/8
f 484/576/9 481/741/9 471/669/9 479/571/9
f 480/742/7 485/743/7 476/383/7 481/739/7
f 482/744/8 484/740/8 478/387/8 483/745/8
f 480/536/10 482/746/10 483/747/10 485/591/10
f 482/575/9 480/692/9 481/741/9 484/576/9
f 485/743/7 488/748/7 486/384/7 476/383/7
f 483/745/8 478/387/8 251/390/8 487/749/8
f 485/591/10 483/747/10 487/750/10 488/722/10
f 488/748/7 489/751/7 490/752/7 486/384/7
f 487/749/8 251/390/8 498/753/8 491/754/8
f 488/722/10 487/750/10 491/755/10 489/723/10
f 489/567/12 491/490/12 498/600/12 490/756/12
f 477/386/7 492/385/7 494/757/7 472/735/7
f 474/388/8 475/738/8 496/758/8 500/389/8
f 494/535/11 496/759/11 475/746/11 472/536/11
f 492/385/7 497/760/7 493/761/7 494/757/7
f 500/389/8 496/758/8 495/762/8 499/763/8
f 497/764/12 499/599/12 495/723/12 493/755/12
f 493/583/11 495/660/11 496/759/11 494/535/11
f 486/384/7 490/752/7 497/760/7 492/385/7
f 251/390/8 500/389/8 499/763/8 498/753/8
f 490/756/12 498/600/12 499/599/12 497/764/12
