# Blender 5.1.2
# www.blender.org
mtllib tools.mtl
o Mesa_de_crafteo
v 0.107231 -0.124872 0.715290
v 0.081889 -0.118528 0.589314
v 0.083147 0.009972 0.595531
v 0.108490 0.003629 0.721508
v -0.044241 -0.118520 0.614687
v -0.018899 -0.124864 0.740664
v -0.017640 0.003636 0.746882
v -0.042983 0.009980 0.620905
vn 0.9804 -0.0001 -0.1972
vn -0.0098 -0.9988 -0.0483
vn 0.1970 -0.0493 0.9792
vn -0.9804 0.0001 0.1972
vn 0.0098 0.9988 0.0483
vn -0.1970 0.0493 -0.9792
vt 0.086914 0.965820
vt 0.086914 0.981445
vt 0.071289 0.981445
vt 0.071289 0.965820
vt 0.071289 0.983398
vt 0.071289 0.999023
vt 0.086914 0.999023
vt 0.086914 0.983398
vt 0.053711 0.965820
vt 0.069336 0.965820
vt 0.069336 0.981445
vt 0.053711 0.981445
vt 0.756836 0.983398
vt 0.772461 0.983398
vt 0.772461 0.999023
vt 0.756836 0.999023
s 1
usemtl Crafting_Table
f 2/1/1 3/2/1 4/3/1 1/4/1
f 2/5/2 1/6/2 6/7/2 5/8/2
f 1/1/3 4/2/3 7/3/3 6/4/3
f 5/9/4 6/10/4 7/11/4 8/12/4
f 3/13/5 8/14/5 7/15/5 4/16/5
f 2/9/6 5/10/6 8/11/6 3/12/6
o Yunque
v -0.068254 -0.015563 0.642139
v -0.226778 -0.015553 0.674029
v -0.067661 0.045001 0.645069
v -0.226185 0.045011 0.676960
v -0.048347 -0.020546 0.741096
v -0.206871 -0.020536 0.772987
v -0.047754 0.040018 0.744027
v -0.206278 0.040028 0.775917
v -0.102407 -0.067525 0.677356
v -0.181669 -0.067520 0.693302
v -0.101913 -0.017055 0.679799
v -0.181175 -0.017050 0.695744
v -0.094444 -0.069518 0.716939
v -0.173707 -0.069514 0.732885
v -0.093950 -0.019048 0.719382
v -0.173212 -0.019044 0.735327
v -0.096580 -0.076623 0.655083
v -0.195657 -0.076617 0.675015
v -0.096481 -0.066529 0.655572
v -0.195559 -0.066523 0.675503
v -0.080654 -0.080610 0.734249
v -0.179732 -0.080604 0.754181
v -0.080555 -0.070516 0.734738
v -0.179633 -0.070510 0.754669
v -0.091049 -0.116003 0.631345
v -0.209942 -0.115996 0.655263
v -0.090653 -0.075627 0.633299
v -0.209547 -0.075620 0.657217
v -0.067160 -0.121983 0.750094
v -0.186054 -0.121976 0.774012
v -0.066765 -0.081607 0.752048
v -0.185658 -0.081600 0.775966
vn -0.1970 0.0493 -0.9792
vn -0.0098 -0.9988 -0.0483
vn 0.9804 -0.0001 -0.1972
vn 0.1970 -0.0493 0.9792
vn 0.0098 0.9988 0.0483
vn -0.9804 0.0001 0.1972
vt 0.842773 0.946289
vt 0.827148 0.946289
vt 0.827148 0.940430
vt 0.842773 0.940430
vt 0.830078 0.930664
vt 0.830078 0.946289
vt 0.839844 0.946289
vt 0.839844 0.930664
vt 0.830078 0.940430
vt 0.839844 0.940430
vt 0.136719 0.928711
vt 0.126953 0.928711
vt 0.126953 0.913086
vt 0.136719 0.913086
vt 0.838867 0.940430
vt 0.831055 0.940430
vt 0.831055 0.935547
vt 0.838867 0.935547
vt 0.833008 0.940430
vt 0.833008 0.935547
vt 0.836914 0.935547
vt 0.836914 0.940430
vt 0.839844 0.935547
vt 0.830078 0.935547
vt 0.830078 0.934570
vt 0.839844 0.934570
vt 0.831055 0.934570
vt 0.838867 0.934570
vt 0.838867 0.943359
vt 0.831055 0.943359
vt 0.831055 0.933594
vt 0.838867 0.933594
vt 0.840820 0.934570
vt 0.829102 0.934570
vt 0.829102 0.930664
vt 0.840820 0.930664
vt 0.829102 0.932617
vt 0.829102 0.944336
vt 0.840820 0.944336
vt 0.840820 0.932617
s 1
usemtl Anvil
f 12/17/7 11/18/7 9/19/7 10/20/7
f 10/21/8 9/22/8 13/23/8 14/24/8
f 15/22/9 13/25/9 9/26/9 11/23/9
f 16/18/10 14/19/10 13/20/10 15/17/10
f 15/27/11 11/28/11 12/29/11 16/30/11
f 16/23/12 12/22/12 10/25/12 14/26/12
f 20/31/7 19/32/7 17/33/7 18/34/7
f 23/35/9 21/36/9 17/37/9 19/38/9
f 24/32/10 22/33/10 21/34/10 23/31/10
f 24/38/12 20/35/12 18/36/12 22/37/12
f 28/39/7 27/40/7 25/41/7 26/42/7
f 31/33/9 29/43/9 25/44/9 27/34/9
f 32/40/10 30/41/10 29/42/10 31/39/10
f 31/45/11 27/46/11 28/47/11 32/48/11
f 32/34/12 28/33/12 26/43/12 30/44/12
f 36/49/7 35/50/7 33/51/7 34/52/7
f 34/53/8 33/54/8 37/55/8 38/56/8
f 39/50/9 37/51/9 33/52/9 35/49/9
f 40/50/10 38/51/10 37/52/10 39/49/10
f 39/55/11 35/54/11 36/53/11 40/56/11
f 40/49/12 36/50/12 34/51/12 38/52/12
