# Blender 5.1.2
# www.blender.org
mtllib tree.mtl
o arbol_xd
v -0.020664 0.304665 -1.494580
v -0.040786 0.309702 -1.594606
v -0.039787 0.411732 -1.589669
v -0.019665 0.406695 -1.489643
v -0.140935 0.309708 -1.574459
v -0.120813 0.304671 -1.474433
v -0.119814 0.406701 -1.469496
v -0.139936 0.411738 -1.569522
v -0.060908 0.314739 -1.694633
v -0.059909 0.416769 -1.689696
v -0.161057 0.314745 -1.674486
v -0.160058 0.416775 -1.669549
v -0.058910 0.518802 -1.684759
v -0.038788 0.513765 -1.584732
v -0.138936 0.513771 -1.564585
v -0.159058 0.518808 -1.664612
v -0.081031 0.319776 -1.794659
v -0.080031 0.421807 -1.789722
v -0.181179 0.319782 -1.774513
v -0.180180 0.421813 -1.769575
v -0.079032 0.523839 -1.784785
v -0.179180 0.523845 -1.764638
v -0.101153 0.324813 -1.894686
v -0.100153 0.426844 -1.889749
v -0.201301 0.324819 -1.874539
v -0.200302 0.426850 -1.869602
v -0.099154 0.528876 -1.884812
v -0.199302 0.528882 -1.864665
v -0.241083 0.309714 -1.554312
v -0.220961 0.304677 -1.454286
v -0.219962 0.406707 -1.449349
v -0.240084 0.411744 -1.549376
v -0.118814 0.508734 -1.464559
v -0.218963 0.508740 -1.444412
v -0.239085 0.513777 -1.544438
v -0.261205 0.314751 -1.654339
v -0.260206 0.416781 -1.649402
v -0.259207 0.518814 -1.644465
v -0.158059 0.620834 -1.659675
v -0.137937 0.615796 -1.559649
v -0.238086 0.615802 -1.539502
v -0.258208 0.620839 -1.639528
v -0.281327 0.319788 -1.754366
v -0.280328 0.421818 -1.749429
v -0.279329 0.523851 -1.744492
v -0.178181 0.625871 -1.759702
v -0.278330 0.625877 -1.739555
v -0.177182 0.727903 -1.754765
v -0.157060 0.722866 -1.654738
v -0.257208 0.722872 -1.634591
v -0.277330 0.727909 -1.734618
v -0.301449 0.324825 -1.854392
v -0.300450 0.426856 -1.849455
v -0.299451 0.528888 -1.844518
v -0.221423 0.329856 -1.974566
v -0.220424 0.431887 -1.969629
v -0.321571 0.329862 -1.954419
v -0.320572 0.431893 -1.949482
v -0.219425 0.533919 -1.964692
v -0.319573 0.533925 -1.944545
v -0.341232 0.309720 -1.534166
v -0.321110 0.304683 -1.434139
v -0.320110 0.406713 -1.429202
v -0.340232 0.411750 -1.529229
v -0.319111 0.508746 -1.424265
v -0.339233 0.513783 -1.524292
v -0.361354 0.314757 -1.634192
v -0.360354 0.416787 -1.629255
v -0.359355 0.518820 -1.624318
v -0.338234 0.615808 -1.519355
v -0.358356 0.620845 -1.619381
v -0.237086 0.717835 -1.534565
v -0.337235 0.717841 -1.514418
v -0.357357 0.722878 -1.614444
v -0.264203 0.008659 -1.669150
v -0.284325 0.013696 -1.769177
v -0.283326 0.115727 -1.764240
v -0.263204 0.110690 -1.664213
v -0.384473 0.013702 -1.749030
v -0.364351 0.008665 -1.649003
v -0.363352 0.110696 -1.644066
v -0.383474 0.115733 -1.744093
v -0.282327 0.217758 -1.759303
v -0.262205 0.212720 -1.659276
v -0.362353 0.212726 -1.639129
v -0.382475 0.217764 -1.739156
v -0.381476 0.319794 -1.734219
v -0.380476 0.421824 -1.729282
v -0.379477 0.523857 -1.724345
v -0.378478 0.625883 -1.719408
v -0.377479 0.727915 -1.714471
v -0.401598 0.324831 -1.834245
v -0.400598 0.426862 -1.829309
v -0.399599 0.528894 -1.824371
v -0.298452 0.630914 -1.839581
v -0.398600 0.630920 -1.819435
v -0.297452 0.732946 -1.834644
v -0.397601 0.732952 -1.814498
v -0.421720 0.329868 -1.934272
v -0.420721 0.431899 -1.929335
v -0.419721 0.533931 -1.924398
v -0.441380 0.309726 -1.514019
v -0.421258 0.304689 -1.413992
v -0.420259 0.406719 -1.409055
v -0.440381 0.411756 -1.509082
v -0.419259 0.508752 -1.404118
v -0.439381 0.513789 -1.504145
v -0.461502 0.314763 -1.614045
v -0.460503 0.416793 -1.609108
v -0.459504 0.518826 -1.604171
v -0.481624 0.319800 -1.714072
v -0.480625 0.421830 -1.709135
v -0.479626 0.523863 -1.704198
v -0.458504 0.620851 -1.599235
v -0.478626 0.625888 -1.699261
v -0.457505 0.722884 -1.594298
v -0.477627 0.727921 -1.694324
v -0.501746 0.324837 -1.814099
v -0.500747 0.426867 -1.809162
v -0.499748 0.528900 -1.804224
v -0.498748 0.630926 -1.799288
v -0.521868 0.329874 -1.914125
v -0.520869 0.431905 -1.909188
v -0.519870 0.533937 -1.904251
v -0.541528 0.309732 -1.493872
v -0.521406 0.304695 -1.393845
v -0.520407 0.406725 -1.388908
v -0.540529 0.411762 -1.488935
v -0.519408 0.508758 -1.383971
v -0.539530 0.513795 -1.483998
v -0.561650 0.314769 -1.593899
v -0.560651 0.416799 -1.588962
v -0.559652 0.518832 -1.584024
v -0.581772 0.319806 -1.693925
v -0.580773 0.421836 -1.688988
v -0.579774 0.523869 -1.684051
v -0.601894 0.324843 -1.793952
v -0.600895 0.426873 -1.789015
v -0.599896 0.528906 -1.784078
vn 0.9804 -0.0001 -0.1972
vn -0.0098 -0.9988 -0.0483
vn 0.1970 -0.0493 0.9792
vn -0.9804 0.0001 0.1972
vn -0.1970 0.0493 -0.9792
vn 0.0098 0.9988 0.0483
vt 0.368164 0.983398
vt 0.368164 0.999023
vt 0.352539 0.999023
vt 0.352539 0.983398
vt 0.370117 0.983398
vt 0.370117 0.999023
vt 0.385742 0.999023
vt 0.385742 0.983398
vt 0.930664 0.983398
vt 0.930664 0.999023
vt 0.915039 0.999023
vt 0.915039 0.983398
s 1
usemtl Oak_Log
f 76/1/1 77/2/1 78/3/1 75/4/1
f 76/5/2 75/6/2 80/7/2 79/8/2
f 75/1/3 78/2/3 81/3/3 80/4/3
f 79/4/4 80/1/4 81/2/4 82/3/4
f 76/4/5 79/1/5 82/2/5 77/3/5
f 77/1/1 83/2/1 84/3/1 78/4/1
f 78/1/3 84/2/3 85/3/3 81/4/3
f 82/4/4 81/1/4 85/2/4 86/3/4
f 77/4/5 82/1/5 86/2/5 83/3/5
f 83/1/1 43/2/1 36/3/1 84/4/1
f 84/1/3 36/2/3 67/3/3 85/4/3
f 86/4/4 85/1/4 67/2/4 87/3/4
f 83/4/5 86/1/5 87/2/5 43/3/5
f 43/1/1 44/2/1 37/3/1 36/4/1
f 36/1/3 37/2/3 68/3/3 67/4/3
f 87/4/4 67/1/4 68/2/4 88/3/4
f 43/4/5 87/1/5 88/2/5 44/3/5
f 44/1/1 45/2/1 38/3/1 37/4/1
f 37/1/3 38/2/3 69/3/3 68/4/3
f 88/4/4 68/1/4 69/2/4 89/3/4
f 44/4/5 88/1/5 89/2/5 45/3/5
f 45/1/1 47/2/1 42/3/1 38/4/1
f 38/1/3 42/2/3 71/3/3 69/4/3
f 89/4/4 69/1/4 71/2/4 90/3/4
f 47/5/6 90/8/6 71/7/6 42/6/6
f 45/4/5 89/1/5 90/2/5 47/3/5
usemtl Oak_Leaves
f 2/9/1 3/10/1 4/11/1 1/12/1
f 2/12/2 1/11/2 6/10/2 5/9/2
f 1/9/3 4/10/3 7/11/3 6/12/3
f 5/12/4 6/9/4 7/10/4 8/11/4
f 3/12/6 8/9/6 7/10/6 4/11/6
f 2/12/5 5/9/5 8/10/5 3/11/5
f 9/9/1 10/10/1 3/11/1 2/12/1
f 9/12/2 2/11/2 5/10/2 11/9/2
f 11/12/4 5/9/4 8/10/4 12/11/4
f 10/12/6 12/9/6 8/10/6 3/11/6
f 9/12/5 11/9/5 12/10/5 10/11/5
f 10/9/1 13/10/1 14/11/1 3/12/1
f 3/9/3 14/10/3 15/11/3 8/12/3
f 12/12/4 8/9/4 15/10/4 16/11/4
f 13/12/6 16/9/6 15/10/6 14/11/6
f 10/12/5 12/9/5 16/10/5 13/11/5
f 17/9/1 18/10/1 10/11/1 9/12/1
f 17/12/2 9/11/2 11/10/2 19/9/2
f 19/12/4 11/9/4 12/10/4 20/11/4
f 18/12/6 20/9/6 12/10/6 10/11/6
f 17/12/5 19/9/5 20/10/5 18/11/5
f 18/9/1 21/10/1 13/11/1 10/12/1
f 20/12/4 12/9/4 16/10/4 22/11/4
f 21/12/6 22/9/6 16/10/6 13/11/6
f 18/12/5 20/9/5 22/10/5 21/11/5
f 23/9/1 24/10/1 18/11/1 17/12/1
f 23/12/2 17/11/2 19/10/2 25/9/2
f 25/12/4 19/9/4 20/10/4 26/11/4
f 24/12/6 26/9/6 20/10/6 18/11/6
f 23/12/5 25/9/5 26/10/5 24/11/5
f 24/9/1 27/10/1 21/11/1 18/12/1
f 26/12/4 20/9/4 22/10/4 28/11/4
f 27/12/6 28/9/6 22/10/6 21/11/6
f 24/12/5 26/9/5 28/10/5 27/11/5
f 5/12/2 6/11/2 30/10/2 29/9/2
f 6/9/3 7/10/3 31/11/3 30/12/3
f 29/12/4 30/9/4 31/10/4 32/11/4
f 8/12/6 32/9/6 31/10/6 7/11/6
f 5/12/5 29/9/5 32/10/5 8/11/5
f 8/9/1 15/10/1 33/11/1 7/12/1
f 7/9/3 33/10/3 34/11/3 31/12/3
f 32/12/4 31/9/4 34/10/4 35/11/4
f 15/12/6 35/9/6 34/10/6 33/11/6
f 8/12/5 32/9/5 35/10/5 15/11/5
f 11/12/2 5/11/2 29/10/2 36/9/2
f 36/12/4 29/9/4 32/10/4 37/11/4
f 12/12/6 37/9/6 32/10/6 8/11/6
f 11/12/5 36/9/5 37/10/5 12/11/5
f 37/12/4 32/9/4 35/10/4 38/11/4
f 16/12/6 38/9/6 35/10/6 15/11/6
f 12/12/5 37/9/5 38/10/5 16/11/5
f 16/9/1 39/10/1 40/11/1 15/12/1
f 15/9/3 40/10/3 41/11/3 35/12/3
f 38/12/4 35/9/4 41/10/4 42/11/4
f 39/12/6 42/9/6 41/10/6 40/11/6
f 16/12/5 38/9/5 42/10/5 39/11/5
f 19/12/2 11/11/2 36/10/2 43/9/2
f 20/12/6 44/9/6 37/10/6 12/11/6
f 19/12/5 43/9/5 44/10/5 20/11/5
f 22/12/6 45/9/6 38/10/6 16/11/6
f 20/12/5 44/9/5 45/10/5 22/11/5
f 22/9/1 46/10/1 39/11/1 16/12/1
f 46/12/6 47/9/6 42/10/6 39/11/6
f 22/12/5 45/9/5 47/10/5 46/11/5
f 46/9/1 48/10/1 49/11/1 39/12/1
f 39/9/3 49/10/3 50/11/3 42/12/3
f 47/12/4 42/9/4 50/10/4 51/11/4
f 48/12/6 51/9/6 50/10/6 49/11/6
f 46/12/5 47/9/5 51/10/5 48/11/5
f 25/12/2 19/11/2 43/10/2 52/9/2
f 52/12/4 43/9/4 44/10/4 53/11/4
f 26/12/6 53/9/6 44/10/6 20/11/6
f 25/12/5 52/9/5 53/10/5 26/11/5
f 53/12/4 44/9/4 45/10/4 54/11/4
f 28/12/6 54/9/6 45/10/6 22/11/6
f 26/12/5 53/9/5 54/10/5 28/11/5
f 55/9/1 56/10/1 26/11/1 25/12/1
f 55/12/2 25/11/2 52/10/2 57/9/2
f 57/12/4 52/9/4 53/10/4 58/11/4
f 56/12/6 58/9/6 53/10/6 26/11/6
f 55/12/5 57/9/5 58/10/5 56/11/5
f 56/9/1 59/10/1 28/11/1 26/12/1
f 58/12/4 53/9/4 54/10/4 60/11/4
f 59/12/6 60/9/6 54/10/6 28/11/6
f 56/12/5 58/9/5 60/10/5 59/11/5
f 29/12/2 30/11/2 62/10/2 61/9/2
f 30/9/3 31/10/3 63/11/3 62/12/3
f 61/12/4 62/9/4 63/10/4 64/11/4
f 32/12/6 64/9/6 63/10/6 31/11/6
f 29/12/5 61/9/5 64/10/5 32/11/5
f 31/9/3 34/10/3 65/11/3 63/12/3
f 64/12/4 63/9/4 65/10/4 66/11/4
f 35/12/6 66/9/6 65/10/6 34/11/6
f 32/12/5 64/9/5 66/10/5 35/11/5
f 36/12/2 29/11/2 61/10/2 67/9/2
f 67/12/4 61/9/4 64/10/4 68/11/4
f 37/12/6 68/9/6 64/10/6 32/11/6
f 68/12/4 64/9/4 66/10/4 69/11/4
f 38/12/6 69/9/6 66/10/6 35/11/6
f 35/9/3 41/10/3 70/11/3 66/12/3
f 69/12/4 66/9/4 70/10/4 71/11/4
f 42/12/6 71/9/6 70/10/6 41/11/6
f 42/9/1 50/10/1 72/11/1 41/12/1
f 41/9/3 72/10/3 73/11/3 70/12/3
f 71/12/4 70/9/4 73/10/4 74/11/4
f 50/12/6 74/9/6 73/10/6 72/11/6
f 42/12/5 71/9/5 74/10/5 50/11/5
f 90/12/4 71/9/4 74/10/4 91/11/4
f 51/12/6 91/9/6 74/10/6 50/11/6
f 47/12/5 90/9/5 91/10/5 51/11/5
f 52/12/2 43/11/2 87/10/2 92/9/2
f 92/12/4 87/9/4 88/10/4 93/11/4
f 53/12/6 93/9/6 88/10/6 44/11/6
f 52/12/5 92/9/5 93/10/5 53/11/5
f 93/12/4 88/9/4 89/10/4 94/11/4
f 54/12/6 94/9/6 89/10/6 45/11/6
f 53/12/5 93/9/5 94/10/5 54/11/5
f 54/9/1 95/10/1 47/11/1 45/12/1
f 94/12/4 89/9/4 90/10/4 96/11/4
f 95/12/6 96/9/6 90/10/6 47/11/6
f 54/12/5 94/9/5 96/10/5 95/11/5
f 95/9/1 97/10/1 51/11/1 47/12/1
f 96/12/4 90/9/4 91/10/4 98/11/4
f 97/12/6 98/9/6 91/10/6 51/11/6
f 95/12/5 96/9/5 98/10/5 97/11/5
f 57/12/2 52/11/2 92/10/2 99/9/2
f 99/12/4 92/9/4 93/10/4 100/11/4
f 58/12/6 100/9/6 93/10/6 53/11/6
f 57/12/5 99/9/5 100/10/5 58/11/5
f 100/12/4 93/9/4 94/10/4 101/11/4
f 60/12/6 101/9/6 94/10/6 54/11/6
f 58/12/5 100/9/5 101/10/5 60/11/5
f 61/12/2 62/11/2 103/10/2 102/9/2
f 62/9/3 63/10/3 104/11/3 103/12/3
f 102/12/4 103/9/4 104/10/4 105/11/4
f 64/12/6 105/9/6 104/10/6 63/11/6
f 61/12/5 102/9/5 105/10/5 64/11/5
f 63/9/3 65/10/3 106/11/3 104/12/3
f 105/12/4 104/9/4 106/10/4 107/11/4
f 66/12/6 107/9/6 106/10/6 65/11/6
f 64/12/5 105/9/5 107/10/5 66/11/5
f 67/12/2 61/11/2 102/10/2 108/9/2
f 108/12/4 102/9/4 105/10/4 109/11/4
f 68/12/6 109/9/6 105/10/6 64/11/6
f 67/12/5 108/9/5 109/10/5 68/11/5
f 109/12/4 105/9/4 107/10/4 110/11/4
f 69/12/6 110/9/6 107/10/6 66/11/6
f 68/12/5 109/9/5 110/10/5 69/11/5
f 87/12/2 67/11/2 108/10/2 111/9/2
f 111/12/4 108/9/4 109/10/4 112/11/4
f 88/12/6 112/9/6 109/10/6 68/11/6
f 87/12/5 111/9/5 112/10/5 88/11/5
f 112/12/4 109/9/4 110/10/4 113/11/4
f 89/12/6 113/9/6 110/10/6 69/11/6
f 88/12/5 112/9/5 113/10/5 89/11/5
f 69/9/3 71/10/3 114/11/3 110/12/3
f 113/12/4 110/9/4 114/10/4 115/11/4
f 90/12/6 115/9/6 114/10/6 71/11/6
f 89/12/5 113/9/5 115/10/5 90/11/5
f 71/9/3 74/10/3 116/11/3 114/12/3
f 115/12/4 114/9/4 116/10/4 117/11/4
f 91/12/6 117/9/6 116/10/6 74/11/6
f 90/12/5 115/9/5 117/10/5 91/11/5
f 92/12/2 87/11/2 111/10/2 118/9/2
f 118/12/4 111/9/4 112/10/4 119/11/4
f 93/12/6 119/9/6 112/10/6 88/11/6
f 92/12/5 118/9/5 119/10/5 93/11/5
f 119/12/4 112/9/4 113/10/4 120/11/4
f 94/12/6 120/9/6 113/10/6 89/11/6
f 93/12/5 119/9/5 120/10/5 94/11/5
f 120/12/4 113/9/4 115/10/4 121/11/4
f 96/12/6 121/9/6 115/10/6 90/11/6
f 94/12/5 120/9/5 121/10/5 96/11/5
f 99/12/2 92/11/2 118/10/2 122/9/2
f 122/12/4 118/9/4 119/10/4 123/11/4
f 100/12/6 123/9/6 119/10/6 93/11/6
f 99/12/5 122/9/5 123/10/5 100/11/5
f 123/12/4 119/9/4 120/10/4 124/11/4
f 101/12/6 124/9/6 120/10/6 94/11/6
f 100/12/5 123/9/5 124/10/5 101/11/5
f 102/12/2 103/11/2 126/10/2 125/9/2
f 103/9/3 104/10/3 127/11/3 126/12/3
f 125/12/4 126/9/4 127/10/4 128/11/4
f 105/12/6 128/9/6 127/10/6 104/11/6
f 102/12/5 125/9/5 128/10/5 105/11/5
f 104/9/3 106/10/3 129/11/3 127/12/3
f 128/12/4 127/9/4 129/10/4 130/11/4
f 107/12/6 130/9/6 129/10/6 106/11/6
f 105/12/5 128/9/5 130/10/5 107/11/5
f 108/12/2 102/11/2 125/10/2 131/9/2
f 131/12/4 125/9/4 128/10/4 132/11/4
f 109/12/6 132/9/6 128/10/6 105/11/6
f 108/12/5 131/9/5 132/10/5 109/11/5
f 132/12/4 128/9/4 130/10/4 133/11/4
f 110/12/6 133/9/6 130/10/6 107/11/6
f 109/12/5 132/9/5 133/10/5 110/11/5
f 111/12/2 108/11/2 131/10/2 134/9/2
f 134/12/4 131/9/4 132/10/4 135/11/4
f 112/12/6 135/9/6 132/10/6 109/11/6
f 111/12/5 134/9/5 135/10/5 112/11/5
f 135/12/4 132/9/4 133/10/4 136/11/4
f 113/12/6 136/9/6 133/10/6 110/11/6
f 112/12/5 135/9/5 136/10/5 113/11/5
f 118/12/2 111/11/2 134/10/2 137/9/2
f 137/12/4 134/9/4 135/10/4 138/11/4
f 119/12/6 138/9/6 135/10/6 112/11/6
f 118/12/5 137/9/5 138/10/5 119/11/5
f 138/12/4 135/9/4 136/10/4 139/11/4
f 120/12/6 139/9/6 136/10/6 113/11/6
f 119/12/5 138/9/5 139/10/5 120/11/5
o arbol_xd.001
v -1.025356 0.357149 -2.889652
v -1.045478 0.362186 -2.989679
v -1.044479 0.464216 -2.984742
v -1.024357 0.459179 -2.884715
v -1.145627 0.362192 -2.969532
v -1.125505 0.357155 -2.869505
v -1.124506 0.459185 -2.864568
v -1.144628 0.464222 -2.964595
v -1.065600 0.367223 -3.089705
v -1.064601 0.469253 -3.084769
v -1.165749 0.367229 -3.069559
v -1.164750 0.469259 -3.064622
v -1.063602 0.571286 -3.079831
v -1.043480 0.566249 -2.979805
v -1.143628 0.566255 -2.959658
v -1.163750 0.571292 -3.059685
v -1.085722 0.372260 -3.189732
v -1.084723 0.474291 -3.184795
v -1.185871 0.372266 -3.169585
v -1.184872 0.474297 -3.164648
v -1.083724 0.576323 -3.179858
v -1.183872 0.576329 -3.159711
v -1.105844 0.377297 -3.289759
v -1.104845 0.479328 -3.284822
v -1.205993 0.377303 -3.269612
v -1.204994 0.479334 -3.264675
v -1.103846 0.581360 -3.279885
v -1.203994 0.581366 -3.259738
v -1.245775 0.362198 -2.949385
v -1.225653 0.357161 -2.849359
v -1.224654 0.459191 -2.844422
v -1.244776 0.464228 -2.944448
v -1.123506 0.561218 -2.859631
v -1.223655 0.561224 -2.839484
v -1.243777 0.566261 -2.939511
v -1.265897 0.367235 -3.049412
v -1.264898 0.469265 -3.044475
v -1.263899 0.571298 -3.039538
v -1.162751 0.673318 -3.054748
v -1.142629 0.668280 -2.954721
v -1.242777 0.668286 -2.934574
v -1.262900 0.673324 -3.034601
v -1.286019 0.372272 -3.149438
v -1.285020 0.474303 -3.144501
v -1.284021 0.576335 -3.139564
v -1.182873 0.678355 -3.154774
v -1.283022 0.678361 -3.134628
v -1.181874 0.780387 -3.149837
v -1.161752 0.775350 -3.049811
v -1.261900 0.775356 -3.029664
v -1.282022 0.780393 -3.129690
v -1.306141 0.377309 -3.249465
v -1.305142 0.479340 -3.244528
v -1.304143 0.581372 -3.239591
v -1.226115 0.382340 -3.369638
v -1.225116 0.484371 -3.364702
v -1.326263 0.382346 -3.349492
v -1.325264 0.484377 -3.344555
v -1.224116 0.586403 -3.359764
v -1.324265 0.586409 -3.339617
v -1.345924 0.362204 -2.929238
v -1.325801 0.357167 -2.829212
v -1.324802 0.459197 -2.824275
v -1.344924 0.464234 -2.924301
v -1.323803 0.561230 -2.819338
v -1.343925 0.566267 -2.919364
v -1.366046 0.367241 -3.029265
v -1.365046 0.469271 -3.024328
v -1.364047 0.571304 -3.019391
v -1.342926 0.668292 -2.914428
v -1.363048 0.673329 -3.014454
v -1.241778 0.770319 -2.929637
v -1.341927 0.770325 -2.909490
v -1.362049 0.775362 -3.009517
v -1.268895 0.061143 -3.064223
v -1.289017 0.066180 -3.164249
v -1.288018 0.168211 -3.159312
v -1.267896 0.163174 -3.059286
v -1.389165 0.066186 -3.144102
v -1.369043 0.061149 -3.044076
v -1.368044 0.163180 -3.039139
v -1.388166 0.168217 -3.139165
v -1.287019 0.270242 -3.154375
v -1.266896 0.265204 -3.054349
v -1.367045 0.265210 -3.034202
v -1.387167 0.270248 -3.134228
v -1.386168 0.372278 -3.129292
v -1.385168 0.474308 -3.124355
v -1.384169 0.576341 -3.119417
v -1.383170 0.678367 -3.114481
v -1.382171 0.780399 -3.109544
v -1.406290 0.377315 -3.229318
v -1.405290 0.479346 -3.224381
v -1.404291 0.581378 -3.219444
v -1.303144 0.683398 -3.234654
v -1.403292 0.683404 -3.214507
v -1.302144 0.785430 -3.229717
v -1.402293 0.785436 -3.209570
v -1.426412 0.382352 -3.329345
v -1.425413 0.484383 -3.324408
v -1.424413 0.586415 -3.319471
v -1.446072 0.362210 -2.909091
v -1.425950 0.357173 -2.809065
v -1.424951 0.459203 -2.804128
v -1.445073 0.464240 -2.904155
v -1.423951 0.561236 -2.799191
v -1.444073 0.566273 -2.899217
v -1.466194 0.367247 -3.009118
v -1.465195 0.469277 -3.004181
v -1.464195 0.571310 -2.999244
v -1.486316 0.372284 -3.109145
v -1.485317 0.474314 -3.104208
v -1.484318 0.576347 -3.099271
v -1.463196 0.673335 -2.994307
v -1.483318 0.678373 -3.094334
v -1.462197 0.775368 -2.989370
v -1.482319 0.780405 -3.089397
v -1.506438 0.377321 -3.209171
v -1.505439 0.479351 -3.204234
v -1.504440 0.581384 -3.199297
v -1.503440 0.683410 -3.194360
v -1.526560 0.382358 -3.309198
v -1.525561 0.484389 -3.304261
v -1.524562 0.586421 -3.299324
v -1.546220 0.362216 -2.888945
v -1.526098 0.357179 -2.788918
v -1.525099 0.459209 -2.783981
v -1.545221 0.464246 -2.884008
v -1.524100 0.561242 -2.779044
v -1.544222 0.566279 -2.879071
v -1.566342 0.367253 -2.988971
v -1.565343 0.469283 -2.984034
v -1.564344 0.571316 -2.979097
v -1.586464 0.372290 -3.088998
v -1.585465 0.474320 -3.084061
v -1.584466 0.576353 -3.079124
v -1.606586 0.377327 -3.189024
v -1.605587 0.479357 -3.184088
v -1.604588 0.581390 -3.179150
vn 0.9804 -0.0001 -0.1972
vn -0.0098 -0.9988 -0.0483
vn 0.1970 -0.0493 0.9792
vn -0.9804 0.0001 0.1972
vn -0.1970 0.0493 -0.9792
vn 0.0098 0.9988 0.0483
vt 0.368164 0.983398
vt 0.368164 0.999023
vt 0.352539 0.999023
vt 0.352539 0.983398
vt 0.370117 0.983398
vt 0.370117 0.999023
vt 0.385742 0.999023
vt 0.385742 0.983398
vt 0.930664 0.983398
vt 0.930664 0.999023
vt 0.915039 0.999023
vt 0.915039 0.983398
s 1
usemtl Oak_Log
f 215/13/7 216/14/7 217/15/7 214/16/7
f 215/17/8 214/18/8 219/19/8 218/20/8
f 214/13/9 217/14/9 220/15/9 219/16/9
f 218/16/10 219/13/10 220/14/10 221/15/10
f 215/16/11 218/13/11 221/14/11 216/15/11
f 216/13/7 222/14/7 223/15/7 217/16/7
f 217/13/9 223/14/9 224/15/9 220/16/9
f 221/16/10 220/13/10 224/14/10 225/15/10
f 216/16/11 221/13/11 225/14/11 222/15/11
f 222/13/7 182/14/7 175/15/7 223/16/7
f 223/13/9 175/14/9 206/15/9 224/16/9
f 225/16/10 224/13/10 206/14/10 226/15/10
f 222/16/11 225/13/11 226/14/11 182/15/11
f 182/13/7 183/14/7 176/15/7 175/16/7
f 175/13/9 176/14/9 207/15/9 206/16/9
f 226/16/10 206/13/10 207/14/10 227/15/10
f 182/16/11 226/13/11 227/14/11 183/15/11
f 183/13/7 184/14/7 177/15/7 176/16/7
f 176/13/9 177/14/9 208/15/9 207/16/9
f 227/16/10 207/13/10 208/14/10 228/15/10
f 183/16/11 227/13/11 228/14/11 184/15/11
f 184/13/7 186/14/7 181/15/7 177/16/7
f 177/13/9 181/14/9 210/15/9 208/16/9
f 228/16/10 208/13/10 210/14/10 229/15/10
f 186/17/12 229/20/12 210/19/12 181/18/12
f 184/16/11 228/13/11 229/14/11 186/15/11
usemtl Oak_Leaves
f 141/21/7 142/22/7 143/23/7 140/24/7
f 141/24/8 140/23/8 145/22/8 144/21/8
f 140/21/9 143/22/9 146/23/9 145/24/9
f 144/24/10 145/21/10 146/22/10 147/23/10
f 142/24/12 147/21/12 146/22/12 143/23/12
f 141/24/11 144/21/11 147/22/11 142/23/11
f 148/21/7 149/22/7 142/23/7 141/24/7
f 148/24/8 141/23/8 144/22/8 150/21/8
f 150/24/10 144/21/10 147/22/10 151/23/10
f 149/24/12 151/21/12 147/22/12 142/23/12
f 148/24/11 150/21/11 151/22/11 149/23/11
f 149/21/7 152/22/7 153/23/7 142/24/7
f 142/21/9 153/22/9 154/23/9 147/24/9
f 151/24/10 147/21/10 154/22/10 155/23/10
f 152/24/12 155/21/12 154/22/12 153/23/12
f 149/24/11 151/21/11 155/22/11 152/23/11
f 156/21/7 157/22/7 149/23/7 148/24/7
f 156/24/8 148/23/8 150/22/8 158/21/8
f 158/24/10 150/21/10 151/22/10 159/23/10
f 157/24/12 159/21/12 151/22/12 149/23/12
f 156/24/11 158/21/11 159/22/11 157/23/11
f 157/21/7 160/22/7 152/23/7 149/24/7
f 159/24/10 151/21/10 155/22/10 161/23/10
f 160/24/12 161/21/12 155/22/12 152/23/12
f 157/24/11 159/21/11 161/22/11 160/23/11
f 162/21/7 163/22/7 157/23/7 156/24/7
f 162/24/8 156/23/8 158/22/8 164/21/8
f 164/24/10 158/21/10 159/22/10 165/23/10
f 163/24/12 165/21/12 159/22/12 157/23/12
f 162/24/11 164/21/11 165/22/11 163/23/11
f 163/21/7 166/22/7 160/23/7 157/24/7
f 165/24/10 159/21/10 161/22/10 167/23/10
f 166/24/12 167/21/12 161/22/12 160/23/12
f 163/24/11 165/21/11 167/22/11 166/23/11
f 144/24/8 145/23/8 169/22/8 168/21/8
f 145/21/9 146/22/9 170/23/9 169/24/9
f 168/24/10 169/21/10 170/22/10 171/23/10
f 147/24/12 171/21/12 170/22/12 146/23/12
f 144/24/11 168/21/11 171/22/11 147/23/11
f 147/21/7 154/22/7 172/23/7 146/24/7
f 146/21/9 172/22/9 173/23/9 170/24/9
f 171/24/10 170/21/10 173/22/10 174/23/10
f 154/24/12 174/21/12 173/22/12 172/23/12
f 147/24/11 171/21/11 174/22/11 154/23/11
f 150/24/8 144/23/8 168/22/8 175/21/8
f 175/24/10 168/21/10 171/22/10 176/23/10
f 151/24/12 176/21/12 171/22/12 147/23/12
f 150/24/11 175/21/11 176/22/11 151/23/11
f 176/24/10 171/21/10 174/22/10 177/23/10
f 155/24/12 177/21/12 174/22/12 154/23/12
f 151/24/11 176/21/11 177/22/11 155/23/11
f 155/21/7 178/22/7 179/23/7 154/24/7
f 154/21/9 179/22/9 180/23/9 174/24/9
f 177/24/10 174/21/10 180/22/10 181/23/10
f 178/24/12 181/21/12 180/22/12 179/23/12
f 155/24/11 177/21/11 181/22/11 178/23/11
f 158/24/8 150/23/8 175/22/8 182/21/8
f 159/24/12 183/21/12 176/22/12 151/23/12
f 158/24/11 182/21/11 183/22/11 159/23/11
f 161/24/12 184/21/12 177/22/12 155/23/12
f 159/24/11 183/21/11 184/22/11 161/23/11
f 161/21/7 185/22/7 178/23/7 155/24/7
f 185/24/12 186/21/12 181/22/12 178/23/12
f 161/24/11 184/21/11 186/22/11 185/23/11
f 185/21/7 187/22/7 188/23/7 178/24/7
f 178/21/9 188/22/9 189/23/9 181/24/9
f 186/24/10 181/21/10 189/22/10 190/23/10
f 187/24/12 190/21/12 189/22/12 188/23/12
f 185/24/11 186/21/11 190/22/11 187/23/11
f 164/24/8 158/23/8 182/22/8 191/21/8
f 191/24/10 182/21/10 183/22/10 192/23/10
f 165/24/12 192/21/12 183/22/12 159/23/12
f 164/24/11 191/21/11 192/22/11 165/23/11
f 192/24/10 183/21/10 184/22/10 193/23/10
f 167/24/12 193/21/12 184/22/12 161/23/12
f 165/24/11 192/21/11 193/22/11 167/23/11
f 194/21/7 195/22/7 165/23/7 164/24/7
f 194/24/8 164/23/8 191/22/8 196/21/8
f 196/24/10 191/21/10 192/22/10 197/23/10
f 195/24/12 197/21/12 192/22/12 165/23/12
f 194/24/11 196/21/11 197/22/11 195/23/11
f 195/21/7 198/22/7 167/23/7 165/24/7
f 197/24/10 192/21/10 193/22/10 199/23/10
f 198/24/12 199/21/12 193/22/12 167/23/12
f 195/24/11 197/21/11 199/22/11 198/23/11
f 168/24/8 169/23/8 201/22/8 200/21/8
f 169/21/9 170/22/9 202/23/9 201/24/9
f 200/24/10 201/21/10 202/22/10 203/23/10
f 171/24/12 203/21/12 202/22/12 170/23/12
f 168/24/11 200/21/11 203/22/11 171/23/11
f 170/21/9 173/22/9 204/23/9 202/24/9
f 203/24/10 202/21/10 204/22/10 205/23/10
f 174/24/12 205/21/12 204/22/12 173/23/12
f 171/24/11 203/21/11 205/22/11 174/23/11
f 175/24/8 168/23/8 200/22/8 206/21/8
f 206/24/10 200/21/10 203/22/10 207/23/10
f 176/24/12 207/21/12 203/22/12 171/23/12
f 207/24/10 203/21/10 205/22/10 208/23/10
f 177/24/12 208/21/12 205/22/12 174/23/12
f 174/21/9 180/22/9 209/23/9 205/24/9
f 208/24/10 205/21/10 209/22/10 210/23/10
f 181/24/12 210/21/12 209/22/12 180/23/12
f 181/21/7 189/22/7 211/23/7 180/24/7
f 180/21/9 211/22/9 212/23/9 209/24/9
f 210/24/10 209/21/10 212/22/10 213/23/10
f 189/24/12 213/21/12 212/22/12 211/23/12
f 181/24/11 210/21/11 213/22/11 189/23/11
f 229/24/10 210/21/10 213/22/10 230/23/10
f 190/24/12 230/21/12 213/22/12 189/23/12
f 186/24/11 229/21/11 230/22/11 190/23/11
f 191/24/8 182/23/8 226/22/8 231/21/8
f 231/24/10 226/21/10 227/22/10 232/23/10
f 192/24/12 232/21/12 227/22/12 183/23/12
f 191/24/11 231/21/11 232/22/11 192/23/11
f 232/24/10 227/21/10 228/22/10 233/23/10
f 193/24/12 233/21/12 228/22/12 184/23/12
f 192/24/11 232/21/11 233/22/11 193/23/11
f 193/21/7 234/22/7 186/23/7 184/24/7
f 233/24/10 228/21/10 229/22/10 235/23/10
f 234/24/12 235/21/12 229/22/12 186/23/12
f 193/24/11 233/21/11 235/22/11 234/23/11
f 234/21/7 236/22/7 190/23/7 186/24/7
f 235/24/10 229/21/10 230/22/10 237/23/10
f 236/24/12 237/21/12 230/22/12 190/23/12
f 234/24/11 235/21/11 237/22/11 236/23/11
f 196/24/8 191/23/8 231/22/8 238/21/8
f 238/24/10 231/21/10 232/22/10 239/23/10
f 197/24/12 239/21/12 232/22/12 192/23/12
f 196/24/11 238/21/11 239/22/11 197/23/11
f 239/24/10 232/21/10 233/22/10 240/23/10
f 199/24/12 240/21/12 233/22/12 193/23/12
f 197/24/11 239/21/11 240/22/11 199/23/11
f 200/24/8 201/23/8 242/22/8 241/21/8
f 201/21/9 202/22/9 243/23/9 242/24/9
f 241/24/10 242/21/10 243/22/10 244/23/10
f 203/24/12 244/21/12 243/22/12 202/23/12
f 200/24/11 241/21/11 244/22/11 203/23/11
f 202/21/9 204/22/9 245/23/9 243/24/9
f 244/24/10 243/21/10 245/22/10 246/23/10
f 205/24/12 246/21/12 245/22/12 204/23/12
f 203/24/11 244/21/11 246/22/11 205/23/11
f 206/24/8 200/23/8 241/22/8 247/21/8
f 247/24/10 241/21/10 244/22/10 248/23/10
f 207/24/12 248/21/12 244/22/12 203/23/12
f 206/24/11 247/21/11 248/22/11 207/23/11
f 248/24/10 244/21/10 246/22/10 249/23/10
f 208/24/12 249/21/12 246/22/12 205/23/12
f 207/24/11 248/21/11 249/22/11 208/23/11
f 226/24/8 206/23/8 247/22/8 250/21/8
f 250/24/10 247/21/10 248/22/10 251/23/10
f 227/24/12 251/21/12 248/22/12 207/23/12
f 226/24/11 250/21/11 251/22/11 227/23/11
f 251/24/10 248/21/10 249/22/10 252/23/10
f 228/24/12 252/21/12 249/22/12 208/23/12
f 227/24/11 251/21/11 252/22/11 228/23/11
f 208/21/9 210/22/9 253/23/9 249/24/9
f 252/24/10 249/21/10 253/22/10 254/23/10
f 229/24/12 254/21/12 253/22/12 210/23/12
f 228/24/11 252/21/11 254/22/11 229/23/11
f 210/21/9 213/22/9 255/23/9 253/24/9
f 254/24/10 253/21/10 255/22/10 256/23/10
f 230/24/12 256/21/12 255/22/12 213/23/12
f 229/24/11 254/21/11 256/22/11 230/23/11
f 231/24/8 226/23/8 250/22/8 257/21/8
f 257/24/10 250/21/10 251/22/10 258/23/10
f 232/24/12 258/21/12 251/22/12 227/23/12
f 231/24/11 257/21/11 258/22/11 232/23/11
f 258/24/10 251/21/10 252/22/10 259/23/10
f 233/24/12 259/21/12 252/22/12 228/23/12
f 232/24/11 258/21/11 259/22/11 233/23/11
f 259/24/10 252/21/10 254/22/10 260/23/10
f 235/24/12 260/21/12 254/22/12 229/23/12
f 233/24/11 259/21/11 260/22/11 235/23/11
f 238/24/8 231/23/8 257/22/8 261/21/8
f 261/24/10 257/21/10 258/22/10 262/23/10
f 239/24/12 262/21/12 258/22/12 232/23/12
f 238/24/11 261/21/11 262/22/11 239/23/11
f 262/24/10 258/21/10 259/22/10 263/23/10
f 240/24/12 263/21/12 259/22/12 233/23/12
f 239/24/11 262/21/11 263/22/11 240/23/11
f 241/24/8 242/23/8 265/22/8 264/21/8
f 242/21/9 243/22/9 266/23/9 265/24/9
f 264/24/10 265/21/10 266/22/10 267/23/10
f 244/24/12 267/21/12 266/22/12 243/23/12
f 241/24/11 264/21/11 267/22/11 244/23/11
f 243/21/9 245/22/9 268/23/9 266/24/9
f 267/24/10 266/21/10 268/22/10 269/23/10
f 246/24/12 269/21/12 268/22/12 245/23/12
f 244/24/11 267/21/11 269/22/11 246/23/11
f 247/24/8 241/23/8 264/22/8 270/21/8
f 270/24/10 264/21/10 267/22/10 271/23/10
f 248/24/12 271/21/12 267/22/12 244/23/12
f 247/24/11 270/21/11 271/22/11 248/23/11
f 271/24/10 267/21/10 269/22/10 272/23/10
f 249/24/12 272/21/12 269/22/12 246/23/12
f 248/24/11 271/21/11 272/22/11 249/23/11
f 250/24/8 247/23/8 270/22/8 273/21/8
f 273/24/10 270/21/10 271/22/10 274/23/10
f 251/24/12 274/21/12 271/22/12 248/23/12
f 250/24/11 273/21/11 274/22/11 251/23/11
f 274/24/10 271/21/10 272/22/10 275/23/10
f 252/24/12 275/21/12 272/22/12 249/23/12
f 251/24/11 274/21/11 275/22/11 252/23/11
f 257/24/8 250/23/8 273/22/8 276/21/8
f 276/24/10 273/21/10 274/22/10 277/23/10
f 258/24/12 277/21/12 274/22/12 251/23/12
f 257/24/11 276/21/11 277/22/11 258/23/11
f 277/24/10 274/21/10 275/22/10 278/23/10
f 259/24/12 278/21/12 275/22/12 252/23/12
f 258/24/11 277/21/11 278/22/11 259/23/11
o arbol_xd.002
v -0.425112 0.332386 -2.259587
v -0.445234 0.337423 -2.359614
v -0.444235 0.439454 -2.354677
v -0.424113 0.434417 -2.254650
v -0.545383 0.337429 -2.339467
v -0.525261 0.332392 -2.239440
v -0.524262 0.434423 -2.234504
v -0.544384 0.439460 -2.334530
v -0.465356 0.342460 -2.459641
v -0.464357 0.444491 -2.454704
v -0.565505 0.342466 -2.439494
v -0.564506 0.444497 -2.434557
v -0.463358 0.546524 -2.449766
v -0.443236 0.541486 -2.349740
v -0.543384 0.541492 -2.329593
v -0.563506 0.546529 -2.429620
v -0.485479 0.347497 -2.559667
v -0.484479 0.449528 -2.554730
v -0.585627 0.347503 -2.539520
v -0.584628 0.449534 -2.534583
v -0.483480 0.551561 -2.549793
v -0.583628 0.551567 -2.529646
v -0.505601 0.352535 -2.659694
v -0.504601 0.454565 -2.654757
v -0.605749 0.352540 -2.639547
v -0.604750 0.454571 -2.634610
v -0.503602 0.556598 -2.649820
v -0.603750 0.556604 -2.629673
v -0.645531 0.337435 -2.319320
v -0.625409 0.332398 -2.219294
v -0.624410 0.434429 -2.214357
v -0.644532 0.439466 -2.314383
v -0.523262 0.536455 -2.229566
v -0.623411 0.536461 -2.209419
v -0.643533 0.541498 -2.309446
v -0.665653 0.342472 -2.419347
v -0.664654 0.444503 -2.414410
v -0.663655 0.546535 -2.409473
v -0.562507 0.648555 -2.424683
v -0.542385 0.643518 -2.324656
v -0.642533 0.643524 -2.304509
v -0.662656 0.648561 -2.404536
v -0.685775 0.347509 -2.519373
v -0.684776 0.449540 -2.514436
v -0.683777 0.551573 -2.509499
v -0.582629 0.653592 -2.524709
v -0.682778 0.653598 -2.504563
v -0.581630 0.755625 -2.519772
v -0.561508 0.750588 -2.419746
v -0.661656 0.750594 -2.399599
v -0.681778 0.755631 -2.499625
v -0.705897 0.352546 -2.619400
v -0.704898 0.454577 -2.614463
v -0.703899 0.556610 -2.609526
v -0.625871 0.357578 -2.739573
v -0.624872 0.459608 -2.734637
v -0.726019 0.357584 -2.719427
v -0.725020 0.459614 -2.714490
v -0.623873 0.561641 -2.729699
v -0.724021 0.561647 -2.709553
v -0.745680 0.337441 -2.299173
v -0.725558 0.332404 -2.199147
v -0.724558 0.434435 -2.194210
v -0.744680 0.439472 -2.294236
v -0.723559 0.536467 -2.189273
v -0.743681 0.541504 -2.289299
v -0.765802 0.342478 -2.399200
v -0.764802 0.444509 -2.394263
v -0.763803 0.546541 -2.389326
v -0.742682 0.643530 -2.284363
v -0.762804 0.648567 -2.384389
v -0.641534 0.745556 -2.299572
v -0.741683 0.745562 -2.279425
v -0.761805 0.750600 -2.379452
v -0.668651 0.036380 -2.434158
v -0.688773 0.041417 -2.534184
v -0.687774 0.143448 -2.529247
v -0.667652 0.138411 -2.429221
v -0.788921 0.041423 -2.514037
v -0.768799 0.036386 -2.414011
v -0.767800 0.138417 -2.409074
v -0.787922 0.143454 -2.509100
v -0.686775 0.245479 -2.524310
v -0.666653 0.240442 -2.424284
v -0.766801 0.240448 -2.404137
v -0.786923 0.245485 -2.504164
v -0.785924 0.347515 -2.499227
v -0.784924 0.449546 -2.494290
v -0.783925 0.551578 -2.489352
v -0.782926 0.653604 -2.484416
v -0.781927 0.755637 -2.479479
v -0.806046 0.352552 -2.599253
v -0.805046 0.454583 -2.594316
v -0.804047 0.556616 -2.589379
v -0.702900 0.658635 -2.604589
v -0.803048 0.658641 -2.584442
v -0.701900 0.760668 -2.599652
v -0.802049 0.760674 -2.579505
v -0.826168 0.357589 -2.699280
v -0.825168 0.459620 -2.694343
v -0.824169 0.561653 -2.689406
v -0.845828 0.337447 -2.279027
v -0.825706 0.332410 -2.179000
v -0.824707 0.434441 -2.174063
v -0.844829 0.439478 -2.274090
v -0.823707 0.536473 -2.169126
v -0.843829 0.541510 -2.269152
v -0.865950 0.342484 -2.379053
v -0.864951 0.444515 -2.374116
v -0.863951 0.546547 -2.369179
v -0.886072 0.347521 -2.479080
v -0.885073 0.449552 -2.474143
v -0.884073 0.551584 -2.469206
v -0.862952 0.648573 -2.364242
v -0.883074 0.653610 -2.464269
v -0.861953 0.750605 -2.359305
v -0.882075 0.755643 -2.459332
v -0.906194 0.352558 -2.579106
v -0.905195 0.454589 -2.574169
v -0.904196 0.556621 -2.569232
v -0.903196 0.658647 -2.564296
v -0.926316 0.357595 -2.679133
v -0.925317 0.459626 -2.674196
v -0.924318 0.561659 -2.669259
v -0.945976 0.337453 -2.258880
v -0.925854 0.332416 -2.158853
v -0.924855 0.434447 -2.153916
v -0.944977 0.439484 -2.253943
v -0.923856 0.536479 -2.148979
v -0.943978 0.541516 -2.249006
v -0.966098 0.342490 -2.358906
v -0.965099 0.444521 -2.353969
v -0.964100 0.546553 -2.349032
v -0.986220 0.347527 -2.458933
v -0.985221 0.449558 -2.453996
v -0.984222 0.551590 -2.449059
v -1.006342 0.352564 -2.558959
v -1.005343 0.454595 -2.554023
v -1.004344 0.556628 -2.549085
vn 0.9804 -0.0001 -0.1972
vn -0.0098 -0.9988 -0.0483
vn 0.1970 -0.0493 0.9792
vn -0.9804 0.0001 0.1972
vn -0.1970 0.0493 -0.9792
vn 0.0098 0.9988 0.0483
vt 0.368164 0.983398
vt 0.368164 0.999023
vt 0.352539 0.999023
vt 0.352539 0.983398
vt 0.370117 0.983398
vt 0.370117 0.999023
vt 0.385742 0.999023
vt 0.385742 0.983398
vt 0.930664 0.983398
vt 0.930664 0.999023
vt 0.915039 0.999023
vt 0.915039 0.983398
s 1
usemtl Oak_Log
f 354/25/13 355/26/13 356/27/13 353/28/13
f 354/29/14 353/30/14 358/31/14 357/32/14
f 353/25/15 356/26/15 359/27/15 358/28/15
f 357/28/16 358/25/16 359/26/16 360/27/16
f 354/28/17 357/25/17 360/26/17 355/27/17
f 355/25/13 361/26/13 362/27/13 356/28/13
f 356/25/15 362/26/15 363/27/15 359/28/15
f 360/28/16 359/25/16 363/26/16 364/27/16
f 355/28/17 360/25/17 364/26/17 361/27/17
f 361/25/13 321/26/13 314/27/13 362/28/13
f 362/25/15 314/26/15 345/27/15 363/28/15
f 364/28/16 363/25/16 345/26/16 365/27/16
f 361/28/17 364/25/17 365/26/17 321/27/17
f 321/25/13 322/26/13 315/27/13 314/28/13
f 314/25/15 315/26/15 346/27/15 345/28/15
f 365/28/16 345/25/16 346/26/16 366/27/16
f 321/28/17 365/25/17 366/26/17 322/27/17
f 322/25/13 323/26/13 316/27/13 315/28/13
f 315/25/15 316/26/15 347/27/15 346/28/15
f 366/28/16 346/25/16 347/26/16 367/27/16
f 322/28/17 366/25/17 367/26/17 323/27/17
f 323/25/13 325/26/13 320/27/13 316/28/13
f 316/25/15 320/26/15 349/27/15 347/28/15
f 367/28/16 347/25/16 349/26/16 368/27/16
f 325/29/18 368/32/18 349/31/18 320/30/18
f 323/28/17 367/25/17 368/26/17 325/27/17
usemtl Oak_Leaves
f 280/33/13 281/34/13 282/35/13 279/36/13
f 280/36/14 279/35/14 284/34/14 283/33/14
f 279/33/15 282/34/15 285/35/15 284/36/15
f 283/36/16 284/33/16 285/34/16 286/35/16
f 281/36/18 286/33/18 285/34/18 282/35/18
f 280/36/17 283/33/17 286/34/17 281/35/17
f 287/33/13 288/34/13 281/35/13 280/36/13
f 287/36/14 280/35/14 283/34/14 289/33/14
f 289/36/16 283/33/16 286/34/16 290/35/16
f 288/36/18 290/33/18 286/34/18 281/35/18
f 287/36/17 289/33/17 290/34/17 288/35/17
f 288/33/13 291/34/13 292/35/13 281/36/13
f 281/33/15 292/34/15 293/35/15 286/36/15
f 290/36/16 286/33/16 293/34/16 294/35/16
f 291/36/18 294/33/18 293/34/18 292/35/18
f 288/36/17 290/33/17 294/34/17 291/35/17
f 295/33/13 296/34/13 288/35/13 287/36/13
f 295/36/14 287/35/14 289/34/14 297/33/14
f 297/36/16 289/33/16 290/34/16 298/35/16
f 296/36/18 298/33/18 290/34/18 288/35/18
f 295/36/17 297/33/17 298/34/17 296/35/17
f 296/33/13 299/34/13 291/35/13 288/36/13
f 298/36/16 290/33/16 294/34/16 300/35/16
f 299/36/18 300/33/18 294/34/18 291/35/18
f 296/36/17 298/33/17 300/34/17 299/35/17
f 301/33/13 302/34/13 296/35/13 295/36/13
f 301/36/14 295/35/14 297/34/14 303/33/14
f 303/36/16 297/33/16 298/34/16 304/35/16
f 302/36/18 304/33/18 298/34/18 296/35/18
f 301/36/17 303/33/17 304/34/17 302/35/17
f 302/33/13 305/34/13 299/35/13 296/36/13
f 304/36/16 298/33/16 300/34/16 306/35/16
f 305/36/18 306/33/18 300/34/18 299/35/18
f 302/36/17 304/33/17 306/34/17 305/35/17
f 283/36/14 284/35/14 308/34/14 307/33/14
f 284/33/15 285/34/15 309/35/15 308/36/15
f 307/36/16 308/33/16 309/34/16 310/35/16
f 286/36/18 310/33/18 309/34/18 285/35/18
f 283/36/17 307/33/17 310/34/17 286/35/17
f 286/33/13 293/34/13 311/35/13 285/36/13
f 285/33/15 311/34/15 312/35/15 309/36/15
f 310/36/16 309/33/16 312/34/16 313/35/16
f 293/36/18 313/33/18 312/34/18 311/35/18
f 286/36/17 310/33/17 313/34/17 293/35/17
f 289/36/14 283/35/14 307/34/14 314/33/14
f 314/36/16 307/33/16 310/34/16 315/35/16
f 290/36/18 315/33/18 310/34/18 286/35/18
f 289/36/17 314/33/17 315/34/17 290/35/17
f 315/36/16 310/33/16 313/34/16 316/35/16
f 294/36/18 316/33/18 313/34/18 293/35/18
f 290/36/17 315/33/17 316/34/17 294/35/17
f 294/33/13 317/34/13 318/35/13 293/36/13
f 293/33/15 318/34/15 319/35/15 313/36/15
f 316/36/16 313/33/16 319/34/16 320/35/16
f 317/36/18 320/33/18 319/34/18 318/35/18
f 294/36/17 316/33/17 320/34/17 317/35/17
f 297/36/14 289/35/14 314/34/14 321/33/14
f 298/36/18 322/33/18 315/34/18 290/35/18
f 297/36/17 321/33/17 322/34/17 298/35/17
f 300/36/18 323/33/18 316/34/18 294/35/18
f 298/36/17 322/33/17 323/34/17 300/35/17
f 300/33/13 324/34/13 317/35/13 294/36/13
f 324/36/18 325/33/18 320/34/18 317/35/18
f 300/36/17 323/33/17 325/34/17 324/35/17
f 324/33/13 326/34/13 327/35/13 317/36/13
f 317/33/15 327/34/15 328/35/15 320/36/15
f 325/36/16 320/33/16 328/34/16 329/35/16
f 326/36/18 329/33/18 328/34/18 327/35/18
f 324/36/17 325/33/17 329/34/17 326/35/17
f 303/36/14 297/35/14 321/34/14 330/33/14
f 330/36/16 321/33/16 322/34/16 331/35/16
f 304/36/18 331/33/18 322/34/18 298/35/18
f 303/36/17 330/33/17 331/34/17 304/35/17
f 331/36/16 322/33/16 323/34/16 332/35/16
f 306/36/18 332/33/18 323/34/18 300/35/18
f 304/36/17 331/33/17 332/34/17 306/35/17
f 333/33/13 334/34/13 304/35/13 303/36/13
f 333/36/14 303/35/14 330/34/14 335/33/14
f 335/36/16 330/33/16 331/34/16 336/35/16
f 334/36/18 336/33/18 331/34/18 304/35/18
f 333/36/17 335/33/17 336/34/17 334/35/17
f 334/33/13 337/34/13 306/35/13 304/36/13
f 336/36/16 331/33/16 332/34/16 338/35/16
f 337/36/18 338/33/18 332/34/18 306/35/18
f 334/36/17 336/33/17 338/34/17 337/35/17
f 307/36/14 308/35/14 340/34/14 339/33/14
f 308/33/15 309/34/15 341/35/15 340/36/15
f 339/36/16 340/33/16 341/34/16 342/35/16
f 310/36/18 342/33/18 341/34/18 309/35/18
f 307/36/17 339/33/17 342/34/17 310/35/17
f 309/33/15 312/34/15 343/35/15 341/36/15
f 342/36/16 341/33/16 343/34/16 344/35/16
f 313/36/18 344/33/18 343/34/18 312/35/18
f 310/36/17 342/33/17 344/34/17 313/35/17
f 314/36/14 307/35/14 339/34/14 345/33/14
f 345/36/16 339/33/16 342/34/16 346/35/16
f 315/36/18 346/33/18 342/34/18 310/35/18
f 346/36/16 342/33/16 344/34/16 347/35/16
f 316/36/18 347/33/18 344/34/18 313/35/18
f 313/33/15 319/34/15 348/35/15 344/36/15
f 347/36/16 344/33/16 348/34/16 349/35/16
f 320/36/18 349/33/18 348/34/18 319/35/18
f 320/33/13 328/34/13 350/35/13 319/36/13
f 319/33/15 350/34/15 351/35/15 348/36/15
f 349/36/16 348/33/16 351/34/16 352/35/16
f 328/36/18 352/33/18 351/34/18 350/35/18
f 320/36/17 349/33/17 352/34/17 328/35/17
f 368/36/16 349/33/16 352/34/16 369/35/16
f 329/36/18 369/33/18 352/34/18 328/35/18
f 325/36/17 368/33/17 369/34/17 329/35/17
f 330/36/14 321/35/14 365/34/14 370/33/14
f 370/36/16 365/33/16 366/34/16 371/35/16
f 331/36/18 371/33/18 366/34/18 322/35/18
f 330/36/17 370/33/17 371/34/17 331/35/17
f 371/36/16 366/33/16 367/34/16 372/35/16
f 332/36/18 372/33/18 367/34/18 323/35/18
f 331/36/17 371/33/17 372/34/17 332/35/17
f 332/33/13 373/34/13 325/35/13 323/36/13
f 372/36/16 367/33/16 368/34/16 374/35/16
f 373/36/18 374/33/18 368/34/18 325/35/18
f 332/36/17 372/33/17 374/34/17 373/35/17
f 373/33/13 375/34/13 329/35/13 325/36/13
f 374/36/16 368/33/16 369/34/16 376/35/16
f 375/36/18 376/33/18 369/34/18 329/35/18
f 373/36/17 374/33/17 376/34/17 375/35/17
f 335/36/14 330/35/14 370/34/14 377/33/14
f 377/36/16 370/33/16 371/34/16 378/35/16
f 336/36/18 378/33/18 371/34/18 331/35/18
f 335/36/17 377/33/17 378/34/17 336/35/17
f 378/36/16 371/33/16 372/34/16 379/35/16
f 338/36/18 379/33/18 372/34/18 332/35/18
f 336/36/17 378/33/17 379/34/17 338/35/17
f 339/36/14 340/35/14 381/34/14 380/33/14
f 340/33/15 341/34/15 382/35/15 381/36/15
f 380/36/16 381/33/16 382/34/16 383/35/16
f 342/36/18 383/33/18 382/34/18 341/35/18
f 339/36/17 380/33/17 383/34/17 342/35/17
f 341/33/15 343/34/15 384/35/15 382/36/15
f 383/36/16 382/33/16 384/34/16 385/35/16
f 344/36/18 385/33/18 384/34/18 343/35/18
f 342/36/17 383/33/17 385/34/17 344/35/17
f 345/36/14 339/35/14 380/34/14 386/33/14
f 386/36/16 380/33/16 383/34/16 387/35/16
f 346/36/18 387/33/18 383/34/18 342/35/18
f 345/36/17 386/33/17 387/34/17 346/35/17
f 387/36/16 383/33/16 385/34/16 388/35/16
f 347/36/18 388/33/18 385/34/18 344/35/18
f 346/36/17 387/33/17 388/34/17 347/35/17
f 365/36/14 345/35/14 386/34/14 389/33/14
f 389/36/16 386/33/16 387/34/16 390/35/16
f 366/36/18 390/33/18 387/34/18 346/35/18
f 365/36/17 389/33/17 390/34/17 366/35/17
f 390/36/16 387/33/16 388/34/16 391/35/16
f 367/36/18 391/33/18 388/34/18 347/35/18
f 366/36/17 390/33/17 391/34/17 367/35/17
f 347/33/15 349/34/15 392/35/15 388/36/15
f 391/36/16 388/33/16 392/34/16 393/35/16
f 368/36/18 393/33/18 392/34/18 349/35/18
f 367/36/17 391/33/17 393/34/17 368/35/17
f 349/33/15 352/34/15 394/35/15 392/36/15
f 393/36/16 392/33/16 394/34/16 395/35/16
f 369/36/18 395/33/18 394/34/18 352/35/18
f 368/36/17 393/33/17 395/34/17 369/35/17
f 370/36/14 365/35/14 389/34/14 396/33/14
f 396/36/16 389/33/16 390/34/16 397/35/16
f 371/36/18 397/33/18 390/34/18 366/35/18
f 370/36/17 396/33/17 397/34/17 371/35/17
f 397/36/16 390/33/16 391/34/16 398/35/16
f 372/36/18 398/33/18 391/34/18 367/35/18
f 371/36/17 397/33/17 398/34/17 372/35/17
f 398/36/16 391/33/16 393/34/16 399/35/16
f 374/36/18 399/33/18 393/34/18 368/35/18
f 372/36/17 398/33/17 399/34/17 374/35/17
f 377/36/14 370/35/14 396/34/14 400/33/14
f 400/36/16 396/33/16 397/34/16 401/35/16
f 378/36/18 401/33/18 397/34/18 371/35/18
f 377/36/17 400/33/17 401/34/17 378/35/17
f 401/36/16 397/33/16 398/34/16 402/35/16
f 379/36/18 402/33/18 398/34/18 372/35/18
f 378/36/17 401/33/17 402/34/17 379/35/17
f 380/36/14 381/35/14 404/34/14 403/33/14
f 381/33/15 382/34/15 405/35/15 404/36/15
f 403/36/16 404/33/16 405/34/16 406/35/16
f 383/36/18 406/33/18 405/34/18 382/35/18
f 380/36/17 403/33/17 406/34/17 383/35/17
f 382/33/15 384/34/15 407/35/15 405/36/15
f 406/36/16 405/33/16 407/34/16 408/35/16
f 385/36/18 408/33/18 407/34/18 384/35/18
f 383/36/17 406/33/17 408/34/17 385/35/17
f 386/36/14 380/35/14 403/34/14 409/33/14
f 409/36/16 403/33/16 406/34/16 410/35/16
f 387/36/18 410/33/18 406/34/18 383/35/18
f 386/36/17 409/33/17 410/34/17 387/35/17
f 410/36/16 406/33/16 408/34/16 411/35/16
f 388/36/18 411/33/18 408/34/18 385/35/18
f 387/36/17 410/33/17 411/34/17 388/35/17
f 389/36/14 386/35/14 409/34/14 412/33/14
f 412/36/16 409/33/16 410/34/16 413/35/16
f 390/36/18 413/33/18 410/34/18 387/35/18
f 389/36/17 412/33/17 413/34/17 390/35/17
f 413/36/16 410/33/16 411/34/16 414/35/16
f 391/36/18 414/33/18 411/34/18 388/35/18
f 390/36/17 413/33/17 414/34/17 391/35/17
f 396/36/14 389/35/14 412/34/14 415/33/14
f 415/36/16 412/33/16 413/34/16 416/35/16
f 397/36/18 416/33/18 413/34/18 390/35/18
f 396/36/17 415/33/17 416/34/17 397/35/17
f 416/36/16 413/33/16 414/34/16 417/35/16
f 398/36/18 417/33/18 414/34/18 391/35/18
f 397/36/17 416/33/17 417/34/17 398/35/17
