# Blender 5.1.2
# www.blender.org
mtllib wood_pilar.mtl
o pilar_madera_raw
v 0.462554 -0.186330 -0.890691
v 0.464471 -0.188437 -0.882062
v 0.465995 -0.186769 -0.882316
v 0.463844 -0.054622 -0.884318
v 0.343488 -0.186442 -0.864267
v 0.343914 -0.186884 -0.855223
v 0.345405 -0.188550 -0.855638
v 0.344778 -0.054735 -0.857894
v 0.345204 -0.055177 -0.848850
v 0.346728 -0.053508 -0.849104
v 0.465794 -0.053396 -0.875528
v 0.346728 -0.053508 -0.849103
v 0.345204 -0.055177 -0.848850
v 0.348645 -0.055616 -0.840474
v 0.465794 -0.053396 -0.875528
v 0.464696 -0.055506 -0.866229
v 0.468137 -0.055945 -0.857854
v 0.488995 -0.058680 -0.771007
v 0.484031 -0.059910 -0.779129
v 0.483604 -0.059468 -0.788173
v 0.369929 -0.058793 -0.744583
v 0.488995 -0.058680 -0.771007
v 0.490912 -0.060788 -0.762378
v 0.490486 -0.060346 -0.771422
v 0.369929 -0.058793 -0.744583
v 0.368405 -0.060461 -0.744329
v 0.371846 -0.060900 -0.735954
v 0.370556 -0.192608 -0.742327
v 0.368606 -0.193834 -0.751117
v 0.367115 -0.192169 -0.750702
v 0.489622 -0.192495 -0.768751
v 0.489196 -0.192053 -0.777795
v 0.487672 -0.193722 -0.777541
v 0.367115 -0.192169 -0.750702
v 0.366722 -0.188392 -0.759585
v 0.364772 -0.189619 -0.768376
v 0.343914 -0.186884 -0.855223
v 0.368405 -0.060461 -0.744329
v 0.367979 -0.060020 -0.753374
v 0.347387 -0.183989 -0.846686
v 0.349305 -0.186096 -0.838057
v 0.465356 -0.185986 -0.863812
v 0.463439 -0.183879 -0.872441
v 0.466880 -0.184318 -0.864066
v 0.480824 -0.189510 -0.794131
v 0.482774 -0.188283 -0.785341
v 0.482347 -0.187841 -0.794385
v 0.467285 -0.055061 -0.875943
v 0.469085 0.480542 -0.858423
v 0.471035 0.481769 -0.849633
v 0.472526 0.480103 -0.850048
v 0.496153 0.474377 -0.736483
v 0.495727 0.474819 -0.745527
v 0.494236 0.476484 -0.745112
v 0.350019 0.480430 -0.831999
v 0.350445 0.479988 -0.822955
v 0.351969 0.481656 -0.823209
v 0.377087 0.474264 -0.710059
v 0.375170 0.476372 -0.718688
v 0.373646 0.474703 -0.718434
v 0.372357 0.342996 -0.724807
v 0.373847 0.341330 -0.725222
v 0.375797 0.342557 -0.716431
v 0.350646 0.346615 -0.829743
v 0.349155 0.348281 -0.829328
v 0.348729 0.348722 -0.838372
v 0.467795 0.348835 -0.864796
v 0.471236 0.348396 -0.856421
v 0.469712 0.346727 -0.856167
v 0.494863 0.342670 -0.742856
v 0.492913 0.341443 -0.751646
v 0.494437 0.343111 -0.751900
v 0.469905 0.476324 -0.840496
v 0.473346 0.475885 -0.832120
v 0.471855 0.477551 -0.831705
v 0.489239 0.471920 -0.753395
v 0.487322 0.474028 -0.762024
v 0.488813 0.472362 -0.762440
v 0.353853 0.476215 -0.814740
v 0.355803 0.477441 -0.805950
v 0.350445 0.479988 -0.822955
v 0.373187 0.471811 -0.727640
v 0.373646 0.474703 -0.718434
v 0.371270 0.473918 -0.736269
v 0.372356 0.342996 -0.724807
v 0.371930 0.343438 -0.733852
v 0.373847 0.341330 -0.725222
v 0.350646 0.346615 -0.829743
v 0.352596 0.347842 -0.820952
v 0.349155 0.348281 -0.829328
v 0.468648 0.347951 -0.846707
v 0.469712 0.346727 -0.856167
v 0.472088 0.347512 -0.838332
v 0.487982 0.343547 -0.759607
v 0.487556 0.343989 -0.768651
v 0.492913 0.341443 -0.751647
v 0.467763 0.345501 -0.864958
v 0.471203 0.345062 -0.856582
v 0.469712 0.346727 -0.856167
v 0.466489 0.215461 -0.871250
v 0.348696 0.345388 -0.838533
v 0.349123 0.344946 -0.829489
v 0.350646 0.346615 -0.829743
v 0.347423 0.215348 -0.844826
v 0.349340 0.213241 -0.836196
v 0.347849 0.214906 -0.835781
v 0.347849 0.214906 -0.835781
v 0.349340 0.213241 -0.836196
v 0.351290 0.214467 -0.827406
v 0.349123 0.344946 -0.829489
v 0.350646 0.346615 -0.829743
v 0.352563 0.344507 -0.821113
v 0.468615 0.344617 -0.846869
v 0.469712 0.346727 -0.856167
v 0.472056 0.344178 -0.838493
v 0.467342 0.214577 -0.853161
v 0.470782 0.214138 -0.844785
v 0.468406 0.213353 -0.862620
v 0.491607 0.208068 -0.758100
v 0.468406 0.213353 -0.862621
v 0.469930 0.215022 -0.862874
v 0.491607 0.208068 -0.758100
v 0.493131 0.209737 -0.758354
v 0.493557 0.209295 -0.749309
v 0.372541 0.207956 -0.731676
v 0.371050 0.209622 -0.731261
v 0.374491 0.209183 -0.722885
v 0.372541 0.207956 -0.731676
v 0.371050 0.209622 -0.731261
v 0.370624 0.210063 -0.740305
v 0.371898 0.340104 -0.734013
v 0.486676 0.210173 -0.766060
v 0.486250 0.210615 -0.775105
v 0.487949 0.340213 -0.759768
v 0.487523 0.340655 -0.768813
v 0.492913 0.341443 -0.751647
v 0.373847 0.341330 -0.725222
v 0.492913 0.341443 -0.751646
v 0.494831 0.339335 -0.743017
v 0.494404 0.339777 -0.752061
v 0.373847 0.341330 -0.725222
v 0.372324 0.339662 -0.724968
v 0.375764 0.339223 -0.716593
v 0.372324 0.339662 -0.724968
v 0.466456 0.212126 -0.871411
v 0.469897 0.211687 -0.863036
v 0.468406 0.213353 -0.862621
v 0.465183 0.082086 -0.877703
v 0.347390 0.212014 -0.844987
v 0.347817 0.211572 -0.835943
v 0.349340 0.213241 -0.836196
v 0.346117 0.081974 -0.851279
v 0.348034 0.079866 -0.842650
v 0.346543 0.081532 -0.842235
v 0.346543 0.081532 -0.842235
v 0.348034 0.079866 -0.842650
v 0.349984 0.081093 -0.833859
v 0.347817 0.211572 -0.835942
v 0.349340 0.213241 -0.836196
v 0.351257 0.211133 -0.827567
v 0.467309 0.211243 -0.853322
v 0.468406 0.213353 -0.862620
v 0.470749 0.210804 -0.844947
v 0.466035 0.081203 -0.859614
v 0.469476 0.080764 -0.851239
v 0.467100 0.079979 -0.869074
v 0.490301 0.074694 -0.764554
v 0.467100 0.079979 -0.869074
v 0.468623 0.081647 -0.869328
v 0.490301 0.074694 -0.764553
v 0.491825 0.076363 -0.764807
v 0.492251 0.075921 -0.755763
v 0.371235 0.074582 -0.738129
v 0.369744 0.076247 -0.737714
v 0.373185 0.075808 -0.729339
v 0.371235 0.074582 -0.738130
v 0.369744 0.076247 -0.737714
v 0.369318 0.076689 -0.746759
v 0.370591 0.206729 -0.740467
v 0.485370 0.076799 -0.772514
v 0.484943 0.077241 -0.781558
v 0.486643 0.206839 -0.766222
v 0.486217 0.207281 -0.775266
v 0.491607 0.208068 -0.758100
v 0.372541 0.207956 -0.731676
v 0.491607 0.208068 -0.758100
v 0.493524 0.205961 -0.749471
v 0.493098 0.206403 -0.758515
v 0.372541 0.207956 -0.731676
v 0.371018 0.206287 -0.731422
v 0.374458 0.205848 -0.723046
v 0.371018 0.206287 -0.731422
v 0.465150 0.078752 -0.877865
v 0.468591 0.078313 -0.869489
v 0.467100 0.079979 -0.869074
v 0.463877 -0.051288 -0.884157
v 0.346084 0.078639 -0.851441
v 0.346510 0.078198 -0.842396
v 0.348034 0.079866 -0.842650
v 0.344811 -0.051401 -0.857733
v 0.346728 -0.053508 -0.849104
v 0.345237 -0.051842 -0.848688
v 0.345237 -0.051842 -0.848688
v 0.346728 -0.053508 -0.849103
v 0.348677 -0.052281 -0.840313
v 0.346510 0.078198 -0.842396
v 0.348034 0.079866 -0.842650
v 0.349951 0.077759 -0.834021
v 0.466003 0.077868 -0.859776
v 0.467100 0.079979 -0.869074
v 0.469443 0.077429 -0.851400
v 0.464729 -0.052172 -0.866068
v 0.468170 -0.052611 -0.857693
v 0.465794 -0.053396 -0.875528
v 0.488995 -0.058680 -0.771007
v 0.465794 -0.053396 -0.875528
v 0.467317 -0.051727 -0.875782
v 0.488995 -0.058680 -0.771007
v 0.490945 -0.057454 -0.762217
v 0.490518 -0.057012 -0.771261
v 0.369929 -0.058793 -0.744583
v 0.368438 -0.057127 -0.744168
v 0.371878 -0.057566 -0.735792
v 0.369929 -0.058793 -0.744583
v 0.368438 -0.057127 -0.744168
v 0.368012 -0.056685 -0.753212
v 0.369285 0.073355 -0.746920
v 0.484063 -0.056576 -0.778968
v 0.483637 -0.056134 -0.788012
v 0.485337 0.073464 -0.772675
v 0.484911 0.073906 -0.781720
v 0.490301 0.074694 -0.764554
v 0.371235 0.074582 -0.738130
v 0.490301 0.074694 -0.764553
v 0.492218 0.072587 -0.755924
v 0.491792 0.073028 -0.764969
v 0.371235 0.074582 -0.738129
v 0.369711 0.072913 -0.737876
v 0.373152 0.072474 -0.729500
v 0.369711 0.072913 -0.737876
vn -0.2167 0.0495 -0.9750
vn 0.9762 0.0008 -0.2167
vn -0.0098 -0.9988 -0.0483
vn -0.0097 -0.9988 -0.0483
vn -0.2161 0.0494 -0.9751
vn 0.9763 0.0009 -0.2166
vn -0.2167 0.0491 -0.9750
vn -0.2164 0.0488 -0.9751
vn -0.9762 -0.0009 0.2167
vn -0.9762 -0.0010 0.2167
vn 0.0098 0.9988 0.0483
vn 0.0097 0.9988 0.0483
vn -0.9762 -0.0010 0.2166
vn 0.0099 0.9988 0.0483
vn 0.2166 -0.0496 0.9750
vn 0.2166 -0.0494 0.9750
vn -0.2162 0.0492 -0.9751
vn 0.0124 0.9988 0.0478
vn -0.2163 0.0490 -0.9751
vn 0.0124 0.9988 0.0477
vn 0.2161 -0.0495 0.9751
vn 0.9762 0.0009 -0.2167
vn 0.2168 -0.0494 0.9750
vn -0.9762 0.0013 0.2168
vn -0.9762 0.0012 0.2168
vn 0.2166 -0.0490 0.9750
vn 0.2160 -0.0493 0.9752
vn 0.9762 0.0010 -0.2167
vn -0.2164 0.0491 -0.9751
vn -0.2163 0.0491 -0.9751
vn 0.2165 -0.0495 0.9750
vn 0.2164 -0.0498 0.9750
vn 0.2162 -0.0491 0.9751
vn 0.2159 -0.0493 0.9752
vn 0.9762 0.0010 -0.2166
vn -0.2163 0.0492 -0.9751
vn -0.2161 0.0493 -0.9751
vn -0.2162 0.0491 -0.9751
vn -0.9763 -0.0009 0.2166
vn -0.9762 0.0001 0.2167
vn -0.0000 -0.0000 -0.0000
vn 0.2164 -0.0492 0.9751
vn 0.2164 -0.0489 0.9751
vn 0.2164 -0.0491 0.9751
vn -0.9762 -0.0009 0.2166
vn -0.0109 -0.9988 -0.0481
vn 0.8883 -0.4044 -0.2176
vn -0.2168 0.0496 -0.9750
vn -0.2161 0.0491 -0.9751
vn -0.2165 0.0492 -0.9750
vn -0.2168 0.0488 -0.9750
vn 0.0097 0.9988 0.0484
vn 0.9762 0.0009 -0.2166
vn -0.2165 0.0496 -0.9750
vn -0.2162 0.0490 -0.9751
vn -0.2159 0.0493 -0.9752
vn -0.0099 -0.9988 -0.0483
vn 0.2167 -0.0491 0.9750
vn 0.2168 -0.0495 0.9750
vn 0.2163 -0.0490 0.9751
vn -0.0072 -0.9988 -0.0489
vn -0.9763 -0.0031 0.2165
vn -0.9763 -0.0031 0.2166
vn -0.2162 0.0496 -0.9751
vn -0.2162 0.0494 -0.9751
vn -0.2165 0.0491 -0.9750
vn -0.8883 0.4044 0.2176
vn -0.2172 0.0495 -0.9749
vn 0.2168 -0.0491 0.9750
vn 0.2167 -0.0494 0.9750
vn 0.7235 -0.6625 -0.1941
vn -0.2163 0.0496 -0.9751
vn -0.2165 0.0491 -0.9751
vn -0.2170 0.0493 -0.9749
vn 0.0126 0.9988 0.0477
vn -0.9762 0.0015 0.2168
vn -0.9762 0.0016 0.2168
vn -0.0126 -0.9988 -0.0477
vn -0.9762 0.0014 0.2168
vn 0.0127 0.9988 0.0477
vn -0.2163 0.0489 -0.9751
vn 0.0123 0.9988 0.0477
vt 0.592512 0.407818
vt 0.592512 0.226599
vt 0.707283 0.226599
vt 0.707283 0.407818
vt 0.591433 0.608247
vt 0.591433 0.427029
vt 0.706204 0.427029
vt 0.706204 0.608247
s 1
usemtl Wall-House
f 1/1/1 3/2/2 2/3/3
f 2/1/3 7/2/4 5/3/5 1/4/1
f 48/1/6 3/2/2 1/3/1 4/4/7
f 4/1/7 1/2/1 5/3/5 8/4/8
f 5/1/5 7/2/4 6/3/9
f 6/1/9 9/2/10 8/3/8 5/4/5
f 9/1/10 10/2/11 8/3/8
f 4/1/7 8/2/8 10/3/11 11/4/12
f 9/1/10 13/2/13 12/3/14 10/4/11
f 11/1/12 10/2/11 12/3/14 15/4/11
f 13/1/13 14/2/15 12/3/14
f 15/1/11 12/2/14 14/3/15 16/4/16
f 16/1/16 17/2/9 15/3/11
f 17/1/9 20/2/9 18/3/11 15/4/11
f 22/1/12 11/2/12 15/3/11 18/4/11
f 19/1/17 18/2/11 20/3/9
f 21/1/18 18/2/11 19/3/17 39/4/19
f 25/1/20 22/2/12 18/3/11 21/4/18
f 23/1/21 24/2/22 22/3/12
f 27/1/23 23/2/21 22/3/12 25/4/20
f 11/1/12 22/2/12 24/3/22 48/4/6
f 26/1/24 27/2/23 25/3/20
f 25/1/20 21/2/18 38/3/25 26/4/24
f 26/1/24 30/2/9 28/3/26 27/4/23
f 23/1/21 27/2/23 28/3/26 31/4/27
f 28/1/26 30/2/9 29/3/4
f 31/1/27 28/2/26 29/3/4 33/4/3
f 31/1/27 33/2/3 32/3/28
f 23/1/21 31/2/27 32/3/28 24/4/22
f 3/1/2 32/2/28 33/3/3 2/4/3
f 7/5/4 2/6/3 33/7/3 29/8/4
f 3/1/2 48/2/6 24/3/22 32/4/28
f 7/1/4 29/2/4 30/3/9 6/4/9
f 6/1/9 30/2/9 34/3/9 37/4/9
f 30/1/9 26/2/24 38/3/25 34/4/9
f 35/1/29 36/2/11 34/3/9
f 39/1/19 35/2/29 34/3/9 38/4/25
f 37/1/9 34/2/9 36/3/11 41/4/11
f 38/1/25 21/2/18 39/3/19
f 19/1/17 46/2/30 35/3/29 39/4/19
f 40/1/31 37/2/9 41/3/11
f 40/1/31 14/2/15 13/3/13 37/4/9
f 9/1/10 6/2/9 37/3/9 13/4/13
f 43/1/31 40/2/31 41/3/11 42/4/11
f 41/1/11 36/2/11 45/3/11 42/4/11
f 43/1/31 42/2/11 44/3/10
f 42/1/11 45/2/11 47/3/10 44/4/10
f 46/1/30 47/2/10 45/3/11
f 45/1/11 36/2/11 35/3/29 46/4/30
f 20/1/9 47/2/10 46/3/30 19/4/17
f 44/1/10 47/2/10 20/3/9 17/4/9
f 16/1/16 43/2/31 44/3/10 17/4/9
f 16/1/16 14/2/15 40/3/31 43/4/31
f 4/1/7 11/2/12 48/3/6
f 52/1/32 58/2/15 63/3/33 70/4/34
f 68/1/22 51/2/22 53/3/28 72/4/35
f 50/5/11 57/6/11 59/7/12 54/8/12
f 76/1/36 94/2/37 86/3/38 82/4/17
f 93/1/39 95/2/9 78/3/9 74/4/9
f 75/1/3 77/2/3 84/3/3 80/4/4
f 56/1/9 65/2/40 90/3/40 81/4/9
f 60/1/41 56/2/41 81/3/41 83/4/41
f 71/1/3 62/2/4 87/3/3 96/4/3
f 73/1/42 79/2/43 89/3/33 91/4/44
f 61/1/13 60/2/10 83/3/45 85/4/9
f 64/1/46 69/2/3 92/3/3 88/4/46
f 69/1/47 71/2/47 96/3/47 92/4/47
f 49/1/48 50/2/11 51/3/22
f 52/1/32 53/2/28 54/3/12
f 55/1/49 56/2/9 57/3/11
f 58/1/15 59/2/12 60/3/10
f 61/1/13 62/2/4 63/3/33
f 64/1/46 65/2/40 66/3/8
f 67/1/50 68/2/22 69/3/3
f 70/1/34 71/2/3 72/3/35
f 73/1/42 74/2/9 75/3/3
f 76/1/36 77/2/3 78/3/9
f 79/1/43 80/2/4 81/3/9
f 82/1/17 83/2/45 84/3/3
f 85/1/9 86/2/38 87/3/3
f 88/1/46 89/2/33 90/3/40
f 91/1/44 92/2/3 93/3/39
f 94/1/37 95/2/9 96/3/3
f 57/1/11 50/2/11 49/3/48 55/4/49
f 58/1/15 52/2/32 54/3/12 59/4/12
f 50/1/11 54/2/12 53/3/28 51/4/22
f 51/1/22 68/2/22 67/3/50 49/4/48
f 52/1/32 70/2/34 72/3/35 53/4/28
f 68/1/22 72/2/35 71/3/3 69/4/3
f 56/1/9 60/2/10 59/3/12 57/4/11
f 60/1/10 61/2/13 63/3/33 58/4/15
f 62/1/4 71/2/3 70/3/34 63/4/33
f 69/1/3 64/2/46 66/3/8 67/4/50
f 65/1/40 56/2/9 55/3/49 66/4/8
f 79/1/43 73/2/42 75/3/3 80/4/4
f 84/1/3 77/2/3 76/3/36 82/4/17
f 74/1/9 78/2/9 77/3/3 75/4/3
f 73/1/42 91/2/44 93/3/39 74/4/9
f 78/1/9 95/2/9 94/3/37 76/4/36
f 92/1/3 96/2/3 95/3/9 93/4/39
f 80/1/4 84/2/3 83/3/45 81/4/9
f 82/1/17 86/2/38 85/3/9 83/4/45
f 86/1/38 94/2/37 96/3/3 87/4/3
f 91/1/44 89/2/33 88/3/46 92/4/3
f 89/1/33 79/2/43 81/3/9 90/4/40
f 61/1/13 85/2/9 87/3/3 62/4/4
f 64/1/46 88/2/46 90/3/40 65/4/40
f 49/1/48 67/2/50 66/3/8 55/4/49
f 97/1/51 99/2/52 98/3/53
f 98/1/53 121/2/28 100/3/54 97/4/51
f 97/1/51 101/2/55 103/3/14 99/4/52
f 97/1/51 100/2/54 104/3/56 101/4/55
f 102/1/10 103/2/14 101/3/55
f 106/1/9 102/2/10 101/3/55 104/4/56
f 105/1/4 106/2/9 104/3/56
f 120/1/57 105/2/4 104/3/56 100/4/54
f 105/1/4 108/2/4 107/3/45 106/4/9
f 102/1/10 106/2/9 107/3/45 110/4/10
f 108/1/4 109/2/58 107/3/45
f 109/1/58 112/2/59 110/3/10 107/4/45
f 110/1/10 112/2/59 111/3/11
f 102/1/10 110/2/10 111/3/11 103/4/14
f 114/1/12 111/2/11 112/3/59 113/4/16
f 113/1/16 112/2/59 109/3/58 116/4/44
f 113/1/16 115/2/9 114/3/12
f 113/1/16 116/2/44 117/3/9 115/4/9
f 117/1/9 116/2/44 118/3/3
f 116/1/44 109/2/58 108/3/4 118/4/3
f 118/1/3 119/2/3 133/3/9 117/4/9
f 105/1/4 120/2/57 118/3/3 108/4/4
f 120/1/47 122/2/47 119/3/47 118/4/47
f 121/1/28 120/2/57 100/3/54
f 121/1/28 123/2/28 122/3/3 120/4/57
f 123/1/28 124/2/60 122/3/3
f 125/1/61 122/2/3 124/3/60 127/4/26
f 122/1/3 125/2/61 128/3/61 119/4/3
f 126/1/62 125/2/61 127/3/26
f 126/1/62 129/2/63 128/3/61 125/4/61
f 129/1/63 130/2/64 128/3/61
f 130/1/64 132/2/65 119/3/3 128/4/61
f 131/1/19 130/2/64 129/3/63 144/4/24
f 134/1/66 132/2/65 130/3/64 131/4/19
f 133/1/9 119/2/3 132/3/65
f 135/1/10 133/2/9 132/3/65 134/4/66
f 134/1/66 136/2/11 135/3/10
f 137/1/18 136/2/11 134/3/66 131/4/19
f 115/1/9 135/2/10 136/3/11 114/4/12
f 138/1/67 99/2/67 114/3/67 136/4/67
f 141/1/20 138/2/12 136/3/11 137/4/18
f 139/1/21 140/2/22 138/3/12
f 143/1/23 139/2/21 138/3/12 141/4/20
f 99/1/52 138/2/12 140/3/22 98/4/53
f 142/1/24 143/2/23 141/3/20
f 141/1/20 137/2/18 144/3/24 142/4/24
f 142/1/24 126/2/62 127/3/26 143/4/23
f 139/1/21 143/2/23 127/3/26 124/4/60
f 126/1/62 142/2/24 144/3/24 129/4/63
f 144/1/24 137/2/18 131/3/19
f 139/1/21 124/2/60 123/3/28 140/4/22
f 121/1/28 98/2/53 140/3/22 123/4/28
f 117/1/9 133/2/9 135/3/10 115/4/9
f 99/1/52 103/2/14 111/3/11 114/4/12
f 145/1/51 147/2/52 146/3/53
f 146/1/53 169/2/28 148/3/68 145/4/51
f 145/1/51 149/2/55 151/3/14 147/4/52
f 145/1/51 148/2/68 152/3/56 149/4/55
f 150/1/10 151/2/14 149/3/55
f 154/1/9 150/2/10 149/3/55 152/4/56
f 153/1/4 154/2/9 152/3/56
f 168/1/57 153/2/4 152/3/56 148/4/68
f 153/1/4 156/2/4 155/3/45 154/4/9
f 150/1/10 154/2/9 155/3/45 158/4/10
f 156/1/4 157/2/69 155/3/45
f 157/1/69 160/2/59 158/3/10 155/4/45
f 158/1/10 160/2/59 159/3/11
f 150/1/10 158/2/10 159/3/11 151/4/14
f 162/1/12 159/2/11 160/3/59 161/4/70
f 161/1/70 160/2/59 157/3/69 164/4/44
f 161/1/70 163/2/9 162/3/12
f 161/1/70 164/2/44 165/3/9 163/4/9
f 165/1/9 164/2/44 166/3/3
f 164/1/44 157/2/69 156/3/4 166/4/3
f 166/1/3 167/2/3 181/3/9 165/4/9
f 153/1/4 168/2/57 166/3/3 156/4/4
f 168/1/71 170/2/71 167/3/71 166/4/71
f 169/1/28 168/2/57 148/3/68
f 169/1/28 171/2/22 170/3/3 168/4/57
f 171/1/22 172/2/34 170/3/3
f 173/1/61 170/2/3 172/3/34 175/4/26
f 170/1/3 173/2/61 176/3/61 167/4/3
f 174/1/62 173/2/61 175/3/26
f 174/1/62 177/2/63 176/3/61 173/4/61
f 177/1/63 178/2/72 176/3/61
f 178/1/72 180/2/65 167/3/3 176/4/61
f 179/1/19 178/2/72 177/3/63 192/4/24
f 182/1/73 180/2/65 178/3/72 179/4/19
f 181/1/9 167/2/3 180/3/65
f 183/1/10 181/2/9 180/3/65 182/4/73
f 182/1/73 184/2/11 183/3/10
f 185/1/18 184/2/11 182/3/73 179/4/19
f 163/1/9 183/2/10 184/3/11 162/4/12
f 186/1/67 147/2/67 162/3/67 184/4/67
f 189/1/20 186/2/12 184/3/11 185/4/18
f 187/1/21 188/2/22 186/3/12
f 191/1/23 187/2/21 186/3/12 189/4/20
f 147/1/52 186/2/12 188/3/22 146/4/53
f 190/1/24 191/2/23 189/3/20
f 189/1/20 185/2/18 192/3/24 190/4/24
f 190/1/24 174/2/62 175/3/26 191/4/23
f 187/1/21 191/2/23 175/3/26 172/4/34
f 174/1/62 190/2/24 192/3/24 177/4/63
f 192/1/24 185/2/18 179/3/19
f 187/1/21 172/2/34 171/3/22 188/4/22
f 169/1/28 146/2/53 188/3/22 171/4/22
f 165/1/9 181/2/9 183/3/10 163/4/9
f 147/1/52 151/2/14 159/3/11 162/4/12
f 193/1/74 195/2/12 194/3/6
f 194/1/6 217/2/28 196/3/68 193/4/74
f 193/1/74 197/2/55 199/3/75 195/4/12
f 193/1/74 196/2/68 200/3/56 197/4/55
f 198/1/76 199/2/75 197/3/55
f 202/1/77 198/2/76 197/3/55 200/4/56
f 201/1/78 202/2/77 200/3/56
f 216/1/57 201/2/78 200/3/56 196/4/68
f 201/1/78 204/2/78 203/3/77 202/4/77
f 198/1/76 202/2/77 203/3/77 206/4/79
f 204/1/78 205/2/69 203/3/77
f 205/1/69 208/2/59 206/3/79 203/4/77
f 206/1/79 208/2/59 207/3/80
f 198/1/76 206/2/79 207/3/80 199/4/75
f 210/1/11 207/2/80 208/3/59 209/4/70
f 209/1/70 208/2/59 205/3/69 212/4/44
f 209/1/70 211/2/9 210/3/11
f 209/1/70 212/2/44 213/3/9 211/4/9
f 213/1/9 212/2/44 214/3/3
f 212/1/44 205/2/69 204/3/78 214/4/3
f 214/1/3 215/2/3 229/3/9 213/4/9
f 201/1/78 216/2/57 214/3/3 204/4/78
f 216/1/57 218/2/3 215/3/3 214/4/3
f 217/1/28 216/2/57 196/3/68
f 217/1/28 220/2/28 218/3/3 216/4/57
f 219/1/34 218/2/3 220/3/28
f 221/1/61 218/2/3 219/3/34 223/4/26
f 218/1/3 221/2/61 224/3/61 215/4/3
f 222/1/62 221/2/61 223/3/26
f 222/1/62 225/2/63 224/3/61 221/4/61
f 225/1/63 226/2/72 224/3/61
f 226/1/72 228/2/65 215/3/3 224/4/61
f 227/1/81 226/2/72 225/3/63 240/4/24
f 230/1/73 228/2/65 226/3/72 227/4/81
f 228/1/65 229/2/9 215/3/3
f 231/1/10 229/2/9 228/3/65 230/4/73
f 230/1/73 232/2/12 231/3/10
f 233/1/18 232/2/12 230/3/73 227/4/81
f 211/1/9 231/2/10 232/3/12 210/4/11
f 234/1/52 195/2/12 210/3/11 232/4/12
f 237/1/82 234/2/52 232/3/12 233/4/18
f 235/1/21 236/2/22 234/3/52
f 239/1/23 235/2/21 234/3/52 237/4/82
f 195/1/12 234/2/52 236/3/22 194/4/6
f 238/1/24 239/2/23 237/3/82
f 237/1/82 233/2/18 240/3/24 238/4/24
f 238/1/24 222/2/62 223/3/26 239/4/23
f 235/1/21 239/2/23 223/3/26 219/4/34
f 222/1/62 238/2/24 240/3/24 225/4/63
f 240/1/24 233/2/18 227/3/81
f 235/1/21 219/2/34 220/3/28 236/4/22
f 217/1/28 194/2/6 236/3/22 220/4/28
f 213/1/9 229/2/9 231/3/10 211/4/9
f 195/1/12 199/2/75 207/3/80 210/4/11
o pilar_madera_raw.002
v -0.679807 -0.259803 0.894367
v -0.677890 -0.261911 0.902996
v -0.676367 -0.260242 0.902742
v -0.678518 -0.128096 0.900740
v -0.798873 -0.259916 0.920791
v -0.798447 -0.260358 0.929835
v -0.796956 -0.262023 0.929420
v -0.797584 -0.128209 0.927164
v -0.797157 -0.128650 0.936208
v -0.795634 -0.126982 0.935954
v -0.676568 -0.126869 0.909530
v -0.795634 -0.126982 0.935955
v -0.797157 -0.128650 0.936208
v -0.793717 -0.129089 0.944584
v -0.676568 -0.126869 0.909530
v -0.677665 -0.128980 0.918829
v -0.674224 -0.129419 0.927204
v -0.653367 -0.132154 1.014051
v -0.658331 -0.133384 1.005929
v -0.658757 -0.132942 0.996885
v -0.772433 -0.132266 1.040475
v -0.653367 -0.132154 1.014051
v -0.651450 -0.134262 1.022680
v -0.651876 -0.133820 1.013636
v -0.772433 -0.132266 1.040475
v -0.773956 -0.133935 1.040729
v -0.770516 -0.134374 1.049104
v -0.771806 -0.266081 1.042732
v -0.773755 -0.267308 1.033941
v -0.775246 -0.265642 1.034356
v -0.652739 -0.265969 1.016307
v -0.653166 -0.265527 1.007263
v -0.654689 -0.267195 1.007517
v -0.775246 -0.265642 1.034356
v -0.775640 -0.261866 1.025473
v -0.777589 -0.263093 1.016682
v -0.798447 -0.260358 0.929835
v -0.773956 -0.133935 1.040729
v -0.774383 -0.133493 1.031684
v -0.794974 -0.257462 0.938372
v -0.793057 -0.259570 0.947002
v -0.677005 -0.259460 0.921246
v -0.678922 -0.257353 0.912617
v -0.675482 -0.257792 0.920993
v -0.661538 -0.262983 0.990927
v -0.659588 -0.261756 0.999718
v -0.660014 -0.261315 0.990673
v -0.675077 -0.128535 0.909115
v -0.673276 0.407069 0.926635
v -0.671327 0.408295 0.935425
v -0.669836 0.406630 0.935010
v -0.646208 0.400903 1.048575
v -0.646635 0.401345 1.039531
v -0.648125 0.403011 1.039946
v -0.792342 0.406956 0.953059
v -0.791916 0.406514 0.962103
v -0.790393 0.408183 0.961850
v -0.765275 0.400791 1.074999
v -0.767192 0.402898 1.066370
v -0.768715 0.401230 1.066624
v -0.770005 0.269522 1.060251
v -0.768514 0.267857 1.059836
v -0.766564 0.269083 1.068627
v -0.791715 0.273141 0.955315
v -0.793206 0.274807 0.955730
v -0.793632 0.275249 0.946686
v -0.674566 0.275361 0.920262
v -0.671126 0.274922 0.928637
v -0.672649 0.273254 0.928891
v -0.647498 0.269196 1.042202
v -0.649448 0.267969 1.033412
v -0.647925 0.269638 1.033158
v -0.672457 0.402851 0.944562
v -0.669016 0.402412 0.952938
v -0.670507 0.404077 0.953353
v -0.653122 0.398447 1.031663
v -0.655039 0.400554 1.023034
v -0.653548 0.398888 1.022618
v -0.788508 0.402741 0.970318
v -0.786559 0.403968 0.979108
v -0.791916 0.406514 0.962103
v -0.769174 0.398337 1.057418
v -0.768715 0.401230 1.066624
v -0.771091 0.400445 1.048789
v -0.770005 0.269522 1.060251
v -0.770431 0.269964 1.051206
v -0.768514 0.267857 1.059836
v -0.791715 0.273141 0.955315
v -0.789765 0.274368 0.964106
v -0.793206 0.274807 0.955731
v -0.673714 0.274478 0.938351
v -0.672649 0.273254 0.928891
v -0.670273 0.274039 0.946726
v -0.654379 0.270074 1.025451
v -0.654806 0.270516 1.016407
v -0.649448 0.267969 1.033412
v -0.674599 0.272027 0.920100
v -0.671158 0.271588 0.928476
v -0.672649 0.273254 0.928891
v -0.675872 0.141987 0.913808
v -0.793665 0.271915 0.946525
v -0.793239 0.271473 0.955569
v -0.791715 0.273141 0.955315
v -0.794939 0.141874 0.940232
v -0.793022 0.139767 0.948862
v -0.794512 0.141433 0.949277
v -0.794512 0.141433 0.949277
v -0.793021 0.139767 0.948862
v -0.791072 0.140994 0.957652
v -0.793239 0.271473 0.955569
v -0.791715 0.273141 0.955315
v -0.789798 0.271034 0.963945
v -0.673746 0.271143 0.938190
v -0.672649 0.273254 0.928891
v -0.670306 0.270704 0.946565
v -0.675020 0.141103 0.931897
v -0.671579 0.140664 0.940273
v -0.673955 0.139879 0.922438
v -0.650754 0.134595 1.026958
v -0.673955 0.139879 0.922437
v -0.672432 0.141548 0.922184
v -0.650754 0.134595 1.026958
v -0.649231 0.136263 1.026704
v -0.648804 0.135822 1.035749
v -0.769820 0.134482 1.053382
v -0.771311 0.136148 1.053797
v -0.767871 0.135709 1.062173
v -0.769820 0.134482 1.053382
v -0.771311 0.136148 1.053797
v -0.771737 0.136590 1.044753
v -0.770464 0.266630 1.051045
v -0.655686 0.136699 1.018998
v -0.656112 0.137141 1.009953
v -0.654412 0.266740 1.025290
v -0.654838 0.267181 1.016245
v -0.649448 0.267969 1.033412
v -0.768514 0.267857 1.059836
v -0.649448 0.267969 1.033412
v -0.647531 0.265862 1.042041
v -0.647957 0.266303 1.032997
v -0.768514 0.267857 1.059836
v -0.770038 0.266188 1.060090
v -0.766597 0.265749 1.068465
v -0.770038 0.266188 1.060090
v -0.675905 0.138653 0.913647
v -0.672465 0.138214 0.922022
v -0.673955 0.139879 0.922437
v -0.677179 0.008613 0.907355
v -0.794971 0.138540 0.940071
v -0.794545 0.138098 0.949115
v -0.793022 0.139767 0.948862
v -0.796245 0.008500 0.933779
v -0.794328 0.006393 0.942408
v -0.795819 0.008058 0.942823
v -0.795818 0.008058 0.942823
v -0.794328 0.006393 0.942408
v -0.792378 0.007619 0.951199
v -0.794545 0.138098 0.949116
v -0.793021 0.139767 0.948862
v -0.791104 0.137659 0.957491
v -0.675053 0.137769 0.931736
v -0.673955 0.139879 0.922438
v -0.671612 0.137330 0.940111
v -0.676326 0.007729 0.925444
v -0.672886 0.007290 0.933819
v -0.675262 0.006505 0.915984
v -0.652061 0.001220 1.020504
v -0.675262 0.006505 0.915984
v -0.673738 0.008174 0.915730
v -0.652060 0.001220 1.020505
v -0.650537 0.002889 1.020251
v -0.650111 0.002447 1.029295
v -0.771127 0.001108 1.046929
v -0.772617 0.002774 1.047344
v -0.769177 0.002335 1.055719
v -0.771127 0.001108 1.046929
v -0.772617 0.002774 1.047344
v -0.773044 0.003215 1.038299
v -0.771770 0.133255 1.044592
v -0.656992 0.003325 1.012544
v -0.657418 0.003767 1.003500
v -0.655718 0.133365 1.018836
v -0.656145 0.133807 1.009792
v -0.650754 0.134595 1.026958
v -0.769820 0.134482 1.053382
v -0.650754 0.134595 1.026958
v -0.648837 0.132487 1.035587
v -0.649263 0.132929 1.026543
v -0.769820 0.134482 1.053382
v -0.771344 0.132814 1.053636
v -0.767903 0.132375 1.062012
v -0.771344 0.132814 1.053636
v -0.677211 0.005278 0.907193
v -0.673771 0.004839 0.915569
v -0.675262 0.006505 0.915984
v -0.678485 -0.124762 0.900901
v -0.796277 0.005166 0.933617
v -0.795851 0.004724 0.942662
v -0.794328 0.006393 0.942408
v -0.797551 -0.124874 0.927325
v -0.795634 -0.126982 0.935954
v -0.797125 -0.125316 0.936370
v -0.797125 -0.125316 0.936370
v -0.795634 -0.126982 0.935955
v -0.793684 -0.125755 0.944745
v -0.795851 0.004724 0.942662
v -0.794328 0.006393 0.942408
v -0.792411 0.004285 0.951038
v -0.676359 0.004395 0.925282
v -0.675262 0.006505 0.915984
v -0.672918 0.003956 0.933658
v -0.677632 -0.125645 0.918990
v -0.674192 -0.126084 0.927365
v -0.676568 -0.126869 0.909530
v -0.653367 -0.132154 1.014051
v -0.676568 -0.126869 0.909530
v -0.675044 -0.125201 0.909276
v -0.653367 -0.132154 1.014051
v -0.651417 -0.130927 1.022842
v -0.651843 -0.130485 1.013797
v -0.772433 -0.132266 1.040475
v -0.773924 -0.130601 1.040890
v -0.770483 -0.131040 1.049266
v -0.772433 -0.132266 1.040475
v -0.773924 -0.130601 1.040890
v -0.774350 -0.130159 1.031846
v -0.773076 -0.000119 1.038138
v -0.658298 -0.130049 1.006090
v -0.658724 -0.129607 0.997046
v -0.657025 -0.000009 1.012383
v -0.657451 0.000433 1.003338
v -0.652061 0.001220 1.020504
v -0.771127 0.001108 1.046929
v -0.652060 0.001220 1.020505
v -0.650143 -0.000887 1.029134
v -0.650570 -0.000445 1.020089
v -0.771127 0.001108 1.046929
v -0.772650 -0.000561 1.047183
v -0.769210 -0.001000 1.055558
v -0.772650 -0.000561 1.047182
vn -0.2167 0.0495 -0.9750
vn 0.9762 0.0008 -0.2167
vn -0.0098 -0.9988 -0.0483
vn -0.0097 -0.9988 -0.0483
vn -0.2161 0.0494 -0.9751
vn 0.9763 0.0009 -0.2166
vn -0.2167 0.0491 -0.9750
vn -0.2164 0.0488 -0.9751
vn -0.9762 -0.0009 0.2167
vn -0.9762 -0.0010 0.2167
vn 0.0098 0.9988 0.0483
vn 0.0097 0.9988 0.0483
vn -0.9762 -0.0010 0.2166
vn 0.0099 0.9988 0.0483
vn 0.2166 -0.0496 0.9750
vn 0.2166 -0.0494 0.9750
vn -0.2162 0.0492 -0.9751
vn 0.0124 0.9988 0.0478
vn -0.2163 0.0490 -0.9751
vn 0.0124 0.9988 0.0477
vn 0.2161 -0.0495 0.9751
vn 0.9762 0.0009 -0.2167
vn 0.2168 -0.0494 0.9750
vn -0.9762 0.0013 0.2168
vn -0.9762 0.0012 0.2168
vn 0.2166 -0.0490 0.9750
vn 0.2160 -0.0493 0.9752
vn 0.9762 0.0010 -0.2167
vn -0.2164 0.0491 -0.9751
vn -0.2163 0.0491 -0.9751
vn 0.2165 -0.0495 0.9750
vn 0.2164 -0.0498 0.9750
vn 0.2162 -0.0491 0.9751
vn 0.2159 -0.0493 0.9752
vn 0.9762 0.0010 -0.2166
vn -0.2163 0.0492 -0.9751
vn -0.2161 0.0493 -0.9751
vn -0.2162 0.0491 -0.9751
vn -0.9763 -0.0009 0.2166
vn -0.9762 0.0001 0.2167
vn -0.0000 -0.0000 -0.0000
vn 0.2164 -0.0492 0.9751
vn 0.2164 -0.0489 0.9751
vn 0.2164 -0.0491 0.9751
vn -0.9762 -0.0009 0.2166
vn -0.0109 -0.9988 -0.0481
vn 0.8883 -0.4044 -0.2176
vn -0.2168 0.0496 -0.9750
vn -0.2161 0.0491 -0.9751
vn -0.2165 0.0492 -0.9750
vn -0.2168 0.0488 -0.9750
vn 0.0097 0.9988 0.0484
vn 0.9762 0.0009 -0.2166
vn -0.2165 0.0496 -0.9750
vn -0.2162 0.0490 -0.9751
vn -0.2159 0.0493 -0.9752
vn -0.0099 -0.9988 -0.0483
vn 0.2167 -0.0491 0.9750
vn 0.2168 -0.0495 0.9750
vn 0.2163 -0.0490 0.9751
vn -0.0072 -0.9988 -0.0489
vn -0.9763 -0.0031 0.2165
vn -0.9763 -0.0031 0.2166
vn -0.2162 0.0496 -0.9751
vn -0.2162 0.0494 -0.9751
vn -0.2165 0.0491 -0.9750
vn -0.8883 0.4044 0.2176
vn -0.2172 0.0495 -0.9749
vn 0.2168 -0.0491 0.9750
vn 0.2167 -0.0494 0.9750
vn 0.7235 -0.6625 -0.1941
vn -0.2163 0.0496 -0.9751
vn -0.2165 0.0491 -0.9751
vn -0.2170 0.0493 -0.9749
vn 0.0126 0.9988 0.0477
vn -0.9762 0.0015 0.2168
vn -0.9762 0.0016 0.2168
vn -0.0126 -0.9988 -0.0477
vn -0.9762 0.0014 0.2168
vn 0.0127 0.9988 0.0477
vn -0.2163 0.0489 -0.9751
vn 0.0123 0.9988 0.0477
vt 0.592512 0.407818
vt 0.592512 0.226599
vt 0.707283 0.226599
vt 0.707283 0.407818
vt 0.591433 0.608247
vt 0.591433 0.427029
vt 0.706204 0.427029
vt 0.706204 0.608247
s 1
usemtl Wall-House
f 241/9/83 243/10/84 242/11/85
f 242/9/85 247/10/86 245/11/87 241/12/83
f 288/9/88 243/10/84 241/11/83 244/12/89
f 244/9/89 241/10/83 245/11/87 248/12/90
f 245/9/87 247/10/86 246/11/91
f 246/9/91 249/10/92 248/11/90 245/12/87
f 249/9/92 250/10/93 248/11/90
f 244/9/89 248/10/90 250/11/93 251/12/94
f 249/9/92 253/10/95 252/11/96 250/12/93
f 251/9/94 250/10/93 252/11/96 255/12/93
f 253/9/95 254/10/97 252/11/96
f 255/9/93 252/10/96 254/11/97 256/12/98
f 256/9/98 257/10/91 255/11/93
f 257/9/91 260/10/91 258/11/93 255/12/93
f 262/9/94 251/10/94 255/11/93 258/12/93
f 259/9/99 258/10/93 260/11/91
f 261/9/100 258/10/93 259/11/99 279/12/101
f 265/9/102 262/10/94 258/11/93 261/12/100
f 263/9/103 264/10/104 262/11/94
f 267/9/105 263/10/103 262/11/94 265/12/102
f 251/9/94 262/10/94 264/11/104 288/12/88
f 266/9/106 267/10/105 265/11/102
f 265/9/102 261/10/100 278/11/107 266/12/106
f 266/9/106 270/10/91 268/11/108 267/12/105
f 263/9/103 267/10/105 268/11/108 271/12/109
f 268/9/108 270/10/91 269/11/86
f 271/9/109 268/10/108 269/11/86 273/12/85
f 271/9/109 273/10/85 272/11/110
f 263/9/103 271/10/109 272/11/110 264/12/104
f 243/9/84 272/10/110 273/11/85 242/12/85
f 247/13/86 242/14/85 273/15/85 269/16/86
f 243/9/84 288/10/88 264/11/104 272/12/110
f 247/9/86 269/10/86 270/11/91 246/12/91
f 246/9/91 270/10/91 274/11/91 277/12/91
f 270/9/91 266/10/106 278/11/107 274/12/91
f 275/9/111 276/10/93 274/11/91
f 279/9/101 275/10/111 274/11/91 278/12/107
f 277/9/91 274/10/91 276/11/93 281/12/93
f 278/9/107 261/10/100 279/11/101
f 259/9/99 286/10/112 275/11/111 279/12/101
f 280/9/113 277/10/91 281/11/93
f 280/9/113 254/10/97 253/11/95 277/12/91
f 249/9/92 246/10/91 277/11/91 253/12/95
f 283/9/113 280/10/113 281/11/93 282/12/93
f 281/9/93 276/10/93 285/11/93 282/12/93
f 283/9/113 282/10/93 284/11/92
f 282/9/93 285/10/93 287/11/92 284/12/92
f 286/9/112 287/10/92 285/11/93
f 285/9/93 276/10/93 275/11/111 286/12/112
f 260/9/91 287/10/92 286/11/112 259/12/99
f 284/9/92 287/10/92 260/11/91 257/12/91
f 256/9/98 283/10/113 284/11/92 257/12/91
f 256/9/98 254/10/97 280/11/113 283/12/113
f 244/9/89 251/10/94 288/11/88
f 292/9/114 298/10/97 303/11/115 310/12/116
f 308/9/104 291/10/104 293/11/110 312/12/117
f 290/13/93 297/14/93 299/15/94 294/16/94
f 316/9/118 334/10/119 326/11/120 322/12/99
f 333/9/121 335/10/91 318/11/91 314/12/91
f 315/9/85 317/10/85 324/11/85 320/12/86
f 296/9/91 305/10/122 330/11/122 321/12/91
f 300/9/123 296/10/123 321/11/123 323/12/123
f 311/9/85 302/10/86 327/11/85 336/12/85
f 313/9/124 319/10/125 329/11/115 331/12/126
f 301/9/95 300/10/92 323/11/127 325/12/91
f 304/9/128 309/10/85 332/11/85 328/12/128
f 309/9/129 311/10/129 336/11/129 332/12/129
f 289/9/130 290/10/93 291/11/104
f 292/9/114 293/10/110 294/11/94
f 295/9/131 296/10/91 297/11/93
f 298/9/97 299/10/94 300/11/92
f 301/9/95 302/10/86 303/11/115
f 304/9/128 305/10/122 306/11/90
f 307/9/132 308/10/104 309/11/85
f 310/9/116 311/10/85 312/11/117
f 313/9/124 314/10/91 315/11/85
f 316/9/118 317/10/85 318/11/91
f 319/9/125 320/10/86 321/11/91
f 322/9/99 323/10/127 324/11/85
f 325/9/91 326/10/120 327/11/85
f 328/9/128 329/10/115 330/11/122
f 331/9/126 332/10/85 333/11/121
f 334/9/119 335/10/91 336/11/85
f 297/9/93 290/10/93 289/11/130 295/12/131
f 298/9/97 292/10/114 294/11/94 299/12/94
f 290/9/93 294/10/94 293/11/110 291/12/104
f 291/9/104 308/10/104 307/11/132 289/12/130
f 292/9/114 310/10/116 312/11/117 293/12/110
f 308/9/104 312/10/117 311/11/85 309/12/85
f 296/9/91 300/10/92 299/11/94 297/12/93
f 300/9/92 301/10/95 303/11/115 298/12/97
f 302/9/86 311/10/85 310/11/116 303/12/115
f 309/9/85 304/10/128 306/11/90 307/12/132
f 305/9/122 296/10/91 295/11/131 306/12/90
f 319/9/125 313/10/124 315/11/85 320/12/86
f 324/9/85 317/10/85 316/11/118 322/12/99
f 314/9/91 318/10/91 317/11/85 315/12/85
f 313/9/124 331/10/126 333/11/121 314/12/91
f 318/9/91 335/10/91 334/11/119 316/12/118
f 332/9/85 336/10/85 335/11/91 333/12/121
f 320/9/86 324/10/85 323/11/127 321/12/91
f 322/9/99 326/10/120 325/11/91 323/12/127
f 326/9/120 334/10/119 336/11/85 327/12/85
f 331/9/126 329/10/115 328/11/128 332/12/85
f 329/9/115 319/10/125 321/11/91 330/12/122
f 301/9/95 325/10/91 327/11/85 302/12/86
f 304/9/128 328/10/128 330/11/122 305/12/122
f 289/9/130 307/10/132 306/11/90 295/12/131
f 337/9/133 339/10/134 338/11/135
f 338/9/135 361/10/110 340/11/136 337/12/133
f 337/9/133 341/10/137 343/11/96 339/12/134
f 337/9/133 340/10/136 344/11/138 341/12/137
f 342/9/92 343/10/96 341/11/137
f 346/9/91 342/10/92 341/11/137 344/12/138
f 345/9/86 346/10/91 344/11/138
f 360/9/139 345/10/86 344/11/138 340/12/136
f 345/9/86 348/10/86 347/11/127 346/12/91
f 342/9/92 346/10/91 347/11/127 350/12/92
f 348/9/86 349/10/140 347/11/127
f 349/9/140 352/10/141 350/11/92 347/12/127
f 350/9/92 352/10/141 351/11/93
f 342/9/92 350/10/92 351/11/93 343/12/96
f 354/9/94 351/10/93 352/11/141 353/12/98
f 353/9/98 352/10/141 349/11/140 356/12/126
f 353/9/98 355/10/91 354/11/94
f 353/9/98 356/10/126 357/11/91 355/12/91
f 357/9/91 356/10/126 358/11/85
f 356/9/126 349/10/140 348/11/86 358/12/85
f 358/9/85 359/10/85 373/11/91 357/12/91
f 345/9/86 360/10/139 358/11/85 348/12/86
f 360/9/129 362/10/129 359/11/129 358/12/129
f 361/9/110 360/10/139 340/11/136
f 361/9/110 363/10/110 362/11/85 360/12/139
f 363/9/110 364/10/142 362/11/85
f 365/9/143 362/10/85 364/11/142 367/12/108
f 362/9/85 365/10/143 368/11/143 359/12/85
f 366/9/144 365/10/143 367/11/108
f 366/9/144 369/10/145 368/11/143 365/12/143
f 369/9/145 370/10/146 368/11/143
f 370/9/146 372/10/147 359/11/85 368/12/143
f 371/9/101 370/10/146 369/11/145 384/12/106
f 374/9/148 372/10/147 370/11/146 371/12/101
f 373/9/91 359/10/85 372/11/147
f 375/9/92 373/10/91 372/11/147 374/12/148
f 374/9/148 376/10/93 375/11/92
f 377/9/100 376/10/93 374/11/148 371/12/101
f 355/9/91 375/10/92 376/11/93 354/12/94
f 378/9/149 339/10/149 354/11/149 376/12/149
f 381/9/102 378/10/94 376/11/93 377/12/100
f 379/9/103 380/10/104 378/11/94
f 383/9/105 379/10/103 378/11/94 381/12/102
f 339/9/134 378/10/94 380/11/104 338/12/135
f 382/9/106 383/10/105 381/11/102
f 381/9/102 377/10/100 384/11/106 382/12/106
f 382/9/106 366/10/144 367/11/108 383/12/105
f 379/9/103 383/10/105 367/11/108 364/12/142
f 366/9/144 382/10/106 384/11/106 369/12/145
f 384/9/106 377/10/100 371/11/101
f 379/9/103 364/10/142 363/11/110 380/12/104
f 361/9/110 338/10/135 380/11/104 363/12/110
f 357/9/91 373/10/91 375/11/92 355/12/91
f 339/9/134 343/10/96 351/11/93 354/12/94
f 385/9/133 387/10/134 386/11/135
f 386/9/135 409/10/110 388/11/150 385/12/133
f 385/9/133 389/10/137 391/11/96 387/12/134
f 385/9/133 388/10/150 392/11/138 389/12/137
f 390/9/92 391/10/96 389/11/137
f 394/9/91 390/10/92 389/11/137 392/12/138
f 393/9/86 394/10/91 392/11/138
f 408/9/139 393/10/86 392/11/138 388/12/150
f 393/9/86 396/10/86 395/11/127 394/12/91
f 390/9/92 394/10/91 395/11/127 398/12/92
f 396/9/86 397/10/151 395/11/127
f 397/9/151 400/10/141 398/11/92 395/12/127
f 398/9/92 400/10/141 399/11/93
f 390/9/92 398/10/92 399/11/93 391/12/96
f 402/9/94 399/10/93 400/11/141 401/12/152
f 401/9/152 400/10/141 397/11/151 404/12/126
f 401/9/152 403/10/91 402/11/94
f 401/9/152 404/10/126 405/11/91 403/12/91
f 405/9/91 404/10/126 406/11/85
f 404/9/126 397/10/151 396/11/86 406/12/85
f 406/9/85 407/10/85 421/11/91 405/12/91
f 393/9/86 408/10/139 406/11/85 396/12/86
f 408/9/153 410/10/153 407/11/153 406/12/153
f 409/9/110 408/10/139 388/11/150
f 409/9/110 411/10/104 410/11/85 408/12/139
f 411/9/104 412/10/116 410/11/85
f 413/9/143 410/10/85 412/11/116 415/12/108
f 410/9/85 413/10/143 416/11/143 407/12/85
f 414/9/144 413/10/143 415/11/108
f 414/9/144 417/10/145 416/11/143 413/12/143
f 417/9/145 418/10/154 416/11/143
f 418/9/154 420/10/147 407/11/85 416/12/143
f 419/9/101 418/10/154 417/11/145 432/12/106
f 422/9/155 420/10/147 418/11/154 419/12/101
f 421/9/91 407/10/85 420/11/147
f 423/9/92 421/10/91 420/11/147 422/12/155
f 422/9/155 424/10/93 423/11/92
f 425/9/100 424/10/93 422/11/155 419/12/101
f 403/9/91 423/10/92 424/11/93 402/12/94
f 426/9/149 387/10/149 402/11/149 424/12/149
f 429/9/102 426/10/94 424/11/93 425/12/100
f 427/9/103 428/10/104 426/11/94
f 431/9/105 427/10/103 426/11/94 429/12/102
f 387/9/134 426/10/94 428/11/104 386/12/135
f 430/9/106 431/10/105 429/11/102
f 429/9/102 425/10/100 432/11/106 430/12/106
f 430/9/106 414/10/144 415/11/108 431/12/105
f 427/9/103 431/10/105 415/11/108 412/12/116
f 414/9/144 430/10/106 432/11/106 417/12/145
f 432/9/106 425/10/100 419/11/101
f 427/9/103 412/10/116 411/11/104 428/12/104
f 409/9/110 386/10/135 428/11/104 411/12/104
f 405/9/91 421/10/91 423/11/92 403/12/91
f 387/9/134 391/10/96 399/11/93 402/12/94
f 433/9/156 435/10/94 434/11/88
f 434/9/88 457/10/110 436/11/150 433/12/156
f 433/9/156 437/10/137 439/11/157 435/12/94
f 433/9/156 436/10/150 440/11/138 437/12/137
f 438/9/158 439/10/157 437/11/137
f 442/9/159 438/10/158 437/11/137 440/12/138
f 441/9/160 442/10/159 440/11/138
f 456/9/139 441/10/160 440/11/138 436/12/150
f 441/9/160 444/10/160 443/11/159 442/12/159
f 438/9/158 442/10/159 443/11/159 446/12/161
f 444/9/160 445/10/151 443/11/159
f 445/9/151 448/10/141 446/11/161 443/12/159
f 446/9/161 448/10/141 447/11/162
f 438/9/158 446/10/161 447/11/162 439/12/157
f 450/9/93 447/10/162 448/11/141 449/12/152
f 449/9/152 448/10/141 445/11/151 452/12/126
f 449/9/152 451/10/91 450/11/93
f 449/9/152 452/10/126 453/11/91 451/12/91
f 453/9/91 452/10/126 454/11/85
f 452/9/126 445/10/151 444/11/160 454/12/85
f 454/9/85 455/10/85 469/11/91 453/12/91
f 441/9/160 456/10/139 454/11/85 444/12/160
f 456/9/139 458/10/85 455/11/85 454/12/85
f 457/9/110 456/10/139 436/11/150
f 457/9/110 460/10/110 458/11/85 456/12/139
f 459/9/116 458/10/85 460/11/110
f 461/9/143 458/10/85 459/11/116 463/12/108
f 458/9/85 461/10/143 464/11/143 455/12/85
f 462/9/144 461/10/143 463/11/108
f 462/9/144 465/10/145 464/11/143 461/12/143
f 465/9/145 466/10/154 464/11/143
f 466/9/154 468/10/147 455/11/85 464/12/143
f 467/9/163 466/10/154 465/11/145 480/12/106
f 470/9/155 468/10/147 466/11/154 467/12/163
f 468/9/147 469/10/91 455/11/85
f 471/9/92 469/10/91 468/11/147 470/12/155
f 470/9/155 472/10/94 471/11/92
f 473/9/100 472/10/94 470/11/155 467/12/163
f 451/9/91 471/10/92 472/11/94 450/12/93
f 474/9/134 435/10/94 450/11/93 472/12/94
f 477/9/164 474/10/134 472/11/94 473/12/100
f 475/9/103 476/10/104 474/11/134
f 479/9/105 475/10/103 474/11/134 477/12/164
f 435/9/94 474/10/134 476/11/104 434/12/88
f 478/9/106 479/10/105 477/11/164
f 477/9/164 473/10/100 480/11/106 478/12/106
f 478/9/106 462/10/144 463/11/108 479/12/105
f 475/9/103 479/10/105 463/11/108 459/12/116
f 462/9/144 478/10/106 480/11/106 465/12/145
f 480/9/106 473/10/100 467/11/163
f 475/9/103 459/10/116 460/11/110 476/12/104
f 457/9/110 434/10/88 476/11/104 460/12/110
f 453/9/91 469/10/91 471/11/92 451/12/91
f 435/9/94 439/10/157 447/11/162 450/12/93
