# Blender 5.1.2
# www.blender.org
mtllib pedestal.mtl
o SocleTrans
v -0.000000 0.040605 0.177934
v -0.000001 0.056247 0.177934
v -0.000001 0.059807 0.176591
v -0.003011 0.059912 0.177934
v -0.001656 0.061884 0.176591
v -0.000001 0.059807 0.179277
v -0.004362 0.064147 0.177934
v 0.003009 0.059912 0.177934
v -0.001656 0.061884 0.179277
v -0.002172 0.064147 0.176591
v 0.001655 0.061884 0.176591
v -0.002172 0.064147 0.179277
v 0.001655 0.061884 0.179277
v 0.004361 0.064147 0.177934
v 0.002171 0.064147 0.176591
v 0.002171 0.064147 0.179277
v -0.002352 0.064855 0.175954
v -0.002172 0.065459 0.176591
v 0.002351 0.064855 0.175954
v 0.002171 0.065459 0.176591
v -0.004362 0.065459 0.177934
v -0.005579 0.064855 0.177934
v -0.002352 0.064855 0.179914
v -0.002172 0.065459 0.179277
v 0.002351 0.064855 0.179914
v 0.002171 0.065459 0.179277
v 0.004361 0.065459 0.177934
v 0.005578 0.064855 0.177934
v -0.029635 0.040605 0.192140
v -0.028270 0.040605 0.193386
v -0.018648 0.063878 0.188929
v -0.017431 0.063678 0.190220
v -0.017105 0.064855 0.188846
v -0.017433 0.063680 0.165648
v -0.018643 0.063889 0.166927
v -0.017110 0.064855 0.167017
v -0.028270 0.040605 0.162482
v -0.029635 0.040605 0.163728
v 0.018648 0.063878 0.166939
v 0.017431 0.063678 0.165648
v 0.017105 0.064855 0.167022
v 0.029635 0.040605 0.163728
v 0.028270 0.040605 0.162482
v 0.028270 0.040605 0.193386
v 0.029635 0.040605 0.192140
v 0.017105 0.064855 0.188846
v 0.017433 0.063680 0.190220
v 0.018648 0.063878 0.188929
v -0.000001 0.064147 0.176591
v -0.000001 0.064147 0.179277
v -0.000001 0.064803 0.179277
v -0.000001 0.064803 0.176591
vn 0.3952 0.3211 0.8606
vn 0.3952 0.3211 -0.8606
vn 0.5361 0.1038 0.8378
vn 0.5404 0.1553 0.8269
vn 0.5370 0.1135 0.8359
vn -0.3952 0.3211 0.8606
vn 0.5404 0.1553 -0.8269
vn 0.5361 0.1038 -0.8378
vn 0.5370 0.1135 -0.8359
vn -0.3952 0.3211 -0.8606
vn -0.5404 0.1553 0.8269
vn -0.5361 0.1038 0.8378
vn -0.5370 0.1135 0.8359
vn -0.5361 0.1038 -0.8378
vn -0.5404 0.1553 -0.8269
vn -0.5370 0.1135 -0.8359
vn -0.0000 -0.0000 -1.0000
vn -0.0000 -0.0000 1.0000
vn -0.1511 0.7380 -0.6577
vn 0.1511 0.7380 -0.6577
vn -0.3599 0.7254 -0.5868
vn 0.3599 0.7254 -0.5868
vn -0.3599 0.7254 0.5868
vn -0.1511 0.7380 0.6577
vn 0.1511 0.7380 0.6577
vn 0.3599 0.7254 0.5868
vn 0.5229 -0.0000 0.8524
vn 0.5229 -0.0000 -0.8524
vn -0.5229 -0.0000 0.8524
vn -0.5229 -0.0000 -0.8524
vn -0.0000 -1.0000 -0.0000
vn -0.6301 0.3892 0.6719
vn -0.2982 0.6420 0.7063
vn -0.6274 0.3966 0.6702
vn -0.5339 0.8455 0.0002
vn -0.0058 0.7604 0.6494
vn 0.2983 0.6421 0.7062
vn 0.0057 0.7604 0.6494
vn -0.2974 0.6412 -0.7074
vn -0.0056 0.7598 -0.6501
vn 0.0058 0.7598 -0.6501
vn 0.2984 0.6415 -0.7067
vn -0.6260 0.3960 -0.6718
vn -0.6288 0.3886 -0.6735
vn 0.5349 0.8449 -0.0000
vn 0.6274 0.3966 -0.6702
vn 0.6301 0.3892 -0.6719
vn 0.6304 0.3893 0.6716
vn 0.6277 0.3967 0.6698
vn -0.9043 0.4269 -0.0000
vn -0.0000 0.1360 -0.9907
vn -0.0000 0.1360 0.9907
vn 0.9043 0.4269 -0.0000
vn -0.0000 1.0000 -0.0000
vt 0.803722 0.380998
vt 0.833501 0.332376
vt 0.839710 0.379594
vt 0.819652 0.405575
vt 0.788351 0.348632
vt 0.774658 0.378549
vt 0.777060 0.426259
vt 0.809680 0.431444
vt 0.878467 0.372427
vt 0.859536 0.402218
vt 0.756814 0.399451
vt 0.777068 0.311124
vt 0.759069 0.341756
vt 0.899054 0.423294
vt 0.867389 0.429271
vt 0.721982 0.316539
vt 0.731366 0.347612
vt 0.742948 0.373755
vt 0.838921 0.431164
vt 0.807906 0.456677
vt 0.808106 0.446278
vt 0.869198 0.445891
vt 0.870927 0.456690
vt 0.761212 0.453108
vt 0.768487 0.440461
vt 0.901858 0.438753
vt 0.917119 0.446528
vt 0.735244 0.414233
vt 0.744015 0.408943
vt 0.705362 0.357468
vt 0.715877 0.353737
vt 0.692712 0.311957
vt 0.706733 0.321717
vt 0.838805 0.438694
vt 0.736358 0.377559
vt 0.004883 0.004883
vt 0.667630 0.316198
vt 0.688777 0.324835
vt 0.646626 0.633549
vt 0.625823 0.626914
vt 0.627259 0.649062
vt 0.363352 0.657396
vt 0.361001 0.635243
vt 0.386781 0.311431
vt 0.382037 0.289564
vt 0.798272 0.283958
vt 0.796392 0.305762
vt 0.289253 0.161631
vt 0.311191 0.163757
vt 0.311652 0.582578
vt 0.289521 0.587020
vt 0.298332 0.142241
vt 0.005045 0.026772
vt 0.010307 0.004883
vt 0.892827 0.965382
vt 0.894201 0.987434
vt 0.631525 0.995117
vt 0.629321 0.972891
vt 0.913520 0.972038
vt 0.935195 0.656164
vt 0.956226 0.664814
vt 0.936032 0.005413
vt 0.957540 0.011170
vt 0.817480 0.293231
vt 0.315153 0.316138
vt 0.004883 0.719663
vt 0.244128 0.004883
vt 0.584304 0.655255
vt 0.135789 0.665146
vt 0.285463 0.806863
vt 0.135720 0.948628
vt 0.430354 0.806870
vt 0.580056 0.665167
vt 0.580043 0.948587
vt 0.388441 0.832579
vt 0.327376 0.781154
vt 0.388444 0.781157
vt 0.327374 0.832576
s 1
usemtl SocleTexture
f 4/1/1 2/2/1 3/3/1 5/4/1
f 6/5/2 2/2/2 4/1/2 9/6/2
f 7/7/3 4/1/4 5/4/4 10/8/5
f 3/3/6 2/2/6 8/9/6 11/10/6
f 9/6/7 4/1/7 7/7/8 12/11/9
f 8/12/10 2/2/10 6/5/10 13/13/10
f 11/10/11 8/9/11 14/14/12 15/15/13
f 14/16/14 8/12/15 13/13/15 16/17/16
f 13/13/17 50/18/17 16/17/17
f 5/4/18 49/19/18 10/8/18
f 17/20/19 18/21/19 20/22/20 19/23/20
f 18/21/19 17/20/19 22/24/21 21/25/21
f 19/23/20 20/22/20 27/26/22 28/27/22
f 21/25/23 22/24/23 23/28/24 24/29/24
f 24/29/24 23/28/24 25/30/25 26/31/25
f 26/31/25 25/30/25 28/32/26 27/33/26
f 18/21/27 21/25/27 7/7/3 10/8/5
f 21/25/28 24/29/28 12/11/9 7/7/8
f 27/26/29 20/22/29 15/15/13 14/14/12
f 26/31/30 27/33/30 14/16/14 16/17/16
f 10/8/18 52/34/18 18/21/18
f 16/17/17 51/35/17 26/31/17
f 38/36/31 37/36/31 1/36/31
f 29/37/32 30/38/32 32/39/33 31/40/34
f 31/40/35 33/41/35 36/42/35 35/43/35
f 33/44/36 32/45/33 47/46/37 46/47/38
f 34/48/39 36/49/40 41/50/41 40/51/42
f 35/52/43 34/48/39 37/53/44 38/54/44
f 39/55/45 41/56/45 46/57/45 48/58/45
f 40/59/42 39/55/46 42/60/47 43/61/47
f 44/62/48 45/63/48 48/64/49 47/46/37
f 35/43/50 38/65/50 29/37/50 31/40/50
f 34/48/51 40/51/51 43/66/51 37/53/51
f 32/45/52 30/67/52 44/62/52 47/46/52
f 48/58/53 45/68/53 42/60/53 39/55/53
f 33/69/54 22/70/54 36/71/54
f 28/72/54 46/73/54 41/74/54
f 31/40/34 32/39/33 33/41/36
f 34/48/39 35/52/43 36/49/40
f 39/55/46 40/59/42 41/56/41
f 46/47/38 47/46/37 48/64/49
f 29/36/31 1/36/31 30/36/31
f 1/36/31 45/36/31 44/36/31
f 42/36/31 1/36/31 43/36/31
f 1/36/31 42/36/31 45/36/31
f 1/36/31 37/36/31 43/36/31
f 38/36/31 1/36/31 29/36/31
f 41/74/54 19/75/54 28/72/54
f 33/69/54 23/76/54 22/70/54
f 46/73/54 25/77/54 23/76/54 33/69/54
f 36/71/54 17/78/54 19/75/54 41/74/54
f 15/15/18 49/19/18 11/10/18
f 3/3/18 49/19/18 5/4/18
f 11/10/18 49/19/18 3/3/18
f 12/11/17 50/18/17 9/6/17
f 6/5/17 50/18/17 13/13/17
f 9/6/17 50/18/17 6/5/17
f 28/72/54 25/77/54 46/73/54
f 36/71/54 22/70/54 17/78/54
f 24/29/17 26/31/17 51/35/17
f 50/18/17 51/35/17 16/17/17
f 24/29/17 51/35/17 12/11/17
f 12/11/17 51/35/17 50/18/17
f 20/22/18 18/21/18 52/34/18
f 49/19/18 52/34/18 10/8/18
f 20/22/18 52/34/18 15/15/18
f 15/15/18 52/34/18 49/19/18
f 1/36/31 44/36/31 30/36/31
o PedestalTrans
v 0.135339 0.000950 0.042595
v -0.000000 0.000950 -0.013465
v -0.135339 0.000950 0.042595
v -0.191399 0.000950 0.177934
v -0.135339 0.000950 0.313273
v -0.000000 0.000950 0.369333
v 0.135339 0.000950 0.313273
v 0.191399 0.000950 0.177934
v -0.000000 0.000950 0.177934
v 0.101505 0.014039 0.076429
v -0.000000 0.014039 0.034385
v -0.101505 0.014039 0.076429
v -0.143549 0.014039 0.177934
v -0.101505 0.014039 0.279439
v 0.101505 0.014039 0.279439
v 0.143549 0.014039 0.177934
v -0.000000 0.027128 0.082235
v 0.067670 0.027128 0.110264
v -0.067670 0.027128 0.110264
v -0.095699 0.027128 0.177934
v -0.067670 0.027128 0.245604
v 0.067670 0.027128 0.245604
v 0.095699 0.027128 0.177934
v -0.000000 0.040217 0.177934
v -0.000000 0.007494 0.369333
v -0.000000 0.020583 0.321483
v -0.000000 0.035832 0.273633
v -0.142664 0.000950 0.330956
v -0.000000 0.000950 0.387016
v 0.142664 0.000950 0.330956
v -0.108829 0.014039 0.297122
v -0.000000 0.014039 0.339166
v 0.108829 0.014039 0.297122
v -0.074994 0.027128 0.263287
v -0.000000 0.027128 0.294350
v 0.074994 0.027128 0.263287
v -0.000000 0.031447 0.282475
v -0.071332 0.027128 0.254445
v 0.071332 0.027128 0.254444
v 0.134603 0.014039 0.043331
v 0.135339 0.013381 0.042595
v 0.191399 0.013381 0.177934
v 0.190358 0.014039 0.177934
v -0.000000 0.014039 -0.012424
v -0.000000 0.013381 -0.013465
v -0.134603 0.014039 0.043331
v -0.135339 0.013381 0.042595
v -0.190358 0.014039 0.177934
v -0.191399 0.013381 0.177934
v -0.135339 0.013381 0.313273
v -0.134603 0.014039 0.312537
v -0.000000 0.014039 0.368292
v -0.000000 0.013381 0.369333
v 0.135339 0.013381 0.313273
v 0.134603 0.014039 0.312537
v -0.134451 0.007494 0.313641
v -0.135339 0.007959 0.313273
v -0.135339 0.006837 0.313273
v -0.141401 0.007494 0.330420
v -0.142664 0.006837 0.330956
v 0.134451 0.007494 0.313641
v 0.135339 0.006837 0.313273
v 0.135339 0.007959 0.313273
v 0.141401 0.007494 0.330420
v 0.142664 0.006837 0.330956
v 0.101505 0.026470 0.076429
v 0.100769 0.027128 0.077165
v 0.143549 0.026470 0.177934
v 0.142508 0.027128 0.177934
v -0.000000 0.026470 0.034385
v -0.000000 0.027128 0.035426
v -0.101505 0.026470 0.076429
v -0.100769 0.027128 0.077165
v -0.143549 0.026470 0.177934
v -0.142508 0.027128 0.177934
v -0.101505 0.026470 0.279439
v -0.100769 0.027128 0.278703
v -0.101505 0.019926 0.279439
v -0.100616 0.020583 0.279807
v -0.107564 0.020583 0.296579
v -0.108829 0.019926 0.297122
v -0.000000 0.027128 0.320442
v -0.000000 0.026470 0.321483
v 0.101505 0.026470 0.279439
v 0.100769 0.027128 0.278703
v 0.100616 0.020583 0.279807
v 0.101505 0.019926 0.279439
v 0.107564 0.020583 0.296579
v 0.108829 0.019926 0.297122
v -0.071332 0.030348 0.254445
v -0.070441 0.031009 0.254795
v -0.071332 0.031468 0.254445
v -0.073738 0.031008 0.262766
v -0.074994 0.030347 0.263287
v -0.067670 0.039559 0.245604
v -0.066934 0.040217 0.244868
v -0.000000 0.040217 0.272592
v -0.000000 0.039559 0.273633
v -0.095699 0.039559 0.177934
v -0.094659 0.040217 0.177934
v -0.067670 0.039559 0.110264
v -0.066934 0.040217 0.111000
v -0.000000 0.039559 0.082235
v -0.000000 0.040217 0.083275
v 0.067670 0.039559 0.110264
v 0.066934 0.040217 0.111000
v 0.095699 0.039559 0.177934
v 0.094658 0.040217 0.177934
v 0.067670 0.039559 0.245604
v 0.066934 0.040217 0.244868
v 0.071332 0.030789 0.254444
v 0.071332 0.031912 0.254444
v 0.070436 0.031447 0.254796
v 0.073738 0.031447 0.262766
v 0.074994 0.030789 0.263287
v -0.066781 0.035832 0.245972
v -0.067670 0.036297 0.245604
v -0.067670 0.035174 0.245604
v -0.070069 0.035832 0.253908
v -0.071332 0.035174 0.254445
v 0.066781 0.035832 0.245972
v 0.067670 0.035174 0.245604
v 0.067670 0.036297 0.245604
v 0.070069 0.035832 0.253908
v 0.071332 0.035174 0.254445
v -0.000000 0.006837 0.387016
v -0.000000 0.007494 0.385983
v -0.000000 0.019926 0.339166
v -0.000000 0.020583 0.338135
v -0.000000 0.031447 0.293309
v -0.000000 0.030790 0.294350
v -0.000000 0.035174 0.282475
v -0.000000 0.035832 0.281442
v -0.000000 0.027128 0.058830
v -0.084219 0.027128 0.093715
v -0.119104 0.027128 0.177934
v -0.089608 0.027128 0.263836
v -0.089172 0.027128 0.268100
v -0.087881 0.027128 0.270995
v -0.000000 0.027128 0.307396
v 0.087881 0.027128 0.270995
v 0.088317 0.027128 0.267813
v 0.089231 0.027128 0.265906
v 0.119104 0.027128 0.177934
v 0.084219 0.027128 0.093715
vn -0.0000 -1.0000 -0.0000
vn 0.2160 0.8254 -0.5215
vn 0.5215 0.8254 -0.2160
vn 0.5215 0.8254 0.2160
vn -0.2160 0.8254 -0.5215
vn -0.5215 0.8254 -0.2160
vn -0.5215 0.8254 0.2160
vn -0.2160 0.8254 0.5215
vn 0.2160 0.8254 0.5215
vn -0.2064 0.8254 0.5254
vn -0.0000 0.8436 0.5370
vn 0.2064 0.8254 0.5254
vn -0.2034 0.8254 0.5266
vn -0.0000 0.8431 0.5378
vn 0.2034 0.8254 0.5266
vn -0.5241 0.8236 -0.2169
vn -0.2202 0.8254 0.5199
vn 0.2160 0.8255 0.5214
vn 0.2065 0.8254 0.5254
vn 0.3827 -0.0000 -0.9239
vn -0.3827 -0.0000 -0.9239
vn -0.9239 -0.0000 -0.3827
vn -0.9239 -0.0000 0.3827
vn 0.3827 -0.0000 0.9239
vn 0.9239 -0.0000 0.3827
vn 0.9239 -0.0000 -0.3827
vn -0.0000 1.0000 -0.0000
vn -0.3657 -0.0000 0.9307
vn 0.3657 -0.0000 0.9307
vn -0.3604 -0.0000 0.9328
vn 0.3604 -0.0000 0.9328
vn -0.3827 -0.0000 0.9239
vn 0.3657 -0.0001 0.9307
vn -0.0028 1.0000 -0.0005
vn -0.0057 1.0000 -0.0010
vn 0.3657 -0.0002 0.9307
vt 0.004883 0.004883
vt 0.871338 0.831819
vt 0.871338 0.830976
vt 0.995117 0.830976
vt 0.995117 0.831819
vt 0.747559 0.831819
vt 0.747559 0.830976
vt 0.623779 0.831819
vt 0.623779 0.830976
vt 0.004883 0.831819
vt 0.004883 0.830976
vt 0.128662 0.830976
vt 0.128662 0.831819
vt 0.252441 0.830976
vt 0.252441 0.831819
vt 0.376221 0.830976
vt 0.376221 0.831819
vt 0.500000 0.830976
vt 0.500000 0.831819
vt 0.069493 0.022682
vt 0.069153 0.004883
vt 0.085516 0.004883
vt 0.085019 0.022682
vt 0.801952 0.267757
vt 0.784154 0.268926
vt 0.784154 0.136904
vt 0.801952 0.136904
vt 0.064093 0.004883
vt 0.063753 0.022682
vt 0.048226 0.022682
vt 0.047729 0.004883
vt 0.784154 0.004883
vt 0.801952 0.006052
vt 0.716001 0.852478
vt 0.716001 0.853456
vt 0.614413 0.853456
vt 0.614413 0.852478
vt 0.817590 0.852478
vt 0.817590 0.853456
vt 0.512825 0.853456
vt 0.512825 0.852478
vt 0.004883 0.853456
vt 0.004883 0.852478
vt 0.106471 0.852478
vt 0.106471 0.853456
vt 0.208060 0.852478
vt 0.208060 0.853456
vt 0.309648 0.852478
vt 0.309648 0.853456
vt 0.411236 0.852478
vt 0.411236 0.853456
vt 0.026647 0.022682
vt 0.026306 0.004883
vt 0.042670 0.004883
vt 0.042168 0.022682
vt 0.895679 0.205133
vt 0.877880 0.206304
vt 0.877880 0.105594
vt 0.895679 0.105594
vt 0.021247 0.004883
vt 0.020906 0.022682
vt 0.005385 0.022682
vt 0.877880 0.004883
vt 0.895679 0.006054
vt 0.597024 0.022797
vt 0.596700 0.004923
vt 0.604882 0.004883
vt 0.604400 0.022789
vt 0.860974 0.142520
vt 0.843067 0.143683
vt 0.855061 0.074283
vt 0.872845 0.074283
vt 0.629959 0.325650
vt 0.629959 0.326842
vt 0.557281 0.326842
vt 0.557281 0.325650
vt 0.702637 0.325650
vt 0.702637 0.326842
vt 0.775316 0.325650
vt 0.775316 0.326842
vt 0.484603 0.326842
vt 0.484603 0.325650
vt 0.411925 0.326842
vt 0.411925 0.325650
vt 0.993350 0.325650
vt 0.993350 0.326842
vt 0.920672 0.326842
vt 0.920672 0.325650
vt 0.847994 0.326842
vt 0.847994 0.325650
vt 0.618272 0.004883
vt 0.617947 0.022682
vt 0.610571 0.022682
vt 0.610090 0.004883
vt 0.855046 0.004883
vt 0.872845 0.006046
vt 0.637209 0.022682
vt 0.636869 0.004883
vt 0.645051 0.004883
vt 0.644554 0.022682
vt 0.917102 0.135735
vt 0.899304 0.136904
vt 0.899304 0.070894
vt 0.917102 0.070894
vt 0.631661 0.004883
vt 0.631321 0.022682
vt 0.623976 0.022682
vt 0.623479 0.004883
vt 0.899303 0.004883
vt 0.917102 0.006052
vt 0.871338 0.815826
vt 0.995117 0.815826
vt 0.004883 0.815826
vt 0.128662 0.815826
vt 0.252441 0.815826
vt 0.376221 0.815826
vt 0.376221 0.822999
vt 0.500000 0.823801
vt 0.623046 0.823801
vt 0.623779 0.824368
vt 0.747559 0.815826
vt 0.387932 0.275232
vt 0.293512 0.381009
vt 0.277698 0.348220
vt 0.353564 0.263228
vt 0.151951 0.389041
vt 0.163954 0.354673
vt 0.046173 0.294621
vt 0.078962 0.278807
vt 0.029455 0.154343
vt 0.072509 0.165064
vt 0.278608 0.030605
vt 0.379900 0.133670
vt 0.347111 0.149484
vt 0.262119 0.073618
vt 0.541061 0.252445
vt 0.453535 0.216190
vt 0.541061 0.128664
vt 0.628588 0.216190
vt 0.664842 0.128664
vt 0.628588 0.041137
vt 0.541061 0.004883
vt 0.453535 0.041137
vt 0.417280 0.128664
vt 0.083687 0.750021
vt 0.031662 0.609713
vt 0.079705 0.611522
vt 0.118938 0.717328
vt 0.094087 0.473713
vt 0.126781 0.508964
vt 0.234395 0.421688
vt 0.232587 0.469731
vt 0.370396 0.484113
vt 0.335145 0.516807
vt 0.359995 0.760422
vt 0.219687 0.812447
vt 0.221496 0.764403
vt 0.327302 0.725171
vt 0.716001 0.835200
vt 0.817590 0.835200
vt 0.004883 0.835200
vt 0.106471 0.835200
vt 0.208060 0.835200
vt 0.309648 0.835200
vt 0.309648 0.843379
vt 0.411236 0.844295
vt 0.512022 0.844295
vt 0.512825 0.843379
vt 0.614413 0.835200
vt 0.629959 0.318450
vt 0.557281 0.305227
vt 0.629959 0.305227
vt 0.484603 0.305227
vt 0.411925 0.305227
vt 0.993350 0.305227
vt 0.920672 0.305227
vt 0.847994 0.305227
vt 0.702637 0.319533
vt 0.774453 0.319547
vt 0.441896 0.269962
vt 0.574699 0.269962
vt 0.574699 0.277420
vt 0.441896 0.277420
vt 0.707501 0.269961
vt 0.707501 0.277420
vt 0.311832 0.004883
vt 0.387294 0.004884
vt 0.387294 0.010451
vt 0.311832 0.010451
vt 0.462756 0.004884
vt 0.462756 0.010452
vt 0.926015 0.023353
vt 0.926015 0.098461
vt 0.920727 0.098461
vt 0.920727 0.023353
vt 0.926015 0.184334
vt 0.920727 0.184334
vt 0.934558 0.088601
vt 0.934040 0.161537
vt 0.928871 0.162135
vt 0.929389 0.088270
vt 0.684411 0.135735
vt 0.735948 0.260157
vt 0.720422 0.266588
vt 0.669004 0.135735
vt 0.425314 0.277420
vt 0.425314 0.269962
vt 0.724084 0.269961
vt 0.724084 0.277420
vt 0.720422 0.004883
vt 0.735948 0.011314
vt 0.721905 0.104423
vt 0.760472 0.197533
vt 0.744950 0.203962
vt 0.706494 0.104423
vt 0.299453 0.010451
vt 0.299453 0.004883
vt 0.475136 0.004884
vt 0.475136 0.010452
vt 0.744950 0.004883
vt 0.760472 0.011312
vt 0.812802 0.069724
vt 0.838401 0.131524
vt 0.831056 0.134566
vt 0.805577 0.069724
vt 0.920727 0.014336
vt 0.926015 0.014336
vt 0.831056 0.004883
vt 0.838401 0.007925
vt 0.261276 0.058758
vt 0.276039 0.028553
vt 0.345169 0.733372
vt 0.754011 0.073120
vt 0.743985 0.073120
vt 0.772249 0.004883
vt 0.779625 0.007938
vt 0.772249 0.141357
vt 0.779626 0.138306
vt 0.920727 0.197002
vt 0.926015 0.197002
vt 0.376221 0.824368
vt 0.376954 0.823801
vt 0.920727 0.004883
vt 0.926015 0.004883
vt 0.933945 0.014425
vt 0.934577 0.015389
vt 0.928760 0.014083
vt 0.933378 0.162420
vt 0.928870 0.171376
vt 0.629959 0.320299
vt 0.630822 0.319547
vt 0.623779 0.822999
vt 0.310450 0.844295
vt 0.920727 0.014824
vt 0.929471 0.197002
vt 0.930228 0.195488
vt 0.775316 0.318450
vt 0.775316 0.320299
vt 0.027185 0.148075
vt 0.061404 0.155151
vt 0.027036 0.143148
vt 0.050299 0.145239
vt 0.134377 0.051047
vt 0.125562 0.032770
vt 0.273279 0.024389
vt 0.260432 0.043895
vt 0.923433 0.205545
vt 0.926015 0.205545
vt 0.928906 0.004883
vt 0.775316 0.305227
vt 0.512825 0.835200
vt 0.392527 0.623296
vt 0.422421 0.624421
vt 0.353577 0.509972
vt 0.623779 0.815826
vt 0.309326 0.413799
vt 0.139947 0.423409
vt 0.013383 0.310435
vt 0.004883 0.141056
vt 0.116747 0.014493
vt 0.286126 0.004883
vt 0.412690 0.117856
vt 0.422299 0.287235
s 1
usemtl PedestalTexture
f 54/79/55 53/79/55 61/79/55
f 55/79/55 54/79/55 61/79/55
f 56/79/55 55/79/55 61/79/55
f 57/79/55 56/79/55 61/79/55
f 58/79/55 57/79/55 61/79/55
f 59/79/55 58/79/55 61/79/55
f 60/79/55 59/79/55 61/79/55
f 53/79/55 60/79/55 61/79/55
f 57/79/55 58/79/55 81/79/55 80/79/55
f 58/79/55 59/79/55 82/79/55 81/79/55
f 92/80/56 93/81/56 97/82/56 96/83/56
f 93/81/57 92/80/57 95/84/57 94/85/57
f 94/85/58 95/84/58 107/86/58 106/87/58
f 96/88/59 97/89/59 99/90/59 98/91/59
f 98/91/60 99/90/60 101/92/60 100/93/60
f 100/93/61 101/92/61 102/94/61 103/95/61
f 103/95/62 102/94/62 105/96/62 104/97/62
f 104/97/63 105/96/63 106/87/63 107/86/63
f 108/98/60 110/99/60 112/100/60 111/101/60
f 111/102/64 112/103/64 178/104/65 179/105/65
f 114/106/57 113/107/57 116/108/57 117/109/57
f 117/110/66 116/111/66 179/105/65 178/104/65
f 118/112/57 119/113/57 121/114/57 120/115/57
f 119/113/56 118/112/56 122/116/56 123/117/56
f 120/115/58 121/114/58 137/118/58 136/119/58
f 123/120/59 122/121/59 124/122/59 125/123/59
f 125/123/60 124/122/60 126/124/60 127/125/60
f 127/125/61 126/124/61 128/126/61 129/127/61
f 129/127/62 128/126/62 135/128/62 134/129/62
f 131/130/60 130/131/60 133/132/60 132/133/60
f 132/134/67 133/135/67 180/136/68 181/137/68
f 134/129/63 135/128/63 136/119/63 137/118/63
f 139/138/57 138/139/57 140/140/57 141/79/57
f 141/141/69 140/142/69 181/137/68 180/136/68
f 143/143/70 142/144/70 146/145/70 145/146/70
f 145/147/71 146/148/71 183/149/71 182/150/71
f 147/151/61 148/152/61 152/153/61 151/154/61
f 148/152/62 147/151/62 150/155/62 149/156/62
f 149/156/63 150/155/63 161/157/63 162/158/63
f 151/154/60 152/153/60 154/159/60 153/160/60
f 153/160/59 154/159/59 156/161/59 155/162/59
f 155/163/56 156/164/56 158/165/56 157/166/56
f 157/166/57 158/165/57 160/167/57 159/168/57
f 159/168/58 160/167/58 162/158/58 161/157/58
f 163/169/57 165/170/57 166/171/57 167/172/57
f 167/173/72 166/174/72 182/150/72 183/149/72
f 168/175/60 170/176/60 172/177/60 171/178/60
f 171/179/64 172/180/64 184/181/65 185/182/65
f 174/183/57 173/184/57 176/185/57 177/186/57
f 177/187/73 176/188/73 185/182/65 184/181/65
f 53/189/74 54/190/74 97/82/74 93/81/74
f 54/191/75 55/192/75 99/90/75 97/89/75
f 55/192/76 56/193/76 101/92/76 99/90/76
f 56/193/77 57/194/77 110/195/77 101/92/77
f 77/196/78 113/197/78 106/87/78 105/96/78
f 115/198/79 94/85/79 106/87/79
f 60/199/80 53/189/80 93/81/80 94/85/80
f 197/200/81 186/201/81 69/202/81 70/203/81
f 186/201/81 187/204/81 71/205/81 69/202/81
f 187/204/81 188/206/81 72/207/81 71/205/81
f 188/206/81 189/208/81 73/209/81 72/207/81
f 195/210/81 196/211/81 75/212/81 74/213/81
f 196/211/81 197/200/81 70/203/81 75/212/81
f 152/214/81 148/215/81 76/216/81
f 154/217/81 152/214/81 76/216/81
f 156/218/81 154/217/81 76/216/81
f 158/219/81 156/218/81 76/216/81
f 160/220/81 158/219/81 76/216/81
f 162/221/81 160/220/81 76/216/81
f 149/222/81 162/221/81 76/216/81
f 148/215/81 149/222/81 76/216/81
f 92/223/81 96/224/81 63/225/81 62/226/81
f 96/224/81 98/227/81 64/228/81 63/225/81
f 98/227/81 100/229/81 65/230/81 64/228/81
f 100/229/81 103/231/81 66/232/81 65/230/81
f 107/233/81 95/234/81 68/235/81 67/236/81
f 95/234/81 92/223/81 62/226/81 68/235/81
f 62/237/74 63/238/74 122/116/74 118/112/74
f 63/239/75 64/240/75 124/122/75 122/121/75
f 64/240/76 65/241/76 126/124/76 124/122/76
f 65/241/77 66/242/77 130/243/77 126/124/77
f 78/244/78 138/245/78 136/119/78 135/128/78
f 120/115/79 136/119/79 139/246/79
f 68/247/80 62/237/80 118/112/80 120/115/80
f 170/248/77 151/154/77 72/249/77 73/250/77
f 72/249/76 151/154/76 153/160/76 71/251/76
f 71/251/75 153/160/75 155/162/75 69/252/75
f 69/253/74 155/163/74 157/166/74 70/254/74
f 70/254/80 157/166/80 159/168/80 75/255/80
f 79/256/78 173/257/78 161/157/78 150/155/78
f 80/258/82 81/259/82 178/260/82 112/261/82
f 81/259/83 82/262/83 117/263/83 178/260/83
f 83/264/84 84/265/84 180/266/84 133/267/84
f 84/265/85 85/268/85 141/269/85 180/266/85
f 86/270/86 87/271/86 183/272/86 146/273/86
f 87/271/78 88/274/78 167/275/78 183/272/78
f 89/276/87 165/277/87 177/278/87 184/279/87
f 77/280/81 108/281/81 111/282/81 179/283/81
f 112/261/76 110/284/76 57/285/76 80/258/76
f 59/286/80 114/287/80 117/263/80 82/262/80
f 116/288/81 113/289/81 77/280/81 179/283/81
f 78/290/81 131/291/81 132/292/81 181/293/81
f 133/267/76 130/294/76 66/295/76 83/264/76
f 67/296/80 139/297/80 141/269/80 85/268/80
f 140/298/81 138/299/81 78/290/81 181/293/81
f 79/300/81 168/301/81 171/302/81 185/303/81
f 146/273/76 142/304/76 90/305/76 86/270/76
f 176/306/81 173/307/81 79/300/81 185/303/81
f 91/308/81 194/309/81 195/210/81 74/213/81
f 85/310/81 107/233/81 67/236/81
f 89/311/88 182/312/88 166/313/81 165/314/81
f 145/315/89 182/312/88 89/311/88 143/316/89
f 163/317/80 167/275/80 88/274/80 91/318/80
f 109/319/86 108/320/86 102/94/86
f 142/304/76 170/321/76 73/322/76 90/305/76
f 144/323/82 143/324/82 172/325/82
f 164/326/80 174/327/80 177/278/80
f 169/328/86 168/329/86 147/151/86
f 108/320/86 109/319/86 110/195/86
f 113/197/78 114/330/78 115/198/78
f 130/243/86 131/331/86 128/126/86
f 142/304/82 143/332/82 144/304/82
f 163/317/87 164/333/90 165/334/87
f 168/329/86 169/328/86 170/248/86
f 173/257/78 174/335/78 175/336/78
f 175/336/79 159/168/79 161/157/79
f 147/151/86 168/329/86 79/256/86 150/155/86
f 161/157/78 173/257/78 175/336/78
f 172/325/82 143/324/82 89/276/82 184/279/82
f 177/278/87 165/277/87 164/326/90
f 189/208/81 190/337/81 90/338/81 73/209/81
f 190/337/81 191/339/81 86/340/81 90/338/81
f 87/341/81 86/340/81 191/339/81 192/342/81
f 87/341/81 192/342/81 193/343/81 88/344/81
f 88/344/81 193/343/81 194/309/81 91/308/81
f 164/333/80 163/317/80 174/345/80
f 174/345/80 163/317/80 91/318/80 74/346/80
f 170/347/76 144/323/76 172/325/76
f 142/304/76 144/304/76 170/321/76
f 128/126/86 131/331/86 78/244/86 135/128/86
f 136/119/78 138/245/78 139/246/78
f 159/168/79 174/335/79 74/348/79 75/255/79
f 175/336/79 174/335/79 159/168/79
f 169/328/77 151/154/77 170/248/77
f 169/328/77 147/151/77 151/154/77
f 126/124/77 130/243/77 128/126/77
f 67/349/79 68/247/79 120/115/79 139/246/79
f 84/350/81 104/351/81 107/233/81 85/310/81
f 84/350/81 83/352/81 103/231/81 104/351/81
f 103/231/81 83/352/81 66/232/81
f 101/92/77 110/195/77 109/319/77
f 101/92/77 109/319/77 102/94/77
f 102/94/86 108/320/86 77/196/86 105/96/86
f 106/87/78 113/197/78 115/198/78
f 59/353/79 60/199/79 94/85/79 114/330/79
f 114/330/79 94/85/79 115/198/79
f 123/354/81 125/355/81 187/204/81 186/201/81
f 125/355/81 127/356/81 188/206/81 187/204/81
f 127/356/81 129/357/81 189/208/81 188/206/81
f 129/357/81 190/337/81 189/208/81
f 129/357/81 191/339/81 190/337/81
f 192/342/81 191/339/81 129/357/81 134/358/81
f 193/343/81 192/342/81 134/358/81 137/359/81
f 194/309/81 193/343/81 137/359/81
f 195/210/81 194/309/81 137/359/81
f 137/359/81 121/360/81 196/211/81 195/210/81
f 121/360/81 119/361/81 197/200/81 196/211/81
f 119/361/81 123/354/81 186/201/81 197/200/81
