# Blender 5.1.2
# www.blender.org
mtllib temple.mtl
o PillierTrans8
v -0.216302 0.000000 0.802881
v -0.287013 0.000000 0.770104
v -0.357723 0.000000 0.802881
v -0.187013 0.000000 0.882010
v -0.216302 1.500000 0.802881
v -0.287013 1.500000 0.770104
v -0.357723 1.500000 0.802881
v -0.187013 1.500000 0.882010
v -0.198033 1.500000 0.838389
v -0.198033 0.000000 0.838389
v -0.248033 0.000000 0.776701
v -0.248033 1.500000 0.776700
v -0.322368 1.500000 0.780756
v -0.322368 0.000000 0.780757
v 0.357723 0.000000 0.802881
v 0.287013 0.000000 0.770104
v 0.216302 0.000000 0.802881
v 0.187013 0.000000 0.882010
v 0.357723 1.500000 0.802881
v 0.287013 1.500000 0.770104
v 0.216302 1.500000 0.802881
v 0.187013 1.500000 0.882010
v 0.322368 1.500000 0.780756
v 0.322368 0.000000 0.780757
v 0.248033 0.000000 0.776701
v 0.248033 1.500000 0.776700
v 0.198033 0.000000 0.838389
v 0.198033 1.500000 0.838389
v 0.692910 0.000000 0.315882
v 0.622199 0.000000 0.348659
v 0.592910 0.000000 0.427788
v 0.622199 0.000000 0.506917
v 0.692910 1.500000 0.315882
v 0.622199 1.500000 0.348659
v 0.592910 1.500000 0.427788
v 0.622199 1.500000 0.506917
v 0.653930 0.000000 0.328215
v 0.653930 1.500000 0.328215
v 0.598804 0.000000 0.384168
v 0.598804 1.500000 0.384167
v 0.602429 0.000000 0.467353
v 0.602429 1.500000 0.467353
v 0.622199 -0.000000 -0.293708
v 0.592910 0.000000 -0.214579
v 0.622199 0.000000 -0.135449
v 0.692910 0.000000 -0.102673
v 0.622199 1.500000 -0.293708
v 0.592910 1.500000 -0.214579
v 0.622199 1.500000 -0.135449
v 0.692910 1.500000 -0.102673
v 0.602429 0.000000 -0.254143
v 0.602429 1.500000 -0.254143
v 0.598804 0.000000 -0.170958
v 0.598804 1.500000 -0.170958
v 0.653930 0.000000 -0.115005
v 0.653930 1.500000 -0.115005
v 0.187013 -0.000000 -0.668800
v 0.216302 -0.000000 -0.589671
v 0.287013 -0.000000 -0.556895
v 0.357723 -0.000000 -0.589671
v 0.187013 1.500000 -0.668800
v 0.216302 1.500000 -0.589671
v 0.287013 1.500000 -0.556895
v 0.357723 1.500000 -0.589671
v 0.198033 -0.000000 -0.625180
v 0.198033 1.500000 -0.625180
v 0.248033 -0.000000 -0.563491
v 0.248033 1.500000 -0.563491
v 0.322368 -0.000000 -0.567547
v 0.322368 1.500000 -0.567547
v -0.357723 -0.000000 -0.589671
v -0.287013 -0.000000 -0.556895
v -0.216302 -0.000000 -0.589671
v -0.187013 -0.000000 -0.668800
v -0.357723 1.500000 -0.589671
v -0.287013 1.500000 -0.556895
v -0.216302 1.500000 -0.589671
v -0.187013 1.500000 -0.668800
v -0.322368 -0.000000 -0.567547
v -0.322368 1.500000 -0.567547
v -0.248033 -0.000000 -0.563491
v -0.248033 1.500000 -0.563491
v -0.198033 -0.000000 -0.625180
v -0.198033 1.500000 -0.625180
v -0.622199 -0.000000 -0.293708
v -0.692910 0.000000 -0.102673
v -0.622199 0.000000 -0.135449
v -0.592910 0.000000 -0.214579
v -0.622199 1.500000 -0.293708
v -0.692910 1.500000 -0.102673
v -0.622199 1.500000 -0.135449
v -0.592910 1.500000 -0.214579
v -0.653930 0.000000 -0.115005
v -0.653930 1.500000 -0.115005
v -0.598804 0.000000 -0.170958
v -0.598804 1.500000 -0.170958
v -0.602429 0.000000 -0.254143
v -0.602429 1.500000 -0.254143
v -0.622199 0.000000 0.348659
v -0.692910 0.000000 0.315882
v -0.622199 0.000000 0.506917
v -0.592910 0.000000 0.427788
v -0.622199 1.500000 0.348659
v -0.692910 1.500000 0.315882
v -0.622199 1.500000 0.506917
v -0.592910 1.500000 0.427788
v -0.602429 1.500000 0.467353
v -0.602429 0.000000 0.467353
v -0.598804 0.000000 0.384168
v -0.598804 1.500000 0.384167
v -0.653930 0.000000 0.328215
v -0.653930 1.500000 0.328215
v 0.287013 -0.000000 -0.668800
v 0.000000 0.000000 0.106605
v 0.692910 0.000000 -0.214579
v -0.287013 0.000000 0.882010
v -0.692910 0.000000 0.427788
v -0.287013 0.692161 -0.668800
v 0.287013 0.692161 -0.668800
v 0.279941 0.692161 -0.649697
v -0.279942 0.692161 -0.649697
v -0.692910 0.692161 0.427788
v -0.692910 0.692161 -0.214579
v -0.675838 0.692161 -0.206666
v -0.675838 0.692161 0.419875
v 0.279941 0.712372 -0.649697
v -0.279942 0.712372 -0.649697
v -0.675838 0.712372 -0.206666
v -0.675838 0.712372 0.419875
v 0.287013 0.712372 -0.668800
v -0.287013 0.712372 -0.668800
v -0.692910 0.712372 -0.214579
v -0.692910 0.712372 0.427788
v 0.287013 0.314998 -0.668800
v -0.692910 0.314999 0.427788
v -0.287013 1.500000 -0.668800
v -0.692910 1.500000 -0.214579
v -0.692910 0.285002 0.427788
v -0.287013 0.285002 0.882010
v -0.287013 0.314999 0.882010
v 0.692910 0.314998 -0.214579
v 0.692910 0.000000 0.427788
v 0.287013 0.285001 -0.668800
v 0.692910 0.285002 -0.214579
v 0.675838 0.285002 -0.206666
v 0.279941 0.285001 -0.649697
v -0.675838 0.285002 0.419875
v -0.279941 0.285002 0.862907
v 0.279941 0.314998 -0.649697
v 0.675838 0.314998 -0.206666
v -0.279941 0.314999 0.862907
v -0.675838 0.314999 0.419875
v -0.143506 0.256501 0.882010
v -0.143506 0.000000 0.882010
v 0.287013 0.000000 0.882010
v -0.287013 0.692161 0.882010
v 0.692910 0.692161 -0.214579
v -0.143506 0.000000 0.904391
v -0.143506 0.256501 0.904391
v 0.287013 1.500000 -0.668800
v -0.692910 1.500000 0.427788
v 0.000000 1.500000 0.106605
v 0.143506 0.256501 0.882010
v 0.143506 0.256501 0.904391
v 0.143506 0.000000 0.904391
v 0.143506 0.000000 0.882010
v 0.287013 0.285002 0.882010
v -0.287013 1.500000 0.882010
v -0.287013 0.712372 0.882010
v 0.675838 0.692161 -0.206666
v -0.279941 0.692161 0.862907
v 0.675838 0.712372 -0.206666
v -0.279941 0.712372 0.862907
v 0.692910 0.712372 -0.214579
v 0.692910 0.314999 0.427788
v 0.287013 0.314999 0.882010
v 0.692910 0.692161 0.427788
v 0.287013 0.692161 0.882010
v 0.692910 1.500000 -0.214579
v 0.692910 0.285002 0.427788
v 0.675838 0.285002 0.419875
v 0.279942 0.285002 0.862906
v 0.675838 0.314999 0.419875
v 0.279942 0.314999 0.862906
v 0.287013 0.712372 0.882010
v 0.287013 1.500000 0.882010
v 0.692910 1.500000 0.427788
v 0.675838 0.692161 0.419875
v 0.279942 0.692161 0.862906
v 0.675838 0.712372 0.419875
v 0.279942 0.712372 0.862906
v 0.692910 0.712372 0.427788
v -0.692910 0.000000 -0.214579
v -0.287013 -0.000000 -0.668800
v -0.692910 0.314998 -0.214579
v -0.675838 0.314998 -0.206666
v -0.287013 0.314998 -0.668800
v -0.279942 0.314998 -0.649697
v -0.675838 0.285002 -0.206666
v -0.279942 0.285001 -0.649697
v -0.692910 0.285002 -0.214579
v -0.287013 0.285001 -0.668800
v 0.152357 0.591364 -0.685586
v 0.116158 0.638471 -0.685586
v 0.066719 0.661665 -0.685586
v 0.000000 0.669987 -0.685586
v -0.066719 0.661665 -0.685586
v -0.116158 0.638471 -0.685586
v -0.152357 0.591364 -0.685586
v -0.167761 0.544356 -0.685586
v -0.167724 0.336365 -0.685586
v 0.167724 0.336365 -0.685586
v 0.167761 0.544356 -0.685586
v 0.381971 0.337743 -0.586329
v 0.619169 0.337743 -0.320891
v 0.619195 0.545734 -0.320862
v 0.608303 0.592742 -0.333051
v 0.582706 0.639849 -0.361696
v 0.547748 0.663044 -0.400816
v 0.500570 0.671366 -0.453610
v 0.453393 0.663044 -0.506405
v 0.418434 0.639849 -0.545525
v 0.392838 0.592742 -0.574169
v 0.381945 0.545734 -0.586358
v 0.707910 0.336365 -0.081104
v 0.707910 0.336365 0.294282
v 0.707910 0.544356 0.294323
v 0.707910 0.591364 0.277085
v 0.707910 0.638471 0.236576
v 0.707910 0.661665 0.181252
v 0.707910 0.669987 0.106589
v 0.707910 0.661665 0.031927
v 0.707910 0.638471 -0.023398
v 0.707910 0.591364 -0.063907
v 0.707910 0.544356 -0.081145
v 0.625814 0.336365 0.543751
v 0.388617 0.336365 0.809189
v 0.388591 0.544356 0.809218
v 0.399483 0.591364 0.797029
v 0.425080 0.638471 0.768385
v 0.460038 0.661665 0.729265
v 0.507215 0.669987 0.676470
v 0.554393 0.661665 0.623676
v 0.589351 0.638471 0.584555
v 0.614948 0.591364 0.555911
v 0.625840 0.544356 0.543722
v -0.619167 0.336769 0.534050
v -0.619192 0.544759 0.534021
v -0.608300 0.591767 0.546209
v -0.582704 0.638875 0.574854
v -0.547745 0.662069 0.613974
v -0.500568 0.670391 0.666768
v -0.453390 0.662069 0.719563
v -0.418432 0.638875 0.758683
v -0.392835 0.591767 0.787327
v -0.381943 0.544759 0.799516
v -0.381969 0.336769 0.799487
v -0.707910 0.544759 0.294445
v -0.707910 0.336768 0.294404
v -0.707910 0.336768 -0.080981
v -0.707910 0.544759 -0.081023
v -0.707910 0.591767 -0.063785
v -0.707910 0.638875 -0.023276
v -0.707910 0.662069 0.032049
v -0.707910 0.670391 0.106711
v -0.707910 0.662069 0.181374
v -0.707910 0.638875 0.236699
v -0.707910 0.591767 0.277208
v -0.547745 0.662069 -0.400765
v -0.582704 0.638874 -0.361644
v -0.608300 0.591767 -0.333000
v -0.619193 0.544759 -0.320811
v -0.619167 0.336768 -0.320840
v -0.381969 0.336768 -0.586278
v -0.381943 0.544759 -0.586307
v -0.392835 0.591767 -0.574118
v -0.418432 0.638874 -0.545474
v -0.453390 0.662068 -0.506353
v -0.500568 0.670391 -0.453559
v -0.611492 0.332621 0.518899
v -0.611492 0.336769 0.525461
v -0.611518 0.545421 0.518870
v -0.611518 0.544759 0.525432
v -0.600324 0.593732 0.531397
v -0.600626 0.591767 0.537621
v -0.573988 0.642201 0.560868
v -0.575029 0.638875 0.566265
v -0.537963 0.666102 0.601182
v -0.540071 0.662069 0.605386
v -0.492893 0.670391 0.658180
v -0.489961 0.674570 0.654899
v -0.368431 0.332621 0.790899
v -0.374294 0.336769 0.790899
v -0.368404 0.545421 0.790928
v -0.374268 0.544759 0.790928
v -0.379598 0.593732 0.778401
v -0.385161 0.591767 0.778739
v -0.441959 0.666102 0.708616
v -0.445716 0.662069 0.710975
v -0.405934 0.642201 0.748930
v -0.410757 0.638875 0.750095
v -0.692910 0.545410 0.299010
v -0.696988 0.544759 0.294445
v -0.692910 0.593700 0.281302
v -0.696988 0.591767 0.277208
v -0.692910 0.666036 0.182657
v -0.696988 0.662069 0.181374
v -0.692910 0.642146 0.239641
v -0.696988 0.638875 0.236699
v -0.696988 0.670391 0.106711
v -0.692910 0.674501 0.106711
v -0.692910 0.332689 0.298967
v -0.696988 0.336768 0.294404
v -0.692910 0.666036 0.030766
v -0.696988 0.662069 0.032049
v -0.692910 0.642146 -0.026219
v -0.696988 0.638875 -0.023276
v -0.692910 0.593700 -0.067879
v -0.696988 0.591767 -0.063785
v -0.692910 0.545411 -0.085589
v -0.696986 0.544759 -0.081023
v -0.692910 0.332689 -0.085545
v -0.696988 0.336768 -0.080981
v -0.492893 0.670391 -0.444971
v -0.489961 0.674570 -0.441689
v -0.537963 0.666102 -0.387973
v -0.540071 0.662069 -0.392176
v -0.441959 0.666102 -0.495406
v -0.445716 0.662068 -0.497765
v -0.573988 0.642200 -0.347659
v -0.575029 0.638874 -0.353056
v -0.405934 0.642200 -0.535720
v -0.410757 0.638874 -0.536885
v -0.600324 0.593732 -0.318187
v -0.600626 0.591767 -0.324412
v -0.611518 0.545421 -0.305660
v -0.611518 0.544759 -0.312223
v -0.368404 0.545421 -0.577719
v -0.374268 0.544759 -0.577719
v -0.379598 0.593732 -0.565192
v -0.385161 0.591767 -0.565530
v -0.611492 0.332621 -0.305690
v -0.611492 0.336768 -0.312252
v -0.368431 0.332621 -0.577689
v -0.374294 0.336768 -0.577690
v 0.171908 0.545017 -0.668800
v 0.167761 0.544356 -0.673441
v 0.156077 0.593328 -0.668800
v 0.152357 0.591364 -0.673441
v 0.118832 0.641797 -0.668800
v 0.116158 0.638471 -0.673441
v 0.067885 0.665698 -0.668800
v 0.066719 0.661665 -0.673441
v 0.000000 0.669987 -0.673441
v 0.000000 0.674166 -0.668800
v -0.067885 0.665698 -0.668800
v -0.066719 0.661665 -0.673441
v -0.118832 0.641797 -0.668800
v -0.116158 0.638471 -0.673441
v 0.171870 0.332217 -0.668800
v 0.167724 0.336365 -0.673441
v -0.171908 0.545017 -0.668800
v -0.167761 0.544356 -0.673441
v -0.171870 0.332217 -0.668800
v -0.167724 0.336365 -0.673441
v -0.156077 0.593328 -0.668800
v -0.152357 0.591364 -0.673441
v 0.368469 0.333647 -0.577700
v 0.374261 0.337743 -0.577701
v 0.368442 0.546388 -0.577729
v 0.374235 0.545734 -0.577730
v 0.379632 0.594683 -0.565206
v 0.385127 0.592742 -0.565541
v 0.405959 0.643134 -0.535743
v 0.410723 0.639849 -0.536896
v 0.441969 0.667025 -0.495442
v 0.445681 0.663044 -0.497775
v 0.492858 0.671366 -0.444979
v 0.489959 0.675490 -0.441736
v 0.611458 0.333647 -0.305782
v 0.611459 0.337743 -0.312263
v 0.611484 0.546388 -0.305751
v 0.611484 0.545734 -0.312234
v 0.600294 0.594683 -0.318274
v 0.600592 0.592742 -0.324423
v 0.573965 0.643134 -0.347735
v 0.574995 0.639849 -0.353066
v 0.537952 0.667025 -0.388032
v 0.540036 0.663044 -0.392186
v 0.692910 0.332286 -0.085666
v 0.696987 0.336365 -0.081104
v 0.692910 0.545045 -0.085701
v 0.696984 0.544356 -0.081145
v 0.692910 0.593296 -0.068001
v 0.696987 0.591364 -0.063907
v 0.692910 0.332286 0.298845
v 0.696987 0.336365 0.294282
v 0.692910 0.545006 0.298887
v 0.696987 0.544356 0.294323
v 0.692910 0.593296 0.281179
v 0.696987 0.591364 0.277085
v 0.692910 0.641742 0.239519
v 0.696987 0.638471 0.236576
v 0.692910 0.665631 0.030644
v 0.696987 0.661665 0.031927
v 0.692910 0.641742 -0.026340
v 0.696987 0.638471 -0.023398
v 0.696987 0.669987 0.106589
v 0.692910 0.674097 0.106589
v 0.692910 0.665631 0.182535
v 0.696987 0.661665 0.181252
v 0.618235 0.332082 0.528494
v 0.618236 0.336365 0.535270
v 0.374983 0.332082 0.800707
v 0.381038 0.336365 0.800708
v 0.617864 0.545008 0.528329
v 0.618135 0.544356 0.535099
v 0.374833 0.545008 0.800281
v 0.380882 0.544356 0.800592
v 0.606750 0.593320 0.540880
v 0.607267 0.591364 0.547315
v 0.386049 0.593319 0.787848
v 0.391800 0.591364 0.788431
v 0.412231 0.641619 0.758020
v 0.417282 0.638471 0.759659
v 0.580090 0.641619 0.570176
v 0.581555 0.638471 0.575830
v 0.543647 0.665081 0.610043
v 0.546415 0.661665 0.614748
v 0.447857 0.665078 0.717238
v 0.452058 0.661665 0.720334
v 0.499130 0.669987 0.667422
v 0.495495 0.673213 0.663354
v 0.287013 0.544650 0.882010
v 0.692910 0.544754 0.427788
v 0.692910 0.544653 -0.214579
v 0.287013 0.546388 -0.668800
v -0.287013 0.545017 -0.668800
v -0.692910 0.545113 -0.214579
v -0.692910 0.545184 0.427788
v -0.287013 0.545113 0.882010
v -0.000451 0.618522 0.882010
v 0.287013 0.256501 0.882010
v -0.287013 0.256501 0.882010
v -0.143506 0.285002 0.882010
v 0.143506 0.285002 0.882010
vn 0.6364 -0.0000 -0.7714
vn 0.4205 -0.0000 -0.9073
vn -0.4205 -0.0000 -0.9073
vn -0.5305 -0.0000 -0.8477
vn 0.9378 -0.0000 -0.3471
vn 0.8892 -0.0000 -0.4575
vn 0.9695 -0.0000 -0.2449
vn 0.1669 -0.0000 -0.9860
vn -0.2885 -0.0000 -0.9575
vn 0.2885 -0.0000 -0.9575
vn -0.1669 -0.0000 -0.9860
vn -0.8892 -0.0000 -0.4575
vn -0.9378 -0.0000 -0.3471
vn 0.5305 -0.0000 -0.8477
vn -0.6364 -0.0000 -0.7714
vn -0.9695 -0.0000 -0.2449
vn -0.3016 -0.0000 -0.9534
vn -0.4206 -0.0000 -0.9073
vn -0.8351 -0.0000 -0.5502
vn -0.9723 -0.0000 0.2339
vn -0.9378 -0.0000 0.3471
vn -0.5416 -0.0000 -0.8406
vn -0.9910 -0.0000 -0.1339
vn -0.8945 -0.0000 0.4470
vn -0.8945 -0.0000 -0.4470
vn -0.9910 -0.0000 0.1339
vn -0.5416 -0.0000 0.8406
vn -0.4206 -0.0000 0.9073
vn -0.9723 -0.0000 -0.2339
vn -0.8351 -0.0000 0.5502
vn -0.3016 -0.0000 0.9534
vn -0.9695 -0.0000 0.2449
vn -0.6364 -0.0000 0.7714
vn -0.4205 -0.0000 0.9073
vn 0.2885 -0.0000 0.9575
vn 0.4205 -0.0000 0.9073
vn -0.8892 -0.0000 0.4575
vn -0.1669 -0.0000 0.9860
vn 0.5305 -0.0000 0.8477
vn -0.5305 -0.0000 0.8477
vn 0.1669 -0.0000 0.9860
vn 0.8892 -0.0000 0.4575
vn 0.9378 -0.0000 0.3471
vn -0.2885 -0.0000 0.9575
vn 0.6364 -0.0000 0.7714
vn 0.9695 -0.0000 0.2449
vn 0.3016 -0.0000 0.9534
vn 0.4206 -0.0000 0.9073
vn 0.8351 -0.0000 0.5502
vn 0.9723 -0.0000 -0.2339
vn 0.5416 -0.0000 0.8406
vn 0.9910 -0.0000 0.1339
vn 0.8945 -0.0000 -0.4470
vn 0.5416 -0.0000 -0.8406
vn 0.4206 -0.0000 -0.9073
vn 0.9723 -0.0000 0.2339
vn 0.9910 -0.0000 -0.1339
vn 0.8945 -0.0000 0.4470
vn 0.8351 -0.0000 -0.5502
vn 0.3016 -0.0000 -0.9534
vn -0.0000 1.0000 -0.0000
vn -0.0000 -1.0000 -0.0000
vn -0.0000 -0.0000 1.0000
vn 1.0000 -0.0000 -0.0000
vn 0.7457 -0.0000 0.6663
vn 0.7457 -0.0000 -0.6663
vn -0.7457 -0.0000 0.6663
vn -0.0000 -0.0000 -1.0000
vn -1.0000 -0.0000 -0.0000
vn -0.7457 -0.0000 -0.6663
vn 1.0000 0.0001 -0.0000
vn 0.9991 -0.0424 -0.0043
vn 0.5131 0.7255 -0.4585
vn 0.9393 -0.3377 -0.0610
vn 0.8229 -0.5408 -0.1745
vn 0.6425 -0.6878 -0.3378
vn 0.5152 -0.7230 -0.4604
vn 0.3887 -0.7073 -0.5904
vn -0.0000 0.0001 -1.0000
vn 0.0054 -0.0475 -0.9989
vn 0.0753 -0.3722 -0.9251
vn 0.2091 -0.5793 -0.7878
vn 0.2092 -0.5793 -0.7878
vn 0.7442 -0.0635 0.6650
vn 0.7457 0.0002 0.6663
vn 0.6455 -0.5006 0.5768
vn 0.4580 -0.7891 0.4093
vn 0.1858 -0.9685 0.1660
vn -0.1858 -0.9685 -0.1660
vn -0.4580 -0.7891 -0.4093
vn -0.6455 -0.5005 -0.5769
vn -0.6455 -0.5006 -0.5768
vn -0.7441 -0.0635 -0.6650
vn -0.7442 -0.0635 -0.6650
vn -0.7457 0.0002 -0.6663
vn 0.7481 -0.0447 -0.6621
vn 0.7410 -0.3512 -0.5724
vn 0.7457 0.0001 -0.6663
vn 0.7317 -0.5496 -0.4031
vn 0.7139 -0.6805 -0.1653
vn 0.7098 -0.7044 -0.0000
vn 0.7139 -0.6805 0.1653
vn 0.7072 0.7070 -0.0000
vn 0.7317 -0.5496 0.4031
vn 0.7411 -0.3512 0.5723
vn 0.7483 -0.0447 0.6619
vn 0.7459 0.0001 0.6661
vn -0.0000 0.0002 -1.0000
vn -0.0000 -0.0673 -0.9977
vn -0.0000 0.0002 1.0000
vn -0.0000 -0.0673 0.9977
vn -0.0000 -0.5229 0.8524
vn -0.0000 -0.5230 0.8524
vn -0.0000 -0.8063 0.5915
vn -0.0000 -0.9718 0.2356
vn -0.0000 -0.9718 -0.2356
vn -0.0000 -0.8063 -0.5915
vn -0.0000 -0.5230 -0.8523
vn 0.5152 -0.7230 0.4604
vn 0.6425 -0.6878 0.3378
vn 0.3887 -0.7073 0.5904
vn 0.8229 -0.5408 0.1745
vn 0.2092 -0.5793 0.7878
vn 0.9393 -0.3377 0.0610
vn 0.0753 -0.3722 0.9251
vn 0.9991 -0.0424 0.0043
vn 0.0054 -0.0475 0.9989
vn -0.0000 0.0001 1.0000
vn 0.5131 0.7255 0.4585
vn 0.1858 -0.9685 -0.1660
vn 0.4580 -0.7891 -0.4093
vn 0.6455 -0.5006 -0.5768
vn 0.7442 -0.0635 -0.6650
vn 0.7457 0.0002 -0.6663
vn -0.7442 -0.0635 0.6650
vn -0.7457 0.0002 0.6663
vn -0.6455 -0.5005 0.5769
vn -0.4581 -0.7891 0.4093
vn -0.4580 -0.7891 0.4093
vn -0.1858 -0.9685 0.1660
vn -0.7417 -0.0448 0.6692
vn -0.7457 0.0001 0.6663
vn -0.6497 -0.3562 0.6716
vn -0.4670 -0.5690 0.6769
vn -0.1945 -0.7156 0.6709
vn -0.0000 -0.7431 0.6692
vn 0.1945 -0.7156 0.6709
vn 0.4670 -0.5690 0.6769
vn 0.6497 -0.3562 0.6716
vn -0.0000 0.7456 0.6664
vn 0.7417 -0.0448 0.6692
vn 0.7457 0.0001 0.6663
vn -0.8768 -0.4808 -0.0000
vn -0.6345 -0.7729 -0.0000
vn -0.2619 -0.9651 -0.0000
vn 0.2619 -0.9651 -0.0000
vn 0.6345 -0.7729 -0.0000
vn 0.8768 -0.4808 -0.0000
vn 0.9982 -0.0602 -0.0000
vn 1.0000 0.0002 -0.0000
vn -1.0000 0.0002 -0.0000
vn -0.9982 -0.0602 -0.0000
vn -0.0053 -0.0475 0.9989
vn 0.0001 0.0001 1.0000
vn -0.5131 0.7255 0.4585
vn -0.0751 -0.3723 0.9251
vn -0.2089 -0.5795 0.7877
vn -0.2089 -0.5796 0.7877
vn -0.3884 -0.7077 0.5902
vn -0.5148 -0.7234 0.4600
vn -0.6422 -0.6882 0.3375
vn -1.0000 0.0001 -0.0001
vn -0.9991 -0.0425 0.0042
vn -0.9392 -0.3378 0.0609
vn -0.9393 -0.3378 0.0609
vn -0.8228 -0.5409 0.1742
vn -0.8228 -0.5410 0.1743
vn -0.7457 -0.0016 0.6663
vn -0.7455 -0.0002 0.6665
vn -0.7456 -0.0007 0.6664
vn -0.7455 0.0001 0.6665
vn -0.7480 -0.0445 0.6622
vn -0.7481 -0.0451 0.6621
vn -0.7072 0.7070 -0.0000
vn -0.7412 -0.3512 0.5722
vn -0.7317 -0.5496 0.4031
vn -0.7457 0.0001 -0.6663
vn -0.7481 -0.0447 -0.6621
vn -0.7410 -0.3512 -0.5724
vn -0.7317 -0.5496 -0.4031
vn -0.7139 -0.6805 -0.1653
vn -0.7139 -0.6805 0.1653
vn -0.7098 -0.7044 -0.0000
vn -0.9998 -0.0011 0.0203
vn -0.9988 -0.0449 0.0190
vn -0.9988 -0.0450 0.0190
vn -0.5131 0.7255 -0.4585
vn 0.0261 -0.0013 -0.9997
vn 0.0245 -0.0503 -0.9984
vn -0.9341 -0.3563 -0.0204
vn -0.9341 -0.3565 -0.0204
vn -0.0245 -0.3928 -0.9193
vn -0.0245 -0.3926 -0.9194
vn -0.7971 -0.5930 -0.1140
vn -0.7968 -0.5934 -0.1142
vn -0.1364 -0.6342 -0.7610
vn -0.1362 -0.6339 -0.7613
vn -0.2799 -0.8094 -0.5162
vn -0.2800 -0.8095 -0.5160
vn -0.5632 -0.7895 -0.2441
vn -0.5634 -0.7894 -0.2439
vn -0.4005 -0.8435 -0.3579
vn -0.6852 0.2282 -0.6917
vn -0.6823 0.0241 -0.7307
vn -0.6823 -0.0028 -0.7310
vn -0.6827 -0.0031 -0.7307
vn 0.7442 -0.0638 -0.6649
vn 0.7441 -0.0638 -0.6650
vn 0.6453 -0.5011 -0.5767
vn 0.6453 -0.5010 -0.5767
vn 0.4563 -0.7908 -0.4078
vn 0.4567 -0.7905 -0.4081
vn 0.1846 -0.9689 -0.1649
vn 0.1848 -0.9688 -0.1652
vn -0.1845 -0.9689 0.1650
vn -0.1848 -0.9688 0.1652
vn -0.4564 -0.7908 0.4078
vn -0.4567 -0.7905 0.4081
vn -0.6453 -0.5011 0.5766
vn -0.6453 -0.5010 0.5767
vn -0.7441 -0.0638 0.6650
vn -0.7912 -0.0299 -0.6108
vn -0.8005 -0.0028 -0.5993
vn -0.8003 -0.0030 -0.5996
vn -0.7915 -0.0163 -0.6109
vn -0.8003 0.0225 -0.5992
vn -0.7641 0.2223 -0.6056
vn -0.7683 -0.0755 -0.6356
vn -0.6938 -0.0314 -0.7195
vn -0.6937 -0.0167 -0.7200
vn -0.7478 -0.1799 -0.6391
vn -0.7170 -0.0768 -0.6928
vn -0.6662 -0.4493 -0.5953
vn -0.7184 -0.1817 -0.6714
vn -0.7455 0.0006 0.6665
vn -0.7455 -0.0000 0.6665
vn -0.7455 0.0002 0.6665
vn -0.7458 0.0002 0.6661
vn -0.7458 0.0009 0.6662
vn -0.7458 -0.0000 0.6661
vn -0.7455 -0.0001 0.6665
vn -0.7458 -0.0002 0.6662
vn -0.7458 -0.0001 0.6662
vn -0.7457 -0.0003 0.6662
vn -0.7457 -0.0007 0.6663
vn -0.7456 -0.0003 0.6664
vt 0.428579 0.094841
vt 0.428577 0.085731
vt 0.775183 0.085671
vt 0.775185 0.094781
vt 0.775180 0.068101
vt 0.428574 0.068161
vt 0.428572 0.058801
vt 0.775178 0.058741
vt 0.775186 0.103241
vt 0.428580 0.103301
vt 0.428582 0.112661
vt 0.775188 0.112601
vt 0.428575 0.076622
vt 0.775181 0.076562
vt 0.775182 0.103278
vt 0.428576 0.103264
vt 0.428577 0.094803
vt 0.775183 0.094818
vt 0.428577 0.085694
vt 0.775183 0.085708
vt 0.428577 0.076584
vt 0.428578 0.068124
vt 0.775184 0.068138
vt 0.775183 0.076599
vt 0.428576 0.112624
vt 0.775182 0.112638
vt 0.428578 0.058764
vt 0.775184 0.058778
vt 0.428574 0.112613
vt 0.428575 0.103253
vt 0.775181 0.103289
vt 0.775180 0.112649
vt 0.428576 0.094793
vt 0.428577 0.085683
vt 0.775183 0.085719
vt 0.775182 0.094828
vt 0.428578 0.076574
vt 0.428579 0.068113
vt 0.775185 0.068149
vt 0.775184 0.076609
vt 0.428580 0.058753
vt 0.775186 0.058789
vt 0.428579 0.068113
vt 0.775185 0.068149
vt 0.428574 0.112613
vt 0.775180 0.112649
vt 0.428576 0.094793
vt 0.428577 0.085683
vt 0.775182 0.094828
vt 0.775184 0.076609
vt 0.775186 0.058789
vt 0.428578 0.112639
vt 0.428578 0.103279
vt 0.775184 0.103263
vt 0.775184 0.112624
vt 0.428577 0.094818
vt 0.428577 0.085709
vt 0.775183 0.085693
vt 0.775183 0.094803
vt 0.428577 0.076599
vt 0.428576 0.068139
vt 0.775182 0.068123
vt 0.775183 0.076584
vt 0.428576 0.058779
vt 0.775182 0.058763
vt 0.428575 0.103253
vt 0.775181 0.103289
vt 0.428579 0.068113
vt 0.428580 0.058753
vt 0.775186 0.058789
vt 0.428578 0.076576
vt 0.428579 0.068115
vt 0.775185 0.068147
vt 0.775184 0.076608
vt 0.775181 0.103287
vt 0.428575 0.103255
vt 0.428576 0.094795
vt 0.775182 0.094827
vt 0.428577 0.085685
vt 0.775183 0.085717
vt 0.428575 0.112615
vt 0.775181 0.112647
vt 0.428579 0.058755
vt 0.775185 0.058787
vt 0.397013 0.282196
vt 0.200958 0.200958
vt 0.397034 0.119770
vt 0.004903 0.119721
vt 0.004883 0.282147
vt 0.499218 0.499027
vt 0.622760 0.498973
vt 0.622760 0.502192
vt 0.499209 0.502191
vt 0.252138 0.498765
vt 0.375681 0.498960
vt 0.375664 0.502190
vt 0.252114 0.502191
vt 0.622760 0.506611
vt 0.499209 0.506610
vt 0.375664 0.506609
vt 0.252114 0.506609
vt 0.622760 0.510302
vt 0.499209 0.510301
vt 0.375664 0.510300
vt 0.252114 0.510300
vt 0.376104 0.513658
vt 0.499278 0.513640
vt 0.499302 0.682648
vt 0.376129 0.682666
vt 0.252979 0.747450
vt 0.129387 0.747537
vt 0.129383 0.741401
vt 0.129344 0.686175
vt 0.252935 0.686088
vt 0.282196 0.004903
vt 0.622694 0.401609
vt 0.746141 0.401609
vt 0.746141 0.405306
vt 0.622694 0.405306
vt 0.128960 0.401611
vt 0.252356 0.401610
vt 0.252356 0.405308
vt 0.128960 0.405308
vt 0.622694 0.411865
vt 0.746141 0.411865
vt 0.128960 0.411867
vt 0.252356 0.411867
vt 0.252329 0.416059
vt 0.128960 0.415528
vt 0.746154 0.416089
vt 0.622694 0.416257
vt 0.119770 0.004883
vt 0.638356 0.199104
vt 0.638356 0.242510
vt 0.577718 0.242510
vt 0.577718 0.199104
vt 0.747343 0.747102
vt 0.623752 0.747189
vt 0.623709 0.685826
vt 0.747300 0.685739
vt 0.622451 0.513623
vt 0.622475 0.682631
vt 0.252931 0.513675
vt 0.252955 0.682684
vt 0.930798 0.004883
vt 0.899601 0.080229
vt 0.868383 0.004891
vt 0.422614 0.187271
vt 0.422613 0.180343
vt 0.511462 0.180335
vt 0.511463 0.187263
vt 0.036690 0.741466
vt 0.005792 0.741488
vt 0.005753 0.686262
vt 0.036651 0.686240
vt 0.974938 0.049011
vt 0.824255 0.049031
vt 0.129782 0.682701
vt 0.129758 0.513693
vt 0.033620 0.091011
vt 0.029619 0.087009
vt 0.087052 0.029590
vt 0.091053 0.033592
vt 0.699730 0.187246
vt 0.610881 0.187254
vt 0.610880 0.180326
vt 0.699730 0.180318
vt 0.746301 0.498759
vt 0.746304 0.502192
vt 0.128625 0.498214
vt 0.128625 0.502191
vt 0.746304 0.506611
vt 0.128625 0.506610
vt 0.746304 0.510302
vt 0.128625 0.510300
vt 0.974947 0.111426
vt 0.824263 0.111447
vt 0.869549 0.401609
vt 0.869549 0.405306
vt 0.004883 0.401611
vt 0.033290 0.401611
vt 0.099233 0.401611
vt 0.004883 0.405308
vt 0.869549 0.411865
vt 0.004883 0.411867
vt 0.006608 0.682719
vt 0.006584 0.513711
vt 0.869598 0.415502
vt 0.004883 0.415528
vt 0.930818 0.155566
vt 0.868403 0.155575
vt 0.745625 0.513605
vt 0.745649 0.682613
vt 0.004883 0.465646
vt 0.066560 0.482074
vt 0.004883 0.498214
vt 0.993697 0.401609
vt 0.993697 0.405306
vt 0.993697 0.411865
vt 0.993697 0.414817
vt 0.869858 0.498749
vt 0.869862 0.502192
vt 0.004883 0.502191
vt 0.869862 0.506611
vt 0.004883 0.506610
vt 0.869862 0.510302
vt 0.004883 0.510300
vt 0.993697 0.502192
vt 0.993697 0.506611
vt 0.993697 0.498178
vt 0.993697 0.510302
vt 0.994482 0.685565
vt 0.994521 0.740791
vt 0.994526 0.746927
vt 0.870934 0.747014
vt 0.870891 0.685652
vt 0.868798 0.513587
vt 0.868822 0.682595
vt 0.991972 0.513570
vt 0.991996 0.682578
vt 0.119721 0.397013
vt 0.282147 0.397034
vt 0.375782 0.416249
vt 0.375800 0.411866
vt 0.499237 0.416316
vt 0.499246 0.411866
vt 0.375800 0.405308
vt 0.499246 0.405307
vt 0.375800 0.401610
vt 0.499246 0.401610
vt 0.376570 0.747363
vt 0.376526 0.686000
vt 0.500161 0.747276
vt 0.500118 0.685913
vt 0.005998 0.019717
vt 0.004883 0.018205
vt 0.060324 0.015008
vt 0.060310 0.016543
vt 0.792218 0.276861
vt 0.790737 0.275813
vt 0.790737 0.191174
vt 0.792218 0.190141
vt 0.073510 0.015663
vt 0.073350 0.017194
vt 0.089236 0.018248
vt 0.088721 0.019716
vt 0.404846 0.260318
vt 0.403692 0.259134
vt 0.416653 0.259134
vt 0.416653 0.260318
vt 0.432002 0.259134
vt 0.432002 0.260318
vt 0.447634 0.259134
vt 0.447634 0.260318
vt 0.533449 0.259134
vt 0.531636 0.260318
vt 0.485738 0.260318
vt 0.485738 0.259134
vt 0.474404 0.260318
vt 0.474404 0.259134
vt 0.460488 0.260318
vt 0.460488 0.259134
vt 0.227554 0.466518
vt 0.227778 0.419830
vt 0.252209 0.466544
vt 0.156745 0.476947
vt 0.128623 0.466207
vt 0.153354 0.466333
vt 0.060369 0.019376
vt 0.006206 0.022521
vt 0.073037 0.020019
vt 0.088255 0.022515
vt 0.416653 0.262794
vt 0.404846 0.262794
vt 0.432002 0.262794
vt 0.447634 0.262794
vt 0.460488 0.262794
vt 0.474404 0.262794
vt 0.485738 0.262794
vt 0.531636 0.262794
vt 0.787999 0.275813
vt 0.787999 0.191174
vt 0.619010 0.263718
vt 0.619010 0.264873
vt 0.607720 0.264873
vt 0.607720 0.263718
vt 0.666499 0.263718
vt 0.664690 0.264873
vt 0.593842 0.264873
vt 0.593842 0.263718
vt 0.581005 0.263718
vt 0.581005 0.264873
vt 0.565377 0.264873
vt 0.565377 0.263718
vt 0.550019 0.264873
vt 0.550019 0.263718
vt 0.747244 0.205920
vt 0.748698 0.204906
vt 0.748698 0.291461
vt 0.747244 0.290431
vt 0.537837 0.264873
vt 0.537837 0.263718
vt 0.487889 0.232949
vt 0.487384 0.234390
vt 0.472038 0.231873
vt 0.472195 0.230370
vt 0.459018 0.231219
vt 0.459033 0.229712
vt 0.404806 0.234359
vt 0.403692 0.232887
vt 0.276862 0.419979
vt 0.276856 0.466621
vt 0.664690 0.267357
vt 0.619010 0.267357
vt 0.744493 0.290431
vt 0.744493 0.205920
vt 0.459077 0.234066
vt 0.405004 0.237183
vt 0.471723 0.234711
vt 0.486915 0.237202
vt 0.550019 0.267357
vt 0.537837 0.267357
vt 0.565377 0.267357
vt 0.581005 0.267357
vt 0.593842 0.267357
vt 0.607720 0.267357
vt 0.566024 0.256662
vt 0.566024 0.255469
vt 0.581604 0.255469
vt 0.581604 0.256662
vt 0.550747 0.256662
vt 0.550747 0.255469
vt 0.594438 0.255469
vt 0.594438 0.256662
vt 0.539026 0.256662
vt 0.537837 0.255469
vt 0.608366 0.255469
vt 0.608366 0.256662
vt 0.571285 0.223409
vt 0.570770 0.224874
vt 0.555427 0.222350
vt 0.555588 0.220821
vt 0.619730 0.255469
vt 0.619730 0.256662
vt 0.667619 0.255469
vt 0.665840 0.256662
vt 0.542425 0.220163
vt 0.542409 0.221696
vt 0.488191 0.224844
vt 0.487080 0.223334
vt 0.758101 0.204578
vt 0.759578 0.203550
vt 0.759578 0.290061
vt 0.758101 0.289014
vt 0.437453 0.495123
vt 0.422777 0.493261
vt 0.400368 0.466790
vt 0.375713 0.466720
vt 0.400326 0.420129
vt 0.594438 0.259141
vt 0.581604 0.259141
vt 0.608366 0.259141
vt 0.619730 0.259141
vt 0.665840 0.259141
vt 0.755370 0.289014
vt 0.755370 0.204578
vt 0.542468 0.224521
vt 0.488398 0.227647
vt 0.555114 0.225169
vt 0.570304 0.227668
vt 0.550747 0.259141
vt 0.539026 0.259141
vt 0.566024 0.259141
vt 0.868796 0.160151
vt 0.868781 0.161686
vt 0.814456 0.164857
vt 0.813378 0.163321
vt 0.881981 0.160810
vt 0.881820 0.162341
vt 0.897704 0.163400
vt 0.897189 0.164867
vt 0.404920 0.252068
vt 0.403692 0.250863
vt 0.416561 0.250863
vt 0.416561 0.252068
vt 0.431780 0.250863
vt 0.431780 0.252068
vt 0.447324 0.250863
vt 0.447324 0.252068
vt 0.460152 0.250863
vt 0.460152 0.252068
vt 0.474109 0.250863
vt 0.474109 0.252068
vt 0.781341 0.281956
vt 0.779860 0.280905
vt 0.779860 0.196273
vt 0.781341 0.195243
vt 0.485519 0.250863
vt 0.485519 0.252068
vt 0.533661 0.250863
vt 0.531917 0.252068
vt 0.560988 0.495041
vt 0.523784 0.420082
vt 0.523874 0.466745
vt 0.499219 0.466766
vt 0.896723 0.167666
vt 0.881507 0.165165
vt 0.416561 0.254558
vt 0.404920 0.254558
vt 0.431780 0.254558
vt 0.447324 0.254558
vt 0.460152 0.254558
vt 0.474109 0.254558
vt 0.485519 0.254558
vt 0.531917 0.254558
vt 0.777123 0.280905
vt 0.777123 0.196273
vt 0.868840 0.164520
vt 0.814682 0.167649
vt 0.619278 0.273079
vt 0.619278 0.271934
vt 0.666468 0.271934
vt 0.664600 0.273079
vt 0.768997 0.201366
vt 0.770459 0.200345
vt 0.770459 0.287039
vt 0.768997 0.286005
vt 0.608040 0.273079
vt 0.608040 0.271934
vt 0.594185 0.273079
vt 0.594185 0.271934
vt 0.581318 0.273079
vt 0.581318 0.271934
vt 0.565611 0.273079
vt 0.565611 0.271934
vt 0.550142 0.273079
vt 0.550142 0.271934
vt 0.404770 0.215743
vt 0.403692 0.214234
vt 0.459104 0.211056
vt 0.459089 0.212572
vt 0.472287 0.211711
vt 0.472130 0.213224
vt 0.488009 0.214292
vt 0.487500 0.215742
vt 0.537837 0.273079
vt 0.537837 0.271934
vt 0.684520 0.495200
vt 0.669842 0.493371
vt 0.766246 0.286005
vt 0.766246 0.201366
vt 0.459149 0.215419
vt 0.404990 0.218552
vt 0.471816 0.216061
vt 0.487033 0.218554
vt 0.550142 0.275550
vt 0.537837 0.275550
vt 0.565611 0.275550
vt 0.581318 0.275550
vt 0.594185 0.275550
vt 0.608040 0.275550
vt 0.619278 0.275550
vt 0.664600 0.275550
vt 0.531929 0.267371
vt 0.530112 0.268519
vt 0.484665 0.268519
vt 0.484665 0.267371
vt 0.718236 0.247077
vt 0.719688 0.246064
vt 0.719688 0.332498
vt 0.718236 0.331470
vt 0.473427 0.268519
vt 0.473427 0.267371
vt 0.459596 0.268519
vt 0.459596 0.267371
vt 0.488148 0.243481
vt 0.487080 0.241982
vt 0.542327 0.238819
vt 0.542313 0.240324
vt 0.555472 0.239473
vt 0.555316 0.240974
vt 0.571147 0.242046
vt 0.570642 0.243485
vt 0.403692 0.268519
vt 0.403692 0.267371
vt 0.415861 0.267371
vt 0.415861 0.268519
vt 0.446791 0.267371
vt 0.446791 0.268519
vt 0.431195 0.268519
vt 0.431195 0.267371
vt 0.770722 0.419771
vt 0.770909 0.466478
vt 0.746239 0.466447
vt 0.833713 0.487624
vt 0.841698 0.476947
vt 0.715489 0.331470
vt 0.715489 0.247077
vt 0.542372 0.243167
vt 0.488368 0.246287
vt 0.555002 0.243808
vt 0.570175 0.246293
vt 0.415861 0.271001
vt 0.403692 0.271001
vt 0.431195 0.271001
vt 0.446791 0.271001
vt 0.459596 0.271001
vt 0.473427 0.271001
vt 0.484665 0.271001
vt 0.530112 0.271001
vt 0.710234 0.247087
vt 0.708374 0.248344
vt 0.661262 0.248344
vt 0.661262 0.247087
vt 0.674635 0.256513
vt 0.676135 0.255467
vt 0.676135 0.340627
vt 0.674635 0.339565
vt 0.006110 0.009554
vt 0.004883 0.008033
vt 0.060774 0.004883
vt 0.060760 0.006478
vt 0.649656 0.248344
vt 0.649656 0.247087
vt 0.074046 0.005519
vt 0.073886 0.007111
vt 0.635430 0.248344
vt 0.635430 0.247087
vt 0.089884 0.007982
vt 0.089382 0.009515
vt 0.577718 0.248344
vt 0.577718 0.247087
vt 0.590410 0.247087
vt 0.590410 0.248344
vt 0.622295 0.248344
vt 0.622295 0.247087
vt 0.606261 0.248344
vt 0.606261 0.247087
vt 0.969442 0.419347
vt 0.993697 0.465584
vt 0.969800 0.465798
vt 0.671982 0.339565
vt 0.671982 0.256513
vt 0.060817 0.009344
vt 0.006274 0.012368
vt 0.073584 0.009959
vt 0.088924 0.012381
vt 0.590410 0.250892
vt 0.577718 0.250892
vt 0.606261 0.250892
vt 0.622295 0.250892
vt 0.635430 0.250892
vt 0.649656 0.250892
vt 0.661262 0.250892
vt 0.708374 0.250892
vt 0.869763 0.466230
vt 0.894930 0.466209
vt 0.898403 0.476736
vt 0.894632 0.419740
vt 0.906558 0.487194
vt 0.966418 0.476366
vt 0.917660 0.492215
vt 0.958284 0.486939
vt 0.932421 0.493874
vt 0.947187 0.492068
vt 0.845031 0.419409
vt 0.774348 0.477066
vt 0.845075 0.466299
vt 0.782385 0.487682
vt 0.793386 0.492918
vt 0.808066 0.494768
vt 0.822737 0.492898
vt 0.647252 0.420315
vt 0.647388 0.466960
vt 0.622728 0.467009
vt 0.721591 0.420188
vt 0.721559 0.466842
vt 0.650815 0.477547
vt 0.718169 0.477439
vt 0.710172 0.488066
vt 0.699193 0.493321
vt 0.658850 0.488151
vt 0.527292 0.477340
vt 0.598067 0.466705
vt 0.598147 0.420021
vt 0.535319 0.487958
vt 0.546310 0.493194
vt 0.594665 0.477306
vt 0.586655 0.487933
vt 0.575666 0.493180
vt 0.403775 0.477389
vt 0.474558 0.466825
vt 0.474685 0.420145
vt 0.411791 0.488015
vt 0.471146 0.477423
vt 0.463125 0.488041
vt 0.452132 0.493277
vt 0.280250 0.477218
vt 0.351018 0.466731
vt 0.351192 0.420068
vt 0.339567 0.487925
vt 0.347595 0.477320
vt 0.288251 0.487847
vt 0.313896 0.494978
vt 0.328573 0.493147
vt 0.299226 0.493101
vt 0.153444 0.419640
vt 0.216078 0.487718
vt 0.224119 0.477111
vt 0.164746 0.487597
vt 0.175726 0.492867
vt 0.190397 0.494756
vt 0.205076 0.492935
vt 0.036694 0.747603
vt 0.005796 0.747625
vt 0.098485 0.741423
vt 0.098446 0.686197
vt 0.098490 0.747559
s 1
usemtl TempleTexture
f 1/1/1 11/2/2 12/3/2 5/4/1
f 13/5/3 14/6/3 3/7/4 7/8/4
f 9/9/5 10/10/5 1/1/6 5/4/6
f 4/11/7 10/10/5 9/9/5 8/12/7
f 12/3/2 11/2/2 2/13/8 6/14/8
f 2/13/9 14/6/3 13/5/3 6/14/9
f 23/15/2 24/16/2 16/17/10 20/18/10
f 16/17/11 25/19/3 26/20/3 20/18/11
f 17/21/12 27/22/13 28/23/13 21/24/12
f 15/25/14 24/16/2 23/15/2 19/26/14
f 26/20/3 25/19/3 17/21/15 21/24/15
f 28/23/13 27/22/13 18/27/16 22/28/16
f 29/29/17 37/30/18 38/31/18 33/32/17
f 30/33/19 39/34/13 40/35/13 34/36/19
f 31/37/20 41/38/21 42/39/21 35/40/20
f 38/31/18 37/30/18 30/33/22 34/36/22
f 40/35/13 39/34/13 31/37/23 35/40/23
f 42/39/21 41/38/21 32/41/24 36/42/24
f 43/29/25 51/30/13 52/31/13 47/32/25
f 44/33/26 53/34/21 54/35/21 48/36/26
f 45/37/27 55/43/28 56/44/28 49/40/27
f 52/31/13 51/30/13 44/33/29 48/36/29
f 54/35/21 53/34/21 45/37/30 49/40/30
f 56/44/28 55/43/28 46/41/31 50/42/31
f 57/45/32 65/30/21 66/31/21 61/46/32
f 58/47/33 67/48/34 68/35/34 62/49/33
f 59/37/35 69/43/36 70/44/36 63/50/35
f 66/31/21 65/30/21 58/47/37 62/49/37
f 68/35/34 67/48/34 59/37/38 63/50/38
f 70/44/36 69/43/36 60/41/39 64/51/39
f 71/52/40 79/53/34 80/54/34 75/55/40
f 72/56/41 81/57/36 82/58/36 76/59/41
f 73/60/42 83/61/43 84/62/43 77/63/42
f 80/54/34 79/53/34 72/56/44 76/59/44
f 82/58/36 81/57/36 73/60/45 77/63/45
f 84/62/43 83/61/43 74/64/46 78/65/46
f 86/45/47 93/66/48 94/67/48 90/46/47
f 87/47/49 95/34/43 96/35/43 91/49/49
f 88/37/50 97/68/5 98/39/5 92/40/50
f 94/67/48 93/66/48 87/47/51 91/49/51
f 96/35/43 95/34/43 88/37/52 92/40/52
f 98/39/5 97/68/5 85/69/53 89/70/53
f 99/71/54 111/72/55 112/73/55 103/74/54
f 107/75/43 108/76/43 102/77/56 106/78/56
f 102/77/57 109/79/5 110/80/5 106/78/57
f 101/81/58 108/76/43 107/75/43 105/82/58
f 110/80/5 109/79/5 99/71/59 103/74/59
f 112/73/55 111/72/55 100/83/60 104/84/60
f 113/85/61 114/86/61 115/87/61
f 116/88/61 114/86/61 117/89/61
f 118/90/62 119/91/62 120/92/62 121/93/62
f 122/94/62 123/95/62 124/96/62 125/97/62
f 120/92/63 126/98/63 127/99/63 121/93/63
f 124/96/64 128/100/64 129/101/64 125/97/64
f 130/102/61 131/103/61 127/99/61 126/98/61
f 132/104/61 133/105/61 129/101/61 128/100/61
f 132/106/65 131/107/65 136/108/65 137/109/65
f 138/110/66 139/111/66 444/112/66 116/113/66 117/114/66
f 115/87/61 114/86/61 142/115/61
f 143/116/62 144/117/62 145/118/62 146/119/62
f 139/120/62 138/121/62 147/122/62 148/123/62
f 149/124/67 146/119/67 145/118/67 150/125/67
f 151/126/66 148/123/66 147/122/66 152/127/66
f 135/128/61 140/129/61 151/126/61 152/127/61
f 149/124/61 150/125/61 141/130/61 134/131/61
f 142/115/61 114/86/61 155/132/61
f 158/133/68 159/134/68 164/135/68 165/136/68
f 144/137/67 143/138/67 113/139/67 115/140/67
f 131/107/63 130/141/63 160/142/63 136/108/63
f 133/143/64 132/106/64 137/109/64 161/144/64
f 136/145/62 162/146/62 137/147/62
f 166/148/69 165/149/69 164/150/69 163/151/69
f 163/152/68 443/153/68 155/154/68 166/155/68
f 160/156/62 162/146/62 136/145/62
f 137/147/62 162/146/62 161/157/62
f 133/143/66 161/144/66 168/158/66 169/159/66
f 154/160/61 158/161/61 165/162/61 166/163/61
f 154/164/64 153/165/64 159/166/64 158/167/64
f 119/91/62 157/168/62 170/169/62 120/92/62
f 156/170/62 122/94/62 125/97/62 171/171/62
f 170/169/67 172/172/67 126/98/67 120/92/67
f 125/97/66 129/101/66 173/173/66 171/171/66
f 174/174/61 130/102/61 126/98/61 172/172/61
f 133/105/61 169/175/61 173/173/61 129/101/61
f 179/176/62 162/146/62 160/156/62
f 161/157/62 162/146/62 168/177/62
f 153/165/62 163/151/62 164/150/62 159/166/62
f 144/117/62 180/178/62 181/179/62 145/118/62
f 167/180/62 446/181/62 445/182/62 139/120/62 148/123/62 182/183/62
f 181/179/69 183/184/69 150/125/69 145/118/69
f 184/185/68 182/183/68 148/123/68 151/126/68
f 186/186/68 185/187/68 169/159/68 168/158/68
f 175/188/61 141/130/61 150/125/61 183/184/61
f 140/129/61 176/189/61 184/185/61 151/126/61
f 187/190/62 162/146/62 179/176/62
f 168/177/62 162/146/62 186/191/62
f 130/141/67 174/192/67 179/193/67 160/142/67
f 434/194/68 442/195/68 178/196/68
f 186/191/62 162/146/62 187/190/62
f 180/178/62 167/197/62 182/198/62 181/179/62
f 183/184/70 181/179/70 182/198/70 184/199/70
f 176/200/61 175/188/61 183/184/61 184/199/61
f 154/160/61 114/86/61 116/88/61
f 157/168/62 177/201/62 188/202/62 170/169/62
f 178/196/62 156/170/62 171/171/62 189/203/62
f 188/202/69 190/204/69 172/172/69 170/169/69
f 171/171/68 173/173/68 191/205/68 189/203/68
f 192/206/61 174/174/61 172/172/61 190/204/61
f 169/175/61 185/207/61 191/205/61 173/173/61
f 190/204/70 188/202/70 189/208/70 191/209/70
f 177/201/62 178/210/62 189/208/62 188/202/62
f 185/211/61 192/206/61 190/204/61 191/209/61
f 155/212/70 443/213/70 167/214/70 180/215/70 142/216/70
f 174/192/69 192/217/69 187/218/69 179/193/69
f 180/215/69 144/137/69 115/140/69 142/216/69
f 192/217/70 185/219/70 186/220/70 187/218/70
f 121/93/65 127/99/65 128/100/65 124/96/65
f 131/103/61 132/104/61 128/100/61 127/99/61
f 117/89/61 114/86/61 193/221/61
f 194/222/61 114/86/61 113/85/61
f 123/95/62 118/90/62 121/93/62 124/96/62
f 193/221/61 114/86/61 194/222/61
f 195/223/61 135/128/61 152/127/61 196/224/61
f 134/131/61 197/225/61 198/226/61 149/124/61
f 152/127/64 147/122/64 199/227/64 196/224/64
f 198/226/63 200/228/63 146/119/63 149/124/63
f 138/121/62 201/229/62 199/227/62 147/122/62
f 202/230/62 143/116/62 146/119/62 200/228/62
f 197/225/61 195/223/61 196/224/61 198/226/61
f 196/224/65 199/227/65 200/228/65 198/226/65
f 201/229/62 202/230/62 200/228/62 199/227/62
f 201/231/64 138/110/64 117/114/64 193/232/64
f 143/138/63 202/233/63 194/234/63 113/139/63
f 202/233/65 201/231/65 193/232/65 194/234/65
f 281/235/71 280/236/71 282/237/72 283/238/72
f 280/239/73 281/240/73 293/241/73 292/242/73
f 283/238/72 282/237/72 284/243/74 285/244/74
f 285/244/74 284/243/74 286/245/75 287/246/75
f 287/247/75 286/248/75 288/249/76 289/250/76
f 289/250/76 288/249/76 291/251/77 290/252/77
f 290/252/77 291/251/77 298/253/78 299/254/78
f 292/255/79 293/256/79 295/257/80 294/258/80
f 294/258/80 295/257/80 297/259/81 296/260/81
f 296/260/81 297/259/81 301/261/82 300/262/83
f 299/254/78 298/253/78 300/262/83 301/261/82
f 282/263/66 280/264/66 135/128/66 440/265/66
f 296/266/66 156/170/66 441/267/66 294/268/66
f 248/269/84 247/270/85 281/235/85 283/238/84
f 283/238/84 285/244/86 249/271/86 248/269/84
f 285/244/86 287/246/87 250/272/87 249/271/86
f 287/247/87 289/250/88 251/273/88 250/274/87
f 289/250/88 290/252/62 252/275/62 251/273/88
f 290/252/62 299/254/89 253/276/89 252/275/62
f 299/254/89 301/261/90 254/277/90 253/276/89
f 301/261/90 297/259/91 255/278/92 254/277/90
f 297/259/91 295/257/93 256/279/94 255/278/92
f 257/280/95 256/279/94 295/257/93 293/256/95
f 247/281/61 257/282/61 293/241/61 281/240/61
f 302/283/96 303/284/96 305/285/97 304/286/97
f 303/284/96 302/283/96 312/287/98 313/288/98
f 304/286/97 305/285/97 309/289/99 308/290/99
f 306/291/100 307/292/100 310/293/101 311/294/101
f 307/292/100 306/291/100 308/290/99 309/289/99
f 311/294/101 310/293/101 315/295/102 314/296/102
f 313/297/103 312/298/103 322/299/103 323/300/103
f 314/296/102 315/295/102 317/301/104 316/302/104
f 316/303/104 317/304/104 319/305/105 318/306/105
f 318/306/105 319/305/105 321/307/106 320/308/106
f 320/308/106 321/307/106 323/309/107 322/310/107
f 312/311/64 302/312/64 440/265/64 135/128/64
f 259/313/108 258/314/109 303/284/109 313/288/108
f 260/315/61 259/316/61 313/297/61 323/300/61
f 323/309/110 321/307/111 261/317/111 260/318/110
f 321/307/111 319/305/112 262/319/113 261/317/111
f 319/305/112 317/304/114 263/320/114 262/319/113
f 317/301/114 315/295/115 264/321/115 263/322/114
f 315/295/115 310/293/62 265/323/62 264/321/115
f 310/293/62 307/292/116 266/324/116 265/323/62
f 307/292/116 309/289/117 267/325/117 266/324/116
f 309/289/117 305/285/118 268/326/118 267/325/117
f 305/285/118 303/284/109 258/314/109 268/326/118
f 324/327/119 325/328/119 326/329/120 327/330/120
f 325/328/119 324/327/119 329/331/121 328/332/121
f 327/330/120 326/329/120 330/333/122 331/334/122
f 328/332/121 329/331/121 333/335/123 332/336/123
f 331/334/122 330/333/122 334/337/124 335/338/124
f 332/339/123 333/340/123 341/341/125 340/342/125
f 335/338/124 334/337/124 336/343/126 337/344/126
f 337/344/126 336/343/126 342/345/71 343/346/71
f 338/347/127 339/348/127 345/349/128 344/350/128
f 339/348/127 338/347/127 340/342/125 341/341/125
f 343/351/129 342/352/129 344/353/129 345/354/129
f 325/355/65 123/95/65 326/356/65
f 336/357/65 439/358/65 195/223/65 342/359/65
f 327/330/130 331/334/131 270/360/131 269/361/130
f 331/334/131 335/338/132 271/362/132 270/360/131
f 335/338/132 337/344/133 272/363/133 271/362/132
f 272/363/133 337/344/133 343/346/134 273/364/134
f 343/351/61 345/354/61 274/365/61 273/366/61
f 339/348/135 275/367/135 274/368/136 345/349/136
f 339/348/135 341/341/137 276/369/137 275/367/135
f 341/341/137 333/340/138 277/370/139 276/369/137
f 333/335/138 329/331/140 278/371/140 277/372/139
f 329/331/140 324/327/62 279/373/62 278/371/140
f 324/327/62 327/330/130 269/361/130 279/373/62
f 346/374/141 347/375/141 361/376/142 360/377/142
f 347/375/141 346/374/141 348/378/143 349/379/143
f 349/379/143 348/378/143 350/380/144 351/381/144
f 351/382/144 350/383/144 352/384/145 353/385/145
f 353/385/145 352/384/145 355/386/146 354/387/146
f 354/387/146 355/386/146 356/388/147 357/389/147
f 357/389/147 356/388/147 358/390/148 359/391/148
f 359/391/148 358/390/148 366/392/149 367/393/149
f 360/394/150 361/395/150 365/396/150 364/397/150
f 362/398/151 363/399/151 367/393/149 366/392/149
f 363/399/151 362/398/151 364/400/152 365/401/152
f 355/402/63 119/91/63 118/90/63
f 364/403/63 362/404/63 438/405/63 197/225/63
f 349/379/153 351/381/154 204/406/154 203/407/153
f 351/382/154 353/385/155 205/408/155 204/409/154
f 353/385/155 354/387/62 206/410/62 205/408/155
f 354/387/62 357/389/156 207/411/156 206/410/62
f 357/389/156 359/391/157 208/412/157 207/411/156
f 359/391/157 367/393/158 209/413/158 208/412/157
f 367/393/158 363/399/159 210/414/159 209/413/158
f 363/399/159 365/401/160 211/415/160 210/414/159
f 365/396/61 361/395/61 212/416/61 211/417/61
f 361/376/161 347/375/162 213/418/162 212/419/161
f 347/375/162 349/379/153 203/407/153 213/418/162
f 371/420/163 370/421/163 368/422/164 369/423/164
f 369/424/165 368/425/165 380/426/165 381/427/165
f 370/421/163 371/420/163 373/428/166 372/429/166
f 372/429/166 373/428/166 375/430/167 374/431/168
f 374/431/168 375/430/167 377/432/169 376/433/169
f 376/433/169 377/432/169 378/434/170 379/435/170
f 379/435/170 378/434/170 389/436/171 388/437/171
f 381/438/172 380/439/172 382/440/173 383/441/173
f 383/441/173 382/440/173 384/442/174 385/443/175
f 385/443/175 384/442/174 386/444/176 387/445/177
f 387/446/177 386/447/176 388/437/171 389/436/171
f 379/448/178 119/91/179 376/449/180
f 369/424/61 381/427/61 215/450/61 214/451/61
f 381/438/95 383/441/94 216/452/94 215/453/95
f 383/441/94 385/443/92 217/454/91 216/452/94
f 385/443/92 387/445/90 218/455/90 217/454/91
f 387/446/90 389/436/89 219/456/89 218/457/90
f 389/436/89 378/434/62 220/458/62 219/456/89
f 378/434/62 377/432/88 221/459/88 220/458/62
f 377/432/88 375/430/87 222/460/87 221/459/88
f 375/430/87 373/428/86 223/461/86 222/460/87
f 373/428/86 371/420/84 224/462/84 223/461/86
f 371/420/84 369/423/85 214/463/85 224/462/84
f 390/464/181 391/465/181 393/466/182 392/467/183
f 391/468/184 390/469/184 396/470/184 397/471/184
f 392/467/183 393/466/182 395/472/185 394/473/185
f 394/473/185 395/472/185 407/474/186 406/475/186
f 397/476/187 396/477/187 398/478/188 399/479/188
f 399/479/188 398/478/188 400/480/189 401/481/189
f 401/481/189 400/480/189 402/482/190 403/483/190
f 403/484/190 402/485/190 410/486/191 411/487/191
f 404/488/192 405/489/192 408/490/193 409/491/193
f 405/489/192 404/488/192 406/475/186 407/474/186
f 409/491/193 408/490/193 411/487/191 410/486/191
f 390/492/69 392/493/69 436/494/69 141/130/69
f 402/495/69 400/496/69 177/201/69
f 226/497/61 225/498/61 391/468/61 397/471/61
f 397/476/108 399/479/109 227/499/109 226/500/108
f 399/479/109 401/481/118 228/501/118 227/499/109
f 401/481/118 403/483/117 229/502/117 228/501/118
f 403/484/117 411/487/116 230/503/116 229/504/117
f 411/487/116 408/490/62 231/505/62 230/503/116
f 408/490/62 405/489/115 232/506/115 231/505/62
f 405/489/115 407/474/114 233/507/114 232/506/115
f 233/507/114 407/474/114 395/472/112 234/508/113
f 395/472/112 393/466/111 235/509/111 234/508/113
f 225/510/110 235/509/111 393/466/111 391/465/110
f 412/511/194 413/512/194 417/513/195 416/514/196
f 413/515/197 412/516/197 414/517/197 415/518/197
f 415/519/198 414/520/198 418/521/199 419/522/199
f 416/514/196 417/513/195 421/523/200 420/524/201
f 419/522/199 418/521/199 422/525/202 423/526/203
f 420/524/201 421/523/200 427/527/204 426/528/205
f 423/526/203 422/525/202 424/529/206 425/530/207
f 425/531/207 424/532/206 430/533/208 431/534/209
f 426/528/205 427/527/204 429/535/210 428/536/211
f 428/536/211 429/535/210 432/537/212 433/538/212
f 431/534/209 430/533/208 433/538/212 432/537/212
f 414/539/213 176/200/214 434/540/215 418/541/216
f 413/515/61 415/518/61 237/542/61 236/543/61
f 415/519/134 419/522/217 238/544/218 237/545/134
f 419/522/217 423/526/219 239/546/220 238/544/218
f 423/526/219 425/530/221 240/547/222 239/546/220
f 425/531/221 431/534/223 241/548/224 240/549/222
f 431/534/223 432/537/62 242/550/62 241/548/224
f 432/537/62 429/535/225 243/551/226 242/550/62
f 429/535/225 427/527/227 244/552/228 243/551/226
f 421/523/229 245/553/230 244/552/228 427/527/227
f 421/523/229 417/513/231 246/554/231 245/553/230
f 413/512/136 236/555/136 246/554/231 417/513/231
f 155/132/61 114/86/61 166/163/61
f 166/163/61 114/86/61 154/160/61
f 177/201/232 435/556/233 416/557/234 420/558/235
f 175/188/236 412/559/237 416/557/234 435/556/233
f 414/539/213 412/559/237 175/188/236 176/200/214
f 426/560/238 177/201/232 420/558/235
f 178/210/239 422/561/240 418/541/216 434/540/215
f 428/562/241 177/201/232 426/560/238
f 178/210/239 424/563/242 422/561/240
f 433/564/243 177/201/232 428/562/241
f 178/210/239 430/565/244 424/563/242
f 178/210/239 433/564/243 430/565/244
f 178/210/239 177/201/232 433/564/243
f 141/130/69 175/188/69 396/566/69 390/492/69
f 157/168/69 436/494/69 392/493/69 394/567/69
f 175/188/69 435/556/69 398/568/69 396/566/69
f 157/168/69 406/569/69 404/570/69
f 177/201/69 400/496/69 398/568/69 435/556/69
f 157/168/69 394/567/69 406/569/69
f 409/571/69 157/168/69 404/570/69
f 177/201/69 410/572/69 402/495/69
f 177/201/69 157/168/69 409/571/69
f 177/201/69 409/571/69 410/572/69
f 368/573/245 370/574/246 437/575/246 134/131/247
f 134/131/247 141/130/248 380/576/249 368/573/245
f 382/577/250 380/576/249 141/130/248 436/494/250
f 119/91/179 437/575/246 370/574/246 372/578/251
f 157/168/252 384/579/253 382/577/250 436/494/250
f 157/168/252 386/580/254 384/579/253
f 157/168/252 388/581/255 386/580/254
f 119/91/179 372/578/251 374/582/256
f 119/91/179 374/582/256 376/449/180
f 379/448/178 157/168/252 119/91/179
f 379/448/178 388/581/255 157/168/252
f 118/90/63 438/405/63 362/404/63 366/583/63
f 134/131/63 437/575/63 346/584/63 360/585/63
f 197/225/63 134/131/63 360/585/63 364/403/63
f 118/90/63 366/583/63 358/586/63
f 118/90/63 358/586/63 356/587/63
f 118/90/63 356/587/63 355/402/63
f 119/91/63 348/588/63 346/584/63 437/575/63
f 350/589/63 348/588/63 119/91/63
f 350/589/63 119/91/63 352/590/63
f 352/590/63 119/91/63 355/402/63
f 123/95/65 439/358/65 336/357/65 334/591/65
f 197/225/65 438/405/65 338/592/65 344/593/65
f 195/223/65 197/225/65 344/593/65 342/359/65
f 123/95/65 334/591/65 330/594/65
f 123/95/65 330/594/65 326/356/65
f 118/90/65 340/595/65 338/592/65 438/405/65
f 332/596/65 340/595/65 118/90/65
f 332/596/65 118/90/65 328/597/65
f 325/355/65 118/90/65 123/95/65
f 325/355/65 328/597/65 118/90/65
f 304/598/64 122/94/64 440/265/64 302/312/64
f 195/223/64 439/358/64 320/599/64 322/600/64
f 135/128/64 195/223/64 322/600/64 312/311/64
f 123/95/64 316/601/64 318/602/64
f 308/603/64 122/94/64 304/598/64
f 123/95/64 318/602/64 320/599/64 439/358/64
f 123/95/64 311/604/64 314/605/64
f 123/95/64 314/605/64 316/601/64
f 306/606/64 122/94/64 308/603/64
f 123/95/64 122/94/64 311/604/64
f 311/604/64 122/94/64 306/606/64
f 140/129/66 292/607/66 294/268/66 441/267/66
f 140/129/66 135/128/66 280/264/66 292/607/66
f 122/94/66 286/608/66 284/609/66
f 300/610/66 156/170/66 296/266/66
f 122/94/66 284/609/66 282/263/66 440/265/66
f 298/611/66 156/170/66 300/610/66
f 291/612/66 288/613/66 122/94/66
f 291/612/66 156/170/66 298/611/66
f 122/94/66 288/613/66 286/608/66
f 291/612/66 122/94/66 156/170/66
f 442/195/68 140/129/68 441/267/68
f 442/195/68 441/267/68 156/170/68
f 178/196/68 442/195/68 156/170/68
f 176/189/68 442/195/68 434/194/68
f 176/189/68 140/129/68 442/195/68
f 163/152/68 446/614/68 167/615/68 443/153/68
f 444/112/68 153/616/68 154/617/68 116/113/68
f 139/111/68 445/618/68 153/616/68 444/112/68
f 153/616/68 445/618/68 446/614/68 163/152/68
