# Blender 5.1.2
# www.blender.org
mtllib triforce.mtl
o Triforce
v -0.068317 0.330154 -0.367316
v 0.006789 0.330154 -0.367316
v 0.006857 0.338103 -0.371449
v -0.030764 0.388662 -0.367316
v 0.045352 0.388662 -0.367316
v 0.007152 0.447386 -0.367316
v 0.083916 0.330154 -0.367316
v -0.023042 0.384687 -0.371449
v 0.037561 0.384687 -0.371449
v -0.077287 0.325525 -0.371449
v 0.006722 0.325525 -0.371449
v -0.035283 0.390970 -0.371449
v 0.049857 0.390970 -0.371449
v 0.007128 0.456655 -0.371449
v 0.092992 0.325525 -0.371449
v 0.052427 0.289765 -0.371449
v 0.068082 0.276769 -0.356766
v 0.066956 0.256840 -0.371449
v 0.059590 0.293557 -0.371449
v 0.075851 0.261670 -0.371449
v 0.065764 0.297017 -0.371449
v 0.086219 0.268576 -0.371449
v 0.071046 0.300191 -0.371449
v 0.081446 0.285399 -0.357075
v 0.090886 0.272141 -0.371449
v 0.075537 0.303229 -0.371449
v 0.093197 0.296894 -0.357558
v 0.097034 0.277894 -0.371449
v 0.079350 0.306251 -0.371449
v 0.102283 0.283994 -0.371449
v 0.082609 0.309351 -0.371449
v 0.106640 0.290347 -0.371449
v 0.085748 0.313010 -0.371449
v 0.110455 0.297223 -0.371449
v 0.087916 0.316121 -0.371449
v 0.100751 0.309387 -0.358222
v 0.112856 0.303330 -0.371449
v 0.090147 0.319948 -0.371449
v 0.102823 0.314602 -0.358550
v 0.114880 0.309784 -0.371449
v 0.092195 0.324146 -0.371449
v 0.106129 0.328250 -0.359414
v 0.115261 0.311388 -0.371449
v 0.094064 0.328499 -0.371449
v 0.117472 0.322034 -0.371449
v 0.095315 0.332473 -0.371449
v 0.118478 0.327452 -0.371449
v 0.096429 0.336951 -0.371449
v 0.119503 0.336116 -0.371449
v 0.097336 0.341803 -0.371449
v 0.108581 0.341078 -0.360095
v 0.119627 0.340333 -0.371449
v 0.097981 0.347063 -0.371449
v 0.108802 0.347328 -0.360516
v 0.119423 0.347530 -0.371449
v 0.098280 0.353071 -0.371449
v 0.107299 0.361751 -0.361995
v 0.119038 0.349797 -0.371449
v 0.098103 0.360257 -0.371449
v 0.116472 0.363183 -0.371449
v 0.097393 0.368131 -0.371449
v 0.109483 0.378278 -0.371449
v 0.096156 0.376337 -0.371449
v 0.102143 0.378594 -0.364892
v 0.108180 0.380634 -0.371449
v 0.094385 0.384454 -0.371449
v 0.098508 0.386504 -0.366696
v 0.102673 0.388339 -0.371449
v 0.044723 0.261531 -0.371449
v 0.091929 0.392195 -0.371449
v 0.094447 0.393754 -0.368353
v 0.096994 0.395158 -0.371449
v 0.041341 0.265305 -0.371449
v 0.088170 0.400475 -0.371449
v 0.089386 0.401448 -0.369745
v 0.090658 0.402302 -0.371449
v 0.040732 0.271948 -0.371449
v 0.084080 0.408431 -0.371449
v 0.082291 0.410817 -0.371005
v 0.048856 0.287241 -0.371449
v 0.042140 0.278119 -0.371449
v 0.045156 0.283457 -0.371449
v 0.044420 0.266388 -0.364914
v 0.054985 0.270185 -0.357295
v 0.050198 0.268448 -0.360528
v 0.049834 0.258087 -0.371449
v 0.060904 0.255977 -0.371449
v 0.055584 0.256335 -0.371449
v 0.052166 0.290190 -0.371449
v 0.059352 0.293994 -0.371449
v 0.067116 0.256360 -0.371449
v 0.076103 0.261241 -0.371449
v 0.065514 0.297447 -0.371449
v 0.086516 0.268177 -0.371449
v 0.070778 0.300611 -0.371449
v 0.091208 0.271760 -0.371449
v 0.075243 0.303631 -0.371449
v 0.097394 0.277549 -0.371449
v 0.079023 0.306627 -0.371449
v 0.102678 0.283690 -0.371449
v 0.082248 0.309694 -0.371449
v 0.107065 0.290087 -0.371449
v 0.110905 0.297009 -0.371449
v 0.085356 0.313317 -0.371449
v 0.087497 0.316390 -0.371449
v 0.113324 0.303159 -0.371449
v 0.089707 0.320183 -0.371449
v 0.115361 0.309652 -0.371449
v 0.091742 0.324353 -0.371449
v 0.115825 0.311262 -0.371449
v 0.093597 0.328672 -0.371449
v 0.117962 0.321943 -0.371449
v 0.094835 0.332608 -0.371449
v 0.118970 0.327375 -0.371449
v 0.095943 0.337056 -0.371449
v 0.120095 0.336200 -0.371449
v 0.096844 0.341879 -0.371449
v 0.120125 0.340326 -0.371449
v 0.097485 0.347105 -0.371449
v 0.119920 0.347567 -0.371449
v 0.097782 0.353077 -0.371449
v 0.119643 0.349800 -0.371449
v 0.097606 0.360229 -0.371449
v 0.116947 0.363337 -0.371449
v 0.096899 0.368071 -0.371449
v 0.109914 0.378511 -0.371449
v 0.095666 0.376247 -0.371449
v 0.108603 0.380899 -0.371449
v 0.103067 0.388643 -0.371449
v 0.093903 0.384326 -0.371449
v 0.091464 0.392016 -0.371449
v 0.097372 0.395482 -0.371449
v 0.087722 0.400258 -0.371449
v 0.091015 0.402650 -0.371449
v 0.082336 0.410737 -0.371449
v 0.040883 0.265106 -0.371449
v 0.044412 0.261157 -0.371449
v 0.040246 0.271993 -0.371449
v 0.044759 0.283762 -0.371449
v 0.041686 0.278314 -0.371449
v 0.048533 0.287622 -0.371449
v 0.049637 0.257633 -0.371449
v 0.055500 0.255843 -0.371449
v 0.060925 0.255477 -0.371449
v 0.264199 0.371592 -0.371449
v 0.274285 0.400720 -0.371449
v 0.286151 0.438736 -0.371449
v 0.251146 0.398343 -0.359414
v 0.222722 0.270179 -0.371449
v 0.233720 0.290008 -0.371449
v 0.240403 0.303063 -0.371449
v 0.250778 0.324368 -0.371449
v 0.216727 0.300391 -0.359414
v 0.078541 0.192044 -0.371449
v 0.097162 0.195176 -0.371449
v 0.118294 0.199733 -0.371449
v 0.093425 0.208562 -0.358285
v 0.154077 0.210156 -0.371449
v 0.167910 0.219187 -0.371449
v 0.178917 0.227005 -0.371449
v 0.194340 0.236350 -0.371449
v 0.159929 0.235862 -0.359096
v -0.036670 0.289765 -0.371449
v -0.052325 0.276769 -0.356766
v -0.051198 0.256840 -0.371449
v -0.043833 0.293557 -0.371449
v -0.060093 0.261670 -0.371449
v -0.050007 0.297017 -0.371449
v -0.070461 0.268576 -0.371449
v -0.055289 0.300191 -0.371449
v -0.065689 0.285399 -0.357075
v -0.075128 0.272141 -0.371449
v -0.059780 0.303229 -0.371449
v -0.077439 0.296894 -0.357558
v -0.081277 0.277894 -0.371449
v -0.063593 0.306251 -0.371449
v -0.086526 0.283994 -0.371449
v -0.066851 0.309351 -0.371449
v -0.090882 0.290347 -0.371449
v -0.069991 0.313010 -0.371449
v -0.094698 0.297223 -0.371449
v -0.072158 0.316121 -0.371449
v -0.084993 0.309387 -0.358222
v -0.097099 0.303330 -0.371449
v -0.074389 0.319948 -0.371449
v -0.087066 0.314602 -0.358550
v -0.099123 0.309784 -0.371449
v -0.076437 0.324146 -0.371449
v -0.090372 0.328250 -0.359414
v -0.099503 0.311388 -0.371449
v -0.078306 0.328499 -0.371449
v -0.101715 0.322034 -0.371449
v -0.079557 0.332473 -0.371449
v -0.102721 0.327452 -0.371449
v -0.080672 0.336951 -0.371449
v -0.103746 0.336116 -0.371449
v -0.081578 0.341803 -0.371449
v -0.092824 0.341078 -0.360095
v -0.103869 0.340333 -0.371449
v -0.082224 0.347063 -0.371449
v -0.093045 0.347328 -0.360516
v -0.103665 0.347530 -0.371449
v -0.082522 0.353071 -0.371449
v -0.091541 0.361751 -0.361995
v -0.103281 0.349797 -0.371449
v -0.082346 0.360257 -0.371449
v -0.100715 0.363183 -0.371449
v -0.081636 0.368131 -0.371449
v -0.093726 0.378278 -0.371449
v -0.080398 0.376337 -0.371449
v -0.086386 0.378594 -0.364892
v -0.092423 0.380634 -0.371449
v -0.078627 0.384454 -0.371449
v -0.082750 0.386504 -0.366696
v -0.086915 0.388339 -0.371449
v -0.028965 0.261531 -0.371449
v -0.076172 0.392195 -0.371449
v -0.078689 0.393754 -0.368353
v -0.081237 0.395158 -0.371449
v -0.025584 0.265305 -0.371449
v -0.072413 0.400475 -0.371449
v -0.073629 0.401448 -0.369745
v -0.074901 0.402302 -0.371449
v -0.024975 0.271948 -0.371449
v -0.068323 0.408431 -0.371449
v -0.066533 0.410817 -0.371005
v -0.033099 0.287241 -0.371449
v -0.026383 0.278119 -0.371449
v -0.029398 0.283457 -0.371449
v -0.028663 0.266388 -0.364914
v -0.039228 0.270185 -0.357295
v -0.034440 0.268448 -0.360528
v -0.034077 0.258087 -0.371449
v -0.045147 0.255977 -0.371449
v -0.039826 0.256335 -0.371449
v -0.036409 0.290190 -0.371449
v -0.043595 0.293994 -0.371449
v -0.051358 0.256360 -0.371449
v -0.060346 0.261241 -0.371449
v -0.049756 0.297447 -0.371449
v -0.070759 0.268177 -0.371449
v -0.055021 0.300611 -0.371449
v -0.075450 0.271760 -0.371449
v -0.059485 0.303631 -0.371449
v -0.081637 0.277549 -0.371449
v -0.063266 0.306627 -0.371449
v -0.086921 0.283690 -0.371449
v -0.066490 0.309694 -0.371449
v -0.091308 0.290087 -0.371449
v -0.095147 0.297009 -0.371449
v -0.069599 0.313317 -0.371449
v -0.071739 0.316390 -0.371449
v -0.097567 0.303159 -0.371449
v -0.073950 0.320183 -0.371449
v -0.099603 0.309652 -0.371449
v -0.075985 0.324353 -0.371449
v -0.100068 0.311262 -0.371449
v -0.077839 0.328672 -0.371449
v -0.102204 0.321943 -0.371449
v -0.079078 0.332608 -0.371449
v -0.103213 0.327375 -0.371449
v -0.080186 0.337056 -0.371449
v -0.104337 0.336200 -0.371449
v -0.081086 0.341879 -0.371449
v -0.104367 0.340326 -0.371449
v -0.081727 0.347105 -0.371449
v -0.104162 0.347567 -0.371449
v -0.082024 0.353077 -0.371449
v -0.103885 0.349800 -0.371449
v -0.081849 0.360229 -0.371449
v -0.101189 0.363337 -0.371449
v -0.081141 0.368071 -0.371449
v -0.094157 0.378511 -0.371449
v -0.079908 0.376247 -0.371449
v -0.092845 0.380899 -0.371449
v -0.087310 0.388643 -0.371449
v -0.078146 0.384326 -0.371449
v -0.075706 0.392016 -0.371449
v -0.081614 0.395482 -0.371449
v -0.071964 0.400258 -0.371449
v -0.075258 0.402650 -0.371449
v -0.066578 0.410737 -0.371449
v -0.025125 0.265106 -0.371449
v -0.028655 0.261157 -0.371449
v -0.024488 0.271993 -0.371449
v -0.029002 0.283762 -0.371449
v -0.025928 0.278314 -0.371449
v -0.032776 0.287622 -0.371449
v -0.033880 0.257633 -0.371449
v -0.039742 0.255843 -0.371449
v -0.045168 0.255477 -0.371449
v -0.248441 0.371592 -0.371449
v -0.258528 0.400720 -0.371449
v -0.270394 0.438736 -0.371449
v -0.235388 0.398343 -0.359414
v -0.206965 0.270179 -0.371449
v -0.217963 0.290008 -0.371449
v -0.224646 0.303063 -0.371449
v -0.235020 0.324368 -0.371449
v -0.200970 0.300391 -0.359414
v -0.062784 0.192044 -0.371449
v -0.081404 0.195176 -0.371449
v -0.102537 0.199733 -0.371449
v -0.077667 0.208562 -0.358285
v -0.138320 0.210156 -0.371449
v -0.152153 0.219187 -0.371449
v -0.163160 0.227005 -0.371449
v -0.178582 0.236350 -0.371449
v -0.144172 0.235862 -0.359096
v 0.007879 0.236106 -0.352165
v 0.048691 0.231035 -0.371449
v 0.007879 0.250616 -0.354633
v 0.033411 0.249877 -0.371449
v 0.007879 0.267043 -0.358937
v 0.027037 0.267045 -0.371449
v 0.007879 0.287301 -0.363510
v 0.016080 0.287303 -0.371449
v 0.007879 0.310280 -0.371449
v 0.007879 0.277172 -0.361212
v 0.022041 0.277129 -0.371449
v 0.007879 0.259494 -0.356745
v 0.030735 0.258739 -0.371449
v 0.007879 0.243244 -0.353398
v 0.039083 0.239225 -0.371449
v 0.007879 0.239580 -0.352729
v 0.043266 0.234477 -0.371449
v 0.007879 0.223746 -0.354347
v 0.030329 0.221160 -0.371449
v 0.007879 0.215011 -0.354954
v 0.022056 0.213732 -0.371449
v 0.007879 0.208228 -0.355515
v 0.019228 0.208428 -0.371449
v 0.007879 0.200178 -0.356181
v 0.019738 0.199077 -0.371449
v 0.007879 0.191114 -0.356701
v 0.021081 0.189508 -0.371449
v 0.007879 0.181225 -0.354754
v 0.025401 0.180492 -0.371449
v 0.007879 0.132276 -0.371449
v -0.032933 0.231035 -0.371449
v -0.017653 0.249877 -0.371449
v -0.011280 0.267045 -0.371449
v -0.000323 0.287303 -0.371449
v -0.006284 0.277129 -0.371449
v -0.014977 0.258739 -0.371449
v -0.023325 0.239225 -0.371449
v -0.027509 0.234477 -0.371449
v -0.014571 0.221160 -0.371449
v -0.006299 0.213732 -0.371449
v -0.003470 0.208428 -0.371449
v -0.003981 0.199077 -0.371449
v -0.005324 0.189508 -0.371449
v -0.009644 0.180492 -0.371449
v 0.007879 0.239737 -0.371449
v 0.007879 0.189769 -0.371449
v 0.007879 0.250219 -0.371449
v 0.007879 0.199163 -0.371449
v 0.007879 0.259051 -0.371449
v 0.007879 0.208228 -0.371449
v 0.007879 0.267425 -0.371449
v 0.007879 0.213172 -0.371449
v 0.007879 0.277554 -0.371449
v 0.007879 0.220424 -0.371449
v 0.007879 0.230971 -0.371449
v 0.007879 0.287683 -0.371449
v 0.007879 0.235163 -0.371449
v 0.007879 0.180540 -0.371449
v 0.039822 0.239737 -0.371449
v 0.034241 0.250219 -0.371449
v 0.031574 0.259051 -0.371449
v 0.027846 0.267425 -0.371449
v 0.022828 0.277554 -0.371449
v 0.016894 0.287683 -0.371449
v 0.007879 0.312938 -0.371449
v 0.043853 0.235163 -0.371449
v 0.050458 0.230971 -0.371449
v 0.030846 0.220424 -0.371449
v 0.022770 0.213172 -0.371449
v 0.020134 0.208228 -0.371449
v 0.020628 0.199163 -0.371449
v 0.021946 0.189769 -0.371449
v 0.026369 0.180540 -0.371449
v 0.007879 0.129660 -0.371449
v -0.024065 0.239737 -0.371449
v -0.018483 0.250219 -0.371449
v -0.015816 0.259051 -0.371449
v -0.012089 0.267425 -0.371449
v -0.007070 0.277554 -0.371449
v -0.001136 0.287683 -0.371449
v -0.028095 0.235163 -0.371449
v -0.034701 0.230971 -0.371449
v -0.015089 0.220424 -0.371449
v -0.007013 0.213172 -0.371449
v -0.004376 0.208228 -0.371449
v -0.004871 0.199163 -0.371449
v -0.006189 0.189769 -0.371449
v -0.010611 0.180540 -0.371449
v 0.081024 0.129540 -0.371449
v 0.092770 0.144574 -0.366620
v 0.096229 0.141337 -0.371449
v 0.091006 0.154597 -0.371449
v 0.103073 0.159519 -0.365422
v 0.066407 0.154438 -0.371449
v 0.064658 0.160584 -0.364843
v 0.062562 0.166517 -0.371449
v 0.059668 0.154564 -0.371449
v 0.048053 0.160623 -0.364843
v 0.056176 0.144729 -0.371449
v 0.065092 0.136760 -0.371449
v 0.058854 0.145641 -0.367602
v 0.062248 0.147015 -0.371449
v 0.053239 0.167419 -0.371449
v 0.052618 0.154550 -0.366418
v 0.045833 0.154234 -0.371449
v 0.041883 0.158267 -0.371449
v 0.044535 0.167373 -0.371449
v 0.040727 0.164305 -0.371449
v 0.069560 0.167436 -0.371449
v 0.051010 0.186340 -0.364558
v 0.055803 0.197631 -0.371449
v 0.050510 0.187513 -0.371449
v 0.038789 0.189435 -0.371449
v 0.051730 0.205866 -0.371449
v 0.034401 0.197289 -0.371449
v 0.046137 0.208713 -0.371449
v 0.034854 0.202533 -0.371449
v 0.047544 0.192918 -0.364558
v 0.039558 0.207646 -0.371449
v 0.047485 0.193134 -0.371449
v 0.117121 0.158829 -0.371449
v 0.110968 0.167148 -0.371449
v 0.117438 0.164341 -0.371449
v 0.086954 0.145544 -0.371449
v 0.110730 0.166918 -0.371268
v 0.055659 0.197291 -0.371242
v 0.069412 0.167229 -0.371250
v 0.051604 0.205476 -0.371242
v 0.053419 0.167312 -0.371345
v 0.044597 0.167253 -0.371332
v 0.039234 0.189322 -0.371198
v 0.034879 0.197130 -0.371198
v 0.039808 0.207184 -0.371233
v 0.046193 0.208089 -0.371177
v 0.035352 0.202155 -0.371179
v 0.081384 0.130001 -0.371301
v 0.062130 0.146967 -0.371315
v 0.059473 0.154563 -0.371310
v 0.046035 0.154243 -0.371300
v 0.056297 0.144771 -0.371274
v 0.087133 0.145514 -0.371300
v 0.040846 0.164246 -0.371342
v 0.059356 0.154726 -0.371272
v 0.096033 0.141521 -0.371175
v 0.066341 0.154671 -0.371198
v 0.116807 0.164129 -0.371184
v 0.091366 0.154744 -0.371270
v 0.116594 0.158855 -0.371223
v 0.041966 0.158299 -0.371360
v 0.064918 0.137008 -0.371342
v -0.065267 0.129540 -0.371449
v -0.077012 0.144574 -0.366620
v -0.080472 0.141337 -0.371449
v -0.075249 0.154597 -0.371449
v -0.087315 0.159519 -0.365422
v -0.050650 0.154438 -0.371449
v -0.048901 0.160584 -0.364843
v -0.046805 0.166517 -0.371449
v -0.043910 0.154564 -0.371449
v -0.032295 0.160623 -0.364843
v -0.040418 0.144729 -0.371449
v -0.049335 0.136760 -0.371449
v -0.043097 0.145641 -0.367602
v -0.046490 0.147015 -0.371449
v -0.037482 0.167419 -0.371449
v -0.036861 0.154550 -0.366418
v -0.030076 0.154234 -0.371449
v -0.026126 0.158267 -0.371449
v -0.028778 0.167373 -0.371449
v -0.024970 0.164305 -0.371449
v -0.053802 0.167436 -0.371449
v -0.035252 0.186340 -0.364558
v -0.040046 0.197631 -0.371449
v -0.034753 0.187513 -0.371449
v -0.023032 0.189435 -0.371449
v -0.035973 0.205866 -0.371449
v -0.018644 0.197289 -0.371449
v -0.030380 0.208713 -0.371449
v -0.019096 0.202533 -0.371449
v -0.031787 0.192918 -0.364558
v -0.023800 0.207646 -0.371449
v -0.031728 0.193134 -0.371449
v -0.101364 0.158829 -0.371449
v -0.095210 0.167148 -0.371449
v -0.101681 0.164341 -0.371449
v -0.071197 0.145544 -0.371449
v -0.094973 0.166918 -0.371268
v -0.039902 0.197291 -0.371242
v -0.053655 0.167229 -0.371250
v -0.035847 0.205476 -0.371242
v -0.037662 0.167312 -0.371345
v -0.028840 0.167253 -0.371332
v -0.023476 0.189322 -0.371198
v -0.019122 0.197130 -0.371198
v -0.024051 0.207184 -0.371233
v -0.030435 0.208089 -0.371177
v -0.019594 0.202155 -0.371179
v -0.065627 0.130001 -0.371301
v -0.046372 0.146967 -0.371315
v -0.043715 0.154563 -0.371310
v -0.030277 0.154243 -0.371300
v -0.040540 0.144771 -0.371274
v -0.071376 0.145514 -0.371300
v -0.025088 0.164246 -0.371342
v -0.043599 0.154726 -0.371272
v -0.080275 0.141521 -0.371175
v -0.050583 0.154671 -0.371198
v -0.101049 0.164129 -0.371184
v -0.075608 0.154744 -0.371270
v -0.100836 0.158855 -0.371223
v -0.026209 0.158299 -0.371360
v -0.049160 0.137008 -0.371342
vn -0.0000 -0.7208 0.6932
vn -0.5774 0.3806 0.7224
vn 0.5796 0.3720 0.7251
vn 0.5300 0.3493 0.7727
vn 0.5309 0.3478 0.7728
vn 0.5310 0.3476 0.7728
vn -0.5331 0.3421 0.7738
vn -0.5326 0.3429 0.7738
vn -0.5327 0.3428 0.7738
vn -0.0000 -0.6661 0.7459
vn -0.5322 0.3436 0.7737
vn 0.5319 0.3460 0.7729
vn -0.0000 -0.0000 1.0000
vn -0.0000 -0.0000 -1.0000
vn -0.3088 0.5235 0.7941
vn -0.2897 0.5316 0.7959
vn -0.2986 0.5261 0.7962
vn -0.3093 0.5251 0.7928
vn -0.3597 0.5018 0.7867
vn -0.3606 0.5013 0.7865
vn 0.3706 -0.5284 0.7638
vn 0.4146 -0.4949 0.7637
vn 0.4170 -0.4930 0.7636
vn -0.4672 0.4370 0.7686
vn -0.4031 0.4877 0.7744
vn 0.4608 -0.4570 0.7608
vn -0.4178 0.4866 0.7673
vn -0.4640 0.4384 0.7697
vn -0.4462 -0.4382 0.7803
vn -0.5245 0.3905 0.7566
vn -0.5693 0.3421 0.7476
vn -0.5692 0.3422 0.7476
vn 0.6033 -0.2963 0.7405
vn 0.6300 -0.2563 0.7331
vn 0.6309 -0.2548 0.7328
vn -0.6174 0.2718 0.7382
vn -0.6183 0.2706 0.7379
vn 0.6701 -0.1710 0.7223
vn 0.6707 -0.1692 0.7222
vn -0.6684 0.2010 0.7161
vn -0.6508 0.2473 0.7178
vn 0.6818 -0.1277 0.7203
vn -0.6657 0.2528 0.7021
vn -0.6804 0.1906 0.7076
vn -0.6871 0.1629 0.7081
vn -0.1551 -0.4892 0.8583
vn -0.6901 0.1185 0.7140
vn -0.6900 0.1197 0.7138
vn 0.6849 -0.0712 0.7251
vn 0.6936 -0.0265 0.7199
vn 0.6935 -0.0270 0.7199
vn -0.6969 0.0458 0.7157
vn -0.6969 0.0459 0.7157
vn 0.6959 0.0778 0.7139
vn 0.6959 0.0774 0.7139
vn -0.6985 -0.0366 0.7147
vn -0.7001 0.0015 0.7140
vn 0.6878 0.1368 0.7129
vn -0.6946 -0.0388 0.7184
vn -0.6952 -0.0843 0.7138
vn -0.6879 -0.1190 0.7160
vn -0.6877 -0.1194 0.7161
vn 0.6139 0.3155 0.7236
vn 0.5931 0.3600 0.7201
vn 0.5923 0.3616 0.7200
vn -0.6657 -0.1720 0.7262
vn -0.6654 -0.1725 0.7263
vn 0.5479 0.4296 0.7178
vn 0.5473 0.4302 0.7179
vn -0.6308 -0.2331 0.7401
vn -0.6306 -0.2334 0.7402
vn 0.5116 0.4494 0.7323
vn 0.5113 0.4494 0.7325
vn -0.6195 -0.3101 0.7211
vn -0.6191 -0.3087 0.7221
vn 0.5075 0.4828 0.7137
vn 0.5076 0.4831 0.7134
vn -0.6337 -0.3549 0.6874
vn 0.5208 0.5195 0.6774
vn -0.2986 -0.6889 0.6604
vn -0.3848 -0.6762 0.6283
vn -0.5383 -0.6576 0.5271
vn -0.4147 0.4621 0.7839
vn -0.4048 0.4679 0.7856
vn 0.0718 -0.6526 0.7543
vn 0.2120 -0.6021 0.7698
vn 0.0678 -0.6538 0.7536
vn -0.6457 0.2642 0.7164
vn -0.7189 0.1781 0.6719
vn -0.5660 0.3460 0.7483
vn -0.5613 0.3517 0.7492
vn -0.1695 -0.6943 0.6994
vn -0.1748 -0.6937 0.6988
vn -0.7991 0.0967 0.5934
vn -0.6576 -0.5877 0.4713
vn -0.8699 -0.0804 0.4867
vn 0.2428 -0.3399 0.9086
vn 0.4683 -0.1523 0.8703
vn 0.2884 -0.3043 0.9079
vn 0.4682 -0.1462 0.8714
vn -0.1360 0.4259 0.8945
vn 0.0816 -0.4424 0.8931
vn 0.4526 -0.2510 0.8556
vn 0.4569 -0.2439 0.8555
vn 0.4578 -0.2392 0.8562
vn 0.4615 -0.2286 0.8572
vn 0.4616 -0.2248 0.8582
vn 0.0848 0.5154 0.8528
vn 0.1144 -0.6802 0.7241
vn 0.1304 -0.6765 0.7248
vn 0.1298 -0.6766 0.7248
vn 0.1451 -0.6729 0.7254
vn 0.5914 0.2386 0.7703
vn -0.7091 -0.2045 0.6748
vn 0.3056 -0.4680 0.8292
vn 0.3145 -0.4633 0.8285
vn 0.3110 -0.4717 0.8251
vn 0.3088 -0.4818 0.8201
vn 0.2998 -0.4948 0.8156
vn 0.3918 0.4735 0.7889
vn 0.3088 0.5235 0.7941
vn 0.2986 0.5261 0.7962
vn 0.2897 0.5316 0.7959
vn 0.3093 0.5251 0.7928
vn 0.3606 0.5013 0.7865
vn 0.3597 0.5018 0.7867
vn -0.3706 -0.5284 0.7638
vn -0.4170 -0.4930 0.7636
vn -0.4146 -0.4949 0.7637
vn 0.4031 0.4877 0.7744
vn 0.4672 0.4370 0.7686
vn -0.4608 -0.4570 0.7608
vn 0.4178 0.4866 0.7673
vn 0.4640 0.4384 0.7697
vn 0.4462 -0.4382 0.7803
vn 0.5245 0.3905 0.7566
vn 0.5692 0.3422 0.7476
vn 0.5693 0.3421 0.7476
vn -0.6033 -0.2963 0.7405
vn -0.6309 -0.2548 0.7328
vn -0.6300 -0.2563 0.7331
vn 0.6183 0.2706 0.7379
vn 0.6174 0.2718 0.7382
vn -0.6707 -0.1692 0.7222
vn -0.6701 -0.1710 0.7223
vn 0.6508 0.2473 0.7178
vn 0.6684 0.2010 0.7161
vn -0.6818 -0.1277 0.7203
vn 0.6657 0.2528 0.7021
vn 0.6804 0.1906 0.7076
vn 0.6871 0.1629 0.7081
vn 0.1551 -0.4892 0.8583
vn 0.6900 0.1197 0.7138
vn 0.6901 0.1185 0.7140
vn -0.6849 -0.0712 0.7251
vn -0.6935 -0.0270 0.7199
vn -0.6936 -0.0265 0.7199
vn 0.6969 0.0459 0.7157
vn 0.6969 0.0458 0.7157
vn -0.6959 0.0774 0.7139
vn -0.6959 0.0778 0.7139
vn 0.7001 0.0015 0.7140
vn 0.6985 -0.0366 0.7147
vn -0.6878 0.1368 0.7129
vn 0.6946 -0.0388 0.7184
vn 0.6952 -0.0843 0.7138
vn 0.6877 -0.1194 0.7161
vn 0.6879 -0.1190 0.7160
vn -0.6139 0.3155 0.7236
vn -0.5923 0.3616 0.7200
vn -0.5931 0.3600 0.7201
vn 0.6654 -0.1725 0.7263
vn 0.6657 -0.1720 0.7262
vn -0.5473 0.4302 0.7179
vn -0.5479 0.4296 0.7178
vn 0.6306 -0.2334 0.7402
vn 0.6308 -0.2331 0.7401
vn -0.5113 0.4494 0.7325
vn -0.5116 0.4494 0.7323
vn 0.6191 -0.3087 0.7221
vn 0.6195 -0.3101 0.7211
vn -0.5076 0.4831 0.7134
vn -0.5075 0.4828 0.7137
vn 0.6337 -0.3549 0.6874
vn -0.5208 0.5195 0.6774
vn 0.2986 -0.6889 0.6604
vn 0.5383 -0.6576 0.5271
vn 0.3848 -0.6762 0.6283
vn 0.4147 0.4621 0.7839
vn 0.4048 0.4679 0.7856
vn -0.0718 -0.6526 0.7543
vn -0.0678 -0.6538 0.7536
vn -0.2120 -0.6021 0.7698
vn 0.6457 0.2642 0.7164
vn 0.5613 0.3517 0.7492
vn 0.5660 0.3460 0.7483
vn 0.7189 0.1781 0.6719
vn 0.1748 -0.6937 0.6988
vn 0.1695 -0.6943 0.6994
vn 0.7991 0.0967 0.5934
vn 0.6576 -0.5877 0.4713
vn 0.8699 -0.0804 0.4867
vn -0.2428 -0.3399 0.9086
vn -0.2884 -0.3043 0.9079
vn -0.4683 -0.1523 0.8703
vn -0.4682 -0.1462 0.8714
vn 0.1360 0.4259 0.8945
vn -0.0816 -0.4424 0.8931
vn -0.4526 -0.2510 0.8556
vn -0.4578 -0.2392 0.8562
vn -0.4569 -0.2439 0.8555
vn -0.4615 -0.2286 0.8572
vn -0.4616 -0.2248 0.8582
vn -0.0848 0.5154 0.8528
vn -0.1144 -0.6802 0.7241
vn -0.1298 -0.6766 0.7248
vn -0.1304 -0.6765 0.7248
vn -0.1451 -0.6729 0.7254
vn -0.5914 0.2386 0.7703
vn 0.7091 -0.2045 0.6748
vn -0.3056 -0.4680 0.8292
vn -0.3110 -0.4717 0.8251
vn -0.3145 -0.4633 0.8285
vn -0.3088 -0.4818 0.8201
vn -0.2998 -0.4948 0.8156
vn -0.3918 0.4735 0.7889
vn 0.4969 0.2598 0.8280
vn 0.4911 0.2754 0.8264
vn 0.5176 0.2020 0.8314
vn 0.5187 0.1992 0.8314
vn 0.5212 0.2042 0.8287
vn 0.5219 0.2005 0.8291
vn 0.5200 0.2298 0.8227
vn 0.5210 0.2290 0.8223
vn 0.5518 0.2387 0.7991
vn 0.5479 0.2360 0.8026
vn 0.6036 0.2454 0.7586
vn 0.6050 0.2447 0.7577
vn 0.6381 0.2278 0.7355
vn 0.4594 0.3672 0.8088
vn 0.4472 0.4006 0.7997
vn 0.4347 0.4327 0.7898
vn 0.3987 -0.4191 0.8157
vn 0.4913 -0.3829 0.7823
vn 0.4644 -0.3940 0.7931
vn 0.6709 -0.2721 0.6899
vn 0.6619 -0.2801 0.6953
vn 0.7663 -0.1046 0.6339
vn 0.7657 -0.1078 0.6341
vn 0.7650 0.0152 0.6439
vn 0.7627 0.0177 0.6466
vn 0.7192 0.1314 0.6822
vn 0.7139 0.1477 0.6845
vn 0.6836 0.2287 0.6931
vn 0.6466 -0.2350 0.7258
vn -0.4969 0.2598 0.8280
vn -0.5187 0.1992 0.8314
vn -0.5176 0.2020 0.8314
vn -0.4911 0.2754 0.8264
vn -0.5212 0.2042 0.8287
vn -0.5210 0.2290 0.8223
vn -0.5200 0.2298 0.8227
vn -0.5219 0.2005 0.8291
vn -0.5518 0.2387 0.7991
vn -0.6050 0.2447 0.7577
vn -0.6036 0.2454 0.7586
vn -0.5479 0.2360 0.8026
vn -0.6381 0.2278 0.7355
vn -0.4594 0.3672 0.8088
vn -0.4472 0.4006 0.7997
vn -0.4347 0.4327 0.7898
vn -0.3987 -0.4191 0.8157
vn -0.4644 -0.3940 0.7931
vn -0.4913 -0.3829 0.7823
vn -0.6619 -0.2801 0.6953
vn -0.6709 -0.2721 0.6899
vn -0.7657 -0.1078 0.6341
vn -0.7663 -0.1046 0.6339
vn -0.7627 0.0177 0.6466
vn -0.7650 0.0152 0.6439
vn -0.7139 0.1477 0.6845
vn -0.7192 0.1314 0.6822
vn -0.6836 0.2287 0.6931
vn -0.6466 -0.2350 0.7258
vn 0.6610 0.2053 0.7217
vn 0.6576 0.2192 0.7207
vn 0.7003 0.1942 0.6869
vn -0.6006 0.2226 0.7680
vn -0.5721 0.2428 0.7834
vn -0.5752 0.2325 0.7843
vn -0.5670 -0.3439 0.7485
vn -0.5703 -0.3391 0.7482
vn -0.5560 -0.3226 0.7661
vn -0.5404 -0.3212 0.7777
vn -0.5535 -0.5792 0.5985
vn -0.5510 -0.5893 0.5909
vn -0.5611 -0.6278 0.5395
vn 0.5781 0.2359 0.7811
vn 0.6424 0.2410 0.7275
vn 0.5891 0.2339 0.7735
vn -0.5185 -0.5259 0.6742
vn -0.5444 -0.5981 0.5881
vn -0.5210 -0.5422 0.6592
vn -0.0050 -0.7428 0.6695
vn -0.0051 -0.7371 0.6758
vn -0.0068 -0.7377 0.6751
vn -0.0053 -0.7447 0.6674
vn -0.4158 0.5162 0.7488
vn -0.2146 0.6222 0.7529
vn -0.2315 0.6145 0.7542
vn 0.5664 0.2198 0.7943
vn 0.5664 0.2199 0.7943
vn -0.6248 -0.3138 0.7149
vn -0.6183 -0.3315 0.7127
vn -0.0840 0.6723 0.7355
vn -0.0001 0.6971 0.7170
vn -0.0009 0.6967 0.7174
vn -0.5689 -0.4298 0.7012
vn -0.6999 -0.1341 0.7015
vn -0.0049 -0.7502 0.6612
vn -0.0032 -0.7504 0.6610
vn 0.5717 0.2707 0.7745
vn 0.5791 0.2643 0.7712
vn 0.5450 0.2630 0.7961
vn 0.5507 0.2664 0.7911
vn -0.0423 0.0744 0.9963
vn -0.4950 -0.1268 0.8596
vn 0.3737 0.3407 0.8627
vn 0.0722 0.4042 0.9118
vn 0.0486 0.4031 0.9139
vn -0.1805 0.3348 0.9248
vn -0.1802 0.3350 0.9248
vn -0.3638 0.1755 0.9148
vn -0.3774 0.1561 0.9128
vn 0.3212 0.3632 0.8746
vn -0.4821 -0.0684 0.8735
vn 0.4067 -0.1841 0.8948
vn 0.4093 -0.2489 0.8778
vn 0.4241 -0.5088 0.7492
vn 0.4208 -0.5207 0.7429
vn 0.0465 0.6236 0.7804
vn 0.2033 0.4687 0.8596
vn 0.1069 0.5668 0.8169
vn 0.3932 -0.0226 0.9192
vn 0.4403 -0.5675 0.6958
vn -0.5428 0.2750 0.7936
vn -0.5427 0.2446 0.8035
vn 0.0127 0.6509 0.7590
vn 0.0169 0.6488 0.7608
vn 0.1414 0.5329 0.8343
vn 0.0049 0.6549 0.7557
vn 0.5536 0.2720 0.7871
vn 0.5673 0.2744 0.7764
vn -0.5311 -0.3115 0.7880
vn -0.0036 0.6953 0.7187
vn -0.5538 -0.3627 0.7495
vn -0.5275 -0.5295 0.6643
vn 0.4100 -0.3654 0.8357
vn 0.4239 -0.4859 0.7644
vn 0.6122 0.2161 0.7606
vn -0.0134 -0.7399 0.6726
vn -0.0033 -0.7463 0.6656
vn 0.0045 -0.7511 0.6602
vn -0.5632 0.2644 0.7829
vn -0.5426 0.2861 0.7897
vn -0.6610 0.2053 0.7217
vn -0.7003 0.1942 0.6869
vn -0.6576 0.2192 0.7207
vn 0.6006 0.2226 0.7680
vn 0.5752 0.2325 0.7842
vn 0.5721 0.2428 0.7834
vn 0.5670 -0.3439 0.7485
vn 0.5404 -0.3212 0.7777
vn 0.5560 -0.3226 0.7661
vn 0.5703 -0.3391 0.7482
vn 0.5535 -0.5792 0.5985
vn 0.5611 -0.6278 0.5395
vn 0.5510 -0.5893 0.5909
vn -0.5781 0.2359 0.7811
vn -0.5891 0.2339 0.7735
vn -0.6424 0.2410 0.7275
vn 0.5185 -0.5259 0.6742
vn 0.5210 -0.5422 0.6592
vn 0.5444 -0.5981 0.5881
vn 0.0050 -0.7428 0.6695
vn 0.0053 -0.7447 0.6674
vn 0.0068 -0.7377 0.6751
vn 0.0051 -0.7371 0.6758
vn 0.4158 0.5162 0.7488
vn 0.2315 0.6145 0.7542
vn 0.2146 0.6222 0.7529
vn -0.5664 0.2198 0.7943
vn -0.5664 0.2199 0.7943
vn 0.6248 -0.3138 0.7149
vn 0.6183 -0.3315 0.7127
vn 0.0009 0.6967 0.7174
vn 0.0001 0.6971 0.7170
vn 0.0840 0.6723 0.7355
vn 0.5689 -0.4298 0.7012
vn 0.6999 -0.1341 0.7015
vn 0.0049 -0.7502 0.6612
vn 0.0032 -0.7504 0.6610
vn -0.5717 0.2707 0.7745
vn -0.5507 0.2664 0.7911
vn -0.5450 0.2630 0.7961
vn -0.5791 0.2643 0.7712
vn 0.4950 -0.1268 0.8596
vn 0.0423 0.0744 0.9963
vn -0.0722 0.4042 0.9118
vn -0.3737 0.3407 0.8627
vn -0.0486 0.4031 0.9139
vn 0.1802 0.3350 0.9248
vn 0.1805 0.3348 0.9248
vn 0.3774 0.1561 0.9128
vn 0.3638 0.1755 0.9148
vn -0.3212 0.3632 0.8746
vn 0.4821 -0.0684 0.8735
vn -0.4067 -0.1841 0.8948
vn -0.4208 -0.5207 0.7429
vn -0.4241 -0.5088 0.7492
vn -0.4093 -0.2489 0.8778
vn -0.0465 0.6236 0.7804
vn -0.1069 0.5668 0.8169
vn -0.2033 0.4687 0.8596
vn -0.3932 -0.0226 0.9192
vn -0.4403 -0.5675 0.6958
vn 0.5427 0.2446 0.8035
vn 0.5428 0.2750 0.7936
vn -0.0169 0.6488 0.7608
vn -0.0127 0.6509 0.7590
vn -0.1414 0.5329 0.8343
vn -0.0049 0.6549 0.7557
vn -0.5536 0.2720 0.7871
vn -0.5673 0.2744 0.7764
vn 0.5311 -0.3115 0.7880
vn 0.0036 0.6953 0.7187
vn 0.5538 -0.3627 0.7495
vn 0.5275 -0.5295 0.6643
vn -0.4239 -0.4859 0.7644
vn -0.4100 -0.3654 0.8357
vn -0.6122 0.2161 0.7606
vn 0.0033 -0.7463 0.6656
vn 0.0134 -0.7399 0.6726
vn -0.0045 -0.7511 0.6602
vn 0.5632 0.2644 0.7829
vn 0.5426 0.2861 0.7897
vt 0.469307 0.813611
vt 0.472904 0.932004
vt 0.462447 0.914753
vt 0.461758 0.828687
vt 0.401152 0.872465
vt 0.382776 0.873690
vt 0.462429 0.914770
vt 0.384461 0.767695
vt 0.376325 0.753380
vt 0.473512 0.804797
vt 0.387606 0.979195
vt 0.477460 0.940767
vt 0.379689 0.993795
vt 0.373672 0.873937
vt 0.560912 0.870774
vt 0.576478 0.872221
vt 0.576435 0.868551
vt 0.491852 0.695358
vt 0.481935 0.677912
vt 0.586164 0.631649
vt 0.585819 0.745935
vt 0.565797 0.743777
vt 0.491115 0.776086
vt 0.586164 0.860251
vt 0.480900 0.791324
vt 0.378395 0.724204
vt 0.813033 0.592031
vt 0.873318 0.586476
vt 0.871457 0.596589
vt 0.815148 0.599077
vt 0.071749 0.166106
vt 0.049339 0.196157
vt 0.040161 0.189374
vt 0.056980 0.202456
vt 0.090027 0.183971
vt 0.063741 0.208817
vt 0.108274 0.153929
vt 0.114269 0.160446
vt 0.106815 0.206289
vt 0.069415 0.214686
vt 0.122159 0.170258
vt 0.073597 0.220240
vt 0.841753 0.504717
vt 0.832768 0.494890
vt 0.974153 0.394276
vt 0.980806 0.423873
vt 0.076952 0.225722
vt 0.226050 0.108583
vt 0.222011 0.148243
vt 0.079901 0.231938
vt 0.856575 0.526850
vt 0.849609 0.515136
vt 0.987385 0.445611
vt 0.994388 0.472505
vt 0.111858 0.230845
vt 0.081618 0.237379
vt 0.141194 0.218155
vt 0.141449 0.228039
vt 0.112668 0.239728
vt 0.083158 0.243852
vt 0.141313 0.238189
vt 0.112243 0.263659
vt 0.084366 0.250774
vt 0.141275 0.240744
vt 0.084800 0.257500
vt 0.084573 0.263433
vt 0.788652 0.465779
vt 0.775179 0.459264
vt 0.863972 0.257170
vt 0.892400 0.285115
vt 0.083817 0.269972
vt 0.301328 0.248643
vt 0.274538 0.286391
vt 0.105871 0.284696
vt 0.082201 0.277132
vt 0.130777 0.290166
vt 0.127818 0.295555
vt 0.102067 0.293553
vt 0.080082 0.284698
vt 0.122520 0.304894
vt 0.090745 0.313930
vt 0.077137 0.293120
vt 0.120672 0.307719
vt 0.072684 0.302464
vt 0.752928 0.453673
vt 0.730206 0.450604
vt 0.730215 0.449765
vt 0.753247 0.452708
vt 0.066769 0.312201
vt 0.069295 0.331439
vt 0.059612 0.321779
vt 0.079616 0.341778
vt 0.075989 0.343314
vt 0.058622 0.338506
vt 0.052074 0.330950
vt 0.062944 0.347565
vt 0.047978 0.344667
vt 0.044059 0.339321
vt 0.050491 0.350939
vt 0.035763 0.350136
vt 0.034374 0.347539
vt 0.036759 0.354502
vt 0.027075 0.354238
vt 0.025271 0.354615
vt 0.037071 0.137056
vt 0.035721 0.153478
vt 0.030490 0.143733
vt 0.051921 0.158320
vt 0.035240 0.184753
vt 0.052437 0.129967
vt 0.061875 0.128693
vt 0.826103 0.614668
vt 0.862169 0.613116
vt 0.853941 0.619425
vt 0.846112 0.622800
vt 0.835192 0.620216
vt 0.026720 0.170075
vt 0.044679 0.156144
vt 0.030302 0.178240
vt 0.044643 0.132597
vt 0.868039 0.604883
vt 0.819203 0.607003
vt 0.025271 0.160630
vt 0.026327 0.150420
vt 0.810818 0.578578
vt 0.870374 0.569706
vt 0.808603 0.566880
vt 0.864907 0.549475
vt 0.806366 0.556757
vt 0.861719 0.540124
vt 0.803924 0.547969
vt 0.855833 0.527239
vt 0.801144 0.540271
vt 0.848913 0.515604
vt 0.797944 0.533416
vt 0.841111 0.505257
vt 0.793788 0.526450
vt 0.832185 0.495493
vt 0.654004 0.470844
vt 0.655588 0.475790
vt 0.640709 0.478055
vt 0.668789 0.464562
vt 0.670804 0.474225
vt 0.682703 0.459153
vt 0.684463 0.474450
vt 0.697938 0.454492
vt 0.698357 0.475969
vt 0.702393 0.453674
vt 0.712107 0.478386
vt 0.725045 0.481466
vt 0.736601 0.485030
vt 0.756751 0.454274
vt 0.746023 0.488721
vt 0.768338 0.457799
vt 0.754066 0.492564
vt 0.774997 0.460252
vt 0.761320 0.496606
vt 0.788267 0.466522
vt 0.767866 0.500779
vt 0.796370 0.471026
vt 0.773535 0.504901
vt 0.812166 0.480249
vt 0.779477 0.510211
vt 0.814520 0.481714
vt 0.785076 0.515723
vt 0.823731 0.488396
vt 0.789986 0.521329
vt 0.812215 0.592220
vt 0.809994 0.578724
vt 0.871194 0.569532
vt 0.874168 0.586478
vt 0.807783 0.567049
vt 0.865703 0.549213
vt 0.805554 0.556960
vt 0.862498 0.539814
vt 0.803126 0.548224
vt 0.800370 0.540591
vt 0.797204 0.533807
vt 0.793088 0.526912
vt 0.789332 0.521853
vt 0.824254 0.487740
vt 0.784467 0.516298
vt 0.814988 0.481019
vt 0.778904 0.510822
vt 0.812669 0.479416
vt 0.773008 0.505553
vt 0.796776 0.470294
vt 0.767394 0.501472
vt 0.760891 0.497325
vt 0.753682 0.493308
vt 0.768615 0.457008
vt 0.745689 0.489489
vt 0.756956 0.453461
vt 0.736324 0.485821
vt 0.697741 0.453677
vt 0.702252 0.452862
vt 0.724824 0.482275
vt 0.711937 0.479206
vt 0.698238 0.476798
vt 0.682428 0.458362
vt 0.684411 0.475286
vt 0.670840 0.475063
vt 0.668474 0.463786
vt 0.655693 0.476621
vt 0.653640 0.470088
vt 0.636098 0.479604
vt 0.854371 0.620121
vt 0.846184 0.623637
vt 0.834860 0.620968
vt 0.825549 0.615289
vt 0.818504 0.607472
vt 0.814367 0.599388
vt 0.868778 0.605281
vt 0.862786 0.613672
vt 0.872264 0.596823
vt 0.279706 0.447923
vt 0.269284 0.493043
vt 0.239185 0.470398
vt 0.250094 0.549744
vt 0.754776 0.178827
vt 0.795836 0.210498
vt 0.700494 0.139561
vt 0.306408 0.281328
vt 0.307954 0.302641
vt 0.308728 0.337197
vt 0.909646 0.302759
vt 0.935385 0.330910
vt 0.090013 0.044879
vt 0.117155 0.049135
vt 0.109676 0.073343
vt 0.146877 0.059349
vt 0.987825 0.571294
vt 0.982859 0.602667
vt 0.991865 0.535152
vt 0.242364 0.126066
vt 0.254332 0.141463
vt 0.270669 0.161696
vt 0.845816 0.645873
vt 0.850010 0.640538
vt 0.897511 0.661682
vt 0.895695 0.670992
vt 0.628360 0.418175
vt 0.649948 0.452406
vt 0.638582 0.455468
vt 0.628874 0.458645
vt 0.619987 0.462211
vt 0.604085 0.428460
vt 0.597858 0.392742
vt 0.589649 0.396746
vt 0.612330 0.465714
vt 0.579566 0.443582
vt 0.578380 0.403203
vt 0.606224 0.469476
vt 0.840999 0.730525
vt 0.933084 0.846867
vt 0.917383 0.870030
vt 0.829968 0.735929
vt 0.600940 0.473479
vt 0.490753 0.344501
vt 0.501791 0.304888
vt 0.595769 0.478341
vt 0.861195 0.716528
vt 0.961160 0.809702
vt 0.946070 0.830426
vt 0.851260 0.724232
vt 0.592074 0.482920
vt 0.565485 0.465271
vt 0.542082 0.442048
vt 0.538120 0.451446
vt 0.588160 0.488558
vt 0.561366 0.473498
vt 0.534432 0.461246
vt 0.584396 0.494752
vt 0.552774 0.496644
vt 0.533508 0.463714
vt 0.581449 0.501050
vt 0.579436 0.506834
vt 0.782269 0.746029
vt 0.810350 0.936147
vt 0.776512 0.950541
vt 0.768503 0.747074
vt 0.577702 0.513399
vt 0.388341 0.457434
vt 0.376807 0.411101
vt 0.576561 0.520884
vt 0.550982 0.519246
vt 0.525002 0.515133
vt 0.525817 0.521421
vt 0.575751 0.528948
vt 0.551304 0.529184
vt 0.527393 0.532384
vt 0.575412 0.538145
vt 0.554514 0.553014
vt 0.528106 0.535793
vt 0.576175 0.548795
vt 0.747514 0.744362
vt 0.747462 0.745299
vt 0.726695 0.740050
vt 0.726971 0.739327
vt 0.578193 0.560372
vt 0.581465 0.572263
vt 0.568531 0.577900
vt 0.554729 0.583948
vt 0.557635 0.586788
vt 0.585256 0.583907
vt 0.576125 0.588701
vt 0.568567 0.595777
vt 0.589806 0.594962
vt 0.584031 0.598623
vt 0.579258 0.603702
vt 0.596017 0.606498
vt 0.593706 0.608470
vt 0.591108 0.612289
vt 0.602099 0.616718
vt 0.600509 0.615678
vt 0.672594 0.403316
vt 0.676403 0.412205
vt 0.667714 0.419598
vt 0.650334 0.418155
vt 0.656413 0.449818
vt 0.660502 0.390728
vt 0.651916 0.385954
vt 0.864678 0.630851
vt 0.874354 0.629156
vt 0.884601 0.630625
vt 0.890182 0.636164
vt 0.895116 0.644358
vt 0.670117 0.438924
vt 0.663606 0.445419
vt 0.658107 0.418789
vt 0.666999 0.396185
vt 0.856167 0.635102
vt 0.897376 0.653407
vt 0.675062 0.430397
vt 0.677887 0.420193
vt 0.887507 0.684395
vt 0.839374 0.656675
vt 0.875985 0.699918
vt 0.833523 0.665969
vt 0.870091 0.706869
vt 0.828186 0.673905
vt 0.860689 0.715944
vt 0.823123 0.680625
vt 0.850820 0.723596
vt 0.818138 0.686295
vt 0.840630 0.729846
vt 0.813077 0.691100
vt 0.829671 0.735215
vt 0.807157 0.695677
vt 0.668385 0.696230
vt 0.659406 0.685551
vt 0.671414 0.692518
vt 0.678957 0.706613
vt 0.683948 0.698998
vt 0.689076 0.715953
vt 0.695751 0.703415
vt 0.700582 0.725098
vt 0.708191 0.706801
vt 0.704130 0.727303
vt 0.720811 0.709367
vt 0.732958 0.711090
vt 0.744081 0.711932
vt 0.750998 0.745137
vt 0.753416 0.711944
vt 0.762136 0.746022
vt 0.761618 0.711360
vt 0.768680 0.746164
vt 0.769211 0.710339
vt 0.782189 0.745260
vt 0.776238 0.708965
vt 0.790665 0.744129
vt 0.782496 0.707340
vt 0.807340 0.741543
vt 0.789390 0.704787
vt 0.809855 0.741081
vt 0.796057 0.701945
vt 0.820018 0.738454
vt 0.802165 0.698790
vt 0.838715 0.656271
vt 0.845178 0.645435
vt 0.896426 0.671277
vt 0.888152 0.684821
vt 0.832876 0.665548
vt 0.876579 0.700411
vt 0.827557 0.673456
vt 0.870655 0.707398
vt 0.822524 0.680137
vt 0.817581 0.685759
vt 0.812573 0.690514
vt 0.801780 0.698119
vt 0.806713 0.695045
vt 0.820245 0.739192
vt 0.795728 0.701246
vt 0.810021 0.741835
vt 0.789105 0.704069
vt 0.807490 0.742429
vt 0.782265 0.706602
vt 0.790767 0.744895
vt 0.776067 0.708211
vt 0.769085 0.709576
vt 0.761540 0.710591
vt 0.762106 0.746795
vt 0.753389 0.711172
vt 0.750900 0.745904
vt 0.744111 0.711160
vt 0.703735 0.727952
vt 0.700137 0.725731
vt 0.733041 0.710322
vt 0.720942 0.708606
vt 0.708369 0.706049
vt 0.688573 0.716540
vt 0.684262 0.698290
vt 0.695988 0.702679
vt 0.678425 0.707173
vt 0.671785 0.691840
vt 0.667817 0.696755
vt 0.655970 0.682664
vt 0.884945 0.629930
vt 0.890786 0.635712
vt 0.874323 0.628399
vt 0.855726 0.634464
vt 0.864412 0.630131
vt 0.849445 0.640007
vt 0.895834 0.644089
vt 0.898145 0.653316
vt 0.898283 0.661753
vt 0.322621 0.610641
vt 0.353087 0.647469
vt 0.315660 0.657898
vt 0.312766 0.719578
vt 0.702264 0.967609
vt 0.656324 0.980938
vt 0.596469 0.996324
vt 0.359635 0.440584
vt 0.350133 0.460474
vt 0.336392 0.493374
vt 0.862711 0.911343
vt 0.831112 0.926821
vt 0.656414 0.294868
vt 0.626821 0.314812
vt 0.628743 0.288747
vt 0.596354 0.287379
vt 0.995200 0.694068
vt 0.988873 0.722678
vt 0.980141 0.755069
vt 0.479546 0.315545
vt 0.462259 0.325833
vt 0.438958 0.339121
vt 0.100592 0.845834
vt 0.178130 0.844612
vt 0.166109 0.866698
vt 0.100785 0.861435
vt 0.101017 0.880316
vt 0.159486 0.885307
vt 0.150858 0.902916
vt 0.101219 0.896705
vt 0.101491 0.918730
vt 0.139545 0.923947
vt 0.126592 0.945225
vt 0.101760 0.940560
vt 0.102455 0.996965
vt 0.100496 0.838019
vt 0.186309 0.834648
vt 0.100405 0.830625
vt 0.199579 0.824156
vt 0.100080 0.804245
vt 0.161704 0.794608
vt 0.099840 0.784773
vt 0.147393 0.777344
vt 0.099656 0.769830
vt 0.142786 0.766363
vt 0.099437 0.752076
vt 0.142169 0.747315
vt 0.099189 0.731998
vt 0.143252 0.727983
vt 0.098940 0.711806
vt 0.148954 0.705462
vt 0.097596 0.602741
vt 0.035609 0.868306
vt 0.023048 0.846523
vt 0.051749 0.904138
vt 0.042690 0.886747
vt 0.077050 0.945836
vt 0.063576 0.924884
vt 0.014625 0.836763
vt 0.001101 0.826602
vt 0.038236 0.796130
vt 0.052118 0.778518
vt 0.056453 0.767427
vt 0.056601 0.748369
vt 0.055041 0.729070
vt 0.048785 0.706696
vt 0.305657 0.740499
vt 0.250632 0.739655
vt 0.250669 0.720621
vt 0.299926 0.721389
vt 0.162597 0.780830
vt 0.250553 0.781137
vt 0.250509 0.803869
vt 0.202128 0.802189
vt 0.212580 0.889854
vt 0.250343 0.889824
vt 0.250143 0.993841
vt 0.221927 0.870442
vt 0.250381 0.869934
vt 0.224862 0.849825
vt 0.250420 0.849688
vt 0.226000 0.829674
vt 0.250458 0.830153
vt 0.219926 0.818232
vt 0.250479 0.819497
vt 0.174301 0.773434
vt 0.250570 0.772102
vt 0.183338 0.763220
vt 0.250589 0.762246
vt 0.195605 0.740287
vt 0.250704 0.702574
vt 0.291992 0.703473
vt 0.250746 0.680745
vt 0.281266 0.681719
vt 0.250788 0.658915
vt 0.268463 0.659767
vt 0.250882 0.610214
vt 0.326833 0.773728
vt 0.338509 0.781169
vt 0.317836 0.763479
vt 0.209413 0.703314
vt 0.220222 0.681601
vt 0.233110 0.659699
vt 0.201410 0.721199
vt 0.298895 0.802375
vt 0.278833 0.870551
vt 0.288106 0.890000
vt 0.274918 0.829768
vt 0.275979 0.849924
vt 0.281036 0.818350
vt 0.307447 0.739764
vt 0.319432 0.762378
vt 0.293736 0.702657
vt 0.301736 0.720720
vt 0.270217 0.658953
vt 0.282963 0.680807
vt 0.250893 0.604486
vt 0.328099 0.772252
vt 0.342318 0.781313
vt 0.300007 0.803964
vt 0.282573 0.819559
vt 0.276869 0.830203
vt 0.277897 0.849741
vt 0.280700 0.869992
vt 0.290192 0.889901
vt 0.250132 0.999478
vt 0.181746 0.762113
vt 0.193818 0.739545
vt 0.199603 0.720523
vt 0.207672 0.702491
vt 0.218529 0.680683
vt 0.231359 0.658878
vt 0.173041 0.771953
vt 0.158787 0.780960
vt 0.201010 0.803773
vt 0.218385 0.819435
vt 0.224047 0.830102
vt 0.222944 0.849635
vt 0.220063 0.869875
vt 0.210494 0.889747
vt 0.625232 0.133971
vt 0.625457 0.133673
vt 0.643344 0.143806
vt 0.643703 0.144344
vt 0.626415 0.205479
vt 0.625183 0.205322
vt 0.595816 0.188676
vt 0.596097 0.188286
vt 0.593813 0.087759
vt 0.589131 0.120367
vt 0.559715 0.065234
vt 0.570892 0.039954
vt 0.631393 0.125926
vt 0.638911 0.121394
vt 0.620432 0.107467
vt 0.612627 0.123475
vt 0.631159 0.094231
vt 0.639283 0.121175
vt 0.630849 0.094631
vt 0.613212 0.094576
vt 0.612413 0.123112
vt 0.603544 0.135001
vt 0.457336 0.256841
vt 0.456665 0.232092
vt 0.468733 0.237987
vt 0.485820 0.233702
vt 0.486655 0.195430
vt 0.498545 0.210749
vt 0.564491 0.303820
vt 0.508469 0.297218
vt 0.501625 0.277276
vt 0.521014 0.270513
vt 0.617718 0.075020
vt 0.617639 0.075363
vt 0.607864 0.076604
vt 0.607757 0.076253
vt 0.509870 0.219980
vt 0.513031 0.162771
vt 0.535786 0.156363
vt 0.456280 0.203015
vt 0.476434 0.223377
vt 0.464188 0.181016
vt 0.456740 0.191338
vt 0.627015 0.083478
vt 0.626815 0.083640
vt 0.474217 0.182391
vt 0.551253 0.195186
vt 0.576514 0.180920
vt 0.517196 0.150229
vt 0.542397 0.138530
vt 0.565892 0.121963
vt 0.565199 0.121996
vt 0.531670 0.061537
vt 0.532555 0.061672
vt 0.499271 0.142392
vt 0.552880 0.052464
vt 0.560915 0.023770
vt 0.524539 0.043868
vt 0.527038 0.031102
vt 0.504861 0.124625
vt 0.525890 0.030151
vt 0.536082 0.019742
vt 0.536649 0.020850
vt 0.551088 0.017408
vt 0.551165 0.018892
vt 0.513399 0.117856
vt 0.527782 0.117672
vt 0.538737 0.126063
vt 0.523586 0.043589
vt 0.561255 0.022606
vt 0.532966 0.221229
vt 0.533643 0.220263
vt 0.588124 0.213180
vt 0.588184 0.213961
vt 0.568274 0.282734
vt 0.573241 0.296465
vt 0.524793 0.213946
vt 0.526453 0.200189
vt 0.523586 0.214801
vt 0.577312 0.180526
vt 0.469103 0.291087
vt 0.525681 0.200348
vt 0.571318 0.038954
vt 0.593905 0.087294
vt 0.587409 0.200453
vt 0.612429 0.123925
vt 0.604075 0.135522
vt 0.316334 0.199751
vt 0.297864 0.210124
vt 0.298223 0.209586
vt 0.316109 0.199454
vt 0.315151 0.271260
vt 0.345470 0.254067
vt 0.345751 0.254456
vt 0.316383 0.271103
vt 0.347754 0.153540
vt 0.370674 0.105734
vt 0.381851 0.131015
vt 0.352436 0.186148
vt 0.310173 0.191706
vt 0.302656 0.187174
vt 0.321135 0.173247
vt 0.328940 0.189255
vt 0.310408 0.160011
vt 0.310718 0.160412
vt 0.302283 0.186955
vt 0.338023 0.200782
vt 0.329154 0.188892
vt 0.328355 0.160356
vt 0.491810 0.126647
vt 0.477009 0.110328
vt 0.487724 0.102229
vt 0.459418 0.109398
vt 0.442530 0.089309
vt 0.451263 0.071996
vt 0.395645 0.193295
vt 0.431932 0.152272
vt 0.452258 0.155193
vt 0.449363 0.176078
vt 0.323849 0.140801
vt 0.333810 0.142033
vt 0.333702 0.142385
vt 0.323928 0.141144
vt 0.433184 0.100540
vt 0.395555 0.043070
vt 0.419116 0.044997
vt 0.466651 0.097465
vt 0.482529 0.073618
vt 0.470550 0.053542
vt 0.479839 0.062245
vt 0.314552 0.149259
vt 0.314752 0.149421
vt 0.460971 0.056814
vt 0.390313 0.260967
vt 0.365053 0.246700
vt 0.385648 0.026834
vt 0.412624 0.033486
vt 0.375674 0.187744
vt 0.409012 0.127452
vt 0.409896 0.127317
vt 0.376367 0.187777
vt 0.428715 0.022359
vt 0.380651 0.089550
vt 0.388687 0.118244
vt 0.414528 0.096882
vt 0.417027 0.109648
vt 0.419823 0.005992
vt 0.415677 0.095931
vt 0.404918 0.086631
vt 0.405484 0.085522
vt 0.390402 0.084673
vt 0.390478 0.083189
vt 0.410146 0.000985
vt 0.395994 0.003562
vt 0.386851 0.013897
vt 0.417981 0.109369
vt 0.380311 0.088386
vt 0.408600 0.287010
vt 0.353383 0.279742
vt 0.353443 0.278960
vt 0.407924 0.286043
vt 0.387891 0.173325
vt 0.385648 0.187753
vt 0.415113 0.265970
vt 0.416774 0.279726
vt 0.417981 0.280582
vt 0.364255 0.246306
vt 0.486824 0.162514
vt 0.415885 0.266129
vt 0.370249 0.104735
vt 0.347661 0.153074
vt 0.354158 0.266233
vt 0.329137 0.189706
vt 0.337492 0.201302
s 1
usemtl Triforce
f 5/1/1 4/2/1 8/3/1 9/4/1
f 5/1/2 9/4/2 3/5/2 2/6/2
f 4/2/3 2/6/3 3/5/3 8/7/3
f 7/8/4 15/9/4 13/10/5 5/1/6
f 1/11/7 4/2/8 12/12/9 10/13/7
f 7/8/10 2/6/10 11/14/10 15/9/10
f 6/15/11 14/16/11 12/12/9 4/2/8
f 6/15/12 5/1/6 13/10/5 14/17/12
f 5/1/13 6/15/13 4/2/13
f 2/6/13 4/2/13 1/11/13
f 5/1/13 2/6/13 7/8/13
f 8/18/14 12/19/14 14/20/14 13/21/14 9/22/14
f 3/23/14 9/22/14 13/21/14 15/24/14 11/25/14
f 3/23/14 11/25/14 10/26/14 12/19/14 8/18/14
f 2/6/10 1/11/10 10/13/10 11/14/10
f 16/27/14 18/28/14 87/29/14 80/30/14
f 17/31/15 90/32/16 89/33/17
f 17/31/15 93/34/18 90/32/16
f 17/31/15 24/35/19 95/36/20 93/34/18
f 94/37/21 96/38/22 24/35/23 17/31/21
f 24/35/19 27/39/24 97/40/25 95/36/20
f 96/38/22 98/41/26 27/39/26 24/35/23
f 27/39/24 99/42/27 97/40/25
f 102/43/14 103/44/14 161/45/14 160/46/14
f 27/39/24 101/47/28 99/42/27
f 27/39/29 98/41/29 158/48/29 162/49/29
f 27/39/24 104/50/30 101/47/28
f 98/51/14 100/52/14 159/53/14 158/54/14
f 27/39/24 36/55/31 105/56/32 104/50/30
f 103/57/33 106/58/34 36/55/35 27/39/33
f 36/55/31 39/59/36 107/60/37 105/56/32
f 106/58/34 108/61/38 39/59/39 36/55/35
f 39/59/36 42/62/40 109/63/41 107/60/37
f 108/61/38 110/64/42 42/62/42 39/59/39
f 42/62/40 111/65/43 109/63/41
f 42/62/40 113/66/44 111/65/43
f 114/67/14 116/68/14 152/69/14 151/70/14
f 42/62/40 115/71/45 113/66/44
f 42/62/46 110/64/46 149/72/46 153/73/46
f 42/62/40 51/74/47 117/75/48 115/71/45
f 116/76/49 118/77/50 51/74/51 42/62/49
f 51/74/47 54/78/52 119/79/53 117/75/48
f 118/77/50 120/80/54 54/78/55 51/74/51
f 54/78/52 57/81/56 121/82/57 119/79/53
f 120/80/54 122/83/58 57/81/58 54/78/55
f 57/81/56 123/84/59 121/82/57
f 58/85/14 60/86/14 124/87/14 122/88/14
f 57/81/56 125/89/60 123/84/59
f 57/81/56 64/90/61 127/91/62 125/89/60
f 126/92/63 128/93/64 64/90/65 57/81/63
f 64/90/61 67/94/66 130/95/67 127/91/62
f 128/93/64 129/96/68 67/94/69 64/90/65
f 67/94/66 71/97/70 131/98/71 130/95/67
f 129/96/68 132/99/72 71/97/73 67/94/69
f 71/97/70 75/100/74 133/101/75 131/98/71
f 132/99/72 134/102/76 75/100/77 71/97/73
f 75/100/74 79/103/78 135/104/78 133/101/75
f 134/102/76 135/104/79 79/103/79 75/100/77
f 142/105/80 83/106/81 137/107/82
f 84/108/83 17/31/15 89/33/17 141/109/84
f 144/110/85 91/111/86 17/31/86 84/108/87
f 81/112/14 86/113/14 69/114/14 73/115/14 77/116/14
f 140/117/88 83/106/89 85/118/90 139/119/91
f 139/119/91 85/118/90 84/108/83 141/109/84
f 83/106/81 142/105/80 143/120/92 85/118/93
f 85/118/93 143/120/92 144/110/85 84/108/87
f 80/30/14 87/29/14 88/121/14 82/122/14
f 82/122/14 88/121/14 86/113/14 81/112/14
f 83/106/89 140/117/88 138/123/94
f 137/107/82 83/106/81 136/124/95
f 138/123/94 136/124/96 83/106/89
f 18/28/14 16/27/14 19/125/14 20/126/14
f 20/126/14 19/125/14 21/127/14 22/128/14
f 22/128/14 21/127/14 23/129/14 25/130/14
f 25/130/14 23/129/14 26/131/14 28/132/14
f 28/132/14 26/131/14 29/133/14 30/134/14
f 30/134/14 29/133/14 31/135/14 32/136/14
f 32/136/14 31/135/14 33/137/14 34/138/14
f 76/139/14 74/140/14 78/141/14
f 72/142/14 70/143/14 74/140/14 76/139/14
f 68/144/14 66/145/14 70/143/14 72/142/14
f 65/146/14 63/147/14 66/145/14 68/144/14
f 62/148/14 61/149/14 63/147/14 65/146/14
f 60/86/14 59/150/14 61/149/14 62/148/14
f 58/85/14 56/151/14 59/150/14 60/86/14
f 55/152/14 53/153/14 56/151/14 58/85/14
f 52/154/14 50/155/14 53/153/14 55/152/14
f 49/156/14 48/157/14 50/155/14 52/154/14
f 47/158/14 46/159/14 48/157/14 49/156/14
f 45/160/14 44/161/14 46/159/14 47/158/14
f 43/162/14 41/163/14 44/161/14 45/160/14
f 40/164/14 38/165/14 41/163/14 43/162/14
f 37/166/14 35/167/14 38/165/14 40/164/14
f 34/138/14 33/137/14 35/167/14 37/166/14
f 19/125/14 16/27/14 89/168/14 90/169/14
f 18/28/14 20/126/14 92/170/14 91/171/14
f 21/127/14 19/125/14 90/169/14 93/172/14
f 20/126/14 22/128/14 94/173/14 92/170/14
f 23/129/14 21/127/14 93/172/14 95/174/14
f 22/128/14 25/130/14 96/175/14 94/173/14
f 26/131/14 23/129/14 95/174/14 97/176/14
f 25/130/14 28/132/14 98/51/14 96/175/14
f 29/133/14 26/131/14 97/176/14 99/177/14
f 28/132/14 30/134/14 100/52/14 98/51/14
f 31/135/14 29/133/14 99/177/14 101/178/14
f 30/134/14 32/136/14 102/43/14 100/52/14
f 32/136/14 34/138/14 103/44/14 102/43/14
f 35/167/14 33/137/14 104/179/14 105/180/14
f 34/138/14 37/166/14 106/181/14 103/44/14
f 38/165/14 35/167/14 105/180/14 107/182/14
f 37/166/14 40/164/14 108/183/14 106/181/14
f 41/163/14 38/165/14 107/182/14 109/184/14
f 40/164/14 43/162/14 110/185/14 108/183/14
f 44/161/14 41/163/14 109/184/14 111/186/14
f 43/162/14 45/160/14 112/187/14 110/185/14
f 46/159/14 44/161/14 111/186/14 113/188/14
f 45/160/14 47/158/14 114/67/14 112/187/14
f 48/157/14 46/159/14 113/188/14 115/189/14
f 47/158/14 49/156/14 116/68/14 114/67/14
f 50/155/14 48/157/14 115/189/14 117/190/14
f 49/156/14 52/154/14 118/191/14 116/68/14
f 53/153/14 50/155/14 117/190/14 119/192/14
f 52/154/14 55/152/14 120/193/14 118/191/14
f 56/151/14 53/153/14 119/192/14 121/194/14
f 62/148/14 65/146/14 128/195/14 126/196/14
f 59/150/14 56/151/14 121/194/14 123/197/14
f 122/88/14 120/193/14 55/152/14 58/85/14
f 61/149/14 59/150/14 123/197/14 125/198/14
f 63/147/14 61/149/14 125/198/14 127/199/14
f 126/196/14 124/87/14 60/86/14 62/148/14
f 65/146/14 68/144/14 129/200/14 128/195/14
f 70/143/14 66/145/14 130/201/14 131/202/14
f 68/144/14 72/142/14 132/203/14 129/200/14
f 74/140/14 70/143/14 131/202/14 133/204/14
f 72/142/14 76/139/14 134/205/14 132/203/14
f 78/141/14 74/140/14 133/204/14 135/206/14
f 33/137/14 31/135/14 101/178/14 104/179/14
f 66/145/14 63/147/14 127/199/14 130/201/14
f 73/115/14 69/114/14 137/207/14 136/208/14
f 77/116/14 73/115/14 136/208/14 138/209/14
f 76/139/14 78/141/14 135/206/14 134/205/14
f 82/122/14 81/112/14 140/210/14 139/211/14
f 80/30/14 82/122/14 139/211/14 141/212/14
f 86/113/14 88/121/14 143/213/14 142/214/14
f 88/121/14 87/29/14 144/215/14 143/213/14
f 81/112/14 77/116/14 138/209/14 140/210/14
f 69/114/14 86/113/14 142/214/14 137/207/14
f 16/27/14 80/30/14 141/212/14 89/168/14
f 87/29/14 18/28/14 91/171/14 144/215/14
f 145/216/97 146/217/98 148/218/99
f 146/217/98 147/219/100 148/218/99
f 122/88/14 124/87/14 146/220/14 145/221/14
f 126/92/101 57/81/101 148/218/101 147/219/101
f 57/81/102 122/83/102 145/216/97 148/218/99
f 124/87/14 126/196/14 147/222/14 146/220/14
f 149/72/103 150/223/104 153/73/105
f 150/223/104 151/224/106 153/73/105
f 151/224/106 152/225/107 153/73/105
f 110/185/14 112/187/14 150/226/14 149/227/14
f 116/76/108 42/62/108 153/73/108 152/225/108
f 112/187/14 114/67/14 151/70/14 150/226/14
f 154/228/109 155/229/110 157/230/111
f 155/229/110 156/231/112 157/230/111
f 91/171/14 92/170/14 155/232/14 154/233/14
f 94/37/113 17/31/113 157/230/113 156/231/113
f 17/31/114 91/111/114 154/228/114 157/230/114
f 92/170/14 94/173/14 156/234/14 155/232/14
f 158/48/115 159/235/116 162/49/117
f 159/235/116 160/236/118 162/49/117
f 160/236/118 161/237/119 162/49/117
f 100/52/14 102/43/14 160/46/14 159/53/14
f 103/57/120 27/39/120 162/49/120 161/237/120
f 163/238/14 227/239/14 234/240/14 165/241/14
f 164/242/121 236/243/122 237/244/123
f 164/242/121 237/244/123 240/245/124
f 164/242/121 240/245/124 242/246/125 171/247/126
f 241/248/127 164/242/127 171/247/128 243/249/129
f 171/247/126 242/246/125 244/250/130 174/251/131
f 243/249/129 171/247/128 174/251/132 245/252/132
f 174/251/131 244/250/130 246/253/133
f 249/254/14 307/255/14 308/256/14 250/257/14
f 174/251/131 246/253/133 248/258/134
f 174/251/135 309/259/135 305/260/135 245/252/135
f 174/251/131 248/258/134 251/261/136
f 245/262/14 305/263/14 306/264/14 247/265/14
f 174/251/131 251/261/136 252/266/137 183/267/138
f 250/268/139 174/251/139 183/267/140 253/269/141
f 183/267/138 252/266/137 254/270/142 186/271/143
f 253/269/141 183/267/140 186/271/144 255/272/145
f 186/271/143 254/270/142 256/273/146 189/274/147
f 255/272/145 186/271/144 189/274/148 257/275/148
f 189/274/147 256/273/146 258/276/149
f 189/274/147 258/276/149 260/277/150
f 261/278/14 298/279/14 299/280/14 263/281/14
f 189/274/147 260/277/150 262/282/151
f 189/274/152 300/283/152 296/284/152 257/275/152
f 189/274/147 262/282/151 264/285/153 198/286/154
f 263/287/155 189/274/155 198/286/156 265/288/157
f 198/286/154 264/285/153 266/289/158 201/290/159
f 265/288/157 198/286/156 201/290/160 267/291/161
f 201/290/159 266/289/158 268/292/162 204/293/163
f 267/291/161 201/290/160 204/293/164 269/294/164
f 204/293/163 268/292/162 270/295/165
f 205/296/14 269/297/14 271/298/14 207/299/14
f 204/293/163 270/295/165 272/300/166
f 204/293/163 272/300/166 274/301/167 211/302/168
f 273/303/169 204/293/169 211/302/170 275/304/171
f 211/302/168 274/301/167 277/305/172 214/306/173
f 275/304/171 211/302/170 214/306/174 276/307/175
f 214/306/173 277/305/172 278/308/176 218/309/177
f 276/307/175 214/306/174 218/309/178 279/310/179
f 218/309/177 278/308/176 280/311/180 222/312/181
f 279/310/179 218/309/178 222/312/182 281/313/183
f 222/312/181 280/311/180 282/314/184 226/315/184
f 281/313/183 222/312/182 226/315/185 282/314/185
f 289/316/186 284/317/187 230/318/188
f 231/319/189 288/320/190 236/243/122 164/242/121
f 291/321/191 231/319/192 164/242/193 238/322/193
f 228/323/14 224/324/14 220/325/14 216/326/14 233/327/14
f 287/328/194 286/329/195 232/330/196 230/318/197
f 286/329/195 288/320/190 231/319/189 232/330/196
f 230/318/188 232/330/198 290/331/199 289/316/186
f 232/330/198 231/319/192 291/321/191 290/331/199
f 227/239/14 229/332/14 235/333/14 234/240/14
f 229/332/14 228/323/14 233/327/14 235/333/14
f 230/318/197 285/334/200 287/328/194
f 284/317/187 283/335/201 230/318/188
f 285/334/200 230/318/197 283/335/202
f 165/241/14 167/336/14 166/337/14 163/238/14
f 167/336/14 169/338/14 168/339/14 166/337/14
f 169/338/14 172/340/14 170/341/14 168/339/14
f 172/340/14 175/342/14 173/343/14 170/341/14
f 175/342/14 177/344/14 176/345/14 173/343/14
f 177/344/14 179/346/14 178/347/14 176/345/14
f 179/346/14 181/348/14 180/349/14 178/347/14
f 223/350/14 225/351/14 221/352/14
f 219/353/14 223/350/14 221/352/14 217/354/14
f 215/355/14 219/353/14 217/354/14 213/356/14
f 212/357/14 215/355/14 213/356/14 210/358/14
f 209/359/14 212/357/14 210/358/14 208/360/14
f 207/299/14 209/359/14 208/360/14 206/361/14
f 205/296/14 207/299/14 206/361/14 203/362/14
f 202/363/14 205/296/14 203/362/14 200/364/14
f 199/365/14 202/363/14 200/364/14 197/366/14
f 196/367/14 199/365/14 197/366/14 195/368/14
f 194/369/14 196/367/14 195/368/14 193/370/14
f 192/371/14 194/369/14 193/370/14 191/372/14
f 190/373/14 192/371/14 191/372/14 188/374/14
f 187/375/14 190/373/14 188/374/14 185/376/14
f 184/377/14 187/375/14 185/376/14 182/378/14
f 181/348/14 184/377/14 182/378/14 180/349/14
f 166/337/14 237/379/14 236/380/14 163/238/14
f 165/241/14 238/381/14 239/382/14 167/336/14
f 168/339/14 240/383/14 237/379/14 166/337/14
f 167/336/14 239/382/14 241/384/14 169/338/14
f 170/341/14 242/385/14 240/383/14 168/339/14
f 169/338/14 241/384/14 243/386/14 172/340/14
f 173/343/14 244/387/14 242/385/14 170/341/14
f 172/340/14 243/386/14 245/262/14 175/342/14
f 176/345/14 246/388/14 244/387/14 173/343/14
f 175/342/14 245/262/14 247/265/14 177/344/14
f 178/347/14 248/389/14 246/388/14 176/345/14
f 177/344/14 247/265/14 249/254/14 179/346/14
f 179/346/14 249/254/14 250/257/14 181/348/14
f 182/378/14 252/390/14 251/391/14 180/349/14
f 181/348/14 250/257/14 253/392/14 184/377/14
f 185/376/14 254/393/14 252/390/14 182/378/14
f 184/377/14 253/392/14 255/394/14 187/375/14
f 188/374/14 256/395/14 254/393/14 185/376/14
f 187/375/14 255/394/14 257/396/14 190/373/14
f 191/372/14 258/397/14 256/395/14 188/374/14
f 190/373/14 257/396/14 259/398/14 192/371/14
f 193/370/14 260/399/14 258/397/14 191/372/14
f 192/371/14 259/398/14 261/278/14 194/369/14
f 195/368/14 262/400/14 260/399/14 193/370/14
f 194/369/14 261/278/14 263/281/14 196/367/14
f 197/366/14 264/401/14 262/400/14 195/368/14
f 196/367/14 263/281/14 265/402/14 199/365/14
f 200/364/14 266/403/14 264/401/14 197/366/14
f 199/365/14 265/402/14 267/404/14 202/363/14
f 203/362/14 268/405/14 266/403/14 200/364/14
f 209/359/14 273/406/14 275/407/14 212/357/14
f 206/361/14 270/408/14 268/405/14 203/362/14
f 269/297/14 205/296/14 202/363/14 267/404/14
f 208/360/14 272/409/14 270/408/14 206/361/14
f 210/358/14 274/410/14 272/409/14 208/360/14
f 273/406/14 209/359/14 207/299/14 271/298/14
f 212/357/14 275/407/14 276/411/14 215/355/14
f 217/354/14 278/412/14 277/413/14 213/356/14
f 215/355/14 276/411/14 279/414/14 219/353/14
f 221/352/14 280/415/14 278/412/14 217/354/14
f 219/353/14 279/414/14 281/416/14 223/350/14
f 225/351/14 282/417/14 280/415/14 221/352/14
f 180/349/14 251/391/14 248/389/14 178/347/14
f 213/356/14 277/413/14 274/410/14 210/358/14
f 220/325/14 283/418/14 284/419/14 216/326/14
f 224/324/14 285/420/14 283/418/14 220/325/14
f 223/350/14 281/416/14 282/417/14 225/351/14
f 229/332/14 286/421/14 287/422/14 228/323/14
f 227/239/14 288/423/14 286/421/14 229/332/14
f 233/327/14 289/424/14 290/425/14 235/333/14
f 235/333/14 290/425/14 291/426/14 234/240/14
f 228/323/14 287/422/14 285/420/14 224/324/14
f 216/326/14 284/419/14 289/424/14 233/327/14
f 163/238/14 236/380/14 288/423/14 227/239/14
f 234/240/14 291/426/14 238/381/14 165/241/14
f 292/427/203 295/428/204 293/429/205
f 293/429/205 295/428/204 294/430/206
f 269/297/14 292/431/14 293/432/14 271/298/14
f 273/303/207 294/430/207 295/428/207 204/293/207
f 204/293/208 295/428/204 292/427/203 269/294/208
f 271/298/14 293/432/14 294/433/14 273/406/14
f 296/284/209 300/283/210 297/434/211
f 297/434/211 300/283/210 298/435/212
f 298/435/212 300/283/210 299/436/213
f 257/396/14 296/437/14 297/438/14 259/398/14
f 263/287/214 299/436/214 300/283/214 189/274/214
f 259/398/14 297/438/14 298/279/14 261/278/14
f 301/439/215 304/440/216 302/441/217
f 302/441/217 304/440/216 303/442/218
f 238/381/14 301/443/14 302/444/14 239/382/14
f 241/248/219 303/442/219 304/440/219 164/242/219
f 164/242/220 304/440/220 301/439/220 238/322/220
f 239/382/14 302/444/14 303/445/14 241/384/14
f 305/260/221 309/259/222 306/446/223
f 306/446/223 309/259/222 307/447/224
f 307/447/224 309/259/222 308/448/225
f 247/265/14 306/264/14 307/255/14 249/254/14
f 250/268/226 308/448/226 309/259/226 174/251/226
f 323/449/227 368/450/228 369/451/229 312/452/230
f 321/453/231 370/454/232 371/455/233 314/456/234
f 319/457/235 372/458/236 373/459/237 316/460/238
f 316/460/238 373/459/237 374/461/239
f 314/456/234 371/455/233 372/458/236 319/457/235
f 312/452/230 369/451/229 370/454/232 321/453/231
f 325/462/240 375/463/241 368/450/228 323/449/227
f 310/464/242 376/465/242 375/463/241 325/462/240
f 376/465/243 310/464/243 327/466/244 377/467/245
f 377/467/245 327/466/244 329/468/246 378/469/247
f 378/469/247 329/468/246 331/470/248 379/471/249
f 379/471/249 331/470/248 333/472/250 380/473/251
f 380/473/251 333/472/250 335/474/252 381/475/253
f 381/475/253 335/474/252 337/476/254 382/477/254
f 382/477/255 337/476/255 383/478/255
f 323/449/256 312/452/257 385/479/258 384/480/259
f 321/453/260 314/456/261 387/481/262 386/482/263
f 319/457/264 316/460/265 389/483/266 388/484/267
f 316/460/265 374/461/268 389/483/266
f 314/456/261 319/457/264 388/484/267 387/481/262
f 312/452/257 321/453/260 386/482/263 385/479/258
f 325/462/269 323/449/256 384/480/259 390/485/270
f 310/464/271 325/462/269 390/485/270 391/486/271
f 391/486/272 392/487/273 327/466/274 310/464/272
f 392/487/273 393/488/275 329/468/276 327/466/274
f 393/488/275 394/489/277 331/470/278 329/468/276
f 394/489/277 395/490/279 333/472/280 331/470/278
f 395/490/279 396/491/281 335/474/282 333/472/280
f 396/491/281 397/492/283 337/476/283 335/474/282
f 397/492/284 383/478/284 337/476/284
f 313/493/14 356/494/14 358/495/14 322/496/14
f 340/497/14 364/498/14 363/499/14 348/500/14
f 353/501/14 367/502/14 339/503/14
f 352/504/14 355/505/14 367/502/14 353/501/14
f 351/506/14 357/507/14 355/505/14 352/504/14
f 350/508/14 359/509/14 357/507/14 351/506/14
f 349/510/14 361/511/14 359/509/14 350/508/14
f 348/500/14 363/499/14 361/511/14 349/510/14
f 347/512/14 366/513/14 364/498/14 340/497/14
f 346/514/14 354/515/14 366/513/14 347/512/14
f 341/516/14 356/494/14 354/515/14 346/514/14
f 322/496/14 358/495/14 360/517/14 315/518/14
f 315/518/14 360/517/14 362/519/14 320/520/14
f 320/520/14 362/519/14 365/521/14 317/522/14
f 317/522/14 365/521/14 318/523/14
f 364/498/14 366/513/14 326/524/14 311/525/14
f 354/515/14 356/494/14 313/493/14 324/526/14
f 362/519/14 360/517/14 342/527/14 344/528/14
f 318/523/14 365/521/14 343/529/14
f 358/495/14 356/494/14 341/516/14 345/530/14
f 363/499/14 364/498/14 311/525/14 328/531/14
f 367/502/14 355/505/14 336/532/14 338/533/14
f 357/507/14 359/509/14 332/534/14 334/535/14
f 361/511/14 363/499/14 328/531/14 330/536/14
f 366/513/14 354/515/14 324/526/14 326/524/14
f 360/517/14 358/495/14 345/530/14 342/527/14
f 365/521/14 362/519/14 344/528/14 343/529/14
f 339/503/14 367/502/14 338/533/14
f 355/505/14 357/507/14 334/535/14 336/532/14
f 359/509/14 361/511/14 330/536/14 332/534/14
f 324/526/14 313/493/14 369/537/14 368/538/14
f 322/496/14 315/518/14 371/539/14 370/540/14
f 320/520/14 317/522/14 373/541/14 372/542/14
f 315/518/14 320/520/14 372/542/14 371/539/14
f 317/522/14 318/523/14 374/543/14 373/541/14
f 313/493/14 322/496/14 370/540/14 369/537/14
f 326/524/14 324/526/14 368/538/14 375/544/14
f 311/525/14 326/524/14 375/544/14 376/545/14
f 328/531/14 311/525/14 376/545/14 377/546/14
f 330/536/14 328/531/14 377/546/14 378/547/14
f 332/534/14 330/536/14 378/547/14 379/548/14
f 334/535/14 332/534/14 379/548/14 380/549/14
f 336/532/14 334/535/14 380/549/14 381/550/14
f 338/533/14 336/532/14 381/550/14 382/551/14
f 339/503/14 338/533/14 382/551/14 383/552/14
f 341/516/14 346/514/14 384/553/14 385/554/14
f 342/527/14 345/530/14 386/555/14 387/556/14
f 343/529/14 344/528/14 388/557/14 389/558/14
f 344/528/14 342/527/14 387/556/14 388/557/14
f 318/523/14 343/529/14 389/558/14 374/543/14
f 345/530/14 341/516/14 385/554/14 386/555/14
f 346/514/14 347/512/14 390/559/14 384/553/14
f 347/512/14 340/497/14 391/560/14 390/559/14
f 340/497/14 348/500/14 392/561/14 391/560/14
f 348/500/14 349/510/14 393/562/14 392/561/14
f 349/510/14 350/508/14 394/563/14 393/562/14
f 350/508/14 351/506/14 395/564/14 394/563/14
f 351/506/14 352/504/14 396/565/14 395/564/14
f 352/504/14 353/501/14 397/566/14 396/565/14
f 353/501/14 339/503/14 383/552/14 397/566/14
f 411/567/285 446/568/286 459/569/287 409/570/287
f 398/571/288 445/572/288 450/573/289 433/574/290
f 438/575/291 404/576/292 419/577/293 440/578/294
f 410/579/295 449/580/296 459/569/297
f 413/581/298 410/579/299 446/568/286 447/582/300
f 414/583/301 408/584/302 449/580/296 448/585/303
f 404/576/304 407/586/305 452/587/306 454/588/307
f 409/589/14 408/590/14 411/591/14
f 403/592/14 412/593/14 405/594/14
f 430/595/14 400/596/14 433/597/14 401/598/14
f 417/599/308 451/600/308 439/601/309 416/602/310
f 418/603/14 405/594/14 421/604/14 420/605/14
f 407/586/311 413/581/298 447/582/300 452/587/312
f 411/591/14 408/590/14 414/606/14 406/607/14
f 417/608/14 406/607/14 415/609/14
f 415/610/313 414/583/301 448/585/303 458/611/314
f 417/608/14 416/612/14 406/607/14
f 439/601/309 407/586/315 404/576/316 438/575/317
f 407/586/318 451/600/319 458/611/314
f 406/607/14 416/612/14 412/593/14 403/592/14
f 415/609/14 406/607/14 414/606/14
f 403/592/14 405/594/14 418/603/14
f 402/613/320 404/576/304 454/588/307 456/614/321
f 420/605/14 421/604/14 429/615/14 423/616/14
f 436/617/322 418/618/323 420/619/324 435/620/325
f 405/594/14 412/593/14 422/621/14 421/604/14
f 440/578/294 419/577/293 427/622/326 441/623/327
f 427/622/326 437/624/328 443/625/329
f 421/604/14 422/621/14 424/626/14 429/615/14
f 425/627/330 428/628/331 442/629/332 443/625/329
f 428/628/331 426/630/333 444/631/334 442/629/332
f 426/632/14 428/633/14 429/615/14
f 428/633/14 425/634/14 429/615/14
f 435/620/325 420/619/324 423/635/335 437/624/328
f 423/616/14 429/615/14 425/634/14
f 429/615/14 424/626/14 426/632/14
f 424/636/336 441/623/327 444/631/334 426/630/333
f 430/637/337 457/638/338 453/639/339 400/640/340
f 431/641/14 432/642/14 401/598/14
f 431/641/14 401/598/14 403/592/14 418/603/14
f 402/613/341 455/643/342 434/644/343
f 401/598/14 432/642/14 430/595/14
f 432/645/344 455/643/344 457/638/338 430/637/337
f 400/640/340 453/639/339 445/572/345 398/571/345
f 433/574/290 450/573/289 456/614/346 401/646/347
f 433/597/14 400/596/14 398/647/14
f 434/644/343 436/617/348 404/576/349 402/613/341
f 431/648/350 418/618/351 436/617/348 434/644/343
f 419/577/352 435/620/325 437/624/328 427/622/326
f 404/576/353 436/617/322 435/620/325 419/577/352
f 422/649/354 440/578/294 441/623/327 424/636/336
f 416/602/310 439/601/309 438/575/317 412/650/355
f 412/650/356 438/575/291 440/578/294 422/649/354
f 443/625/329 442/629/332 427/622/326
f 444/631/334 441/623/327 427/622/326
f 442/629/332 444/631/334 427/622/326
f 443/625/329 437/624/328 423/635/335 425/627/330
f 448/585/303 449/580/296 410/579/295 413/581/357
f 458/611/314 448/585/303 413/581/357 407/586/318
f 453/639/339 457/638/338 402/613/358 399/651/359
f 447/582/300 446/568/286 411/567/285 406/652/360
f 445/572/345 453/639/339 399/651/359
f 439/601/309 451/600/308 407/586/315
f 454/588/307 452/587/306 406/652/361 403/653/362
f 452/587/312 447/582/300 406/652/360
f 459/569/287 446/568/286 410/579/299
f 456/614/321 454/588/307 403/653/362 401/646/363
f 458/611/314 451/600/319 417/599/319 415/610/313
f 450/573/289 445/572/288 399/651/364
f 434/644/343 455/643/342 432/645/342 431/648/350
f 457/638/338 455/643/344 402/613/358
f 456/614/346 450/573/289 399/651/364 402/613/365
f 459/569/297 449/580/296 408/584/302 409/570/297
f 473/654/366 471/655/367 521/656/367 508/657/368
f 460/658/369 495/659/370 512/660/371 507/661/369
f 500/662/372 502/663/373 481/664/374 466/665/375
f 472/666/376 521/656/377 511/667/378
f 475/668/379 509/669/380 508/657/368 472/666/381
f 476/670/382 510/671/383 511/667/378 470/672/384
f 466/665/385 516/673/386 514/674/387 469/675/388
f 471/676/14 473/677/14 470/678/14
f 465/679/14 467/680/14 474/681/14
f 492/682/14 463/683/14 495/684/14 462/685/14
f 479/686/389 478/687/390 501/688/391 513/689/389
f 480/690/14 482/691/14 483/692/14 467/680/14
f 469/675/392 514/674/393 509/669/380 475/668/379
f 473/677/14 468/693/14 476/694/14 470/678/14
f 479/695/14 477/696/14 468/693/14
f 477/697/394 520/698/395 510/671/383 476/670/382
f 479/695/14 468/693/14 478/699/14
f 501/688/391 500/662/396 466/665/397 469/675/398
f 469/675/399 520/698/395 513/689/400
f 468/693/14 465/679/14 474/681/14 478/699/14
f 477/696/14 476/694/14 468/693/14
f 465/679/14 480/690/14 467/680/14
f 464/700/401 518/701/402 516/673/386 466/665/385
f 482/691/14 485/702/14 491/703/14 483/692/14
f 498/704/403 497/705/404 482/706/405 480/707/406
f 467/680/14 483/692/14 484/708/14 474/681/14
f 502/663/373 503/709/407 489/710/408 481/664/374
f 489/710/408 505/711/409 499/712/410
f 483/692/14 491/703/14 486/713/14 484/708/14
f 487/714/411 505/711/409 504/715/412 490/716/413
f 490/716/413 504/715/412 506/717/414 488/718/415
f 488/719/14 491/703/14 490/720/14
f 490/720/14 491/703/14 487/721/14
f 497/705/404 499/712/410 485/722/416 482/706/405
f 485/702/14 487/721/14 491/703/14
f 491/703/14 488/719/14 486/713/14
f 486/723/417 488/718/415 506/717/414 503/709/407
f 492/724/418 462/725/419 515/726/420 519/727/421
f 493/728/14 463/683/14 494/729/14
f 493/728/14 480/690/14 465/679/14 463/683/14
f 464/700/422 496/730/423 517/731/424
f 463/683/14 492/682/14 494/729/14
f 494/732/425 492/724/418 519/727/421 517/731/425
f 462/725/419 460/658/426 507/661/426 515/726/420
f 495/659/370 463/733/427 518/701/428 512/660/371
f 495/684/14 460/734/14 462/685/14
f 496/730/423 464/700/422 466/665/429 498/704/430
f 493/735/431 496/730/423 498/704/430 480/707/432
f 481/664/433 489/710/408 499/712/410 497/705/404
f 466/665/434 481/664/433 497/705/404 498/704/403
f 484/736/435 486/723/417 503/709/407 502/663/373
f 478/687/390 474/737/436 500/662/396 501/688/391
f 474/737/437 484/736/435 502/663/373 500/662/372
f 505/711/409 489/710/408 504/715/412
f 506/717/414 489/710/408 503/709/407
f 504/715/412 489/710/408 506/717/414
f 505/711/409 487/714/411 485/722/416 499/712/410
f 510/671/383 475/668/438 472/666/376 511/667/378
f 520/698/395 469/675/399 475/668/438 510/671/383
f 515/726/420 461/738/439 464/700/440 519/727/421
f 509/669/380 468/739/441 473/654/366 508/657/368
f 507/661/426 461/738/439 515/726/420
f 501/688/391 469/675/398 513/689/389
f 516/673/386 465/740/442 468/739/443 514/674/387
f 514/674/393 468/739/441 509/669/380
f 521/656/367 472/666/381 508/657/368
f 518/701/402 463/733/444 465/740/442 516/673/386
f 520/698/395 477/697/394 479/686/400 513/689/400
f 512/660/371 461/738/445 507/661/369
f 496/730/423 493/735/431 494/732/424 517/731/424
f 519/727/421 464/700/440 517/731/425
f 518/701/428 464/700/446 461/738/445 512/660/371
f 521/656/377 471/655/377 470/672/384 511/667/378
