# Blender 5.1.2
# www.blender.org
mtllib vitraux.mtl
o VitrauxTrans
v -0.500568 0.544759 -0.453559
v -0.500568 0.670391 -0.453559
v -0.547745 0.662069 -0.400765
v -0.582704 0.638874 -0.361644
v -0.608300 0.591767 -0.333000
v -0.619193 0.544759 -0.320811
v -0.619167 0.336768 -0.320840
v -0.381969 0.336768 -0.586278
v -0.381943 0.544759 -0.586307
v -0.392835 0.591767 -0.574118
v -0.418432 0.638874 -0.545474
v -0.453390 0.662068 -0.506353
v -0.707910 0.544759 0.106711
v -0.707910 0.662069 0.032049
v -0.707910 0.670391 0.106711
v -0.707910 0.662069 0.181373
v -0.707910 0.638875 0.236698
v -0.707910 0.591767 0.277207
v -0.707910 0.544759 0.294445
v -0.707910 0.336768 0.294404
v -0.707910 0.336768 -0.080982
v -0.707910 0.544759 -0.081023
v -0.707910 0.591767 -0.063785
v -0.707910 0.638875 -0.023276
v -0.500568 0.544759 0.666768
v -0.453390 0.662069 0.719562
v -0.500568 0.670391 0.666768
v -0.418432 0.638875 0.758683
v -0.392835 0.591768 0.787327
v -0.381943 0.544759 0.799516
v -0.381969 0.336769 0.799487
v -0.619167 0.336769 0.534049
v -0.619192 0.544759 0.534020
v -0.608300 0.591767 0.546209
v -0.582704 0.638875 0.574853
v -0.547745 0.662069 0.613974
v 0.507215 0.544356 0.676470
v 0.614948 0.591364 0.555911
v 0.589351 0.638471 0.584555
v 0.625840 0.544356 0.543722
v 0.625814 0.336365 0.543751
v 0.388617 0.336365 0.809189
v 0.388591 0.544356 0.809218
v 0.399483 0.591364 0.797029
v 0.425080 0.638471 0.768385
v 0.460038 0.661665 0.729264
v 0.507215 0.669987 0.676470
v 0.554393 0.661665 0.623676
v 0.707910 0.544356 0.106589
v 0.707910 0.669987 0.106589
v 0.707910 0.661665 0.031926
v 0.707910 0.638471 -0.023398
v 0.707910 0.591364 -0.063907
v 0.707910 0.544356 -0.081145
v 0.707910 0.336365 -0.081104
v 0.707910 0.336365 0.294282
v 0.707910 0.544356 0.294323
v 0.707910 0.591364 0.277085
v 0.707910 0.638471 0.236576
v 0.707910 0.661665 0.181251
v 0.500570 0.545734 -0.453611
v 0.608303 0.592742 -0.333052
v 0.582706 0.639849 -0.361696
v 0.547748 0.663044 -0.400816
v 0.500570 0.671366 -0.453611
v 0.453393 0.663044 -0.506405
v 0.418434 0.639849 -0.545526
v 0.392838 0.592742 -0.574170
v 0.381945 0.545734 -0.586359
v 0.381971 0.337743 -0.586330
v 0.619169 0.337743 -0.320892
v 0.619195 0.545734 -0.320863
v 0.000000 0.544356 -0.685587
v -0.066719 0.661665 -0.685587
v -0.116158 0.638471 -0.685587
v 0.000000 0.669987 -0.685587
v 0.066719 0.661665 -0.685587
v 0.116158 0.638471 -0.685587
v 0.152357 0.591364 -0.685587
v 0.167761 0.544356 -0.685587
v 0.167724 0.336365 -0.685587
v -0.167724 0.336365 -0.685587
v -0.167761 0.544356 -0.685587
v -0.152357 0.591364 -0.685587
v -0.665994 0.544759 -0.362633
v -0.547369 0.544759 -0.495381
v -0.428744 0.544759 -0.628129
v -0.547369 0.670391 -0.495381
v -0.594546 0.662068 -0.442587
v -0.500191 0.662068 -0.548175
v -0.465233 0.638874 -0.587296
v -0.629505 0.638874 -0.403466
v -0.655101 0.591767 -0.374822
v -0.439636 0.591767 -0.615940
v -0.665968 0.336768 -0.362662
v -0.428770 0.336768 -0.628100
v 0.000000 0.544356 -0.747344
v -0.167761 0.544356 -0.747344
v 0.167761 0.544356 -0.747344
v 0.000000 0.669987 -0.747344
v -0.152357 0.591364 -0.747344
v -0.116158 0.638471 -0.747344
v -0.066719 0.661665 -0.747344
v 0.116158 0.638471 -0.747344
v 0.066719 0.661665 -0.747344
v -0.167724 0.336365 -0.747344
v 0.167724 0.336365 -0.747344
v 0.152357 0.591364 -0.747344
v 0.554442 0.545734 -0.501751
v 0.435817 0.545734 -0.634499
v 0.673067 0.545734 -0.369003
v 0.554442 0.671366 -0.501751
v 0.507264 0.663044 -0.554545
v 0.472306 0.639849 -0.593665
v 0.446709 0.592742 -0.622310
v 0.601619 0.663044 -0.448956
v 0.636578 0.639849 -0.409836
v 0.662174 0.592742 -0.381192
v 0.435843 0.337743 -0.634470
v 0.673041 0.337743 -0.369032
vn -0.7457 -0.0000 -0.6663
vn 1.0000 -0.0000 -0.0000
vn 0.7457 -0.0000 -0.6663
vn -1.0000 -0.0000 -0.0000
vn -0.0000 -0.0000 -1.0000
vn 0.7457 -0.0000 0.6663
vn 0.3954 -0.8049 -0.4425
vn 0.5793 -0.4940 -0.6483
vn 0.5831 -0.4840 -0.6525
vn 0.4091 -0.7894 -0.4578
vn -0.4091 -0.7894 0.4578
vn -0.1816 -0.9621 0.2032
vn -0.1686 -0.9675 0.1886
vn -0.3954 -0.8049 0.4425
vn -0.4730 0.7043 0.5293
vn -0.6572 -0.1652 0.7354
vn -0.6568 -0.1688 0.7350
vn -0.4386 0.7529 0.4908
vn 0.6568 -0.1688 -0.7350
vn 0.6572 -0.1652 -0.7354
vn -0.0055 -1.0000 0.0062
vn 0.0055 -1.0000 -0.0062
vn 0.1686 -0.9675 -0.1886
vn 0.1816 -0.9621 -0.2032
vn -0.5831 -0.4840 0.6525
vn -0.5793 -0.4940 0.6483
vn 0.4386 0.7529 -0.4908
vn 0.4730 0.7043 -0.5293
vn -0.0000 -0.0000 1.0000
vn 0.8842 -0.4670 -0.0000
vn 0.9875 -0.1576 -0.0000
vn -0.7070 0.7072 -0.0000
vn -0.9875 -0.1576 -0.0000
vn -0.6266 -0.7794 -0.0000
vn -0.2777 -0.9607 -0.0000
vn 0.6266 -0.7794 -0.0000
vn 0.2777 -0.9607 -0.0000
vn 0.7070 0.7072 -0.0000
vn -0.8842 -0.4670 -0.0000
vn -0.0000 -1.0000 -0.0000
vn -0.7457 -0.0000 0.6663
vn 0.1816 -0.9621 0.2032
vn 0.4091 -0.7894 0.4578
vn 0.3954 -0.8049 0.4425
vn 0.1686 -0.9675 0.1886
vn -0.3954 -0.8049 -0.4425
vn -0.1686 -0.9675 -0.1886
vn -0.1816 -0.9621 -0.2032
vn -0.4091 -0.7894 -0.4578
vn 0.4730 0.7043 0.5293
vn -0.4386 0.7529 -0.4908
vn -0.4730 0.7043 -0.5293
vn 0.4386 0.7529 0.4908
vn 0.5831 -0.4840 0.6525
vn 0.5793 -0.4940 0.6483
vn 0.0055 -1.0000 0.0062
vn -0.0055 -1.0000 -0.0062
vn -0.6568 -0.1688 -0.7350
vn -0.6572 -0.1652 -0.7354
vn 0.6572 -0.1652 0.7354
vn 0.6568 -0.1688 0.7350
vn -0.5793 -0.4940 -0.6483
vn -0.5831 -0.4840 -0.6525
vt 0.668355 0.851618
vt 0.706658 0.856396
vt 0.706658 0.784272
vt 0.802968 0.784271
vt 0.802947 0.664865
vt 0.744961 0.851618
vt 0.619191 0.811259
vt 0.639973 0.838303
vt 0.773344 0.838302
vt 0.794125 0.811259
vt 0.610348 0.784272
vt 0.610369 0.664866
vt 0.308896 0.858472
vt 0.308887 0.785570
vt 0.347611 0.853638
vt 0.406199 0.664865
vt 0.406235 0.785558
vt 0.270180 0.853648
vt 0.220481 0.812860
vt 0.241490 0.840192
vt 0.376298 0.840175
vt 0.397300 0.812837
vt 0.211539 0.785583
vt 0.211545 0.664890
vt 0.465997 0.205462
vt 0.507127 0.133131
vt 0.507134 0.210590
vt 0.610529 0.004883
vt 0.610562 0.133122
vt 0.548270 0.205456
vt 0.435514 0.191164
vt 0.578750 0.191152
vt 0.413192 0.162122
vt 0.601067 0.162106
vt 0.403692 0.133139
vt 0.403704 0.004900
vt 0.440808 0.839705
vt 0.419858 0.812442
vt 0.508032 0.785237
vt 0.410964 0.664866
vt 0.410943 0.785237
vt 0.469420 0.853128
vt 0.508032 0.857944
vt 0.546645 0.853127
vt 0.596206 0.812442
vt 0.575257 0.839704
vt 0.605121 0.785236
vt 0.605099 0.664865
vt 0.677784 0.198689
vt 0.717542 0.128808
vt 0.717530 0.203653
vt 0.617640 0.004883
vt 0.617599 0.128793
vt 0.757279 0.198701
vt 0.626771 0.156799
vt 0.648333 0.184866
vt 0.786733 0.184888
vt 0.808304 0.156827
vt 0.817485 0.128824
vt 0.817482 0.004914
vt 0.174020 0.844863
vt 0.195589 0.816801
vt 0.104826 0.788786
vt 0.004918 0.664865
vt 0.004883 0.788775
vt 0.065070 0.858668
vt 0.104817 0.863631
vt 0.035619 0.844847
vt 0.014057 0.816781
vt 0.144565 0.858677
vt 0.204768 0.788797
vt 0.204760 0.664888
vt 0.896224 0.299043
vt 0.828830 0.353667
vt 0.857520 0.367121
vt 0.798876 0.178367
vt 0.798876 0.299060
vt 0.993572 0.299026
vt 0.984638 0.326305
vt 0.807819 0.326336
vt 0.896237 0.371945
vt 0.934951 0.367108
vt 0.963637 0.353644
vt 0.993530 0.178333
s 1
usemtl Vitraux
f 3/1/1 2/2/1 1/3/1
f 9/4/1 8/5/1 1/3/1
f 2/2/1 12/6/1 1/3/1
f 1/3/1 5/7/1 4/8/1
f 11/9/1 10/10/1 1/3/1
f 12/6/1 11/9/1 1/3/1
f 3/1/1 1/3/1 4/8/1
f 1/3/1 6/11/1 5/7/1
f 10/10/1 9/4/1 1/3/1
f 7/12/1 6/11/1 1/3/1
f 8/5/1 7/12/1 1/3/1
f 15/13/2 13/14/2 14/15/2
f 13/14/2 21/16/2 22/17/2
f 16/18/2 13/14/2 15/13/2
f 18/19/2 13/14/2 17/20/2
f 24/21/2 13/14/2 23/22/2
f 14/15/2 13/14/2 24/21/2
f 17/20/2 13/14/2 16/18/2
f 19/23/2 13/14/2 18/19/2
f 23/22/2 13/14/2 22/17/2
f 19/23/2 20/24/2 13/14/2
f 13/14/2 20/24/2 21/16/2
f 26/25/3 25/26/3 27/27/3
f 32/28/3 33/29/3 25/26/3
f 27/27/3 25/26/3 36/30/3
f 28/31/3 25/26/3 26/25/3
f 36/30/3 25/26/3 35/32/3
f 29/33/3 25/26/3 28/31/3
f 35/32/3 25/26/3 34/34/3
f 30/35/3 25/26/3 29/33/3
f 34/34/3 25/26/3 33/29/3
f 31/36/3 25/26/3 30/35/3
f 32/28/3 25/26/3 31/36/3
f 39/37/1 38/38/1 37/39/1
f 41/40/1 37/39/1 40/41/1
f 40/41/1 37/39/1 38/38/1
f 39/37/1 37/39/1 48/42/1
f 47/43/1 37/39/1 46/44/1
f 48/42/1 37/39/1 47/43/1
f 44/45/1 45/46/1 37/39/1
f 46/44/1 37/39/1 45/46/1
f 44/45/1 37/39/1 43/47/1
f 41/40/1 42/48/1 37/39/1
f 37/39/1 42/48/1 43/47/1
f 51/49/4 49/50/4 50/51/4
f 55/52/4 49/50/4 54/53/4
f 50/51/4 49/50/4 60/54/4
f 54/53/4 49/50/4 53/55/4
f 52/56/4 49/50/4 51/49/4
f 53/55/4 49/50/4 52/56/4
f 59/57/4 49/50/4 58/58/4
f 60/54/4 49/50/4 59/57/4
f 58/58/4 49/50/4 57/59/4
f 49/50/4 56/60/4 57/59/4
f 55/52/4 56/60/4 49/50/4
f 63/61/3 62/62/3 61/63/3
f 70/64/3 69/65/3 61/63/3
f 66/66/3 65/67/3 61/63/3
f 67/68/3 66/66/3 61/63/3
f 69/65/3 68/69/3 61/63/3
f 68/69/3 67/68/3 61/63/3
f 65/67/3 64/70/3 61/63/3
f 64/70/3 63/61/3 61/63/3
f 62/62/3 72/71/3 61/63/3
f 61/63/3 72/71/3 71/72/3
f 70/64/3 61/63/3 71/72/3
f 73/73/5 75/74/5 74/75/5
f 82/76/5 83/77/5 73/73/5
f 80/78/5 73/73/5 79/79/5
f 73/73/5 83/77/5 84/80/5
f 73/73/5 84/80/5 75/74/5
f 73/73/5 74/75/5 76/81/5
f 73/73/5 76/81/5 77/82/5
f 73/73/5 77/82/5 78/83/5
f 80/78/5 81/84/5 73/73/5
f 81/84/5 82/76/5 73/73/5
f 73/73/5 78/83/5 79/79/5
f 89/1/6 86/3/6 88/2/6
f 87/4/6 86/3/6 96/5/6
f 88/2/6 86/3/6 90/6/6
f 86/3/6 92/8/6 93/7/6
f 91/9/6 86/3/6 94/10/6
f 90/6/6 86/3/6 91/9/6
f 89/1/6 92/8/6 86/3/6
f 86/3/6 93/7/6 85/11/6
f 94/10/6 86/3/6 87/4/6
f 95/12/6 86/3/6 85/11/6
f 96/5/6 86/3/6 95/12/6
f 4/8/7 5/7/8 93/7/9 92/8/10
f 11/9/11 12/6/12 90/6/13 91/9/14
f 8/5/15 9/4/16 87/4/17 96/5/18
f 5/7/8 6/11/19 85/11/20 93/7/9
f 12/6/12 2/2/21 88/2/22 90/6/13
f 2/2/21 3/1/23 89/1/24 88/2/22
f 9/4/16 10/10/25 94/10/26 87/4/17
f 6/11/19 7/12/27 95/12/28 85/11/20
f 3/1/23 4/8/7 92/8/10 89/1/24
f 10/10/25 11/9/11 91/9/14 94/10/26
f 7/12/27 8/5/15 96/5/18 95/12/28
f 97/73/29 103/75/29 102/74/29
f 106/76/29 97/73/29 98/77/29
f 99/78/29 108/79/29 97/73/29
f 97/73/29 101/80/29 98/77/29
f 97/73/29 102/74/29 101/80/29
f 97/73/29 100/81/29 103/75/29
f 97/73/29 105/82/29 100/81/29
f 97/73/29 104/83/29 105/82/29
f 99/78/29 97/73/29 107/84/29
f 107/84/29 97/73/29 106/76/29
f 97/73/29 108/79/29 104/83/29
f 84/80/30 83/77/31 98/77/31 101/80/30
f 81/84/32 80/78/33 99/78/33 107/84/32
f 78/83/34 77/82/35 105/82/35 104/83/34
f 75/74/36 84/80/30 101/80/30 102/74/36
f 74/75/37 75/74/36 102/74/36 103/75/37
f 82/76/38 81/84/32 107/84/32 106/76/38
f 79/79/39 78/83/34 104/83/34 108/79/39
f 76/81/40 74/75/37 103/75/37 100/81/40
f 83/77/31 82/76/38 106/76/38 98/77/31
f 80/78/33 79/79/39 108/79/39 99/78/33
f 77/82/35 76/81/40 100/81/40 105/82/35
f 117/61/41 109/63/41 118/62/41
f 119/64/41 109/63/41 110/65/41
f 113/66/41 109/63/41 112/67/41
f 114/68/41 109/63/41 113/66/41
f 110/65/41 109/63/41 115/69/41
f 115/69/41 109/63/41 114/68/41
f 112/67/41 109/63/41 116/70/41
f 116/70/41 109/63/41 117/61/41
f 118/62/41 109/63/41 111/71/41
f 109/63/41 120/72/41 111/71/41
f 119/64/41 120/72/41 109/63/41
f 66/66/42 67/68/43 114/68/44 113/66/45
f 63/61/46 64/70/47 116/70/48 117/61/49
f 70/64/50 71/72/51 120/72/52 119/64/53
f 67/68/43 68/69/54 115/69/55 114/68/44
f 64/70/47 65/67/56 112/67/57 116/70/48
f 71/72/51 72/71/58 111/71/59 120/72/52
f 68/69/54 69/65/60 110/65/61 115/69/55
f 65/67/56 66/66/42 113/66/45 112/67/57
f 72/71/58 62/62/62 118/62/63 111/71/59
f 62/62/62 63/61/46 117/61/49 118/62/63
f 69/65/60 70/64/50 119/64/53 110/65/61
