# Blender 5.1.2
# www.blender.org
mtllib colors.mtl
o d7d6dff1_dds
v 2.265963 1.325255 -8.307351
v 3.505211 -0.716936 -6.672192
v 3.686550 -0.309156 -6.372768
v 2.400002 1.626433 -8.086198
v 2.383181 1.931057 -7.864028
v 3.663833 0.102940 -6.072213
v 3.436168 0.583042 -5.724051
v 2.214737 2.285395 -7.607069
v 0.223610 -0.105967 -9.372205
v -0.292888 2.443027 -10.629809
v -0.524685 2.355807 -10.695769
v -0.135425 -0.241179 -9.474456
v 1.677744 4.465052 -6.021504
v 2.709081 3.534419 -3.577104
v 2.356300 3.801796 -3.385449
v 1.417151 4.662303 -5.880116
v -2.841042 -0.080351 -9.383876
v -2.272192 2.459353 -10.637510
v -2.513193 2.530523 -10.587954
v -3.214703 0.029377 -9.307495
v -1.296591 5.789298 -5.084436
v -1.318624 5.327781 -2.308075
v -1.852821 5.607930 -2.108892
v -1.690766 5.996388 -4.937189
v -4.002111 1.127299 -8.513943
v -3.022119 3.239444 -10.075570
v -3.190486 3.366888 -9.984220
v -4.262706 1.324551 -8.372554
v -3.823316 4.973706 -5.704755
v -4.740180 4.223430 -3.148023
v -5.345763 4.146583 -3.210114
v -4.270705 4.917134 -5.750478
v -4.662827 1.485018 -8.259398
v -3.448898 3.470599 -9.911083
v -3.641302 3.609333 -9.811730
v -4.961159 1.699826 -8.105571
v -5.167872 1.978418 -7.904283
v -3.774737 3.789406 -9.681623
v -3.810486 3.994746 -9.532099
v -5.222994 2.296216 -7.672871
v 1.381172 -1.884976 -7.545770
v 1.381172 -1.884976 -7.545770
v 1.693315 -1.591855 -7.328732
v 0.697110 0.462839 -8.952353
v 0.697110 0.462839 -8.952353
v 0.927742 0.679272 -8.792101
v 0.013433 2.810399 -10.358641
v 0.013433 2.810399 -10.358641
v 0.162169 2.950166 -10.255152
v 1.238351 0.815896 -8.689303
v 0.362759 3.038553 -10.188652
v 0.651564 3.074881 -10.159276
v 1.685742 0.872467 -8.643579
v 2.719529 -1.330145 -7.127547
v 2.113944 -1.406989 -7.189636
v 0.872107 3.202960 -10.063607
v 2.026893 1.070324 -8.495787
v 3.181327 -1.062189 -6.927397
v -0.091468 2.590199 -10.520398
v 0.534853 0.121737 -9.202924
v 1.161214 -2.346635 -7.884903
v 1.026364 3.367563 -9.941942
v 1.113102 3.562144 -9.799059
v 0.739753 -2.654837 -8.114033
v 0.253481 -2.838047 -8.252573
v 1.102100 3.758672 -9.655728
v 0.993306 3.987520 -9.489769
v 3.407503 0.979209 -5.435181
v 2.193647 2.578053 -7.393674
v 0.979791 4.176670 -9.351849
v 2.282717 2.849327 -7.194798
v 1.037381 4.351665 -9.223555
v 2.520778 3.136302 -6.982980
v 1.191167 4.537188 -9.086616
v 2.638034 3.493382 -6.721191
v 1.266830 4.767873 -8.917497
v 2.582914 3.811184 -6.489779
v 1.231083 4.973212 -8.767978
v 3.528014 1.346448 -5.165945
v 3.850383 1.735189 -4.879020
v 4.008849 2.218704 -4.524539
v 3.934355 2.648960 -4.211245
v -0.778293 2.328091 -10.718510
v -0.528479 -0.283541 -9.509266
v -0.278712 -2.895712 -8.299933
v -1.014562 2.377963 -10.684452
v -0.894197 -0.206786 -9.456869
v -0.773410 -2.791489 -8.228766
v -1.288376 0.000304 -9.309623
v -1.307611 -2.511338 -8.029583
v 1.107383 5.143569 -8.644864
v 2.390804 4.075202 -6.298977
v 3.674611 3.006571 -3.952802
v -1.781756 -2.405757 -7.957222
v -1.638655 0.078230 -9.256217
v -1.495559 2.561988 -10.554903
v -1.269138 2.511723 -10.589350
v 0.905241 5.292020 -8.538516
v 2.077902 4.304895 -6.134431
v 3.250953 3.317516 -3.730051
v 0.646791 5.395416 -8.465610
v 0.478426 5.522863 -8.374255
v 2.106126 4.136103 -3.143927
v 1.232657 4.909198 -5.701744
v 0.359224 5.682378 -8.259011
v 1.122395 5.258739 -5.447710
v 0.287638 5.907958 -8.095075
v 0.924099 5.538806 -5.245261
v 0.159830 6.089115 -7.964117
v 0.629743 5.760224 -5.086567
v -0.030464 6.232095 -7.861647
v -1.719707 2.553208 -10.563531
v -1.986084 0.064772 -9.269483
v -2.252079 -2.423925 -7.975136
v -2.383748 -0.062936 -9.366636
v -2.790732 -2.596835 -8.106682
v -1.976766 2.470737 -10.626273
v 1.956719 4.609012 -2.800238
v 1.688406 4.988578 -2.525857
v 1.289562 5.288163 -2.311148
v 0.783700 5.437036 -2.207501
v 0.256120 5.870264 -5.009954
v -0.271504 6.302952 -7.812314
v -0.201213 5.852538 -5.027425
v -0.566931 6.291567 -7.823553
v -0.598876 5.724833 -5.124575
v -0.823989 6.209096 -7.886290
v -0.946309 5.711372 -5.137842
v -1.048137 6.200315 -7.894925
v -3.409933 -2.620590 -8.130154
v -3.915792 -2.471719 -8.026510
v 0.164502 5.413279 -2.230976
v -0.374156 5.240366 -2.362519
v -0.844477 5.222200 -2.380438
v -1.274518 6.250902 -7.860248
v -1.529135 6.384341 -7.765373
v -2.703487 2.673503 -10.485480
v -3.509061 0.250796 -9.148798
v -4.314642 -2.172137 -7.811804
v -3.707315 0.531178 -8.946120
v -4.582955 -1.792567 -7.537424
v -3.817616 0.880404 -8.692317
v -4.732360 -1.319658 -7.193735
v -2.347518 5.712156 -2.037724
v -2.056442 6.073454 -4.884565
v -1.765400 6.434216 -7.731315
v -2.449535 6.030785 -4.919606
v -2.018972 6.406814 -7.753828
v -2.787206 5.829453 -5.069897
v -2.237430 6.276645 -7.850995
v -3.041895 5.587285 -5.249171
v -2.402009 6.120233 -7.966790
v -2.831335 2.854346 -10.354751
v -2.902919 3.079930 -10.190817
v -2.879718 5.654490 -2.085086
v -3.336992 5.382030 -2.288483
v -3.682176 5.054151 -2.531212
v -3.987310 4.649974 -2.829238
v -3.267317 5.288758 -5.469296
v -2.547328 5.927316 -8.109038
v -3.512704 5.110333 -5.601960
v -2.705822 5.812452 -8.194445
v -4.319545 4.408296 -3.008925
v -4.982536 -0.985355 -6.952212
v -5.335317 -0.717978 -6.760552
v -2.906413 5.724069 -8.260941
v -3.195260 5.687429 -8.290546
v -3.415762 5.559658 -8.385986
v -4.611856 4.719275 -5.898272
v -5.807563 3.878634 -3.410263
v -5.877186 -0.501076 -6.607611
v -6.281025 -0.209906 -6.399098
v -3.570016 5.395059 -8.507654
v -4.850924 4.464347 -6.086707
v -6.131442 3.533377 -3.665464
v -3.656759 5.200477 -8.650537
v -4.984964 4.163170 -6.307860
v -6.312781 3.125601 -3.964890
v -6.290070 2.713501 -4.265447
v -4.968145 3.858542 -6.530036
v -3.645795 5.003636 -8.794096
v -4.799703 3.504204 -6.786992
v -3.536999 4.774787 -8.960052
v -4.778612 3.211549 -7.000388
v -3.523449 4.585948 -9.097745
v -6.062402 2.233400 -4.613608
v -6.033732 1.837235 -4.902482
v -6.560590 0.167484 -6.126419
v -6.635081 0.597737 -5.813123
v -6.154245 1.469996 -5.171715
v -4.867681 2.940275 -7.199267
v -3.581076 4.410645 -9.226271
v -5.105736 2.653296 -7.411085
v -3.734863 4.225117 -9.363209
v -6.476619 1.081255 -5.458643
v 4.625846 4.945656 -7.440290
v 6.227227 3.549911 -5.730708
v 6.540978 4.062142 -5.300214
v 4.849998 5.311622 -7.132725
v 3.513705 6.627889 -6.116901
v 4.670778 5.903466 -3.879213
v 4.164673 6.150362 -3.699450
v 3.151868 6.804315 -5.988458
v -0.736559 7.775339 -5.361537
v -1.276549 7.509143 -2.822190
v -1.923843 7.562922 -2.805690
v -1.199113 7.813575 -5.349908
v -1.697270 1.486949 -10.524478
v -2.620625 -1.289719 -10.046295
v -2.132905 -1.737944 -10.390831
v -1.348567 1.166720 -10.770621
v 6.171407 3.105075 -6.095417
v 4.586115 4.627629 -7.701028
v 3.000422 6.150702 -9.306727
v 3.024476 6.341648 -9.150174
v 3.158999 6.561634 -8.965293
v 3.064841 5.963627 -9.456400
v 3.064841 5.963627 -9.456400
v 4.693078 4.316021 -7.950348
v 4.693078 4.316021 -7.950348
v 6.321294 2.668944 -6.444358
v 6.321294 2.668944 -6.444358
v 3.151278 6.790469 -8.779216
v 4.836699 5.692300 -6.823195
v 6.522475 4.594682 -4.867197
v 3.244875 5.757393 -9.616795
v 4.992935 3.972978 -8.217136
v 6.740979 2.189095 -6.817530
v 5.060678 3.594682 -8.522432
v 6.835882 1.659601 -7.244842
v 4.987792 3.242126 -8.812692
v 6.733605 1.166075 -7.651175
v 4.781963 2.925103 -9.079618
v 6.445560 0.722600 -8.024575
v 6.316243 5.074714 -4.484874
v 4.689514 6.035524 -6.549823
v 3.062830 6.996277 -8.615302
v 4.418211 6.331674 -6.320024
v 2.899858 7.174316 -8.477149
v 4.044976 6.518826 -6.183324
v 2.675520 7.286768 -8.395015
v 5.936608 5.488985 -4.163437
v 5.414443 5.751128 -3.971929
v 3.285836 5.530311 -9.800043
v 3.241990 5.318417 -9.974497
v 3.118347 5.128136 -10.134709
v 2.356297 7.352242 -8.355150
v 2.139107 7.458212 -8.277988
v 1.979904 7.604519 -8.165527
v 2.886971 7.047587 -5.801463
v 3.794021 6.491196 -3.437455
v 1.868115 7.822598 -7.992601
v 2.700795 7.410959 -5.513319
v 3.533481 6.999566 -3.034336
v 1.658775 8.015147 -7.844590
v 2.352091 7.731195 -5.267179
v 3.045765 7.447789 -2.689800
v 2.920029 4.996904 -10.249978
v 4.452010 2.706897 -9.271286
v 5.983971 0.417419 -8.292643
v 2.466090 7.682910 -2.522733
v 1.937950 7.899421 -5.147615
v 1.409825 8.116181 -7.772791
v 1.498836 7.931598 -5.139933
v 1.146065 8.135359 -7.768299
v 1.021493 7.852249 -5.224710
v 0.859441 8.087674 -7.819232
v 0.569909 7.663274 -5.397703
v 0.588193 7.974217 -7.923099
v 0.165190 7.600972 -5.465528
v 0.344888 7.937000 -7.963684
v 0.095938 7.952684 -7.961408
v -0.249004 7.627445 -5.461436
v -0.594280 7.302139 -2.962025
v -0.014528 7.265487 -2.967423
v 0.552045 7.352285 -2.872808
v 1.183968 7.616774 -2.630697
v 1.851617 7.728085 -2.511857
v 2.617695 4.904236 -10.338223
v 3.948834 2.552875 -9.417981
v 5.279605 0.201734 -8.498056
v 2.425051 4.780334 -10.447280
v 3.627861 2.346578 -9.599565
v 4.830689 -0.086941 -8.752147
v 2.298396 4.621820 -10.581746
v 3.417140 2.082496 -9.823569
v 4.535898 -0.456586 -9.065691
v 3.309966 1.705996 -10.134781
v 4.385876 -0.983212 -9.501004
v 3.032574 1.358377 -10.429653
v 3.997972 -1.469744 -9.913687
v 2.658017 1.155935 -10.610359
v 3.473664 -1.753156 -10.166673
v -0.196906 8.041464 -7.901446
v -0.474743 8.064454 -7.894442
v 2.234034 4.395741 -10.768620
v 2.067568 4.186754 -10.945884
v 1.842377 4.065270 -11.054341
v -0.748230 8.021777 -7.940745
v -1.654528 7.742270 -5.427206
v -2.560809 7.462999 -2.913960
v -3.085111 7.179587 -3.166945
v -2.029052 7.539536 -5.608151
v -0.973390 7.899997 -8.049440
v -2.306443 7.191914 -5.903019
v -1.139855 7.691010 -8.226704
v -2.413651 6.815708 -6.213988
v -1.204250 7.465226 -8.413340
v -3.473021 6.693059 -3.579632
v -3.623070 6.166725 -4.014704
v -3.917830 5.796785 -4.328486
v -2.624373 6.551626 -6.438001
v -1.330874 7.306413 -8.548048
v -2.945344 6.345330 -6.619588
v -1.523518 7.182514 -8.657102
v -3.448487 6.191016 -6.766518
v -1.825852 7.089850 -8.745343
v -3.778476 5.973104 -6.957946
v -2.024202 6.958909 -8.860374
v -2.147812 6.768333 -9.020828
v -3.984306 5.656077 -7.224876
v -5.820746 4.543771 -5.429458
v -5.532701 4.987247 -5.056058
v -5.071112 5.292424 -4.787987
v -4.366744 5.508109 -4.582573
v 1.568922 4.022300 -11.100882
v 2.202602 1.084629 -10.687660
v 2.836704 -1.853079 -10.274941
v 1.740051 1.122869 -10.676029
v 2.189408 -1.799293 -10.258441
v 1.252495 1.270758 -10.576129
v 1.507141 -1.592292 -10.118608
v 1.291083 4.045286 -11.093878
v 0.998241 4.134067 -11.033916
v -5.793926 4.011591 -5.861827
v -3.964953 5.275663 -7.533937
v -2.135962 6.539978 -9.206342
v -3.842911 4.929574 -7.810710
v -2.062860 6.332021 -9.372655
v -3.634491 4.567766 -8.096639
v -1.937490 6.114834 -9.544288
v -3.582591 4.270282 -8.336773
v -1.906243 5.936055 -9.688597
v -3.622323 3.952254 -8.597509
v -1.930297 5.745109 -9.845154
v -3.846474 3.586292 -8.905078
v -2.064821 5.525117 -10.030029
v -5.622923 3.527064 -6.249298
v -5.331127 3.021244 -6.649024
v -5.258580 2.605062 -6.984978
v -5.314365 2.159935 -7.349925
v -5.628150 1.647999 -7.780178
v 0.749257 4.150052 -11.031403
v 0.838330 1.296940 -10.572275
v 0.927386 -1.555636 -10.113208
v 0.433582 1.234936 -10.639860
v 0.360814 -1.642438 -10.207821
v -0.018002 1.045959 -10.812849
v -0.271110 -1.906930 -10.449933
v 0.505985 4.112536 -11.072227
v 0.234740 3.999077 -11.176089
v -2.057130 5.296578 -10.215867
v -3.833175 3.205610 -9.214609
v -5.609616 1.115161 -8.213437
v -5.403383 0.635129 -8.595758
v -3.686023 2.862686 -9.487745
v -1.968650 5.090475 -10.380027
v -3.414723 2.566531 -9.717541
v -1.805708 4.912731 -10.517938
v -3.041452 2.379085 -9.854479
v -1.581342 4.799987 -10.600306
v -2.510216 2.270315 -9.920664
v -1.262119 4.734509 -10.640177
v -2.148378 2.093889 -10.049113
v -1.044928 4.628539 -10.717333
v -5.023747 0.220866 -8.917196
v -4.501582 -0.041280 -9.108702
v -3.757919 -0.193619 -9.201419
v -3.251818 -0.440518 -9.381183
v -0.035631 3.952108 -11.225760
v -0.468123 0.967794 -10.895512
v -0.900953 -2.016582 -10.565827
v -0.934459 0.998779 -10.889951
v -1.553229 -1.973063 -10.557898
v -0.564596 4.071607 -11.150738
v -0.315675 3.970867 -11.222296
v -0.885758 4.482526 -10.829555
v -1.883482 1.850613 -10.236099
v -2.881190 -0.781054 -9.642942
v -0.773936 4.264154 -11.002720
vn -0.7682 0.0450 0.6386
vn -0.7682 0.0452 0.6386
vn -0.8689 -0.1640 0.4671
vn -0.8718 -0.1743 0.4579
vn -0.8882 -0.3986 0.2284
vn -0.8905 -0.3825 0.2462
vn -0.8887 -0.4094 0.2063
vn -0.8910 -0.3985 0.2177
vn -0.4914 0.3033 0.8164
vn -0.4978 0.3006 0.8136
vn -0.2527 0.3805 0.8896
vn -0.2520 0.3808 0.8897
vn -0.5166 -0.8497 -0.1055
vn -0.5059 -0.8553 -0.1122
vn -0.6999 -0.7140 0.0172
vn -0.7000 -0.7139 0.0172
vn 0.1211 0.4174 0.9006
vn 0.1091 0.4202 0.9009
vn 0.4494 0.3041 0.8400
vn 0.4467 0.3053 0.8409
vn -0.3738 -0.9145 -0.1550
vn -0.3883 -0.9086 -0.1541
vn -0.3449 -0.9270 -0.1470
vn -0.3673 -0.9184 -0.1471
vn 0.6922 0.1930 0.6954
vn 0.6921 0.1931 0.6955
vn 0.5210 0.3432 0.7815
vn 0.5095 0.3521 0.7852
vn 0.2914 -0.9411 -0.1717
vn 0.2743 -0.9449 -0.1789
vn 0.3661 -0.9222 -0.1247
vn 0.3378 -0.9308 -0.1393
vn 0.4987 0.3534 0.7915
vn 0.4859 0.3640 0.7946
vn 0.6670 0.1842 0.7220
vn 0.6736 0.1758 0.7179
vn 0.8149 -0.0611 0.5764
vn 0.8141 -0.0592 0.5777
vn 0.8721 -0.3402 0.3518
vn 0.8722 -0.3306 0.3605
vn -0.7965 0.1227 0.5921
vn -0.5687 0.3014 0.7653
vn -0.7858 0.1330 0.6040
vn -0.5686 0.3014 0.7654
vn -0.7738 0.1441 0.6169
vn -0.5690 0.3012 0.7652
vn -0.2976 0.4506 0.8417
vn -0.3163 0.4418 0.8395
vn -0.3192 0.4309 0.8440
vn -0.3443 0.4172 0.8411
vn -0.3725 0.4011 0.8369
vn -0.2807 0.4584 0.8433
vn -0.6107 0.2270 0.7586
vn -0.6157 0.2225 0.7559
vn -0.6215 0.2171 0.7527
vn -0.7738 0.1441 0.6168
vn -0.7671 0.1396 0.6262
vn -0.7858 0.1329 0.6040
vn -0.7497 0.1534 0.6438
vn -0.7965 0.1227 0.5920
vn -0.7287 0.1695 0.6636
vn -0.7682 0.0449 0.6386
vn -0.8742 -0.1835 0.4495
vn -0.4840 0.3066 0.8196
vn -0.2523 0.3807 0.8896
vn -0.8857 -0.4131 0.2119
vn -0.8932 -0.3861 0.2304
vn -0.8957 -0.1847 0.4044
vn -0.8957 -0.1843 0.4048
vn -0.8956 -0.1836 0.4053
vn -0.8303 0.0599 0.5541
vn -0.8363 0.0447 0.5465
vn -0.8271 0.0550 0.5593
vn -0.8202 0.0734 0.5673
vn -0.8799 -0.2342 0.4133
vn -0.8798 -0.2235 0.4196
vn -0.8246 -0.5192 0.2244
vn -0.8239 -0.5210 0.2230
vn -0.8246 0.0739 0.5609
vn -0.8344 0.0343 0.5501
vn -0.8799 -0.2467 0.4060
vn -0.8257 -0.5168 0.2261
vn 0.0587 0.4240 0.9038
vn 0.0464 0.4233 0.9048
vn 0.0326 0.4225 0.9058
vn 0.3802 0.4112 0.8285
vn 0.3595 0.4140 0.8363
vn 0.3374 0.4168 0.8441
vn 0.3665 0.4203 0.8301
vn 0.3812 0.4175 0.8249
vn -0.6800 -0.7322 0.0385
vn -0.6867 -0.7255 0.0453
vn -0.6944 -0.7176 0.0531
vn 0.0906 0.4574 0.8846
vn 0.0902 0.4574 0.8847
vn 0.0895 0.4574 0.8847
vn 0.3500 0.4232 0.8357
vn -0.4955 -0.8613 -0.1119
vn -0.5092 -0.8545 -0.1025
vn -0.5238 -0.8468 -0.0922
vn -0.5283 -0.8434 -0.0982
vn -0.7001 -0.7138 0.0172
vn -0.8465 -0.5155 0.1333
vn -0.8406 -0.5264 0.1279
vn -0.8335 -0.5389 0.1219
vn -0.8428 -0.5202 0.1380
vn -0.8504 -0.5060 0.1440
vn -0.6955 -0.7167 0.0505
vn -0.7039 -0.7082 0.0545
vn -0.4557 -0.8891 -0.0429
vn -0.4574 -0.8883 -0.0422
vn -0.1841 0.4689 0.8638
vn -0.2020 0.4688 0.8599
vn -0.2183 0.4686 0.8560
vn -0.2016 0.4618 0.8638
vn -0.1786 0.4609 0.8693
vn -0.2227 0.4625 0.8582
vn -0.8343 -0.5354 0.1316
vn -0.6867 -0.7255 0.0462
vn -0.4529 -0.8905 -0.0437
vn -0.1434 -0.9818 -0.1248
vn -0.1291 -0.9834 -0.1276
vn -0.1163 -0.9847 -0.1302
vn 0.1954 -0.9646 -0.1770
vn 0.2161 -0.9598 -0.1790
vn 0.1956 -0.9631 -0.1848
vn 0.1777 -0.9667 -0.1840
vn -0.0974 -0.9806 -0.1703
vn -0.0974 -0.9806 -0.1704
vn 0.1354 0.4140 0.9002
vn 0.4442 0.3066 0.8419
vn 0.1721 -0.9695 -0.1748
vn 0.2119 -0.9595 -0.1855
vn -0.0978 -0.9805 -0.1703
vn -0.3577 -0.9207 -0.1559
vn -0.3868 -0.9104 -0.1470
vn 0.6954 0.1558 0.7015
vn 0.6874 0.1621 0.7080
vn 0.6782 0.1692 0.7152
vn 0.8355 0.0181 0.5493
vn 0.8267 0.0291 0.5619
vn 0.8332 0.0297 0.5522
vn 0.8393 0.0211 0.5433
vn -0.0404 -0.9907 -0.1299
vn -0.0542 -0.9899 -0.1311
vn -0.0670 -0.9890 -0.1322
vn 0.3278 -0.9417 -0.0752
vn 0.3332 -0.9399 -0.0741
vn 0.6059 -0.7955 -0.0081
vn 0.6141 -0.7892 -0.0055
vn 0.7307 -0.6816 0.0384
vn 0.7370 -0.6747 0.0413
vn 0.8431 0.0082 0.5377
vn 0.8260 0.0395 0.5623
vn 0.3209 -0.9440 -0.0766
vn 0.5966 -0.8024 -0.0112
vn 0.7243 -0.6886 0.0355
vn 0.6997 -0.7142 0.0180
vn 0.6928 -0.7210 0.0145
vn 0.6851 -0.7283 0.0106
vn 0.5172 -0.8530 -0.0700
vn 0.5185 -0.8523 -0.0694
vn 0.5156 -0.8539 -0.0707
vn 0.6922 0.1929 0.6954
vn 0.4986 0.3603 0.7884
vn 0.3106 -0.9364 -0.1634
vn 0.3129 -0.9376 -0.1519
vn 0.6032 -0.7973 0.0207
vn 0.6087 -0.7930 0.0247
vn 0.6146 -0.7883 0.0290
vn 0.5127 0.3417 0.7877
vn 0.6816 0.1659 0.7127
vn 0.7607 -0.6290 0.1606
vn 0.7608 -0.6288 0.1607
vn 0.7609 -0.6286 0.1607
vn 0.8665 -0.3808 0.3227
vn 0.8642 -0.3911 0.3167
vn 0.8613 -0.4026 0.3098
vn 0.8832 -0.1265 0.4516
vn 0.8810 -0.1049 0.4614
vn 0.8785 -0.0852 0.4700
vn 0.8838 -0.0949 0.4580
vn 0.8860 -0.1103 0.4503
vn 0.8886 -0.3378 0.3104
vn 0.8885 -0.3380 0.3102
vn 0.8817 -0.0810 0.4648
vn 0.8886 -0.3376 0.3105
vn 0.8160 -0.0634 0.5746
vn 0.8722 -0.3196 0.3704
vn 0.8182 -0.5642 0.1101
vn 0.8240 -0.5534 0.1216
vn 0.8301 -0.5412 0.1343
vn 0.8207 -0.5569 0.1279
vn 0.8138 -0.5702 0.1123
vn 0.8280 -0.5417 0.1452
vn -0.7906 -0.1966 0.5800
vn -0.7881 -0.1852 0.5870
vn -0.7920 -0.2660 0.5495
vn -0.7899 -0.2439 0.5626
vn -0.3401 -0.9319 -0.1258
vn -0.3176 -0.9379 -0.1394
vn -0.5504 -0.8349 0.0050
vn -0.5552 -0.8317 0.0081
vn -0.2025 -0.9686 -0.1445
vn -0.1800 -0.9736 -0.1403
vn 0.0568 -0.9950 -0.0819
vn 0.0394 -0.9954 -0.0869
vn 0.6551 -0.0886 0.7503
vn 0.6287 -0.0758 0.7739
vn 0.4073 0.0094 0.9132
vn 0.4273 0.0029 0.9041
vn -0.8124 -0.4247 0.3994
vn -0.8127 -0.4180 0.4061
vn -0.8128 -0.4101 0.4137
vn -0.7931 -0.2093 0.5720
vn -0.7878 -0.2254 0.5732
vn -0.7844 -0.5839 0.2093
vn -0.7763 -0.6048 0.1777
vn -0.7680 -0.6229 0.1491
vn -0.7770 -0.4910 0.3939
vn -0.7766 -0.4925 0.3928
vn -0.7762 -0.4942 0.3916
vn -0.7711 -0.6086 0.1871
vn -0.7763 -0.6049 0.1776
vn -0.7790 -0.5837 0.2288
vn -0.7679 -0.6229 0.1490
vn -0.7860 -0.5525 0.2775
vn -0.7793 -0.3920 0.4890
vn -0.7763 -0.3802 0.5028
vn -0.7205 -0.2423 0.6498
vn -0.7178 -0.2374 0.6546
vn -0.6007 -0.0723 0.7962
vn -0.6051 -0.0774 0.7924
vn -0.7105 -0.6560 0.2546
vn -0.7075 -0.6612 0.2496
vn -0.7046 -0.6659 0.2451
vn -0.5629 -0.8232 0.0747
vn -0.5481 -0.8343 0.0599
vn -0.3420 -0.9330 -0.1122
vn -0.3141 -0.9402 -0.1319
vn -0.5797 -0.8096 0.0918
vn -0.3724 -0.9237 -0.0901
vn -0.7817 -0.4025 0.4764
vn -0.7227 -0.2464 0.6457
vn -0.5970 -0.0679 0.7994
vn -0.3646 -0.9245 -0.1107
vn -0.5611 -0.8277 0.0118
vn -0.7278 -0.6751 0.1202
vn -0.7363 -0.6648 0.1260
vn -0.7439 -0.6553 0.1311
vn -0.7439 -0.6531 0.1414
vn -0.7323 -0.6675 0.1352
vn -0.7191 -0.6830 0.1282
vn -0.5224 -0.8514 0.0467
vn -0.5146 -0.8563 0.0442
vn -0.5057 -0.8617 0.0413
vn -0.4086 0.1136 0.9056
vn -0.4229 0.1019 0.9004
vn -0.4393 0.0882 0.8940
vn -0.2354 -0.9714 -0.0327
vn -0.2282 -0.9730 -0.0344
vn -0.2215 -0.9745 -0.0359
vn 0.0536 -0.9950 -0.0843
vn 0.0699 -0.9938 -0.0864
vn 0.3020 -0.9475 -0.1049
vn 0.3230 -0.9405 -0.1055
vn 0.2971 -0.9479 -0.1146
vn 0.2790 -0.9533 -0.1154
vn 0.0534 -0.9902 -0.1293
vn 0.0533 -0.9902 -0.1293
vn -0.1739 -0.9732 -0.1506
vn -0.1925 -0.9693 -0.1527
vn -0.2085 -0.9657 -0.1544
vn 0.0534 -0.9902 -0.1292
vn 0.3128 -0.9430 -0.1139
vn 0.2790 -0.9546 -0.1041
vn 0.0359 -0.9960 -0.0820
vn -0.4349 0.1038 0.8945
vn -0.4226 0.1127 0.8993
vn -0.4119 0.1202 0.9033
vn -0.5957 -0.0147 0.8031
vn -0.5997 -0.0178 0.8000
vn -0.6033 -0.0206 0.7972
vn -0.7404 -0.1292 0.6596
vn -0.7573 -0.1435 0.6370
vn -0.7715 -0.1558 0.6168
vn -0.7529 -0.1502 0.6407
vn -0.7317 -0.1353 0.6681
vn -0.5604 -0.0403 0.8272
vn -0.5427 -0.0321 0.8393
vn -0.3141 0.0565 0.9477
vn -0.3140 0.0565 0.9477
vn -0.2232 -0.9634 -0.1484
vn 0.0235 -0.9955 -0.0915
vn -0.7709 -0.1633 0.6157
vn -0.5752 -0.0473 0.8167
vn -0.3143 0.0565 0.9476
vn 0.3045 -0.9525 0.0039
vn 0.3111 -0.9504 0.0066
vn 0.3182 -0.9480 0.0094
vn 0.5662 -0.8148 0.1247
vn 0.5740 -0.8086 0.1289
vn 0.5807 -0.8032 0.1326
vn 0.7578 -0.6023 0.2511
vn 0.7670 -0.5870 0.2590
vn 0.7629 -0.5992 0.2426
vn 0.7564 -0.6102 0.2357
vn 0.7472 -0.6189 0.2423
vn 0.7687 -0.5891 0.2489
vn 0.6133 -0.7840 0.0956
vn 0.6174 -0.7804 0.0993
vn 0.6222 -0.7759 0.1039
vn 0.4351 -0.8980 -0.0654
vn 0.4562 -0.8886 -0.0468
vn 0.4349 -0.8990 -0.0517
vn 0.4111 -0.9084 -0.0755
vn 0.6139 -0.7717 0.1662
vn 0.6025 -0.7840 0.1494
vn 0.7307 -0.5469 0.4086
vn 0.7314 -0.5441 0.4110
vn 0.7323 -0.5405 0.4142
vn 0.6266 -0.7569 0.1857
vn 0.4606 -0.8872 -0.0253
vn 0.4154 -0.9059 -0.0824
vn -0.0608 0.1261 0.9901
vn -0.0727 0.1234 0.9897
vn -0.0864 0.1203 0.9890
vn 0.1434 0.1616 0.9764
vn 0.1210 0.1586 0.9799
vn 0.1346 0.1680 0.9765
vn 0.1515 0.1691 0.9739
vn 0.1636 0.1642 0.9728
vn 0.1161 0.1668 0.9791
vn 0.7505 -0.3235 0.5763
vn 0.7500 -0.3172 0.5804
vn 0.7495 -0.3115 0.5841
vn 0.7274 -0.1883 0.6599
vn 0.7257 -0.1825 0.6633
vn 0.7438 -0.2278 0.6284
vn 0.7449 -0.2315 0.6258
vn 0.7800 -0.3839 0.4942
vn 0.7790 -0.3775 0.5007
vn 0.7891 -0.5364 0.2995
vn 0.7903 -0.5151 0.3318
vn 0.7820 -0.5154 0.3504
vn 0.7829 -0.5406 0.3081
vn 0.7289 -0.1943 0.6564
vn 0.7427 -0.2241 0.6311
vn 0.7810 -0.3899 0.4879
vn 0.7869 -0.5549 0.2700
vn 0.7787 -0.4841 0.3992
vn -0.0835 0.1558 0.9842
vn -0.0834 0.1558 0.9843
vn -0.2979 0.1491 0.9429
vn -0.3141 0.1487 0.9377
vn -0.3060 0.1420 0.9414
vn -0.2841 0.1409 0.9484
vn -0.2798 0.1495 0.9483
vn -0.3255 0.1428 0.9347
vn 0.7308 -0.3363 0.5940
vn 0.7255 -0.3261 0.6061
vn 0.7194 -0.3147 0.6192
vn 0.6259 -0.1786 0.7591
vn 0.6298 -0.1832 0.7548
vn 0.6330 -0.1871 0.7512
vn 0.4745 -0.0253 0.8799
vn 0.4700 -0.0213 0.8824
vn 0.2684 0.1321 0.9542
vn 0.2525 0.1426 0.9570
vn 0.2673 0.1428 0.9530
vn 0.2809 0.1352 0.9502
vn 0.4683 0.0289 0.8831
vn 0.4635 0.0316 0.8855
vn 0.4798 -0.0300 0.8768
vn 0.2867 0.1199 0.9505
vn 0.2555 0.1495 0.9552
vn 0.4725 0.0265 0.8809
vn -0.1040 0.1243 0.9868
vn -0.0920 0.1226 0.9882
vn -0.0781 0.1207 0.9896
vn 0.1579 0.0772 0.9844
vn 0.1578 0.0771 0.9845
vn 0.4442 -0.0027 0.8959
vn 0.1580 0.0772 0.9844
vn 0.6380 -0.0689 0.7669
vn 0.6594 -0.0815 0.7473
vn 0.6776 -0.0924 0.7296
vn 0.6778 -0.0999 0.7285
vt 5.625000 0.500000
vt 5.625000 1.000000
vt 5.531300 1.000000
vt 5.531300 0.500000
vt 5.437500 0.500000
vt 5.437500 1.000000
vt 5.343800 1.000000
vt 5.343800 0.500000
vt 0.281300 0.500000
vt 0.281300 0.000000
vt 0.375000 0.000000
vt 0.375000 0.500000
vt 4.593800 0.500000
vt 4.593800 1.000000
vt 4.500000 1.000000
vt 4.500000 0.500000
vt 1.031300 0.500000
vt 1.031300 0.000000
vt 1.125000 0.000000
vt 1.125000 0.500000
vt 3.656300 0.500000
vt 3.656300 1.000000
vt 3.562500 1.000000
vt 3.562500 0.500000
vt 1.500000 0.500000
vt 1.500000 0.000000
vt 1.593800 0.000000
vt 1.593800 0.500000
vt 2.906300 0.500000
vt 2.906300 1.000000
vt 2.812500 1.000000
vt 2.812500 0.500000
vt 1.687500 0.500000
vt 1.687500 0.000000
vt 1.781300 0.000000
vt 1.781300 0.500000
vt 1.875000 0.500000
vt 1.875000 0.000000
vt 1.968800 0.000000
vt 1.968800 0.500000
vt 6.093800 1.000000
vt 6.000000 1.000000
vt 6.093800 0.500000
vt 6.000000 0.500000
vt 6.093800 0.000000
vt 6.000000 0.000000
vt 5.906300 0.500000
vt 5.906300 0.000000
vt 5.812500 0.000000
vt 5.812500 0.500000
vt 5.812500 1.000000
vt 5.906300 1.000000
vt 5.718800 0.000000
vt 5.718800 0.500000
vt 5.718800 1.000000
vt 0.093800 0.000000
vt 0.187500 0.000000
vt 0.093800 0.500000
vt 0.187500 0.500000
vt 0.093800 1.000000
vt 0.187500 1.000000
vt 5.625000 0.000000
vt 5.531300 0.000000
vt 0.281300 1.000000
vt 0.375000 1.000000
vt 5.437500 0.000000
vt 5.343800 0.000000
vt 5.250000 1.000000
vt 5.250000 0.500000
vt 5.250000 0.000000
vt 5.156300 0.500000
vt 5.156300 0.000000
vt 5.062500 0.500000
vt 5.062500 0.000000
vt 4.968800 0.500000
vt 4.968800 0.000000
vt 4.875000 0.500000
vt 4.875000 0.000000
vt 5.156300 1.000000
vt 5.062500 1.000000
vt 4.968800 1.000000
vt 4.875000 1.000000
vt 0.468800 0.000000
vt 0.468800 0.500000
vt 0.468800 1.000000
vt 0.562500 0.000000
vt 0.562500 0.500000
vt 0.562500 1.000000
vt 0.656300 0.500000
vt 0.656300 1.000000
vt 4.781300 0.000000
vt 4.781300 0.500000
vt 4.781300 1.000000
vt 0.750000 1.000000
vt 0.750000 0.500000
vt 0.750000 0.000000
vt 0.656300 0.000000
vt 4.687500 0.000000
vt 4.687500 0.500000
vt 4.687500 1.000000
vt 4.593800 0.000000
vt 4.500000 0.000000
vt 4.406300 1.000000
vt 4.406300 0.500000
vt 4.406300 0.000000
vt 4.312500 0.500000
vt 4.312500 0.000000
vt 4.218800 0.500000
vt 4.218800 0.000000
vt 4.125000 0.500000
vt 4.125000 0.000000
vt 0.843800 0.000000
vt 0.843800 0.500000
vt 0.843800 1.000000
vt 0.937500 0.500000
vt 0.937500 1.000000
vt 0.937500 0.000000
vt 4.312500 1.000000
vt 4.218800 1.000000
vt 4.125000 1.000000
vt 4.031300 1.000000
vt 4.031300 0.500000
vt 4.031300 0.000000
vt 3.937500 0.500000
vt 3.937500 0.000000
vt 3.843800 0.500000
vt 3.843800 0.000000
vt 3.750000 0.500000
vt 3.750000 0.000000
vt 1.031300 1.000000
vt 1.125000 1.000000
vt 3.937500 1.000000
vt 3.843800 1.000000
vt 3.750000 1.000000
vt 3.656300 0.000000
vt 3.562500 0.000000
vt 1.218800 0.000000
vt 1.218800 0.500000
vt 1.218800 1.000000
vt 1.312500 0.500000
vt 1.312500 1.000000
vt 1.406300 0.500000
vt 1.406300 1.000000
vt 3.468800 1.000000
vt 3.468800 0.500000
vt 3.468800 0.000000
vt 3.375000 0.500000
vt 3.375000 0.000000
vt 3.281300 0.500000
vt 3.281300 0.000000
vt 3.187500 0.500000
vt 3.187500 0.000000
vt 1.312500 0.000000
vt 1.406300 0.000000
vt 3.375000 1.000000
vt 3.281300 1.000000
vt 3.187500 1.000000
vt 3.093800 1.000000
vt 3.093800 0.500000
vt 3.093800 0.000000
vt 3.000000 0.500000
vt 3.000000 0.000000
vt 3.000000 1.000000
vt 1.500000 1.000000
vt 1.593800 1.000000
vt 2.906300 0.000000
vt 2.812500 0.000000
vt 2.718800 0.000000
vt 2.718800 0.500000
vt 2.718800 1.000000
vt 1.687500 1.000000
vt 1.781300 1.000000
vt 2.625000 0.000000
vt 2.625000 0.500000
vt 2.625000 1.000000
vt 2.531300 0.000000
vt 2.531300 0.500000
vt 2.531300 1.000000
vt 2.437500 1.000000
vt 2.437500 0.500000
vt 2.437500 0.000000
vt 2.343800 0.500000
vt 2.343800 0.000000
vt 2.250000 0.500000
vt 2.250000 0.000000
vt 2.343800 1.000000
vt 2.250000 1.000000
vt 1.875000 1.000000
vt 1.968800 1.000000
vt 2.156300 1.000000
vt 2.156300 0.500000
vt 2.156300 0.000000
vt 2.062500 0.500000
vt 2.062500 0.000000
vt 2.062500 1.000000
s 1
usemtl d7d6dff1_dds
f 1/1/1 2/2/2 3/3/3
f 1/1/1 3/3/3 4/4/4
f 5/5/5 6/6/6 7/7/7
f 5/5/5 7/7/7 8/8/8
f 9/9/9 10/10/10 11/11/11
f 9/9/9 11/11/11 12/12/12
f 13/13/13 14/14/14 15/15/15
f 13/13/13 15/15/15 16/16/16
f 17/17/17 18/18/18 19/19/19
f 17/17/17 19/19/19 20/20/20
f 21/21/21 22/22/22 23/23/23
f 21/21/21 23/23/23 24/24/24
f 25/25/25 26/26/26 27/27/27
f 25/25/25 27/27/27 28/28/28
f 29/29/29 30/30/30 31/31/31
f 29/29/29 31/31/31 32/32/32
f 33/33/33 34/34/34 35/35/35
f 33/33/33 35/35/35 36/36/36
f 37/37/37 38/38/38 39/39/39
f 37/37/37 39/39/39 40/40/40
f 41/41/41 43/42/42 44/43/43
f 43/42/42 46/44/44 44/43/43
f 44/43/43 46/44/44 47/45/45
f 47/45/45 46/44/44 49/46/46
f 46/44/44 50/47/47 49/46/46
f 49/46/46 50/47/47 51/48/48
f 52/49/49 51/48/48 53/50/50
f 51/48/48 50/47/47 53/50/50
f 53/50/50 50/47/47 54/51/51
f 54/51/51 50/47/47 55/52/52
f 50/47/47 46/44/44 55/52/52
f 55/52/52 46/44/44 43/42/42
f 56/53/53 52/49/49 57/54/54
f 52/49/49 53/50/50 57/54/54
f 57/54/54 53/50/50 58/55/55
f 53/50/50 54/51/51 58/55/55
f 48/56/56 59/57/57 45/58/58
f 59/57/57 60/59/59 45/58/58
f 45/58/58 60/59/59 42/60/60
f 60/59/59 61/61/61 42/60/60
f 58/55/55 2/2/2 57/54/54
f 2/2/2 1/1/1 57/54/54
f 57/54/54 1/1/1 56/53/53
f 56/53/53 1/1/1 62/62/62
f 1/1/1 4/4/4 62/62/62
f 62/62/62 4/4/4 63/63/63
f 59/57/57 10/10/10 60/59/59
f 10/10/10 9/9/9 60/59/59
f 60/59/59 9/9/9 61/61/61
f 61/61/61 9/9/9 64/64/64
f 9/9/9 12/12/12 64/64/64
f 64/64/64 12/12/12 65/65/65
f 3/3/3 6/6/6 4/4/4
f 6/6/6 5/5/5 4/4/4
f 4/4/4 5/5/5 63/63/63
f 63/63/63 5/5/5 66/66/66
f 5/5/5 8/8/8 66/66/66
f 66/66/66 8/8/8 67/67/67
f 7/7/7 68/68/68 8/8/8
f 68/68/68 69/69/69 8/8/8
f 8/8/8 69/69/69 67/67/67
f 67/67/67 69/69/69 70/70/70
f 69/69/69 71/71/71 70/70/70
f 70/70/70 71/71/71 72/72/72
f 71/71/71 73/73/73 72/72/72
f 72/72/72 73/73/73 74/74/74
f 73/73/73 75/75/75 74/74/74
f 74/74/74 75/75/75 76/76/76
f 75/75/75 77/77/77 76/76/76
f 76/76/76 77/77/77 78/78/78
f 68/68/68 79/79/79 69/69/69
f 69/69/69 79/79/79 71/71/71
f 79/79/79 80/80/80 71/71/71
f 71/71/71 80/80/80 73/73/73
f 80/80/80 81/81/81 73/73/73
f 73/73/73 81/81/81 75/75/75
f 81/81/81 82/82/82 75/75/75
f 75/75/75 82/82/82 77/77/77
f 11/11/11 83/83/83 12/12/12
f 83/83/83 84/84/84 12/12/12
f 12/12/12 84/84/84 65/65/65
f 84/84/84 85/85/85 65/65/65
f 83/83/83 86/86/86 84/84/84
f 86/86/86 87/87/87 84/84/84
f 84/84/84 87/87/87 85/85/85
f 85/85/85 87/87/87 88/88/88
f 87/87/87 89/89/89 88/88/88
f 88/88/88 89/89/89 90/90/90
f 91/91/91 78/78/78 92/92/92
f 78/78/78 77/77/77 92/92/92
f 92/92/92 77/77/77 93/93/93
f 77/77/77 82/82/82 93/93/93
f 94/94/94 90/90/90 95/95/95
f 90/90/90 89/89/89 95/95/95
f 95/95/95 89/89/89 96/96/96
f 96/96/96 89/89/89 97/97/97
f 89/89/89 87/87/87 97/97/97
f 97/97/97 87/87/87 86/86/86
f 98/98/98 91/91/91 99/99/99
f 91/91/91 92/92/92 99/99/99
f 99/99/99 92/92/92 100/100/100
f 92/92/92 93/93/93 100/100/100
f 100/100/100 14/14/14 99/99/99
f 14/14/14 13/13/13 99/99/99
f 99/99/99 13/13/13 98/98/98
f 98/98/98 13/13/13 101/101/101
f 13/13/13 16/16/16 101/101/101
f 101/101/101 16/16/16 102/102/102
f 15/15/15 103/103/103 16/16/16
f 103/103/103 104/104/104 16/16/16
f 16/16/16 104/104/104 102/102/102
f 102/102/102 104/104/104 105/105/105
f 104/104/104 106/106/106 105/105/105
f 105/105/105 106/106/106 107/107/107
f 106/106/106 108/108/108 107/107/107
f 107/107/107 108/108/108 109/109/109
f 108/108/108 110/110/110 109/109/109
f 109/109/109 110/110/110 111/111/111
f 96/96/96 112/112/112 95/95/95
f 112/112/112 113/113/113 95/95/95
f 95/95/95 113/113/113 94/94/94
f 94/94/94 113/113/113 114/114/114
f 113/113/113 115/115/115 114/114/114
f 114/114/114 115/115/115 116/116/116
f 116/116/116 115/115/115 17/17/17
f 17/17/17 115/115/115 18/18/18
f 18/18/18 115/115/115 117/117/117
f 115/115/115 113/113/113 117/117/117
f 117/117/117 113/113/113 112/112/112
f 103/103/103 118/118/118 104/104/104
f 104/104/104 118/118/118 106/106/106
f 118/118/118 119/119/119 106/106/106
f 106/106/106 119/119/119 108/108/108
f 119/119/119 120/120/120 108/108/108
f 108/108/108 120/120/120 110/110/110
f 120/120/120 121/121/121 110/110/110
f 121/121/121 122/122/122 110/110/110
f 110/110/110 122/122/122 111/111/111
f 111/111/111 122/122/122 123/123/123
f 122/122/122 124/124/124 123/123/123
f 123/123/123 124/124/124 125/125/125
f 124/124/124 126/126/126 125/125/125
f 125/125/125 126/126/126 127/127/127
f 126/126/126 128/128/128 127/127/127
f 127/127/127 128/128/128 129/129/129
f 116/116/116 17/17/17 130/130/130
f 17/17/17 20/20/20 130/130/130
f 130/130/130 20/20/20 131/131/131
f 121/121/121 132/132/132 122/122/122
f 122/122/122 132/132/132 124/124/124
f 132/132/132 133/133/133 124/124/124
f 124/124/124 133/133/133 126/126/126
f 133/133/133 134/134/134 126/126/126
f 126/126/126 134/134/134 128/128/128
f 134/134/134 22/22/22 128/128/128
f 22/22/22 21/21/21 128/128/128
f 128/128/128 21/21/21 129/129/129
f 129/129/129 21/21/21 135/135/135
f 21/21/21 24/24/24 135/135/135
f 135/135/135 24/24/24 136/136/136
f 19/19/19 137/137/137 20/20/20
f 137/137/137 138/138/138 20/20/20
f 20/20/20 138/138/138 131/131/131
f 131/131/131 138/138/138 139/139/139
f 138/138/138 140/140/140 139/139/139
f 139/139/139 140/140/140 141/141/141
f 140/140/140 142/142/142 141/141/141
f 141/141/141 142/142/142 143/143/143
f 23/23/23 144/144/144 24/24/24
f 144/144/144 145/145/145 24/24/24
f 24/24/24 145/145/145 136/136/136
f 136/136/136 145/145/145 146/146/146
f 145/145/145 147/147/147 146/146/146
f 146/146/146 147/147/147 148/148/148
f 147/147/147 149/149/149 148/148/148
f 148/148/148 149/149/149 150/150/150
f 149/149/149 151/151/151 150/150/150
f 150/150/150 151/151/151 152/152/152
f 137/137/137 153/153/153 138/138/138
f 138/138/138 153/153/153 140/140/140
f 153/153/153 154/154/154 140/140/140
f 140/140/140 154/154/154 142/142/142
f 144/144/144 155/155/155 145/145/145
f 145/145/145 155/155/155 147/147/147
f 155/155/155 156/156/156 147/147/147
f 147/147/147 156/156/156 149/149/149
f 156/156/156 157/157/157 149/149/149
f 149/149/149 157/157/157 151/151/151
f 157/157/157 158/158/158 151/151/151
f 158/158/158 159/159/159 151/151/151
f 151/151/151 159/159/159 152/152/152
f 152/152/152 159/159/159 160/160/160
f 159/159/159 161/161/161 160/160/160
f 160/160/160 161/161/161 162/162/162
f 162/162/162 161/161/161 29/29/29
f 29/29/29 161/161/161 30/30/30
f 30/30/30 161/161/161 163/163/163
f 161/161/161 159/159/159 163/163/163
f 163/163/163 159/159/159 158/158/158
f 154/154/154 26/26/26 142/142/142
f 26/26/26 25/25/25 142/142/142
f 142/142/142 25/25/25 143/143/143
f 143/143/143 25/25/25 164/164/164
f 25/25/25 28/28/28 164/164/164
f 164/164/164 28/28/28 165/165/165
f 162/162/162 29/29/29 166/166/166
f 29/29/29 32/32/32 166/166/166
f 166/166/166 32/32/32 167/167/167
f 168/168/168 167/167/167 169/169/169
f 167/167/167 32/32/32 169/169/169
f 169/169/169 32/32/32 170/170/170
f 32/32/32 31/31/31 170/170/170
f 27/27/27 34/34/34 28/28/28
f 34/34/34 33/33/33 28/28/28
f 28/28/28 33/33/33 165/165/165
f 165/165/165 33/33/33 171/171/171
f 33/33/33 36/36/36 171/171/171
f 171/171/171 36/36/36 172/172/172
f 173/173/173 168/168/168 174/174/174
f 168/168/168 169/169/169 174/174/174
f 174/174/174 169/169/169 175/175/175
f 169/169/169 170/170/170 175/175/175
f 176/176/176 173/173/173 177/177/177
f 173/173/173 174/174/174 177/177/177
f 177/177/177 174/174/174 178/178/178
f 174/174/174 175/175/175 178/178/178
f 178/178/178 179/179/179 177/177/177
f 179/179/179 180/180/180 177/177/177
f 177/177/177 180/180/180 176/176/176
f 176/176/176 180/180/180 181/181/181
f 180/180/180 182/182/182 181/181/181
f 181/181/181 182/182/182 183/183/183
f 182/182/182 184/184/184 183/183/183
f 183/183/183 184/184/184 185/185/185
f 179/179/179 186/186/186 180/180/180
f 180/180/180 186/186/186 182/182/182
f 186/186/186 187/187/187 182/182/182
f 182/182/182 187/187/187 184/184/184
f 35/35/35 38/38/38 36/36/36
f 38/38/38 37/37/37 36/36/36
f 36/36/36 37/37/37 172/172/172
f 172/172/172 37/37/37 188/188/188
f 37/37/37 40/40/40 188/188/188
f 188/188/188 40/40/40 189/189/189
f 187/187/187 190/190/190 184/184/184
f 190/190/190 191/191/191 184/184/184
f 184/184/184 191/191/191 185/185/185
f 185/185/185 191/191/191 192/192/192
f 191/191/191 193/193/193 192/192/192
f 192/192/192 193/193/193 194/194/194
f 193/193/193 40/40/40 194/194/194
f 194/194/194 40/40/40 39/39/39
f 190/190/190 195/195/195 191/191/191
f 191/191/191 195/195/195 193/193/193
f 195/195/195 189/189/189 193/193/193
f 193/193/193 189/189/189 40/40/40
f 196/47/196 197/52/197 198/51/198
f 196/47/196 198/51/198 199/50/199
f 200/8/200 201/7/201 202/68/202
f 200/8/200 202/68/202 203/69/203
f 204/106/204 205/118/205 206/119/206
f 204/106/204 206/119/206 207/108/207
f 208/193/208 209/195/209 210/189/210
f 208/193/208 210/189/210 211/40/211
f 212/42/212 197/52/197 213/44/213
f 197/52/197 196/47/196 213/44/213
f 213/44/213 196/47/196 214/46/214
f 214/46/214 196/47/196 215/48/215
f 196/47/196 199/50/199 215/48/215
f 215/48/215 199/50/199 216/49/216
f 214/46/214 217/45/217 213/44/213
f 217/45/217 219/43/218 213/44/213
f 213/44/213 219/43/218 212/42/212
f 219/43/218 221/41/219 212/42/212
f 223/53/220 216/49/216 224/54/221
f 216/49/216 199/50/199 224/54/221
f 224/54/221 199/50/199 225/55/222
f 199/50/199 198/51/198 225/55/222
f 218/56/217 226/57/223 220/58/224
f 226/57/223 227/59/225 220/58/224
f 220/58/224 227/59/225 222/60/226
f 222/60/226 227/59/225 228/61/227
f 227/59/225 229/9/228 228/61/227
f 228/61/227 229/9/228 230/64/229
f 229/9/228 231/12/230 230/64/229
f 230/64/229 231/12/230 232/65/231
f 231/12/230 233/84/232 232/65/231
f 232/65/231 233/84/232 234/85/233
f 225/55/222 235/2/234 224/54/221
f 235/2/234 236/1/235 224/54/221
f 224/54/221 236/1/235 223/53/220
f 223/53/220 236/1/235 237/62/236
f 236/1/235 238/4/237 237/62/236
f 237/62/236 238/4/237 239/63/238
f 238/4/237 240/5/239 239/63/238
f 239/63/238 240/5/239 241/66/240
f 235/2/234 242/3/241 236/1/235
f 236/1/235 242/3/241 238/4/237
f 242/3/241 243/6/242 238/4/237
f 238/4/237 243/6/242 240/5/239
f 226/57/223 244/10/243 227/59/225
f 227/59/225 244/10/243 229/9/228
f 244/10/243 245/11/244 229/9/228
f 229/9/228 245/11/244 231/12/230
f 245/11/244 246/83/245 231/12/230
f 231/12/230 246/83/245 233/84/232
f 243/6/242 201/7/201 240/5/239
f 201/7/201 200/8/200 240/5/239
f 240/5/239 200/8/200 241/66/240
f 241/66/240 200/8/200 247/67/246
f 200/8/200 203/69/203 247/67/246
f 247/67/246 203/69/203 248/70/247
f 249/72/248 248/70/247 250/71/249
f 248/70/247 203/69/203 250/71/249
f 250/71/249 203/69/203 251/79/250
f 203/69/203 202/68/202 251/79/250
f 252/74/251 249/72/248 253/73/252
f 249/72/248 250/71/249 253/73/252
f 253/73/252 250/71/249 254/80/253
f 250/71/249 251/79/250 254/80/253
f 255/76/254 252/74/251 256/75/255
f 252/74/251 253/73/252 256/75/255
f 256/75/255 253/73/252 257/81/256
f 253/73/252 254/80/253 257/81/256
f 246/83/245 258/86/257 233/84/232
f 258/86/257 259/87/258 233/84/232
f 233/84/232 259/87/258 234/85/233
f 259/87/258 260/88/259 234/85/233
f 257/81/256 261/82/260 256/75/255
f 261/82/260 262/77/261 256/75/255
f 256/75/255 262/77/261 255/76/254
f 255/76/254 262/77/261 263/78/262
f 262/77/261 264/92/263 263/78/262
f 263/78/262 264/92/263 265/91/264
f 264/92/263 266/99/265 265/91/264
f 265/91/264 266/99/265 267/98/266
f 266/99/265 268/13/267 267/98/266
f 267/98/266 268/13/267 269/101/268
f 268/13/267 270/16/269 269/101/268
f 269/101/268 270/16/269 271/102/270
f 272/105/271 271/102/270 273/104/272
f 271/102/270 270/16/269 273/104/272
f 273/104/272 270/16/269 274/103/273
f 274/103/273 270/16/269 275/15/274
f 270/16/269 268/13/267 275/15/274
f 275/15/274 268/13/267 276/14/275
f 268/13/267 266/99/265 276/14/275
f 276/14/275 266/99/265 277/100/276
f 266/99/265 264/92/263 277/100/276
f 277/100/276 264/92/263 278/93/277
f 264/92/263 262/77/261 278/93/277
f 278/93/277 262/77/261 261/82/260
f 258/86/257 279/97/278 259/87/258
f 279/97/278 280/89/279 259/87/258
f 259/87/258 280/89/279 260/88/259
f 280/89/279 281/90/280 260/88/259
f 279/97/278 282/96/281 280/89/279
f 282/96/281 283/95/282 280/89/279
f 280/89/279 283/95/282 281/90/280
f 283/95/282 284/94/283 281/90/280
f 282/96/281 285/112/284 283/95/282
f 285/112/284 286/113/285 283/95/282
f 283/95/282 286/113/285 284/94/283
f 284/94/283 286/113/285 287/114/286
f 286/113/285 288/115/287 287/114/286
f 287/114/286 288/115/287 289/116/288
f 288/115/287 290/17/289 289/116/288
f 289/116/288 290/17/289 291/130/290
f 290/17/289 292/20/291 291/130/290
f 291/130/290 292/20/291 293/131/292
f 274/103/273 205/118/205 273/104/272
f 205/118/205 204/106/204 273/104/272
f 273/104/272 204/106/204 272/105/271
f 272/105/271 204/106/204 294/107/293
f 204/106/204 207/108/207 294/107/293
f 294/107/293 207/108/207 295/109/294
f 285/112/284 296/117/295 286/113/285
f 286/113/285 296/117/295 288/115/287
f 296/117/295 297/18/296 288/115/287
f 288/115/287 297/18/296 290/17/289
f 297/18/296 298/19/297 290/17/289
f 290/17/289 298/19/297 292/20/291
f 299/111/298 295/109/294 300/110/299
f 295/109/294 207/108/207 300/110/299
f 300/110/299 207/108/207 301/120/300
f 207/108/207 206/119/206 301/120/300
f 301/120/300 302/121/301 300/110/299
f 302/121/301 303/122/302 300/110/299
f 300/110/299 303/122/302 299/111/298
f 299/111/298 303/122/302 304/123/303
f 303/122/302 305/124/304 304/123/303
f 304/123/303 305/124/304 306/125/305
f 305/124/304 307/126/306 306/125/305
f 306/125/305 307/126/306 308/127/307
f 302/121/301 309/132/308 303/122/302
f 303/122/302 309/132/308 305/124/304
f 309/132/308 310/133/309 305/124/304
f 305/124/304 310/133/309 307/126/306
f 310/133/309 311/134/310 307/126/306
f 311/134/310 312/128/311 307/126/306
f 307/126/306 312/128/311 308/127/307
f 308/127/307 312/128/311 313/129/312
f 312/128/311 314/21/313 313/129/312
f 313/129/312 314/21/313 315/135/314
f 314/21/313 316/24/315 315/135/314
f 315/135/314 316/24/315 317/136/316
f 316/24/315 318/145/317 317/136/316
f 317/136/316 318/145/317 319/146/318
f 320/148/319 319/146/318 321/147/320
f 319/146/318 318/145/317 321/147/320
f 321/147/320 318/145/317 322/155/321
f 322/155/321 318/145/317 323/144/322
f 318/145/317 316/24/315 323/144/322
f 323/144/322 316/24/315 324/23/323
f 316/24/315 314/21/313 324/23/323
f 324/23/323 314/21/313 325/22/324
f 314/21/313 312/128/311 325/22/324
f 325/22/324 312/128/311 311/134/310
f 298/19/297 326/137/325 292/20/291
f 326/137/325 327/138/326 292/20/291
f 292/20/291 327/138/326 293/131/292
f 293/131/292 327/138/326 328/139/327
f 327/138/326 329/140/328 328/139/327
f 328/139/327 329/140/328 330/141/329
f 329/140/328 331/142/330 330/141/329
f 330/141/329 331/142/330 332/143/331
f 326/137/325 333/153/332 327/138/326
f 327/138/326 333/153/332 329/140/328
f 333/153/332 334/154/333 329/140/328
f 329/140/328 334/154/333 331/142/330
f 322/155/321 335/156/334 321/147/320
f 335/156/334 336/149/335 321/147/320
f 321/147/320 336/149/335 320/148/319
f 320/148/319 336/149/335 337/150/336
f 336/149/335 338/151/337 337/150/336
f 337/150/336 338/151/337 339/152/338
f 338/151/337 340/159/339 339/152/338
f 339/152/338 340/159/339 341/160/340
f 340/159/339 342/161/341 341/160/340
f 341/160/340 342/161/341 343/162/342
f 342/161/341 344/29/343 343/162/342
f 343/162/342 344/29/343 345/166/344
f 344/29/343 346/32/345 345/166/344
f 345/166/344 346/32/345 347/167/346
f 335/156/334 348/157/347 336/149/335
f 336/149/335 348/157/347 338/151/337
f 348/157/347 349/158/348 338/151/337
f 338/151/337 349/158/348 340/159/339
f 349/158/348 350/163/349 340/159/339
f 340/159/339 350/163/349 342/161/341
f 350/163/349 351/30/350 342/161/341
f 342/161/341 351/30/350 344/29/343
f 351/30/350 352/31/351 344/29/343
f 344/29/343 352/31/351 346/32/345
f 334/154/333 353/26/352 331/142/330
f 353/26/352 354/25/353 331/142/330
f 331/142/330 354/25/353 332/143/331
f 332/143/331 354/25/353 355/164/353
f 354/25/353 356/28/354 355/164/353
f 355/164/353 356/28/354 357/165/355
f 356/28/354 358/33/356 357/165/355
f 357/165/355 358/33/356 359/171/357
f 353/26/352 360/27/358 354/25/353
f 354/25/353 360/27/358 356/28/354
f 360/27/358 361/34/359 356/28/354
f 356/28/354 361/34/359 358/33/356
f 362/168/360 347/167/346 363/169/361
f 347/167/346 346/32/345 363/169/361
f 363/169/361 346/32/345 364/170/362
f 346/32/345 352/31/351 364/170/362
f 364/170/362 365/175/363 363/169/361
f 365/175/363 366/174/364 363/169/361
f 363/169/361 366/174/364 362/168/360
f 362/168/360 366/174/364 367/173/365
f 366/174/364 368/177/366 367/173/365
f 367/173/365 368/177/366 369/176/367
f 368/177/366 370/180/368 369/176/367
f 369/176/367 370/180/368 371/181/369
f 370/180/368 372/182/370 371/181/369
f 371/181/369 372/182/370 373/183/371
f 372/182/370 374/184/372 373/183/371
f 373/183/371 374/184/372 375/185/373
f 365/175/363 376/178/374 366/174/364
f 366/174/364 376/178/374 368/177/366
f 376/178/374 377/179/375 368/177/366
f 368/177/366 377/179/375 370/180/368
f 377/179/375 378/186/376 370/180/368
f 370/180/368 378/186/376 372/182/370
f 378/186/376 379/187/377 372/182/370
f 372/182/370 379/187/377 374/184/372
f 361/34/359 380/35/378 358/33/356
f 380/35/378 381/36/379 358/33/356
f 358/33/356 381/36/379 359/171/357
f 359/171/357 381/36/379 382/172/380
f 381/36/379 383/37/381 382/172/380
f 382/172/380 383/37/381 384/188/382
f 210/189/210 384/188/382 211/40/211
f 384/188/382 383/37/381 211/40/211
f 211/40/211 383/37/381 385/39/383
f 385/39/383 383/37/381 386/38/384
f 383/37/381 381/36/379 386/38/384
f 386/38/384 381/36/379 380/35/378
f 387/192/385 375/185/373 388/191/386
f 375/185/373 374/184/372 388/191/386
f 388/191/386 374/184/372 389/190/387
f 374/184/372 379/187/377 389/190/387
f 389/190/387 209/195/209 388/191/386
f 209/195/209 208/193/208 388/191/386
f 388/191/386 208/193/208 387/192/385
f 387/192/385 208/193/208 390/194/388
f 208/193/208 211/40/211 390/194/388
f 390/194/388 211/40/211 385/39/383
