# Blender 5.1.2
# www.blender.org
mtllib grass.mtl
o e779f58d_dds
v -2.004035 0.088314 -1.320823
v -2.004035 0.088314 -1.320823
v -1.956810 0.088288 -1.503729
v -1.951330 0.088327 -1.310263
v -1.951330 0.088327 -1.310263
v -1.514711 0.088407 -1.368817
v 0.188666 0.088486 -2.680108
v 0.188666 0.088486 -2.680108
v 0.111520 0.088469 -2.681407
v 0.111520 0.088469 -2.681407
v 0.108534 0.088456 -2.746543
v 0.108534 0.088456 -2.746543
v 0.102578 0.088423 -2.888447
v 0.102578 0.088423 -2.888447
v 0.054259 0.088443 -2.746636
v 0.054259 0.088443 -2.746636
v 0.040548 0.088413 -2.887393
v 0.040548 0.088413 -2.887393
v 0.823010 0.088741 -2.079248
v 0.823010 0.088741 -2.079248
v 0.723961 0.088698 -2.189526
v 0.723961 0.088698 -2.189526
v 0.805908 0.088744 -2.053691
v 0.805908 0.088744 -2.053691
v 0.688955 0.088707 -2.124066
v 0.688955 0.088707 -2.124066
v 1.813550 0.084040 -1.434736
v 1.813550 0.084040 -1.434736
v 1.529241 0.084000 -1.349164
v 1.529241 0.084000 -1.349164
v 1.752212 0.089032 -1.606980
v 1.477933 0.089002 -1.493864
v 1.477933 0.089002 -1.493864
v 1.674188 0.088982 -1.772267
v 1.674188 0.088982 -1.772267
v 1.312159 0.088949 -1.579443
v 1.372798 0.088986 -1.450625
v 1.372798 0.088986 -1.450625
v 1.048343 0.088823 -1.911763
v 1.048343 0.088823 -1.911763
v 1.082906 0.088823 -1.946208
v 1.082906 0.088823 -1.946208
v 1.143141 0.088863 -1.807310
v 1.143141 0.088863 -1.807310
v 1.239101 0.088909 -1.701691
v 1.239101 0.088909 -1.701691
v 1.189422 0.088903 -1.668826
v 1.189422 0.088903 -1.668826
v 1.108201 0.088863 -1.778685
v 1.108201 0.088863 -1.778685
v -1.733052 0.088417 -1.098594
v -1.733052 0.088417 -1.098594
v -1.939656 0.088370 -1.113687
v -1.939656 0.088370 -1.113687
v -1.724784 0.088400 -1.172240
v -1.724784 0.088400 -1.172240
v -1.929825 0.088357 -1.192755
v -1.929825 0.088357 -1.192755
v -1.594747 0.088410 -1.269321
v -1.594747 0.088410 -1.269321
v -1.616256 0.088427 -1.160032
v -1.616256 0.088427 -1.160032
v -1.546303 0.088423 -1.259545
v -1.546303 0.088423 -1.259545
v -1.978270 0.088344 -1.200594
v -1.978270 0.088344 -1.200594
v -1.171386 0.088264 -2.397529
v -1.171386 0.088264 -2.397529
v -1.002414 0.088350 -2.143686
v -1.002414 0.088350 -2.143686
v -1.263776 0.088258 -2.325582
v -1.263776 0.088258 -2.325582
v -1.070352 0.088350 -2.089142
v -1.070352 0.088350 -2.089142
v -1.462305 0.088221 -2.301501
v -1.331861 0.088228 -2.408666
v -1.331861 0.088228 -2.408666
v -1.066410 0.088387 -1.904207
v -1.066410 0.088387 -1.904207
v -1.166619 0.088390 -1.794278
v -1.166619 0.088390 -1.794278
v -1.101238 0.088373 -1.939161
v -1.101238 0.088373 -1.939161
v -1.242882 0.088360 -1.857217
v -1.242882 0.088360 -1.857217
v -1.599802 0.088228 -2.150931
v -1.008071 0.088377 -2.012657
v -1.008071 0.088377 -2.012657
v -1.393253 0.088370 -1.660923
v -1.393253 0.088370 -1.660923
v -1.436631 0.088357 -1.684260
v -1.436631 0.088357 -1.684260
v -1.315143 0.088364 -1.767015
v -1.698879 0.088231 -2.024332
v 0.934902 0.088780 -1.995704
v 0.974918 0.088780 -2.044092
v 0.974918 0.088780 -2.044092
v 0.100343 0.088413 -2.941564
v 0.100343 0.088413 -2.941564
v 0.183304 0.088430 -2.941032
v 0.183304 0.088430 -2.941032
v 1.863935 0.089002 -1.873123
v 1.863935 0.089002 -1.873123
v 1.759568 0.088942 -2.048152
v 1.759568 0.088942 -2.048152
v 1.811805 0.088919 -2.213605
v 1.876394 0.088952 -2.125873
v 1.876394 0.088952 -2.125873
v 0.522931 0.088588 -2.511658
v 0.522931 0.088588 -2.511658
v 0.419864 0.088562 -2.540912
v 0.419864 0.088562 -2.540912
v 0.404218 0.088579 -2.461851
v 0.404218 0.088579 -2.461851
v 0.275941 0.088546 -2.485336
v 0.238419 0.088526 -2.533862
v 0.238419 0.088526 -2.533862
v 0.237189 0.088535 -2.493546
v 0.237189 0.088535 -2.493546
v 0.496030 0.088602 -2.423699
v 0.496030 0.088602 -2.423699
v 0.643251 0.088645 -2.370329
v 0.643251 0.088645 -2.370329
v 0.593810 0.088661 -2.251395
v 0.593810 0.088661 -2.251395
v 0.192297 0.088516 -2.538597
v 0.192297 0.088516 -2.538597
v 0.191590 0.088506 -2.578918
v -1.800311 0.088241 -1.879514
v -1.506666 0.088374 -1.536674
v -1.506666 0.088374 -1.536674
v -1.887857 0.088261 -1.695513
v -1.461341 0.088387 -1.517986
v -1.461341 0.088387 -1.517986
v 1.759577 0.042418 -2.048144
v 1.759577 0.042418 -2.048144
v 1.876403 0.042428 -2.125865
v 1.876403 0.042428 -2.125865
v 1.674197 0.042458 -1.772258
v 1.674197 0.042458 -1.772258
v 1.863945 0.042478 -1.873114
v 1.863945 0.042478 -1.873114
v 1.082915 0.042303 -1.946199
v 1.082915 0.042303 -1.946199
v 1.048353 0.042303 -1.911754
v 1.048353 0.042303 -1.911754
v 0.723971 0.042174 -2.189517
v 0.723971 0.042174 -2.189517
v 0.688965 0.042183 -2.124058
v 0.688965 0.042183 -2.124058
v 0.805918 0.042223 -2.053682
v 0.805918 0.042223 -2.053682
v 0.823020 0.042220 -2.079239
v 0.823020 0.042220 -2.079239
v 0.934912 0.042260 -1.995691
v 0.974927 0.042256 -2.044084
v 0.974927 0.042256 -2.044084
v 1.143151 0.042342 -1.807302
v 1.143151 0.042342 -1.807302
v 1.108211 0.042342 -1.778672
v 1.108211 0.042342 -1.778672
v 1.189432 0.042382 -1.668817
v 1.189432 0.042382 -1.668817
v 1.239111 0.042382 -1.701682
v 1.239111 0.042382 -1.701682
v 1.529250 0.037476 -1.349156
v 1.529250 0.037476 -1.349156
v 1.813560 0.037519 -1.434727
v 1.813560 0.037519 -1.434727
v 1.372807 0.042465 -1.450616
v 1.372807 0.042465 -1.450616
v 1.477942 0.042475 -1.493855
v 1.477942 0.042475 -1.493855
v 0.522940 0.042068 -2.511646
v 0.522940 0.042068 -2.511646
v 0.496040 0.042081 -2.423690
v 0.496040 0.042081 -2.423690
v 0.643260 0.042120 -2.370321
v 0.643260 0.042120 -2.370321
v 0.593819 0.042137 -2.251386
v 0.593819 0.042137 -2.251386
v 1.747216 0.088886 -2.300949
v 1.747216 0.088886 -2.300949
v 1.794577 0.088890 -2.340021
v 1.794577 0.088890 -2.340021
v 1.794587 0.042369 -2.340012
v 1.794587 0.042369 -2.340012
v 1.747226 0.042365 -2.300936
v 1.747226 0.042365 -2.300936
v -1.506657 0.041853 -1.536662
v -1.506657 0.041853 -1.536662
v -1.436621 0.041836 -1.684251
v -1.436621 0.041836 -1.684251
v -1.171376 0.041740 -2.397521
v -1.171376 0.041740 -2.397521
v -1.263766 0.041737 -2.325573
v -1.263766 0.041737 -2.325573
v -1.101228 0.041849 -1.939152
v -1.101228 0.041849 -1.939152
v -1.008061 0.041853 -2.012649
v -1.008061 0.041853 -2.012649
v -1.929811 0.023615 -1.192743
v -1.929811 0.023615 -1.192743
v -1.939641 0.018199 -1.113670
v -1.939641 0.018199 -1.113670
v -1.951318 0.030175 -1.310253
v -1.951318 0.030175 -1.310253
v -1.978256 0.023601 -1.200581
v -1.978256 0.023601 -1.200581
v -1.733037 0.018245 -1.098578
v -1.733037 0.018245 -1.098578
v -1.724771 0.023658 -1.172227
v -1.724771 0.023658 -1.172227
v -1.616242 0.023684 -1.160020
v -1.616242 0.023684 -1.160020
v -1.594735 0.030257 -1.269310
v -1.594735 0.030257 -1.269310
v -1.166609 0.041866 -1.794270
v -1.166609 0.041866 -1.794270
v -1.066400 0.041866 -1.904198
v -1.066400 0.041866 -1.904198
v -1.070342 0.041826 -2.089133
v -1.070342 0.041826 -2.089133
v -1.002404 0.041826 -2.143677
v -1.002404 0.041826 -2.143677
v -1.331851 0.041707 -2.408653
v -1.331851 0.041707 -2.408653
v -1.462295 0.041701 -2.301492
v -1.599792 0.041701 -2.150922
v -1.698869 0.041707 -2.024323
v -1.800302 0.041720 -1.879502
v -1.887847 0.041740 -1.695505
v -1.956799 0.036725 -1.503717
v -2.004022 0.030162 -1.320809
v -2.004022 0.030162 -1.320809
v -1.461332 0.041863 -1.517977
v -1.461332 0.041863 -1.517977
v -1.514700 0.036844 -1.368809
v -1.546291 0.030271 -1.259534
v -1.546291 0.030271 -1.259534
v -1.242872 0.041839 -1.857208
v -1.242872 0.041839 -1.857208
v -1.315133 0.041843 -1.767002
v -1.393243 0.041846 -1.660914
v -1.393243 0.041846 -1.660914
v 0.054269 0.041922 -2.746627
v 0.054269 0.041922 -2.746627
v 0.040557 0.041889 -2.887380
v 0.040557 0.041889 -2.887380
v 0.183018 0.041899 -2.994136
v 0.183018 0.041899 -2.994136
v 0.183009 0.088420 -2.994145
v 0.183009 0.088420 -2.994145
v 0.183313 0.041909 -2.941020
v 0.183313 0.041909 -2.941020
v 0.238429 0.042005 -2.533854
v 0.238429 0.042005 -2.533854
v 0.237199 0.042011 -2.493537
v 0.237199 0.042011 -2.493537
v 0.108543 0.041935 -2.746534
v 0.108543 0.041935 -2.746534
v 0.111530 0.041949 -2.681395
v 0.111530 0.041949 -2.681395
v 0.404228 0.042051 -2.461842
v 0.404228 0.042051 -2.461842
v 0.419873 0.042041 -2.540904
v 0.419873 0.042041 -2.540904
v 0.100352 0.041892 -2.941556
v 0.100352 0.041892 -2.941556
v 0.102588 0.041902 -2.888438
v 0.102588 0.041902 -2.888438
v 1.299918 0.088691 -2.790211
v 1.299918 0.088691 -2.790211
v 1.208190 0.088704 -2.653517
v 1.208190 0.088704 -2.653517
v 1.208200 0.042180 -2.653508
v 1.208200 0.042180 -2.653508
v 1.299928 0.042170 -2.790203
v 1.299928 0.042170 -2.790203
v 0.192307 0.041995 -2.538588
v 0.192307 0.041995 -2.538588
v 0.188676 0.041962 -2.680099
v 0.188676 0.041962 -2.680099
v 1.312168 0.042425 -1.579434
v 0.275951 0.042021 -2.485327
v 1.752222 0.042511 -1.606968
v 1.644847 0.042303 -2.506202
v 1.644838 0.088823 -2.506210
v 1.479186 0.042236 -2.656526
v 1.479177 0.088761 -2.656535
v 1.025002 0.042120 -2.750363
v 1.024992 0.088645 -2.750372
v 0.838298 0.042068 -2.839081
v 0.838289 0.088588 -2.839089
v 0.644199 0.042011 -2.908815
v 0.644189 0.088532 -2.908823
v 0.501603 0.041972 -2.948221
v 0.501593 0.088496 -2.948230
v 0.325655 0.041932 -2.978766
v 0.325646 0.088453 -2.978777
v 0.246589 0.041909 -2.989759
v 0.246579 0.088436 -2.989768
v 1.369316 0.042465 -1.449072
v 1.568536 0.030926 -1.200216
v 1.761840 0.019400 -0.893988
v 1.850279 0.007828 -0.699214
v 1.882249 -0.003771 -0.579748
v -1.823089 -0.004542 -0.586208
v -1.790708 0.007073 -0.705562
v -1.701595 0.018679 -0.900027
v -1.507230 0.030287 -1.205577
v -1.307151 0.041909 -1.453738
v -0.842159 -0.004585 -1.772373
v -1.059118 -0.004598 -1.627369
v -0.864228 0.041929 -1.794519
v -1.086620 0.041912 -1.646035
v -1.772481 -0.004555 -0.707466
v -1.675615 -0.004575 -0.899978
v -1.476609 -0.004595 -1.199315
v -1.273827 -0.004605 -1.439715
v -0.638419 0.041955 -1.901128
v -0.621782 -0.004559 -1.876276
v -0.411901 0.041988 -1.969353
v -0.400696 -0.004529 -1.942574
v -0.189690 0.042025 -2.012774
v -0.184300 -0.004489 -1.984839
v 0.032081 0.042068 -2.025568
v 0.032081 0.042068 -2.025568
v 0.032040 -0.004450 -1.997646
v 0.032040 -0.004450 -1.997646
v 1.149453 0.042379 -1.642135
v 0.927580 0.042299 -1.791395
v 0.702141 0.042230 -1.898790
v 0.475863 0.042174 -1.967805
v 0.253803 0.042117 -2.011999
v 1.832063 -0.003808 -0.701181
v 1.735869 -0.003867 -0.894032
v 1.537905 -0.003973 -1.194058
v 1.335961 -0.004062 -1.435162
v 1.121907 -0.004145 -1.623565
v 0.905452 -0.004221 -1.769325
v 0.685439 -0.004288 -1.873998
v 0.464584 -0.004351 -1.941063
v 0.248338 -0.004400 -1.984088
vn 0.4275 0.8988 0.0969
vn 0.9752 0.0002 0.2211
vn 0.8056 0.5751 0.1420
vn 0.9848 -0.0003 0.1735
vn 0.4156 0.8990 0.1379
vn 0.9491 0.0003 0.3151
vn 0.7880 0.5751 0.2200
vn 0.9632 0.0003 0.2689
vn -0.4138 0.9103 0.0096
vn -0.9997 -0.0002 0.0237
vn -0.8146 0.5797 -0.0205
vn -0.9997 -0.0002 -0.0250
vn -0.3940 0.9100 0.1294
vn -0.9499 -0.0001 0.3127
vn -0.7854 0.5800 0.2164
vn -0.9640 -0.0001 0.2658
vn 0.1774 0.5801 0.7950
vn 0.2179 0.0003 0.9760
vn 0.0697 0.9106 0.4074
vn 0.1690 0.0003 0.9856
vn 0.0968 0.5802 0.8087
vn 0.1190 0.0003 0.9929
vn 0.0296 0.9099 0.4138
vn 0.0717 0.0002 0.9974
vn -0.4128 0.9103 -0.0307
vn -0.9973 -0.0002 -0.0736
vn -0.8084 0.5799 -0.1008
vn -0.9923 -0.0002 -0.1235
vn -0.1418 0.5803 0.8020
vn -0.1740 0.0002 0.9847
vn -0.0924 0.9099 0.4045
vn -0.2220 0.0002 0.9750
vn -0.3668 0.5702 0.7351
vn -0.4429 0.0001 0.8966
vn 0.7336 0.5665 0.3753
vn 0.8882 0.0003 0.4595
vn -0.2950 0.5801 0.7593
vn -0.3619 0.0001 0.9322
vn -0.1591 0.9092 0.3848
vn -0.4176 0.0001 0.9086
vn -0.7357 0.5640 0.3751
vn -0.8782 -0.0001 0.4783
vn -0.7289 0.5800 0.3638
vn -0.8946 -0.0001 0.4468
vn -0.3799 0.9099 0.1668
vn -0.9153 -0.0001 0.4028
vn -0.7606 0.5800 0.2918
vn -0.9336 -0.0001 0.3584
vn 0.9973 0.0002 0.0737
vn 0.9926 0.0002 0.1218
vn 0.9973 0.0003 0.0737
vn 0.9925 0.0003 0.1219
vn 0.3855 0.9106 -0.1490
vn 0.9329 0.0001 -0.3602
vn 0.1289 0.9105 0.3929
vn 0.3118 0.0003 0.9502
vn 0.1312 0.5734 -0.8087
vn 0.1603 -0.0001 -0.9871
vn 0.0479 0.9015 -0.4301
vn 0.1111 -0.0002 -0.9938
vn 0.3963 0.9178 0.0235
vn 0.9982 0.0002 0.0596
vn 0.8120 0.5768 0.0894
vn 0.9940 0.0003 0.1095
vn -0.3487 0.9002 0.2611
vn -0.8121 -0.0001 0.5835
vn -0.6328 0.5747 0.5189
vn -0.7581 -0.0000 0.6522
vn -0.3510 0.9095 0.2227
vn -0.8540 -0.0001 0.5202
vn -0.6834 0.5732 0.4522
vn -0.8223 -0.0001 0.5690
vn 0.5206 0.5797 0.6269
vn 0.6210 0.0003 0.7838
vn 0.2658 0.9047 0.3331
vn 0.6413 0.0003 0.7673
vn 0.4805 0.5821 0.6560
vn 0.5766 0.0003 0.8170
vn 0.2359 0.9052 0.3535
vn 0.5706 0.0003 0.8212
vn 0.0575 0.5802 0.8125
vn 0.0707 0.0002 0.9975
vn 0.8143 0.5801 -0.0182
vn 0.9998 0.0002 -0.0223
vn 0.4221 0.9055 0.0446
vn 0.9944 0.0002 0.1053
vn 0.8033 0.5824 0.1242
vn 0.9883 0.0003 0.1528
vn -0.4974 0.6912 -0.5242
vn 0.0800 0.5771 -0.8127
vn 0.0982 -0.0002 -0.9952
vn -0.6884 -0.0003 -0.7254
vn -0.5464 0.6985 -0.4621
vn -0.7635 -0.0003 -0.6458
vn -0.5730 0.7010 -0.4245
vn -0.8036 -0.0003 -0.5952
vn -0.6265 0.6886 -0.3651
vn -0.8640 -0.0003 -0.5034
vn -0.6628 0.6960 -0.2762
vn -0.9233 -0.0003 -0.3841
vn -0.6855 0.6967 -0.2113
vn -0.9559 -0.0003 -0.2936
vn -0.6935 0.5745 0.4348
vn -0.8408 -0.0000 0.5414
vn 0.9518 0.0002 0.3066
vn 0.9177 0.0001 -0.3973
vn 0.7444 0.5800 -0.3309
vn 0.6659 0.7144 0.2151
vn 0.5036 0.0002 0.8639
vn 0.4216 0.5821 0.6953
vn 0.7930 0.0003 0.6092
vn 0.1025 0.0002 0.9947
vn 0.0431 0.9063 0.4205
vn 0.5569 0.7120 0.4278
vn 0.2194 0.0003 0.9756
vn 0.1778 0.5853 0.7911
vn 0.0479 0.9015 -0.4300
vn 0.0981 -0.0002 -0.9952
vn 0.8034 0.5824 0.1242
vn 0.9882 0.0003 0.1529
vn 0.1602 -0.0001 -0.9871
vn 0.8121 0.5767 0.0894
vn 0.9940 0.0003 0.1096
vn 0.4222 0.9054 0.0445
vn 0.9177 -0.0000 -0.3972
vn 0.3856 0.9106 -0.1490
vn 0.9329 0.0001 -0.3601
vn 0.5037 0.0003 0.8639
vn -0.7581 -0.0000 0.6521
vn 0.6211 0.0003 0.7837
vn -0.8408 -0.0000 0.5413
vn -0.8541 -0.0001 0.5202
vn -0.8224 -0.0000 0.5689
vn -0.3486 0.9002 0.2611
vn -0.8122 -0.0001 0.5834
vn 0.1288 0.9105 0.3930
vn 0.3118 0.0002 0.9501
vn 0.1779 0.5854 0.7910
vn 0.2195 0.0002 0.9756
vn 0.2657 0.9047 0.3331
vn 0.6414 0.0003 0.7672
vn 0.5767 0.0003 0.8170
vn 0.0431 0.9063 0.4204
vn 0.1026 0.0002 0.9947
vn 0.0708 0.0002 0.9975
vn 0.8144 0.5801 -0.0182
vn 0.9998 0.0002 -0.0222
vn 0.9982 0.0003 0.0597
vn -0.7463 -0.0003 -0.6656
vn -0.6726 -0.0000 0.7400
vn -0.6116 0.5730 -0.5455
vn -0.5467 0.5828 0.6012
vn -0.6844 -0.0003 -0.7291
vn -0.6844 -0.0002 -0.7291
vn -0.9048 0.3070 -0.2951
vn -0.7067 -0.0003 -0.7075
vn -0.3344 0.8960 0.2923
vn -0.7524 -0.0000 0.6587
vn -0.6366 0.5873 0.4998
vn -0.7864 -0.0000 0.6177
vn -0.3032 0.8989 0.3163
vn -0.6913 -0.0000 0.7226
vn -0.5674 0.5808 0.5837
vn -0.6967 0.0001 0.7173
vn 0.4587 0.5783 0.6746
vn 0.5623 0.0003 0.8269
vn 0.2118 0.9140 0.3460
vn 0.5222 0.0003 0.8528
vn -0.5889 0.5746 -0.5684
vn -0.7196 -0.0002 -0.6944
vn -0.3060 0.9073 -0.2884
vn -0.7277 -0.0003 -0.6859
vn -0.2442 -0.0003 -0.9697
vn -0.1687 -0.0003 -0.9857
vn -0.2442 -0.0002 -0.9697
vn -0.1687 -0.0002 -0.9857
vn -0.7349 0.0025 0.6782
vn -0.5979 0.5839 0.5491
vn -0.9089 0.2739 0.3144
vn -0.7031 0.0014 0.7111
vn -0.8998 0.2968 0.3199
vn 0.2119 0.9140 0.3460
vn 0.5223 0.0003 0.8528
vn -0.8782 -0.0000 0.4782
vn 0.7880 0.5750 0.2200
vn 0.9631 0.0003 0.2690
vn 0.4276 0.8988 0.0969
vn 0.9752 0.0003 0.2213
vn -0.8146 0.5797 -0.0206
vn -0.9997 -0.0002 -0.0251
vn -0.4129 0.9103 -0.0307
vn -0.9997 -0.0002 0.0236
vn -0.3059 0.9073 -0.2884
vn -0.7854 0.5799 0.2163
vn -0.9641 -0.0001 0.2657
vn 0.1774 0.5802 0.7950
vn 0.0696 0.9106 0.4073
vn 0.1691 0.0002 0.9856
vn -0.8085 0.5798 -0.1008
vn -0.9923 -0.0002 -0.1236
vn -0.1739 0.0002 0.9848
vn -0.5980 0.5838 0.5491
vn -0.7350 0.0025 0.6781
vn -0.3343 0.8960 0.2923
vn -0.7525 -0.0000 0.6586
vn -0.4175 0.0001 0.9087
vn -0.4428 0.0001 0.8966
vn -0.5674 0.5807 0.5838
vn -0.6968 0.0001 0.7173
vn -0.8997 0.2968 0.3200
vn -0.7032 0.0013 0.7110
vn -0.5468 0.5827 0.6013
vn -0.3031 0.8989 0.3164
vn -0.6914 -0.0000 0.7225
vn -0.8947 -0.0001 0.4467
vn -0.3800 0.9098 0.1669
vn -0.9153 -0.0001 0.4027
vn -0.7068 -0.0003 -0.7074
vn -0.5889 0.5747 -0.5683
vn -0.7606 0.5799 0.2918
vn -0.9499 -0.0001 0.3126
vn -0.6142 0.7183 0.3268
vn -0.0924 0.9099 0.4044
vn -0.2219 0.0002 0.9751
vn -0.8827 -0.0001 0.4700
vn -0.2950 0.5802 0.7592
vn 0.9925 -0.0002 0.1219
vn 0.9925 0.0002 0.1219
vn 0.9071 0.3004 -0.2950
vn 0.9848 -0.0002 0.1736
vn 0.8057 0.5750 0.1420
vn -0.1377 0.7042 0.6966
vn -0.7865 -0.0000 0.6176
vn -0.1937 0.0001 0.9811
vn 0.4587 0.5784 0.6746
vn 0.6641 0.6996 -0.2637
vn 0.7337 0.5664 0.3753
vn 0.8881 0.0002 0.4596
vn 0.9245 0.0001 -0.3812
vn 0.4157 0.8990 0.1379
vn 0.9490 0.0003 0.3152
vn 0.9973 0.0002 0.0738
vn 0.9973 0.0003 0.0738
vn 0.7084 -0.0000 -0.7059
vn 0.6356 -0.0000 -0.7720
vn -0.2443 -0.0003 -0.9697
vn 0.4484 -0.0001 -0.8938
vn 0.3841 -0.0001 -0.9233
vn 0.3025 -0.0001 -0.9532
vn 0.2190 -0.0001 -0.9757
vn 0.1544 -0.0002 -0.9880
vn 0.1033 -0.0002 -0.9947
vn 0.1032 -0.0002 -0.9947
vn -0.6845 -0.0000 -0.7290
vn 0.4984 0.5601 0.6617
vn 0.4082 0.5432 0.7337
vn 0.2289 0.8883 0.3982
vn 0.2776 0.8918 0.3572
vn 0.2730 0.9478 0.1648
vn -0.3182 0.6284 0.7098
vn 0.5429 0.7952 0.2701
vn 0.3205 0.9244 0.2066
vn 0.6188 0.6890 0.3772
vn 0.3289 0.9054 0.2686
vn 0.6173 0.6255 0.4772
vn 0.3075 0.9008 0.3067
vn 0.5724 0.5834 0.5762
vn 0.1693 0.8848 0.4341
vn 0.2989 0.5310 0.7929
vn 0.1151 0.8798 0.4613
vn 0.2019 0.5247 0.8270
vn 0.0596 0.8811 0.4692
vn 0.1054 0.5206 0.8473
vn -0.0007 0.8784 0.4780
vn -0.0010 0.5150 0.8572
vn -0.5401 0.8029 0.2524
vn 0.3154 0.6286 0.7109
vn -0.2768 0.9473 0.1611
vn -0.6168 0.6930 0.3732
vn -0.3238 0.9227 0.2092
vn -0.6180 0.6279 0.4731
vn -0.3312 0.9045 0.2687
vn -0.5733 0.5842 0.5744
vn -0.3090 0.9002 0.3068
vn -0.5007 0.5602 0.6599
vn -0.2793 0.8916 0.3565
vn -0.4107 0.5430 0.7325
vn -0.2305 0.8882 0.3975
vn -0.3017 0.5304 0.7922
vn -0.1710 0.8848 0.4334
vn -0.2054 0.5244 0.8263
vn -0.1173 0.8798 0.4606
vn -0.1091 0.5208 0.8467
vn -0.0619 0.8810 0.4691
vt 0.543000 1.000000
vt 0.543000 0.000000
vt 0.054700 1.000000
vt 0.054700 0.000000
vt 1.218800 1.000000
vt 1.218800 0.000000
vt 0.468800 1.000000
vt 0.468800 0.000000
vt 2.839800 1.000000
vt 2.839800 0.000000
vt 3.000000 1.000000
vt 3.000000 0.000000
vt 3.621100 1.000000
vt 3.621100 0.000000
vt 3.828100 1.000000
vt 3.828100 0.000000
vt 3.562500 1.000000
vt 3.562500 0.000000
vt 3.468800 1.000000
vt 3.468800 0.000000
vt 3.238300 1.000000
vt 3.238300 0.000000
vt 3.039100 1.000000
vt 3.039100 0.000000
vt 2.855500 1.000000
vt 2.855500 0.000000
vt 3.007800 1.000000
vt 3.007800 0.000000
vt 2.910200 1.000000
vt 2.910200 0.000000
vt 2.703100 1.000000
vt 2.703100 0.000000
vt 2.304700 1.000000
vt 2.304700 0.000000
vt 1.273400 1.000000
vt 1.273400 0.000000
vt 2.648400 1.000000
vt 2.648400 0.000000
vt 2.253900 1.000000
vt 2.253900 0.000000
vt 3.785200 1.000000
vt 3.785200 0.000000
vt 4.000000 1.000000
vt 4.000000 0.000000
vt 3.609400 1.000000
vt 3.609400 0.000000
vt 3.941400 1.000000
vt 3.941400 0.000000
vt 0.000000 1.000000
vt 0.207000 1.000000
vt 0.000000 0.000000
vt 0.207000 0.000000
vt 2.714800 1.000000
vt 2.714800 0.000000
vt 2.230500 1.000000
vt 2.230500 0.000000
vt 0.324200 1.000000
vt 0.324200 0.000000
vt 1.078100 1.000000
vt 1.078100 0.000000
vt 0.750000 1.000000
vt 0.750000 0.000000
vt 4.597700 1.031300
vt 4.597700 0.031200
vt 5.000000 1.000000
vt 5.000000 0.000000
vt 4.003900 1.000000
vt 4.003900 0.000000
vt 4.414100 1.000000
vt 4.414100 0.000000
vt 4.695300 1.000000
vt 4.695300 0.000000
vt 4.359400 1.000000
vt 4.359400 0.000000
vt 4.117200 1.000000
vt 4.117200 0.000000
vt 3.761700 1.000000
vt 3.761700 0.000000
vt 1.546900 1.000000
vt 1.546900 0.000000
vt 1.117200 1.000000
vt 1.117200 0.000000
vt 0.644500 1.000000
vt 0.644500 0.000000
vt 0.402300 1.000000
vt 0.402300 0.000000
vt 0.679700 1.000000
vt 0.210900 1.000000
vt 0.210900 0.000000
vt 0.679700 0.000000
vt 1.746100 1.000000
vt 1.746100 0.000000
vt 2.269500 1.000000
vt 2.269500 0.000000
vt 2.875000 1.000000
vt 2.875000 0.000000
vt 4.054700 1.000000
vt 4.054700 0.000000
vt 3.164100 0.000000
vt 2.699200 0.000000
vt 2.699200 1.000000
vt 3.164100 1.000000
vt 3.617200 0.000000
vt 3.617200 1.000000
vt 1.839800 0.000000
vt 1.500000 0.000000
vt 1.500000 1.000000
vt 1.839800 1.000000
vt 2.226600 0.000000
vt 2.226600 1.000000
vt 1.644500 1.000000
vt 1.644500 0.000000
vt 2.082000 1.000000
vt 2.082000 0.000000
vt 1.378900 1.000000
vt 1.378900 0.000000
vt 1.054700 1.000000
vt 1.054700 0.000000
vt 1.281300 1.000000
vt 1.281300 0.000000
vt 1.132800 1.000000
vt 1.132800 0.000000
vt 0.910200 1.000000
vt 0.910200 0.000000
vt 1.996100 0.000000
vt 1.996100 1.000000
vt 2.757800 1.000000
vt 2.757800 0.000000
vt 2.535200 1.000000
vt 2.535200 0.000000
vt 2.296900 1.000000
vt 2.296900 0.000000
vt 1.246100 1.000000
vt 1.246100 0.000000
vt 1.015600 1.000000
vt 1.015600 0.000000
vt 1.386700 1.000000
vt 1.386700 0.000000
vt 0.949200 1.000000
vt 0.949200 0.000000
vt 0.726600 1.000000
vt 0.726600 0.000000
vt 0.289100 1.000000
vt 0.289100 0.000000
vt 0.058600 1.000000
vt 0.058600 0.000000
vt 0.269500 1.000000
vt 0.269500 0.000000
vt 0.933600 0.000000
vt 0.933600 1.000000
vt 0.199200 1.000000
vt 0.199200 0.000000
vt 1.730500 1.000000
vt 1.730500 0.000000
vt 1.882800 1.000000
vt 1.882800 0.000000
vt 0.929700 1.000000
vt 0.929700 0.000000
vt 1.175800 1.000000
vt 1.175800 0.000000
vt 2.000000 1.000000
vt 2.000000 0.000000
vt 1.703100 1.000000
vt 1.703100 0.000000
vt 0.398400 1.000000
vt 0.398400 0.000000
vt 0.757800 1.000000
vt 0.757800 0.000000
vt 1.714800 0.000000
vt 1.714800 1.000000
vt 1.562500 1.000000
vt 1.179700 0.000000
vt 1.179700 1.000000
vt 5.449200 1.000000
vt 5.449200 0.000000
vt 5.125000 1.000000
vt 5.125000 0.000000
vt 0.492200 1.000000
vt 0.492200 0.000000
vt 1.035200 1.000000
vt 1.035200 0.000000
vt 2.804700 1.000000
vt 2.804700 0.000000
vt 2.390600 1.000000
vt 2.390600 0.000000
vt 3.199200 1.000000
vt 3.199200 0.000000
vt 6.828100 1.000000
vt 6.828100 0.000000
vt 7.000000 1.000000
vt 7.000000 0.000000
vt 4.105500 1.000000
vt 4.105500 0.000000
vt 3.679700 1.000000
vt 3.679700 0.000000
vt 3.668000 1.000000
vt 3.668000 0.000000
vt 2.445300 1.000000
vt 2.445300 0.000000
vt 2.062500 1.000000
vt 2.062500 0.000000
vt 6.078100 1.000000
vt 6.078100 0.000000
vt 5.941400 1.000000
vt 5.941400 0.000000
vt 1.011700 1.000000
vt 1.011700 0.000000
vt 0.660200 1.000000
vt 0.660200 0.000000
vt 6.507800 1.000000
vt 6.507800 0.000000
vt 6.289100 1.000000
vt 6.289100 0.000000
vt 6.757800 1.000000
vt 6.757800 0.000000
vt 6.609400 1.000000
vt 6.609400 0.000000
vt 5.070300 1.000000
vt 5.070300 0.000000
vt 4.585900 1.000000
vt 4.585900 0.000000
vt 6.683600 1.000000
vt 6.683600 0.000000
vt 6.914100 1.000000
vt 6.914100 0.000000
vt 4.550800 1.000000
vt 4.550800 0.000000
vt 4.101600 1.000000
vt 4.101600 0.000000
vt 1.593800 1.000000
vt 1.972700 1.000000
vt 1.972700 0.000000
vt 1.593800 0.000000
vt 1.242200 1.000000
vt 1.242200 0.000000
vt 1.437500 0.000000
vt 1.437500 1.000000
vt 1.128900 1.000000
vt 0.824200 0.000000
vt 0.824200 1.000000
vt 5.769500 1.000000
vt 5.886700 1.000000
vt 5.886700 0.000000
vt 5.769500 0.000000
vt 5.378900 1.000000
vt 5.378900 0.000000
vt 0.418000 1.000000
vt 0.418000 0.000000
vt 0.871100 1.000000
vt 0.871100 0.000000
vt 1.359400 1.000000
vt 1.359400 0.000000
vt 2.015600 0.000000
vt 2.015600 1.000000
vt 2.687500 0.000000
vt 2.687500 1.000000
vt 3.378900 0.000000
vt 3.378900 1.000000
vt 3.433600 1.000000
vt 3.433600 0.000000
vt 4.082000 0.000000
vt 4.082000 1.000000
vt 4.722700 0.000000
vt 4.722700 1.000000
vt 5.363300 0.000000
vt 5.363300 1.000000
vt 5.812500 0.000000
vt 5.812500 1.000000
vt 6.343800 0.000000
vt 6.343800 1.000000
vt 6.578100 0.000000
vt 6.578100 1.000000
vt 6.761700 0.000000
vt 6.761700 1.000000
vt 2.777300 1.007800
vt 3.613300 1.007800
vt 3.613300 0.000000
vt 2.777300 0.000000
vt 0.109400 0.265600
vt -0.007800 0.304700
vt 0.109400 1.007800
vt 0.437500 0.203100
vt 0.437500 1.007800
vt 1.168000 0.101600
vt 1.171900 1.007800
vt 1.945300 0.000000
vt 1.941400 1.007800
vt 4.468800 0.000000
vt 4.468800 1.007800
vt 5.324200 0.000000
vt 5.320300 1.007800
vt 6.160200 0.000000
vt 6.164100 1.007800
vt 7.000000 1.007800
vt 6.691400 1.000000
vt 7.003900 0.289100
vt 6.687500 0.257800
vt 6.097700 1.000000
vt 6.097700 0.195300
vt 5.242200 1.000000
vt 5.246100 0.105500
vt 4.355500 1.000000
vt 4.351600 0.000000
vt 3.492200 1.000000
vt 3.488300 0.000000
vt 2.683600 0.000000
vt 1.933600 1.000000
vt 1.937500 0.000000
vt 0.589800 1.000000
vt 0.597700 0.000000
s 1
usemtl e779f58d_dds
f 104/1/1 135/2/2 107/3/3
f 107/3/3 135/2/2 137/4/4
f 34/5/5 139/6/6 102/7/7
f 102/7/7 139/6/6 141/8/8
f 41/9/9 143/10/10 39/11/11
f 39/11/11 143/10/10 145/12/12
f 21/13/13 147/14/14 25/15/15
f 25/15/15 147/14/14 149/16/16
f 23/17/17 151/18/18 19/19/19
f 19/19/19 151/18/18 153/20/20
f 95/21/21 155/22/22 96/23/23
f 96/23/23 155/22/22 156/24/24
f 43/25/25 158/26/26 49/27/27
f 49/27/27 158/26/26 160/28/28
f 47/29/29 162/30/30 45/31/31
f 45/31/31 162/30/30 164/32/32
f 29/33/33 166/34/34 27/35/35
f 27/35/35 166/34/34 168/36/36
f 37/37/37 170/38/38 32/39/39
f 32/39/39 170/38/38 172/40/40
f 109/41/41 174/42/42 120/43/43
f 120/43/43 174/42/42 176/44/44
f 122/45/45 178/46/46 124/47/47
f 124/47/47 178/46/46 180/48/48
f 184/49/49 182/50/50 186/51/51
f 186/51/51 182/50/50 188/52/52
f 130/53/53 190/54/54 91/55/55
f 91/55/55 190/54/54 192/56/56
f 67/49/57 194/51/58 71/57/59
f 71/57/59 194/51/58 196/58/60
f 82/59/61 198/60/62 87/61/63
f 87/61/63 198/60/62 200/62/64
f 57/63/65 202/64/66 53/65/67
f 53/65/67 202/64/66 204/66/68
f 4/67/69 206/68/70 65/69/71
f 65/69/71 206/68/70 208/70/72
f 51/71/73 210/72/74 55/73/75
f 55/73/75 210/72/74 212/74/76
f 61/75/77 214/76/78 59/77/79
f 59/77/79 214/76/78 216/78/80
f 80/79/81 218/80/82 78/81/83
f 78/81/83 218/80/82 220/82/84
f 73/83/85 222/84/86 69/85/87
f 69/85/87 222/84/86 224/86/88
f 75/87/89 76/88/90 226/89/91
f 75/87/89 226/89/91 228/90/92
f 86/35/93 75/87/89 228/90/92
f 86/35/93 228/90/92 229/36/94
f 94/91/95 86/35/93 229/36/94
f 94/91/95 229/36/94 230/92/96
f 129/93/97 94/91/95 230/92/96
f 129/93/97 230/92/96 231/94/98
f 132/95/99 129/93/97 231/94/98
f 132/95/99 231/94/98 232/96/100
f 3/19/101 132/95/99 232/96/100
f 3/19/101 232/96/100 233/20/102
f 1/97/103 3/19/101 233/20/102
f 1/97/103 233/20/102 234/98/104
f 238/99/105 236/100/106 133/101/107
f 238/99/105 133/101/107 6/102/108
f 239/103/109 238/99/105 6/102/108
f 239/103/109 6/102/108 63/104/110
f 243/105/111 241/106/112 84/107/113
f 243/105/111 84/107/113 93/108/114
f 244/109/115 243/105/111 93/108/114
f 244/109/115 93/108/114 89/110/116
f 72/111/117 197/112/60 77/113/90
f 77/113/90 197/112/60 227/114/118
f 70/50/119 225/52/120 68/115/57
f 68/115/57 225/52/120 195/116/121
f 88/49/122 201/51/123 74/85/124
f 74/85/124 201/51/123 223/86/86
f 134/117/107 237/118/125 131/119/126
f 131/119/126 237/118/125 191/120/127
f 60/121/79 217/122/80 64/123/110
f 64/123/110 217/122/80 240/124/128
f 205/125/129 211/82/130 54/126/67
f 54/126/67 211/82/130 52/81/73
f 2/11/103 235/12/131 5/127/69
f 5/127/69 235/12/131 207/128/132
f 66/129/71 209/130/133 58/131/134
f 58/131/134 209/130/133 203/132/135
f 92/133/136 193/134/137 90/135/138
f 90/135/138 193/134/137 245/136/139
f 56/137/140 213/138/141 62/139/77
f 62/139/77 213/138/141 215/140/142
f 85/141/143 242/142/144 81/143/81
f 81/143/81 242/142/144 219/144/145
f 79/145/146 221/146/147 83/147/61
f 83/147/61 221/146/147 199/148/148
f 248/86/149 246/149/150 17/85/151
f 17/85/151 246/149/150 15/150/152
f 252/49/153 250/51/154 100/151/155
f 100/151/155 250/51/154 254/152/156
f 116/153/157 256/154/158 118/155/159
f 118/155/159 256/154/158 258/156/160
f 11/157/161 260/158/162 9/159/163
f 9/159/163 260/158/162 262/160/164
f 113/161/165 264/162/166 111/163/167
f 111/163/167 264/162/166 266/164/168
f 98/151/169 268/152/170 13/165/171
f 13/165/171 268/152/170 270/166/172
f 274/35/173 272/167/174 276/36/175
f 276/36/175 272/167/174 278/168/176
f 280/169/177 126/170/178 128/171/179
f 282/172/180 280/169/177 128/171/179
f 282/172/180 128/171/179 7/173/181
f 112/174/182 267/175/183 110/176/41
f 110/176/41 267/175/183 175/177/184
f 103/178/185 142/179/186 105/180/187
f 105/180/187 142/179/186 136/181/188
f 40/182/189 146/183/190 44/184/191
f 44/184/191 146/183/190 159/185/26
f 97/186/23 157/187/24 42/127/9
f 42/127/9 157/187/24 144/128/192
f 14/188/193 271/189/172 18/190/151
f 18/190/151 271/189/172 249/191/149
f 26/192/194 150/193/195 24/194/196
f 24/194/196 150/193/195 152/195/18
f 20/196/197 154/197/198 95/21/21
f 95/21/21 154/197/198 155/22/22
f 50/198/199 161/199/200 48/200/29
f 48/200/29 161/199/200 163/201/201
f 127/202/202 281/203/203 117/204/204
f 117/204/204 281/203/203 257/205/205
f 33/206/39 173/207/206 30/208/33
f 30/208/33 173/207/206 167/209/207
f 10/210/208 263/211/209 8/212/210
f 8/212/210 263/211/209 283/213/211
f 16/214/212 247/215/150 12/216/213
f 12/216/213 247/215/150 261/217/214
f 121/218/43 177/219/215 123/220/216
f 123/220/216 177/219/215 179/221/217
f 101/222/155 255/223/218 99/224/219
f 99/224/219 255/223/218 269/225/170
f 125/226/220 181/227/48 22/228/13
f 22/228/13 181/227/48 148/229/221
f 36/230/222 46/231/223 165/232/224
f 36/230/222 165/232/224 284/233/225
f 38/234/226 36/230/222 284/233/225
f 38/234/226 284/233/225 171/235/38
f 189/236/227 183/237/228 106/238/229
f 138/239/230 189/236/227 106/238/229
f 138/239/230 106/238/229 108/240/231
f 115/241/232 119/242/159 259/243/233
f 115/241/232 259/243/233 285/244/234
f 114/245/235 115/241/232 285/244/234
f 114/245/235 285/244/234 265/246/166
f 31/247/236 28/49/237 169/51/238
f 31/247/236 169/51/238 286/248/239
f 35/249/240 31/247/236 286/248/239
f 35/249/240 286/248/239 140/250/241
f 185/251/242 187/252/243 287/253/244
f 288/254/244 185/251/242 287/253/244
f 288/254/244 287/253/244 289/255/245
f 290/256/245 288/254/244 289/255/245
f 290/256/245 289/255/245 279/257/176
f 273/258/174 290/256/245 279/257/176
f 275/259/173 277/260/246 291/261/247
f 292/262/247 275/259/173 291/261/247
f 292/262/247 291/261/247 293/263/248
f 294/264/248 292/262/247 293/263/248
f 294/264/248 293/263/248 295/265/249
f 296/266/249 294/264/248 295/265/249
f 296/266/249 295/265/249 297/267/250
f 298/268/250 296/266/249 297/267/250
f 298/268/250 297/267/250 299/269/251
f 300/270/251 298/268/250 299/269/251
f 300/270/251 299/269/251 301/271/252
f 302/272/253 300/270/251 301/271/252
f 302/272/253 301/271/252 251/273/154
f 253/274/254 302/272/253 251/273/154
f 314/275/255 313/276/256 315/277/257
f 316/278/258 314/275/255 315/277/257
f 309/279/259 308/280/260 317/281/261
f 310/282/262 309/279/259 317/281/261
f 310/282/262 317/281/261 318/283/263
f 311/284/264 310/282/262 318/283/263
f 311/284/264 318/283/263 319/285/265
f 312/286/266 311/284/264 319/285/265
f 312/286/266 319/285/265 320/287/267
f 316/278/258 312/286/266 320/287/267
f 316/278/258 320/287/267 314/275/255
f 321/288/268 315/277/257 313/276/256
f 321/288/268 313/276/256 322/289/269
f 323/290/270 321/288/268 322/289/269
f 323/290/270 322/289/269 324/291/271
f 325/292/272 323/290/270 324/291/271
f 325/292/272 324/291/271 326/293/273
f 327/191/274 325/292/272 326/293/273
f 327/191/274 326/293/273 329/294/275
f 336/295/276 307/296/277 306/297/278
f 337/298/279 336/295/276 306/297/278
f 337/298/279 306/297/278 305/299/280
f 338/300/281 337/298/279 305/299/280
f 338/300/281 305/299/280 304/301/282
f 339/302/283 338/300/281 304/301/282
f 339/302/283 304/301/282 303/303/284
f 340/304/285 339/302/283 303/303/284
f 340/304/285 303/303/284 331/305/286
f 341/256/287 340/304/285 331/305/286
f 341/256/287 331/305/286 332/306/288
f 342/307/289 341/256/287 332/306/288
f 342/307/289 332/306/288 333/308/290
f 343/133/291 342/307/289 333/308/290
f 343/133/291 333/308/290 334/235/292
f 344/309/293 343/133/291 334/235/292
f 344/309/293 334/235/292 335/310/294
f 330/49/275 344/309/293 335/310/294
f 330/49/275 335/310/294 328/51/274
o _871deb64_dds
v 2.094419 0.042547 -1.763772
v 2.094419 0.042547 -1.763772
v 2.139778 0.031018 -1.319015
v 1.369316 0.042465 -1.449072
v 1.369316 0.042465 -1.449072
v 1.568536 0.030926 -1.200216
v 1.761840 0.019400 -0.893988
v 2.123534 0.019472 -0.893360
v 2.122173 0.013683 -0.778606
v 1.850279 0.007828 -0.699214
v 2.027383 0.007874 -0.663625
v 1.882249 -0.003771 -0.579748
v -1.823089 -0.004542 -0.586208
v -1.967934 0.007044 -0.670593
v -1.790708 0.007073 -0.705562
v -2.062326 0.012813 -0.785900
v -1.701595 0.018679 -0.900027
v -2.063289 0.018609 -0.900658
v -2.078059 0.030145 -1.326369
v -1.507230 0.030287 -1.205577
v -1.307151 0.041909 -1.453738
v -1.307151 0.041909 -1.453738
v -2.031156 0.041690 -1.770966
v -2.031156 0.041690 -1.770966
v -0.864228 0.041929 -1.794519
v -1.086620 0.041912 -1.646035
v -0.638419 0.041955 -1.901128
v -0.411901 0.041988 -1.969353
v -0.189690 0.042025 -2.012774
v 0.032081 0.042068 -2.025568
v 1.149453 0.042379 -1.642135
v 1.941993 0.042432 -2.169559
v 0.927580 0.042299 -1.791395
v 1.665043 0.042299 -2.526326
v 0.702141 0.042230 -1.898790
v 1.322085 0.042167 -2.823505
v 0.475863 0.042174 -1.967805
v 0.916936 0.042041 -3.028137
v 0.253803 0.042117 -2.011999
v 0.481010 0.041929 -3.143263
v 0.034094 0.041830 -3.182423
v -0.412957 0.041744 -3.144820
v -0.849282 0.041674 -3.031216
v -1.255137 0.041634 -2.827998
v -1.599130 0.041624 -2.532019
v -1.877322 0.041641 -2.176218
vn 0.4320 0.9017 0.0174
vn 0.3540 0.9328 -0.0672
vn -0.3089 0.9003 0.3068
vn -0.3312 0.9045 0.2687
vn -0.3238 0.9227 0.2091
vn 0.4068 0.9124 0.0451
vn 0.4521 0.8601 0.2363
vn -0.2768 0.9473 0.1611
vn 0.4498 0.6642 0.5971
vn 0.3155 0.6285 0.7110
vn -0.4522 0.6640 0.5955
vn -0.3181 0.6283 0.7100
vn 0.2728 0.9478 0.1648
vn -0.4533 0.8599 0.2347
vn 0.3205 0.9244 0.2066
vn -0.4072 0.9123 0.0441
vn -0.4341 0.9008 0.0115
vn 0.3289 0.9054 0.2686
vn 0.3075 0.9008 0.3067
vn -0.3568 0.9319 -0.0653
vn -0.2792 0.8916 0.3565
vn -0.3089 0.9002 0.3068
vn 0.3540 0.9328 -0.0671
vn 0.3124 0.9342 -0.1722
vn -0.2305 0.8882 0.3975
vn 0.2503 0.9388 -0.2367
vn -0.1710 0.8848 0.4334
vn 0.1924 0.9382 -0.2876
vn -0.1173 0.8798 0.4606
vn 0.1221 0.9381 -0.3240
vn -0.0619 0.8810 0.4691
vn 0.0583 0.9393 -0.3381
vn -0.0007 0.8784 0.4780
vn 0.0005 0.9385 -0.3453
vn 0.0596 0.8811 0.4692
vn -0.0577 0.9393 -0.3383
vn 0.1150 0.8798 0.4613
vn -0.1212 0.9381 -0.3246
vn 0.1692 0.8848 0.4341
vn -0.1921 0.9382 -0.2881
vn 0.2289 0.8883 0.3982
vn -0.2499 0.9386 -0.2377
vn 0.2776 0.8918 0.3572
vn -0.3121 0.9341 -0.1734
vt 1.213200 -2.746300
vt 0.763400 -2.845500
vt 0.836800 -2.061200
vt 1.144700 -2.168800
vt 1.506800 -2.252800
vt 1.624400 -2.594800
vt 1.736300 -2.556000
vt 1.726000 -2.272500
vt 1.818100 -2.428900
vt 1.853200 -2.262300
vt 0.519000 1.348300
vt 0.648400 1.240700
vt 0.542100 1.169700
vt 0.375600 1.400000
vt 0.380600 1.021500
vt 0.263000 1.363500
vt -0.158300 1.241300
vt 0.144500 0.739100
vt -0.033500 0.469100
vt -0.578100 1.054800
vt 3.328100 -0.312500
vt 3.699200 -0.289100
vt 4.101600 0.683600
vt 3.562500 0.878900
vt 2.992200 -0.378900
vt 2.992200 0.949200
vt 2.691400 -0.484400
vt 2.414100 0.906200
vt 2.425800 -0.628900
vt 1.867200 0.726600
vt 2.187500 -0.789100
vt 1.371100 0.433600
vt 1.976600 -0.976600
vt 0.933600 0.066400
vt 1.789100 -1.187500
vt 0.566400 -0.371100
vt 1.628900 -1.425800
vt 0.273400 -0.867200
vt 1.484400 -1.691400
vt 0.093800 -1.414100
vt 1.378900 -1.992200
vt 0.050800 -1.992200
vt 1.312500 -2.328100
vt 0.121100 -2.562500
vt 1.289100 -2.699200
vt 0.316400 -3.101600
s 1
usemtl 871deb64_dds
f 347/311/295 345/312/296 348/313/297
f 347/311/295 348/313/297 350/314/298
f 347/311/295 350/314/298 351/315/299
f 352/316/300 347/311/295 351/315/299
f 353/317/301 352/316/300 351/315/299
f 353/317/301 351/315/299 354/318/302
f 355/319/303 353/317/301 354/318/302
f 355/319/303 354/318/302 356/320/304
f 358/321/305 357/322/306 359/323/307
f 360/324/308 358/321/305 359/323/307
f 360/324/308 359/323/307 361/325/309
f 362/326/310 360/324/308 361/325/309
f 363/327/311 362/326/310 361/325/309
f 363/327/311 361/325/309 364/328/312
f 363/327/311 364/328/312 365/329/313
f 367/330/314 363/327/311 365/329/313
f 375/331/315 349/332/316 346/333/317
f 375/331/315 346/333/317 376/334/318
f 377/335/319 375/331/315 376/334/318
f 377/335/319 376/334/318 378/336/320
f 379/337/321 377/335/319 378/336/320
f 379/337/321 378/336/320 380/338/322
f 381/339/323 379/337/321 380/338/322
f 381/339/323 380/338/322 382/340/324
f 383/341/325 381/339/323 382/340/324
f 383/341/325 382/340/324 384/342/326
f 374/343/327 383/341/325 384/342/326
f 374/343/327 384/342/326 385/344/328
f 373/345/329 374/343/327 385/344/328
f 373/345/329 385/344/328 386/346/330
f 372/347/331 373/345/329 386/346/330
f 372/347/331 386/346/330 387/348/332
f 371/349/333 372/347/331 387/348/332
f 371/349/333 387/348/332 388/350/334
f 369/351/335 371/349/333 388/350/334
f 369/351/335 388/350/334 389/352/336
f 370/353/337 369/351/335 389/352/336
f 370/353/337 389/352/336 390/354/338
f 366/355/313 370/353/337 390/354/338
f 366/355/313 390/354/338 368/356/314
o c4a2fefe_dds
v 2.094419 0.042547 -1.763772
v 2.139778 0.031018 -1.319015
v 2.123534 0.019472 -0.893360
v 2.122173 0.013683 -0.778606
v 2.027383 0.007874 -0.663625
v 1.882249 -0.003771 -0.579748
v -1.823089 -0.004542 -0.586208
v -1.967934 0.007044 -0.670593
v -2.062326 0.012813 -0.785900
v -2.063289 0.018609 -0.900658
v -2.078059 0.030145 -1.326369
v -2.031156 0.041690 -1.770966
v 1.941993 0.042432 -2.169559
v 1.665043 0.042299 -2.526326
v 1.322085 0.042167 -2.823505
v 0.916936 0.042041 -3.028137
v 0.481010 0.041929 -3.143263
v 0.034094 0.041830 -3.182423
v -0.412957 0.041744 -3.144820
v -0.849282 0.041674 -3.031216
v -1.255137 0.041634 -2.827998
v -1.599130 0.041624 -2.532019
v -1.877322 0.041641 -2.176218
v 1.522534 -0.817243 -0.729466
v 1.602311 -0.697425 -0.696011
v 1.701611 -0.697410 -0.728790
v 1.749523 -0.565960 -0.652360
v 1.868623 -0.565944 -0.702163
v 1.762632 -0.422894 -0.628330
v 1.892223 -0.422880 -0.690910
v 1.842408 -0.303078 -0.594488
v 1.987142 -0.303062 -0.671774
v 2.027412 -0.136349 -0.663594
v 1.879564 -0.136360 -0.578948
v 2.131093 0.003606 -0.778589
v 2.140983 -0.000294 -0.893323
v 2.161891 0.005436 -1.323235
v 2.130504 0.011149 -1.778823
v 1.974992 0.011033 -2.191595
v 1.693399 0.010897 -2.554571
v 1.344634 0.010761 -2.857188
v 0.932515 0.010636 -3.064934
v 0.488836 0.010517 -3.182399
v 0.034168 0.010418 -3.221961
v -0.420635 0.010332 -3.183986
v -0.864717 0.010262 -3.068065
v -1.277558 0.010219 -2.861762
v -1.627373 0.010212 -2.560362
v -1.910227 0.010226 -2.198369
v -2.067175 0.010282 -1.786141
v -2.100142 0.004552 -1.330666
v -2.080730 -0.001171 -0.900686
v -2.071238 0.002733 -0.785913
v -2.071209 -0.137222 -0.785885
v -1.967904 -0.137177 -0.670562
v -1.820350 -0.137127 -0.585402
v -1.927538 -0.303877 -0.678599
v -1.783072 -0.303830 -0.600809
v -1.703128 -0.423613 -0.634373
v -1.832500 -0.423656 -0.697018
v -1.689878 -0.566673 -0.658357
v -1.808803 -0.566708 -0.708577
v -1.542459 -0.698078 -0.701495
v -1.641645 -0.698104 -0.734621
v -1.462518 -0.817864 -0.734671
v -1.985689 -0.303933 -0.900458
v -2.080702 -0.137246 -0.900657
v -2.100113 -0.137341 -1.330637
v -2.067144 -0.137428 -1.786110
v -1.910196 -0.137483 -2.198338
v -1.627342 -0.137498 -2.560331
v -1.277528 -0.137491 -2.861730
v -0.864687 -0.137448 -3.068034
v -0.420605 -0.137378 -3.183955
v 0.034198 -0.137292 -3.221931
v 0.488867 -0.137191 -3.182368
v 0.932546 -0.137072 -3.064903
v 1.344665 -0.136946 -2.857157
v 1.693430 -0.136811 -2.554540
v 1.975022 -0.136676 -2.191564
v 2.130534 -0.136559 -1.778792
v 2.161920 -0.136456 -1.323206
v 2.141011 -0.136371 -0.893297
v 2.131122 -0.136350 -0.778557
v 2.046067 -0.303096 -0.893428
v 2.119304 -0.349693 -1.314706
v 2.088671 -0.303268 -1.760997
v 1.936254 -0.349906 -2.165997
v 1.660065 -0.303514 -2.521224
v 1.318279 -0.350170 -2.817615
v 0.914672 -0.303773 -3.021476
v 0.479528 -0.350411 -3.136592
v 0.034151 -0.303988 -3.175374
v -0.411336 -0.350596 -3.138148
v -0.846896 -0.304139 -3.024549
v -1.251192 -0.350701 -2.822095
v -1.594028 -0.304192 -2.526897
v -1.871431 -0.350695 -2.172636
v -2.062876 -0.304130 -1.768234
v -2.057439 -0.350558 -1.321987
v -1.937982 -0.423720 -0.900348
v -1.874761 -0.566761 -0.900209
v -1.691366 -0.698149 -0.899862
v -1.916341 -0.590112 -1.287575
v -1.716734 -0.709859 -1.247660
v -1.866414 -0.566924 -1.686424
v -1.656811 -0.698287 -1.599190
v -1.692873 -0.590226 -2.052480
v -1.502725 -0.709956 -1.924962
v -1.441497 -0.566979 -2.373828
v -1.279320 -0.698335 -2.211076
v -1.130890 -0.590229 -2.641561
v -1.002881 -0.709961 -2.449022
v -0.764229 -0.566933 -2.824689
v -0.676570 -0.698295 -2.612059
v -0.370173 -0.590132 -2.927512
v -0.325953 -0.709874 -2.703326
v 0.033835 -0.566795 -2.961316
v 0.033466 -0.698175 -2.733716
v 0.033235 -0.817938 -2.586372
v 0.392783 -0.709724 -2.702073
v 0.437730 -0.589964 -2.926104
v 0.450611 -0.458550 -2.991625
v 0.033923 -0.423751 -3.028025
v -0.382879 -0.458722 -2.993079
v -0.790122 -0.423895 -2.887183
v -1.168424 -0.458823 -2.697868
v -1.489126 -0.423942 -2.421626
v -1.748661 -0.458817 -2.089823
v -1.927654 -0.423886 -1.711759
v -1.963646 -0.458699 -1.296991
v 0.857470 -0.423551 -2.884311
v 1.235124 -0.458327 -2.693679
v 1.554850 -0.423312 -2.416321
v 1.813242 -0.458078 -2.083615
v 1.990904 -0.423071 -1.704928
v 2.025469 -0.457871 -1.290034
v 1.998410 -0.422902 -0.893486
v 1.935248 -0.565971 -0.893565
v 1.751908 -0.697436 -0.893859
v 1.778491 -0.709133 -1.241566
v 1.978183 -0.589304 -1.280786
v 1.719786 -0.697586 -1.593302
v 1.929637 -0.566135 -1.679805
v 1.566839 -0.709319 -1.919612
v 1.757379 -0.589510 -2.046466
v 1.344425 -0.697791 -2.206502
v 1.507113 -0.566366 -2.368689
v 1.068822 -0.709531 -2.445409
v 1.197450 -0.589749 -2.637501
v 0.743073 -0.698002 -2.609583
v 0.831417 -0.566602 -2.821909
vn 0.2771 -0.4680 0.8392
vn 0.2833 -0.4282 0.8581
vn 0.4063 -0.6543 0.6378
vn 0.3426 -0.4136 0.8435
vn 0.6400 -0.4816 0.5988
vn 0.4018 -0.3010 0.8648
vn 0.6238 -0.3794 0.6833
vn 0.4382 -0.3469 0.8293
vn 0.6665 -0.4059 0.6254
vn 0.6283 -0.0970 0.7719
vn 0.4943 -0.1016 0.8633
vn 0.3154 0.6285 0.7109
vn 0.4498 0.6643 0.5970
vn 0.8783 0.3220 0.3534
vn 0.4521 0.8601 0.2364
vn 0.4068 0.9124 0.0451
vn 0.9358 0.3475 0.0596
vn 0.9385 0.3451 -0.0066
vn 0.4320 0.9017 0.0174
vn 0.8883 0.4144 -0.1979
vn 0.3540 0.9328 -0.0672
vn 0.7913 0.4197 -0.4447
vn 0.3125 0.9342 -0.1722
vn 0.6563 0.4270 -0.6220
vn 0.2503 0.9387 -0.2368
vn 0.5035 0.4270 -0.7511
vn 0.1925 0.9382 -0.2877
vn 0.3217 0.4260 -0.8456
vn 0.1221 0.9381 -0.3241
vn 0.1556 0.4275 -0.8905
vn 0.0583 0.9393 -0.3382
vn 0.0016 0.4257 -0.9048
vn 0.0005 0.9385 -0.3453
vn -0.1528 0.4274 -0.8910
vn -0.0577 0.9392 -0.3384
vn -0.3187 0.4258 -0.8468
vn -0.1212 0.9380 -0.3246
vn -0.5012 0.4268 -0.7528
vn -0.1921 0.9381 -0.2882
vn -0.6543 0.4268 -0.6243
vn -0.2500 0.9386 -0.2378
vn -0.7898 0.4193 -0.4476
vn -0.3121 0.9341 -0.1735
vn -0.8878 0.4153 -0.1984
vn -0.3569 0.9319 -0.0653
vn -0.9376 0.3474 -0.0142
vn -0.4342 0.9008 0.0115
vn -0.9362 0.3468 0.0567
vn -0.4072 0.9123 0.0441
vn -0.4534 0.8598 0.2348
vn -0.8797 0.3216 0.3503
vn -0.4522 0.6640 0.5955
vn -0.9071 -0.2261 0.3550
vn -0.6335 -0.0945 0.7679
vn -0.3182 0.6284 0.7098
vn -0.4912 -0.0931 0.8660
vn -0.6677 -0.4122 0.6199
vn -0.4411 -0.3661 0.8194
vn -0.4221 -0.3095 0.8521
vn -0.6168 -0.3751 0.6920
vn -0.3614 -0.4273 0.8287
vn -0.6364 -0.4743 0.6083
vn -0.2876 -0.4646 0.8375
vn -0.4023 -0.6328 0.6616
vn -0.2861 -0.4284 0.8571
vn -0.8748 -0.4419 0.1988
vn -0.9688 -0.2303 0.0916
vn -0.9961 -0.0886 -0.0019
vn -0.9716 -0.0370 -0.2336
vn -0.8633 -0.1095 -0.4926
vn -0.7207 -0.1324 -0.6805
vn -0.5473 -0.1120 -0.8294
vn -0.3533 -0.1318 -0.9262
vn -0.1636 -0.1104 -0.9803
vn -0.0031 -0.1308 -0.9914
vn 0.1752 -0.1104 -0.9783
vn 0.3477 -0.1317 -0.9283
vn 0.5569 -0.1118 -0.8230
vn 0.7163 -0.1320 -0.6852
vn 0.8692 -0.1089 -0.4823
vn 0.9680 -0.1256 -0.2174
vn 0.9929 -0.1180 0.0147
vn 0.9649 -0.2547 0.0649
vn 0.9060 -0.2258 0.3581
vn 0.8897 -0.4226 0.1729
vn 0.8994 -0.4364 0.0257
vn 0.8616 -0.4643 -0.2052
vn 0.7336 -0.5466 -0.4038
vn 0.6109 -0.5271 -0.5907
vn 0.4703 -0.5532 -0.6876
vn 0.2938 -0.5259 -0.7982
vn 0.1510 -0.5537 -0.8189
vn -0.0073 -0.5250 -0.8511
vn -0.1333 -0.5536 -0.8221
vn -0.3071 -0.5263 -0.7929
vn -0.4556 -0.5535 -0.6972
vn -0.6211 -0.5270 -0.5800
vn -0.7183 -0.5419 -0.4364
vn -0.8859 -0.4115 -0.2142
vn -0.8908 -0.4534 0.0308
vn -0.8850 -0.4041 0.2312
vn -0.7753 -0.6044 0.1835
vn -0.5681 -0.8114 0.1377
vn -0.7757 -0.6310 -0.0092
vn -0.5119 -0.8589 -0.0159
vn -0.7285 -0.6527 -0.2081
vn -0.4778 -0.8672 -0.1406
vn -0.6084 -0.6955 -0.3823
vn -0.3964 -0.8832 -0.2508
vn -0.5432 -0.6668 -0.5102
vn -0.3610 -0.8709 -0.3333
vn -0.3929 -0.6968 -0.6001
vn -0.2513 -0.8851 -0.3917
vn -0.2667 -0.6668 -0.6959
vn -0.1793 -0.8714 -0.4567
vn -0.1154 -0.6965 -0.7082
vn -0.0650 -0.8703 -0.4882
vn -0.0041 -0.6649 -0.7469
vn -0.0030 -0.8280 -0.5607
vn 0.0013 -0.7760 -0.6307
vn 0.0799 -0.8706 -0.4854
vn 0.1291 -0.6967 -0.7056
vn 0.1365 -0.6434 -0.7532
vn -0.0040 -0.6314 -0.7755
vn -0.1227 -0.6434 -0.7556
vn -0.2767 -0.6363 -0.7201
vn -0.4164 -0.6504 -0.6353
vn -0.5623 -0.6353 -0.5293
vn -0.6468 -0.6463 -0.4048
vn -0.7506 -0.6289 -0.2027
vn -0.8592 -0.5116 0.0112
vn 0.2694 -0.6359 -0.7232
vn 0.4280 -0.6502 -0.6277
vn 0.5567 -0.6353 -0.5352
vn 0.6647 -0.6392 -0.3867
vn 0.7966 -0.5664 -0.2112
vn 0.8627 -0.5056 -0.0076
vn 0.8850 -0.3995 0.2392
vn 0.7669 -0.6140 0.1864
vn 0.5823 -0.8016 0.1354
vn 0.5252 -0.8510 0.0010
vn 0.7723 -0.6351 -0.0128
vn 0.4810 -0.8643 -0.1471
vn 0.7313 -0.6505 -0.2052
vn 0.4059 -0.8828 -0.2367
vn 0.6163 -0.6948 -0.3708
vn 0.3516 -0.8711 -0.3430
vn 0.5376 -0.6668 -0.5162
vn 0.2659 -0.8850 -0.3823
vn 0.4043 -0.6966 -0.5927
vn 0.1670 -0.8710 -0.4621
vn 0.2595 -0.6665 -0.6989
vt 0.156300 0.859400
vt 0.078100 1.000000
vt 0.445300 0.859400
vt 0.335900 0.707000
vt 0.679700 0.707000
vt 0.296900 0.543000
vt 0.687500 0.543000
vt 0.359400 0.402300
vt 0.793000 0.402300
vt 0.835900 0.207000
vt 0.386700 0.207000
vt 0.394500 0.054700
vt 0.835900 0.039100
vt 1.175800 0.046900
vt 1.175800 0.035200
vt 1.515600 0.027300
vt 1.511700 0.050800
vt 2.839800 0.043000
vt 2.839800 0.011700
vt 4.230500 0.035200
vt 4.230500 0.000000
vt 5.632800 0.035200
vt 5.628900 0.000000
vt 7.175800 0.035200
vt 7.175800 0.000000
vt 8.914100 0.035200
vt 8.918000 0.000000
vt 10.843800 0.035200
vt 10.839800 0.000000
vt 13.000000 0.035200
vt 13.003900 0.000000
vt 15.328100 0.035200
vt 15.328100 0.000000
vt 17.652300 0.035200
vt 17.660200 0.000000
vt 19.812500 0.035200
vt 19.812500 0.000000
vt 21.742201 0.035200
vt 21.746099 0.000000
vt 23.476601 0.035200
vt 23.476601 0.000000
vt 25.019501 0.035200
vt 25.027300 0.000000
vt 26.421900 0.035200
vt 26.425800 0.000000
vt 27.816401 0.043000
vt 27.816401 0.011700
vt 29.140600 0.050800
vt 29.140600 0.027300
vt 29.480499 0.035200
vt 29.480499 0.046900
vt 29.820299 0.039100
vt 29.480499 0.207000
vt 29.820299 0.207000
vt 30.261700 0.054700
vt 30.269501 0.207000
vt 29.859400 0.402300
vt 30.296900 0.402300
vt 30.359400 0.543000
vt 29.968800 0.543000
vt 30.320299 0.707000
vt 29.976601 0.707000
vt 30.496099 0.859400
vt 30.207001 0.859400
vt 30.574200 1.000000
vt 29.195299 0.402300
vt 29.140600 0.207000
vt 27.816401 0.207000
vt 26.421900 0.207000
vt 25.019501 0.207000
vt 23.476601 0.207000
vt 21.742201 0.207000
vt 19.812500 0.207000
vt 17.652300 0.207000
vt 15.328100 0.207000
vt 13.000000 0.207000
vt 10.843800 0.207000
vt 8.914100 0.207000
vt 7.175800 0.207000
vt 5.632800 0.207000
vt 4.230500 0.207000
vt 2.839800 0.207000
vt 1.511700 0.207000
vt 1.175800 0.207000
vt 1.457000 0.402300
vt 2.777300 0.457000
vt 4.164100 0.402300
vt 5.562500 0.457000
vt 7.105500 0.402300
vt 8.843800 0.457000
vt 10.785200 0.402300
vt 12.964800 0.457000
vt 15.328100 0.402300
vt 17.687500 0.457000
vt 19.871099 0.402300
vt 21.812500 0.457000
vt 23.550800 0.402300
vt 25.089800 0.457000
vt 26.488300 0.402300
vt 27.875000 0.457000
vt 29.335899 0.543000
vt 29.371099 0.707000
vt 29.644501 0.859400
vt 28.136700 0.734400
vt 28.496099 0.875000
vt 26.824200 0.707000
vt 27.261700 0.859400
vt 25.460899 0.734400
vt 25.949200 0.875000
vt 23.941401 0.707000
vt 24.476601 0.859400
vt 22.191401 0.734400
vt 22.738300 0.875000
vt 20.195299 0.707000
vt 20.691401 0.859400
vt 17.886700 0.734400
vt 18.203100 0.875000
vt 15.328100 0.707000
vt 15.328100 0.859400
vt 15.328100 1.000000
vt 12.449200 0.875000
vt 12.765600 0.734400
vt 12.835900 0.582000
vt 15.328100 0.543000
vt 17.816401 0.582000
vt 20.082001 0.543000
vt 22.062500 0.582000
vt 23.808599 0.543000
vt 25.335899 0.582000
vt 26.714800 0.543000
vt 28.062500 0.582000
vt 10.570300 0.543000
vt 8.593800 0.582000
vt 6.847700 0.543000
vt 5.316400 0.582000
vt 3.941400 0.543000
vt 2.593800 0.582000
vt 1.320300 0.543000
vt 1.285200 0.707000
vt 1.007800 0.859400
vt 2.160200 0.875000
vt 2.515600 0.734400
vt 3.390600 0.859400
vt 3.828100 0.707000
vt 4.703100 0.875000
vt 5.195300 0.734400
vt 6.179700 0.859400
vt 6.714800 0.707000
vt 7.918000 0.875000
vt 8.464800 0.734400
vt 9.964800 0.859400
vt 10.457000 0.707000
s 1
usemtl c4a2fefe_dds
f 415/357/339 414/358/340 416/359/341
f 417/360/342 415/357/339 416/359/341
f 417/360/342 416/359/341 418/361/343
f 419/362/344 417/360/342 418/361/343
f 419/362/344 418/361/343 420/363/345
f 421/364/346 419/362/344 420/363/345
f 421/364/346 420/363/345 422/365/347
f 421/364/346 422/365/347 423/366/348
f 424/367/349 421/364/346 423/366/348
f 396/368/350 424/367/349 423/366/348
f 395/369/351 396/368/350 423/366/348
f 395/369/351 423/366/348 425/370/352
f 394/371/353 395/369/351 425/370/352
f 393/372/354 394/371/353 425/370/352
f 393/372/354 425/370/352 426/373/355
f 393/372/354 426/373/355 427/374/356
f 392/375/357 393/372/354 427/374/356
f 392/375/357 427/374/356 428/376/358
f 391/377/359 392/375/357 428/376/358
f 391/377/359 428/376/358 429/378/360
f 403/379/361 391/377/359 429/378/360
f 403/379/361 429/378/360 430/380/362
f 404/381/363 403/379/361 430/380/362
f 404/381/363 430/380/362 431/382/364
f 405/383/365 404/381/363 431/382/364
f 405/383/365 431/382/364 432/384/366
f 406/385/367 405/383/365 432/384/366
f 406/385/367 432/384/366 433/386/368
f 407/387/369 406/385/367 433/386/368
f 407/387/369 433/386/368 434/388/370
f 408/389/371 407/387/369 434/388/370
f 408/389/371 434/388/370 435/390/372
f 409/391/373 408/389/371 435/390/372
f 409/391/373 435/390/372 436/392/374
f 410/393/375 409/391/373 436/392/374
f 410/393/375 436/392/374 437/394/376
f 411/395/377 410/393/375 437/394/376
f 411/395/377 437/394/376 438/396/378
f 412/397/379 411/395/377 438/396/378
f 412/397/379 438/396/378 439/398/380
f 413/399/381 412/397/379 439/398/380
f 413/399/381 439/398/380 440/400/382
f 402/401/383 413/399/381 440/400/382
f 402/401/383 440/400/382 441/402/384
f 401/403/385 402/401/383 441/402/384
f 401/403/385 441/402/384 442/404/386
f 400/405/387 401/403/385 442/404/386
f 399/406/388 400/405/387 442/404/386
f 399/406/388 442/404/386 443/407/389
f 398/408/390 399/406/388 443/407/389
f 398/408/390 443/407/389 444/409/391
f 398/408/390 444/409/391 445/410/392
f 397/411/393 398/408/390 445/410/392
f 446/412/394 397/411/393 445/410/392
f 446/412/394 445/410/392 447/413/395
f 448/414/396 446/412/394 447/413/395
f 449/415/397 448/414/396 447/413/395
f 449/415/397 447/413/395 450/416/398
f 451/417/399 449/415/397 450/416/398
f 451/417/399 450/416/398 452/418/400
f 453/419/401 451/417/399 452/418/400
f 453/419/401 452/418/400 454/420/402
f 455/421/403 453/419/401 454/420/402
f 447/413/395 445/410/392 444/409/391
f 456/422/404 447/413/395 444/409/391
f 457/423/405 456/422/404 444/409/391
f 457/423/405 444/409/391 443/407/389
f 457/423/405 443/407/389 442/404/386
f 457/423/405 442/404/386 441/402/384
f 458/424/406 457/423/405 441/402/384
f 458/424/406 441/402/384 440/400/382
f 459/425/407 458/424/406 440/400/382
f 459/425/407 440/400/382 439/398/380
f 460/426/408 459/425/407 439/398/380
f 460/426/408 439/398/380 438/396/378
f 461/427/409 460/426/408 438/396/378
f 461/427/409 438/396/378 437/394/376
f 462/428/410 461/427/409 437/394/376
f 462/428/410 437/394/376 436/392/374
f 463/429/411 462/428/410 436/392/374
f 463/429/411 436/392/374 435/390/372
f 464/430/412 463/429/411 435/390/372
f 464/430/412 435/390/372 434/388/370
f 465/431/413 464/430/412 434/388/370
f 465/431/413 434/388/370 433/386/368
f 466/432/414 465/431/413 433/386/368
f 466/432/414 433/386/368 432/384/366
f 467/433/415 466/432/414 432/384/366
f 467/433/415 432/384/366 431/382/364
f 468/434/416 467/433/415 431/382/364
f 468/434/416 431/382/364 430/380/362
f 469/435/417 468/434/416 430/380/362
f 469/435/417 430/380/362 429/378/360
f 470/436/418 469/435/417 429/378/360
f 470/436/418 429/378/360 428/376/358
f 471/437/419 470/436/418 428/376/358
f 471/437/419 428/376/358 427/374/356
f 472/438/420 471/437/419 427/374/356
f 472/438/420 427/374/356 426/373/355
f 473/439/421 472/438/420 426/373/355
f 474/440/422 473/439/421 426/373/355
f 474/440/422 426/373/355 425/370/352
f 474/440/422 425/370/352 423/366/348
f 474/440/422 423/366/348 422/365/347
f 474/440/422 422/365/347 475/441/423
f 473/439/421 474/440/422 475/441/423
f 472/438/420 473/439/421 475/441/423
f 472/438/420 475/441/423 476/442/424
f 471/437/419 472/438/420 476/442/424
f 471/437/419 476/442/424 477/443/425
f 470/436/418 471/437/419 477/443/425
f 470/436/418 477/443/425 478/444/426
f 469/435/417 470/436/418 478/444/426
f 469/435/417 478/444/426 479/445/427
f 468/434/416 469/435/417 479/445/427
f 468/434/416 479/445/427 480/446/428
f 467/433/415 468/434/416 480/446/428
f 467/433/415 480/446/428 481/447/429
f 466/432/414 467/433/415 481/447/429
f 466/432/414 481/447/429 482/448/430
f 465/431/413 466/432/414 482/448/430
f 465/431/413 482/448/430 483/449/431
f 464/430/412 465/431/413 483/449/431
f 464/430/412 483/449/431 484/450/432
f 463/429/411 464/430/412 484/450/432
f 463/429/411 484/450/432 485/451/433
f 462/428/410 463/429/411 485/451/433
f 462/428/410 485/451/433 486/452/434
f 461/427/409 462/428/410 486/452/434
f 461/427/409 486/452/434 487/453/435
f 460/426/408 461/427/409 487/453/435
f 460/426/408 487/453/435 488/454/436
f 459/425/407 460/426/408 488/454/436
f 459/425/407 488/454/436 489/455/437
f 458/424/406 459/425/407 489/455/437
f 458/424/406 489/455/437 490/456/438
f 457/423/405 458/424/406 490/456/438
f 456/422/404 457/423/405 490/456/438
f 456/422/404 490/456/438 491/457/439
f 447/413/395 456/422/404 491/457/439
f 450/416/398 447/413/395 491/457/439
f 452/418/400 450/416/398 491/457/439
f 452/418/400 491/457/439 492/458/440
f 454/420/402 452/418/400 492/458/440
f 493/459/441 454/420/402 492/458/440
f 493/459/441 492/458/440 494/460/442
f 495/461/443 493/459/441 494/460/442
f 495/461/443 494/460/442 496/462/444
f 497/463/445 495/461/443 496/462/444
f 497/463/445 496/462/444 498/464/446
f 499/465/447 497/463/445 498/464/446
f 499/465/447 498/464/446 500/466/448
f 501/467/449 499/465/447 500/466/448
f 501/467/449 500/466/448 502/468/450
f 503/469/451 501/467/449 502/468/450
f 503/469/451 502/468/450 504/470/452
f 505/471/453 503/469/451 504/470/452
f 505/471/453 504/470/452 506/472/454
f 507/473/455 505/471/453 506/472/454
f 507/473/455 506/472/454 508/474/456
f 507/473/455 508/474/456 509/475/457
f 510/476/458 507/473/455 509/475/457
f 511/477/459 510/476/458 509/475/457
f 512/478/460 511/477/459 509/475/457
f 512/478/460 509/475/457 508/474/456
f 513/479/461 512/478/460 508/474/456
f 514/480/462 513/479/461 508/474/456
f 514/480/462 508/474/456 506/472/454
f 515/481/463 514/480/462 506/472/454
f 515/481/463 506/472/454 504/470/452
f 516/482/464 515/481/463 504/470/452
f 516/482/464 504/470/452 502/468/450
f 517/483/465 516/482/464 502/468/450
f 517/483/465 502/468/450 500/466/448
f 518/484/466 517/483/465 500/466/448
f 518/484/466 500/466/448 498/464/446
f 519/485/467 518/484/466 498/464/446
f 519/485/467 498/464/446 496/462/444
f 520/486/468 519/485/467 496/462/444
f 520/486/468 496/462/444 494/460/442
f 521/487/469 520/486/468 494/460/442
f 521/487/469 494/460/442 492/458/440
f 521/487/469 492/458/440 491/457/439
f 521/487/469 491/457/439 490/456/438
f 521/487/469 490/456/438 489/455/437
f 520/486/468 521/487/469 489/455/437
f 520/486/468 489/455/437 488/454/436
f 519/485/467 520/486/468 488/454/436
f 519/485/467 488/454/436 487/453/435
f 518/484/466 519/485/467 487/453/435
f 518/484/466 487/453/435 486/452/434
f 517/483/465 518/484/466 486/452/434
f 517/483/465 486/452/434 485/451/433
f 516/482/464 517/483/465 485/451/433
f 516/482/464 485/451/433 484/450/432
f 515/481/463 516/482/464 484/450/432
f 515/481/463 484/450/432 483/449/431
f 514/480/462 515/481/463 483/449/431
f 514/480/462 483/449/431 482/448/430
f 513/479/461 514/480/462 482/448/430
f 513/479/461 482/448/430 481/447/429
f 522/488/470 513/479/461 481/447/429
f 522/488/470 481/447/429 480/446/428
f 523/489/471 522/488/470 480/446/428
f 523/489/471 480/446/428 479/445/427
f 524/490/472 523/489/471 479/445/427
f 524/490/472 479/445/427 478/444/426
f 525/491/473 524/490/472 478/444/426
f 525/491/473 478/444/426 477/443/425
f 526/492/474 525/491/473 477/443/425
f 526/492/474 477/443/425 476/442/424
f 527/493/475 526/492/474 476/442/424
f 528/494/476 527/493/475 476/442/424
f 528/494/476 476/442/424 475/441/423
f 528/494/476 475/441/423 422/365/347
f 528/494/476 422/365/347 420/363/345
f 528/494/476 420/363/345 418/361/343
f 529/495/477 528/494/476 418/361/343
f 530/496/478 529/495/477 418/361/343
f 530/496/478 418/361/343 416/359/341
f 529/495/477 530/496/478 531/497/479
f 532/498/480 529/495/477 531/497/479
f 532/498/480 531/497/479 533/499/481
f 534/500/482 532/498/480 533/499/481
f 534/500/482 533/499/481 535/501/483
f 536/502/484 534/500/482 535/501/483
f 536/502/484 535/501/483 537/503/485
f 538/504/486 536/502/484 537/503/485
f 538/504/486 537/503/485 539/505/487
f 540/506/488 538/504/486 539/505/487
f 540/506/488 539/505/487 541/507/489
f 542/508/490 540/506/488 541/507/489
f 542/508/490 541/507/489 511/477/459
f 542/508/490 511/477/459 512/478/460
f 522/488/470 542/508/490 512/478/460
f 522/488/470 512/478/460 513/479/461
f 542/508/490 522/488/470 523/489/471
f 540/506/488 542/508/490 523/489/471
f 540/506/488 523/489/471 524/490/472
f 538/504/486 540/506/488 524/490/472
f 538/504/486 524/490/472 525/491/473
f 536/502/484 538/504/486 525/491/473
f 536/502/484 525/491/473 526/492/474
f 534/500/482 536/502/484 526/492/474
f 534/500/482 526/492/474 527/493/475
f 532/498/480 534/500/482 527/493/475
f 532/498/480 527/493/475 528/494/476
f 529/495/477 532/498/480 528/494/476
