# Blender 5.1.2
# www.blender.org
mtllib pilars2.mtl
o a194b7ee_dds
v 1.743259 1.562070 -2.429971
v 1.681643 1.562871 -2.221889
v 1.639692 1.563556 -2.620507
v 1.431619 1.565828 -2.682126
v 1.241094 1.568525 -2.578556
v 1.179479 1.569329 -2.370477
v 1.283043 1.567843 -2.179553
v 1.491115 1.565571 -2.117935
v 1.736675 1.485306 -2.424927
v 1.674673 1.485723 -2.216847
v 1.484145 1.487254 -2.113279
v 1.276075 1.488753 -2.175285
v 1.172509 1.489464 -2.365818
v 1.234511 1.489051 -2.573898
v 1.425039 1.487519 -2.677466
v 1.633109 1.486023 -2.615850
v 1.549060 0.425310 -2.532424
v 1.642191 0.425366 -2.360127
v 1.361525 0.425260 -2.588190
v 1.189237 0.425244 -2.495056
v 1.133088 0.425273 -2.307516
v 1.226603 0.425330 -2.135217
v 1.414138 0.425376 -2.079065
v 1.586427 0.425396 -2.172583
v 1.667036 0.149341 -2.347623
v 1.667036 0.149341 -2.347623
v 1.641044 0.261762 -2.351178
v 1.641044 0.261762 -2.351178
v 1.558836 0.149279 -2.548246
v 1.544824 0.261706 -2.529295
v 1.340305 0.149219 -2.612981
v 1.350703 0.261653 -2.587013
v 1.140079 0.149199 -2.504777
v 1.172595 0.261637 -2.490788
v 1.075344 0.122454 -2.286624
v 1.114883 0.261667 -2.296656
v 1.183545 0.122520 -2.086001
v 1.211102 0.261723 -2.118541
v 1.401688 0.122576 -2.021262
v 1.405223 0.261776 -2.060824
v 1.601915 0.122596 -2.129467
v 1.583332 0.261792 -2.157049
v 1.581780 0.346692 -2.167537
v 1.581780 0.346692 -2.167537
v 1.637545 0.346666 -2.355468
v 1.637545 0.346666 -2.355468
v 1.637545 0.346666 -2.355468
v 1.544418 0.346610 -2.527762
v 1.544418 0.346610 -2.527762
v 1.356495 0.346560 -2.583532
v 1.356495 0.346560 -2.583532
v 1.184207 0.346543 -2.490397
v 1.184207 0.346543 -2.490397
v 1.128442 0.346570 -2.302466
v 1.128442 0.346570 -2.302466
v 1.221573 0.346623 -2.130559
v 1.221573 0.346623 -2.130559
v 1.409495 0.346676 -2.074405
v 1.409495 0.346676 -2.074405
v 1.787852 1.532614 -2.432990
v 1.666896 1.534092 -2.655344
v 1.424338 1.536742 -2.727101
v 1.201993 1.539045 -2.606532
v 1.129852 1.539856 -2.363577
v 1.250808 1.538764 -2.141222
v 1.493363 1.536117 -2.069463
v 1.716095 1.533812 -2.190033
v 1.785914 1.513618 -2.431826
v 1.665346 1.514706 -2.654181
v 1.422792 1.516969 -2.726325
v 1.200059 1.519275 -2.605368
v 1.128302 1.520085 -2.362416
v 1.249258 1.518607 -2.140059
v 1.491817 1.516347 -2.068300
v 1.714162 1.514429 -2.188871
v 1.676700 0.395906 -2.362000
v 1.570435 0.395846 -2.559132
v 1.355778 0.395787 -2.623086
v 1.159042 0.395767 -2.516427
v 1.095092 0.395800 -2.301761
v 1.201745 0.395863 -2.105016
v 1.416018 0.395919 -2.041061
v 1.613137 0.395939 -2.147721
v 1.675541 0.376139 -2.360836
v 1.569273 0.376073 -2.557964
v 1.354615 0.376017 -2.621531
v 1.157880 0.375997 -2.515263
v 1.093930 0.376030 -2.300592
v 1.200586 0.376093 -2.103852
v 1.414855 0.376146 -2.039896
v 1.611979 0.376166 -2.146556
v -1.833559 0.771913 -1.346256
v -1.701334 0.776204 -1.363083
v -1.619741 0.778522 -1.468780
v -1.939248 0.768774 -1.427852
v -1.956078 0.768353 -1.560085
v -1.874483 0.770676 -1.665781
v -1.742258 0.774963 -1.682608
v -1.636568 0.778106 -1.601012
v -1.830062 0.740124 -1.346242
v -1.935755 0.736984 -1.427841
v -1.952581 0.736564 -1.560071
v -1.870986 0.738886 -1.665767
v -1.738764 0.742787 -1.682595
v -1.633071 0.745930 -1.601000
v -1.616244 0.746346 -1.468767
v -1.697837 0.744024 -1.363070
v -1.642328 0.200117 -1.340764
v -1.796656 0.200090 -1.320872
v -1.547134 0.200110 -1.463882
v -1.567024 0.200074 -1.618216
v -1.690137 0.200030 -1.713414
v -1.844465 0.200001 -1.693522
v -1.939658 0.200007 -1.570404
v -1.919770 0.200044 -1.416070
v -1.792770 0.085333 -1.311924
v -1.792770 0.085333 -1.311924
v -1.796666 0.117903 -1.304574
v -1.796666 0.117903 -1.304574
v -1.629914 0.085366 -1.332576
v -1.628378 0.117933 -1.325990
v -1.529666 0.085360 -1.462665
v -1.525025 0.117926 -1.460336
v -1.550318 0.085320 -1.625529
v -1.546443 0.117887 -1.628244
v -1.680403 0.085274 -1.725779
v -1.680396 0.117837 -1.731990
v -1.843259 0.085244 -1.705127
v -1.848683 0.117807 -1.710573
v -1.943503 0.085251 -1.575038
v -1.952423 0.117814 -1.576224
v -1.922854 0.085287 -1.412173
v -1.930619 0.117853 -1.408319
v -1.918209 0.167090 -1.416447
v -1.918209 0.167090 -1.416447
v -1.794708 0.167137 -1.321248
v -1.794708 0.167137 -1.321248
v -1.794708 0.167137 -1.321248
v -1.937714 0.167054 -1.570780
v -1.937714 0.167054 -1.570780
v -1.842521 0.167051 -1.694289
v -1.842521 0.167051 -1.694289
v -1.688192 0.167077 -1.713791
v -1.688192 0.167077 -1.713791
v -1.565079 0.167124 -1.618592
v -1.565079 0.167124 -1.618592
v -1.545190 0.167160 -1.464259
v -1.545190 0.167160 -1.464259
v -1.640380 0.167163 -1.341141
v -1.640380 0.167163 -1.341141
v -1.839806 0.759510 -1.317963
v -1.685482 0.764194 -1.337853
v -1.590289 0.766901 -1.460972
v -1.609790 0.766478 -1.615694
v -1.733290 0.762554 -1.710891
v -1.887618 0.757876 -1.691001
v -1.982811 0.755170 -1.567883
v -1.962922 0.755590 -1.413160
v -1.838642 0.751369 -1.317957
v -1.684318 0.756050 -1.337851
v -1.589125 0.758759 -1.460970
v -1.609013 0.757946 -1.615691
v -1.732126 0.754412 -1.710889
v -1.886454 0.749731 -1.690995
v -1.981647 0.747025 -1.567877
v -1.961754 0.747448 -1.413154
v -1.803678 0.187688 -1.292969
v -1.627250 0.187721 -1.315534
v -1.518456 0.187714 -1.456462
v -1.541023 0.187671 -1.632898
v -1.681556 0.187618 -1.741698
v -1.858374 0.187588 -1.719131
v -1.967166 0.187595 -1.578202
v -1.944601 0.187634 -1.401766
v -1.803288 0.179546 -1.292964
v -1.626474 0.179579 -1.315532
v -1.517679 0.179572 -1.456461
v -1.540635 0.179529 -1.632897
v -1.681167 0.179476 -1.741696
v -1.857598 0.179446 -1.719128
v -1.966776 0.179453 -1.578588
v -1.943825 0.179496 -1.401764
vn 0.9859 0.1320 -0.1029
vn 0.9712 0.2214 -0.0883
vn 0.6152 0.2048 -0.7613
vn 0.6265 0.1139 -0.7711
vn -0.1148 0.2339 -0.9655
vn -0.1005 0.1439 -0.9845
vn -0.7729 0.2935 -0.5626
vn -0.7633 0.1994 -0.6146
vn -0.9489 0.2878 0.1296
vn -0.9693 0.2247 0.1001
vn -0.6040 0.2927 0.7413
vn -0.6115 0.2420 0.7533
vn 0.0880 0.2704 0.9587
vn 0.1004 0.2147 0.9715
vn 0.7289 0.2254 0.6465
vn 0.7625 0.1645 0.6258
vn 0.9716 0.2220 -0.0816
vn 0.6993 -0.4395 0.5638
vn 0.8745 -0.4760 -0.0937
vn 0.5503 -0.4891 -0.6767
vn -0.0890 -0.4684 -0.8790
vn -0.6999 -0.4277 -0.5720
vn -0.9166 -0.3886 0.0937
vn -0.5850 -0.3743 0.7195
vn 0.0974 -0.3975 0.9124
vn 0.9784 0.1805 -0.1006
vn 0.7554 0.2226 0.6162
vn 0.9183 0.3825 -0.1021
vn 0.5846 0.3863 -0.7135
vn 0.6192 0.1750 -0.7655
vn -0.0820 0.4225 -0.9027
vn -0.1073 0.2124 -0.9713
vn -0.6796 0.4601 -0.5714
vn -0.7542 0.2557 -0.6048
vn -0.8689 0.4876 0.0853
vn -0.9507 0.2925 0.1029
vn -0.5423 0.4936 0.6799
vn -0.5996 0.2996 0.7421
vn 0.1061 0.4663 0.8782
vn 0.0964 0.2636 0.9598
vn 0.7149 0.4217 0.5577
vn 0.8602 -0.5029 -0.0842
vn 0.5419 -0.4974 -0.6774
vn -0.1058 -0.4592 -0.8820
vn -0.7166 -0.4147 -0.5608
vn -0.9173 -0.3846 0.1027
vn -0.5835 -0.3857 0.7147
vn 0.0831 -0.4142 0.9064
vn 0.6777 -0.4653 0.5694
vn 0.7702 -0.6325 -0.0827
vn 0.4833 -0.6355 -0.6021
vn -0.0856 -0.6096 -0.7881
vn -0.6393 -0.5671 -0.5193
vn -0.8441 -0.5293 0.0856
vn -0.5379 -0.5289 0.6564
vn 0.0839 -0.5593 0.8247
vn 0.6204 -0.6019 0.5029
vn 0.8750 0.4758 -0.0892
vn 0.6649 0.5137 0.5422
vn 0.9294 0.3549 -0.1012
vn 0.5926 0.3444 -0.7282
vn 0.5576 0.4655 -0.6873
vn -0.0898 0.3555 -0.9304
vn -0.0919 0.4871 -0.8685
vn -0.7058 0.4003 -0.5846
vn -0.6623 0.5242 -0.5353
vn -0.8971 0.4331 0.0873
vn -0.8262 0.5567 0.0862
vn -0.5639 0.4449 0.6958
vn -0.5193 0.5677 0.6388
vn 0.0999 0.4258 0.8993
vn 0.0841 0.5496 0.8312
vn 0.7207 0.3899 0.5732
vn 0.8972 -0.4330 -0.0867
vn 0.5640 -0.4448 -0.6957
vn -0.1001 -0.4345 -0.8951
vn -0.7206 -0.3888 -0.5741
vn -0.9295 -0.3546 0.1018
vn -0.5923 -0.3434 0.7288
vn 0.0891 -0.3618 0.9280
vn 0.7067 -0.3988 0.5844
vn 0.8744 -0.4760 -0.0937
vn -0.5851 -0.3743 0.7194
vn -0.2636 0.0377 0.9639
vn -0.2418 -0.2403 0.9401
vn 0.5007 -0.1943 0.8435
vn 0.4948 0.0814 0.8652
vn 0.9556 -0.1544 0.2509
vn 0.9587 0.1127 0.2612
vn 0.8602 -0.1434 -0.4893
vn 0.8614 0.1209 -0.4933
vn 0.2710 -0.1796 -0.9457
vn 0.2613 0.0922 -0.9608
vn -0.4714 -0.2214 -0.8537
vn -0.4974 0.0523 -0.8660
vn -0.9284 -0.2635 -0.2621
vn -0.9653 0.0189 -0.2606
vn -0.8358 -0.2576 0.4849
vn -0.8675 0.0154 0.4972
vn -0.2419 -0.2403 0.9401
vn -0.2637 0.0377 0.9639
vn -0.7502 -0.5053 0.4264
vn -0.2328 -0.4897 0.8403
vn -0.8356 -0.5022 -0.2227
vn -0.4404 -0.4823 -0.7573
vn 0.2274 -0.4595 -0.8585
vn 0.7765 -0.4443 -0.4469
vn 0.8606 -0.4504 0.2376
vn 0.4344 -0.4664 0.7705
vn -0.2328 -0.4897 0.8402
vn -0.2523 0.2368 0.9382
vn -0.8521 0.1898 0.4877
vn -0.2588 0.4777 0.8396
vn 0.3954 0.5337 0.7476
vn 0.4781 0.2818 0.8319
vn 0.7909 0.5694 0.2243
vn 0.9158 0.3159 0.2479
vn 0.7212 0.5457 -0.4268
vn 0.8247 0.3118 -0.4718
vn 0.1939 0.5135 -0.8359
vn 0.2558 0.2644 -0.9299
vn -0.4652 0.4558 -0.7588
vn -0.4824 0.2167 -0.8487
vn -0.8772 0.4210 -0.2306
vn -0.9487 0.1832 -0.2578
vn -0.7919 0.4265 0.4370
vn -0.1917 -0.5243 0.8296
vn 0.4633 -0.4654 0.7542
vn 0.8727 -0.4312 0.2292
vn 0.7761 -0.4606 -0.4307
vn 0.2577 -0.4863 -0.8349
vn -0.3916 -0.5446 -0.7417
vn -0.7840 -0.5795 -0.2225
vn -0.7024 -0.5728 0.4226
vn -0.1724 -0.6978 0.6952
vn 0.3837 -0.6621 0.6438
vn 0.7422 -0.6405 0.1974
vn 0.6643 -0.6493 -0.3703
vn 0.2076 -0.6762 -0.7069
vn -0.3373 -0.7101 -0.6180
vn -0.6590 -0.7294 -0.1834
vn -0.5932 -0.7261 0.3478
vn -0.1925 0.6611 0.7252
vn -0.6588 0.6497 0.3793
vn -0.2350 0.4904 0.8392
vn 0.4144 0.5177 0.7485
vn 0.3687 0.6799 0.6338
vn 0.8128 0.5379 0.2237
vn 0.6961 0.6933 0.1867
vn 0.7408 0.5177 -0.4281
vn 0.6233 0.6962 -0.3561
vn 0.2206 0.5038 -0.8352
vn 0.1937 0.6856 -0.7017
vn -0.4468 0.4764 -0.7572
vn -0.3665 0.6673 -0.6484
vn -0.8492 0.4797 -0.2209
vn -0.7314 0.6517 -0.2011
vn -0.7745 0.4596 0.4347
vn -0.2202 -0.5039 0.8352
vn 0.4477 -0.4760 0.7569
vn 0.8604 -0.4552 0.2292
vn 0.7651 -0.4757 -0.4339
vn 0.2356 -0.4900 -0.8393
vn -0.4140 -0.5166 -0.7495
vn -0.8248 -0.5152 -0.2332
vn -0.7301 -0.5335 0.4270
vn 0.4344 -0.4664 0.7706
vn 0.8607 -0.4503 0.2376
vn 0.7765 -0.4442 -0.4469
vn 0.2274 -0.4595 -0.8586
vn -0.8356 -0.5022 -0.2228
vn -0.7502 -0.5053 0.4265
vt 0.000000 0.429700
vt 0.019500 1.000000
vt 3.085900 1.000000
vt 3.117200 0.429700
vt 5.734400 1.000000
vt 5.769500 0.429700
vt 7.605500 1.000000
vt 7.621100 0.429700
vt 9.156300 1.000000
vt 9.160200 0.429700
vt 10.617200 1.000000
vt 10.605500 0.429700
vt 12.105500 1.000000
vt 12.085900 0.429700
vt 13.789100 1.000000
vt 13.761700 0.429700
vt 16.019501 1.000000
vt 16.000000 0.429700
vt 13.796900 0.000000
vt 16.046900 0.000000
vt 0.046900 0.000000
vt 3.109400 0.000000
vt 5.726600 0.000000
vt 7.589800 0.000000
vt 9.140600 0.000000
vt 10.601600 0.000000
vt 12.101600 0.000000
vt 84.893700 27.130899
vt 82.768402 26.106501
vt 86.244202 26.258900
vt 82.873802 27.464600
vt 82.008102 28.170601
vt 75.639297 27.963301
vt 75.802200 28.598700
vt 68.770798 27.465599
vt 69.916298 28.192400
vt 66.283203 26.265699
vt 67.791000 27.167999
vt 69.653603 25.071600
vt 70.676102 26.126301
vt 76.888000 24.572901
vt 76.881897 25.698299
vt 83.768303 25.070400
vt 86.184097 25.687401
vt 82.825401 26.881500
vt 75.591400 27.370600
vt 68.710701 26.871000
vt 66.234802 25.671000
vt 69.605202 24.465401
vt 76.839699 23.978201
vt 83.708199 24.487400
vt 84.688004 24.819700
vt 81.802902 25.838301
vt 75.597000 26.243200
vt 69.711098 25.802299
vt 67.574097 24.766399
vt 70.459702 23.749800
vt 76.665100 23.342899
vt 82.551003 23.783800
vt 81.745697 -7.068600
vt 79.823196 -8.012600
vt 82.790199 -7.944200
vt 79.831299 -6.916500
vt 79.152000 -6.170300
vt 73.429604 -6.544400
vt 73.558998 -5.845700
vt 67.352203 -7.045900
vt 68.237198 -6.283500
vt 65.147903 -8.126500
vt 66.302902 -7.227500
vt 68.119003 -9.152400
vt 68.908302 -8.125900
vt 74.509102 -9.524400
vt 74.500801 -8.452400
vt 80.598099 -9.022900
vt 82.753601 -8.539000
vt 79.794701 -7.511300
vt 73.392403 -7.141200
vt 67.315498 -7.640700
vt 65.111198 -8.721300
vt 68.082298 -9.747100
vt 74.472397 -10.119100
vt 80.561501 -9.617700
vt 81.598999 -9.436000
vt 79.005402 -8.537700
vt 73.400597 -8.213100
vt 68.078796 -8.650900
vt 66.155800 -9.597000
vt 68.749901 -10.493300
vt 74.354202 -10.819900
vt 79.676003 -10.382100
vt 0.000000 0.601600
vt 0.043000 1.000000
vt 1.968800 1.000000
vt 1.933600 0.601600
vt 3.664100 1.000000
vt 3.648400 0.601600
vt 5.285200 1.000000
vt 5.293000 0.601600
vt 6.960900 1.000000
vt 6.988300 0.601600
vt 8.839800 1.000000
vt 8.886700 0.601600
vt 11.117200 1.000000
vt 11.148400 0.601600
vt 13.707000 1.000000
vt 13.683600 0.601600
vt 16.042999 1.000000
vt 16.000000 0.601600
vt 13.695300 0.000000
vt 16.015600 0.000000
vt 11.140600 0.000000
vt 8.871100 0.000000
vt 6.980500 0.000000
vt 5.289100 0.000000
vt 3.652300 0.000000
vt 1.945300 0.000000
vt 0.015600 0.000000
vt -24.515400 -1.151600
vt -27.603800 -0.805400
vt -24.740200 -1.664100
vt -20.053900 -1.457200
vt -20.500601 -0.967100
vt -17.022400 -0.769200
vt -17.901899 -0.376500
vt -17.414700 0.012200
vt -18.242001 0.289600
vt -21.023701 0.408500
vt -21.330400 0.635900
vt -25.709999 0.201600
vt -25.345301 0.451400
vt -28.741501 -0.486500
vt -27.943899 -0.139200
vt -28.337500 -1.267900
vt -24.705099 -1.906900
vt -20.018801 -1.700000
vt -16.987301 -1.012000
vt -17.391300 -0.242100
vt -20.988600 0.165700
vt -25.674900 -0.041200
vt -28.706400 -0.729300
vt -28.302299 -1.510700
vt -24.410000 -2.099500
vt -20.395201 -1.926600
vt -17.796499 -1.336000
vt -18.136700 -0.669900
vt -21.225100 -0.323600
vt -25.239901 -0.496500
vt -27.838600 -1.087200
vt -27.498400 -1.753300
vt -23.436600 -18.325399
vt -27.033800 -17.813700
vt -23.684200 -18.835800
vt -18.327000 -18.758600
vt -18.750299 -18.257099
vt -14.862200 -18.063499
vt -15.718800 -17.649900
vt -15.319400 -17.159201
vt -16.123301 -16.858900
vt -19.425501 -16.574499
vt -19.720600 -16.347200
vt -24.794399 -16.651600
vt -24.406799 -16.415501
vt -28.259300 -17.346600
vt -27.438400 -17.022699
vt -27.802099 -18.250900
vt -23.672501 -19.078400
vt -18.303600 -19.001301
vt -14.838700 -18.306200
vt -15.307700 -17.401899
vt -19.413799 -16.817101
vt -24.771000 -16.894300
vt -28.247101 -17.587299
vt -27.778700 -18.493601
vt -23.377501 -19.305700
vt -18.691200 -19.237400
vt -15.659700 -18.630199
vt -16.064301 -17.839199
vt -19.661501 -17.327499
vt -24.347300 -17.393801
vt -27.379299 -18.002899
vt -26.986500 -18.793900
s 1
usemtl a194b7ee_dds
f 27/1/1 25/2/2 29/3/3
f 30/4/4 27/1/1 29/3/3
f 30/4/4 29/3/3 31/5/5
f 32/6/6 30/4/4 31/5/5
f 32/6/6 31/5/5 33/7/7
f 34/8/8 32/6/6 33/7/7
f 34/8/8 33/7/7 35/9/9
f 36/10/10 34/8/8 35/9/9
f 36/10/10 35/9/9 37/11/11
f 38/12/12 36/10/10 37/11/11
f 38/12/12 37/11/11 39/13/13
f 40/14/14 38/12/12 39/13/13
f 40/14/14 39/13/13 41/15/15
f 42/16/16 40/14/14 41/15/15
f 42/16/16 41/15/15 26/17/17
f 42/16/16 26/17/17 28/18/1
f 43/19/18 42/16/16 28/18/1
f 43/19/18 28/18/1 45/20/19
f 46/21/19 27/1/1 30/4/4
f 48/22/20 46/21/19 30/4/4
f 48/22/20 30/4/4 32/6/6
f 50/23/21 48/22/20 32/6/6
f 50/23/21 32/6/6 34/8/8
f 52/24/22 50/23/21 34/8/8
f 52/24/22 34/8/8 36/10/10
f 54/25/23 52/24/22 36/10/10
f 54/25/23 36/10/10 38/12/12
f 56/26/24 54/25/23 38/12/12
f 56/26/24 38/12/12 40/14/14
f 58/27/25 56/26/24 40/14/14
f 58/27/25 40/14/14 42/16/16
f 43/19/18 58/27/25 42/16/16
f 1/28/26 2/29/27 60/30/28
f 1/28/26 60/30/28 61/31/29
f 3/32/30 1/28/26 61/31/29
f 3/32/30 61/31/29 62/33/31
f 4/34/32 3/32/30 62/33/31
f 4/34/32 62/33/31 63/35/33
f 5/36/34 4/34/32 63/35/33
f 5/36/34 63/35/33 64/37/35
f 6/38/36 5/36/34 64/37/35
f 6/38/36 64/37/35 65/39/37
f 7/40/38 6/38/36 65/39/37
f 7/40/38 65/39/37 66/41/39
f 8/42/40 7/40/38 66/41/39
f 8/42/40 66/41/39 67/43/41
f 2/29/27 8/42/40 67/43/41
f 2/29/27 67/43/41 60/30/28
f 60/30/28 67/43/41 68/44/42
f 60/30/28 68/44/42 69/45/43
f 61/31/29 60/30/28 69/45/43
f 61/31/29 69/45/43 70/46/44
f 62/33/31 61/31/29 70/46/44
f 62/33/31 70/46/44 71/47/45
f 63/35/33 62/33/31 71/47/45
f 63/35/33 71/47/45 72/48/46
f 64/37/35 63/35/33 72/48/46
f 64/37/35 72/48/46 73/49/47
f 65/39/37 64/37/35 73/49/47
f 65/39/37 73/49/47 74/50/48
f 66/41/39 65/39/37 74/50/48
f 66/41/39 74/50/48 75/51/49
f 67/43/41 66/41/39 75/51/49
f 67/43/41 75/51/49 68/44/42
f 68/44/42 75/51/49 9/52/50
f 68/44/42 9/52/50 16/53/51
f 69/45/43 68/44/42 16/53/51
f 69/45/43 16/53/51 15/54/52
f 70/46/44 69/45/43 15/54/52
f 70/46/44 15/54/52 14/55/53
f 71/47/45 70/46/44 14/55/53
f 71/47/45 14/55/53 13/56/54
f 72/48/46 71/47/45 13/56/54
f 72/48/46 13/56/54 12/57/55
f 73/49/47 72/48/46 12/57/55
f 73/49/47 12/57/55 11/58/56
f 74/50/48 73/49/47 11/58/56
f 74/50/48 11/58/56 10/59/57
f 75/51/49 74/50/48 10/59/57
f 75/51/49 10/59/57 9/52/50
f 18/60/58 24/61/59 76/62/60
f 18/60/58 76/62/60 77/63/61
f 17/64/62 18/60/58 77/63/61
f 17/64/62 77/63/61 78/65/63
f 19/66/64 17/64/62 78/65/63
f 19/66/64 78/65/63 79/67/65
f 20/68/66 19/66/64 79/67/65
f 20/68/66 79/67/65 80/69/67
f 21/70/68 20/68/66 80/69/67
f 21/70/68 80/69/67 81/71/69
f 22/72/70 21/70/68 81/71/69
f 22/72/70 81/71/69 82/73/71
f 23/74/72 22/72/70 82/73/71
f 23/74/72 82/73/71 83/75/73
f 24/61/59 23/74/72 83/75/73
f 76/62/60 24/61/59 83/75/73
f 76/62/60 83/75/73 84/76/74
f 76/62/60 84/76/74 85/77/75
f 77/63/61 76/62/60 85/77/75
f 77/63/61 85/77/75 86/78/76
f 78/65/63 77/63/61 86/78/76
f 78/65/63 86/78/76 87/79/77
f 79/67/65 78/65/63 87/79/77
f 79/67/65 87/79/77 88/80/78
f 80/69/67 79/67/65 88/80/78
f 80/69/67 88/80/78 89/81/79
f 81/71/69 80/69/67 89/81/79
f 81/71/69 89/81/79 90/82/80
f 82/73/71 81/71/69 90/82/80
f 82/73/71 90/82/80 91/83/81
f 83/75/73 82/73/71 91/83/81
f 84/76/74 83/75/73 91/83/81
f 84/76/74 91/83/81 47/84/82
f 84/76/74 47/84/82 49/85/20
f 85/77/75 84/76/74 49/85/20
f 85/77/75 49/85/20 51/86/21
f 86/78/76 85/77/75 51/86/21
f 86/78/76 51/86/21 53/87/22
f 87/79/77 86/78/76 53/87/22
f 87/79/77 53/87/22 55/88/23
f 88/80/78 87/79/77 55/88/23
f 88/80/78 55/88/23 57/89/83
f 89/81/79 88/80/78 57/89/83
f 89/81/79 57/89/83 59/90/25
f 90/82/80 89/81/79 59/90/25
f 90/82/80 59/90/25 44/91/18
f 91/83/81 90/82/80 44/91/18
f 91/83/81 44/91/18 47/84/82
f 118/92/84 116/93/85 120/94/86
f 121/95/87 118/92/84 120/94/86
f 121/95/87 120/94/86 122/96/88
f 123/97/89 121/95/87 122/96/88
f 123/97/89 122/96/88 124/98/90
f 125/99/91 123/97/89 124/98/90
f 125/99/91 124/98/90 126/100/92
f 127/101/93 125/99/91 126/100/92
f 127/101/93 126/100/92 128/102/94
f 129/103/95 127/101/93 128/102/94
f 129/103/95 128/102/94 130/104/96
f 131/105/97 129/103/95 130/104/96
f 131/105/97 130/104/96 132/106/98
f 133/107/99 131/105/97 132/106/98
f 133/107/99 132/106/98 117/108/100
f 133/107/99 117/108/100 119/109/101
f 134/110/102 133/107/99 119/109/101
f 134/110/102 119/109/101 136/111/103
f 133/107/99 134/110/102 139/112/104
f 131/105/97 133/107/99 139/112/104
f 131/105/97 139/112/104 141/113/105
f 129/103/95 131/105/97 141/113/105
f 129/103/95 141/113/105 143/114/106
f 127/101/93 129/103/95 143/114/106
f 127/101/93 143/114/106 145/115/107
f 125/99/91 127/101/93 145/115/107
f 125/99/91 145/115/107 147/116/108
f 123/97/89 125/99/91 147/116/108
f 123/97/89 147/116/108 149/117/109
f 121/95/87 123/97/89 149/117/109
f 121/95/87 149/117/109 137/118/110
f 118/92/84 121/95/87 137/118/110
f 92/119/111 95/120/112 151/121/113
f 92/119/111 151/121/113 152/122/114
f 93/123/115 92/119/111 152/122/114
f 93/123/115 152/122/114 153/124/116
f 94/125/117 93/123/115 153/124/116
f 94/125/117 153/124/116 154/126/118
f 99/127/119 94/125/117 154/126/118
f 99/127/119 154/126/118 155/128/120
f 98/129/121 99/127/119 155/128/120
f 98/129/121 155/128/120 156/130/122
f 97/131/123 98/129/121 156/130/122
f 97/131/123 156/130/122 157/132/124
f 96/133/125 97/131/123 157/132/124
f 96/133/125 157/132/124 158/134/126
f 95/120/112 96/133/125 158/134/126
f 151/121/113 95/120/112 158/134/126
f 151/121/113 158/134/126 159/135/127
f 151/121/113 159/135/127 160/136/128
f 152/122/114 151/121/113 160/136/128
f 152/122/114 160/136/128 161/137/129
f 153/124/116 152/122/114 161/137/129
f 153/124/116 161/137/129 162/138/130
f 154/126/118 153/124/116 162/138/130
f 154/126/118 162/138/130 163/139/131
f 155/128/120 154/126/118 163/139/131
f 155/128/120 163/139/131 164/140/132
f 156/130/122 155/128/120 164/140/132
f 156/130/122 164/140/132 165/141/133
f 157/132/124 156/130/122 165/141/133
f 157/132/124 165/141/133 166/142/134
f 158/134/126 157/132/124 166/142/134
f 159/135/127 158/134/126 166/142/134
f 159/135/127 166/142/134 100/143/135
f 159/135/127 100/143/135 107/144/136
f 160/136/128 159/135/127 107/144/136
f 160/136/128 107/144/136 106/145/137
f 161/137/129 160/136/128 106/145/137
f 161/137/129 106/145/137 105/146/138
f 162/138/130 161/137/129 105/146/138
f 162/138/130 105/146/138 104/147/139
f 163/139/131 162/138/130 104/147/139
f 163/139/131 104/147/139 103/148/140
f 164/140/132 163/139/131 103/148/140
f 164/140/132 103/148/140 102/149/141
f 165/141/133 164/140/132 102/149/141
f 165/141/133 102/149/141 101/150/142
f 166/142/134 165/141/133 101/150/142
f 166/142/134 101/150/142 100/143/135
f 109/151/143 115/152/144 167/153/145
f 109/151/143 167/153/145 168/154/146
f 108/155/147 109/151/143 168/154/146
f 108/155/147 168/154/146 169/156/148
f 110/157/149 108/155/147 169/156/148
f 110/157/149 169/156/148 170/158/150
f 111/159/151 110/157/149 170/158/150
f 111/159/151 170/158/150 171/160/152
f 112/161/153 111/159/151 171/160/152
f 112/161/153 171/160/152 172/162/154
f 113/163/155 112/161/153 172/162/154
f 113/163/155 172/162/154 173/164/156
f 114/165/157 113/163/155 173/164/156
f 114/165/157 173/164/156 174/166/158
f 115/152/144 114/165/157 174/166/158
f 167/153/145 115/152/144 174/166/158
f 167/153/145 174/166/158 175/167/159
f 167/153/145 175/167/159 176/168/160
f 168/154/146 167/153/145 176/168/160
f 168/154/146 176/168/160 177/169/161
f 169/156/148 168/154/146 177/169/161
f 169/156/148 177/169/161 178/170/162
f 170/158/150 169/156/148 178/170/162
f 170/158/150 178/170/162 179/171/163
f 171/160/152 170/158/150 179/171/163
f 171/160/152 179/171/163 180/172/164
f 172/162/154 171/160/152 180/172/164
f 172/162/154 180/172/164 181/173/165
f 173/164/156 172/162/154 181/173/165
f 173/164/156 181/173/165 182/174/166
f 174/166/158 173/164/156 182/174/166
f 175/167/159 174/166/158 182/174/166
f 175/167/159 182/174/166 138/175/110
f 175/167/159 138/175/110 150/176/167
f 176/168/160 175/167/159 150/176/167
f 176/168/160 150/176/167 148/177/168
f 177/169/161 176/168/160 148/177/168
f 177/169/161 148/177/168 146/178/169
f 178/170/162 177/169/161 146/178/169
f 178/170/162 146/178/169 144/179/170
f 179/171/163 178/170/162 144/179/170
f 179/171/163 144/179/170 142/180/105
f 180/172/164 179/171/163 142/180/105
f 180/172/164 142/180/105 140/181/171
f 181/173/165 180/172/164 140/181/171
f 181/173/165 140/181/171 135/182/172
f 182/174/166 181/173/165 135/182/172
f 182/174/166 135/182/172 138/175/110
o _0d9a7903_dds
v 1.919848 1.730765 -2.342080
v 1.895436 1.731103 -2.572796
v 1.475310 1.714376 -2.409536
v 1.758527 1.734133 -2.759902
v 1.546632 1.739115 -2.854092
v 1.316312 1.744497 -2.829297
v 1.128829 1.749139 -2.692382
v 1.035031 1.751492 -2.480482
v 1.059830 1.750767 -2.249763
v 1.196352 1.747734 -2.062274
v 1.408247 1.742758 -1.968471
v 1.638954 1.737375 -1.993266
v 1.826049 1.732730 -2.129794
v 1.896514 1.957996 -2.104516
v 1.919437 2.021528 -2.364629
v 2.003156 1.953702 -2.347022
v 1.895391 2.022253 -2.581386
v 1.974540 1.954803 -2.610313
v 1.766604 2.027618 -2.757236
v 1.817904 1.960543 -2.823814
v 1.567490 2.036088 -2.844815
v 1.575796 1.969777 -2.930850
v 1.351128 2.044963 -2.821157
v 1.312514 1.979811 -2.901848
v 1.175673 2.052708 -2.691976
v 1.099023 1.987936 -2.745210
v 1.087713 2.056222 -2.492471
v 0.992377 1.991843 -2.503093
v 1.111760 2.055498 -2.276098
v 1.021382 1.991128 -2.239800
v 1.240550 2.050132 -2.100251
v 1.177630 1.985002 -2.025910
v 1.439661 2.041659 -2.012672
v 1.419741 1.976159 -1.919263
v 1.656023 2.032786 -2.036330
v 1.683020 1.966128 -1.947878
v 1.831865 2.025429 -2.165123
v 1.761300 2.077703 -2.389728
v 1.746798 2.078450 -2.521566
v 1.668673 2.081900 -2.628317
v 1.547424 2.087289 -2.681642
v 1.415980 2.093079 -2.667142
v 1.309233 2.097727 -2.589015
v 1.255910 2.100070 -2.467761
v 1.270412 2.099712 -2.335925
v 1.348924 2.096262 -2.229170
v 1.469786 2.090869 -2.175846
v 1.601234 2.085080 -2.190349
v 1.707977 2.080432 -2.268476
v 1.511313 2.115635 -2.428941
v -2.000716 0.894008 -1.318659
v -1.876401 0.898698 -1.246721
v -1.801887 0.885866 -1.514481
v -1.732964 0.903767 -1.246085
v -1.608401 0.908432 -1.317590
v -1.536079 0.911134 -1.441911
v -1.535828 0.911104 -1.585354
v -1.606940 0.908352 -1.710313
v -1.731258 0.903657 -1.782251
v -1.874692 0.898586 -1.782887
v -1.999258 0.893925 -1.711383
v -2.071580 0.891609 -1.587059
v -2.071831 0.891639 -1.443617
v -1.905573 1.047961 -1.208810
v -2.047316 1.041711 -1.291244
v -1.895407 1.085942 -1.263075
v -2.011976 1.080868 -1.330735
v -2.128480 1.038175 -1.433668
v -2.079228 1.077725 -1.447932
v -2.128193 1.038142 -1.597658
v -2.078605 1.077699 -1.582847
v -2.045761 1.041615 -1.739408
v -2.010947 1.080792 -1.699424
v -1.903346 1.047835 -1.820964
v -1.893755 1.085837 -1.766677
v -1.739750 1.054845 -1.820290
v -1.758849 1.092070 -1.766444
v -1.598010 1.060710 -1.737855
v -1.642280 1.097148 -1.698397
v -1.516458 1.064244 -1.595822
v -1.575419 1.099904 -1.581199
v -1.516745 1.064277 -1.431440
v -1.575651 1.099927 -1.446283
v -1.599174 1.060800 -1.289691
v -1.643696 1.097224 -1.329708
v -1.741592 1.054974 -1.208136
v -1.760501 1.091789 -1.262454
v -1.790185 1.119290 -1.361372
v -1.872371 1.115780 -1.361512
v -1.943239 1.112266 -1.402731
v -1.983823 1.110695 -1.474136
v -1.983680 1.110675 -1.555939
v -1.942462 1.112220 -1.627202
v -1.871450 1.115717 -1.667783
v -1.789265 1.119224 -1.667643
v -1.718393 1.122734 -1.626424
v -1.677812 1.124309 -1.555019
v -1.677956 1.124329 -1.473220
v -1.719170 1.122783 -1.402344
v -1.832566 1.132817 -1.514586
vn 0.4002 -0.9023 -0.1601
vn 0.4289 -0.9003 0.0744
vn -0.0238 -0.9997 0.0006
vn 0.2604 -0.8991 -0.3519
vn 0.0461 -0.8889 -0.4557
vn -0.1970 -0.8763 -0.4397
vn -0.4042 -0.8637 -0.3009
vn -0.5147 -0.8543 -0.0725
vn -0.4920 -0.8510 0.1838
vn -0.3393 -0.8547 0.3930
vn -0.1023 -0.8652 0.4910
vn 0.1474 -0.8793 0.4529
vn 0.3398 -0.8917 0.2990
vn 0.5004 0.8631 0.0677
vn 0.6588 0.5584 0.5042
vn 0.8370 0.5338 0.1205
vn 0.4761 0.8622 -0.1733
vn 0.7974 0.5205 -0.3053
vn 0.3345 0.8654 -0.3731
vn 0.5463 0.5230 -0.6542
vn 0.1100 0.8744 -0.4725
vn 0.1509 0.5391 -0.8286
vn -0.1342 0.8853 -0.4452
vn -0.2764 0.5663 -0.7765
vn -0.3300 0.8958 -0.2978
vn -0.6151 0.5950 -0.5174
vn -0.4259 0.9018 -0.0732
vn -0.7761 0.6176 -0.1273
vn -0.3956 0.9032 0.1665
vn -0.7216 0.6302 0.2865
vn -0.2511 0.8988 0.3593
vn -0.4731 0.6276 0.6183
vn -0.0322 0.8909 0.4530
vn -0.0956 0.6124 0.7847
vn 0.2045 0.8805 0.4278
vn 0.3166 0.5873 0.7449
vn 0.4003 0.8700 0.2879
vn 0.2541 0.9667 0.0319
vn 0.2424 0.9671 -0.0775
vn 0.1774 0.9699 -0.1670
vn 0.0757 0.9745 -0.2114
vn -0.0347 0.9793 -0.1995
vn -0.1233 0.9833 -0.1339
vn -0.1678 0.9853 -0.0334
vn -0.1558 0.9848 0.0770
vn -0.0901 0.9819 0.1667
vn 0.0110 0.9773 0.2115
vn 0.1199 0.9726 0.1990
vn 0.2098 0.9687 0.1326
vn 0.0448 0.9990 -0.0006
vn -0.0876 -0.8795 0.4677
vn -0.3000 -0.8931 0.3353
vn 0.0367 -0.9993 0.0003
vn 0.1646 -0.8615 0.4803
vn 0.3943 -0.8464 0.3581
vn 0.5304 -0.8372 0.1334
vn 0.5309 -0.8374 -0.1298
vn 0.3979 -0.8458 -0.3553
vn 0.1668 -0.8631 -0.4768
vn -0.0852 -0.8792 -0.4687
vn -0.2958 -0.8944 -0.3356
vn -0.4146 -0.9018 -0.1218
vn -0.4143 -0.9022 0.1200
vn -0.6147 0.5336 0.5808
vn -0.2446 0.5691 0.7851
vn -0.1574 0.8904 0.4271
vn -0.3592 0.8784 0.3152
vn -0.8305 0.5156 0.2110
vn -0.4778 0.8709 0.1152
vn -0.8295 0.5145 -0.2172
vn -0.4757 0.8716 -0.1182
vn -0.6099 0.5346 -0.5850
vn -0.3573 0.8784 -0.3175
vn -0.2382 0.5676 -0.7881
vn -0.1557 0.8900 -0.4287
vn 0.1795 0.6040 -0.7765
vn 0.0728 0.9022 -0.4251
vn 0.5325 0.6337 -0.5611
vn 0.2677 0.9131 -0.3074
vn 0.7308 0.6516 -0.2032
vn 0.3754 0.9204 -0.1097
vn 0.7297 0.6519 0.2064
vn 0.3747 0.9204 0.1121
vn 0.5289 0.6341 0.5641
vn 0.2641 0.9141 0.3076
vn 0.1745 0.6043 0.7774
vn 0.0691 0.9036 0.4227
vn 0.0054 0.9814 0.1919
vn -0.0963 0.9767 0.1918
vn -0.1869 0.9724 0.1396
vn -0.2379 0.9699 0.0522
vn -0.2377 0.9699 -0.0533
vn -0.1848 0.9724 -0.1427
vn -0.0970 0.9766 -0.1921
vn 0.0070 0.9817 -0.1906
vn 0.0945 0.9857 -0.1393
vn 0.1459 0.9881 -0.0488
vn 0.1458 0.9881 0.0498
vn 0.0941 0.9858 0.1388
vn -0.0459 0.9989 -0.0003
vt 2.843800 0.429700
vt 3.484400 -0.210900
vt 1.968800 -1.101600
vt 1.964800 0.660200
vt 1.089800 0.421900
vt 0.453100 -0.218800
vt 0.218800 -1.097700
vt 0.457000 -1.972700
vt 1.101600 -2.609400
vt 1.976600 -2.843800
vt 2.851600 -2.605500
vt 3.492200 -1.960900
vt 3.722700 -1.085900
vt 3.429700 -0.144500
vt 4.000000 -0.988300
vt 3.726600 0.007800
vt 2.820300 0.457000
vt 2.988300 0.738300
vt 1.996100 0.671900
vt 1.988300 1.000000
vt 1.175800 0.445300
vt 0.988300 0.726600
vt 0.578100 -0.160200
vt 0.261700 -0.007800
vt 0.363300 -0.984400
vt 0.000000 -1.011700
vt 0.589800 -1.804700
vt 0.273400 -2.007800
vt 1.195300 -2.402300
vt 1.011700 -2.738300
vt 2.019500 -2.621100
vt 2.011700 -3.000000
vt 2.839800 -2.394500
vt 3.011700 -2.726600
vt 3.437500 -1.789100
vt 3.738300 -1.992200
vt 3.652300 -0.964800
vt 2.886700 -0.457000
vt 2.519500 -0.093800
vt 2.015600 0.039100
vt 1.519500 -0.097700
vt 1.156300 -0.464800
vt 1.023400 -0.968800
vt 1.160200 -1.464800
vt 1.531300 -1.832000
vt 2.031300 -1.960900
vt 2.531300 -1.824200
vt 2.894500 -1.457000
vt 3.023400 -0.957000
vt 2.031300 -0.953100
vt 3.722700 -0.886700
vt 3.484400 -1.761700
vt 1.964800 -0.875000
vt 3.484400 -0.011700
vt 2.843800 0.628900
vt 1.968800 0.867200
vt 1.093800 0.628900
vt 0.453100 -0.011700
vt 0.218800 -0.886700
vt 0.453100 -1.761700
vt 1.093800 -2.402300
vt 1.968800 -2.636700
vt 2.843800 -2.402300
vt 3.730500 -2.000000
vt 4.000000 -1.000000
vt 3.652300 -1.027300
vt 3.433600 -1.851600
vt 3.000000 -2.730500
vt 2.828100 -2.453100
vt 2.000000 -3.000000
vt 2.007800 -2.675800
vt 1.000000 -2.730500
vt 1.183600 -2.453100
vt 0.269500 -2.000000
vt 0.582000 -1.851600
vt 0.000000 -1.000000
vt 0.363300 -1.027300
vt 0.269500 0.000000
vt 0.582000 -0.207000
vt 1.000000 0.730500
vt 1.183600 0.394500
vt 2.000000 1.000000
vt 2.007800 0.617200
vt 3.000000 0.730500
vt 2.832000 0.398400
vt 3.730500 0.000000
vt 3.433600 -0.207000
vt 2.878900 -0.550800
vt 3.011700 -1.050800
vt 2.878900 -1.550800
vt 2.511700 -1.914100
vt 2.011700 -2.050800
vt 1.511700 -1.918000
vt 1.148400 -1.550800
vt 1.011700 -1.050800
vt 1.148400 -0.550800
vt 1.515600 -0.183600
vt 2.015600 -0.050800
vt 2.515600 -0.183600
vt 2.015600 -1.062500
s 1
usemtl 0d9a7903_dds
f 184/183/173 183/184/174 185/185/175
f 186/186/176 184/183/173 185/185/175
f 187/187/177 186/186/176 185/185/175
f 188/188/178 187/187/177 185/185/175
f 189/189/179 188/188/178 185/185/175
f 190/190/180 189/189/179 185/185/175
f 191/191/181 190/190/180 185/185/175
f 192/192/182 191/191/181 185/185/175
f 193/193/183 192/192/182 185/185/175
f 194/194/184 193/193/183 185/185/175
f 195/195/185 194/194/184 185/185/175
f 195/195/185 185/185/175 183/184/174
f 197/196/186 196/197/187 198/198/188
f 199/199/189 197/196/186 198/198/188
f 199/199/189 198/198/188 200/200/190
f 201/201/191 199/199/189 200/200/190
f 201/201/191 200/200/190 202/202/192
f 203/203/193 201/201/191 202/202/192
f 203/203/193 202/202/192 204/204/194
f 205/205/195 203/203/193 204/204/194
f 205/205/195 204/204/194 206/206/196
f 207/207/197 205/205/195 206/206/196
f 207/207/197 206/206/196 208/208/198
f 209/209/199 207/207/197 208/208/198
f 209/209/199 208/208/198 210/210/200
f 211/211/201 209/209/199 210/210/200
f 211/211/201 210/210/200 212/212/202
f 213/213/203 211/211/201 212/212/202
f 213/213/203 212/212/202 214/214/204
f 215/215/205 213/213/203 214/214/204
f 215/215/205 214/214/204 216/216/206
f 217/217/207 215/215/205 216/216/206
f 217/217/207 216/216/206 218/218/208
f 219/219/209 217/217/207 218/218/208
f 219/219/209 218/218/208 196/197/187
f 219/219/209 196/197/187 197/196/186
f 220/220/210 219/219/209 197/196/186
f 221/221/211 220/220/210 197/196/186
f 221/221/211 197/196/186 199/199/189
f 222/222/212 221/221/211 199/199/189
f 222/222/212 199/199/189 201/201/191
f 223/223/213 222/222/212 201/201/191
f 223/223/213 201/201/191 203/203/193
f 224/224/214 223/223/213 203/203/193
f 224/224/214 203/203/193 205/205/195
f 225/225/215 224/224/214 205/205/195
f 225/225/215 205/205/195 207/207/197
f 226/226/216 225/225/215 207/207/197
f 226/226/216 207/207/197 209/209/199
f 227/227/217 226/226/216 209/209/199
f 227/227/217 209/209/199 211/211/201
f 228/228/218 227/227/217 211/211/201
f 228/228/218 211/211/201 213/213/203
f 229/229/219 228/228/218 213/213/203
f 229/229/219 213/213/203 215/215/205
f 230/230/220 229/229/219 215/215/205
f 230/230/220 215/215/205 217/217/207
f 231/231/221 230/230/220 217/217/207
f 231/231/221 217/217/207 219/219/209
f 231/231/221 219/219/209 220/220/210
f 232/232/222 231/231/221 220/220/210
f 232/232/222 220/220/210 221/221/211
f 232/232/222 221/221/211 222/222/212
f 232/232/222 222/222/212 223/223/213
f 232/232/222 223/223/213 224/224/214
f 232/232/222 224/224/214 225/225/215
f 232/232/222 225/225/215 226/226/216
f 232/232/222 226/226/216 227/227/217
f 232/232/222 227/227/217 228/228/218
f 232/232/222 228/228/218 229/229/219
f 232/232/222 229/229/219 230/230/220
f 231/231/221 232/232/222 230/230/220
f 234/233/223 233/234/224 235/235/225
f 236/236/226 234/233/223 235/235/225
f 237/237/227 236/236/226 235/235/225
f 238/238/228 237/237/227 235/235/225
f 239/239/229 238/238/228 235/235/225
f 240/240/230 239/239/229 235/235/225
f 241/241/231 240/240/230 235/235/225
f 242/242/232 241/241/231 235/235/225
f 243/243/233 242/242/232 235/235/225
f 244/244/234 243/243/233 235/235/225
f 245/245/235 244/244/234 235/235/225
f 245/245/235 235/235/225 233/234/224
f 247/246/236 246/247/237 248/248/238
f 247/246/236 248/248/238 249/249/239
f 250/250/240 247/246/236 249/249/239
f 250/250/240 249/249/239 251/251/241
f 252/252/242 250/250/240 251/251/241
f 252/252/242 251/251/241 253/253/243
f 254/254/244 252/252/242 253/253/243
f 254/254/244 253/253/243 255/255/245
f 256/256/246 254/254/244 255/255/245
f 256/256/246 255/255/245 257/257/247
f 258/258/248 256/256/246 257/257/247
f 258/258/248 257/257/247 259/259/249
f 260/260/250 258/258/248 259/259/249
f 260/260/250 259/259/249 261/261/251
f 262/262/252 260/260/250 261/261/251
f 262/262/252 261/261/251 263/263/253
f 264/264/254 262/262/252 263/263/253
f 264/264/254 263/263/253 265/265/255
f 266/266/256 264/264/254 265/265/255
f 266/266/256 265/265/255 267/267/257
f 268/268/258 266/266/256 267/267/257
f 268/268/258 267/267/257 269/269/259
f 246/247/237 268/268/258 269/269/259
f 248/248/238 246/247/237 269/269/259
f 248/248/238 269/269/259 270/270/260
f 248/248/238 270/270/260 271/271/261
f 249/249/239 248/248/238 271/271/261
f 249/249/239 271/271/261 272/272/262
f 251/251/241 249/249/239 272/272/262
f 251/251/241 272/272/262 273/273/263
f 253/253/243 251/251/241 273/273/263
f 253/253/243 273/273/263 274/274/264
f 255/255/245 253/253/243 274/274/264
f 255/255/245 274/274/264 275/275/265
f 257/257/247 255/255/245 275/275/265
f 257/257/247 275/275/265 276/276/266
f 259/259/249 257/257/247 276/276/266
f 259/259/249 276/276/266 277/277/267
f 261/261/251 259/259/249 277/277/267
f 261/261/251 277/277/267 278/278/268
f 263/263/253 261/261/251 278/278/268
f 263/263/253 278/278/268 279/279/269
f 265/265/255 263/263/253 279/279/269
f 265/265/255 279/279/269 280/280/270
f 267/267/257 265/265/255 280/280/270
f 267/267/257 280/280/270 281/281/271
f 269/269/259 267/267/257 281/281/271
f 270/270/260 269/269/259 281/281/271
f 270/270/260 281/281/271 282/282/272
f 271/271/261 270/270/260 282/282/272
f 272/272/262 271/271/261 282/282/272
f 273/273/263 272/272/262 282/282/272
f 274/274/264 273/273/263 282/282/272
f 275/275/265 274/274/264 282/282/272
f 276/276/266 275/275/265 282/282/272
f 277/277/267 276/276/266 282/282/272
f 278/278/268 277/277/267 282/282/272
f 279/279/269 278/278/268 282/282/272
f 280/280/270 279/279/269 282/282/272
f 280/280/270 282/282/272 281/281/271
