# Blender 5.1.2
# www.blender.org
mtllib stars.mtl
o a8228b53_dds
v 0.967260 1.016046 -2.433927
v 0.967260 1.016046 -2.433927
v 1.066745 0.912527 -2.559339
v 1.066745 0.912527 -2.559339
v 1.193507 0.735820 -2.312512
v 1.193507 0.735820 -2.312512
v 1.094026 0.839335 -2.187485
v 1.094026 0.839335 -2.187485
v 1.480797 0.764608 -2.107709
v 1.480797 0.764608 -2.107709
v 1.381316 0.868127 -1.982681
v 1.381316 0.868127 -1.982681
v 1.296939 0.476541 -2.015312
v 1.296939 0.476541 -2.015312
v 1.197458 0.579670 -1.890283
v 1.197458 0.579670 -1.890283
v 1.334977 0.240107 -1.789950
v 1.334977 0.240107 -1.789950
v 1.235495 0.343622 -1.664922
v 1.235495 0.343622 -1.664922
v 1.075993 0.248536 -2.002856
v 1.075993 0.248536 -2.002856
v 0.976512 0.352058 -1.877828
v 0.976512 0.352058 -1.877828
v 0.803569 0.030595 -2.038953
v 0.803569 0.030595 -2.038953
v 0.704476 0.134110 -1.913925
v 0.704476 0.134110 -1.913925
v 0.849634 0.340317 -2.258367
v 0.849634 0.340317 -2.258367
v 0.750149 0.443449 -2.133337
v 0.750149 0.443449 -2.133337
v 0.628353 0.470090 -2.541790
v 0.628353 0.470090 -2.541790
v 0.528868 0.573609 -2.416763
v 0.528868 0.573609 -2.416763
v 0.922386 0.632999 -2.442840
v 0.922386 0.632999 -2.442840
v 0.922386 0.632999 -2.442840
v 0.823292 0.736518 -2.317424
v 0.823292 0.736518 -2.317424
v 0.823292 0.736518 -2.317424
v 0.945784 0.934646 -2.334699
v 1.039687 0.795140 -2.144539
v 1.079076 0.795848 -2.502306
v 1.172975 0.656338 -2.312145
v 1.276266 0.826234 -1.982467
v 1.409554 0.687827 -2.150074
v 1.119962 0.593607 -1.914072
v 1.253254 0.454806 -2.081677
v 1.153810 0.413373 -1.738350
v 1.286711 0.274575 -1.905960
v 0.960256 0.424929 -1.901518
v 1.093547 0.286134 -2.069129
v 0.754484 0.259341 -1.928207
v 0.887776 0.120543 -2.095814
v 0.797371 0.504334 -2.096826
v 0.930659 0.365920 -2.264434
v 0.618631 0.600396 -2.318528
v 0.751922 0.461598 -2.486135
v 0.841385 0.722967 -2.242565
v 0.974676 0.584169 -2.410175
v 0.986834 0.631543 -2.051550
v 1.119738 0.493132 -2.219158
vn 0.2771 0.4170 -0.8656
vn -0.2327 0.9462 -0.2247
vn 0.7602 0.2906 -0.5811
vn 0.1189 0.9636 0.2392
vn 0.9654 0.2157 -0.1466
vn 0.4593 0.7429 0.4870
vn 0.9730 -0.2300 0.0216
vn 0.3235 0.4374 0.8390
vn 0.6959 -0.6345 0.3363
vn 0.1874 -0.1040 0.9768
vn 0.3207 -0.9427 0.0920
vn -0.3291 -0.2735 0.9038
vn -0.1908 -0.9776 -0.0884
vn -0.7011 -0.4461 0.5564
vn -0.2910 -0.7713 -0.5660
vn -0.9612 -0.0712 0.2664
vn -0.4495 -0.3281 -0.8308
vn -0.9610 0.2045 -0.1862
vn -0.0638 0.0080 -0.9979
vn -0.7070 0.6830 -0.1838
vn -0.0637 0.0081 -0.9979
vn -0.7069 0.6830 -0.1838
vn -0.2327 0.9462 -0.2248
vn -0.5223 0.6863 0.5062
vn 0.1190 0.9637 0.2392
vn -0.4339 0.6587 0.6147
vn 0.5166 -0.3712 -0.7716
vn 0.2771 0.4171 -0.8656
vn 0.5961 -0.4174 -0.6858
vn 0.7602 0.2906 -0.5810
vn 0.4594 0.7429 0.4869
vn -0.3264 0.6603 0.6764
vn 0.6971 -0.4116 -0.5871
vn 0.3236 0.4374 0.8390
vn -0.3948 0.5522 0.7343
vn 0.6400 -0.5200 -0.5657
vn 0.9730 -0.2300 0.0217
vn 0.1874 -0.1041 0.9768
vn -0.4072 0.4441 0.7981
vn 0.6008 -0.6342 -0.4867
vn -0.5181 0.4181 0.7462
vn 0.5153 -0.6557 -0.5518
vn -0.7011 -0.4461 0.5563
vn -0.6139 0.3707 0.6969
vn 0.4009 -0.6923 -0.6000
vn -0.1908 -0.9776 -0.0883
vn -0.6301 0.4636 0.6229
vn 0.4054 -0.6148 -0.6765
vn -0.6750 0.5090 0.5341
vn 0.3517 -0.5462 -0.7602
vn -0.5918 0.6045 0.5333
vn 0.4410 -0.4712 -0.7639
vn -0.0638 0.0081 -0.9979
vn -0.5225 0.5434 0.6571
vn 0.5223 -0.5436 -0.6571
vt 0.960900 0.992200
vt 0.964800 0.570300
vt 0.875000 0.820300
vt 0.890600 0.398400
vt 0.742200 0.710900
vt 0.757800 0.289100
vt 0.609400 0.601600
vt 0.625000 0.179700
vt 0.535200 0.429700
vt 0.539100 0.007800
vt 0.441400 0.550800
vt 0.433600 0.128900
vt 0.355500 0.527300
vt 0.343800 0.105500
vt 0.261700 0.710900
vt 0.238300 0.289100
vt 0.156300 0.894500
vt 0.144500 0.472700
vt 0.066400 0.871100
vt 0.058600 0.449200
vt 1.066400 0.871100
vt 1.058600 0.449200
vt 1.000000 0.367200
vt 0.898400 0.410200
vt 0.707000 0.308600
vt 0.671900 0.371100
vt 0.843800 0.410200
vt 0.957000 0.367200
vt 0.617200 0.371100
vt 0.664100 0.308600
vt 0.519500 0.000000
vt 0.527300 0.117200
vt 0.472700 0.117200
vt 0.480500 0.000000
vt 0.335900 0.308600
vt 0.382800 0.371100
vt 0.328100 0.371100
vt 0.293000 0.308600
vt 0.043000 0.367200
vt 0.156300 0.410200
vt 0.101600 0.410200
vt 0.000000 0.367200
vt 0.246100 0.628900
vt 0.316400 0.605500
vt 0.257800 0.605500
vt 0.207000 0.628900
vt 0.207000 1.000000
vt 0.285200 0.886700
vt 0.230500 0.886700
vt 0.164100 1.000000
vt 0.519500 0.824200
vt 0.527300 0.742200
vt 0.472700 0.742200
vt 0.480500 0.824200
vt 0.835900 1.000000
vt 0.769500 0.886700
vt 0.714800 0.886700
vt 0.793000 1.000000
vt 0.793000 0.628900
vt 0.742200 0.605500
vt 0.683600 0.605500
vt 0.753900 0.628900
vt 0.527300 0.492200
vt 0.472700 0.492200
s 1
usemtl a8228b53_dds
f 3/1/1 1/2/2 5/3/3
f 5/3/3 1/2/2 7/4/4
f 5/3/3 7/4/4 9/5/5
f 9/5/5 7/4/4 11/6/6
f 9/5/5 11/6/6 13/7/7
f 13/7/7 11/6/6 15/8/8
f 13/7/7 15/8/8 17/9/9
f 17/9/9 15/8/8 19/10/10
f 17/9/9 19/10/10 21/11/11
f 21/11/11 19/10/10 23/12/12
f 21/11/11 23/12/12 25/13/13
f 25/13/13 23/12/12 27/14/14
f 25/13/13 27/14/14 29/15/15
f 29/15/15 27/14/14 31/16/16
f 29/15/15 31/16/16 33/17/17
f 33/17/17 31/16/16 35/18/18
f 33/17/17 35/18/18 37/19/19
f 37/19/19 35/18/18 40/20/20
f 38/21/21 41/22/22 3/1/1
f 3/1/1 41/22/22 1/2/2
f 2/23/23 43/24/24 8/25/25
f 8/25/25 43/24/24 44/26/26
f 45/27/27 4/28/28 46/29/29
f 46/29/29 4/28/28 6/30/30
f 8/25/25 44/26/26 12/31/31
f 12/31/31 44/26/26 47/32/32
f 46/29/29 6/30/30 48/33/33
f 48/33/33 6/30/30 10/34/5
f 12/31/31 47/32/32 16/35/34
f 16/35/34 47/32/32 49/36/35
f 48/33/33 10/34/5 50/37/36
f 50/37/36 10/34/5 14/38/37
f 16/35/34 49/36/35 20/39/38
f 20/39/38 49/36/35 51/40/39
f 50/37/36 14/38/37 52/41/40
f 52/41/40 14/38/37 18/42/9
f 20/39/38 51/40/39 24/43/12
f 24/43/12 51/40/39 53/44/41
f 52/41/40 18/42/9 54/45/42
f 54/45/42 18/42/9 22/46/11
f 24/43/12 53/44/41 28/47/43
f 28/47/43 53/44/41 55/48/44
f 54/45/42 22/46/11 56/49/45
f 56/49/45 22/46/11 26/50/46
f 28/47/43 55/48/44 32/51/16
f 32/51/16 55/48/44 57/52/47
f 56/49/45 26/50/46 58/53/48
f 58/53/48 26/50/46 30/54/15
f 32/51/16 57/52/47 36/55/18
f 36/55/18 57/52/47 59/56/49
f 58/53/48 30/54/15 60/57/50
f 60/57/50 30/54/15 34/58/17
f 36/55/18 59/56/49 42/59/20
f 42/59/20 59/56/49 61/60/51
f 60/57/50 34/58/17 62/61/52
f 62/61/52 34/58/17 39/62/53
f 42/59/20 61/60/51 2/23/23
f 2/23/23 61/60/51 43/24/24
f 62/61/52 39/62/53 45/27/27
f 45/27/27 39/62/53 4/28/28
f 47/32/32 44/26/26 63/63/54
f 49/36/35 47/32/32 63/63/54
f 51/40/39 49/36/35 63/63/54
f 53/44/41 51/40/39 63/63/54
f 55/48/44 53/44/41 63/63/54
f 57/52/47 55/48/44 63/63/54
f 59/56/49 57/52/47 63/63/54
f 61/60/51 59/56/49 63/63/54
f 43/24/24 61/60/51 63/63/54
f 43/24/24 63/63/54 44/26/26
f 62/61/52 45/27/27 64/64/55
f 60/57/50 62/61/52 64/64/55
f 58/53/48 60/57/50 64/64/55
f 56/49/45 58/53/48 64/64/55
f 54/45/42 56/49/45 64/64/55
f 52/41/40 54/45/42 64/64/55
f 50/37/36 52/41/40 64/64/55
f 48/33/33 50/37/36 64/64/55
f 46/29/29 48/33/33 64/64/55
f 46/29/29 64/64/55 45/27/27
o _2fa31885_dds
v 1.580436 0.831313 -2.121118
v 1.580436 0.831313 -2.121118
v 1.547992 0.728988 -1.954836
v 1.547992 0.728988 -1.954836
v 1.454028 0.682808 -2.086416
v 1.454028 0.682808 -2.086416
v 1.267576 0.802994 -1.888268
v 1.267576 0.802994 -1.888268
v 1.449339 0.574694 -1.830140
v 1.449339 0.574694 -1.830140
v 1.355375 0.528514 -1.961719
v 1.355375 0.528514 -1.961719
v 1.321765 0.427354 -1.795051
v 1.321765 0.427354 -1.795051
v 1.508641 0.363425 -1.798589
v 1.508641 0.363425 -1.798589
v 1.415065 0.317242 -1.930168
v 1.415065 0.317242 -1.930168
v 1.637227 0.664212 -2.210153
v 1.637227 0.664212 -2.210153
v 1.730804 0.710392 -2.078573
v 1.730804 0.710392 -2.078573
v 1.904118 0.738294 -2.319029
v 1.904118 0.738294 -2.319029
v 1.766409 0.486671 -2.240127
v 1.766409 0.486671 -2.240127
v 1.859989 0.532464 -2.108550
v 1.859989 0.532464 -2.108550
v 2.019234 0.330482 -2.258265
v 2.019234 0.330482 -2.258265
v 2.019234 0.330482 -2.258265
v 1.744591 0.283537 -2.153283
v 1.744591 0.283537 -2.153283
v 1.838555 0.329717 -2.021703
v 1.838555 0.329717 -2.021703
v 1.774625 0.142453 -2.018286
v 1.774625 0.142453 -2.018286
v 1.588136 0.208321 -2.015524
v 1.588136 0.208321 -2.015524
v 1.682103 0.254504 -1.883942
v 1.682103 0.254504 -1.883942
v 1.474940 0.068004 -1.778427
v 1.474940 0.068004 -1.778427
v 1.710199 0.470765 -2.238284
v 1.604678 0.615743 -2.213686
v 1.842059 0.535961 -2.053141
v 1.736925 0.680552 -2.028545
v 1.455635 0.630852 -2.113151
v 1.587881 0.695664 -1.927619
v 1.375237 0.504857 -2.011302
v 1.507483 0.570056 -1.826159
v 1.423686 0.333132 -1.985985
v 1.555936 0.397937 -1.800453
v 1.564937 0.244365 -2.055116
v 1.696799 0.309173 -1.869972
v 1.692275 0.305620 -2.167722
v 1.824137 0.370429 -1.982193
v 1.546774 0.443621 -2.112177
v 1.678637 0.508426 -1.927036
vn 0.1135 0.8672 0.4849
vn -0.0865 0.9578 -0.2741
vn -0.6469 0.4929 -0.5819
vn -0.2265 0.3354 0.9144
vn -0.7000 0.6626 0.2664
vn -0.9876 -0.0393 -0.1522
vn -0.0928 -0.1419 0.9855
vn -0.7849 -0.1317 0.6054
vn -0.8531 -0.5155 -0.0810
vn -0.7850 -0.1317 0.6054
vn -0.7000 0.6627 0.2662
vn -0.2340 0.4502 -0.8617
vn -0.0866 0.9578 -0.2742
vn 0.5269 0.8247 0.2056
vn 0.5910 0.5315 -0.6068
vn 0.9453 0.2897 0.1501
vn 0.1362 -0.1084 -0.9847
vn 0.8240 -0.2948 -0.4839
vn 0.8572 -0.3453 0.3820
vn 0.0968 -0.7209 -0.6862
vn 0.4359 -0.9000 0.0030
vn 0.5046 -0.5162 0.6921
vn -0.2570 -0.8901 -0.3765
vn -0.2791 -0.8268 0.4883
vn -0.2793 -0.8268 0.4882
vn 0.9453 0.2896 0.1502
vn 0.5269 0.8247 0.2055
vn -0.0928 -0.1418 0.9855
vn 0.5045 -0.5162 0.6921
vn 0.8572 -0.3453 0.3821
vn 0.8240 -0.2949 -0.4838
vn 0.1362 -0.1083 -0.9847
vn 0.8240 -0.2947 -0.4840
vn 0.0968 -0.7209 -0.6863
vn 0.4358 -0.9000 0.0030
vn -0.2569 -0.8901 -0.3765
vn -0.2792 -0.8269 0.4882
vn -0.9876 -0.0392 -0.1522
vn -0.7850 -0.1317 0.6053
vn -0.2266 0.3355 0.9144
vn -0.7850 -0.1318 0.6054
vn -0.7000 0.6626 0.2663
vn -0.0866 0.9578 -0.2741
vn -0.2146 -0.2036 -0.9552
vn -0.4094 0.0629 -0.9102
vn 0.8168 0.3048 0.4899
vn 0.6233 0.5697 0.5356
vn -0.6825 0.0909 -0.7252
vn 0.3482 0.5979 0.7220
vn -0.8314 -0.1420 -0.5373
vn 0.2005 0.3666 0.9085
vn -0.7425 -0.4568 -0.4899
vn 0.2897 0.0492 0.9559
vn -0.4823 -0.6194 -0.6195
vn 0.5486 -0.1127 0.8285
vn -0.2472 -0.5082 -0.8250
vn 0.7815 0.0014 0.6238
vn -0.5581 -0.2745 -0.7831
vn 0.5587 0.2742 0.7827
vt 0.691400 0.855500
vt 0.769500 0.500000
vt 0.691400 0.144500
vt 0.562500 0.855500
vt 0.632800 0.500000
vt 0.562500 0.144500
vt 0.437500 0.855500
vt 0.500000 0.500000
vt 0.437500 0.144500
vt 0.835900 0.144500
vt 0.835900 0.855500
vt 0.921900 0.500000
vt 1.000000 0.855500
vt 1.000000 0.144500
vt 1.078100 0.500000
vt 0.164100 0.855500
vt 0.164100 0.144500
vt 0.078100 0.500000
vt 0.230500 0.500000
vt 0.308600 0.855500
vt 0.308600 0.144500
vt 0.367200 0.500000
vt 1.000000 0.222700
vt 0.648400 0.242200
vt 0.171900 0.644500
vt 0.078100 1.000000
vt 0.386700 0.824200
vt 0.554700 0.968700
vt 0.648400 0.757800
vt 1.000000 0.777300
vt 0.171900 0.355500
vt 0.000000 0.500000
vt 0.386700 0.175800
vt 0.078100 0.000000
vt 0.554700 0.031200
vt 0.710900 0.500000
vt 0.613300 0.289100
vt 0.398400 0.238300
vt 0.226600 0.382800
vt 0.226600 0.617200
vt 0.398400 0.761700
vt 0.613300 0.710900
vt 0.453100 0.500000
s 1
usemtl 2fa31885_dds
f 67/65/56 65/66/57 69/67/58
f 73/68/59 71/69/60 75/70/61
f 79/71/62 77/72/63 81/73/64
f 75/70/61 77/72/65 73/68/59
f 69/67/58 71/69/66 67/65/56
f 83/74/67 65/66/68 85/75/69
f 83/74/67 85/75/69 87/76/70
f 91/77/71 89/78/72 87/76/70
f 89/78/72 91/77/71 93/79/73
f 98/80/74 96/81/75 94/82/73
f 96/81/75 98/80/74 100/83/76
f 104/84/77 102/85/78 100/83/76
f 102/85/78 104/84/77 106/86/79
f 79/71/62 81/73/64 106/86/80
f 92/66/81 88/87/70 86/88/82
f 80/89/83 107/90/79 105/91/84
f 105/91/84 101/92/76 99/93/85
f 99/93/85 95/94/86 92/66/81
f 84/88/67 88/87/70 90/66/87
f 90/66/87 95/94/88 97/93/89
f 97/93/89 101/92/90 103/91/91
f 103/91/91 107/90/92 82/89/64
f 76/95/93 82/89/64 78/96/94
f 80/89/83 74/95/95 78/96/96
f 70/97/58 76/95/93 72/98/97
f 74/95/95 68/97/56 72/98/97
f 84/88/67 70/97/58 66/99/98
f 68/97/56 86/88/82 66/99/98
f 90/66/87 108/100/99 84/88/67
f 84/88/67 108/100/99 109/101/100
f 110/100/101 92/66/81 111/101/102
f 111/101/102 92/66/81 86/88/82
f 84/88/67 109/101/100 70/97/58
f 70/97/58 109/101/100 112/102/103
f 111/101/102 86/88/82 113/102/104
f 113/102/104 86/88/82 68/97/56
f 70/97/58 112/102/103 76/95/93
f 76/95/93 112/102/103 114/103/105
f 113/102/104 68/97/56 115/103/106
f 115/103/106 68/97/56 74/95/95
f 76/95/93 114/103/105 82/89/64
f 82/89/64 114/103/105 116/104/107
f 115/103/106 74/95/95 117/104/108
f 117/104/108 74/95/95 80/89/83
f 82/89/64 116/104/107 103/91/91
f 103/91/91 116/104/107 118/105/109
f 117/104/108 80/89/83 119/105/110
f 119/105/110 80/89/83 105/91/84
f 103/91/91 118/105/109 97/93/89
f 97/93/89 118/105/109 120/106/111
f 119/105/110 105/91/84 121/106/112
f 121/106/112 105/91/84 99/93/85
f 97/93/89 120/106/111 90/66/87
f 90/66/87 120/106/111 108/100/99
f 121/106/112 99/93/85 110/100/101
f 110/100/101 99/93/85 92/66/81
f 112/102/103 109/101/100 122/107/113
f 114/103/105 112/102/103 122/107/113
f 116/104/107 114/103/105 122/107/113
f 118/105/109 116/104/107 122/107/113
f 120/106/111 118/105/109 122/107/113
f 108/100/99 120/106/111 122/107/113
f 108/100/99 122/107/113 109/101/100
f 121/106/112 110/100/101 123/107/114
f 119/105/110 121/106/112 123/107/114
f 117/104/108 119/105/110 123/107/114
f 115/103/106 117/104/108 123/107/114
f 113/102/104 115/103/106 123/107/114
f 111/101/102 113/102/104 123/107/114
f 111/101/102 123/107/114 110/100/101
