# Blender 5.1.2
# www.blender.org
mtllib star2.mtl
o a8228b53_dds.001
v -1.586377 0.509790 -1.278381
v -1.586377 0.509790 -1.278381
v -1.609566 0.490719 -1.357151
v -1.609566 0.490719 -1.357151
v -1.569033 0.352696 -1.335537
v -1.569033 0.352696 -1.335537
v -1.545922 0.371858 -1.256888
v -1.545922 0.371858 -1.256888
v -1.435914 0.272716 -1.355153
v -1.435914 0.272716 -1.355153
v -1.412801 0.291879 -1.276504
v -1.412801 0.291879 -1.276504
v -1.546876 0.177473 -1.299282
v -1.546876 0.177473 -1.299282
v -1.523866 0.196503 -1.220671
v -1.523866 0.196503 -1.220671
v -1.552383 0.036627 -1.263552
v -1.552383 0.036627 -1.263552
v -1.529272 0.055790 -1.184903
v -1.529272 0.055790 -1.184903
v -1.669058 0.127346 -1.251326
v -1.669058 0.127346 -1.251326
v -1.645945 0.146511 -1.172676
v -1.645945 0.146511 -1.172676
v -1.813486 0.099633 -1.202064
v -1.813486 0.099633 -1.202064
v -1.790261 0.118741 -1.123531
v -1.790261 0.118741 -1.123531
v -1.762862 0.252348 -1.254035
v -1.762862 0.252348 -1.254035
v -1.739851 0.271380 -1.175422
v -1.739851 0.271380 -1.175422
v -1.850824 0.396405 -1.263259
v -1.850824 0.396405 -1.263259
v -1.827712 0.415570 -1.184608
v -1.827712 0.415570 -1.184608
v -1.701840 0.387031 -1.304793
v -1.701840 0.387031 -1.304793
v -1.701840 0.387031 -1.304793
v -1.678536 0.406046 -1.226140
v -1.678536 0.406046 -1.226140
v -1.678536 0.406046 -1.226140
v -1.594068 0.460913 -1.249005
v -1.564828 0.353951 -1.231555
v -1.625078 0.435224 -1.354421
v -1.595840 0.328261 -1.336969
v -1.454592 0.292211 -1.249037
v -1.485501 0.266656 -1.354414
v -1.547750 0.217901 -1.203506
v -1.578761 0.192211 -1.308922
v -1.549733 0.108904 -1.176501
v -1.580859 0.083270 -1.281801
v -1.636368 0.179484 -1.168114
v -1.667378 0.153797 -1.273530
v -1.745597 0.158080 -1.130819
v -1.776608 0.132390 -1.236235
v -1.702665 0.276779 -1.172326
v -1.733576 0.251223 -1.277704
v -1.774560 0.388390 -1.178377
v -1.805570 0.362701 -1.283792
v -1.661713 0.380756 -1.209614
v -1.692724 0.355068 -1.315031
v -1.604552 0.282828 -1.202678
v -1.635575 0.257326 -1.307941
vn 0.0375 0.7087 -0.7045
vn 0.3046 0.9297 0.2068
vn 0.4127 0.3020 -0.8594
vn 0.7596 0.5779 0.2985
vn 0.7022 -0.0589 -0.7095
vn 0.9674 0.1633 0.1937
vn 0.5194 -0.4986 -0.6940
vn 0.8562 -0.2228 0.4661
vn 0.2387 -0.8962 -0.3739
vn 0.5073 -0.6744 0.5365
vn -0.3045 -0.8823 -0.3589
vn 0.0305 -0.6020 0.7979
vn -0.7470 -0.6484 -0.1469
vn -0.4769 -0.4276 0.7679
vn -0.9084 -0.1954 -0.3695
vn -0.5592 0.1039 0.8225
vn -0.8713 0.3429 -0.3511
vn -0.6015 0.5651 0.5647
vn -0.4918 0.5724 -0.6561
vn -0.1479 0.8538 0.4991
vn -0.4917 0.5725 -0.6561
vn -0.1478 0.8539 0.4991
vn 0.3046 0.9298 0.2068
vn 0.2908 0.4204 0.8595
vn 0.7596 0.5779 0.2984
vn 0.3824 0.3115 0.8699
vn -0.2284 -0.0292 -0.9731
vn 0.0375 0.7088 -0.7044
vn -0.1640 -0.1372 -0.9769
vn 0.4127 0.3019 -0.8594
vn 0.9674 0.1634 0.1936
vn 0.4829 0.2450 0.8407
vn -0.0485 -0.2187 -0.9746
vn 0.7023 -0.0589 -0.7095
vn 0.3997 0.1512 0.9041
vn -0.1410 -0.2963 -0.9446
vn 0.5072 -0.6745 0.5365
vn 0.3564 0.0365 0.9336
vn -0.1989 -0.4155 -0.8876
vn 0.2386 -0.8962 -0.3739
vn 0.0306 -0.6020 0.7979
vn 0.2436 0.0799 0.9666
vn -0.2980 -0.3695 -0.8802
vn -0.3046 -0.8823 -0.3589
vn -0.4770 -0.4276 0.7679
vn 0.1295 0.1006 0.9865
vn -0.4176 -0.3352 -0.8445
vn -0.7469 -0.6485 -0.1469
vn 0.1402 0.2182 0.9658
vn -0.4035 -0.2347 -0.8844
vn -0.9085 -0.1955 -0.3694
vn 0.0969 0.3161 0.9437
vn -0.4365 -0.1187 -0.8918
vn -0.8713 0.3430 -0.3511
vn -0.1478 0.8538 0.4991
vn 0.2084 0.3642 0.9077
vn -0.3344 -0.0870 -0.9384
vn 0.2745 0.2272 0.9344
vn -0.2747 -0.2272 -0.9343
vt 0.960900 0.992200
vt 0.964800 0.570300
vt 0.875000 0.820300
vt 0.890600 0.398400
vt 0.742200 0.710900
vt 0.757800 0.289100
vt 0.609400 0.601600
vt 0.625000 0.179700
vt 0.535200 0.429700
vt 0.539100 0.007800
vt 0.441400 0.550800
vt 0.433600 0.128900
vt 0.355500 0.527300
vt 0.343800 0.105500
vt 0.261700 0.710900
vt 0.238300 0.289100
vt 0.156300 0.894500
vt 0.144500 0.472700
vt 0.066400 0.871100
vt 0.058600 0.449200
vt 1.066400 0.871100
vt 1.058600 0.449200
vt 1.000000 0.367200
vt 0.898400 0.410200
vt 0.707000 0.308600
vt 0.671900 0.371100
vt 0.843800 0.410200
vt 0.957000 0.367200
vt 0.617200 0.371100
vt 0.664100 0.308600
vt 0.519500 0.000000
vt 0.527300 0.117200
vt 0.472700 0.117200
vt 0.480500 0.000000
vt 0.335900 0.308600
vt 0.382800 0.371100
vt 0.328100 0.371100
vt 0.293000 0.308600
vt 0.043000 0.367200
vt 0.156300 0.410200
vt 0.101600 0.410200
vt 0.000000 0.367200
vt 0.246100 0.628900
vt 0.316400 0.605500
vt 0.257800 0.605500
vt 0.207000 0.628900
vt 0.207000 1.000000
vt 0.285200 0.886700
vt 0.230500 0.886700
vt 0.164100 1.000000
vt 0.519500 0.824200
vt 0.527300 0.742200
vt 0.472700 0.742200
vt 0.480500 0.824200
vt 0.835900 1.000000
vt 0.769500 0.886700
vt 0.714800 0.886700
vt 0.793000 1.000000
vt 0.793000 0.628900
vt 0.742200 0.605500
vt 0.683600 0.605500
vt 0.753900 0.628900
vt 0.527300 0.492200
vt 0.472700 0.492200
s 1
usemtl a8228b53_dds
f 3/1/1 1/2/2 5/3/3
f 5/3/3 1/2/2 7/4/4
f 5/3/3 7/4/4 9/5/5
f 9/5/5 7/4/4 11/6/6
f 9/5/5 11/6/6 13/7/7
f 13/7/7 11/6/6 15/8/8
f 13/7/7 15/8/8 17/9/9
f 17/9/9 15/8/8 19/10/10
f 17/9/9 19/10/10 21/11/11
f 21/11/11 19/10/10 23/12/12
f 21/11/11 23/12/12 25/13/13
f 25/13/13 23/12/12 27/14/14
f 25/13/13 27/14/14 29/15/15
f 29/15/15 27/14/14 31/16/16
f 29/15/15 31/16/16 33/17/17
f 33/17/17 31/16/16 35/18/18
f 33/17/17 35/18/18 37/19/19
f 37/19/19 35/18/18 40/20/20
f 38/21/21 41/22/22 3/1/1
f 3/1/1 41/22/22 1/2/2
f 2/23/23 43/24/24 8/25/25
f 8/25/25 43/24/24 44/26/26
f 45/27/27 4/28/28 46/29/29
f 46/29/29 4/28/28 6/30/30
f 8/25/25 44/26/26 12/31/31
f 12/31/31 44/26/26 47/32/32
f 46/29/29 6/30/30 48/33/33
f 48/33/33 6/30/30 10/34/34
f 12/31/31 47/32/32 16/35/8
f 16/35/8 47/32/32 49/36/35
f 48/33/33 10/34/34 50/37/36
f 50/37/36 10/34/34 14/38/7
f 16/35/8 49/36/35 20/39/37
f 20/39/37 49/36/35 51/40/38
f 50/37/36 14/38/7 52/41/39
f 52/41/39 14/38/7 18/42/40
f 20/39/37 51/40/38 24/43/41
f 24/43/41 51/40/38 53/44/42
f 52/41/39 18/42/40 54/45/43
f 54/45/43 18/42/40 22/46/44
f 24/43/41 53/44/42 28/47/45
f 28/47/45 53/44/42 55/48/46
f 54/45/43 22/46/44 56/49/47
f 56/49/47 22/46/44 26/50/48
f 28/47/45 55/48/46 32/51/16
f 32/51/16 55/48/46 57/52/49
f 56/49/47 26/50/48 58/53/50
f 58/53/50 26/50/48 30/54/51
f 32/51/16 57/52/49 36/55/18
f 36/55/18 57/52/49 59/56/52
f 58/53/50 30/54/51 60/57/53
f 60/57/53 30/54/51 34/58/54
f 36/55/18 59/56/52 42/59/55
f 42/59/55 59/56/52 61/60/56
f 60/57/53 34/58/54 62/61/57
f 62/61/57 34/58/54 39/62/21
f 42/59/55 61/60/56 2/23/23
f 2/23/23 61/60/56 43/24/24
f 62/61/57 39/62/21 45/27/27
f 45/27/27 39/62/21 4/28/28
f 47/32/32 44/26/26 63/63/58
f 49/36/35 47/32/32 63/63/58
f 51/40/38 49/36/35 63/63/58
f 53/44/42 51/40/38 63/63/58
f 55/48/46 53/44/42 63/63/58
f 57/52/49 55/48/46 63/63/58
f 59/56/52 57/52/49 63/63/58
f 61/60/56 59/56/52 63/63/58
f 43/24/24 61/60/56 63/63/58
f 43/24/24 63/63/58 44/26/26
f 62/61/57 45/27/27 64/64/59
f 60/57/53 62/61/57 64/64/59
f 58/53/50 60/57/53 64/64/59
f 56/49/47 58/53/50 64/64/59
f 54/45/43 56/49/47 64/64/59
f 52/41/39 54/45/43 64/64/59
f 50/37/36 52/41/39 64/64/59
f 48/33/33 50/37/36 64/64/59
f 46/29/29 48/33/33 64/64/59
f 46/29/29 64/64/59 45/27/27
