# Blender 5.1.2
# www.blender.org
mtllib tree.mtl
o _2746ffa3_dds
v 0.872008 2.410298 -3.557124
v 0.872008 2.410298 -3.557124
v 0.872008 2.410298 -3.557124
v 0.872008 2.410298 -3.557124
v 0.872008 2.410298 -3.557124
v 0.729739 2.341651 -3.551152
v 0.729739 2.341651 -3.551152
v 0.729739 2.341651 -3.551152
v 0.729739 2.341651 -3.551152
v 0.761779 2.419600 -3.483270
v 0.761779 2.419600 -3.483270
v 0.761779 2.419600 -3.483270
v 0.761779 2.419600 -3.483270
v 0.642334 1.128040 -4.195777
v 0.642334 1.128040 -4.195777
v 0.642334 1.128040 -4.195777
v 0.642334 1.128040 -4.195777
v 0.642334 1.128040 -4.195777
v 0.558450 1.053994 -4.102863
v 0.558450 1.053994 -4.102863
v 0.558450 1.053994 -4.102863
v 0.558450 1.053994 -4.102863
v 0.595251 1.144723 -4.096617
v 0.595251 1.144723 -4.096617
v 0.595251 1.144723 -4.096617
v 0.595251 1.144723 -4.096617
v 0.539492 1.202079 -4.142085
v 0.539492 1.202079 -4.142085
v 0.539492 1.202079 -4.142085
v 0.539492 1.202079 -4.142085
v 0.741491 2.478875 -3.638389
v 0.741491 2.478875 -3.638389
v 0.741491 2.478875 -3.638389
v 0.741491 2.478875 -3.638389
v 0.723693 2.389704 -3.648097
v 0.723693 2.389704 -3.648097
v 0.723693 2.389704 -3.648097
v 0.723693 2.389704 -3.648097
v 0.751388 2.497120 -3.535638
v 0.751388 2.497120 -3.535638
v 0.751388 2.497120 -3.535638
v 0.751388 2.497120 -3.535638
v -1.346800 1.806528 -2.048884
v -1.346800 1.806528 -2.048884
v -1.346800 1.806528 -2.048884
v -1.346800 1.806528 -2.048884
v -1.491657 1.749490 -2.118134
v -1.491657 1.749490 -2.118134
v -1.491657 1.749490 -2.118134
v -1.491657 1.749490 -2.118134
v -1.474779 1.715789 -2.009157
v -1.474779 1.715789 -2.009157
v -1.474779 1.715789 -2.009157
v -1.474779 1.715789 -2.009157
v -1.491239 1.801870 -1.918487
v -1.491239 1.801870 -1.918487
v -1.491239 1.801870 -1.918487
v -1.491239 1.801870 -1.918487
v -1.518689 1.889082 -1.971665
v -1.518689 1.889082 -1.971665
v -1.518689 1.889082 -1.971665
v -1.518689 1.889082 -1.971665
v -1.519242 1.856493 -2.094943
v -1.519242 1.856493 -2.094943
v 0.467846 1.147006 -4.176312
v 0.467846 1.147006 -4.176312
v 0.467846 1.147006 -4.176312
v 0.467846 1.147006 -4.176312
v 0.479840 1.055520 -4.152237
v 0.479840 1.055520 -4.152237
v 0.479840 1.055520 -4.152237
v 0.479840 1.055520 -4.152237
v -0.951039 1.616375 -3.334116
v -0.951039 1.616375 -3.334116
v -0.562078 1.942818 -3.669243
v -0.562078 1.942818 -3.669243
v -0.562078 1.942818 -3.669243
v -1.104210 1.732264 -3.324713
v -1.104210 1.732264 -3.324713
v -1.219454 1.238397 -2.982097
v -1.219454 1.238397 -2.982097
v 0.197902 2.246122 -3.790874
v 0.197902 2.246122 -3.790874
v 0.197902 2.246122 -3.790874
v -0.161377 1.951015 -3.806173
v -0.161377 1.951015 -3.806173
v -0.161377 1.951015 -3.806173
v -0.104924 1.839005 -3.710294
v -0.104924 1.839005 -3.710294
v -0.104924 1.839005 -3.710294
v 0.235864 2.113160 -3.756278
v 0.235864 2.113160 -3.756278
v 0.441229 2.400095 -3.734268
v 0.441229 2.400095 -3.734268
v 0.441229 2.400095 -3.734268
v 0.497291 2.525342 -3.663250
v 0.497291 2.525342 -3.663250
v 0.497291 2.525342 -3.663250
v -0.279435 -0.011655 -2.785966
v -0.279435 -0.011655 -2.785966
v -0.147694 -0.011526 -2.301516
v -0.147694 -0.011526 -2.301516
v -0.709958 0.425968 -2.718965
v -0.709958 0.425968 -2.718965
v -0.558892 0.512509 -2.434156
v -0.558892 0.512509 -2.434156
v -1.069316 0.812402 -2.770459
v -1.069316 0.812402 -2.770459
v -0.887688 0.915590 -2.674790
v -0.887688 0.915590 -2.674790
v -1.012852 1.258991 -2.969335
v -1.012852 1.258991 -2.969335
v -0.507056 -0.011559 -2.083486
v -0.507056 -0.011559 -2.083486
v -0.894387 -0.011678 -2.278782
v -0.894387 -0.011678 -2.278782
v -0.656934 0.409797 -2.220687
v -0.656934 0.409797 -2.220687
v -0.992494 0.260065 -2.295680
v -0.992494 0.260065 -2.295680
v -0.944684 0.948965 -2.451203
v -0.944684 0.948965 -2.451203
v -1.161450 0.866350 -2.408530
v -1.161450 0.866350 -2.408530
v -0.981773 1.377665 -2.797171
v -0.981773 1.377665 -2.797171
v -1.169580 1.430372 -2.703691
v -1.169580 1.430372 -2.703691
v -0.825659 1.693964 -3.214118
v -0.825659 1.693964 -3.214118
v -0.901434 1.857958 -3.130540
v -0.901434 1.857958 -3.130540
v -0.447136 1.886266 -3.550785
v -0.447136 1.886266 -3.550785
v -0.378699 2.028578 -3.463853
v -0.378699 2.028578 -3.463853
v -0.048963 1.908438 -3.573743
v -0.048963 1.908438 -3.573743
v -0.048963 1.908438 -3.573743
v 0.274385 2.109709 -3.614318
v 0.274385 2.109709 -3.614318
v 0.456606 2.334208 -3.650875
v 0.456606 2.334208 -3.650875
v -0.786312 -0.011741 -2.674810
v -1.018386 0.270083 -2.567882
v -1.238235 0.781778 -2.605591
v -1.316291 1.344251 -2.817908
v -1.073446 1.881555 -3.198693
v -0.452273 2.173546 -3.528368
v -0.452273 2.173546 -3.528368
v -0.071072 2.063893 -3.585056
v -0.071072 2.063893 -3.585056
v 0.260695 2.239979 -3.561254
v 0.260695 2.239979 -3.561254
v 0.476935 2.404406 -3.535322
v 0.476935 2.404406 -3.535322
v 0.498259 2.535446 -3.550821
v 0.498259 2.535446 -3.550821
v 0.498259 2.535446 -3.550821
v 0.213571 2.324462 -3.670295
v 0.213571 2.324462 -3.670295
v -0.140221 2.090214 -3.729014
v -0.140221 2.090214 -3.729014
v -0.565242 2.120382 -3.655325
v -0.565242 2.120382 -3.655325
v -0.240606 -0.011655 -2.822342
v -0.240606 -0.011655 -2.822342
v -0.235197 -0.011606 -2.588555
v -0.235197 -0.011606 -2.588555
v -0.330531 0.344988 -2.873361
v -0.330531 0.344988 -2.873361
v -0.277350 0.474520 -2.706589
v -0.277350 0.474520 -2.706589
v -0.583365 0.750019 -3.101069
v -0.583365 0.750019 -3.101069
v -0.499875 0.874898 -2.974950
v -0.499875 0.874898 -2.974950
v -0.926752 1.001152 -3.181972
v -0.926752 1.001152 -3.181972
v -0.840068 1.138041 -3.110901
v -0.840068 1.138041 -3.110901
v -1.402237 1.153437 -3.084747
v -1.402237 1.153437 -3.084747
v -1.313907 1.285272 -3.066787
v -1.313907 1.285272 -3.066787
v -1.735741 1.325556 -2.821736
v -1.735741 1.325556 -2.821736
v -1.644974 1.429852 -2.863081
v -1.644974 1.429852 -2.863081
v -1.897702 1.589612 -2.456483
v -1.897702 1.589612 -2.456483
v -1.841361 1.673344 -2.538983
v -1.841361 1.673344 -2.538983
v -1.792873 1.740124 -2.118657
v -1.792873 1.740124 -2.118657
v -1.790418 1.821911 -2.202410
v -1.790418 1.821911 -2.202410
v -1.727028 1.766075 -2.310065
v -1.709495 1.623356 -2.566655
v -1.507833 1.393838 -2.805070
v -1.210999 1.253141 -2.940989
v -0.817878 1.098150 -2.936782
v -0.595534 0.861344 -2.805695
v -0.453543 0.528395 -2.602619
v -0.455528 -0.011635 -2.511402
v -0.464176 -0.011715 -2.889025
v -0.464176 -0.011715 -2.889025
v -0.539093 0.318579 -2.872555
v -0.539093 0.318579 -2.872555
v -0.730820 0.659680 -3.010201
v -0.730820 0.659680 -3.010201
v -0.958355 0.876338 -3.052126
v -0.958355 0.876338 -3.052126
v -1.353566 1.040268 -2.969883
v -1.353566 1.040268 -2.969883
v -1.654453 1.224790 -2.738223
v -1.654453 1.224790 -2.738223
v -1.800803 1.488062 -2.433034
v -1.800803 1.488062 -2.433034
v -1.730727 1.633125 -2.174355
v -1.730727 1.633125 -2.174355
v -0.597093 -0.011705 -2.696966
v -0.597093 -0.011705 -2.696966
v -0.615389 0.431804 -2.705232
v -0.615389 0.431804 -2.705232
v -0.738517 0.728336 -2.827628
v -0.738517 0.728336 -2.827628
v -0.891176 0.936475 -2.900436
v -0.891176 0.936475 -2.900436
v -1.235495 1.101564 -2.880909
v -1.235495 1.101564 -2.880909
v -1.513755 1.267463 -2.727903
v -1.513755 1.267463 -2.727903
v -1.684388 1.508619 -2.501068
v -1.684388 1.508619 -2.501068
v -1.690205 1.649392 -2.292920
v -1.690205 1.649392 -2.292920
v -0.133541 -0.238479 -3.057048
v -0.133541 -0.238479 -3.057048
v -0.140810 -0.238446 -2.889190
v -0.140810 -0.238446 -2.889190
v -0.218371 0.133276 -3.141787
v -0.218371 0.133276 -3.141787
v -0.185288 0.131764 -2.994020
v -0.185288 0.131764 -2.994020
v -0.223551 0.399968 -3.315536
v -0.223551 0.399968 -3.315536
v -0.188865 0.479863 -3.206164
v -0.188865 0.479863 -3.206164
v -0.187541 0.578654 -3.533390
v -0.187541 0.578654 -3.533390
v -0.129500 0.680251 -3.484072
v -0.129500 0.680251 -3.484072
v -0.068877 0.801154 -3.804224
v -0.068877 0.801154 -3.804224
v 0.014386 0.868249 -3.762998
v 0.014386 0.868249 -3.762998
v 0.192746 0.967484 -4.015092
v 0.192746 0.967484 -4.015092
v 0.278714 0.995812 -3.965712
v 0.278714 0.995812 -3.965712
v -0.291221 -0.238523 -3.115861
v -0.291221 -0.238523 -3.115861
v -0.360994 0.079745 -3.157921
v -0.360994 0.079745 -3.157921
v -0.353833 0.358850 -3.295982
v -0.353833 0.358850 -3.295982
v -0.310853 0.601117 -3.519266
v -0.310853 0.601117 -3.519266
v -0.156465 0.873631 -3.827652
v -0.156465 0.873631 -3.827652
v 0.150140 1.057799 -4.049687
v 0.150140 1.057799 -4.049687
v -0.395732 -0.238519 -2.983844
v -0.395732 -0.238519 -2.983844
v -0.415885 0.045257 -3.020381
v -0.415885 0.045257 -3.020381
v -0.399412 0.413916 -3.174339
v -0.399412 0.413916 -3.174339
v -0.328420 0.717045 -3.461166
v -0.328420 0.717045 -3.461166
v -0.127460 0.985682 -3.800875
v -0.127460 0.985682 -3.800875
v 0.209777 1.142335 -4.021303
v 0.209777 1.142335 -4.021303
v -0.302549 -0.238468 -2.843725
v -0.302549 -0.238468 -2.843725
v -0.307134 0.077867 -2.919010
v -0.307134 0.077867 -2.919010
v -0.297182 0.488385 -3.119125
v -0.297182 0.488385 -3.119125
v -0.216431 0.766308 -3.439271
v -0.216431 0.766308 -3.439271
v -0.022085 0.982225 -3.760757
v -0.022085 0.982225 -3.760757
v 0.289164 1.103979 -3.969593
v 0.289164 1.103979 -3.969593
v 0.112727 1.015992 -3.708193
v 0.112727 1.015992 -3.708193
v 0.112727 1.015992 -3.708193
v 0.151109 1.000880 -3.707346
v 0.151109 1.000880 -3.707346
v 0.151109 1.000880 -3.707346
v 0.133643 1.013673 -3.697300
v 0.137094 1.024144 -3.675972
v 0.137094 1.024144 -3.675972
v 0.137094 1.024144 -3.675972
v -0.932184 1.865192 -3.728412
v -0.932184 1.865192 -3.728412
v -0.932184 1.865192 -3.728412
v -0.989642 1.879921 -3.682768
v -0.989642 1.879921 -3.682768
v -0.989642 1.879921 -3.682768
v -0.973291 1.877592 -3.722670
v -0.997655 1.887659 -3.756832
v -0.997655 1.887659 -3.756832
v -0.997655 1.887659 -3.756832
v 0.204638 2.426469 -3.450122
v 0.204638 2.426469 -3.450122
v 0.204638 2.426469 -3.450122
v 0.244974 2.408640 -3.458580
v 0.244974 2.408640 -3.458580
v 0.244974 2.408640 -3.458580
v 0.229050 2.421433 -3.442714
v 0.237537 2.429582 -3.419441
v 0.237537 2.429582 -3.419441
v 0.237537 2.429582 -3.419441
v -0.328656 2.005029 -3.033817
v -0.328656 2.005029 -3.033817
v -0.328656 2.005029 -3.033817
v -0.317672 1.980204 -3.105127
v -0.317672 1.980204 -3.105127
v -0.317672 1.980204 -3.105127
v -0.302238 1.988356 -3.064394
v -0.260386 1.979450 -3.055013
v -0.260386 1.979450 -3.055013
v -0.260386 1.979450 -3.055013
v 0.413324 2.081758 -3.923443
v 0.413324 2.081758 -3.923443
v 0.413324 2.081758 -3.923443
v 0.374211 2.103457 -3.948714
v 0.374211 2.103457 -3.948714
v 0.374211 2.103457 -3.948714
v 0.399384 2.093387 -3.933549
v 0.397457 2.116643 -3.942087
v 0.397457 2.116643 -3.942087
v 0.397457 2.116643 -3.942087
v -1.851277 1.511183 -3.060405
v -1.851277 1.511183 -3.060405
v -1.851277 1.511183 -3.060405
v -1.880445 1.489477 -3.003850
v -1.880445 1.489477 -3.003850
v -1.880445 1.489477 -3.003850
v -1.882320 1.496838 -3.041847
v -1.915236 1.490234 -3.061676
v -1.915236 1.490234 -3.061676
v -1.915236 1.490234 -3.061676
v -1.836890 1.897194 -1.792723
v -1.836890 1.897194 -1.792723
v -1.836890 1.897194 -1.792723
v -1.785290 1.915036 -1.817837
v -1.785290 1.915036 -1.817837
v -1.785290 1.915036 -1.817837
v -1.807050 1.915039 -1.790736
v -1.799349 1.932490 -1.762038
v -1.799349 1.932490 -1.762038
v -1.799349 1.932490 -1.762038
v -0.937700 1.406037 -2.508660
v -0.937700 1.406037 -2.508660
v -0.937700 1.406037 -2.508660
v -0.862905 1.395589 -2.492632
v -0.862905 1.395589 -2.492632
v -0.862905 1.395589 -2.492632
v -0.903637 1.409153 -2.480301
v -0.909914 1.425439 -2.439222
v -0.909914 1.425439 -2.439222
v -0.909914 1.425439 -2.439222
v 0.028841 0.911660 -3.833153
v 0.028841 0.911660 -3.833153
v -0.022796 0.916311 -3.787886
v -0.022796 0.916311 -3.787886
v 0.116790 1.014804 -3.814412
v 0.116790 1.014804 -3.814412
v 0.081802 1.031482 -3.761361
v 0.081802 1.031482 -3.761361
v 0.188432 1.086164 -3.778635
v 0.188432 1.086164 -3.778635
v 0.146096 1.093141 -3.733350
v 0.146096 1.093141 -3.733350
v 0.242981 1.115654 -3.716901
v 0.242981 1.115654 -3.716901
v 0.192528 1.117976 -3.685976
v 0.192528 1.117976 -3.685976
v 0.278517 1.108309 -3.641628
v 0.278517 1.108309 -3.641628
v 0.224216 1.113728 -3.627379
v 0.224216 1.113728 -3.627379
v 0.283453 1.068779 -3.578807
v 0.283453 1.068779 -3.578807
v 0.233053 1.085439 -3.578895
v 0.233053 1.085439 -3.578895
v 0.256276 1.008688 -3.547436
v 0.256276 1.008688 -3.547436
v 0.216734 1.040080 -3.551780
v 0.216734 1.040080 -3.551780
v 0.208241 0.957499 -3.562629
v 0.208241 0.957499 -3.562629
v 0.181868 0.997813 -3.560359
v 0.181868 0.997813 -3.560359
v 0.166064 0.936935 -3.606898
v 0.166064 0.936935 -3.606898
v 0.148977 0.976866 -3.592977
v 0.148977 0.976866 -3.592977
v 0.135929 0.945057 -3.666266
v 0.135929 0.945057 -3.666266
v 0.135929 0.945057 -3.666266
v 0.135929 0.945057 -3.666266
v 0.123084 0.976852 -3.639159
v 0.123084 0.976852 -3.639159
v 0.123084 0.976852 -3.639159
v 0.093664 0.953579 -3.661301
v 0.093664 0.953579 -3.661301
v 0.093664 0.953579 -3.661301
v 0.124550 0.938867 -3.587198
v 0.124550 0.938867 -3.587198
v 0.173294 0.961377 -3.529740
v 0.173294 0.961377 -3.529740
v 0.231001 1.023809 -3.506004
v 0.231001 1.023809 -3.506004
v 0.266322 1.100962 -3.540074
v 0.266322 1.100962 -3.540074
v 0.261013 1.154447 -3.614916
v 0.261013 1.154447 -3.614916
v 0.218523 1.167987 -3.704162
v 0.218523 1.167987 -3.704162
v 0.151205 1.136165 -3.778322
v 0.151205 1.136165 -3.778322
v 0.068331 1.058606 -3.819543
v 0.068331 1.058606 -3.819543
v -0.001400 0.985702 -3.840200
v -0.001400 0.985702 -3.840200
v -0.976375 1.852092 -3.283807
v -0.976375 1.852092 -3.283807
v -1.029390 1.702814 -3.321474
v -1.029390 1.702814 -3.321474
v -0.945888 2.002489 -3.445452
v -0.945888 2.002489 -3.445452
v -0.979825 1.935003 -3.537768
v -0.979825 1.935003 -3.537768
v -0.919631 2.147837 -3.623771
v -0.919631 2.147837 -3.623771
v -0.955579 2.053227 -3.673826
v -0.955579 2.053227 -3.673826
v -0.913852 2.211763 -3.833512
v -0.913852 2.211763 -3.833512
v -0.943317 2.109025 -3.821525
v -0.943317 2.109025 -3.821525
v -0.946487 2.172954 -4.011512
v -0.946487 2.172954 -4.011512
v -0.960543 2.096202 -3.945614
v -0.960543 2.096202 -3.945614
v -1.001340 2.040332 -4.109278
v -1.001340 2.040332 -4.109278
v -0.994135 2.019807 -4.014666
v -0.994135 2.019807 -4.014666
v -1.047835 1.881373 -4.104286
v -1.047835 1.881373 -4.104286
v -1.023556 1.924428 -4.026714
v -1.023556 1.924428 -4.026714
v -1.066221 1.764698 -3.995355
v -1.066221 1.764698 -3.995355
v -1.038759 1.843411 -3.968570
v -1.038759 1.843411 -3.968570
v -1.054439 1.734490 -3.856146
v -1.054439 1.734490 -3.856146
v -1.034640 1.811248 -3.881329
v -1.034640 1.811248 -3.881329
v -1.019408 1.782598 -3.719630
v -1.019408 1.782598 -3.719630
v -1.016971 1.822516 -3.787865
v -1.016971 1.822516 -3.787865
v -0.953040 1.782605 -3.762936
v -0.953040 1.782605 -3.762936
v -0.976481 1.751948 -3.878500
v -0.976481 1.751948 -3.878500
v -0.980556 1.782162 -3.992106
v -0.980556 1.782162 -3.992106
v -0.959881 1.879845 -4.076220
v -0.959881 1.879845 -4.076220
v -0.918045 2.005853 -4.073069
v -0.918045 2.005853 -4.073069
v -0.869751 2.109005 -3.990431
v -0.869751 2.109005 -3.990431
v -0.840169 2.133466 -3.839959
v -0.840169 2.133466 -3.839959
v -0.844730 2.072250 -3.662008
v -0.844730 2.072250 -3.662008
v -0.865134 1.938910 -3.505388
v -0.865134 1.938910 -3.505388
v -0.906889 1.728816 -3.321657
v -0.906889 1.728816 -3.321657
v 0.293007 2.288815 -3.644949
v 0.293007 2.288815 -3.644949
v 0.263081 2.213225 -3.591483
v 0.263081 2.213225 -3.591483
v 0.297553 2.408234 -3.598442
v 0.297553 2.408234 -3.598442
v 0.274571 2.390799 -3.533346
v 0.274571 2.390799 -3.533346
v 0.298575 2.534632 -3.532172
v 0.298575 2.534632 -3.532172
v 0.276017 2.492379 -3.484519
v 0.276017 2.492379 -3.484519
v 0.283663 2.605211 -3.436842
v 0.283663 2.605211 -3.436842
v 0.266980 2.545119 -3.420963
v 0.266980 2.545119 -3.420963
v 0.254019 2.616081 -3.332997
v 0.254019 2.616081 -3.332997
v 0.248248 2.558696 -3.352380
v 0.248248 2.558696 -3.352380
v 0.219384 2.569954 -3.250857
v 0.219384 2.569954 -3.250857
v 0.227225 2.537385 -3.298522
v 0.227225 2.537385 -3.298522
v 0.191434 2.480013 -3.219873
v 0.191434 2.480013 -3.219873
v 0.208194 2.487370 -3.271795
v 0.208194 2.487370 -3.271795
v 0.182984 2.391222 -3.255148
v 0.182984 2.391222 -3.255148
v 0.200089 2.429214 -3.286529
v 0.200089 2.429214 -3.286529
v 0.193584 2.343915 -3.325293
v 0.193584 2.343915 -3.325293
v 0.204046 2.392374 -3.327611
v 0.204046 2.392374 -3.327611
v 0.217768 2.340801 -3.410927
v 0.217768 2.340801 -3.410927
v 0.217768 2.340801 -3.410927
v 0.216547 2.378026 -3.381860
v 0.216547 2.378026 -3.381860
v 0.216547 2.378026 -3.381860
v 0.178603 2.367155 -3.407899
v 0.178603 2.367155 -3.407899
v 0.178603 2.367155 -3.407899
v 0.178603 2.367155 -3.407899
v 0.158322 2.376081 -3.338541
v 0.158322 2.376081 -3.338541
v 0.148915 2.418737 -3.283514
v 0.148915 2.418737 -3.283514
v 0.154673 2.492790 -3.259097
v 0.154673 2.492790 -3.259097
v 0.176028 2.563348 -3.288537
v 0.176028 2.563348 -3.288537
v 0.201340 2.597456 -3.357507
v 0.201340 2.597456 -3.357507
v 0.223205 2.585424 -3.444698
v 0.223205 2.585424 -3.444698
v 0.231887 2.524542 -3.524920
v 0.231887 2.524542 -3.524920
v 0.228135 2.410936 -3.583445
v 0.228135 2.410936 -3.583445
v 0.213905 2.254297 -3.630348
v 0.213905 2.254297 -3.630348
v -0.656307 1.961069 -3.434858
v -0.656307 1.961069 -3.434858
v -0.676928 1.809495 -3.372448
v -0.676928 1.809495 -3.372448
v -0.529655 2.070434 -3.379608
v -0.529655 2.070434 -3.379608
v -0.484039 1.993699 -3.298099
v -0.484039 1.993699 -3.298099
v -0.364699 2.184853 -3.285135
v -0.364699 2.184853 -3.285135
v -0.359741 2.086006 -3.226565
v -0.359741 2.086006 -3.226565
v -0.195133 2.251987 -3.158857
v -0.195133 2.251987 -3.158857
v -0.238172 2.153121 -3.141466
v -0.238172 2.153121 -3.141466
v -0.056588 2.218703 -3.015165
v -0.056588 2.218703 -3.015165
v -0.130571 2.151225 -3.042418
v -0.130571 2.151225 -3.042418
v -0.007914 2.089638 -2.900684
v -0.007914 2.089638 -2.900684
v -0.084564 2.081080 -2.962070
v -0.084564 2.081080 -2.962070
v -0.051772 1.938437 -2.853432
v -0.051772 1.938437 -2.853432
v -0.094314 1.989980 -2.918649
v -0.094314 1.989980 -2.918649
v -0.163328 1.844589 -2.896251
v -0.163328 1.844589 -2.896251
v -0.157076 1.924444 -2.934640
v -0.157076 1.924444 -2.934640
v -0.263594 1.834859 -2.975513
v -0.263594 1.834859 -2.975513
v -0.219413 1.906589 -2.976614
v -0.219413 1.906589 -2.976614
v -0.330130 1.895308 -3.065586
v -0.330130 1.895308 -3.065586
v -0.330130 1.895308 -3.065586
v -0.266624 1.926340 -3.027487
v -0.266624 1.926340 -3.027487
v -0.266624 1.926340 -3.027487
v -0.340334 1.937187 -2.997768
v -0.340334 1.937187 -2.997768
v -0.340334 1.937187 -2.997768
v -0.340334 1.937187 -2.997768
v -0.285404 1.898448 -2.925164
v -0.285404 1.898448 -2.925164
v -0.206820 1.913983 -2.861839
v -0.206820 1.913983 -2.861839
v -0.121994 1.995419 -2.829529
v -0.121994 1.995419 -2.829529
v -0.097522 2.117924 -2.871769
v -0.097522 2.117924 -2.871769
v -0.147776 2.219084 -2.966087
v -0.147776 2.219084 -2.966087
v -0.273568 2.238804 -3.084165
v -0.273568 2.238804 -3.084165
v -0.422241 2.173618 -3.186373
v -0.422241 2.173618 -3.186373
v -0.570172 2.071999 -3.265697
v -0.570172 2.071999 -3.265697
v -0.734806 1.909513 -3.319842
v -0.734806 1.909513 -3.319842
v 0.435708 2.453219 -3.686991
v 0.435708 2.453219 -3.686991
v 0.421776 2.374512 -3.691263
v 0.421776 2.374512 -3.691263
v 0.484696 2.445068 -3.767544
v 0.484696 2.445068 -3.767544
v 0.490164 2.388076 -3.782643
v 0.490164 2.388076 -3.782643
v 0.525170 2.422188 -3.853533
v 0.525170 2.422188 -3.853533
v 0.520916 2.367909 -3.854306
v 0.520916 2.367909 -3.854306
v 0.560237 2.383405 -3.951161
v 0.560237 2.383405 -3.951161
v 0.550537 2.335333 -3.939927
v 0.550537 2.335333 -3.939927
v 0.574361 2.322133 -4.039905
v 0.574361 2.322133 -4.039905
v 0.562307 2.285305 -4.015108
v 0.562307 2.285305 -4.015108
v 0.562872 2.243025 -4.112019
v 0.562872 2.243025 -4.112019
v 0.553896 2.222872 -4.075587
v 0.553896 2.222872 -4.075587
v 0.521446 2.164703 -4.133788
v 0.521446 2.164703 -4.133788
v 0.521379 2.161609 -4.094630
v 0.521379 2.161609 -4.094630
v 0.465212 2.102279 -4.113323
v 0.465212 2.102279 -4.113323
v 0.476395 2.111979 -4.079967
v 0.476395 2.111979 -4.079967
v 0.416284 2.073590 -4.064167
v 0.416284 2.073590 -4.064167
v 0.436792 2.088718 -4.042423
v 0.436792 2.088718 -4.042423
v 0.386314 2.085616 -3.995989
v 0.386314 2.085616 -3.995989
v 0.412271 2.099189 -3.988194
v 0.412271 2.099189 -3.988194
v 0.430472 2.060820 -3.971481
v 0.430472 2.060820 -3.971481
v 0.461594 2.046853 -4.033844
v 0.461594 2.046853 -4.033844
v 0.511288 2.071671 -4.077957
v 0.511288 2.071671 -4.077957
v 0.567906 2.128279 -4.094930
v 0.567906 2.128279 -4.094930
v 0.610882 2.198850 -4.071222
v 0.610882 2.198850 -4.071222
v 0.625476 2.270590 -3.999875
v 0.625476 2.270590 -3.999875
v 0.616393 2.325269 -3.912282
v 0.616393 2.325269 -3.912282
v 0.587530 2.358626 -3.814643
v 0.587530 2.358626 -3.814643
v 0.554813 2.376858 -3.729413
v 0.554813 2.376858 -3.729413
v 0.506204 2.374926 -3.642655
v 0.506204 2.374926 -3.642655
v -1.719295 1.455842 -2.706981
v -1.719295 1.455842 -2.706981
v -1.688944 1.322089 -2.755749
v -1.688944 1.322089 -2.755749
v -1.825758 1.580636 -2.806829
v -1.825758 1.580636 -2.806829
v -1.843824 1.514709 -2.888646
v -1.843824 1.514709 -2.888646
v -1.948065 1.700769 -2.934227
v -1.948065 1.700769 -2.934227
v -1.939041 1.614305 -2.986143
v -1.939041 1.614305 -2.986143
v -2.046671 1.728628 -3.081338
v -2.046671 1.728628 -3.081338
v -2.008655 1.640631 -3.085518
v -2.008655 1.640631 -3.085518
v -2.103786 1.674313 -3.223708
v -2.103786 1.674313 -3.223708
v -2.050737 1.612690 -3.181732
v -2.050737 1.612690 -3.181732
v -2.107084 1.559923 -3.320999
v -2.107084 1.559923 -3.320999
v -2.059524 1.549479 -3.248805
v -2.059524 1.549479 -3.248805
v -2.052750 1.422693 -3.338322
v -2.052750 1.422693 -3.338322
v -2.033104 1.466518 -3.271228
v -2.033104 1.466518 -3.271228
v -1.967568 1.330839 -3.267984
v -1.967568 1.330839 -3.267984
v -1.981206 1.401405 -3.236230
v -1.981206 1.401405 -3.236230
v -1.896806 1.316144 -3.162019
v -1.896806 1.316144 -3.162019
v -1.932467 1.380880 -3.172173
v -1.932467 1.380880 -3.172173
v -1.852818 1.369291 -3.048359
v -1.852818 1.369291 -3.048359
v -1.852818 1.369291 -3.048359
v -1.894995 1.398738 -3.096902
v -1.894995 1.398738 -3.096902
v -1.894995 1.398738 -3.096902
v -1.824821 1.406503 -3.101431
v -1.824821 1.406503 -3.101431
v -1.824821 1.406503 -3.101431
v -1.824821 1.406503 -3.101431
v -1.863026 1.372358 -3.197639
v -1.863026 1.372358 -3.197639
v -1.919866 1.390937 -3.284194
v -1.919866 1.390937 -3.284194
v -1.985693 1.470776 -3.338604
v -1.985693 1.470776 -3.338604
v -2.022965 1.582429 -3.320469
v -2.022965 1.582429 -3.320469
v -2.013817 1.672778 -3.240222
v -2.013817 1.672778 -3.240222
v -1.960919 1.715458 -3.122668
v -1.960919 1.715458 -3.122668
v -1.873127 1.689914 -3.001551
v -1.873127 1.689914 -3.001551
v -1.760872 1.581407 -2.891231
v -1.760872 1.581407 -2.891231
v -1.623399 1.409325 -2.782789
v -1.623399 1.409325 -2.782789
v -1.671868 1.812251 -2.156456
v -1.671868 1.812251 -2.156456
v -1.616529 1.716130 -2.089268
v -1.616529 1.716130 -2.089268
v -1.741001 1.915763 -2.095731
v -1.741001 1.915763 -2.095731
v -1.727581 1.883994 -2.007308
v -1.727581 1.883994 -2.007308
v -1.826097 2.031294 -1.996656
v -1.826097 2.031294 -1.996656
v -1.795569 1.973939 -1.934172
v -1.795569 1.973939 -1.934172
v -1.898064 2.119704 -1.864596
v -1.898064 2.119704 -1.864596
v -1.855822 2.047217 -1.847838
v -1.855822 2.047217 -1.847838
v -1.924312 2.141436 -1.709185
v -1.924312 2.141436 -1.709185
v -1.884314 2.077858 -1.740893
v -1.884314 2.077858 -1.740893
v -1.895827 2.079052 -1.586612
v -1.895827 2.079052 -1.586612
v -1.873993 2.049579 -1.654802
v -1.873993 2.049579 -1.654802
v -1.837348 1.974012 -1.538805
v -1.837348 1.974012 -1.538805
v -1.843043 1.991439 -1.610151
v -1.843043 1.991439 -1.610151
v -1.780642 1.882128 -1.589862
v -1.780642 1.882128 -1.589862
v -1.807719 1.931742 -1.630624
v -1.807719 1.931742 -1.630624
v -1.753343 1.844123 -1.678974
v -1.753343 1.844123 -1.678974
v -1.787469 1.901108 -1.678656
v -1.787469 1.901108 -1.678656
v -1.756662 1.859225 -1.778229
v -1.756662 1.859225 -1.778229
v -1.756662 1.859225 -1.778229
v -1.782331 1.897607 -1.735250
v -1.782331 1.897607 -1.735250
v -1.782331 1.897607 -1.735250
v -1.816394 1.850296 -1.759724
v -1.816394 1.850296 -1.759724
v -1.816394 1.850296 -1.759724
v -1.816394 1.850296 -1.759724
v -1.819629 1.842948 -1.682190
v -1.819629 1.842948 -1.682190
v -1.845726 1.875908 -1.613622
v -1.845726 1.875908 -1.613622
v -1.894650 1.949954 -1.578055
v -1.894650 1.949954 -1.578055
v -1.942270 2.029799 -1.624290
v -1.942270 2.029799 -1.624290
v -1.964583 2.073584 -1.729011
v -1.964583 2.073584 -1.729011
v -1.940312 2.045255 -1.860390
v -1.940312 2.045255 -1.860390
v -1.877691 1.962671 -1.969593
v -1.877691 1.962671 -1.969593
v -1.805023 1.857604 -2.055897
v -1.805023 1.857604 -2.055897
v -1.711455 1.709126 -2.119673
v -1.711455 1.709126 -2.119673
v -0.991461 1.203210 -2.778543
v -0.991461 1.203210 -2.778543
v -1.102053 1.181101 -2.716314
v -1.102053 1.181101 -2.716314
v -0.890851 1.424999 -2.700100
v -0.890851 1.424999 -2.700100
v -0.979773 1.430044 -2.616517
v -0.979773 1.430044 -2.616517
v -0.810420 1.578175 -2.600357
v -0.810420 1.578175 -2.600357
v -0.905126 1.564985 -2.534225
v -0.905126 1.564985 -2.534225
v -0.750198 1.644896 -2.463026
v -0.750198 1.644896 -2.463026
v -0.851823 1.621623 -2.427144
v -0.851823 1.621623 -2.427144
v -0.711690 1.633307 -2.312534
v -0.711690 1.633307 -2.312534
v -0.815202 1.617001 -2.308059
v -0.815202 1.617001 -2.308059
v -0.707604 1.552305 -2.199691
v -0.707604 1.552305 -2.199691
v -0.804877 1.560810 -2.218471
v -0.804877 1.560810 -2.218471
v -0.739827 1.426693 -2.158239
v -0.739827 1.426693 -2.158239
v -0.822761 1.466994 -2.179327
v -0.822761 1.466994 -2.179327
v -0.795153 1.315797 -2.209489
v -0.795153 1.315797 -2.209489
v -0.861065 1.376649 -2.212328
v -0.861065 1.376649 -2.212328
v -0.844204 1.267692 -2.308812
v -0.844204 1.267692 -2.308812
v -0.897753 1.330492 -2.287207
v -0.897753 1.330492 -2.287207
v -0.878889 1.280842 -2.428282
v -0.878889 1.280842 -2.428282
v -0.878889 1.280842 -2.428282
v -0.878889 1.280842 -2.428282
v -0.926274 1.327366 -2.381851
v -0.926274 1.327366 -2.381851
v -0.926274 1.327366 -2.381851
v -0.959511 1.276945 -2.435789
v -0.959511 1.276945 -2.435789
v -0.959511 1.276945 -2.435789
v -0.925256 1.249847 -2.289177
v -0.925256 1.249847 -2.289177
v -0.870825 1.301830 -2.163483
v -0.870825 1.301830 -2.163483
v -0.806234 1.435616 -2.091674
v -0.806234 1.435616 -2.091674
v -0.767429 1.596113 -2.133123
v -0.767429 1.596113 -2.133123
v -0.773810 1.704249 -2.266911
v -0.773810 1.704249 -2.266911
v -0.822739 1.726303 -2.445722
v -0.822739 1.726303 -2.445722
v -0.899196 1.652591 -2.610220
v -0.899196 1.652591 -2.610220
v -0.995102 1.483516 -2.725109
v -0.995102 1.483516 -2.725109
v -1.077128 1.324921 -2.797714
v -1.077128 1.324921 -2.797714
vn -0.0723 -0.6380 0.7667
vn 0.3603 -0.6924 0.6250
vn 0.1172 -0.7130 0.6913
vn 0.5518 -0.2499 0.7956
vn 0.8169 -0.3622 0.4488
vn 0.6729 -0.3189 0.6675
vn 0.4271 0.7932 0.4341
vn 0.6336 0.7539 0.1740
vn 0.3207 0.7599 0.5654
vn 0.3896 0.0824 -0.9173
vn 0.5240 -0.0119 -0.8516
vn 0.3915 0.0220 -0.9199
vn 0.2054 -0.8717 -0.4449
vn 0.3776 -0.8200 -0.4300
vn 0.2686 -0.8446 -0.4631
vn 0.1731 0.5671 0.8052
vn 0.5027 0.5292 0.6836
vn 0.0953 0.5001 0.8607
vn 0.3740 0.9092 -0.1830
vn 0.5494 0.8120 -0.1971
vn 0.3411 0.9193 -0.1961
vn 0.4735 -0.8348 -0.2809
vn 0.4773 -0.8160 -0.3263
vn 0.4762 -0.8166 -0.3263
vn 0.0848 -0.6967 0.7123
vn 0.5738 -0.5394 0.6163
vn 0.1252 -0.7081 0.6950
vn 0.5478 0.5544 0.6265
vn 0.2295 0.7955 -0.5609
vn 0.1663 0.9459 -0.2785
vn 0.3666 0.6746 -0.6407
vn 0.4487 0.2983 -0.8424
vn -0.3108 0.7595 -0.5715
vn -0.1609 0.6389 -0.7523
vn -0.0320 0.5573 -0.8297
vn -0.2602 -0.2775 -0.9248
vn -0.2270 -0.2936 -0.9286
vn -0.1356 -0.2687 -0.9536
vn 0.1746 -0.9513 -0.2542
vn 0.2629 -0.8561 -0.4449
vn 0.2062 -0.9113 -0.3564
vn -0.4462 0.0254 -0.8946
vn -0.3375 -0.4715 -0.8147
vn -0.8052 0.0263 -0.5924
vn -0.5951 -0.4312 -0.6782
vn 0.4135 -0.4628 -0.7841
vn 0.2517 -0.2130 -0.9441
vn 0.5634 -0.6816 -0.4669
vn 0.4694 -0.5703 -0.6741
vn 0.2518 -0.2130 -0.9441
vn 0.4769 -0.5967 -0.6454
vn -0.0401 0.4847 -0.8738
vn -0.1463 0.5367 -0.8310
vn 0.1145 0.4507 -0.8853
vn 0.7148 0.6312 -0.3012
vn 0.5002 0.6325 -0.5914
vn 0.2344 0.2196 -0.9470
vn 0.7037 0.4234 -0.5706
vn -0.1224 -0.4293 -0.8948
vn 0.5515 -0.2264 -0.8028
vn 0.1772 -0.5754 -0.7984
vn -0.3437 0.0645 0.9369
vn -0.4465 0.1295 0.8854
vn -0.3343 0.1480 0.9308
vn -0.2159 0.1012 0.9712
vn -0.0599 0.4483 0.8919
vn 0.0979 0.3736 0.9224
vn 0.4447 0.5462 0.7099
vn 0.5382 0.4385 0.7198
vn 0.7310 0.0517 0.6804
vn 0.7557 -0.0453 0.6533
vn 0.4539 -0.5686 0.6860
vn 0.3561 -0.6642 0.6573
vn -0.0252 -0.8057 0.5918
vn -0.1468 -0.8561 0.4955
vn 0.6137 -0.7858 0.0764
vn 0.6371 -0.7467 -0.1910
vn 0.5173 -0.6490 -0.5578
vn 0.4769 -0.5966 -0.6455
vn 0.2685 -0.8446 -0.4631
vn -0.5302 -0.0471 -0.8466
vn -0.9064 -0.3426 -0.2473
vn -0.9181 -0.3955 -0.0271
vn -0.7929 -0.4087 -0.4519
vn -0.9372 -0.0806 0.3393
vn -0.9425 -0.3048 -0.1373
vn -0.7297 0.4893 0.4776
vn -0.9791 0.1655 0.1182
vn -0.1550 0.7560 0.6360
vn -0.6631 0.7232 0.1929
vn 0.0711 0.7779 0.6244
vn 0.3923 0.5328 0.7498
vn 0.1626 0.1522 0.9749
vn 0.1302 0.0462 0.9904
vn 0.2470 -0.2799 0.9277
vn 0.3985 -0.4012 0.8247
vn 0.3339 -0.7575 0.5609
vn 0.1632 -0.8557 0.4911
vn 0.1171 -0.7130 0.6914
vn -0.0724 -0.6379 0.7667
vn 0.5001 0.6325 -0.5915
vn 0.2345 0.2197 -0.9470
vn -0.1223 -0.4293 -0.8948
vn -0.1730 0.1783 0.9686
vn 0.1730 0.5672 0.8052
vn 0.0953 0.5000 0.8607
vn -0.1774 0.1912 0.9654
vn -0.5322 0.5352 0.6560
vn -0.5495 0.5286 0.6470
vn -0.1337 0.9524 0.2740
vn -0.2476 0.9418 0.2275
vn 0.1545 0.9274 -0.3407
vn 0.1685 0.8468 -0.5046
vn -0.5205 0.5387 -0.6625
vn -0.4463 0.0254 -0.8945
vn -0.2418 0.4344 -0.8677
vn -0.2780 0.5279 -0.8025
vn -0.4482 0.7613 -0.4685
vn -0.4082 0.7888 -0.4595
vn -0.6266 0.7667 -0.1400
vn -0.6667 0.7428 -0.0610
vn 0.1665 0.9793 -0.1150
vn 0.1544 0.9839 -0.0897
vn 0.3739 0.9092 -0.1830
vn 0.3411 0.9194 -0.1961
vn 0.3914 0.0220 -0.9200
vn 0.5050 0.5139 0.6934
vn 0.4401 0.5290 0.7255
vn 0.5179 0.6202 0.5892
vn 0.6833 0.5202 0.5123
vn 0.8419 0.5046 0.1912
vn 0.8931 0.4363 0.1097
vn 0.9955 -0.0761 -0.0568
vn 0.9771 -0.1701 -0.1279
vn 0.6976 -0.6973 -0.1650
vn 0.5973 -0.7732 -0.2129
vn 0.0457 -0.9238 -0.3802
vn -0.0689 -0.8979 -0.4348
vn -0.3153 -0.7741 -0.5490
vn -0.3774 -0.7046 -0.6009
vn 0.9788 0.1667 -0.1189
vn 0.9702 0.2414 -0.0225
vn 0.9256 0.1548 -0.3453
vn 0.8979 0.1258 -0.4217
vn 0.6743 0.2819 -0.6825
vn 0.6782 0.2072 -0.7051
vn 0.2219 0.3731 -0.9009
vn 0.2487 0.2865 -0.9252
vn -0.2606 0.3352 -0.9054
vn -0.2277 0.2500 -0.9411
vn -0.6245 0.2989 -0.7215
vn -0.6140 0.1955 -0.7647
vn -0.8828 0.3986 -0.2487
vn -0.9143 0.2377 -0.3278
vn -0.7561 0.5056 0.4156
vn -0.8890 0.3195 0.3279
vn -0.6407 0.3203 0.6978
vn -0.6624 0.2269 0.7140
vn 0.1663 0.9459 -0.2786
vn 0.2295 0.7955 -0.5608
vn 0.3956 0.7286 -0.5592
vn 0.1136 0.9019 -0.4167
vn 0.6341 0.7054 -0.3167
vn 0.2465 0.8554 -0.4556
vn 0.6449 0.7473 0.1599
vn 0.3755 0.8707 -0.3178
vn 0.4433 0.7724 0.4548
vn 0.3605 0.9321 -0.0337
vn 0.3835 0.7002 0.6022
vn 0.4374 0.8810 0.1803
vn 0.2097 0.5873 0.7817
vn 0.5661 0.7171 0.4066
vn 0.0308 0.3781 0.9252
vn 0.5226 0.3873 0.7596
vn -0.2417 0.2076 0.9479
vn 0.3200 0.2497 0.9139
vn 0.1878 0.0204 -0.9820
vn 0.2840 0.1119 -0.9523
vn 0.0727 -0.2249 -0.9717
vn -0.0008 -0.2579 -0.9662
vn -0.1892 -0.4808 -0.8562
vn -0.2186 -0.5361 -0.8154
vn -0.3425 -0.6061 -0.7179
vn -0.3532 -0.6448 -0.6779
vn -0.5037 -0.7003 -0.5058
vn -0.5395 -0.7111 -0.4509
vn -0.7227 -0.6767 -0.1407
vn -0.7408 -0.6690 -0.0613
vn -0.7331 -0.6138 0.2929
vn -0.7083 -0.6100 0.3553
vn -0.5202 -0.6033 0.6045
vn -0.4401 -0.6242 0.6455
vn 0.1252 -0.7080 0.6950
vn -0.8577 -0.0821 -0.5076
vn -0.8215 -0.0445 -0.5685
vn -0.9157 -0.3262 -0.2349
vn -0.9365 -0.2854 -0.2040
vn -0.8614 -0.4949 0.1141
vn -0.8357 -0.5060 0.2137
vn -0.5690 -0.6914 0.4452
vn -0.4745 -0.7019 0.5312
vn -0.1563 -0.7451 0.6484
vn -0.0875 -0.7299 0.6779
vn 0.1138 -0.6671 0.7362
vn 0.1827 -0.6364 0.7494
vn 0.4387 -0.6227 0.6478
vn 0.5130 -0.6678 0.5393
vn 0.6090 -0.7736 0.1750
vn 0.5534 -0.8327 0.0212
vn 0.4760 -0.8167 -0.3263
vn -0.7437 0.0818 0.6634
vn -0.5415 0.0937 0.8355
vn -0.3153 0.2246 0.9220
vn -0.0163 0.2469 0.9689
vn 0.3559 0.3162 0.8794
vn 0.7326 0.3456 0.5864
vn 0.9444 0.3002 0.1342
vn 0.8705 0.2364 -0.4318
vn 0.4488 0.2983 -0.8424
vn 0.9815 0.1900 -0.0218
vn 0.9720 0.2314 0.0420
vn 0.9807 -0.0370 -0.1922
vn 0.9758 -0.0077 -0.2185
vn 0.9652 -0.2148 -0.1493
vn 0.9605 -0.2254 -0.1630
vn 0.8928 -0.4432 -0.0804
vn 0.8639 -0.4975 -0.0789
vn 0.6753 -0.7359 -0.0498
vn 0.6069 -0.7948 -0.0070
vn 0.3708 -0.9276 -0.0454
vn 0.3079 -0.9505 -0.0408
vn 0.1746 -0.9513 -0.2541
vn 0.2061 -0.9113 -0.3563
vn 0.2993 -0.0873 -0.9502
vn 0.3491 -0.0472 -0.9359
vn 0.2400 -0.2739 -0.9313
vn 0.1968 -0.3401 -0.9196
vn 0.1046 -0.5824 -0.8061
vn 0.0429 -0.6448 -0.7632
vn -0.1614 -0.7109 -0.6845
vn -0.2182 -0.7045 -0.6753
vn -0.2810 -0.6031 -0.7466
vn -0.3079 -0.5971 -0.7407
vn -0.2723 -0.4642 -0.8429
vn -0.3020 -0.4480 -0.8415
vn -0.2271 -0.2936 -0.9285
vn -0.8128 -0.1695 -0.5573
vn -0.7769 -0.1344 -0.6151
vn -0.8748 -0.1855 -0.4475
vn -0.9049 -0.1698 -0.3903
vn -0.9415 -0.1045 -0.3205
vn -0.9489 -0.0950 -0.3011
vn -0.9287 0.0333 -0.3694
vn -0.9505 0.0312 -0.3093
vn -0.7546 0.3120 -0.5772
vn -0.8628 0.3333 -0.3802
vn -0.4729 0.5420 -0.6947
vn -0.5978 0.6144 -0.5150
vn -0.1610 0.6389 -0.7522
vn -0.3108 0.7595 -0.5714
vn -0.7934 0.0991 0.6005
vn -0.8268 0.1189 0.5498
vn -0.7237 0.1992 0.6608
vn -0.6930 0.1863 0.6964
vn -0.6744 0.5205 0.5238
vn -0.6389 0.4669 0.6115
vn -0.4553 0.7899 0.4107
vn -0.4090 0.7464 0.5250
vn -0.1555 0.8896 0.4294
vn -0.1454 0.8544 0.4989
vn 0.0519 0.8511 0.5224
vn 0.0432 0.8186 0.5728
vn 0.3206 0.7599 0.5655
vn 0.5518 -0.2499 0.7957
vn 0.6728 -0.3188 0.6676
vn 0.4875 -0.0374 0.8723
vn 0.5174 -0.0008 0.8558
vn 0.6500 0.1749 0.7396
vn 0.6702 0.2166 0.7099
vn 0.7108 0.3935 0.5830
vn 0.6892 0.4220 0.5890
vn 0.6015 0.4266 0.6755
vn 0.5313 0.5490 0.6452
vn 0.4229 0.2980 0.8558
vn 0.3196 0.4134 0.8526
vn 0.3000 0.2757 0.9132
vn 0.2588 0.2918 0.9208
vn 0.3358 0.8210 -0.4617
vn 0.3317 0.8226 -0.4618
vn 0.3340 0.8224 -0.4606
vn 0.3343 0.8235 -0.4584
vn 0.2979 0.9523 0.0665
vn 0.2967 0.9526 0.0674
vn 0.2976 0.9523 0.0673
vn 0.2981 0.9521 0.0680
vn 0.2942 0.8664 -0.4034
vn 0.3010 0.8635 -0.4048
vn 0.2969 0.8643 -0.4060
vn 0.2955 0.8629 -0.4099
vn 0.2583 0.9238 -0.2827
vn 0.2581 0.9243 -0.2811
vn 0.2587 0.9239 -0.2818
vn 0.2597 0.9237 -0.2816
vn -0.4106 0.2802 0.8677
vn -0.4026 0.2758 0.8728
vn -0.4107 0.2682 0.8714
vn -0.4053 0.2853 0.8685
vn -0.3088 0.9308 0.1956
vn -0.3105 0.9295 0.1990
vn -0.3086 0.9304 0.1979
vn -0.3067 0.9308 0.1991
vn -0.4589 0.8084 -0.3686
vn -0.4588 0.8085 -0.3685
vn -0.4589 0.8085 -0.3685
vn 0.2036 0.9188 -0.3382
vn 0.1984 0.9195 -0.3393
vn 0.2007 0.9197 -0.3373
vn 0.2003 0.9209 -0.3345
vn 0.5276 -0.5808 0.6200
vn 0.5175 -0.5590 0.6478
vn 0.4991 -0.6654 0.5550
vn 0.5012 -0.6731 0.5438
vn 0.3171 -0.8478 0.4251
vn 0.3200 -0.8412 0.4358
vn 0.0399 -0.9908 0.1296
vn 0.0415 -0.9869 0.1560
vn -0.1623 -0.9434 -0.2893
vn -0.1734 -0.9544 -0.2428
vn -0.1978 -0.6474 -0.7360
vn -0.2448 -0.6870 -0.6842
vn 0.0132 -0.1495 -0.9887
vn -0.0647 -0.1934 -0.9790
vn 0.3812 0.2816 -0.8806
vn 0.3031 0.2708 -0.9137
vn 0.6954 0.4678 -0.5456
vn 0.6176 0.5033 -0.6044
vn 0.7528 0.5443 -0.3703
vn 0.6912 0.6098 -0.3877
vn 0.9199 0.0353 0.3905
vn 0.9195 0.0379 0.3913
vn 0.9203 0.0331 0.3899
vn 0.9207 0.0301 0.3890
vn -0.7333 0.5378 0.4160
vn -0.7324 0.5376 0.4178
vn -0.7348 0.5375 0.4137
vn -0.7357 0.5373 0.4124
vn -0.7359 0.5362 0.4134
vn -0.7378 0.5334 0.4137
vn -0.7407 0.5275 0.4160
vn -0.7423 0.5249 0.4166
vn -0.7413 0.5252 0.4178
vn -0.7411 0.5244 0.4193
vn -0.7403 0.5220 0.4236
vn -0.7377 0.5219 0.4282
vn -0.7329 0.5264 0.4310
vn -0.7297 0.5285 0.4339
vn -0.7280 0.5336 0.4305
vn -0.7267 0.5349 0.4311
vn -0.7238 0.5376 0.4325
vn -0.7228 0.5403 0.4309
vn -0.7144 0.5546 0.4267
vn -0.7143 0.5547 0.4266
vn -0.7134 0.5512 0.4328
vn -0.7141 0.5483 0.4352
vn 0.2213 0.0308 -0.9747
vn 0.2672 0.0174 -0.9635
vn 0.2326 0.1168 -0.9655
vn 0.2156 0.1281 -0.9681
vn 0.4299 0.3226 -0.8433
vn 0.4261 0.3243 -0.8446
vn 0.7168 0.4607 -0.5233
vn 0.7038 0.4658 -0.5363
vn 0.9144 0.3939 -0.0937
vn 0.9019 0.4169 -0.1133
vn 0.9358 0.0687 0.3459
vn 0.9360 0.1157 0.3325
vn 0.6979 -0.4335 0.5701
vn 0.7172 -0.3784 0.5853
vn 0.3182 -0.8470 0.4258
vn 0.3375 -0.8154 0.4702
vn -0.0046 -0.9980 0.0627
vn -0.0026 -0.9911 0.1327
vn -0.1663 -0.9829 -0.0794
vn -0.2011 -0.9790 -0.0318
vn -0.2030 -0.5466 -0.8124
vn -0.2056 -0.5469 -0.8115
vn -0.2000 -0.5462 -0.8134
vn -0.1969 -0.5458 -0.8144
vn -0.9442 0.3096 0.1123
vn -0.9451 0.3082 0.1085
vn -0.9429 0.3122 0.1165
vn -0.9431 0.3119 0.1151
vn -0.9448 0.3155 0.0884
vn -0.9478 0.3087 0.0801
vn -0.9532 0.2911 0.0822
vn -0.9581 0.2795 0.0626
vn -0.9508 0.2841 0.1239
vn -0.9533 0.2775 0.1194
vn -0.9485 0.2867 0.1348
vn -0.9480 0.2876 0.1361
vn -0.9497 0.2802 0.1400
vn -0.9499 0.2776 0.1437
vn -0.9488 0.2822 0.1421
vn -0.9480 0.2834 0.1447
vn -0.9465 0.2892 0.1432
vn -0.9445 0.2931 0.1481
vn -0.9553 0.2683 0.1239
vn -0.9517 0.2770 0.1326
vn -0.9635 0.2392 0.1199
vn -0.9658 0.2254 0.1280
vn 0.4688 0.2483 -0.8477
vn 0.4552 0.2431 -0.8565
vn 0.5645 0.5156 -0.6446
vn 0.6086 0.5469 -0.5749
vn 0.6922 0.7185 -0.0678
vn 0.7263 0.6874 0.0033
vn 0.7258 0.5579 0.4024
vn 0.7384 0.5039 0.4482
vn 0.6399 0.1016 0.7617
vn 0.6426 0.0247 0.7658
vn 0.4686 -0.4651 0.7510
vn 0.4728 -0.5096 0.7188
vn 0.3045 -0.8680 0.3924
vn 0.3104 -0.8858 0.3449
vn 0.1999 -0.9746 -0.1010
vn 0.2087 -0.9665 -0.1497
vn 0.1923 -0.8585 -0.4754
vn 0.1988 -0.8473 -0.4925
vn 0.2124 -0.7121 -0.6692
vn 0.2029 -0.7172 -0.6667
vn 0.1622 -0.6860 -0.7093
vn 0.1456 -0.6908 -0.7082
vn 0.7871 0.3268 0.5232
vn 0.8032 0.2936 0.5183
vn 0.7464 0.4260 0.5113
vn 0.7320 0.4459 0.5152
vn 0.7476 0.5535 0.3671
vn 0.7427 0.5592 0.3685
vn 0.7329 0.6803 -0.0026
vn 0.7215 0.6920 -0.0225
vn 0.6302 0.5673 -0.5302
vn 0.6130 0.5593 -0.5581
vn 0.4524 0.1565 -0.8780
vn 0.4295 0.1302 -0.8936
vn 0.2858 -0.3860 -0.8771
vn 0.2591 -0.4286 -0.8655
vn 0.1989 -0.8306 -0.5201
vn 0.1820 -0.8580 -0.4803
vn 0.2193 -0.9748 -0.0396
vn 0.2037 -0.9789 0.0183
vn 0.3628 -0.7760 0.5160
vn 0.3799 -0.7175 0.5838
vn 0.4897 -0.4369 0.7546
vn 0.4887 -0.4357 0.7558
vn 0.9410 -0.1556 0.3006
vn 0.9392 -0.1551 0.3064
vn 0.9430 -0.1578 0.2930
vn 0.9431 -0.1582 0.2926
vn 0.9413 -0.1714 0.2909
vn 0.9403 -0.1713 0.2941
vn 0.9401 -0.1846 0.2865
vn 0.9393 -0.1861 0.2883
vn 0.9381 -0.1905 0.2893
vn 0.9369 -0.1932 0.2913
vn 0.9382 -0.1933 0.2871
vn 0.9378 -0.1969 0.2859
vn 0.9397 -0.1999 0.2776
vn 0.9395 -0.2062 0.2736
vn 0.9411 -0.1978 0.2743
vn 0.9419 -0.1980 0.2713
vn 0.9430 -0.1921 0.2716
vn 0.9450 -0.1899 0.2662
vn 0.9440 -0.1845 0.2734
vn 0.9461 -0.1792 0.2697
vn 0.9434 -0.1832 0.2765
vn 0.9435 -0.1823 0.2768
vn -0.5591 0.6279 0.5413
vn -0.5611 0.6292 0.5378
vn -0.5575 0.6270 0.5441
vn -0.5553 0.6256 0.5480
vn -0.1968 0.9551 -0.2216
vn -0.1604 0.9719 -0.1720
vn -0.1793 0.8857 -0.4282
vn -0.2009 0.8419 -0.5009
vn -0.1466 0.5667 -0.8108
vn -0.1725 0.5064 -0.8448
vn -0.2134 0.0098 -0.9769
vn -0.2575 -0.0559 -0.9647
vn -0.3938 -0.5313 -0.7501
vn -0.4387 -0.5598 -0.7030
vn -0.5793 -0.7607 -0.2928
vn -0.6057 -0.7530 -0.2573
vn -0.7084 -0.6872 0.1610
vn -0.7194 -0.6721 0.1756
vn -0.7576 -0.4339 0.4876
vn -0.7610 -0.4256 0.4896
vn -0.7563 -0.1998 0.6229
vn -0.7506 -0.2086 0.6270
vn -0.7107 -0.1694 0.6828
vn -0.6986 -0.1814 0.6922
vn -0.2691 0.3154 -0.9100
vn -0.2977 0.2986 -0.9068
vn -0.1972 0.4010 -0.8946
vn -0.1768 0.4072 -0.8960
vn -0.1784 0.6278 -0.7577
vn -0.1762 0.6290 -0.7572
vn -0.2336 0.8765 -0.4209
vn -0.2309 0.8855 -0.4033
vn -0.3537 0.9347 0.0336
vn -0.3506 0.9343 0.0644
vn -0.5330 0.6990 0.4767
vn -0.5338 0.6713 0.5142
vn -0.7008 0.1663 0.6937
vn -0.6992 0.1152 0.7055
vn -0.7603 -0.3819 0.5254
vn -0.7493 -0.4279 0.5055
vn -0.7040 -0.6968 0.1374
vn -0.6760 -0.7306 0.0967
vn -0.5897 -0.7990 -0.1178
vn -0.5605 -0.8181 -0.1285
vn -0.3586 -0.4333 -0.8269
vn -0.3556 -0.4334 -0.8281
vn -0.3616 -0.4332 -0.8256
vn -0.3643 -0.4331 -0.8245
vn 0.6200 -0.3689 -0.6925
vn 0.6206 -0.3693 -0.6917
vn 0.6272 -0.3608 -0.6902
vn 0.6311 -0.3609 -0.6867
vn 0.6454 -0.3617 -0.6728
vn 0.6510 -0.3675 -0.6642
vn 0.6323 -0.3871 -0.6711
vn 0.6455 -0.3971 -0.6523
vn 0.6113 -0.3899 -0.6887
vn 0.6122 -0.3973 -0.6836
vn 0.6025 -0.3922 -0.6951
vn 0.5995 -0.3977 -0.6946
vn 0.5979 -0.3926 -0.6989
vn 0.5934 -0.3946 -0.7015
vn 0.5940 -0.3875 -0.7050
vn 0.5891 -0.3855 -0.7102
vn 0.5982 -0.3814 -0.7048
vn 0.5947 -0.3760 -0.7106
vn 0.6059 -0.3947 -0.6907
vn 0.6033 -0.3897 -0.6958
vn 0.6017 -0.4141 -0.6830
vn 0.5930 -0.4243 -0.6843
vn 0.3967 0.3809 0.8352
vn 0.4002 0.3754 0.8360
vn 0.3972 0.3800 0.8353
vn 0.3933 0.3862 0.8344
vn 0.1851 0.9390 0.2899
vn 0.2554 0.9199 0.2976
vn 0.0237 0.9903 0.1369
vn -0.0701 0.9922 0.1033
vn -0.4017 0.9002 -0.1682
vn -0.4760 0.8616 -0.1764
vn -0.8334 0.4598 -0.3065
vn -0.8910 0.3707 -0.2621
vn -0.9807 -0.1633 -0.1078
vn -0.9739 -0.2260 -0.0200
vn -0.7806 -0.5555 0.2866
vn -0.7327 -0.5693 0.3729
vn -0.4243 -0.6349 0.6457
vn -0.3832 -0.6067 0.6965
vn -0.1950 -0.5327 0.8236
vn -0.1870 -0.5182 0.8345
vn -0.0439 -0.4212 0.9059
vn -0.0424 -0.4383 0.8978
vn 0.0597 -0.4126 0.9089
vn 0.0676 -0.4335 0.8986
vn -0.6472 0.7455 -0.1593
vn -0.6735 0.7270 -0.1338
vn -0.5534 0.8121 -0.1848
vn -0.5387 0.8177 -0.2031
vn -0.4182 0.8973 -0.1413
vn -0.4076 0.9013 -0.1467
vn -0.1682 0.9857 0.0140
vn -0.1214 0.9922 0.0270
vn 0.1882 0.9079 0.3746
vn 0.2424 0.8788 0.4111
vn 0.3906 0.5105 0.7661
vn 0.4163 0.4467 0.7919
vn 0.2402 -0.0781 0.9676
vn 0.2202 -0.1512 0.9637
vn -0.1944 -0.5198 0.8319
vn -0.2253 -0.5536 0.8017
vn -0.6146 -0.5997 0.5125
vn -0.6470 -0.6091 0.4588
vn -0.7991 -0.5434 0.2571
vn -0.8027 -0.5538 0.2212
vn -0.9812 0.0657 -0.1815
vn -0.9796 0.0680 -0.1894
vn -0.9814 0.0655 -0.1806
vn -0.9828 0.0634 -0.1735
vn -0.8239 0.1413 -0.5489
vn -0.8331 0.1759 -0.5244
vn -0.8496 0.0846 -0.5206
vn -0.8674 0.0581 -0.4942
vn -0.9155 0.0669 -0.3968
vn -0.9201 0.0814 -0.3832
vn -0.9431 0.1129 -0.3128
vn -0.9468 0.1230 -0.2975
vn -0.9644 0.1889 -0.1853
vn -0.9646 0.1964 -0.1757
vn -0.9369 0.3473 -0.0398
vn -0.9354 0.3519 -0.0359
vn -0.8214 0.5687 0.0437
vn -0.8159 0.5765 0.0437
vn -0.6508 0.7593 -0.0020
vn -0.6444 0.7646 -0.0068
vn -0.4597 0.8713 -0.1718
vn -0.4435 0.8743 -0.1974
vn -0.3389 0.8683 -0.3623
vn -0.3452 0.8612 -0.3730
vn -0.3423 0.8401 -0.4208
vn -0.3506 0.8330 -0.4280
vn 0.8799 0.4622 0.1105
vn 0.8802 0.4609 0.1133
vn 0.8473 0.4900 0.2050
vn 0.8485 0.4929 0.1927
vn 0.6573 0.4991 0.5646
vn 0.6735 0.5104 0.5348
vn 0.3024 0.3050 0.9031
vn 0.3071 0.3128 0.8988
vn -0.0183 -0.0371 0.9991
vn -0.0163 -0.0269 0.9995
vn -0.2513 -0.4467 0.8587
vn -0.2512 -0.4414 0.8614
vn -0.3162 -0.7406 0.5929
vn -0.3197 -0.7334 0.5999
vn -0.2832 -0.8888 0.3603
vn -0.2985 -0.8767 0.3772
vn -0.2361 -0.9544 0.1827
vn -0.2647 -0.9434 0.2001
vn -0.1669 -0.9859 0.0109
vn -0.1673 -0.9852 0.0381
vn -0.0047 -0.9957 -0.0930
vn 0.0627 -0.9930 -0.1005
vn 0.5891 0.7451 0.3127
vn 0.5907 0.7284 0.3472
vn 0.6324 0.7461 0.2082
vn 0.6279 0.7519 0.2012
vn 0.6965 0.7163 0.0427
vn 0.6973 0.7148 0.0542
vn 0.7576 0.6358 -0.1478
vn 0.7578 0.6377 -0.1382
vn 0.7862 0.4708 -0.4004
vn 0.7873 0.4736 -0.3948
vn 0.7137 0.1430 -0.6857
vn 0.7155 0.1463 -0.6831
vn 0.4523 -0.3134 -0.8350
vn 0.4562 -0.3098 -0.8342
vn 0.0935 -0.6883 -0.7193
vn 0.0980 -0.6864 -0.7205
vn -0.3068 -0.8927 -0.3301
vn -0.2978 -0.8934 -0.3363
vn -0.5148 -0.8556 0.0541
vn -0.5132 -0.8565 0.0542
vn -0.5534 -0.8169 0.1626
vn -0.5576 -0.8137 0.1643
vn -0.8233 -0.3469 0.4492
vn -0.8254 -0.3491 0.4437
vn -0.8199 -0.3453 0.4565
vn -0.8198 -0.3457 0.4565
vn -0.8128 -0.3579 0.4596
vn -0.8141 -0.3596 0.4560
vn -0.8045 -0.3688 0.4656
vn -0.8043 -0.3707 0.4644
vn -0.8031 -0.3734 0.4643
vn -0.8019 -0.3772 0.4634
vn -0.7984 -0.3771 0.4694
vn -0.7954 -0.3821 0.4704
vn -0.7953 -0.3753 0.4762
vn -0.7920 -0.3776 0.4797
vn -0.7950 -0.3708 0.4801
vn -0.7935 -0.3695 0.4836
vn -0.7969 -0.3650 0.4813
vn -0.7962 -0.3613 0.4854
vn -0.8006 -0.3604 0.4787
vn -0.8015 -0.3561 0.4804
vn -0.8012 -0.3610 0.4773
vn -0.0951 0.3413 -0.9351
vn -0.0937 0.3427 -0.9348
vn -0.0963 0.3402 -0.9354
vn -0.0979 0.3386 -0.9358
vn -0.0663 0.9599 -0.2724
vn -0.1237 0.9496 -0.2879
vn 0.0552 0.9938 -0.0960
vn 0.1260 0.9909 -0.0473
vn 0.3550 0.8889 0.2894
vn 0.4150 0.8534 0.3154
vn 0.6929 0.4805 0.5376
vn 0.7410 0.4215 0.5228
vn 0.8949 -0.0893 0.4372
vn 0.9136 -0.1320 0.3847
vn 0.8691 -0.4900 0.0681
vn 0.8669 -0.4981 0.0215
vn 0.6936 -0.6279 -0.3530
vn 0.6879 -0.6201 -0.3772
vn 0.4637 -0.5513 -0.6936
vn 0.4619 -0.5445 -0.7001
vn 0.3036 -0.4117 -0.8593
vn 0.2996 -0.4228 -0.8553
vn 0.2240 -0.4165 -0.8811
vn 0.2140 -0.4323 -0.8760
vn 0.5906 0.7226 0.3592
vn 0.6158 0.7088 0.3441
vn 0.4987 0.7852 0.3671
vn 0.4821 0.7897 0.3795
vn 0.3279 0.9200 0.2146
vn 0.3242 0.9210 0.2160
vn 0.0913 0.9871 -0.1313
vn 0.0771 0.9866 -0.1435
vn -0.0804 0.8353 -0.5439
vn -0.0979 0.8203 -0.5635
vn -0.1008 0.4329 -0.8958
vn -0.1103 0.3920 -0.9133
vn 0.0978 -0.1224 -0.9876
vn 0.1077 -0.1721 -0.9792
vn 0.4274 -0.5250 -0.7360
vn 0.4455 -0.5561 -0.7017
vn 0.7079 -0.6225 -0.3337
vn 0.7214 -0.6347 -0.2769
vn 0.7972 -0.6017 -0.0498
vn 0.7874 -0.6162 -0.0166
vn 0.8778 0.0310 0.4780
vn 0.8747 0.0316 0.4836
vn 0.8809 0.0305 0.4723
vn 0.8836 0.0301 0.4673
vn 0.8461 0.5295 0.0612
vn 0.8461 0.5295 0.0606
vn 0.8397 0.5391 0.0661
vn 0.8382 0.5407 0.0712
vn 0.8328 0.5463 0.0893
vn 0.8331 0.5439 0.1004
vn 0.8481 0.5220 0.0912
vn 0.8471 0.5185 0.1167
vn 0.8582 0.5088 0.0678
vn 0.8612 0.5024 0.0763
vn 0.8609 0.5054 0.0585
vn 0.8631 0.5016 0.0590
vn 0.8626 0.5030 0.0546
vn 0.8637 0.5013 0.0514
vn 0.8618 0.5052 0.0462
vn 0.8628 0.5041 0.0378
vn 0.8579 0.5117 0.0461
vn 0.8569 0.5139 0.0397
vn 0.8612 0.5043 0.0628
vn 0.8601 0.5070 0.0567
vn 0.8690 0.4895 0.0722
vn 0.8743 0.4803 0.0700
vn -0.7159 0.1675 0.6778
vn -0.7134 0.1671 0.6806
vn -0.7155 0.1675 0.6782
vn -0.7184 0.1680 0.6751
vn -0.8424 0.5375 -0.0385
vn -0.8164 0.5771 0.0206
vn -0.8218 0.5067 -0.2606
vn -0.8234 0.4496 -0.3461
vn -0.6610 0.2606 -0.7037
vn -0.6434 0.1862 -0.7425
vn -0.3400 -0.2459 -0.9077
vn -0.3126 -0.3543 -0.8813
vn -0.0272 -0.7708 -0.6366
vn -0.0341 -0.8339 -0.5509
vn 0.0629 -0.9935 -0.0953
vn 0.0308 -0.9995 -0.0023
vn -0.0183 -0.9146 0.4040
vn -0.0607 -0.8895 0.4529
vn -0.1553 -0.7588 0.6325
vn -0.1714 -0.7494 0.6395
vn -0.2559 -0.6196 0.7420
vn -0.2385 -0.6243 0.7439
vn -0.2430 -0.5401 0.8057
vn -0.2199 -0.5416 0.8113
vn -0.6041 -0.0068 -0.7969
vn -0.6121 -0.0466 -0.7894
vn -0.6169 0.1093 -0.7794
vn -0.6065 0.1300 -0.7844
vn -0.6781 0.2356 -0.6962
vn -0.6755 0.2472 -0.6947
vn -0.7858 0.4064 -0.4663
vn -0.7886 0.4406 -0.4290
vn -0.8721 0.4880 0.0353
vn -0.8609 0.4976 0.1064
vn -0.7733 0.2640 0.5765
vn -0.7372 0.2385 0.6322
vn -0.4916 -0.2477 0.8349
vn -0.4402 -0.2990 0.8467
vn -0.1711 -0.7552 0.6328
vn -0.1339 -0.7841 0.6061
vn -0.0039 -0.9839 0.1786
vn 0.0286 -0.9914 0.1277
vn 0.0714 -0.9888 -0.1313
vn 0.0996 -0.9832 -0.1529
vn -0.1530 -0.6178 -0.7713
vn -0.1492 -0.6118 -0.7768
vn -0.1535 -0.6185 -0.7707
vn -0.1569 -0.6238 -0.7656
vn 0.5217 -0.4978 0.6928
vn 0.5009 -0.4816 0.7191
vn 0.5293 -0.5810 0.6183
vn 0.5352 -0.5865 0.6079
vn 0.4254 -0.7861 0.4484
vn 0.4239 -0.7808 0.4589
vn 0.2570 -0.9622 0.0904
vn 0.2531 -0.9604 0.1164
vn 0.1371 -0.9218 -0.3626
vn 0.1193 -0.9400 -0.3196
vn 0.1151 -0.6022 -0.7900
vn 0.0697 -0.6565 -0.7511
vn 0.2437 -0.0471 -0.9687
vn 0.1786 -0.1094 -0.9778
vn 0.4646 0.4459 -0.7651
vn 0.4003 0.4189 -0.8150
vn 0.6573 0.6626 -0.3590
vn 0.5875 0.6850 -0.4308
vn 0.6551 0.7358 -0.1714
vn 0.5792 0.7901 -0.2006
vn 0.7854 0.2138 0.5809
vn 0.7836 0.2172 0.5820
vn 0.7868 0.2110 0.5800
vn 0.7889 0.2069 0.5787
vn -0.9099 0.3103 0.2754
vn -0.9094 0.3101 0.2772
vn -0.9107 0.3108 0.2722
vn -0.9117 0.3099 0.2698
vn -0.9133 0.3065 0.2682
vn -0.9147 0.3029 0.2676
vn -0.9157 0.2979 0.2697
vn -0.9166 0.2941 0.2707
vn -0.9158 0.2921 0.2755
vn -0.9158 0.2905 0.2774
vn -0.9145 0.2923 0.2796
vn -0.9136 0.2926 0.2823
vn -0.9116 0.2955 0.2858
vn -0.9100 0.2975 0.2886
vn -0.9088 0.3021 0.2876
vn -0.9077 0.3047 0.2886
vn -0.9054 0.3107 0.2892
vn -0.9045 0.3138 0.2887
vn -0.8999 0.3263 0.2894
vn -0.9000 0.3260 0.2893
vn -0.8987 0.3252 0.2942
vn -0.8990 0.3231 0.2956
vn 0.3970 0.1768 -0.9006
vn 0.4432 0.1734 -0.8795
vn 0.3816 0.2611 -0.8867
vn 0.3628 0.2684 -0.8924
vn 0.4953 0.4934 -0.7150
vn 0.4908 0.4933 -0.7182
vn 0.6678 0.6639 -0.3367
vn 0.6572 0.6670 -0.3509
vn 0.7883 0.6026 0.1240
vn 0.7749 0.6235 0.1036
vn 0.8017 0.2524 0.5419
vn 0.7931 0.2988 0.5308
vn 0.6592 -0.3112 0.6845
vn 0.6605 -0.2563 0.7057
vn 0.4281 -0.7849 0.4480
vn 0.4293 -0.7536 0.4977
vn 0.2297 -0.9731 0.0162
vn 0.2166 -0.9727 0.0831
vn 0.1010 -0.9814 -0.1632
vn 0.0596 -0.9902 -0.1263
vn 0.1073 -0.5010 -0.8588
vn 0.1042 -0.5022 -0.8585
vn 0.1110 -0.4995 -0.8592
vn 0.1146 -0.4980 -0.8596
vt 1.000000 0.500000
vt 0.445300 0.500000
vt 0.617200 0.000000
vt 0.000000 0.191400
vt 0.000000 0.808600
vt 0.617200 1.000000
vt 1.214800 -1.222700
vt 1.000000 -0.777300
vt 1.214800 -0.777300
vt 0.214800 -0.332000
vt 0.214800 -1.668000
vt 0.410200 -2.109400
vt 1.000000 -1.668000
vt 1.214800 -2.109400
vt 0.214800 -2.109400
vt 0.214800 -2.554700
vt 0.410200 -2.554700
vt 1.000000 1.000000
vt 1.214800 1.000000
vt 1.214800 0.554700
vt 1.000000 0.554700
vt 1.214800 0.109400
vt 1.000000 0.109400
vt 1.000000 -0.332000
vt 1.214800 -0.332000
vt 0.589800 1.000000
vt 0.785200 1.000000
vt 0.785200 0.554700
vt 0.589800 0.554700
vt 0.785200 0.109400
vt 0.589800 0.109400
vt 0.785200 -0.332000
vt 0.589800 -0.332000
vt 0.785200 -0.777300
vt 0.589800 -0.777300
vt 1.000000 -1.222700
vt 0.785200 -1.222700
vt 0.785200 -1.668000
vt 1.000000 -2.109400
vt 1.000000 -2.554700
vt 1.214800 -2.554700
vt 1.000000 -3.000000
vt 1.214800 -3.000000
vt 0.410200 1.000000
vt 0.410200 0.554700
vt 0.410200 0.109400
vt 0.410200 -0.332000
vt 0.410200 -0.777300
vt 0.589800 -1.222700
vt 0.589800 -1.668000
vt 0.785200 -2.109400
vt 0.785200 -2.554700
vt 0.785200 -3.000000
vt 0.214800 1.000000
vt 0.214800 0.554700
vt 0.214800 0.109400
vt 0.589800 -3.000000
vt 0.589800 -2.554700
vt 0.589800 -2.109400
vt 0.410200 -1.668000
vt 0.410200 -1.222700
vt 0.214800 -0.777300
vt 0.214800 -1.222700
vt 0.410200 -3.000000
vt 0.214800 -3.000000
vt 1.214800 -1.668000
vt 1.214800 0.500000
vt 1.214800 0.000000
vt 1.000000 0.000000
vt 1.214800 -0.500000
vt 1.000000 -0.500000
vt 1.214800 -1.000000
vt 1.000000 -1.000000
vt 1.214800 -1.500000
vt 1.000000 -1.500000
vt 1.214800 -2.000000
vt 1.000000 -2.000000
vt 1.214800 -2.500000
vt 1.000000 -2.500000
vt 0.785200 -2.500000
vt 0.785200 -2.000000
vt 0.785200 -1.500000
vt 0.785200 -1.000000
vt 0.785200 -0.500000
vt 0.785200 0.000000
vt 0.785200 0.500000
vt 0.410200 0.500000
vt 0.214800 0.500000
vt 0.410200 0.000000
vt 0.214800 0.000000
vt 0.410200 -0.500000
vt 0.214800 -0.500000
vt 0.410200 -1.000000
vt 0.214800 -1.000000
vt 0.410200 -1.500000
vt 0.214800 -1.500000
vt 0.410200 -2.000000
vt 0.214800 -2.000000
vt 0.410200 -2.500000
vt 0.214800 -2.500000
vt 0.589800 0.500000
vt 0.589800 0.000000
vt 0.589800 -0.500000
vt 0.589800 -1.000000
vt 0.589800 -1.500000
vt 0.589800 -2.000000
vt 0.589800 -2.500000
vt 1.000000 0.668000
vt 0.785200 0.668000
vt 1.000000 0.332000
vt 0.785200 0.332000
vt 1.000000 -0.668000
vt 0.785200 -0.668000
vt 1.214800 0.668000
vt 1.214800 0.332000
vt 1.214800 -0.668000
vt 0.410200 0.668000
vt 0.214800 0.668000
vt 0.410200 0.332000
vt 0.214800 0.332000
vt 0.410200 -0.668000
vt 0.214800 -0.668000
vt 0.589800 0.668000
vt 0.589800 0.332000
vt 0.589800 -0.668000
vt 0.000000 1.000000
vt 0.000000 0.000000
vt 0.332000 0.500000
vt 0.363300 1.000000
vt 0.363300 0.898400
vt 0.000000 0.898400
vt 0.363300 0.800800
vt 0.000000 0.800800
vt 0.363300 0.699200
vt 0.000000 0.699200
vt 0.363300 0.601600
vt 0.000000 0.601600
vt 0.363300 0.500000
vt 0.000000 0.500000
vt 0.363300 0.398400
vt 0.000000 0.398400
vt 0.363300 0.300800
vt 0.000000 0.300800
vt 0.363300 0.199200
vt 0.000000 0.199200
vt 0.363300 0.101600
vt 0.000000 0.101600
vt 0.363300 0.000000
vt 0.636700 0.000000
vt 0.636700 0.101600
vt 1.000000 0.101600
vt 0.636700 0.199200
vt 1.000000 0.199200
vt 0.636700 0.300800
vt 1.000000 0.300800
vt 0.636700 0.398400
vt 1.000000 0.398400
vt 0.636700 0.500000
vt 0.636700 0.601600
vt 1.000000 0.601600
vt 0.636700 0.699200
vt 1.000000 0.699200
vt 0.636700 0.800800
vt 1.000000 0.800800
vt 0.636700 0.898400
vt 1.000000 0.898400
vt 0.636700 1.000000
s 1
usemtl 2746ffa3_dds
f 6/1/1 1/2/2 10/3/3
f 19/3/4 14/2/5 23/4/6
f 25/4/7 15/2/8 27/5/9
f 31/5/10 2/2/11 35/6/12
f 37/6/13 3/2/14 8/1/15
f 12/3/16 4/2/17 39/4/18
f 41/4/19 5/2/20 33/5/21
f 47/4/22 43/2/23 51/5/24
f 53/5/25 44/2/26 55/6/27
s 0
f 59/1/28 57/6/28 45/2/28
s 1
f 63/3/29 60/1/30 46/2/31
f 63/3/29 46/2/31 49/4/32
f 65/6/33 29/5/34 16/2/35
f 69/1/36 67/6/37 17/2/38
f 71/1/39 18/2/40 21/3/41
f 75/7/42 73/8/43 78/9/44
f 78/9/44 73/8/43 80/10/45
f 85/11/46 82/12/47 88/13/48
f 88/13/48 82/12/47 91/14/49
f 92/15/49 82/12/50 93/16/51
f 95/16/52 83/12/53 96/17/54
f 101/18/55 99/19/56 103/20/57
f 105/21/58 101/18/55 103/20/57
f 105/21/58 103/20/57 107/22/59
f 109/23/60 105/21/58 107/22/59
f 111/24/61 109/23/60 107/22/59
f 111/24/61 107/22/59 81/25/45
f 73/8/43 111/24/61 81/25/45
f 115/26/62 113/27/63 117/28/64
f 119/29/65 115/26/62 117/28/64
f 119/29/65 117/28/64 121/30/66
f 123/31/67 119/29/65 121/30/66
f 123/31/67 121/30/66 125/32/68
f 127/33/69 123/31/67 125/32/68
f 127/33/69 125/32/68 129/34/70
f 131/35/71 127/33/69 129/34/70
f 131/35/71 129/34/70 133/36/72
f 135/37/73 131/35/71 133/36/72
f 135/37/73 133/36/72 89/13/74
f 137/38/75 135/37/73 89/13/74
f 138/38/76 88/13/48 91/14/49
f 140/39/77 138/38/76 91/14/49
f 142/40/78 140/39/77 91/14/49
f 142/40/78 91/14/49 94/41/79
f 9/42/80 142/40/78 94/41/79
f 9/42/80 94/41/79 38/43/13
f 144/44/81 116/26/82 120/29/83
f 145/45/84 144/44/81 120/29/83
f 145/45/84 120/29/83 124/31/85
f 146/46/86 145/45/84 124/31/85
f 146/46/86 124/31/85 128/33/87
f 147/47/88 146/46/86 128/33/87
f 147/47/88 128/33/87 132/35/89
f 148/48/90 147/47/88 132/35/89
f 149/49/91 148/48/90 132/35/89
f 149/49/91 132/35/89 136/37/92
f 149/49/91 136/37/92 139/38/93
f 151/50/94 149/49/91 139/38/93
f 151/50/94 139/38/93 141/39/95
f 153/51/96 151/50/94 141/39/95
f 153/51/96 141/39/95 143/40/97
f 155/52/98 153/51/96 143/40/97
f 11/53/99 155/52/98 143/40/97
f 11/53/99 143/40/97 7/42/100
f 100/54/101 144/44/81 145/45/84
f 104/55/102 100/54/101 145/45/84
f 104/55/102 145/45/84 146/46/86
f 108/56/103 104/55/102 146/46/86
f 108/56/103 146/46/86 147/47/88
f 80/10/45 108/56/103 147/47/88
f 80/10/45 147/47/88 148/48/90
f 78/9/44 80/10/45 148/48/90
f 156/52/104 13/53/105 40/57/106
f 156/52/104 40/57/106 157/58/107
f 154/51/108 156/52/104 157/58/107
f 154/51/108 157/58/107 160/59/109
f 154/51/108 160/59/109 162/60/110
f 152/50/111 154/51/108 162/60/110
f 152/50/111 162/60/110 164/61/112
f 150/49/113 152/50/111 164/61/112
f 148/48/90 149/49/91 165/61/114
f 79/62/44 148/48/90 165/61/114
f 76/63/115 79/62/44 165/61/114
f 86/11/116 76/63/115 165/61/114
f 86/11/116 165/61/114 163/60/117
f 84/12/118 86/11/116 163/60/117
f 84/12/118 163/60/117 161/59/119
f 84/12/118 161/59/119 158/58/120
f 97/17/121 84/12/118 158/58/120
f 98/17/122 159/58/123 42/57/124
f 98/17/122 42/57/124 34/64/125
f 95/16/52 96/17/54 32/64/10
f 95/16/52 32/64/10 36/65/126
f 114/27/127 102/18/128 106/21/129
f 118/28/130 114/27/127 106/21/129
f 118/28/130 106/21/129 110/23/131
f 122/30/132 118/28/130 110/23/131
f 122/30/132 110/23/131 112/24/133
f 126/32/134 122/30/132 112/24/133
f 126/32/134 112/24/133 74/8/135
f 130/34/136 126/32/134 74/8/135
f 130/34/136 74/8/135 77/7/137
f 134/36/138 130/34/136 77/7/137
f 134/36/138 77/7/137 87/66/139
f 90/13/140 134/36/138 87/66/139
f 168/18/141 166/19/142 170/67/143
f 172/1/144 168/18/141 170/67/143
f 172/1/144 170/67/143 174/68/145
f 176/69/146 172/1/144 174/68/145
f 176/69/146 174/68/145 178/70/147
f 180/71/148 176/69/146 178/70/147
f 180/71/148 178/70/147 182/72/149
f 184/73/150 180/71/148 182/72/149
f 184/73/150 182/72/149 186/74/151
f 188/75/152 184/73/150 186/74/151
f 188/75/152 186/74/151 190/76/153
f 192/77/154 188/75/152 190/76/153
f 192/77/154 190/76/153 194/78/155
f 196/79/156 192/77/154 194/78/155
f 196/79/156 194/78/155 58/43/157
f 62/42/158 196/79/156 58/43/157
f 61/42/159 64/53/160 198/80/161
f 197/79/162 61/42/159 198/80/161
f 197/79/162 198/80/161 199/81/163
f 193/77/164 197/79/162 199/81/163
f 193/77/164 199/81/163 200/82/165
f 189/75/166 193/77/164 200/82/165
f 189/75/166 200/82/165 201/83/167
f 185/73/168 189/75/166 201/83/167
f 185/73/168 201/83/167 202/84/169
f 181/71/170 185/73/168 202/84/169
f 181/71/170 202/84/169 203/85/171
f 177/69/172 181/71/170 203/85/171
f 177/69/172 203/85/171 204/86/173
f 173/1/174 177/69/172 204/86/173
f 173/1/174 204/86/173 205/27/175
f 169/18/176 173/1/174 205/27/175
f 167/54/177 206/44/178 208/87/179
f 171/88/180 167/54/177 208/87/179
f 171/88/180 208/87/179 210/89/181
f 175/90/182 171/88/180 210/89/181
f 175/90/182 210/89/181 212/91/183
f 179/92/184 175/90/182 212/91/183
f 179/92/184 212/91/183 214/93/185
f 183/94/186 179/92/184 214/93/185
f 183/94/186 214/93/185 216/95/187
f 187/96/188 183/94/186 216/95/187
f 187/96/188 216/95/187 218/97/189
f 191/98/190 187/96/188 218/97/189
f 191/98/190 218/97/189 220/99/191
f 195/100/192 191/98/190 220/99/191
f 195/100/192 220/99/191 54/64/25
f 56/65/193 195/100/192 54/64/25
f 207/44/194 222/26/195 224/101/196
f 209/87/197 207/44/194 224/101/196
f 209/87/197 224/101/196 226/102/198
f 211/89/199 209/87/197 226/102/198
f 211/89/199 226/102/198 228/103/200
f 213/91/201 211/89/199 228/103/200
f 213/91/201 228/103/200 230/104/202
f 215/93/203 213/91/201 230/104/202
f 215/93/203 230/104/202 232/105/204
f 217/95/205 215/93/203 232/105/204
f 217/95/205 232/105/204 234/106/206
f 219/97/207 217/95/205 234/106/206
f 219/97/207 234/106/206 236/107/208
f 221/99/209 219/97/207 236/107/208
f 221/99/209 236/107/208 48/57/22
f 52/64/210 221/99/209 48/57/22
f 223/26/211 205/27/175 204/86/173
f 225/101/212 223/26/211 204/86/173
f 225/101/212 204/86/173 203/85/171
f 227/102/213 225/101/212 203/85/171
f 227/102/213 203/85/171 202/84/169
f 229/103/214 227/102/213 202/84/169
f 229/103/214 202/84/169 201/83/167
f 231/104/215 229/103/214 201/83/167
f 231/104/215 201/83/167 200/82/165
f 233/105/216 231/104/215 200/82/165
f 233/105/216 200/82/165 199/81/163
f 235/106/217 233/105/216 199/81/163
f 235/106/217 199/81/163 198/80/161
f 237/107/218 235/106/217 198/80/161
f 237/107/218 198/80/161 64/53/160
f 50/57/219 237/107/218 64/53/160
f 240/27/220 238/18/221 242/108/222
f 244/109/223 240/27/220 242/108/222
f 244/109/223 242/108/222 246/110/224
f 248/111/225 244/109/223 246/110/224
f 248/111/225 246/110/224 250/69/226
f 252/85/227 248/111/225 250/69/226
f 252/85/227 250/69/226 254/24/228
f 256/32/229 252/85/227 254/24/228
f 256/32/229 254/24/228 258/112/230
f 260/113/231 256/32/229 258/112/230
f 260/113/231 258/112/230 72/73/232
f 22/83/233 260/113/231 72/73/232
f 239/18/234 262/19/235 264/114/236
f 243/108/237 239/18/234 264/114/236
f 243/108/237 264/114/236 266/115/238
f 247/110/239 243/108/237 266/115/238
f 247/110/239 266/115/238 268/68/240
f 251/69/241 247/110/239 268/68/240
f 251/69/241 268/68/240 270/25/242
f 255/24/243 251/69/241 270/25/242
f 255/24/243 270/25/242 272/116/244
f 259/112/245 255/24/243 272/116/244
f 259/112/245 272/116/244 68/72/246
f 70/73/36 259/112/245 68/72/246
f 263/54/247 274/44/248 276/117/249
f 265/118/250 263/54/247 276/117/249
f 265/118/250 276/117/249 278/119/251
f 267/120/252 265/118/250 278/119/251
f 267/120/252 278/119/251 280/89/253
f 269/90/254 267/120/252 280/89/253
f 269/90/254 280/89/253 282/47/255
f 271/10/256 269/90/254 282/47/255
f 271/10/256 282/47/255 284/121/257
f 273/122/258 271/10/256 284/121/257
f 273/122/258 284/121/257 30/93/259
f 66/94/260 273/122/258 30/93/259
f 275/44/261 286/26/262 288/123/263
f 277/117/264 275/44/261 288/123/263
f 277/117/264 288/123/263 290/124/265
f 279/119/266 277/117/264 290/124/265
f 279/119/266 290/124/265 292/102/267
f 281/89/268 279/119/266 292/102/267
f 281/89/268 292/102/267 294/33/269
f 283/47/270 281/89/268 294/33/269
f 283/47/270 294/33/269 296/125/271
f 285/121/272 283/47/270 296/125/271
f 285/121/272 296/125/271 26/104/7
f 28/93/273 285/121/272 26/104/7
f 20/83/274 24/104/275 297/125/276
f 261/113/277 20/83/274 297/125/276
f 261/113/277 297/125/276 295/33/278
f 257/32/279 261/113/277 295/33/278
f 257/32/279 295/33/278 293/102/280
f 253/85/281 257/32/279 293/102/280
f 253/85/281 293/102/280 291/124/282
f 249/111/283 253/85/281 291/124/282
f 249/111/283 291/124/282 289/123/284
f 245/109/285 249/111/283 289/123/284
f 245/109/285 289/123/284 287/26/286
f 241/27/287 245/109/285 287/26/286
f 301/126/288 298/127/289 304/128/290
f 305/1/291 301/126/288 304/128/290
f 305/1/291 304/128/290 298/127/289
f 311/126/292 308/127/293 314/128/294
f 315/1/295 311/126/292 314/128/294
f 315/1/295 314/128/294 308/127/293
f 321/126/296 318/127/297 324/128/298
f 325/1/299 321/126/296 324/128/298
f 325/1/299 324/128/298 318/127/297
f 331/126/300 328/127/301 334/128/302
f 335/1/303 331/126/300 334/128/302
f 335/1/303 334/128/302 328/127/301
f 341/126/304 338/127/305 344/128/306
f 345/1/307 341/126/304 344/128/306
f 345/1/307 344/128/306 338/127/305
f 351/126/308 348/127/309 354/128/310
f 355/1/311 351/126/308 354/128/310
f 355/1/311 354/128/310 348/127/309
s 0
f 361/126/312 358/127/312 364/128/312
f 365/1/313 361/126/313 364/128/313
f 365/1/314 364/128/314 358/127/314
s 1
f 371/126/315 368/127/316 374/128/317
f 375/1/318 371/126/315 374/128/317
f 375/1/318 374/128/317 368/127/316
f 380/126/319 378/129/320 382/130/321
f 384/131/322 380/126/319 382/130/321
f 384/131/322 382/130/321 386/132/323
f 388/133/324 384/131/322 386/132/323
f 388/133/324 386/132/323 390/134/325
f 392/135/326 388/133/324 390/134/325
f 392/135/326 390/134/325 394/136/327
f 396/137/328 392/135/326 394/136/327
f 396/137/328 394/136/327 398/138/329
f 400/139/330 396/137/328 398/138/329
f 400/139/330 398/138/329 402/140/331
f 404/141/332 400/139/330 402/140/331
f 404/141/332 402/140/331 406/142/333
f 408/143/334 404/141/332 406/142/333
f 408/143/334 406/142/333 410/144/335
f 412/145/336 408/143/334 410/144/335
f 412/145/336 410/144/335 414/146/337
f 418/147/338 412/145/336 414/146/337
f 419/147/339 415/146/340 302/148/341
f 306/127/342 419/147/339 302/148/341
f 307/69/343 299/149/344 421/150/345
f 420/151/346 307/69/343 421/150/345
f 420/151/346 421/150/345 424/152/347
f 413/153/348 420/151/346 424/152/347
f 413/153/348 424/152/347 426/154/349
f 409/155/350 413/153/348 426/154/349
f 409/155/350 426/154/349 428/156/351
f 405/157/352 409/155/350 428/156/351
f 405/157/352 428/156/351 430/158/353
f 401/1/354 405/157/352 430/158/353
f 401/1/354 430/158/353 432/159/355
f 397/160/356 401/1/354 432/159/355
f 397/160/356 432/159/355 434/161/357
f 393/162/358 397/160/356 434/161/357
f 393/162/358 434/161/357 436/163/359
f 389/164/360 393/162/358 436/163/359
f 389/164/360 436/163/359 438/165/361
f 385/166/362 389/164/360 438/165/361
f 385/166/362 438/165/361 440/167/363
f 381/18/364 385/166/362 440/167/363
f 379/129/365 441/167/366 439/165/367
f 383/130/368 379/129/365 439/165/367
f 383/130/368 439/165/367 437/163/369
f 387/132/370 383/130/368 437/163/369
f 387/132/370 437/163/369 435/161/371
f 391/134/372 387/132/370 435/161/371
f 391/134/372 435/161/371 433/159/373
f 395/136/374 391/134/372 433/159/373
f 395/136/374 433/159/373 431/158/375
f 399/138/376 395/136/374 431/158/375
f 399/138/376 431/158/375 429/156/377
f 403/140/378 399/138/376 429/156/377
f 403/140/378 429/156/377 427/154/379
f 407/142/380 403/140/378 427/154/379
f 407/142/380 427/154/379 425/152/381
f 411/144/382 407/142/380 425/152/381
f 411/144/382 425/152/381 422/150/383
f 416/146/384 411/144/382 422/150/383
f 417/146/385 423/150/386 300/149/387
f 303/148/388 417/146/385 300/149/387
f 444/126/389 442/129/390 446/130/391
f 448/131/392 444/126/389 446/130/391
f 448/131/392 446/130/391 450/132/393
f 452/133/394 448/131/392 450/132/393
f 452/133/394 450/132/393 454/134/395
f 456/135/396 452/133/394 454/134/395
f 456/135/396 454/134/395 458/136/397
f 460/137/398 456/135/396 458/136/397
f 460/137/398 458/136/397 462/138/399
f 464/139/400 460/137/398 462/138/399
f 464/139/400 462/138/399 466/140/401
f 468/141/402 464/139/400 466/140/401
f 468/141/402 466/140/401 470/142/403
f 472/143/404 468/141/402 470/142/403
f 472/143/404 470/142/403 474/144/405
f 476/145/406 472/143/404 474/144/405
f 476/145/406 474/144/405 478/146/407
f 480/147/408 476/145/406 478/146/407
f 480/147/408 478/146/407 312/148/409
f 316/127/410 480/147/408 312/148/409
f 317/69/411 309/149/412 482/150/413
f 481/151/414 317/69/411 482/150/413
f 481/151/414 482/150/413 484/152/415
f 477/153/416 481/151/414 484/152/415
f 477/153/416 484/152/415 486/154/417
f 473/155/418 477/153/416 486/154/417
f 473/155/418 486/154/417 488/156/419
f 469/157/420 473/155/418 488/156/419
f 469/157/420 488/156/419 490/158/421
f 465/1/422 469/157/420 490/158/421
f 465/1/422 490/158/421 492/159/423
f 461/160/424 465/1/422 492/159/423
f 461/160/424 492/159/423 494/161/425
f 457/162/426 461/160/424 494/161/425
f 457/162/426 494/161/425 496/163/427
f 453/164/428 457/162/426 496/163/427
f 453/164/428 496/163/427 498/165/429
f 449/166/430 453/164/428 498/165/429
f 449/166/430 498/165/429 500/167/431
f 445/18/432 449/166/430 500/167/431
f 443/129/433 501/167/434 499/165/435
f 447/130/436 443/129/433 499/165/435
f 447/130/436 499/165/435 497/163/437
f 451/132/438 447/130/436 497/163/437
f 451/132/438 497/163/437 495/161/439
f 455/134/440 451/132/438 495/161/439
f 455/134/440 495/161/439 493/159/441
f 459/136/442 455/134/440 493/159/441
f 459/136/442 493/159/441 491/158/443
f 463/138/444 459/136/442 491/158/443
f 463/138/444 491/158/443 489/156/445
f 467/140/446 463/138/444 489/156/445
f 467/140/446 489/156/445 487/154/447
f 471/142/448 467/140/446 487/154/447
f 471/142/448 487/154/447 485/152/449
f 475/144/450 471/142/448 485/152/449
f 475/144/450 485/152/449 483/150/451
f 479/146/452 475/144/450 483/150/451
f 479/146/452 483/150/451 310/149/453
f 313/148/454 479/146/452 310/149/453
f 504/126/455 502/129/456 506/130/457
f 508/131/458 504/126/455 506/130/457
f 508/131/458 506/130/457 510/132/459
f 512/133/460 508/131/458 510/132/459
f 512/133/460 510/132/459 514/134/461
f 516/135/462 512/133/460 514/134/461
f 516/135/462 514/134/461 518/136/463
f 520/137/464 516/135/462 518/136/463
f 520/137/464 518/136/463 522/138/465
f 524/139/466 520/137/464 522/138/465
f 524/139/466 522/138/465 526/140/467
f 528/141/468 524/139/466 526/140/467
f 528/141/468 526/140/467 530/142/469
f 532/143/470 528/141/468 530/142/469
f 532/143/470 530/142/469 534/144/471
f 536/145/472 532/143/470 534/144/471
f 536/145/472 534/144/471 538/146/473
f 541/147/474 536/145/472 538/146/473
f 541/147/474 538/146/473 322/148/475
f 326/127/476 541/147/474 322/148/475
f 327/69/477 319/149/478 544/150/479
f 542/151/480 327/69/477 544/150/479
f 543/151/481 545/150/482 548/152/483
f 537/153/484 543/151/481 548/152/483
f 537/153/484 548/152/483 550/154/485
f 533/155/486 537/153/484 550/154/485
f 533/155/486 550/154/485 552/156/487
f 529/157/488 533/155/486 552/156/487
f 529/157/488 552/156/487 554/158/489
f 525/1/490 529/157/488 554/158/489
f 525/1/490 554/158/489 556/159/491
f 521/160/492 525/1/490 556/159/491
f 521/160/492 556/159/491 558/161/493
f 517/162/494 521/160/492 558/161/493
f 517/162/494 558/161/493 560/163/495
f 513/164/496 517/162/494 560/163/495
f 513/164/496 560/163/495 562/165/497
f 509/166/498 513/164/496 562/165/497
f 509/166/498 562/165/497 564/167/499
f 505/18/500 509/166/498 564/167/499
f 503/129/501 565/167/502 563/165/503
f 507/130/504 503/129/501 563/165/503
f 507/130/504 563/165/503 561/163/505
f 511/132/506 507/130/504 561/163/505
f 511/132/506 561/163/505 559/161/507
f 515/134/508 511/132/506 559/161/507
f 515/134/508 559/161/507 557/159/509
f 519/136/510 515/134/508 557/159/509
f 519/136/510 557/159/509 555/158/511
f 523/138/512 519/136/510 555/158/511
f 523/138/512 555/158/511 553/156/513
f 527/140/514 523/138/512 553/156/513
f 527/140/514 553/156/513 551/154/515
f 531/142/516 527/140/514 551/154/515
f 531/142/516 551/154/515 549/152/517
f 535/144/518 531/142/516 549/152/517
f 535/144/518 549/152/517 546/150/519
f 539/146/520 535/144/518 546/150/519
f 540/146/521 547/150/522 320/149/523
f 323/148/524 540/146/521 320/149/523
f 568/126/525 566/129/526 570/130/527
f 572/131/528 568/126/525 570/130/527
f 572/131/528 570/130/527 574/132/529
f 576/133/530 572/131/528 574/132/529
f 576/133/530 574/132/529 578/134/531
f 580/135/532 576/133/530 578/134/531
f 580/135/532 578/134/531 582/136/533
f 584/137/534 580/135/532 582/136/533
f 584/137/534 582/136/533 586/138/535
f 588/139/536 584/137/534 586/138/535
f 588/139/536 586/138/535 590/140/537
f 592/141/538 588/139/536 590/140/537
f 592/141/538 590/140/537 594/142/539
f 596/143/540 592/141/538 594/142/539
f 596/143/540 594/142/539 598/144/541
f 600/145/542 596/143/540 598/144/541
f 600/145/542 598/144/541 602/146/543
f 605/147/544 600/145/542 602/146/543
f 605/147/544 602/146/543 332/148/545
f 336/127/546 605/147/544 332/148/545
f 337/69/547 329/149/548 608/150/549
f 606/151/550 337/69/547 608/150/549
f 607/151/551 609/150/552 612/152/553
f 601/153/554 607/151/551 612/152/553
f 601/153/554 612/152/553 614/154/555
f 597/155/556 601/153/554 614/154/555
f 597/155/556 614/154/555 616/156/557
f 593/157/558 597/155/556 616/156/557
f 593/157/558 616/156/557 618/158/559
f 589/1/560 593/157/558 618/158/559
f 589/1/560 618/158/559 620/159/561
f 585/160/562 589/1/560 620/159/561
f 585/160/562 620/159/561 622/161/563
f 581/162/564 585/160/562 622/161/563
f 581/162/564 622/161/563 624/163/565
f 577/164/566 581/162/564 624/163/565
f 577/164/566 624/163/565 626/165/567
f 573/166/568 577/164/566 626/165/567
f 573/166/568 626/165/567 628/167/569
f 569/18/570 573/166/568 628/167/569
f 567/129/571 629/167/572 627/165/573
f 571/130/574 567/129/571 627/165/573
f 571/130/574 627/165/573 625/163/575
f 575/132/576 571/130/574 625/163/575
f 575/132/576 625/163/575 623/161/577
f 579/134/578 575/132/576 623/161/577
f 579/134/578 623/161/577 621/159/579
f 583/136/580 579/134/578 621/159/579
f 583/136/580 621/159/579 619/158/581
f 587/138/582 583/136/580 619/158/581
f 587/138/582 619/158/581 617/156/583
f 591/140/584 587/138/582 617/156/583
f 591/140/584 617/156/583 615/154/585
f 595/142/586 591/140/584 615/154/585
f 595/142/586 615/154/585 613/152/587
f 599/144/588 595/142/586 613/152/587
f 599/144/588 613/152/587 610/150/589
f 603/146/590 599/144/588 610/150/589
f 604/146/591 611/150/592 330/149/593
f 333/148/594 604/146/591 330/149/593
f 632/126/595 630/129/596 634/130/597
f 636/131/598 632/126/595 634/130/597
f 636/131/598 634/130/597 638/132/599
f 640/133/600 636/131/598 638/132/599
f 640/133/600 638/132/599 642/134/601
f 644/135/602 640/133/600 642/134/601
f 644/135/602 642/134/601 646/136/603
f 648/137/604 644/135/602 646/136/603
f 648/137/604 646/136/603 650/138/605
f 652/139/606 648/137/604 650/138/605
f 652/139/606 650/138/605 654/140/607
f 656/141/608 652/139/606 654/140/607
f 656/141/608 654/140/607 658/142/609
f 660/143/610 656/141/608 658/142/609
f 660/143/610 658/142/609 662/144/611
f 664/145/612 660/143/610 662/144/611
f 664/145/612 662/144/611 666/146/613
f 668/147/614 664/145/612 666/146/613
f 668/147/614 666/146/613 342/148/615
f 346/127/616 668/147/614 342/148/615
f 347/69/617 339/149/618 670/150/619
f 669/151/620 347/69/617 670/150/619
f 669/151/620 670/150/619 672/152/621
f 665/153/622 669/151/620 672/152/621
f 665/153/622 672/152/621 674/154/623
f 661/155/624 665/153/622 674/154/623
f 661/155/624 674/154/623 676/156/625
f 657/157/626 661/155/624 676/156/625
f 657/157/626 676/156/625 678/158/627
f 653/1/628 657/157/626 678/158/627
f 653/1/628 678/158/627 680/159/629
f 649/160/630 653/1/628 680/159/629
f 649/160/630 680/159/629 682/161/631
f 645/162/632 649/160/630 682/161/631
f 645/162/632 682/161/631 684/163/633
f 641/164/634 645/162/632 684/163/633
f 641/164/634 684/163/633 686/165/635
f 637/166/636 641/164/634 686/165/635
f 637/166/636 686/165/635 688/167/637
f 633/18/638 637/166/636 688/167/637
f 631/129/639 689/167/640 687/165/641
f 635/130/642 631/129/639 687/165/641
f 635/130/642 687/165/641 685/163/643
f 639/132/644 635/130/642 685/163/643
f 639/132/644 685/163/643 683/161/645
f 643/134/646 639/132/644 683/161/645
f 643/134/646 683/161/645 681/159/647
f 647/136/648 643/134/646 681/159/647
f 647/136/648 681/159/647 679/158/649
f 651/138/650 647/136/648 679/158/649
f 651/138/650 679/158/649 677/156/651
f 655/140/652 651/138/650 677/156/651
f 655/140/652 677/156/651 675/154/653
f 659/142/654 655/140/652 675/154/653
f 659/142/654 675/154/653 673/152/655
f 663/144/656 659/142/654 673/152/655
f 663/144/656 673/152/655 671/150/657
f 667/146/658 663/144/656 671/150/657
f 667/146/658 671/150/657 340/149/659
f 343/148/660 667/146/658 340/149/659
f 692/126/661 690/129/662 694/130/663
f 696/131/664 692/126/661 694/130/663
f 696/131/664 694/130/663 698/132/665
f 700/133/666 696/131/664 698/132/665
f 700/133/666 698/132/665 702/134/667
f 704/135/668 700/133/666 702/134/667
f 704/135/668 702/134/667 706/136/669
f 708/137/670 704/135/668 706/136/669
f 708/137/670 706/136/669 710/138/671
f 712/139/672 708/137/670 710/138/671
f 712/139/672 710/138/671 714/140/673
f 716/141/674 712/139/672 714/140/673
f 716/141/674 714/140/673 718/142/675
f 720/143/676 716/141/674 718/142/675
f 720/143/676 718/142/675 722/144/677
f 724/145/678 720/143/676 722/144/677
f 724/145/678 722/144/677 726/146/679
f 729/147/680 724/145/678 726/146/679
f 729/147/680 726/146/679 352/148/681
f 356/127/681 729/147/680 352/148/681
f 357/69/682 349/149/683 732/150/684
f 730/151/685 357/69/682 732/150/684
f 731/151/686 733/150/687 736/152/688
f 725/153/689 731/151/686 736/152/688
f 725/153/689 736/152/688 738/154/690
f 721/155/691 725/153/689 738/154/690
f 721/155/691 738/154/690 740/156/692
f 717/157/693 721/155/691 740/156/692
f 717/157/693 740/156/692 742/158/694
f 713/1/695 717/157/693 742/158/694
f 713/1/695 742/158/694 744/159/696
f 709/160/697 713/1/695 744/159/696
f 709/160/697 744/159/696 746/161/698
f 705/162/699 709/160/697 746/161/698
f 705/162/699 746/161/698 748/163/700
f 701/164/701 705/162/699 748/163/700
f 701/164/701 748/163/700 750/165/702
f 697/166/703 701/164/701 750/165/702
f 697/166/703 750/165/702 752/167/704
f 693/18/705 697/166/703 752/167/704
f 691/129/706 753/167/707 751/165/708
f 695/130/709 691/129/706 751/165/708
f 695/130/709 751/165/708 749/163/710
f 699/132/711 695/130/709 749/163/710
f 699/132/711 749/163/710 747/161/712
f 703/134/713 699/132/711 747/161/712
f 703/134/713 747/161/712 745/159/714
f 707/136/715 703/134/713 745/159/714
f 707/136/715 745/159/714 743/158/716
f 711/138/717 707/136/715 743/158/716
f 711/138/717 743/158/716 741/156/718
f 715/140/719 711/138/717 741/156/718
f 715/140/719 741/156/718 739/154/720
f 719/142/721 715/140/719 739/154/720
f 719/142/721 739/154/720 737/152/722
f 723/144/723 719/142/721 737/152/722
f 723/144/723 737/152/722 734/150/724
f 727/146/725 723/144/723 734/150/724
f 728/146/726 735/150/727 350/149/728
f 353/148/729 728/146/726 350/149/728
f 756/126/730 754/129/731 758/130/732
f 760/131/733 756/126/730 758/130/732
f 760/131/733 758/130/732 762/132/734
f 764/133/735 760/131/733 762/132/734
f 764/133/735 762/132/734 766/134/736
f 768/135/737 764/133/735 766/134/736
f 768/135/737 766/134/736 770/136/738
f 772/137/739 768/135/737 770/136/738
f 772/137/739 770/136/738 774/138/740
f 776/139/741 772/137/739 774/138/740
f 776/139/741 774/138/740 778/140/742
f 780/141/743 776/139/741 778/140/742
f 780/141/743 778/140/742 782/142/744
f 784/143/745 780/141/743 782/142/744
f 784/143/745 782/142/744 786/144/746
f 788/145/747 784/143/745 786/144/746
f 788/145/747 786/144/746 790/146/748
f 793/147/749 788/145/747 790/146/748
f 793/147/749 790/146/748 362/148/750
f 366/127/751 793/147/749 362/148/750
f 367/69/752 359/149/753 796/150/754
f 794/151/755 367/69/752 796/150/754
f 795/151/756 797/150/757 800/152/758
f 789/153/759 795/151/756 800/152/758
f 789/153/759 800/152/758 802/154/760
f 785/155/761 789/153/759 802/154/760
f 785/155/761 802/154/760 804/156/762
f 781/157/763 785/155/761 804/156/762
f 781/157/763 804/156/762 806/158/764
f 777/1/765 781/157/763 806/158/764
f 777/1/765 806/158/764 808/159/766
f 773/160/767 777/1/765 808/159/766
f 773/160/767 808/159/766 810/161/768
f 769/162/769 773/160/767 810/161/768
f 769/162/769 810/161/768 812/163/770
f 765/164/771 769/162/769 812/163/770
f 765/164/771 812/163/770 814/165/772
f 761/166/773 765/164/771 814/165/772
f 761/166/773 814/165/772 816/167/774
f 757/18/775 761/166/773 816/167/774
f 755/129/776 817/167/777 815/165/778
f 759/130/779 755/129/776 815/165/778
f 759/130/779 815/165/778 813/163/780
f 763/132/781 759/130/779 813/163/780
f 763/132/781 813/163/780 811/161/782
f 767/134/783 763/132/781 811/161/782
f 767/134/783 811/161/782 809/159/784
f 771/136/785 767/134/783 809/159/784
f 771/136/785 809/159/784 807/158/786
f 775/138/787 771/136/785 807/158/786
f 775/138/787 807/158/786 805/156/788
f 779/140/789 775/138/787 805/156/788
f 779/140/789 805/156/788 803/154/790
f 783/142/791 779/140/789 803/154/790
f 783/142/791 803/154/790 801/152/792
f 787/144/793 783/142/791 801/152/792
f 787/144/793 801/152/792 798/150/794
f 791/146/795 787/144/793 798/150/794
f 792/146/796 799/150/797 360/149/798
f 363/148/799 792/146/796 360/149/798
f 820/126/800 818/129/801 822/130/802
f 824/131/803 820/126/800 822/130/802
f 824/131/803 822/130/802 826/132/804
f 828/133/805 824/131/803 826/132/804
f 828/133/805 826/132/804 830/134/806
f 832/135/807 828/133/805 830/134/806
f 832/135/807 830/134/806 834/136/808
f 836/137/809 832/135/807 834/136/808
f 836/137/809 834/136/808 838/138/810
f 840/139/811 836/137/809 838/138/810
f 840/139/811 838/138/810 842/140/812
f 844/141/813 840/139/811 842/140/812
f 844/141/813 842/140/812 846/142/814
f 848/143/815 844/141/813 846/142/814
f 848/143/815 846/142/814 850/144/816
f 852/145/817 848/143/815 850/144/816
f 852/145/817 850/144/816 854/146/818
f 858/147/819 852/145/817 854/146/818
f 859/147/820 855/146/821 372/148/822
f 376/127/823 859/147/820 372/148/822
f 377/69/824 369/149/825 861/150/826
f 860/151/827 377/69/824 861/150/826
f 860/151/827 861/150/826 864/152/828
f 853/153/829 860/151/827 864/152/828
f 853/153/829 864/152/828 866/154/830
f 849/155/831 853/153/829 866/154/830
f 849/155/831 866/154/830 868/156/832
f 845/157/833 849/155/831 868/156/832
f 845/157/833 868/156/832 870/158/834
f 841/1/835 845/157/833 870/158/834
f 841/1/835 870/158/834 872/159/836
f 837/160/837 841/1/835 872/159/836
f 837/160/837 872/159/836 874/161/838
f 833/162/839 837/160/837 874/161/838
f 833/162/839 874/161/838 876/163/840
f 829/164/841 833/162/839 876/163/840
f 829/164/841 876/163/840 878/165/842
f 825/166/843 829/164/841 878/165/842
f 825/166/843 878/165/842 880/167/844
f 821/18/845 825/166/843 880/167/844
f 819/129/846 881/167/847 879/165/848
f 823/130/849 819/129/846 879/165/848
f 823/130/849 879/165/848 877/163/850
f 827/132/851 823/130/849 877/163/850
f 827/132/851 877/163/850 875/161/852
f 831/134/853 827/132/851 875/161/852
f 831/134/853 875/161/852 873/159/854
f 835/136/855 831/134/853 873/159/854
f 835/136/855 873/159/854 871/158/856
f 839/138/857 835/136/855 871/158/856
f 839/138/857 871/158/856 869/156/858
f 843/140/859 839/138/857 869/156/858
f 843/140/859 869/156/858 867/154/860
f 847/142/861 843/140/859 867/154/860
f 847/142/861 867/154/860 865/152/862
f 851/144/863 847/142/861 865/152/862
f 851/144/863 865/152/862 862/150/864
f 856/146/865 851/144/863 862/150/864
f 857/146/866 863/150/867 370/149/868
f 373/148/869 857/146/866 370/149/868
