# Blender 5.1.2
# www.blender.org
mtllib water.mtl
o _9ada25bb_dds
v 1.880688 -0.003675 -0.126544
v 1.939550 0.006375 -0.314085
v 1.947300 -0.003702 -0.311743
v 1.987564 0.006345 -0.503968
v 1.995317 -0.003732 -0.502401
v 2.016589 0.006312 -0.697761
v 2.024343 -0.003768 -0.696969
v 2.026621 0.006273 -0.893526
v 2.034375 -0.003808 -0.893509
v 2.017268 0.006229 -1.089322
v 2.025026 -0.003847 -1.090083
v 1.988919 0.006183 -1.283217
v 1.996678 -0.003897 -1.284753
v 1.941567 0.006134 -1.473265
v 1.949326 -0.003943 -1.475576
v 1.875982 0.006084 -1.657920
v 1.883358 -0.003993 -1.661007
v 1.792554 0.006031 -1.835239
v 1.799542 -0.004050 -1.838713
v 1.692054 0.005975 -2.003282
v 1.698654 -0.004106 -2.007531
v 1.575638 0.005915 -2.160884
v 1.581852 -0.004162 -2.165912
v 1.444082 0.005859 -2.306111
v 1.449912 -0.004221 -2.311914
v 1.299324 0.005799 -2.438176
v 1.304377 -0.004281 -2.444367
v 1.142133 0.005743 -2.555145
v 1.146411 -0.004337 -2.561724
v 0.974449 0.005687 -2.656236
v 0.977952 -0.004394 -2.663206
v 0.797428 0.005634 -2.740285
v 0.800544 -0.004447 -2.747643
v 0.613012 0.005581 -2.806513
v 0.615357 -0.004499 -2.814261
v 0.423138 0.005531 -2.854528
v 0.424704 -0.004546 -2.862277
v 0.229354 0.005488 -2.883558
v 0.230146 -0.004596 -2.891307
v 0.033598 0.005445 -2.893590
v 0.033615 -0.004638 -2.901340
v -0.162193 0.005406 -2.884237
v -0.162951 -0.004675 -2.891991
v -0.356075 0.005369 -2.855888
v -0.357611 -0.004708 -2.863644
v -0.546117 0.005342 -2.808533
v -0.548426 -0.004741 -2.816288
v -0.730760 0.005320 -2.742948
v -0.733847 -0.004764 -2.750319
v -0.908073 0.005300 -2.659516
v -0.911547 -0.004784 -2.666500
v -1.076108 0.005286 -2.559011
v -1.080360 -0.004797 -2.565608
v -1.233705 0.005276 -2.442595
v -1.238732 -0.004804 -2.448802
v -1.378923 0.005273 -2.311031
v -1.384725 -0.004807 -2.316857
v -1.510983 0.005276 -2.166268
v -1.517173 -0.004807 -2.171317
v -1.627943 0.005283 -2.009069
v -1.634525 -0.004800 -2.013343
v -1.729029 0.005296 -1.841379
v -1.735999 -0.004784 -1.844878
v -1.813073 0.005316 -1.664350
v -1.820434 -0.004764 -1.667462
v -1.879300 0.005343 -1.479929
v -1.887045 -0.004740 -1.482266
v -1.927314 0.005373 -1.290046
v -1.935063 -0.004711 -1.291608
v -1.956339 0.005406 -1.096253
v -1.964088 -0.004674 -1.097037
v -1.966371 0.005445 -0.900488
v -1.974121 -0.004638 -0.900498
v -1.957018 0.005485 -0.704689
v -1.964772 -0.004595 -0.703927
v -1.928669 0.005532 -0.510797
v -1.936424 -0.004549 -0.509257
v -1.881318 0.005581 -0.320746
v -1.889073 -0.004499 -0.318430
v -1.815733 0.005637 -0.136094
v -1.823104 -0.004446 -0.133003
v -1.732305 0.005690 0.041225
v -1.739289 -0.004390 0.044706
v -1.631804 0.005743 0.209268
v -1.638398 -0.004337 0.213525
v -1.515388 0.005803 0.366874
v -1.521598 -0.004277 0.371906
v -1.383832 0.005859 0.512098
v -1.389655 -0.004221 0.517904
v -1.239075 0.005915 0.644166
v -1.244123 -0.004165 0.650361
v -1.081884 0.005972 0.761132
v -1.086158 -0.004105 0.767718
v -0.914199 0.006028 0.862223
v -0.917698 -0.004052 0.869196
v -0.737179 0.006081 0.946272
v -0.740290 -0.003996 0.953636
v -0.552763 0.006134 1.012500
v -0.555100 -0.003943 1.020252
v -0.362888 0.006184 1.060518
v -0.364451 -0.003897 1.068271
v -0.169104 0.006230 1.089544
v -0.169892 -0.003850 1.097297
v 0.026651 0.006273 1.099576
v 0.026639 -0.003808 1.107334
v 0.222442 0.006309 1.090227
v 0.223205 -0.003768 1.097985
v 0.416324 0.006346 1.061875
v 0.417865 -0.003731 1.069634
v 0.606367 0.006375 1.014523
v 0.608683 -0.003705 1.022282
v 0.791010 0.006402 0.948938
v 0.794101 -0.003679 0.956310
v 0.968323 0.006418 0.865506
v 0.971801 -0.003659 0.872491
v 1.136357 0.006435 0.765000
v 1.140614 -0.003645 0.771598
v 1.293954 0.006442 0.648581
v 1.298986 -0.003635 0.654795
v 1.439172 0.006445 0.517020
v 1.444979 -0.003632 0.522847
v 1.571232 0.006442 0.372254
v 1.577427 -0.003635 0.377307
v 1.688193 0.006432 0.215058
v 1.694779 -0.003645 0.219337
v 1.789279 0.006418 0.047365
v 1.796252 -0.003659 0.050869
v 1.873323 0.006398 -0.129660
v 0.030123 0.005859 -0.897005
vn 0.4236 0.8966 0.1293
vn 0.7230 0.6218 0.3010
vn 0.7458 0.6261 0.2276
vn 0.4395 0.8940 0.0879
vn 0.7714 0.6173 0.1544
vn 0.4491 0.8923 0.0447
vn 0.7872 0.6116 0.0786
vn 0.4527 0.8917 0.0006
vn 0.7926 0.6097 0.0012
vn 0.4492 0.8924 -0.0436
vn 0.7872 0.6120 -0.0762
vn 0.4400 0.8938 -0.0868
vn 0.7717 0.6175 -0.1521
vn 0.4242 0.8965 -0.1279
vn 0.7466 0.6262 -0.2247
vn 0.4122 0.8951 -0.1700
vn 0.7244 0.6213 -0.2987
vn 0.3981 0.8923 -0.2128
vn 0.6979 0.6121 -0.3719
vn 0.3743 0.8931 -0.2497
vn 0.6567 0.6145 -0.4372
vn 0.3451 0.8949 -0.2828
vn 0.6062 0.6217 -0.4961
vn 0.3113 0.8983 -0.3102
vn 0.5491 0.6320 -0.5468
vn 0.2835 0.8950 -0.3445
vn 0.4981 0.6211 -0.6051
vn 0.2505 0.8931 -0.3738
vn 0.4392 0.6142 -0.6556
vn 0.2136 0.8922 -0.3979
vn 0.3736 0.6121 -0.6970
vn 0.1713 0.8949 -0.4121
vn 0.3011 0.6213 -0.7234
vn 0.1293 0.8964 -0.4239
vn 0.2276 0.6260 -0.7459
vn 0.0879 0.8938 -0.4398
vn 0.1544 0.6171 -0.7716
vn 0.0447 0.8922 -0.4495
vn 0.0786 0.6113 -0.7875
vn 0.0006 0.8915 -0.4531
vn 0.0012 0.6094 -0.7928
vn -0.0436 0.8922 -0.4496
vn -0.0762 0.6116 -0.7875
vn -0.0868 0.8937 -0.4402
vn -0.1521 0.6172 -0.7720
vn -0.1279 0.8963 -0.4246
vn -0.2248 0.6258 -0.7469
vn -0.1700 0.8949 -0.4126
vn -0.2988 0.6209 -0.7247
vn -0.2128 0.8922 -0.3985
vn -0.3719 0.6118 -0.6982
vn -0.2497 0.8929 -0.3746
vn -0.4372 0.6143 -0.6569
vn -0.2829 0.8947 -0.3456
vn -0.4962 0.6213 -0.6065
vn -0.3101 0.8982 -0.3116
vn -0.5468 0.6319 -0.5493
vn -0.3445 0.8948 -0.2839
vn -0.6052 0.6208 -0.4984
vn -0.3737 0.8930 -0.2508
vn -0.6556 0.6141 -0.4394
vn -0.3979 0.8921 -0.2140
vn -0.6970 0.6120 -0.3738
vn -0.4120 0.8949 -0.1716
vn -0.7233 0.6213 -0.3013
vn -0.4241 0.8963 -0.1297
vn -0.7461 0.6256 -0.2279
vn -0.4399 0.8937 -0.0883
vn -0.7717 0.6169 -0.1547
vn -0.4494 0.8922 -0.0451
vn -0.7874 0.6114 -0.0789
vn -0.4531 0.8915 -0.0009
vn -0.7929 0.6094 -0.0014
vn -0.4496 0.8922 0.0432
vn -0.7875 0.6116 0.0760
vn -0.4403 0.8937 0.0865
vn -0.7719 0.6173 0.1518
vn -0.4246 0.8964 0.1275
vn -0.7468 0.6260 0.2245
vn -0.4126 0.8950 0.1697
vn -0.7248 0.6210 0.2985
vn -0.3984 0.8923 0.2124
vn -0.6981 0.6121 0.3716
vn -0.3747 0.8930 0.2493
vn -0.6569 0.6145 0.4369
vn -0.3456 0.8949 0.2825
vn -0.6065 0.6215 0.4959
vn -0.3117 0.8983 0.3098
vn -0.5494 0.6319 0.5466
vn -0.2839 0.8950 0.3441
vn -0.4984 0.6211 0.6049
vn -0.2508 0.8932 0.3733
vn -0.4394 0.6145 0.6552
vn -0.2140 0.8923 0.3975
vn -0.3739 0.6121 0.6968
vn -0.1716 0.8950 0.4117
vn -0.3013 0.6216 0.7230
vn -0.1297 0.8966 0.4235
vn -0.2279 0.6262 0.7456
vn -0.0883 0.8939 0.4395
vn -0.1547 0.6172 0.7715
vn -0.0451 0.8923 0.4491
vn -0.0789 0.6116 0.7872
vn -0.0009 0.8917 0.4526
vn -0.0014 0.6099 0.7924
vn 0.0432 0.8924 0.4492
vn 0.0760 0.6120 0.7872
vn 0.0865 0.8939 0.4399
vn 0.1518 0.6176 0.7717
vn 0.1276 0.8965 0.4242
vn 0.2246 0.6262 0.7467
vn 0.1697 0.8951 0.4123
vn 0.2986 0.6211 0.7246
vn 0.2125 0.8924 0.3981
vn 0.3716 0.6122 0.6979
vn 0.2494 0.8931 0.3743
vn 0.4370 0.6146 0.6567
vn 0.2825 0.8950 0.3452
vn 0.4959 0.6218 0.6062
vn 0.3098 0.8984 0.3113
vn 0.5466 0.6322 0.5491
vn 0.3441 0.8951 0.2835
vn 0.6049 0.6213 0.4981
vn 0.3733 0.8933 0.2504
vn 0.6553 0.6146 0.4391
vn 0.3975 0.8924 0.2136
vn 0.6967 0.6124 0.3736
vn 0.4116 0.8951 0.1712
vn -0.0002 1.0000 -0.0002
vt 168.298203 -20.151600
vt 162.489304 -24.107700
vt 168.579895 -19.692600
vt 173.635193 -15.604200
vt 173.930099 -15.126499
vt 178.188293 -10.942800
vt 178.496201 -10.446400
vt 181.924698 -6.214400
vt 182.245697 -5.699100
vt 184.794403 -1.465400
vt 185.128403 -0.931400
vt 186.781906 3.256900
vt 187.129105 3.809600
vt 187.854706 7.905400
vt 188.214905 8.477000
vt 188.021194 12.442000
vt 188.377197 13.032700
vt 187.266098 16.819099
vt 187.611206 17.419600
vt 185.591202 20.989100
vt 185.932098 21.608801
vt 183.029099 24.922701
vt 183.365707 25.561600
vt 179.581604 28.572001
vt 179.914001 29.230101
vt 175.322296 31.916300
vt 175.626602 32.584499
vt 170.253296 34.907700
vt 170.529404 35.586201
vt 164.448105 37.525600
vt 164.696106 38.214199
vt 157.938995 39.740398
vt 158.176300 40.438801
vt 150.799805 41.531399
vt 151.008896 42.240101
vt 143.110397 42.887100
vt 143.284897 43.596600
vt 134.927307 43.787102
vt 135.067001 44.497501
vt 126.336899 44.229401
vt 126.442001 44.940601
vt 117.419502 44.202499
vt 117.489998 44.914501
vt 108.268303 43.713799
vt 108.304100 44.426601
vt 98.970001 42.761200
vt 98.971100 43.474800
vt 89.606903 41.361698
vt 89.566803 42.066799
vt 80.272301 39.522800
vt 80.208298 40.218899
vt 71.066002 37.261200
vt 70.960800 37.948700
vt 62.059502 34.603699
vt 61.913101 35.282700
vt 53.352600 31.567101
vt 53.165001 32.237499
vt 45.012699 28.197500
vt 44.794701 28.849501
vt 37.139599 24.511499
vt 36.891102 25.145201
vt 29.800501 20.555401
vt 29.521700 21.170700
vt 23.067200 16.355900
vt 22.764500 16.962200
vt 17.007000 11.959200
vt 16.673901 12.547200
vt 11.670000 7.411800
vt 11.323800 7.981000
vt 7.116900 2.750400
vt 6.757600 3.300900
vt 3.380600 -1.978000
vt 3.008100 -1.446300
vt 0.510900 -6.727000
vt 0.125400 -6.214100
vt -1.476700 -11.449300
vt -1.875200 -10.955100
vt -2.549500 -16.097799
vt -2.961100 -15.622400
vt -2.716000 -20.634399
vt -3.123400 -20.178101
vt -1.960800 -25.011499
vt -2.357400 -24.565100
vt -0.286000 -29.181499
vt -0.678300 -28.754299
vt 2.276200 -33.115101
vt 1.888100 -32.707001
vt 5.723700 -36.764400
vt 5.339800 -36.375500
vt 9.982900 -40.108700
vt 9.627200 -39.730000
vt 15.051900 -43.100101
vt 14.724400 -42.731602
vt 20.857201 -45.717999
vt 20.557699 -45.359699
vt 27.366199 -47.932800
vt 27.077499 -47.584301
vt 34.505501 -49.723801
vt 34.244900 -49.385502
vt 42.194801 -51.079498
vt 41.968899 -50.742100
vt 50.377998 -51.979500
vt 50.186798 -51.642899
vt 58.968300 -52.421799
vt 58.811798 -52.085999
vt 67.885696 -52.395000
vt 67.763901 -52.060001
vt 77.036903 -51.906200
vt 76.949699 -51.572102
vt 86.335297 -50.953602
vt 86.282700 -50.620201
vt 95.698303 -49.554100
vt 95.686996 -49.212200
vt 105.032898 -47.715199
vt 105.045502 -47.364399
vt 114.239304 -45.453602
vt 114.293098 -45.094101
vt 123.245796 -42.796101
vt 123.340797 -42.428101
vt 131.952698 -39.759499
vt 132.088806 -39.382900
vt 140.292496 -36.389900
vt 140.459198 -35.994900
vt 148.165695 -32.703899
vt 148.362701 -32.290600
vt 155.504700 -28.747700
vt 155.732193 -28.316099
vt 162.238007 -24.548300
vt 92.652603 -4.096200
s 1
usemtl 9ada25bb_dds
f 2/1/1 1/2/2 3/3/3
f 4/4/4 2/1/1 3/3/3
f 4/4/4 3/3/3 5/5/5
f 6/6/6 4/4/4 5/5/5
f 6/6/6 5/5/5 7/7/7
f 8/8/8 6/6/6 7/7/7
f 8/8/8 7/7/7 9/9/9
f 10/10/10 8/8/8 9/9/9
f 10/10/10 9/9/9 11/11/11
f 12/12/12 10/10/10 11/11/11
f 12/12/12 11/11/11 13/13/13
f 14/14/14 12/12/12 13/13/13
f 14/14/14 13/13/13 15/15/15
f 16/16/16 14/14/14 15/15/15
f 16/16/16 15/15/15 17/17/17
f 18/18/18 16/16/16 17/17/17
f 18/18/18 17/17/17 19/19/19
f 20/20/20 18/18/18 19/19/19
f 20/20/20 19/19/19 21/21/21
f 22/22/22 20/20/20 21/21/21
f 22/22/22 21/21/21 23/23/23
f 24/24/24 22/22/22 23/23/23
f 24/24/24 23/23/23 25/25/25
f 26/26/26 24/24/24 25/25/25
f 26/26/26 25/25/25 27/27/27
f 28/28/28 26/26/26 27/27/27
f 28/28/28 27/27/27 29/29/29
f 30/30/30 28/28/28 29/29/29
f 30/30/30 29/29/29 31/31/31
f 32/32/32 30/30/30 31/31/31
f 32/32/32 31/31/31 33/33/33
f 34/34/34 32/32/32 33/33/33
f 34/34/34 33/33/33 35/35/35
f 36/36/36 34/34/34 35/35/35
f 36/36/36 35/35/35 37/37/37
f 38/38/38 36/36/36 37/37/37
f 38/38/38 37/37/37 39/39/39
f 40/40/40 38/38/38 39/39/39
f 40/40/40 39/39/39 41/41/41
f 42/42/42 40/40/40 41/41/41
f 42/42/42 41/41/41 43/43/43
f 44/44/44 42/42/42 43/43/43
f 44/44/44 43/43/43 45/45/45
f 46/46/46 44/44/44 45/45/45
f 46/46/46 45/45/45 47/47/47
f 48/48/48 46/46/46 47/47/47
f 48/48/48 47/47/47 49/49/49
f 50/50/50 48/48/48 49/49/49
f 50/50/50 49/49/49 51/51/51
f 52/52/52 50/50/50 51/51/51
f 52/52/52 51/51/51 53/53/53
f 54/54/54 52/52/52 53/53/53
f 54/54/54 53/53/53 55/55/55
f 56/56/56 54/54/54 55/55/55
f 56/56/56 55/55/55 57/57/57
f 58/58/58 56/56/56 57/57/57
f 58/58/58 57/57/57 59/59/59
f 60/60/60 58/58/58 59/59/59
f 60/60/60 59/59/59 61/61/61
f 62/62/62 60/60/60 61/61/61
f 62/62/62 61/61/61 63/63/63
f 64/64/64 62/62/62 63/63/63
f 64/64/64 63/63/63 65/65/65
f 66/66/66 64/64/64 65/65/65
f 66/66/66 65/65/65 67/67/67
f 68/68/68 66/66/66 67/67/67
f 68/68/68 67/67/67 69/69/69
f 70/70/70 68/68/68 69/69/69
f 70/70/70 69/69/69 71/71/71
f 72/72/72 70/70/70 71/71/71
f 72/72/72 71/71/71 73/73/73
f 74/74/74 72/72/72 73/73/73
f 74/74/74 73/73/73 75/75/75
f 76/76/76 74/74/74 75/75/75
f 76/76/76 75/75/75 77/77/77
f 78/78/78 76/76/76 77/77/77
f 78/78/78 77/77/77 79/79/79
f 80/80/80 78/78/78 79/79/79
f 80/80/80 79/79/79 81/81/81
f 82/82/82 80/80/80 81/81/81
f 82/82/82 81/81/81 83/83/83
f 84/84/84 82/82/82 83/83/83
f 84/84/84 83/83/83 85/85/85
f 86/86/86 84/84/84 85/85/85
f 86/86/86 85/85/85 87/87/87
f 88/88/88 86/86/86 87/87/87
f 88/88/88 87/87/87 89/89/89
f 90/90/90 88/88/88 89/89/89
f 90/90/90 89/89/89 91/91/91
f 92/92/92 90/90/90 91/91/91
f 92/92/92 91/91/91 93/93/93
f 94/94/94 92/92/92 93/93/93
f 94/94/94 93/93/93 95/95/95
f 96/96/96 94/94/94 95/95/95
f 96/96/96 95/95/95 97/97/97
f 98/98/98 96/96/96 97/97/97
f 98/98/98 97/97/97 99/99/99
f 100/100/100 98/98/98 99/99/99
f 100/100/100 99/99/99 101/101/101
f 102/102/102 100/100/100 101/101/101
f 102/102/102 101/101/101 103/103/103
f 104/104/104 102/102/102 103/103/103
f 104/104/104 103/103/103 105/105/105
f 106/106/106 104/104/104 105/105/105
f 106/106/106 105/105/105 107/107/107
f 108/108/108 106/106/106 107/107/107
f 108/108/108 107/107/107 109/109/109
f 110/110/110 108/108/108 109/109/109
f 110/110/110 109/109/109 111/111/111
f 112/112/112 110/110/110 111/111/111
f 112/112/112 111/111/111 113/113/113
f 114/114/114 112/112/112 113/113/113
f 114/114/114 113/113/113 115/115/115
f 116/116/116 114/114/114 115/115/115
f 116/116/116 115/115/115 117/117/117
f 118/118/118 116/116/116 117/117/117
f 118/118/118 117/117/117 119/119/119
f 120/120/120 118/118/118 119/119/119
f 120/120/120 119/119/119 121/121/121
f 122/122/122 120/120/120 121/121/121
f 122/122/122 121/121/121 123/123/123
f 124/124/124 122/122/122 123/123/123
f 124/124/124 123/123/123 125/125/125
f 126/126/126 124/124/124 125/125/125
f 126/126/126 125/125/125 127/127/127
f 128/128/128 126/126/126 127/127/127
f 128/128/128 127/127/127 1/2/2
f 128/128/128 1/2/2 2/1/1
f 129/129/129 128/128/128 2/1/1
f 129/129/129 2/1/1 4/4/4
f 129/129/129 4/4/4 6/6/6
f 129/129/129 6/6/6 8/8/8
f 129/129/129 8/8/8 10/10/10
f 129/129/129 10/10/10 12/12/12
f 129/129/129 12/12/12 14/14/14
f 129/129/129 14/14/14 16/16/16
f 129/129/129 16/16/16 18/18/18
f 129/129/129 18/18/18 20/20/20
f 129/129/129 20/20/20 22/22/22
f 129/129/129 22/22/22 24/24/24
f 129/129/129 24/24/24 26/26/26
f 129/129/129 26/26/26 28/28/28
f 129/129/129 28/28/28 30/30/30
f 129/129/129 30/30/30 32/32/32
f 129/129/129 32/32/32 34/34/34
f 129/129/129 34/34/34 36/36/36
f 129/129/129 36/36/36 38/38/38
f 129/129/129 38/38/38 40/40/40
f 129/129/129 40/40/40 42/42/42
f 129/129/129 42/42/42 44/44/44
f 129/129/129 44/44/44 46/46/46
f 129/129/129 46/46/46 48/48/48
f 129/129/129 48/48/48 50/50/50
f 129/129/129 50/50/50 52/52/52
f 129/129/129 52/52/52 54/54/54
f 129/129/129 54/54/54 56/56/56
f 129/129/129 56/56/56 58/58/58
f 129/129/129 58/58/58 60/60/60
f 129/129/129 60/60/60 62/62/62
f 129/129/129 62/62/62 64/64/64
f 129/129/129 64/64/64 66/66/66
f 129/129/129 66/66/66 68/68/68
f 129/129/129 68/68/68 70/70/70
f 129/129/129 70/70/70 72/72/72
f 129/129/129 72/72/72 74/74/74
f 129/129/129 74/74/74 76/76/76
f 129/129/129 76/76/76 78/78/78
f 129/129/129 78/78/78 80/80/80
f 129/129/129 80/80/80 82/82/82
f 129/129/129 82/82/82 84/84/84
f 129/129/129 84/84/84 86/86/86
f 129/129/129 86/86/86 88/88/88
f 129/129/129 88/88/88 90/90/90
f 129/129/129 90/90/90 92/92/92
f 129/129/129 92/92/92 94/94/94
f 129/129/129 94/94/94 96/96/96
f 129/129/129 96/96/96 98/98/98
f 129/129/129 98/98/98 100/100/100
f 129/129/129 100/100/100 102/102/102
f 129/129/129 102/102/102 104/104/104
f 129/129/129 104/104/104 106/106/106
f 129/129/129 106/106/106 108/108/108
f 129/129/129 108/108/108 110/110/110
f 129/129/129 110/110/110 112/112/112
f 129/129/129 112/112/112 114/114/114
f 129/129/129 114/114/114 116/116/116
f 129/129/129 116/116/116 118/118/118
f 129/129/129 118/118/118 120/120/120
f 129/129/129 120/120/120 122/122/122
f 129/129/129 122/122/122 124/124/124
f 129/129/129 124/124/124 126/126/126
f 128/128/128 129/129/129 126/126/126
